<svg xmlns="http://www.w3.org/2000/svg" width="672" height="369" viewBox="0 0 672 369" xmlns:xlink="http://www.w3.org/1999/xlink">
  <defs>
    <rect id="a" width="672" height="369"/>
    <linearGradient id="d" x1="50%" x2="82.48%" y1="27.004%" y2="63.661%">
      <stop stop-color="#FFFFFF" offset="0%"/>
      <stop stop-color="#747474" offset="100%"/>
    </linearGradient>
    <path id="c" d="M619.5,0 C651.808658,0 678,26.1913421 678,58.5 C678,61.3870242 677.790868,64.2252029 677.386926,67.0002134 L724,67 L724,427 L315,427 L350.239536,385.271145 C345.807113,384.566218 341.540587,383.363445 337.499065,381.721935 C331.506429,407.662257 308.2615,427 280.5,427 C256.632855,427 236.103999,412.707083 227.005867,392.213683 C216.996854,400.107279 205.394627,406.070276 192.760816,409.541954 C185.324271,455.724977 145.281597,491 97,491 C43.4283793,491 0,447.571621 0,394 C0,349.347927 30.1708327,311.74263 71.2385417,300.458065 C78.6751518,254.275531 118.718055,219 167,219 C219.359529,219 262.029619,260.485422 263.93369,312.379688 C269.184618,310.83094 274.745271,310 280.5,310 C288.282056,310 295.709207,311.519528 302.500935,314.278065 C308.493571,288.337743 331.7385,269 359.5,269 C364.522233,269 369.396652,269.632869 374.047857,270.823207 C374.015223,270.054268 374,269.278912 374,268.5 C374,247.326724 385.248537,228.780685 402.095695,218.511797 C395.686004,207.844495 392,195.352704 392,182 C392,142.787783 423.787783,111 463,111 C481.801278,111 498.895706,118.307893 511.597724,130.238118 C518.362344,127.504926 525.755425,126 533.5,126 C541.160953,126 548.477961,127.472602 555.1834,130.150183 C555.061498,128.616769 555,127.065566 555,125.5 C555,111.106893 560.197913,97.9278231 568.818973,87.7375586 C563.846302,79.1367279 561,69.1507587 561,58.5 C561,26.1913421 587.191342,0 619.5,0 Z"/>
    <filter id="e" width="106.4%" height="109.4%" x="-3.2%" y="-4.7%" filterUnits="objectBoundingBox">
      <feGaussianBlur stdDeviation="22.5" in="SourceAlpha" result="shadowBlurInner1"/>
      <feOffset dy="1" in="shadowBlurInner1" result="shadowOffsetInner1"/>
      <feComposite in="shadowOffsetInner1" in2="SourceAlpha" operator="arithmetic" k2="-1" k3="1" result="shadowInnerInner1"/>
      <feColorMatrix values="0 0 0 0 1 0 0 0 0 1 0 0 0 0 1 0 0 0 0.5 0" in="shadowInnerInner1"/>
    </filter>
    <linearGradient id="f" x1="25.574%" x2="75.435%" y1="100%" y2="1.513%">
      <stop stop-color="#FFFFFF" offset="0%"/>
      <stop stop-color="#747474" offset="100%"/>
    </linearGradient>
  </defs>
  <g fill="none" fill-rule="evenodd">
    <mask id="b" fill="white">
      <use xlink:href="#a"/>
    </mask>
    <path fill="#000000" d="M161.999998,294.001576 C234.902453,294.001576 294.001576,234.902453 294.001576,162.000002 C294.001576,89.0975467 234.902453,29.9984237 161.999998,29.9984237 C89.0975406,29.9984237 29.9984237,89.0975467 29.9984237,162.000002 C29.9984237,234.902453 89.0975406,294.001576 161.999998,294.001576 Z M162,324 C251.470118,324 324,251.470118 324,162 C324,72.5298822 251.470118,0 162,0 C72.5298701,0 0,72.5298822 0,162 C0,251.470118 72.5298701,324 162,324 Z M251.448427,199.436142 C202.621926,238.974672 132.793534,238.974672 83.9670236,199.436142 L102.845535,176.122902 C140.664588,206.747863 194.750872,206.747863 232.569921,176.122902 L251.448427,199.436142 Z M104.298999,107.57507 L104.298999,148.101493 L134.297423,148.101493 L134.297423,107.57507 L104.298999,107.57507 Z M197.387888,148.101493 L197.387888,107.57507 L227.386312,107.57507 L227.386312,148.101493 L197.387888,148.101493 Z" transform="translate(159 15)" opacity=".017" mask="url(#b)"/>
    <g mask="url(#b)">
      <use fill="#FFFFFF" xlink:href="#c"/>
      <use fill="url(#d)" fill-opacity=".1" xlink:href="#c"/>
      <use fill="black" filter="url(#e)" xlink:href="#c"/>
    </g>
    <g transform="matrix(-1 0 0 1 737.849 45.335)" mask="url(#b)">
      <path fill="url(#f)" d="M192.999906,23.665322 L193.999906,25.665322 C100.431362,85.6951195 0.787592876,295.889463 0.00533453281,295.667805 C-0.837579827,295.423427 98.3589054,84.383164 192.999906,23.665322 Z" opacity=".1"/>
      <path fill="#EED600" d="M193.91378,15.7256382 L202.32578,15.7256382 L198.32578,6.39230485 L200.992446,6.39230485 L210.32578,15.7256382 L216.992446,15.7256382 C218.755113,15.7163048 220.992446,17.0616382 220.992446,18.3923048 C220.992446,19.7229715 218.739113,21.0496382 216.992446,21.0589715 L210.32578,21.0589715 L200.992446,30.3923048 L198.32578,30.3923048 L202.32578,21.0589715 L193.91378,21.0589715 L190.85778,23.7256382 L188.992446,23.7256382 L190.980446,18.3923048 L188.992446,13.0589715 L190.85778,13.0589715 L193.91378,15.7256382" transform="rotate(-30 204.992 18.392)"/>
    </g>
  </g>
</svg>
