<svg width="131" height="42" viewBox="0 0 131 42" fill="none" xmlns="http://www.w3.org/2000/svg">
<path d="M0.5 0.5H116C124.008 0.5 130.5 6.99187 130.5 15V41.5H15C6.99187 41.5 0.5 35.0081 0.5 27V0.5Z" fill="white" stroke="black"/>
<path d="M29.8497 24.1575C26.3836 26.9643 21.4266 26.9643 17.9605 24.1575L19.3007 22.5026C21.9854 24.6766 25.8248 24.6766 28.5095 22.5026L29.8497 24.1575Z" fill="black"/>
<path d="M19.404 17.6365V20.5134H21.5336V17.6365H19.404Z" fill="black"/>
<path d="M26.012 17.6365V20.5134H28.1415V17.6365H26.012Z" fill="black"/>
<path fill-rule="evenodd" clip-rule="evenodd" d="M23.5 33C29.8513 33 35 27.8513 35 21.5C35 15.1487 29.8513 10 23.5 10C17.1487 10 12 15.1487 12 21.5C12 27.8513 17.1487 33 23.5 33ZM23.5 30.8705C28.6752 30.8705 32.8705 26.6752 32.8705 21.5C32.8705 16.3248 28.6752 12.1295 23.5 12.1295C18.3248 12.1295 14.1295 16.3248 14.1295 21.5C14.1295 26.6752 18.3248 30.8705 23.5 30.8705Z" fill="black"/>
<path d="M97.0369 10.1228C96.8689 10.2304 96.6796 10.4163 96.4688 10.6804V8H95.5796V15.2098H96.4688V12.4315C96.4688 11.7337 96.6187 11.2593 96.9184 11.0082C97.218 10.7571 97.5523 10.6315 97.9211 10.6315C98.3657 10.6315 98.6687 10.775 98.8301 11.062C98.9289 11.2413 98.9783 11.5234 98.9783 11.9082V15.2098H99.8922V11.8495C99.8922 11.3343 99.8181 10.9315 99.6699 10.6413C99.3965 10.1098 98.8762 9.84403 98.1089 9.84403C97.6807 9.84403 97.3234 9.93696 97.0369 10.1228Z" fill="black"/>
<path fill-rule="evenodd" clip-rule="evenodd" d="M117.195 12.0354C117.399 12.0093 117.535 11.9245 117.605 11.781C117.644 11.7028 117.664 11.5903 117.664 11.4435C117.664 11.1435 117.555 10.9267 117.338 10.793C117.124 10.656 116.816 10.5875 116.414 10.5875C115.95 10.5875 115.62 10.7115 115.426 10.9593C115.317 11.0962 115.247 11.3001 115.214 11.5707H114.384C114.4 10.9251 114.611 10.4767 115.016 10.2256C115.424 9.97124 115.897 9.84407 116.434 9.84407C117.056 9.84407 117.562 9.96146 117.95 10.1962C118.336 10.431 118.528 10.7962 118.528 11.2919V14.3098C118.528 14.4012 118.546 14.4745 118.583 14.53C118.622 14.5854 118.703 14.6131 118.825 14.6131C118.864 14.6131 118.909 14.6115 118.958 14.6082C119.008 14.6017 119.06 14.5935 119.116 14.5838V15.2343C118.978 15.2734 118.873 15.2979 118.8 15.3077C118.728 15.3175 118.629 15.3224 118.504 15.3224C118.197 15.3224 117.975 15.2147 117.837 14.9995C117.764 14.8854 117.713 14.724 117.684 14.5153C117.503 14.7501 117.242 14.9539 116.903 15.1267C116.564 15.2995 116.19 15.3859 115.782 15.3859C115.291 15.3859 114.889 15.2392 114.576 14.9457C114.267 14.649 114.112 14.2789 114.112 13.8354C114.112 13.3495 114.265 12.9729 114.572 12.7055C114.878 12.4381 115.28 12.2734 115.777 12.2115L117.195 12.0354ZM115.041 13.8158C115.041 14.0702 115.135 14.2707 115.322 14.4175C115.51 14.5642 115.732 14.6376 115.989 14.6376C116.302 14.6376 116.605 14.5658 116.898 14.4223C117.392 14.1843 117.639 13.7946 117.639 13.2533V12.5441C117.531 12.6126 117.391 12.6696 117.219 12.7153C117.048 12.7609 116.88 12.7935 116.715 12.8131L116.177 12.8816C115.854 12.924 115.612 12.9908 115.451 13.0821C115.177 13.2354 115.041 13.48 115.041 13.8158Z" fill="black"/>
<path d="M120.641 11.6783C120.598 11.8609 120.577 12.1234 120.577 12.4658V15.2098H119.687V9.97118H120.532V10.7147C120.782 10.4081 121.048 10.188 121.328 10.0543C121.607 9.92063 121.919 9.85379 122.261 9.85379C123.012 9.85379 123.519 10.113 123.783 10.6315C123.928 10.9152 124 11.3212 124 11.8494V15.2098H123.096V11.9081C123.096 11.5886 123.048 11.331 122.953 11.1353C122.795 10.8092 122.508 10.6462 122.093 10.6462C121.882 10.6462 121.71 10.6674 121.575 10.7098C121.331 10.7815 121.117 10.925 120.932 11.1402C120.784 11.313 120.687 11.4924 120.641 11.6783Z" fill="black"/>
<path fill-rule="evenodd" clip-rule="evenodd" d="M92.1232 32.1501L96.7607 19.2823H99.8288L104.431 32.1501H101.486L100.649 29.505H95.8614L94.9621 32.1501H92.1232ZM98.2683 22.2243L96.5932 27.2876H99.8905L98.2683 22.2243Z" fill="black"/>
<path fill-rule="evenodd" clip-rule="evenodd" d="M79.3062 23.7782C78.595 22.8761 77.6076 22.4251 76.3439 22.4251C75.6444 22.4251 75.0684 22.5706 74.6158 22.8616C74.2338 23.0944 73.8841 23.4319 73.5667 23.8742V19.2998H71.0628V32.1501H73.5226V30.9541C73.8576 31.4197 74.1691 31.7457 74.4571 31.9319C74.9391 32.2462 75.5768 32.4033 76.3703 32.4033C77.634 32.4033 78.6185 31.9173 79.3238 30.9454C80.0292 29.9735 80.3818 28.7484 80.3818 27.2702C80.3818 25.8443 80.0233 24.6803 79.3062 23.7782ZM77.2079 29.5748C76.8493 30.0928 76.3468 30.3518 75.7003 30.3518C74.9538 30.3518 74.3984 30.0841 74.0339 29.5486C73.6695 29.0132 73.4873 28.3381 73.4873 27.5233C73.4873 26.8308 73.5755 26.2662 73.7518 25.8297C74.0927 25.0091 74.7187 24.5988 75.6297 24.5988C76.529 24.5988 77.1462 25.0179 77.4812 25.8559C77.6575 26.2982 77.7457 26.8569 77.7457 27.532C77.7457 28.3759 77.5664 29.0569 77.2079 29.5748Z" fill="black"/>
<path d="M65.228 30.2558C65.128 30.1568 65.0781 29.9124 65.0781 29.5225V24.4941H66.6386V22.7219H65.0781V20.068H62.5918V22.7219H61.2517V24.4941H62.5918V30.3518C62.5918 30.9454 62.7329 31.3848 63.015 31.67C63.45 32.1181 64.2611 32.3218 65.4484 32.2811L66.6386 32.2374V30.378C66.5563 30.3838 66.4711 30.3896 66.3829 30.3954H66.1449C65.6335 30.3954 65.3279 30.3489 65.228 30.2558Z" fill="black"/>
<path fill-rule="evenodd" clip-rule="evenodd" d="M59.9373 30.9978C60.7485 30.0026 61.154 28.8066 61.154 27.4098C61.154 26.0363 60.7485 24.8462 59.9373 23.8393C59.1262 22.8325 57.8948 22.3291 56.2432 22.3291C54.5916 22.3291 53.3602 22.8325 52.5491 23.8393C51.738 24.8462 51.3324 26.0363 51.3324 27.4098C51.3324 28.8066 51.738 30.0026 52.5491 30.9978C53.3602 31.9872 54.5916 32.4819 56.2432 32.4819C57.8948 32.4819 59.1262 31.9872 59.9373 30.9978ZM57.9272 29.6185C57.5334 30.1365 56.9691 30.3954 56.2344 30.3954C55.4997 30.3954 54.9325 30.1365 54.5328 29.6185C54.139 29.1005 53.9421 28.3643 53.9421 27.4098C53.9421 26.4554 54.139 25.7221 54.5328 25.2099C54.9325 24.6919 55.4997 24.433 56.2344 24.433C56.9691 24.433 57.5334 24.6919 57.9272 25.2099C58.321 25.7221 58.5179 26.4554 58.5179 27.4098C58.5179 28.3643 58.321 29.1005 57.9272 29.6185Z" fill="black"/>
<path d="M46.9323 22.4076C47.9256 22.4076 48.7367 22.6666 49.3656 23.1846C50.0004 23.6967 50.3178 24.5494 50.3178 25.7424V32.1501H47.7434V26.3622C47.7434 25.8617 47.6758 25.4776 47.5406 25.2099C47.2937 24.721 46.8235 24.4766 46.13 24.4766C45.2777 24.4766 44.6929 24.8345 44.3755 25.5504C44.2109 25.9287 44.1286 26.4117 44.1286 26.9995V32.1501H41.6247V22.6521H44.0493V24.0401C44.3725 23.5512 44.6782 23.1991 44.9662 22.9838C45.4834 22.5997 46.1388 22.4076 46.9323 22.4076Z" fill="black"/>
<path d="M81.8549 33.9747L82.1723 33.9921C82.4192 34.0038 82.6543 33.995 82.8776 33.9659C83.101 33.9368 83.289 33.8699 83.4419 33.7652C83.5888 33.6662 83.724 33.4596 83.8474 33.1453C83.9767 32.8311 84.0296 32.639 84.0061 32.5692L80.4795 22.6346H83.2744L85.3727 29.6534L87.3564 22.6346H90.0278L86.7304 31.993C86.0956 33.7972 85.5931 34.9146 85.2228 35.3453C84.8525 35.7818 84.1119 36 83.001 36C82.7777 36 82.5984 35.9971 82.4632 35.9913C82.328 35.9913 82.1253 35.9825 81.8549 35.9651V33.9747Z" fill="black"/>
<path d="M107.534 11.0326C107.261 11.2902 107.124 11.7565 107.124 12.4315V15.2098H106.235V9.97118H107.114V10.7147C107.325 10.457 107.516 10.2695 107.688 10.1522C107.981 9.95324 108.313 9.85379 108.685 9.85379C109.107 9.85379 109.446 9.9565 109.703 10.1619C109.848 10.2793 109.98 10.4522 110.098 10.6804C110.296 10.4 110.528 10.1929 110.795 10.0592C111.061 9.92226 111.361 9.85379 111.694 9.85379C112.405 9.85379 112.889 10.1081 113.146 10.6168C113.284 10.8907 113.354 11.2592 113.354 11.7223V15.2098H112.43V11.5706C112.43 11.2217 112.341 10.9821 112.163 10.8516C111.989 10.7212 111.774 10.656 111.521 10.656C111.172 10.656 110.87 10.7717 110.617 11.0032C110.367 11.2348 110.241 11.6212 110.241 12.1625V15.2098H109.337V11.7908C109.337 11.4353 109.295 11.1761 109.209 11.013C109.074 10.7685 108.822 10.6462 108.453 10.6462C108.117 10.6462 107.811 10.775 107.534 11.0326Z" fill="black"/>
<path d="M101.11 14.6032C100.962 14.3358 100.888 13.9788 100.888 13.532V9.97114H101.796V13.4489C101.796 13.7163 101.839 13.9347 101.925 14.1043C102.083 14.4174 102.378 14.5739 102.809 14.5739C103.428 14.5739 103.85 14.3 104.074 13.7521C104.196 13.4587 104.257 13.0559 104.257 12.544V9.97114H105.146V15.2097H104.306L104.316 14.4369C104.201 14.6358 104.057 14.8038 103.886 14.9407C103.547 15.2146 103.135 15.3516 102.651 15.3516C101.897 15.3516 101.383 15.1021 101.11 14.6032Z" fill="black"/>
<path d="M91.7653 12.2701C92.1968 11.0733 92.475 10.307 92.6002 9.97114H91.6172L90.1895 14.2364L88.7718 9.97114H87.764L89.7202 15.3614C89.6741 15.4788 89.6 15.6581 89.4979 15.8994C89.3959 16.1407 89.3366 16.2744 89.3201 16.3005C89.2674 16.3788 89.2015 16.444 89.1225 16.4962C89.0468 16.5516 88.9266 16.5793 88.7619 16.5793C88.7092 16.5793 88.6483 16.5744 88.5791 16.5646C88.51 16.5549 88.398 16.5288 88.2432 16.4864V17.2886C88.342 17.3146 88.4243 17.3326 88.4902 17.3424C88.5594 17.3521 88.6565 17.357 88.7817 17.357C89.2954 17.357 89.6577 17.2103 89.8684 16.9168C90.0792 16.6233 90.4415 15.8081 90.9552 14.4712C91.1726 13.9038 91.4426 13.1701 91.7653 12.2701Z" fill="black"/>
<path fill-rule="evenodd" clip-rule="evenodd" d="M84.476 10.0348C84.2059 10.1652 83.9738 10.356 83.7795 10.6071V8H82.915V15.2098H83.735V14.5397C83.9227 14.7908 84.0989 14.9734 84.2636 15.0875C84.5402 15.2799 84.8794 15.3761 85.2812 15.3761C85.9991 15.3761 86.5606 15.1022 86.9657 14.5544C87.3708 14.0065 87.5733 13.3185 87.5733 12.4902C87.5733 11.6163 87.3675 10.956 86.9558 10.5093C86.5475 10.0592 86.014 9.83425 85.3553 9.83425C85.0391 9.83425 84.746 9.9011 84.476 10.0348ZM86.3038 14.031C86.0666 14.4093 85.7077 14.5984 85.2269 14.5984C84.588 14.5984 84.1516 14.3098 83.9178 13.7326C83.7926 13.4261 83.7301 13.0267 83.7301 12.5343C83.7301 11.8527 83.8816 11.3636 84.1845 11.0669C84.4908 10.7701 84.8465 10.6218 85.2516 10.6218C85.7159 10.6218 86.0666 10.8027 86.3038 11.1647C86.5442 11.5266 86.6644 11.9832 86.6644 12.5343C86.6644 13.1538 86.5442 13.6527 86.3038 14.031Z" fill="black"/>
<path fill-rule="evenodd" clip-rule="evenodd" d="M78.0635 10.1326C77.7902 9.96305 77.451 9.87827 77.0459 9.87827C76.3148 9.87827 75.7517 10.1587 75.3565 10.7196C74.9646 11.2772 74.7686 11.9375 74.7686 12.7006C74.7686 13.5158 74.9843 14.1696 75.4158 14.662C75.8472 15.1511 76.3576 15.3957 76.9471 15.3957C77.3127 15.3957 77.6371 15.3239 77.9203 15.1805C78.2035 15.037 78.4488 14.8038 78.6563 14.481V15.2098H79.4566V8H78.602V10.6462C78.4011 10.4016 78.2216 10.2304 78.0635 10.1326ZM76.0678 14.0604C75.8274 13.6821 75.7072 13.2125 75.7072 12.6517C75.7072 11.993 75.8455 11.494 76.1222 11.1549C76.4021 10.8158 76.766 10.6462 77.2139 10.6462C77.6157 10.6462 77.9532 10.806 78.2266 11.1256C78.4999 11.4419 78.6366 11.931 78.6366 12.593C78.6366 13.2484 78.5032 13.7522 78.2364 14.1044C77.973 14.4533 77.6354 14.6277 77.2238 14.6277C76.6935 14.6277 76.3082 14.4386 76.0678 14.0604Z" fill="black"/>
<path fill-rule="evenodd" clip-rule="evenodd" d="M73.1109 10.1179C72.7585 9.94183 72.3946 9.85379 72.0192 9.85379C71.2749 9.85379 70.6723 10.1163 70.2112 10.6413C69.7502 11.1663 69.5196 11.8494 69.5196 12.6908C69.5196 13.5451 69.7485 14.2103 70.2063 14.6864C70.664 15.1592 71.2222 15.3957 71.8809 15.3957C72.1509 15.3957 72.393 15.3696 72.6071 15.3174C73.0055 15.2261 73.3398 15.05 73.6099 14.7891C73.7712 14.6391 73.9161 14.4467 74.0446 14.212C74.1763 13.9739 74.2537 13.7587 74.2767 13.5663H73.4024C73.3365 13.7978 73.2245 14.0016 73.0665 14.1777C72.7898 14.481 72.4193 14.6326 71.955 14.6326C71.4577 14.6326 71.0905 14.4728 70.8534 14.1533C70.6163 13.8304 70.4895 13.4033 70.473 12.8717H74.3508C74.3508 12.3435 74.3245 11.9587 74.2718 11.7174C74.2125 11.3652 74.094 11.0571 73.9161 10.7929C73.7317 10.5157 73.4633 10.2907 73.1109 10.1179ZM73.185 11.2576C73.3167 11.4859 73.4007 11.7908 73.437 12.1723H70.4977C70.5142 11.7223 70.6607 11.3522 70.9374 11.0619C71.214 10.7685 71.5565 10.6217 71.9649 10.6217C72.5346 10.6217 72.9413 10.8337 73.185 11.2576Z" fill="black"/>
<path d="M68.5686 14.4762C68.4435 14.4142 68.3809 14.2919 68.3809 14.1093V10.6903H69.2256V9.97126H68.3809V8.50876H67.4819V9.97126H66.7656V10.6903H67.4819V14.1582C67.4819 14.4941 67.556 14.768 67.7041 14.98C67.8523 15.1887 68.1339 15.293 68.5489 15.293C68.6773 15.293 68.7959 15.2865 68.9045 15.2735C69.0165 15.2604 69.1235 15.2392 69.2256 15.2099V14.5153C69.1598 14.5218 69.1021 14.5267 69.0527 14.53H68.9144C68.753 14.53 68.6378 14.512 68.5686 14.4762Z" fill="black"/>
<path fill-rule="evenodd" clip-rule="evenodd" d="M65.2216 11.781C65.1524 11.9245 65.0157 12.0093 64.8115 12.0354L63.3938 12.2115C62.8965 12.2734 62.4947 12.4381 62.1885 12.7055C61.8822 12.9729 61.7291 13.3495 61.7291 13.8354C61.7291 14.2789 61.8838 14.649 62.1934 14.9457C62.5063 15.2392 62.908 15.3859 63.3987 15.3859C63.8071 15.3859 64.1809 15.2995 64.5201 15.1267C64.8593 14.9539 65.1195 14.7501 65.3006 14.5153C65.3302 14.724 65.3813 14.8854 65.4537 14.9995C65.592 15.2147 65.8143 15.3224 66.1206 15.3224C66.2458 15.3224 66.3446 15.3175 66.417 15.3077C66.4895 15.2979 66.5948 15.2734 66.7332 15.2343V14.5838C66.6772 14.5935 66.6245 14.6017 66.5751 14.6082C66.5257 14.6115 66.4812 14.6131 66.4417 14.6131C66.3199 14.6131 66.2392 14.5854 66.1997 14.53C66.1634 14.4745 66.1453 14.4012 66.1453 14.3098V11.2919C66.1453 10.7962 65.9527 10.431 65.5673 10.1962C65.1787 9.96146 64.6732 9.84407 64.0508 9.84407C63.514 9.84407 63.0414 9.97124 62.6331 10.2256C62.228 10.4767 62.0172 10.9251 62.0007 11.5707H62.8306C62.8636 11.3001 62.9344 11.0962 63.0431 10.9593C63.2374 10.7115 63.5667 10.5875 64.031 10.5875C64.4328 10.5875 64.7407 10.656 64.9548 10.793C65.1722 10.9267 65.2808 11.1435 65.2808 11.4435C65.2808 11.5903 65.2611 11.7028 65.2216 11.781ZM62.9393 14.4175C62.7516 14.2707 62.6578 14.0702 62.6578 13.8158C62.6578 13.48 62.7944 13.2354 63.0678 13.0821C63.2291 12.9908 63.4712 12.924 63.7939 12.8816L64.3324 12.8131C64.497 12.7935 64.665 12.7609 64.8362 12.7153C65.0075 12.6696 65.1475 12.6126 65.2561 12.5441V13.2533C65.2561 13.7946 65.0091 14.1843 64.5152 14.4223C64.222 14.5658 63.9191 14.6376 63.6062 14.6376C63.3493 14.6376 63.127 14.5642 62.9393 14.4175Z" fill="black"/>
<path d="M55.3044 10.1522C55.1332 10.2695 54.9422 10.457 54.7314 10.7147V9.97118H53.8521V15.2098H54.7413V12.4315C54.7413 11.7565 54.878 11.2902 55.1513 11.0326C55.4279 10.775 55.7342 10.6462 56.0701 10.6462C56.439 10.6462 56.6909 10.7685 56.8259 11.013C56.9115 11.1761 56.9544 11.4353 56.9544 11.7908V15.2098H57.8584V12.1625C57.8584 11.6212 57.9835 11.2348 58.2338 11.0032C58.4874 10.7717 58.7887 10.656 59.1378 10.656C59.3914 10.656 59.6054 10.7212 59.78 10.8516C59.9578 10.9821 60.0467 11.2217 60.0467 11.5706V15.2098H60.9705V11.7223C60.9705 11.2592 60.9013 10.8907 60.763 10.6168C60.5061 10.1081 60.022 9.85379 59.3107 9.85379C58.9781 9.85379 58.6784 9.92226 58.4116 10.0592C58.1449 10.1929 57.9127 10.4 57.7151 10.6804C57.5965 10.4522 57.4648 10.2793 57.3199 10.1619C57.063 9.9565 56.7238 9.85379 56.3023 9.85379C55.9302 9.85379 55.5975 9.95324 55.3044 10.1522Z" fill="black"/>
<path d="M47.5283 11.6783C47.4854 11.8609 47.464 12.1234 47.464 12.4658V15.2098H46.5749V9.97118H47.4196V10.7147C47.6699 10.4081 47.935 10.188 48.2149 10.0543C48.4948 9.92063 48.806 9.85379 49.1485 9.85379C49.8994 9.85379 50.4066 10.113 50.67 10.6315C50.8149 10.9152 50.8874 11.3212 50.8874 11.8494V15.2098H49.9834V11.9081C49.9834 11.5886 49.9356 11.331 49.8401 11.1353C49.682 10.8092 49.3955 10.6462 48.9806 10.6462C48.7698 10.6462 48.5969 10.6674 48.4619 10.7098C48.2182 10.7815 48.0041 10.925 47.8197 11.1402C47.6715 11.313 47.5744 11.4924 47.5283 11.6783Z" fill="black"/>
<path fill-rule="evenodd" clip-rule="evenodd" d="M44.0825 12.0354C44.2867 12.0093 44.4233 11.9245 44.4925 11.781C44.532 11.7028 44.5518 11.5903 44.5518 11.4435C44.5518 11.1435 44.4431 10.9267 44.2257 10.793C44.0117 10.656 43.7038 10.5875 43.302 10.5875C42.8376 10.5875 42.5083 10.7115 42.314 10.9593C42.2053 11.0962 42.1345 11.3001 42.1016 11.5707H41.2717C41.2882 10.9251 41.4989 10.4767 41.904 10.2256C42.3124 9.97124 42.7849 9.84407 43.3217 9.84407C43.9442 9.84407 44.4497 9.96146 44.8383 10.1962C45.2236 10.431 45.4163 10.7962 45.4163 11.2919V14.3098C45.4163 14.4012 45.4344 14.4745 45.4706 14.53C45.5101 14.5854 45.5908 14.6131 45.7127 14.6131C45.7522 14.6131 45.7966 14.6115 45.846 14.6082C45.8954 14.6017 45.9481 14.5935 46.0041 14.5838V15.2343C45.8658 15.2734 45.7604 15.2979 45.688 15.3077C45.6155 15.3175 45.5167 15.3224 45.3916 15.3224C45.0853 15.3224 44.863 15.2147 44.7247 14.9995C44.6522 14.8854 44.6012 14.724 44.5715 14.5153C44.3904 14.7501 44.1302 14.9539 43.791 15.1267C43.4518 15.2995 43.078 15.3859 42.6697 15.3859C42.179 15.3859 41.7772 15.2392 41.4643 14.9457C41.1548 14.649 41 14.2789 41 13.8354C41 13.3495 41.1531 12.9729 41.4594 12.7055C41.7657 12.4381 42.1675 12.2734 42.6647 12.2115L44.0825 12.0354ZM41.9287 13.8158C41.9287 14.0702 42.0226 14.2707 42.2103 14.4175C42.398 14.5642 42.6203 14.6376 42.8772 14.6376C43.19 14.6376 43.493 14.5658 43.7861 14.4223C44.2801 14.1843 44.5271 13.7946 44.5271 13.2533V12.5441C44.4184 12.6126 44.2784 12.6696 44.1072 12.7153C43.9359 12.7609 43.768 12.7935 43.6033 12.8131L43.0649 12.8816C42.7421 12.924 42.5001 12.9908 42.3387 13.0821C42.0654 13.2354 41.9287 13.48 41.9287 13.8158Z" fill="black"/>
<path d="M106.746 29.9643V21.4711H105.145V19.2823H110.858V21.4711H109.444V29.9643H110.858V32.1531H105.145V29.9643H106.746Z" fill="black"/>
<path d="M52.8069 9.99574H51.9029V15.2099H52.8069V9.99574Z" fill="black"/>
<path d="M51.9029 8.02454H52.8069V9.02237H51.9029V8.02454Z" fill="black"/>
</svg>
