<svg width="131" height="42" viewBox="0 0 131 42" fill="none" xmlns="http://www.w3.org/2000/svg">
<path d="M116 0.5C124.008 0.5 130.5 6.99187 130.5 15V41.5H15C6.99187 41.5 0.5 35.0081 0.5 27V0.5H116Z" fill="white" stroke="black"/>
<path d="M27.8497 24.1575C24.3836 26.9643 19.4266 26.9643 15.9605 24.1575L17.3007 22.5026C19.9854 24.6766 23.8248 24.6766 26.5095 22.5026L27.8497 24.1575Z" fill="black"/>
<path d="M17.404 17.6365V20.5134H19.5336V17.6365H17.404Z" fill="black"/>
<path d="M24.012 17.6365V20.5134H26.1415V17.6365H24.012Z" fill="black"/>
<path fill-rule="evenodd" clip-rule="evenodd" d="M21.5 33C27.8513 33 33 27.8513 33 21.5C33 15.1487 27.8513 10 21.5 10C15.1487 10 10 15.1487 10 21.5C10 27.8513 15.1487 33 21.5 33ZM21.5 30.8705C26.6752 30.8705 30.8705 26.6752 30.8705 21.5C30.8705 16.3248 26.6752 12.1295 21.5 12.1295C16.3248 12.1295 12.1295 16.3248 12.1295 21.5C12.1295 26.6752 16.3248 30.8705 21.5 30.8705Z" fill="black"/>
<path fill-rule="evenodd" clip-rule="evenodd" d="M89.3281 32.0851L93.95 19H97.0078L101.594 32.0851H98.6597L97.825 29.3953H93.0537L92.1575 32.0851H89.3281ZM95.4525 21.9916L93.783 27.1405H97.0693L95.4525 21.9916Z" fill="black"/>
<path fill-rule="evenodd" clip-rule="evenodd" d="M76.5544 23.5718C75.8456 22.6545 74.8615 22.1958 73.602 22.1958C72.905 22.1958 72.3309 22.3438 71.8798 22.6397C71.4991 22.8764 71.1505 23.2197 70.8342 23.6695V19.0178H68.3388V32.0851H70.7903V30.8689C71.1242 31.3424 71.4346 31.6738 71.7217 31.8632C72.202 32.1828 72.8376 32.3426 73.6284 32.3426C74.8878 32.3426 75.869 31.8484 76.572 30.8601C77.2749 29.8717 77.6264 28.6259 77.6264 27.1227C77.6264 25.6728 77.2691 24.4891 76.5544 23.5718ZM74.4631 29.4663C74.1058 29.993 73.605 30.2564 72.9606 30.2564C72.2167 30.2564 71.6631 29.9842 71.2999 29.4397C70.9367 28.8952 70.7551 28.2087 70.7551 27.3802C70.7551 26.6759 70.843 26.1018 71.0187 25.658C71.3585 24.8235 71.9823 24.4063 72.8903 24.4063C73.7866 24.4063 74.4016 24.8324 74.7355 25.6846C74.9113 26.1344 74.9991 26.7025 74.9991 27.389C74.9991 28.2472 74.8205 28.9396 74.4631 29.4663Z" fill="black"/>
<path d="M62.5236 30.1587C62.424 30.0581 62.3742 29.8096 62.3742 29.4131V24.2997H63.9295V22.4977H62.3742V19.799H59.8964V22.4977H58.5608V24.2997H59.8964V30.2564C59.8964 30.8601 60.037 31.3069 60.3181 31.5969C60.7516 32.0526 61.56 32.2597 62.7433 32.2183L63.9295 32.1739V30.283C63.8475 30.2889 63.7626 30.2949 63.6747 30.3008H63.4374C62.9278 30.3008 62.6232 30.2534 62.5236 30.1587Z" fill="black"/>
<path fill-rule="evenodd" clip-rule="evenodd" d="M57.2509 30.9133C58.0592 29.9013 58.4634 28.6851 58.4634 27.2648C58.4634 25.8681 58.0592 24.6578 57.2509 23.6339C56.4425 22.6101 55.2152 22.0982 53.5692 22.0982C51.9231 22.0982 50.6959 22.6101 49.8875 23.6339C49.0791 24.6578 48.675 25.8681 48.675 27.2648C48.675 28.6851 49.0791 29.9013 49.8875 30.9133C50.6959 31.9194 51.9231 32.4225 53.5692 32.4225C55.2152 32.4225 56.4425 31.9194 57.2509 30.9133ZM55.2475 29.5107C54.855 30.0374 54.2926 30.3008 53.5604 30.3008C52.8282 30.3008 52.2629 30.0374 51.8646 29.5107C51.4721 28.984 51.2758 28.2353 51.2758 27.2648C51.2758 26.2942 51.4721 25.5485 51.8646 25.0277C52.2629 24.501 52.8282 24.2376 53.5604 24.2376C54.2926 24.2376 54.855 24.501 55.2475 25.0277C55.6399 25.5485 55.8362 26.2942 55.8362 27.2648C55.8362 28.2353 55.6399 28.984 55.2475 29.5107Z" fill="black"/>
<path d="M44.2896 22.1781C45.2796 22.1781 46.088 22.4414 46.7148 22.9681C47.3474 23.4889 47.6638 24.356 47.6638 25.5692V32.0851H45.098V26.1995C45.098 25.6905 45.0307 25.2999 44.8959 25.0277C44.6499 24.5305 44.1813 24.282 43.49 24.282C42.6407 24.282 42.0578 24.646 41.7415 25.3739C41.5775 25.7586 41.4954 26.2498 41.4954 26.8475V32.0851H39V22.4266H41.4164V23.8381C41.7385 23.341 42.0432 22.9829 42.3302 22.764C42.8457 22.3734 43.4988 22.1781 44.2896 22.1781Z" fill="black"/>
<path d="M79.0945 33.9405L79.4108 33.9582C79.6568 33.9701 79.8912 33.9612 80.1137 33.9316C80.3363 33.902 80.5238 33.8339 80.6761 33.7274C80.8226 33.6268 80.9573 33.4167 81.0803 33.0971C81.2092 32.7775 81.2619 32.5822 81.2384 32.5112L77.7237 22.4089H80.5092L82.6004 29.5462L84.5774 22.4089H87.2398L83.9536 31.9253C83.3209 33.76 82.8201 34.8963 82.451 35.3342C82.082 35.7781 81.3439 36 80.2368 36C80.0142 36 79.8355 35.997 79.7008 35.9911C79.566 35.9911 79.3639 35.9822 79.0945 35.9645V33.9405Z" fill="black"/>
<path d="M103.902 29.8624V21.2258H102.306V19H108V21.2258H106.59V29.8624H108V32.0882H102.306V29.8624H103.902Z" fill="black"/>
<path fill-rule="evenodd" clip-rule="evenodd" d="M62.5703 9.54688C62.9762 9.54695 63.331 9.64695 63.6338 9.84668C63.798 9.95946 63.9651 10.1241 64.1357 10.3398V9.68652H64.9385V14.3955C64.9384 15.0527 64.8418 15.572 64.6484 15.9521C64.2874 16.6544 63.6056 17.0059 62.6035 17.0059C62.0463 17.0058 61.5774 16.8801 61.1973 16.6289C60.8171 16.3808 60.6038 15.9905 60.5586 15.459H61.4434C61.4853 15.6908 61.5697 15.8695 61.6953 15.9951C61.8919 16.1884 62.201 16.2852 62.623 16.2852C63.2901 16.2852 63.7264 16.0496 63.9326 15.5791C64.055 15.302 64.1122 14.8076 64.1025 14.0957C63.9285 14.3599 63.7185 14.5567 63.4736 14.6855C63.2287 14.8143 62.9046 14.8789 62.502 14.8789C61.9415 14.8788 61.4503 14.6803 61.0283 14.2842C60.6094 13.8846 60.3994 13.2251 60.3994 12.3066C60.3994 11.4399 60.6102 10.7629 61.0322 10.2764C61.4576 9.78975 61.9709 9.54688 62.5703 9.54688ZM62.7295 10.3154C62.1172 10.3154 61.6982 10.6021 61.4727 11.1758C61.3535 11.4818 61.294 11.8828 61.2939 12.3789C61.2939 12.9622 61.4112 13.4077 61.6465 13.7139C61.8849 14.0166 62.2041 14.1679 62.6035 14.168C63.2287 14.168 63.6692 13.8862 63.9238 13.3223C64.0656 13.0032 64.1357 12.6305 64.1357 12.2051C64.1357 11.5639 64.0035 11.0886 63.7393 10.7793C63.475 10.4701 63.1386 10.3155 62.7295 10.3154Z" fill="black"/>
<path d="M85.8926 13.8535L87.29 9.63867H88.252C88.1295 9.97069 87.8575 10.7279 87.4355 11.9102C87.1197 12.7996 86.8553 13.5252 86.6426 14.0859C86.1399 15.4072 85.7853 16.2129 85.5791 16.5029C85.3729 16.7929 85.0182 16.9374 84.5156 16.9375C84.3933 16.9375 84.2981 16.9325 84.2305 16.9229C84.166 16.9132 84.085 16.8959 83.9883 16.8701V16.0771C84.1397 16.119 84.2497 16.1446 84.3174 16.1543C84.385 16.1639 84.4446 16.1689 84.4961 16.1689C84.6571 16.1689 84.7745 16.1416 84.8486 16.0869C84.9259 16.0354 84.9904 15.9709 85.042 15.8936C85.0581 15.8678 85.1159 15.7355 85.2158 15.4971C85.3156 15.2588 85.3885 15.0818 85.4336 14.9658L83.5195 9.63867H84.5059L85.8926 13.8535Z" fill="black"/>
<path d="M121.751 9.50293C122.531 9.50293 123.094 9.73185 123.438 10.1895C123.654 10.4794 123.759 10.792 123.753 11.127H122.931C122.914 10.9305 122.845 10.7518 122.723 10.5908C122.523 10.3621 122.177 10.248 121.684 10.248C121.355 10.248 121.105 10.3108 120.935 10.4365C120.767 10.5621 120.683 10.7276 120.683 10.9336C120.683 11.1592 120.794 11.3402 121.017 11.4756C121.146 11.5561 121.336 11.6273 121.587 11.6885L122.162 11.8281C122.787 11.9796 123.206 12.1268 123.419 12.2686C123.757 12.4909 123.927 12.8405 123.927 13.3174C123.927 13.7781 123.751 14.1757 123.399 14.5107C123.051 14.8459 122.52 15.0136 121.805 15.0137C121.035 15.0137 120.488 14.84 120.166 14.4922C119.847 14.1409 119.676 13.707 119.653 13.1914H120.489C120.515 13.4813 120.588 13.7037 120.707 13.8584C120.926 14.1387 121.306 14.2792 121.848 14.2793C122.17 14.2793 122.454 14.2099 122.699 14.0713C122.944 13.9295 123.066 13.7119 123.066 13.4189C123.066 13.1967 122.968 13.0271 122.771 12.9111C122.646 12.8402 122.397 12.7585 122.026 12.665L121.336 12.4902C120.895 12.3807 120.569 12.2584 120.359 12.123C119.986 11.8878 119.799 11.5622 119.799 11.1465C119.799 10.6569 119.974 10.2609 120.325 9.95801C120.68 9.65513 121.155 9.50298 121.751 9.50293Z" fill="black"/>
<path fill-rule="evenodd" clip-rule="evenodd" d="M68.1123 9.52246C68.4796 9.52246 68.8359 9.60926 69.1807 9.7832C69.5254 9.95395 69.7883 10.1764 69.9688 10.4502C70.1428 10.7112 70.2584 11.0162 70.3164 11.3643C70.368 11.6027 70.3945 11.9829 70.3945 12.5049H66.5996C66.6157 13.0302 66.7397 13.4524 66.9717 13.7715C67.2037 14.0873 67.5632 14.2451 68.0498 14.2451C68.5041 14.2451 68.867 14.0956 69.1377 13.7959C69.2923 13.6219 69.4014 13.4202 69.4658 13.1914H70.3213C70.2987 13.3814 70.2235 13.594 70.0947 13.8291C69.969 14.0611 69.8269 14.2521 69.6689 14.4004C69.4047 14.6581 69.0773 14.8317 68.6875 14.9219C68.4782 14.9734 68.2416 14.999 67.9775 14.999C67.3332 14.999 66.7867 14.7658 66.3389 14.2988C65.8909 13.8283 65.667 13.1705 65.667 12.3262C65.667 11.4947 65.8926 10.8196 66.3438 10.3008C66.7949 9.78212 67.3842 9.52251 68.1123 9.52246ZM68.0596 10.2812C67.66 10.2812 67.3244 10.4268 67.0537 10.7168C66.7832 11.0035 66.6402 11.369 66.624 11.8135H69.5C69.4645 11.4366 69.3818 11.1357 69.2529 10.9102C69.0145 10.4913 68.617 10.2813 68.0596 10.2812Z" fill="black"/>
<path fill-rule="evenodd" clip-rule="evenodd" d="M75.3906 14.8154H74.6074V14.0957C74.4044 14.4147 74.1639 14.6453 73.8867 14.7871C73.6096 14.9288 73.2922 14.999 72.9346 14.999C72.3577 14.999 71.8577 14.7578 71.4355 14.2744C71.0135 13.7878 70.8027 13.1415 70.8027 12.3359C70.8027 11.5818 70.9944 10.929 71.3779 10.3779C71.7646 9.8237 72.3159 9.54688 73.0312 9.54688C73.4276 9.54688 73.7599 9.63028 74.0273 9.79785C74.182 9.89454 74.3572 10.0641 74.5537 10.3057V7.69043H75.3906V14.8154ZM73.1953 10.3057C72.7571 10.3057 72.4008 10.4735 72.127 10.8086C71.8565 11.1437 71.7217 11.6365 71.7217 12.2871C71.7217 12.8414 71.839 13.3059 72.0742 13.6797C72.3095 14.0535 72.6863 14.2402 73.2051 14.2402C73.6078 14.2402 73.9385 14.0683 74.1963 13.7236C74.4573 13.3756 74.5879 12.8772 74.5879 12.2295C74.5879 11.5753 74.454 11.0919 74.1865 10.7793C73.919 10.4635 73.5885 10.3057 73.1953 10.3057Z" fill="black"/>
<path fill-rule="evenodd" clip-rule="evenodd" d="M41.1328 9.5127C41.7417 9.51276 42.236 9.62936 42.6162 9.86133C42.9931 10.0933 43.1815 10.4538 43.1816 10.9434V13.9268C43.1817 14.0167 43.2 14.0889 43.2354 14.1436C43.274 14.1983 43.3526 14.2255 43.4717 14.2256C43.5104 14.2256 43.5542 14.2249 43.6025 14.2217C43.6508 14.2152 43.7022 14.2069 43.7568 14.1973V14.8398C43.6219 14.8784 43.5191 14.9024 43.4482 14.9121C43.3774 14.9218 43.2805 14.9267 43.1582 14.9268C42.8586 14.9268 42.6402 14.821 42.5049 14.6084C42.434 14.4956 42.3845 14.3352 42.3555 14.1289C42.1783 14.3609 41.9236 14.5626 41.5918 14.7334C41.2599 14.9042 40.8937 14.9902 40.4941 14.9902C40.014 14.9902 39.6206 14.8447 39.3145 14.5547C39.0117 14.2615 38.8604 13.8952 38.8604 13.457C38.8604 12.9772 39.0101 12.605 39.3096 12.3408C39.6092 12.0766 40.0027 11.9138 40.4893 11.8525L41.877 11.6787C42.0767 11.6529 42.2107 11.5685 42.2783 11.4268C42.3168 11.3495 42.3359 11.2384 42.3359 11.0938C42.3359 10.7973 42.2293 10.5833 42.0166 10.4512C41.8072 10.3159 41.5063 10.2481 41.1133 10.248C40.6589 10.248 40.3366 10.3703 40.1465 10.6152C40.0401 10.7506 39.9707 10.9522 39.9385 11.2197H39.126C39.1421 10.5816 39.3487 10.1378 39.7451 9.88965C40.1447 9.63839 40.6076 9.5127 41.1328 9.5127ZM42.3115 12.1816C42.2053 12.2492 42.0686 12.3055 41.9014 12.3506C41.7339 12.3957 41.5692 12.4279 41.4082 12.4473L40.8809 12.5146C40.5651 12.5565 40.3278 12.6227 40.1699 12.7129C39.9026 12.8644 39.7695 13.1067 39.7695 13.4385C39.7696 13.6896 39.8614 13.8873 40.0449 14.0322C40.2286 14.1772 40.4459 14.25 40.6973 14.25C41.0034 14.25 41.3001 14.1789 41.5869 14.0371C42.0701 13.8018 42.3115 13.4167 42.3115 12.8818V12.1816Z" fill="black"/>
<path fill-rule="evenodd" clip-rule="evenodd" d="M52.3457 9.5127C52.9548 9.5127 53.4498 9.6293 53.8301 9.86133C54.2067 10.0933 54.3954 10.4539 54.3955 10.9434V13.9268C54.3956 14.0166 54.413 14.0889 54.4482 14.1436C54.4869 14.1983 54.5663 14.2256 54.6855 14.2256C54.724 14.2256 54.7674 14.2249 54.8154 14.2217C54.8638 14.2152 54.9159 14.2069 54.9707 14.1973V14.8398C54.8354 14.8785 54.732 14.9024 54.6611 14.9121C54.5902 14.9218 54.4936 14.9268 54.3711 14.9268C54.0716 14.9267 53.8541 14.8208 53.7188 14.6084C53.6479 14.4956 53.5974 14.3352 53.5684 14.1289C53.3911 14.3609 53.1366 14.5626 52.8047 14.7334C52.4729 14.9041 52.1074 14.9902 51.708 14.9902C51.2279 14.9902 50.8345 14.8447 50.5283 14.5547C50.2254 14.2614 50.0742 13.8953 50.0742 13.457C50.0743 12.9771 50.2238 12.605 50.5234 12.3408C50.8231 12.0766 51.2165 11.9138 51.7031 11.8525L53.0898 11.6787C53.2896 11.6529 53.4235 11.5686 53.4912 11.4268C53.5298 11.3494 53.5498 11.2385 53.5498 11.0938C53.5498 10.7974 53.443 10.5833 53.2305 10.4512C53.021 10.3158 52.7193 10.248 52.3262 10.248C51.8719 10.2481 51.5495 10.3703 51.3594 10.6152C51.2531 10.7506 51.1836 10.9524 51.1514 11.2197H50.3398C50.356 10.5817 50.5617 10.1378 50.958 9.88965C51.3576 9.63828 51.8204 9.5127 52.3457 9.5127ZM53.5254 12.1816C53.419 12.2493 53.2818 12.3055 53.1143 12.3506C52.9467 12.3957 52.7822 12.4279 52.6211 12.4473L52.0947 12.5146C51.779 12.5565 51.5417 12.6227 51.3838 12.7129C51.1163 12.8644 50.9824 13.1065 50.9824 13.4385C50.9825 13.6895 51.0745 13.8873 51.2578 14.0322C51.4415 14.1772 51.6598 14.25 51.9111 14.25C52.2171 14.2499 52.5132 14.1788 52.7998 14.0371C53.2832 13.8019 53.5254 13.4168 53.5254 12.8818V12.1816Z" fill="black"/>
<path fill-rule="evenodd" clip-rule="evenodd" d="M111.575 9.5127C112.184 9.5127 112.679 9.6293 113.06 9.86133C113.436 10.0933 113.625 10.4539 113.625 10.9434V13.9268C113.625 14.0166 113.642 14.0889 113.678 14.1436C113.716 14.1983 113.796 14.2256 113.915 14.2256C113.954 14.2256 113.997 14.2249 114.045 14.2217C114.093 14.2152 114.145 14.2069 114.2 14.1973V14.8398C114.065 14.8785 113.962 14.9024 113.891 14.9121C113.82 14.9218 113.723 14.9268 113.601 14.9268C113.301 14.9267 113.084 14.8208 112.948 14.6084C112.877 14.4956 112.827 14.3352 112.798 14.1289C112.621 14.3609 112.366 14.5626 112.034 14.7334C111.702 14.9041 111.337 14.9902 110.938 14.9902C110.457 14.9902 110.064 14.8447 109.758 14.5547C109.455 14.2614 109.304 13.8953 109.304 13.457C109.304 12.9771 109.453 12.605 109.753 12.3408C110.053 12.0766 110.446 11.9138 110.933 11.8525L112.319 11.6787C112.519 11.6529 112.653 11.5686 112.721 11.4268C112.759 11.3494 112.779 11.2385 112.779 11.0938C112.779 10.7974 112.672 10.5833 112.46 10.4512C112.25 10.3158 111.949 10.248 111.556 10.248C111.101 10.2481 110.779 10.3703 110.589 10.6152C110.483 10.7506 110.413 10.9524 110.381 11.2197H109.569C109.585 10.5817 109.791 10.1378 110.188 9.88965C110.587 9.63828 111.05 9.5127 111.575 9.5127ZM112.755 12.1816C112.649 12.2493 112.511 12.3055 112.344 12.3506C112.176 12.3957 112.012 12.4279 111.851 12.4473L111.324 12.5146C111.008 12.5565 110.771 12.6227 110.613 12.7129C110.346 12.8644 110.212 13.1065 110.212 13.4385C110.212 13.6895 110.304 13.8873 110.487 14.0322C110.671 14.1772 110.889 14.25 111.141 14.25C111.447 14.2499 111.743 14.1788 112.029 14.0371C112.513 13.8019 112.755 13.4168 112.755 12.8818V12.1816Z" fill="black"/>
<path fill-rule="evenodd" clip-rule="evenodd" d="M79.6211 10.2666C79.8112 10.0186 80.0386 9.83002 80.3027 9.70117C80.5669 9.56915 80.8538 9.50293 81.1631 9.50293C81.8075 9.50298 82.3299 9.72524 82.7295 10.1699C83.1323 10.6114 83.333 11.2643 83.333 12.1279C83.333 12.9464 83.1355 13.6266 82.7393 14.168C82.343 14.7093 81.7931 14.9804 81.0908 14.9805C80.6978 14.9805 80.3654 14.8853 80.0947 14.6953C79.9336 14.5825 79.7608 14.4015 79.5771 14.1533V14.8154H78.7754V7.69043H79.6211V10.2666ZM81.0615 10.2812C80.6651 10.2812 80.3173 10.4284 80.0176 10.7217C79.7211 11.0149 79.5723 11.4983 79.5723 12.1719C79.5723 12.6581 79.6335 13.0527 79.7559 13.3555C79.9847 13.9258 80.412 14.2119 81.0371 14.2119C81.5076 14.2119 81.8588 14.0242 82.0908 13.6504C82.326 13.2767 82.4443 12.7839 82.4443 12.1719C82.4443 11.6273 82.326 11.1761 82.0908 10.8184C81.8588 10.4607 81.5158 10.2813 81.0615 10.2812Z" fill="black"/>
<path d="M97.251 13.0752C97.251 13.3392 97.2933 13.5551 97.377 13.7227C97.5316 14.032 97.82 14.1875 98.2422 14.1875C98.848 14.1875 99.2604 13.9164 99.4795 13.375C99.5987 13.085 99.6582 12.6866 99.6582 12.1807V9.63867H100.528V14.8154H99.707L99.7168 14.0518C99.604 14.2483 99.4635 14.4145 99.2959 14.5498C98.9641 14.8204 98.5614 14.956 98.0879 14.9561C97.3499 14.9561 96.8466 14.7089 96.5791 14.2158C96.4342 13.9516 96.3623 13.5985 96.3623 13.1572V9.63867H97.251V13.0752Z" fill="black"/>
<path d="M46.5781 9.52246C46.5943 9.52247 46.6216 9.52413 46.6602 9.52734C46.6988 9.53057 46.7649 9.53721 46.8584 9.54688V10.4648C46.8068 10.4552 46.758 10.4485 46.7129 10.4453C46.6711 10.4421 46.6246 10.4404 46.5732 10.4404C46.135 10.4404 45.7978 10.5826 45.5625 10.8662C45.3273 11.1465 45.21 11.4706 45.21 11.8379V14.8154H44.3398V9.63867H45.166V10.5332C45.2337 10.3592 45.3999 10.1475 45.6641 9.89941C45.9283 9.64805 46.2333 9.52246 46.5781 9.52246Z" fill="black"/>
<path d="M49.6602 9.52734C49.6988 9.53057 49.7649 9.53721 49.8584 9.54688V10.4648C49.8068 10.4552 49.758 10.4485 49.7129 10.4453C49.6711 10.4421 49.6246 10.4404 49.5732 10.4404C49.135 10.4404 48.7978 10.5826 48.5625 10.8662C48.3273 11.1465 48.21 11.4706 48.21 11.8379V14.8154H47.3398V9.63867H48.166V10.5332C48.2337 10.3592 48.3999 10.1475 48.6641 9.89941C48.9283 9.64805 49.2333 9.52246 49.5781 9.52246C49.5943 9.52247 49.6216 9.52413 49.6602 9.52734Z" fill="black"/>
<path d="M58.0479 9.52246C58.7826 9.52247 59.2793 9.77862 59.5371 10.291C59.6789 10.5714 59.749 10.9731 59.749 11.4951V14.8154H58.8652V11.5527C58.8652 11.237 58.818 10.9824 58.7246 10.7891C58.57 10.4669 58.2897 10.3058 57.8838 10.3057C57.6776 10.3057 57.5081 10.3263 57.376 10.3682C57.1375 10.4391 56.9275 10.5812 56.7471 10.7939C56.6022 10.9646 56.507 11.1417 56.4619 11.3252C56.42 11.5056 56.3994 11.7653 56.3994 12.1035V14.8154H55.5293V9.63867H56.3555V10.373C56.6003 10.0702 56.86 9.85285 57.1338 9.7207C57.4077 9.58857 57.7127 9.52246 58.0479 9.52246Z" fill="black"/>
<path d="M92.0381 10.3398C92.2443 10.0788 92.4294 9.89443 92.5938 9.78809C92.8741 9.60453 93.2238 9.5127 93.6426 9.5127C94.3934 9.51272 94.9024 9.77554 95.1699 10.3008C95.3149 10.5876 95.3877 10.9859 95.3877 11.4951V14.8154H94.4932V11.5527C94.4932 11.1728 94.4452 10.8941 94.3486 10.7168C94.1907 10.4332 93.8939 10.2911 93.459 10.291C93.0981 10.291 92.7708 10.415 92.4775 10.6631C92.1843 10.9112 92.0381 11.3807 92.0381 12.0703V14.8154H91.168V7.69043H92.0381V10.3398Z" fill="black"/>
<path d="M106.937 9.52246C107.633 9.52246 108.107 9.77363 108.358 10.2764C108.494 10.5471 108.561 10.9115 108.561 11.3691V14.8154H107.657V11.2188C107.657 10.8744 107.57 10.6377 107.396 10.5088C107.226 10.3799 107.016 10.3154 106.768 10.3154C106.426 10.3154 106.131 10.4294 105.883 10.6582C105.638 10.887 105.516 11.269 105.516 11.8037V14.8154H104.631V11.4365C104.631 11.0854 104.589 10.8291 104.505 10.668C104.373 10.4265 104.126 10.3057 103.766 10.3057C103.437 10.3057 103.137 10.4329 102.866 10.6875C102.599 10.9421 102.466 11.4034 102.466 12.0703V14.8154H101.596V9.63867H102.456V10.373C102.662 10.1186 102.849 9.93335 103.017 9.81738C103.303 9.62085 103.629 9.52246 103.993 9.52246C104.405 9.52251 104.737 9.62426 104.988 9.82715C105.13 9.94316 105.259 10.1143 105.375 10.3398C105.568 10.0628 105.796 9.85772 106.057 9.72559C106.318 9.59027 106.611 9.5225 106.937 9.52246Z" fill="black"/>
<path d="M117.277 9.52246C118.012 9.52247 118.509 9.77862 118.767 10.291C118.908 10.5714 118.979 10.9731 118.979 11.4951V14.8154H118.095V11.5527C118.095 11.237 118.048 10.9824 117.954 10.7891C117.799 10.4669 117.519 10.3058 117.113 10.3057C116.907 10.3057 116.738 10.3263 116.605 10.3682C116.367 10.4391 116.157 10.5812 115.977 10.7939C115.832 10.9646 115.737 11.1417 115.691 11.3252C115.65 11.5056 115.629 11.7653 115.629 12.1035V14.8154H114.759V9.63867H115.585V10.373C115.83 10.0702 116.089 9.85285 116.363 9.7207C116.637 9.58857 116.942 9.52246 117.277 9.52246Z" fill="black"/>
</svg>
