<svg width="131" height="42" viewBox="0 0 131 42" fill="none" xmlns="http://www.w3.org/2000/svg">
<path d="M0.5 0.5H116C124.008 0.5 130.5 6.99187 130.5 15V41.5H15C6.99187 41.5 0.5 35.0081 0.5 27V0.5Z" fill="white" stroke="black"/>
<path d="M29.8497 24.1575C26.3836 26.9643 21.4266 26.9643 17.9605 24.1575L19.3007 22.5026C21.9854 24.6766 25.8248 24.6766 28.5095 22.5026L29.8497 24.1575Z" fill="black"/>
<path d="M19.404 17.6365V20.5134H21.5336V17.6365H19.404Z" fill="black"/>
<path d="M26.012 17.6365V20.5134H28.1415V17.6365H26.012Z" fill="black"/>
<path fill-rule="evenodd" clip-rule="evenodd" d="M23.5 33C29.8513 33 35 27.8513 35 21.5C35 15.1487 29.8513 10 23.5 10C17.1487 10 12 15.1487 12 21.5C12 27.8513 17.1487 33 23.5 33ZM23.5 30.8705C28.6752 30.8705 32.8705 26.6752 32.8705 21.5C32.8705 16.3248 28.6752 12.1295 23.5 12.1295C18.3248 12.1295 14.1295 16.3248 14.1295 21.5C14.1295 26.6752 18.3248 30.8705 23.5 30.8705Z" fill="black"/>
<path fill-rule="evenodd" clip-rule="evenodd" d="M92.3281 32.0851L96.95 19H100.008L104.594 32.0851H101.66L100.825 29.3953H96.0537L95.1575 32.0851H92.3281ZM98.4525 21.9916L96.783 27.1405H100.069L98.4525 21.9916Z" fill="black"/>
<path fill-rule="evenodd" clip-rule="evenodd" d="M79.5544 23.5718C78.8456 22.6545 77.8615 22.1958 76.602 22.1958C75.905 22.1958 75.3309 22.3438 74.8798 22.6397C74.4991 22.8764 74.1505 23.2197 73.8342 23.6695V19.0178H71.3388V32.0851H73.7903V30.8689C74.1242 31.3424 74.4346 31.6738 74.7217 31.8632C75.202 32.1828 75.8376 32.3426 76.6284 32.3426C77.8878 32.3426 78.869 31.8484 79.572 30.8601C80.2749 29.8717 80.6264 28.6259 80.6264 27.1227C80.6264 25.6728 80.2691 24.4891 79.5544 23.5718ZM77.4631 29.4663C77.1058 29.993 76.605 30.2564 75.9606 30.2564C75.2167 30.2564 74.6631 29.9842 74.2999 29.4397C73.9367 28.8952 73.7551 28.2087 73.7551 27.3802C73.7551 26.6759 73.843 26.1018 74.0187 25.658C74.3585 24.8235 74.9823 24.4063 75.8903 24.4063C76.7866 24.4063 77.4016 24.8324 77.7355 25.6846C77.9113 26.1344 77.9991 26.7025 77.9991 27.389C77.9991 28.2472 77.8205 28.9396 77.4631 29.4663Z" fill="black"/>
<path d="M65.5236 30.1587C65.424 30.0581 65.3742 29.8096 65.3742 29.4131V24.2997H66.9295V22.4977H65.3742V19.799H62.8964V22.4977H61.5608V24.2997H62.8964V30.2564C62.8964 30.8601 63.037 31.3069 63.3181 31.5969C63.7516 32.0526 64.56 32.2597 65.7433 32.2183L66.9295 32.1739V30.283C66.8475 30.2889 66.7626 30.2949 66.6747 30.3008H66.4374C65.9278 30.3008 65.6232 30.2534 65.5236 30.1587Z" fill="black"/>
<path fill-rule="evenodd" clip-rule="evenodd" d="M60.2509 30.9133C61.0592 29.9013 61.4634 28.6851 61.4634 27.2648C61.4634 25.8681 61.0592 24.6578 60.2509 23.6339C59.4425 22.6101 58.2152 22.0982 56.5692 22.0982C54.9231 22.0982 53.6959 22.6101 52.8875 23.6339C52.0791 24.6578 51.675 25.8681 51.675 27.2648C51.675 28.6851 52.0791 29.9013 52.8875 30.9133C53.6959 31.9194 54.9231 32.4225 56.5692 32.4225C58.2152 32.4225 59.4425 31.9194 60.2509 30.9133ZM58.2475 29.5107C57.855 30.0374 57.2926 30.3008 56.5604 30.3008C55.8282 30.3008 55.2629 30.0374 54.8646 29.5107C54.4721 28.984 54.2758 28.2353 54.2758 27.2648C54.2758 26.2942 54.4721 25.5485 54.8646 25.0277C55.2629 24.501 55.8282 24.2376 56.5604 24.2376C57.2926 24.2376 57.855 24.501 58.2475 25.0277C58.6399 25.5485 58.8362 26.2942 58.8362 27.2648C58.8362 28.2353 58.6399 28.984 58.2475 29.5107Z" fill="black"/>
<path d="M47.2896 22.1781C48.2796 22.1781 49.088 22.4414 49.7148 22.9681C50.3474 23.4889 50.6638 24.356 50.6638 25.5692V32.0851H48.098V26.1995C48.098 25.6905 48.0307 25.2999 47.8959 25.0277C47.6499 24.5305 47.1813 24.282 46.49 24.282C45.6407 24.282 45.0578 24.646 44.7415 25.3739C44.5775 25.7586 44.4954 26.2498 44.4954 26.8475V32.0851H42V22.4266H44.4164V23.8381C44.7385 23.341 45.0432 22.9829 45.3302 22.764C45.8457 22.3734 46.4988 22.1781 47.2896 22.1781Z" fill="black"/>
<path d="M82.0945 33.9405L82.4108 33.9582C82.6568 33.9701 82.8912 33.9612 83.1137 33.9316C83.3363 33.902 83.5238 33.8339 83.6761 33.7274C83.8226 33.6268 83.9573 33.4167 84.0803 33.0971C84.2092 32.7775 84.2619 32.5822 84.2384 32.5112L80.7237 22.4089H83.5092L85.6004 29.5462L87.5774 22.4089H90.2398L86.9536 31.9253C86.3209 33.76 85.8201 34.8963 85.451 35.3342C85.082 35.7781 84.3439 36 83.2368 36C83.0142 36 82.8355 35.997 82.7008 35.9911C82.566 35.9911 82.3639 35.9822 82.0945 35.9645V33.9405Z" fill="black"/>
<path d="M106.902 29.8624V21.2258H105.306V19H111V21.2258H109.59V29.8624H111V32.0882H105.306V29.8624H106.902Z" fill="black"/>
<path fill-rule="evenodd" clip-rule="evenodd" d="M75.5471 9.79346C75.9479 9.79346 76.2835 9.87442 76.5539 10.0363C76.7103 10.1297 76.8878 10.2932 77.0866 10.5267V8H77.9321V14.8843H77.1403V14.1884C76.9351 14.4966 76.6923 14.7193 76.4121 14.8563C76.1319 14.9933 75.811 15.0618 75.4494 15.0618C74.8662 15.0618 74.3612 14.8282 73.9343 14.3612C73.5075 13.891 73.2941 13.2667 73.2941 12.4883C73.2941 11.7597 73.488 11.1292 73.8757 10.5968C74.2667 10.0612 74.8238 9.79346 75.5471 9.79346ZM74.2227 12.4416C74.2227 12.9772 74.3416 13.4255 74.5795 13.7867C74.8173 14.1479 75.1985 14.3285 75.7231 14.3285C76.1303 14.3285 76.4643 14.1619 76.7249 13.8287C76.9888 13.4925 77.1208 13.0114 77.1208 12.3856C77.1208 11.7535 76.9856 11.2865 76.7152 10.9844C76.4447 10.6793 76.1108 10.5267 75.7133 10.5267C75.2702 10.5267 74.9102 10.6886 74.6332 11.0125C74.3595 11.3363 74.2227 11.8127 74.2227 12.4416Z" fill="black"/>
<path fill-rule="evenodd" clip-rule="evenodd" d="M82.898 9.94292C82.6309 10.0675 82.4012 10.2496 82.2089 10.4894V8H81.3537V14.8843H82.165V14.2444C82.3507 14.4842 82.525 14.6585 82.6879 14.7675C82.9616 14.9512 83.2971 15.0431 83.6946 15.0431C84.4049 15.0431 84.9604 14.7815 85.3612 14.2584C85.7619 13.7353 85.9623 13.0784 85.9623 12.2875C85.9623 11.453 85.7587 10.8225 85.3514 10.396C84.9474 9.96627 84.4196 9.75143 83.7679 9.75143C83.4552 9.75143 83.1652 9.81526 82.898 9.94292ZM84.7063 13.7587C84.4717 14.1199 84.1166 14.3005 83.6409 14.3005C83.0088 14.3005 82.5771 14.0249 82.3458 13.4738C82.222 13.1811 82.1601 12.7997 82.1601 12.3295C82.1601 11.6788 82.3099 11.2117 82.6097 10.9284C82.9127 10.645 83.2646 10.5034 83.6653 10.5034C84.1247 10.5034 84.4717 10.6762 84.7063 11.0218C84.9441 11.3674 85.0631 11.8033 85.0631 12.3295C85.0631 12.9211 84.9441 13.3975 84.7063 13.7587Z" fill="black"/>
<path d="M95.2073 10.8723C94.9108 11.1121 94.7625 11.5651 94.7625 12.2314V14.8843H93.8829V8H94.7625V10.5594C94.9711 10.3072 95.1584 10.1297 95.3246 10.027C95.608 9.84951 95.9615 9.76077 96.3851 9.76077C97.1442 9.76077 97.659 10.0145 97.9294 10.5221C98.0761 10.7992 98.1494 11.1837 98.1494 11.6757V14.8843H97.2452V11.7317C97.2452 11.3643 97.1964 11.095 97.0986 10.9237C96.939 10.6497 96.6392 10.5127 96.1994 10.5127C95.8345 10.5127 95.5038 10.6326 95.2073 10.8723Z" fill="black"/>
<path fill-rule="evenodd" clip-rule="evenodd" d="M115.268 11.8531C115.47 11.8282 115.605 11.7473 115.673 11.6103C115.712 11.5355 115.732 11.4281 115.732 11.288C115.732 11.0016 115.624 10.7945 115.409 10.6668C115.198 10.5361 114.893 10.4707 114.495 10.4707C114.036 10.4707 113.71 10.589 113.518 10.8256C113.41 10.9564 113.34 11.151 113.308 11.4094H112.487C112.503 10.7929 112.712 10.3648 113.112 10.1251C113.516 9.8822 113.984 9.76077 114.515 9.76077C115.131 9.76077 115.631 9.87286 116.015 10.097C116.397 10.3212 116.587 10.67 116.587 11.1432V14.0249C116.587 14.1121 116.605 14.1821 116.641 14.2351C116.68 14.288 116.76 14.3145 116.88 14.3145C116.919 14.3145 116.963 14.3129 117.012 14.3098C117.061 14.3036 117.113 14.2958 117.169 14.2865V14.9076C117.032 14.945 116.928 14.9683 116.856 14.9777C116.784 14.987 116.687 14.9917 116.563 14.9917C116.26 14.9917 116.04 14.8889 115.903 14.6834C115.831 14.5745 115.781 14.4203 115.751 14.2211C115.572 14.4453 115.315 14.6399 114.979 14.8049C114.644 14.9699 114.274 15.0524 113.87 15.0524C113.384 15.0524 112.987 14.9123 112.677 14.6321C112.371 14.3487 112.218 13.9953 112.218 13.5719C112.218 13.1079 112.37 12.7483 112.673 12.493C112.976 12.2377 113.373 12.0804 113.865 12.0213L115.268 11.8531ZM113.137 13.5532C113.137 13.7961 113.23 13.9875 113.415 14.1277C113.601 14.2678 113.821 14.3378 114.075 14.3378C114.385 14.3378 114.684 14.2693 114.974 14.1323C115.463 13.905 115.707 13.533 115.707 13.0161V12.3389C115.6 12.4043 115.461 12.4587 115.292 12.5023C115.123 12.5459 114.956 12.5771 114.794 12.5957L114.261 12.6611C113.942 12.7016 113.702 12.7654 113.542 12.8526C113.272 12.999 113.137 13.2325 113.137 13.5532Z" fill="black"/>
<path d="M119.356 9.9616C119.079 10.0893 118.817 10.2994 118.569 10.5921V9.8822H117.733V14.8843H118.613V12.2641C118.613 11.9372 118.634 11.6866 118.677 11.5122C118.722 11.3347 118.818 11.1635 118.965 10.9984C119.148 10.7929 119.359 10.6559 119.6 10.5874C119.734 10.547 119.905 10.5267 120.114 10.5267C120.524 10.5267 120.808 10.6824 120.964 10.9938C121.058 11.1806 121.106 11.4266 121.106 11.7317V14.8843H122V11.6757C122 11.1713 121.928 10.7836 121.785 10.5127C121.524 10.0176 121.023 9.77011 120.28 9.77011C119.941 9.77011 119.633 9.83394 119.356 9.9616Z" fill="black"/>
<path d="M105.862 10.055C105.693 10.1671 105.504 10.3461 105.295 10.5921V9.8822H104.425V14.8843H105.305V12.2314C105.305 11.5869 105.44 11.1417 105.71 10.8957C105.984 10.6497 106.287 10.5267 106.619 10.5267C106.984 10.5267 107.234 10.6435 107.367 10.877C107.452 11.0327 107.494 11.2802 107.494 11.6196V14.8843H108.389V11.9746C108.389 11.4577 108.512 11.0887 108.76 10.8677C109.011 10.6466 109.309 10.5361 109.654 10.5361C109.905 10.5361 110.117 10.5983 110.29 10.7229C110.466 10.8474 110.554 11.0763 110.554 11.4094V14.8843H111.468V11.5542C111.468 11.1121 111.399 10.7602 111.262 10.4987C111.008 10.013 110.529 9.77011 109.825 9.77011C109.496 9.77011 109.2 9.8355 108.936 9.96627C108.672 10.0939 108.442 10.2916 108.247 10.5594C108.13 10.3415 107.999 10.1764 107.856 10.0643C107.602 9.86819 107.266 9.77011 106.849 9.77011C106.481 9.77011 106.152 9.86508 105.862 10.055Z" fill="black"/>
<path d="M100.161 13.8287C100.076 13.6668 100.034 13.4582 100.034 13.2029V9.8822H99.1344V13.2823C99.1344 13.7089 99.2077 14.0498 99.3544 14.3051C99.6248 14.7815 100.133 15.0197 100.879 15.0197C101.358 15.0197 101.765 14.8889 102.101 14.6274C102.27 14.4966 102.412 14.3363 102.526 14.1463L102.516 14.8843H103.347V9.8822H102.467V12.3389C102.467 12.8277 102.407 13.2122 102.287 13.4925C102.065 14.0156 101.648 14.2771 101.036 14.2771C100.609 14.2771 100.317 14.1277 100.161 13.8287Z" fill="black"/>
<path d="M88.5503 13.9549L89.9627 9.8822H90.9353C90.8115 10.2029 90.5362 10.9346 90.1094 12.0773C89.7901 12.9367 89.5229 13.6373 89.3079 14.179C88.7996 15.4556 88.4412 16.234 88.2327 16.5143C88.0242 16.7945 87.6658 16.9346 87.1575 16.9346C87.0337 16.9346 86.9376 16.9299 86.8692 16.9206C86.804 16.9113 86.7225 16.8941 86.6248 16.8692V16.1033C86.7779 16.1437 86.8887 16.1687 86.9571 16.178C87.0255 16.1873 87.0858 16.192 87.138 16.192C87.3009 16.192 87.4198 16.1655 87.4947 16.1126C87.5729 16.0628 87.6381 16.0005 87.6902 15.9258C87.7065 15.9009 87.7651 15.7732 87.8661 15.5428C87.9671 15.3124 88.0405 15.1412 88.0861 15.0291L86.1507 9.8822H87.1477L88.5503 13.9549Z" fill="black"/>
<path fill-rule="evenodd" clip-rule="evenodd" d="M70.5741 9.77011C70.9455 9.77011 71.3056 9.85418 71.6542 10.0223C72.0028 10.1873 72.2683 10.4022 72.4508 10.6668C72.6267 10.919 72.744 11.2133 72.8027 11.5496C72.8548 11.78 72.8809 12.1474 72.8809 12.6518H69.0444C69.0607 13.1593 69.1862 13.5672 69.4207 13.8755C69.6553 14.1806 70.0186 14.3332 70.5106 14.3332C70.97 14.3332 71.3365 14.1884 71.6102 13.8988C71.7666 13.7307 71.8774 13.5361 71.9425 13.315H72.8076C72.7847 13.4987 72.7082 13.7042 72.5779 13.9315C72.4508 14.1557 72.3074 14.3394 72.1478 14.4826C71.8806 14.7317 71.5499 14.8998 71.1557 14.987C70.9439 15.0368 70.7044 15.0618 70.4373 15.0618C69.7856 15.0618 69.2334 14.836 68.7805 14.3845C68.3276 13.9299 68.1012 13.2948 68.1012 12.479C68.1012 11.6757 68.3293 11.0234 68.7854 10.5221C69.2415 10.0208 69.8378 9.77011 70.5741 9.77011ZM71.9767 11.9839C71.9409 11.6196 71.8578 11.3285 71.7275 11.1105C71.4864 10.7058 71.084 10.5034 70.5204 10.5034C70.1163 10.5034 69.7775 10.6435 69.5038 10.9237C69.2301 11.2008 69.0851 11.5542 69.0689 11.9839H71.9767Z" fill="black"/>
<path fill-rule="evenodd" clip-rule="evenodd" d="M64.9707 9.79346C65.3812 9.79346 65.7396 9.88998 66.0458 10.083C66.212 10.192 66.3814 10.3508 66.5541 10.5594V9.9289H67.3654V14.4779C67.3654 15.1131 67.2676 15.6144 67.0721 15.9818C66.7072 16.6606 66.0181 17 65.0049 17C64.4412 17 63.9672 16.8786 63.5827 16.6357C63.1982 16.396 62.9832 16.0192 62.9376 15.5054H63.8319C63.8743 15.7296 63.959 15.9024 64.0861 16.0239C64.2848 16.2107 64.5976 16.3041 65.0244 16.3041C65.6989 16.3041 66.1403 16.0768 66.3488 15.6222C66.4727 15.3544 66.5297 14.8765 66.5199 14.1884C66.344 14.4437 66.1322 14.6336 65.8846 14.7582C65.6369 14.8827 65.3095 14.945 64.9022 14.945C64.3353 14.945 63.8385 14.7535 63.4116 14.3705C62.9881 13.9844 62.7763 13.3477 62.7763 12.4603C62.7763 11.6227 62.9897 10.9689 63.4165 10.4987C63.8466 10.0285 64.3647 9.79346 64.9707 9.79346ZM66.5541 12.3622C66.5541 11.7426 66.4205 11.2833 66.1534 10.9844C65.8862 10.6855 65.5457 10.5361 65.1319 10.5361C64.5129 10.5361 64.0893 10.8132 63.8613 11.3674C63.7407 11.6632 63.6804 12.0509 63.6804 12.5304C63.6804 13.0939 63.7994 13.5236 64.0372 13.8194C64.2783 14.1121 64.6009 14.2584 65.0049 14.2584C65.6369 14.2584 66.0817 13.986 66.3391 13.4411C66.4824 13.1328 66.5541 12.7732 66.5541 12.3622Z" fill="black"/>
<path d="M58.7954 11.5122C58.7531 11.6866 58.7319 11.9372 58.7319 12.2641V14.8843H57.8522V9.8822H58.6879V10.5921C58.9355 10.2994 59.1978 10.0893 59.4747 9.9616C59.7517 9.83394 60.0596 9.77011 60.3984 9.77011C61.1413 9.77011 61.643 10.0176 61.9037 10.5127C62.047 10.7836 62.1187 11.1713 62.1187 11.6757V14.8843H61.2243V11.7317C61.2243 11.4266 61.1771 11.1806 61.0826 10.9938C60.9262 10.6824 60.6428 10.5267 60.2322 10.5267C60.0237 10.5267 59.8527 10.547 59.7191 10.5874C59.478 10.6559 59.2662 10.7929 59.0838 10.9984C58.9371 11.1635 58.841 11.3347 58.7954 11.5122Z" fill="black"/>
<path fill-rule="evenodd" clip-rule="evenodd" d="M55.3863 11.8531C55.5883 11.8282 55.7235 11.7473 55.7919 11.6103C55.831 11.5355 55.8506 11.4281 55.8506 11.288C55.8506 11.0016 55.7431 10.7945 55.528 10.6668C55.3163 10.5361 55.0116 10.4707 54.6141 10.4707C54.1547 10.4707 53.8289 10.589 53.6367 10.8256C53.5292 10.9564 53.4591 11.151 53.4265 11.4094H52.6055C52.6218 10.7929 52.8303 10.3648 53.2311 10.1251C53.6351 9.8822 54.1026 9.76077 54.6337 9.76077C55.2495 9.76077 55.7496 9.87286 56.134 10.097C56.5152 10.3212 56.7058 10.67 56.7058 11.1432V14.0249C56.7058 14.1121 56.7238 14.1821 56.7596 14.2351C56.7987 14.288 56.8785 14.3145 56.9991 14.3145C57.0382 14.3145 57.0822 14.3129 57.131 14.3098C57.1799 14.3036 57.232 14.2958 57.2874 14.2865V14.9076C57.1506 14.945 57.0463 14.9683 56.9746 14.9777C56.903 14.987 56.8052 14.9917 56.6814 14.9917C56.3784 14.9917 56.1585 14.8889 56.0216 14.6834C55.95 14.5745 55.8995 14.4203 55.8701 14.2211C55.6909 14.4453 55.4335 14.6399 55.098 14.8049C54.7624 14.9699 54.3926 15.0524 53.9886 15.0524C53.5031 15.0524 53.1056 14.9123 52.7961 14.6321C52.4898 14.3487 52.3367 13.9953 52.3367 13.5719C52.3367 13.1079 52.4882 12.7483 52.7912 12.493C53.0942 12.2377 53.4917 12.0804 53.9837 12.0213L55.3863 11.8531ZM53.2555 13.5532C53.2555 13.7961 53.3484 13.9875 53.5341 14.1277C53.7198 14.2678 53.9397 14.3378 54.1938 14.3378C54.5034 14.3378 54.8031 14.2693 55.0931 14.1323C55.5818 13.905 55.8262 13.533 55.8262 13.0161V12.3389C55.7186 12.4043 55.5802 12.4587 55.4107 12.5023C55.2413 12.5459 55.0752 12.5771 54.9122 12.5957L54.3795 12.6611C54.0603 12.7016 53.8208 12.7654 53.6611 12.8526C53.3907 12.999 53.2555 13.2325 53.2555 13.5532Z" fill="black"/>
<path d="M50.8092 11.0685C50.5713 11.3394 50.4524 11.6523 50.4524 12.0073V14.8843H49.5727V9.8822H50.4084V10.7462C50.4768 10.5781 50.6446 10.3742 50.9118 10.1344C51.179 9.89154 51.4869 9.77011 51.8355 9.77011C51.8518 9.77011 51.8795 9.77167 51.9186 9.77478C51.9577 9.77789 52.0244 9.78412 52.1189 9.79346V10.6809C52.0668 10.6715 52.0179 10.6653 51.9723 10.6622C51.93 10.6591 51.8827 10.6575 51.8306 10.6575C51.3875 10.6575 51.047 10.7945 50.8092 11.0685Z" fill="black"/>
<path d="M47.7764 11.0685C47.5385 11.3394 47.4196 11.6523 47.4196 12.0073V14.8843H46.5399V9.8822H47.3756V10.7462C47.444 10.5781 47.6118 10.3742 47.879 10.1344C48.1462 9.89154 48.4541 9.77011 48.8027 9.77011C48.819 9.77011 48.8467 9.77167 48.8858 9.77478C48.9249 9.77789 48.9917 9.78412 49.0861 9.79346V10.6809C49.034 10.6715 48.9851 10.6653 48.9395 10.6622C48.8972 10.6591 48.8499 10.6575 48.7978 10.6575C48.3547 10.6575 48.0142 10.7945 47.7764 11.0685Z" fill="black"/>
<path fill-rule="evenodd" clip-rule="evenodd" d="M44.0496 11.8531C44.2516 11.8282 44.3868 11.7473 44.4552 11.6103C44.4943 11.5355 44.5139 11.4281 44.5139 11.288C44.5139 11.0016 44.4064 10.7945 44.1913 10.6668C43.9796 10.5361 43.6749 10.4707 43.2774 10.4707C42.818 10.4707 42.4922 10.589 42.3 10.8256C42.1925 10.9564 42.1224 11.151 42.0898 11.4094H41.2688C41.2851 10.7929 41.4936 10.3648 41.8944 10.1251C42.2984 9.8822 42.7659 9.76077 43.297 9.76077C43.9128 9.76077 44.4129 9.87286 44.7973 10.097C45.1785 10.3212 45.3691 10.67 45.3691 11.1432V14.0249C45.3691 14.1121 45.3871 14.1821 45.4229 14.2351C45.462 14.288 45.5418 14.3145 45.6624 14.3145C45.7015 14.3145 45.7455 14.3129 45.7943 14.3098C45.8432 14.3036 45.8953 14.2958 45.9507 14.2865V14.9076C45.8139 14.945 45.7096 14.9683 45.6379 14.9777C45.5663 14.987 45.4685 14.9917 45.3447 14.9917C45.0417 14.9917 44.8218 14.8889 44.6849 14.6834C44.6133 14.5745 44.5628 14.4203 44.5334 14.2211C44.3542 14.4453 44.0968 14.6399 43.7613 14.8049C43.4257 14.9699 43.0559 15.0524 42.6519 15.0524C42.1664 15.0524 41.7689 14.9123 41.4594 14.6321C41.1531 14.3487 41 13.9953 41 13.5719C41 13.1079 41.1515 12.7483 41.4545 12.493C41.7575 12.2377 42.155 12.0804 42.647 12.0213L44.0496 11.8531ZM41.9188 13.5532C41.9188 13.7961 42.0116 13.9875 42.1974 14.1277C42.3831 14.2678 42.603 14.3378 42.8571 14.3378C43.1667 14.3378 43.4664 14.2693 43.7564 14.1323C44.2451 13.905 44.4894 13.533 44.4894 13.0161V12.3389C44.3819 12.4043 44.2435 12.4587 44.074 12.5023C43.9046 12.5459 43.7385 12.5771 43.5755 12.5957L43.0428 12.6611C42.7235 12.7016 42.4841 12.7654 42.3244 12.8526C42.054 12.999 41.9188 13.2325 41.9188 13.5532Z" fill="black"/>
</svg>
