<svg width="131" height="42" viewBox="0 0 131 42" fill="none" xmlns="http://www.w3.org/2000/svg">
<path d="M116 0.5C124.008 0.5 130.5 6.99187 130.5 15V41.5H15C6.99187 41.5 0.5 35.0081 0.5 27V0.5H116Z" fill="white" stroke="black"/>
<path d="M27.8497 24.1575C24.3836 26.9643 19.4266 26.9643 15.9605 24.1575L17.3007 22.5026C19.9854 24.6766 23.8248 24.6766 26.5095 22.5026L27.8497 24.1575Z" fill="black"/>
<path d="M17.404 17.6365V20.5134H19.5336V17.6365H17.404Z" fill="black"/>
<path d="M24.012 17.6365V20.5134H26.1415V17.6365H24.012Z" fill="black"/>
<path fill-rule="evenodd" clip-rule="evenodd" d="M21.5 33C27.8513 33 33 27.8513 33 21.5C33 15.1487 27.8513 10 21.5 10C15.1487 10 10 15.1487 10 21.5C10 27.8513 15.1487 33 21.5 33ZM21.5 30.8705C26.6752 30.8705 30.8705 26.6752 30.8705 21.5C30.8705 16.3248 26.6752 12.1295 21.5 12.1295C16.3248 12.1295 12.1295 16.3248 12.1295 21.5C12.1295 26.6752 16.3248 30.8705 21.5 30.8705Z" fill="black"/>
<path fill-rule="evenodd" clip-rule="evenodd" d="M96.5967 19.2822L101.181 32.15H98.2476L97.4134 29.5049H92.6449L91.7491 32.15H88.9214L93.5406 19.2822H96.5967ZM96.6581 27.2875L95.0423 22.2242L93.3738 27.2875H96.6581Z" fill="black"/>
<path fill-rule="evenodd" clip-rule="evenodd" d="M73.2043 22.425C74.463 22.425 75.4466 22.876 76.155 23.7781C76.8692 24.6802 77.2264 25.8442 77.2264 27.27C77.2264 28.7483 76.8751 29.9734 76.1725 30.9453C75.47 31.9172 74.4894 32.4032 73.2307 32.4032C72.4403 32.4032 71.8051 32.2461 71.325 31.9318C71.0381 31.7455 70.7279 31.4196 70.3941 30.954V32.15H67.944V19.2997H70.4381V23.8741C70.7542 23.4318 71.1025 23.0943 71.4831 22.8615C71.9339 22.5705 72.5076 22.425 73.2043 22.425ZM72.5632 30.3517C73.2072 30.3517 73.7078 30.0927 74.0649 29.5747C74.422 29.0567 74.6006 28.3758 74.6006 27.5319C74.6006 26.8568 74.5128 26.2981 74.3372 25.8558C74.0034 25.0177 73.3887 24.5987 72.493 24.5987C71.5855 24.5987 70.962 25.009 70.6225 25.8296C70.4468 26.2661 70.359 26.8306 70.359 27.5232C70.359 28.338 70.5405 29.0131 70.9035 29.5485C71.2665 30.084 71.8197 30.3517 72.5632 30.3517Z" fill="black"/>
<path d="M59.5065 30.3517C59.5065 30.9453 59.647 31.3847 59.928 31.6699C60.3612 32.118 61.1692 32.3217 62.3518 32.281L63.5373 32.2373V30.3779C63.4553 30.3837 63.3705 30.3895 63.2826 30.3953H63.0455C62.5362 30.3953 62.2318 30.3488 62.1322 30.2556C62.0327 30.1567 61.9829 29.9123 61.9829 29.5223V24.4939H63.5373V22.7218H61.9829V20.0679H59.5065V22.7218H58.1717V24.4939H59.5065V30.3517Z" fill="black"/>
<path fill-rule="evenodd" clip-rule="evenodd" d="M58.0744 27.4097C58.0744 28.8065 57.6704 30.0025 56.8625 30.9977C56.0546 31.9871 54.828 32.4818 53.1829 32.4818C51.5378 32.4818 50.3113 31.9871 49.5034 30.9977C48.6954 30.0025 48.2915 28.8065 48.2915 27.4097C48.2915 26.0362 48.6954 24.8461 49.5034 23.8392C50.3113 22.8324 51.5378 22.3289 53.1829 22.3289C54.828 22.3289 56.0546 22.8324 56.8625 23.8392C57.6704 24.8461 58.0744 26.0362 58.0744 27.4097ZM53.1741 30.3953C53.906 30.3953 54.468 30.1363 54.8602 29.6184C55.2525 29.1004 55.4486 28.3642 55.4486 27.4097C55.4486 26.4553 55.2525 25.7219 54.8602 25.2098C54.468 24.6918 53.906 24.4328 53.1741 24.4328C52.4423 24.4328 51.8774 24.6918 51.4793 25.2098C51.087 25.7219 50.8909 26.4553 50.8909 27.4097C50.8909 28.3642 51.087 29.1004 51.4793 29.6184C51.8774 30.1363 52.4423 30.3953 53.1741 30.3953Z" fill="black"/>
<path d="M43.9087 22.4075C44.8981 22.4075 45.706 22.6665 46.3325 23.1845C46.9647 23.6966 47.2809 24.5492 47.2809 25.7423V32.15H44.7166V26.3621C44.7166 25.8616 44.6493 25.4775 44.5146 25.2098C44.2687 24.7209 43.8004 24.4765 43.1095 24.4765C42.2606 24.4765 41.6781 24.8344 41.362 25.5503C41.1981 25.9286 41.1161 26.4116 41.1161 26.9994V32.15H38.6221V22.6519H41.0371V24.04C41.3591 23.5511 41.6635 23.199 41.9504 22.9837C42.4656 22.5996 43.1183 22.4075 43.9087 22.4075Z" fill="black"/>
<path d="M79.0098 33.992L78.6936 33.9746V35.965C78.9629 35.9824 79.1649 35.9912 79.2995 35.9912C79.4342 35.997 79.6128 35.9999 79.8352 35.9999C80.9417 35.9999 81.6794 35.7816 82.0482 35.3451C82.4171 34.9145 82.9176 33.7971 83.5499 31.9929L86.8343 22.6345H84.1734L82.1975 29.6533L80.1075 22.6345H77.3237L80.8364 32.5691C80.8598 32.6389 80.8071 32.831 80.6783 33.1452C80.5553 33.4595 80.4207 33.6661 80.2743 33.765C80.1221 33.8698 79.9348 33.9367 79.7123 33.9658C79.4898 33.9949 79.2556 34.0037 79.0098 33.992Z" fill="black"/>
<path d="M103.487 29.9642V21.471H101.892V19.2822H107.583V21.471H106.174V29.9642H107.583V32.153H101.892V29.9642H103.487Z" fill="black"/>
<path d="M85.1377 13.8379L86.5586 9.55176H87.5371C87.4126 9.88923 87.1352 10.659 86.7061 11.8613C86.385 12.7655 86.1166 13.5031 85.9004 14.0732C85.3892 15.4167 85.0281 16.2363 84.8184 16.5312C84.6086 16.826 84.2483 16.9736 83.7373 16.9736C83.6128 16.9736 83.5161 16.9688 83.4473 16.959C83.3817 16.9492 83.2995 16.9305 83.2012 16.9043V16.0986C83.3552 16.1412 83.4673 16.1669 83.5361 16.1768C83.6048 16.1866 83.6654 16.1914 83.7178 16.1914C83.8814 16.1914 84.0008 16.164 84.0762 16.1084C84.1548 16.056 84.221 15.9907 84.2734 15.9121C84.2898 15.8859 84.3486 15.7513 84.4502 15.5088C84.5518 15.2663 84.625 15.0857 84.6709 14.9678L82.7246 9.55176H83.7275L85.1377 13.8379Z" fill="black"/>
<path d="M121.598 9.41406C122.391 9.41406 122.963 9.64701 123.313 10.1123C123.533 10.4071 123.639 10.7248 123.633 11.0654H122.797C122.78 10.8656 122.71 10.6834 122.586 10.5195C122.383 10.287 122.03 10.1709 121.529 10.1709C121.195 10.1709 120.941 10.2347 120.768 10.3623C120.597 10.4901 120.512 10.6594 120.512 10.8691C120.512 11.0983 120.625 11.2814 120.851 11.4189C120.982 11.5009 121.175 11.5735 121.431 11.6357L122.016 11.7783C122.651 11.9323 123.078 12.0814 123.294 12.2256C123.638 12.4517 123.81 12.8072 123.81 13.292C123.81 13.7606 123.631 14.1651 123.273 14.5059C122.92 14.8465 122.379 15.0175 121.652 15.0176C120.869 15.0176 120.313 14.8402 119.985 14.4863C119.661 14.1292 119.488 13.6883 119.465 13.1641H120.315C120.342 13.459 120.415 13.6855 120.536 13.8428C120.759 14.1277 121.146 14.2705 121.696 14.2705C122.024 14.2705 122.313 14.1995 122.562 14.0586C122.81 13.9145 122.934 13.6934 122.935 13.3955C122.935 13.1694 122.835 12.9969 122.635 12.8789C122.507 12.8068 122.255 12.7239 121.878 12.6289L121.175 12.4512C120.726 12.3398 120.396 12.2156 120.183 12.0781C119.803 11.8389 119.612 11.5077 119.612 11.085C119.612 10.5871 119.79 10.1839 120.147 9.87598C120.508 9.56799 120.992 9.41409 121.598 9.41406Z" fill="black"/>
<path fill-rule="evenodd" clip-rule="evenodd" d="M58.6387 9.39941C59.3169 9.39941 59.8908 9.62506 60.3594 10.0771C60.8279 10.5293 61.0625 11.1951 61.0625 12.0732C61.0625 12.9217 60.8561 13.6231 60.4434 14.1768C60.0306 14.7304 59.3896 15.0077 58.5215 15.0078C57.7974 15.0078 57.2219 14.7635 56.7959 14.2754C56.3699 13.7839 56.1572 13.1246 56.1572 12.2988C56.1573 11.4143 56.3813 10.7098 56.8301 10.1855C57.2789 9.66136 57.8819 9.3995 58.6387 9.39941ZM58.6143 10.1709C58.0737 10.171 57.6803 10.3772 57.4346 10.79C57.1888 11.2029 57.0664 11.701 57.0664 12.2842C57.0664 12.8445 57.1888 13.312 57.4346 13.6855C57.6803 14.059 58.0705 14.2451 58.6045 14.2451C59.191 14.2451 59.5923 14.0243 59.8086 13.582C60.0281 13.1364 60.1377 12.6416 60.1377 12.0977C60.1377 11.6062 60.0596 11.2064 59.9023 10.8984C59.6533 10.4135 59.2237 10.1709 58.6143 10.1709Z" fill="black"/>
<path fill-rule="evenodd" clip-rule="evenodd" d="M67.0596 9.43359C67.433 9.43365 67.795 9.52234 68.1455 9.69922C68.4959 9.8728 68.7628 10.0986 68.9463 10.377C69.1232 10.6424 69.2418 10.9528 69.3008 11.3066C69.3531 11.5491 69.3789 11.9355 69.3789 12.4658H65.5205C65.5369 12.9999 65.6635 13.4295 65.8994 13.7539C66.1353 14.075 66.5004 14.2353 66.9951 14.2354C67.4571 14.2354 67.8263 14.0831 68.1016 13.7783C68.2587 13.6015 68.3701 13.3966 68.4355 13.1641H69.3057C69.2827 13.3573 69.2052 13.5734 69.0742 13.8125C68.9464 14.0484 68.8021 14.2419 68.6416 14.3926C68.373 14.6546 68.0408 14.8321 67.6445 14.9238C67.4316 14.9762 67.1904 15.0019 66.9219 15.002C66.2665 15.002 65.7103 14.7652 65.2549 14.29C64.7995 13.8116 64.5723 13.1426 64.5723 12.2842C64.5723 11.4389 64.802 10.7521 65.2607 10.2246C65.7194 9.69734 66.3192 9.43359 67.0596 9.43359ZM67.0049 10.2051C66.5987 10.2051 66.2576 10.3526 65.9824 10.6475C65.7072 10.9391 65.5613 11.3115 65.5449 11.7637H68.4697C68.4337 11.3804 68.3498 11.0741 68.2188 10.8447C67.9763 10.4188 67.5718 10.2051 67.0049 10.2051Z" fill="black"/>
<path fill-rule="evenodd" clip-rule="evenodd" d="M74.459 14.8154H73.6631V14.083C73.4567 14.4074 73.2124 14.642 72.9307 14.7861C72.6489 14.9303 72.3256 15.002 71.9619 15.002C71.3756 15.0018 70.8676 14.7569 70.4385 14.2656C70.0092 13.7708 69.7949 13.1131 69.7949 12.2939C69.795 11.5273 69.99 10.864 70.3799 10.3037C70.7731 9.74015 71.3331 9.45802 72.0605 9.45801C72.4636 9.45801 72.8013 9.54348 73.0732 9.71387C73.2304 9.81213 73.4087 9.98405 73.6084 10.2295V7.57031H74.459V14.8154ZM72.2275 10.2295C71.782 10.2295 71.4201 10.4005 71.1416 10.7412C70.8664 11.082 70.7285 11.5832 70.7285 12.2451C70.7285 12.8084 70.8479 13.2802 71.0869 13.6602C71.3261 14.0402 71.7099 14.2304 72.2373 14.2305C72.6468 14.2305 72.983 14.0556 73.2451 13.7051C73.5105 13.3513 73.6435 12.8449 73.6436 12.1865C73.6436 11.5215 73.5072 11.0298 73.2354 10.7119C72.9634 10.3908 72.6273 10.2295 72.2275 10.2295Z" fill="black"/>
<path fill-rule="evenodd" clip-rule="evenodd" d="M40.1768 9.42383C40.7959 9.42383 41.2989 9.54153 41.6855 9.77734C42.0689 10.0133 42.2607 10.3808 42.2607 10.8789V13.9111C42.2607 14.0029 42.2784 14.0771 42.3145 14.1328C42.3538 14.1885 42.4345 14.2158 42.5557 14.2158C42.595 14.2158 42.6393 14.2142 42.6885 14.2109C42.7376 14.2044 42.79 14.1963 42.8457 14.1865V14.8398C42.7082 14.8791 42.6033 14.9042 42.5312 14.9141C42.4592 14.9239 42.3608 14.9287 42.2363 14.9287C41.9316 14.9287 41.7099 14.8208 41.5723 14.6045C41.5002 14.4899 41.4494 14.3277 41.4199 14.1182C41.2397 14.3539 40.9808 14.5589 40.6436 14.7324C40.3062 14.9059 39.9344 14.9921 39.5283 14.9922C39.0401 14.9922 38.6404 14.8447 38.3291 14.5498C38.0211 14.2516 37.8662 13.8802 37.8662 13.4346C37.8662 12.9463 38.0195 12.5675 38.3242 12.2988C38.6289 12.0303 39.0289 11.865 39.5234 11.8027L40.9336 11.626C41.1368 11.5998 41.273 11.5143 41.3418 11.3701C41.3811 11.2915 41.4004 11.1785 41.4004 11.0312C41.4004 10.7298 41.2924 10.5113 41.0762 10.377C40.8632 10.2394 40.5568 10.1709 40.1572 10.1709C39.6953 10.1709 39.3672 10.295 39.1738 10.5439C39.0657 10.6816 38.9957 10.8872 38.9629 11.1592H38.1367C38.1531 10.5104 38.3636 10.0599 38.7666 9.80762C39.1729 9.55209 39.6427 9.42383 40.1768 9.42383ZM41.376 12.1367C41.2678 12.2055 41.1284 12.2627 40.958 12.3086C40.7877 12.3544 40.6208 12.3876 40.457 12.4072L39.9209 12.4756C39.5999 12.5182 39.3588 12.586 39.1982 12.6777C38.9265 12.8318 38.791 13.0777 38.791 13.415C38.7911 13.6705 38.8846 13.8721 39.0713 14.0195C39.258 14.1668 39.479 14.2402 39.7344 14.2402C40.0456 14.2402 40.3471 14.1685 40.6387 14.0244C41.1302 13.7852 41.376 13.3935 41.376 12.8496V12.1367Z" fill="black"/>
<path fill-rule="evenodd" clip-rule="evenodd" d="M111.251 9.42383C111.87 9.42383 112.373 9.54152 112.76 9.77734C113.143 10.0133 113.335 10.3808 113.335 10.8789V13.9111C113.335 14.0029 113.353 14.0771 113.389 14.1328C113.428 14.1885 113.509 14.2158 113.63 14.2158C113.669 14.2158 113.714 14.2142 113.763 14.2109C113.812 14.2044 113.864 14.1963 113.92 14.1865V14.8398C113.782 14.8791 113.678 14.9042 113.605 14.9141C113.533 14.9239 113.435 14.9287 113.311 14.9287C113.006 14.9287 112.784 14.8208 112.646 14.6045C112.574 14.4899 112.524 14.3277 112.494 14.1182C112.314 14.3539 112.055 14.5589 111.718 14.7324C111.38 14.906 111.009 14.9921 110.603 14.9922C110.114 14.9922 109.715 14.8447 109.403 14.5498C109.095 14.2516 108.94 13.8802 108.94 13.4346C108.94 12.9463 109.094 12.5675 109.398 12.2988C109.703 12.0303 110.103 11.865 110.598 11.8027L112.008 11.626C112.211 11.5998 112.347 11.5143 112.416 11.3701C112.455 11.2915 112.475 11.1785 112.475 11.0312C112.475 10.7298 112.367 10.5113 112.15 10.377C111.937 10.2394 111.631 10.1709 111.231 10.1709C110.77 10.1709 110.441 10.295 110.248 10.5439C110.14 10.6816 110.07 10.8872 110.037 11.1592H109.211C109.227 10.5104 109.438 10.0599 109.841 9.80762C110.247 9.55209 110.717 9.42383 111.251 9.42383ZM112.45 12.1367C112.342 12.2055 112.203 12.2627 112.032 12.3086C111.862 12.3544 111.695 12.3876 111.531 12.4072L110.995 12.4756C110.674 12.5182 110.433 12.586 110.272 12.6777C110.001 12.8318 109.865 13.0777 109.865 13.415C109.865 13.6705 109.959 13.8721 110.146 14.0195C110.332 14.1668 110.553 14.2402 110.809 14.2402C111.12 14.2402 111.421 14.1686 111.713 14.0244C112.204 13.7852 112.45 13.3935 112.45 12.8496V12.1367Z" fill="black"/>
<path fill-rule="evenodd" clip-rule="evenodd" d="M78.7607 7.57031V10.1904C78.954 9.93829 79.1846 9.74626 79.4531 9.61523C79.7217 9.48092 80.0136 9.4141 80.3281 9.41406C80.9834 9.41406 81.5146 9.63976 81.9209 10.0918C82.3305 10.5407 82.5352 11.2048 82.5352 12.083C82.5351 12.9152 82.3337 13.6068 81.9307 14.1572C81.5277 14.7076 80.969 14.9824 80.2549 14.9824C79.8551 14.9824 79.5174 14.8857 79.2422 14.6924C79.0784 14.5777 78.9025 14.3948 78.7158 14.1426V14.8154H77.9004V7.57031H78.7607ZM80.2256 10.2051C79.8225 10.2051 79.4678 10.3542 79.1631 10.6523C78.8617 10.9505 78.711 11.4423 78.7109 12.127C78.7109 12.6217 78.7739 13.0231 78.8984 13.3311C79.131 13.9109 79.5647 14.2011 80.2002 14.2012C80.6786 14.2012 81.0365 14.011 81.2725 13.6309C81.5115 13.2508 81.6309 12.7493 81.6309 12.127C81.6308 11.5734 81.5115 11.1146 81.2725 10.751C81.0366 10.3874 80.6874 10.2052 80.2256 10.2051Z" fill="black"/>
<path d="M44.2988 13.0459C44.2988 13.3146 44.3406 13.5347 44.4258 13.7051C44.583 14.0195 44.8766 14.1767 45.3057 14.1768C45.9217 14.1768 46.3416 13.9011 46.5645 13.3506C46.6856 13.0557 46.7461 12.6509 46.7461 12.1367V9.55176H47.6309V14.8154H46.7949L46.8047 14.0391C46.6901 14.2387 46.5481 14.4074 46.3779 14.5449C46.0404 14.8202 45.6301 14.958 45.1484 14.958C44.3982 14.9579 43.8872 14.7073 43.6152 14.2061C43.4678 13.9374 43.3936 13.5787 43.3936 13.1299V9.55176H44.2988V13.0459Z" fill="black"/>
<path d="M96.6865 13.0459C96.6865 13.3146 96.7293 13.5347 96.8145 13.7051C96.9717 14.0195 97.2652 14.1767 97.6943 14.1768C98.3104 14.1768 98.7303 13.9011 98.9531 13.3506C99.0742 13.0557 99.1348 12.6509 99.1348 12.1367V9.55176H100.02V14.8154H99.1836L99.1934 14.0391C99.0787 14.2389 98.936 14.4073 98.7656 14.5449C98.4281 14.8201 98.0188 14.958 97.5371 14.958C96.7868 14.958 96.2759 14.7074 96.0039 14.2061C95.8565 13.9374 95.7822 13.5787 95.7822 13.1299V9.55176H96.6865V13.0459Z" fill="black"/>
<path d="M49.7861 8.08203V9.55176H50.627V10.2744H49.7861V13.71C49.7862 13.8933 49.8492 14.0159 49.9736 14.0781C50.0425 14.1141 50.157 14.1328 50.3174 14.1328H50.4551C50.5042 14.1295 50.5615 14.1247 50.627 14.1182V14.8154C50.5254 14.8449 50.419 14.8668 50.3076 14.8799C50.1995 14.893 50.0809 14.8994 49.9531 14.8994C49.5407 14.8994 49.2608 14.7944 49.1133 14.585C48.9658 14.372 48.8916 14.0963 48.8916 13.7588V10.2744H48.1787V9.55176H48.8916V8.08203H49.7861Z" fill="black"/>
<path d="M52.0996 10.2646C52.3092 9.99942 52.497 9.81227 52.6641 9.7041C52.9491 9.51733 53.3055 9.42383 53.7314 9.42383C54.4946 9.42392 55.0122 9.69078 55.2842 10.2246C55.4316 10.5162 55.5059 10.9217 55.5059 11.4395V14.8154H54.5957V11.498C54.5957 11.1114 54.5465 10.8277 54.4482 10.6475C54.2876 10.3593 53.9861 10.2148 53.5439 10.2148C53.1771 10.2149 52.8449 10.3416 52.5469 10.5938C52.2488 10.846 52.0997 11.3225 52.0996 12.0234V14.8154H51.2148V7.57031H52.0996V10.2646Z" fill="black"/>
<path d="M64.2012 9.43848C64.2405 9.44176 64.3076 9.44821 64.4023 9.45801V10.3916C64.3499 10.3818 64.3007 10.3753 64.2549 10.3721C64.2123 10.3688 64.1647 10.3672 64.1123 10.3672C63.6667 10.3672 63.3242 10.5115 63.085 10.7998C62.8458 11.0849 62.7266 11.4145 62.7266 11.7881V14.8154H61.8418V9.55176H62.6816V10.4609C62.7504 10.284 62.9198 10.0697 63.1885 9.81738C63.4572 9.5618 63.7666 9.4336 64.1172 9.43359C64.1336 9.43359 64.1619 9.4352 64.2012 9.43848Z" fill="black"/>
<path d="M91.3857 7.57031V10.2646C91.5955 9.99923 91.7841 9.81223 91.9512 9.7041C92.2362 9.51736 92.5916 9.42383 93.0176 9.42383C93.7808 9.42384 94.2983 9.6908 94.5703 10.2246C94.7178 10.5162 94.792 10.9217 94.792 11.4395V14.8154H93.8828V11.498C93.8828 11.1114 93.8337 10.8277 93.7354 10.6475C93.5748 10.3592 93.2732 10.2149 92.8311 10.2148C92.4641 10.2148 92.1312 10.3414 91.833 10.5938C91.5349 10.846 91.3858 11.3225 91.3857 12.0234V14.8154H90.501V7.57031H91.3857Z" fill="black"/>
<path d="M106.534 9.43359C107.242 9.43359 107.724 9.68917 107.979 10.2002C108.117 10.4754 108.187 10.8462 108.187 11.3115V14.8154H107.267V11.1592C107.267 10.8088 107.179 10.5677 107.002 10.4365C106.828 10.3055 106.615 10.2393 106.362 10.2393C106.015 10.2393 105.715 10.3563 105.463 10.5889C105.214 10.8215 105.09 11.2101 105.09 11.7539V14.8154H104.19V11.3799C104.19 11.0229 104.148 10.7625 104.062 10.5986C103.928 10.3529 103.677 10.2295 103.311 10.2295C102.976 10.2295 102.672 10.3594 102.396 10.6182C102.125 10.877 101.988 11.3454 101.988 12.0234V14.8154H101.104V9.55176H101.979V10.2988C102.188 10.04 102.378 9.85136 102.549 9.7334C102.84 9.53369 103.171 9.43365 103.541 9.43359C103.96 9.43359 104.298 9.53681 104.554 9.74316C104.698 9.86113 104.829 10.0353 104.947 10.2646C105.144 9.98292 105.374 9.774 105.64 9.63965C105.905 9.50209 106.203 9.43366 106.534 9.43359Z" fill="black"/>
<path d="M117.049 9.43359C117.796 9.43365 118.3 9.69403 118.562 10.2148C118.707 10.4999 118.778 10.9086 118.778 11.4395V14.8154H117.879V11.498C117.879 11.177 117.831 10.9183 117.736 10.7217C117.579 10.3941 117.295 10.2296 116.882 10.2295C116.672 10.2295 116.5 10.2513 116.365 10.2939C116.123 10.3661 115.91 10.5104 115.727 10.7266C115.579 10.9001 115.482 11.08 115.437 11.2666C115.394 11.4501 115.373 11.7145 115.373 12.0586V14.8154H114.488V9.55176H115.328V10.2988C115.577 9.99082 115.842 9.76911 116.12 9.63477C116.399 9.50059 116.708 9.43359 117.049 9.43359Z" fill="black"/>
</svg>
