<svg width="131" height="42" viewBox="0 0 131 42" fill="none" xmlns="http://www.w3.org/2000/svg">
<path d="M116 0.5C124.008 0.5 130.5 6.99187 130.5 15V41.5H15C6.99187 41.5 0.5 35.0081 0.5 27V0.5H116Z" fill="white" stroke="black"/>
<path d="M27.8497 24.1575C24.3836 26.9643 19.4266 26.9643 15.9605 24.1575L17.3007 22.5026C19.9854 24.6766 23.8248 24.6766 26.5095 22.5026L27.8497 24.1575Z" fill="black"/>
<path d="M17.404 17.6365V20.5134H19.5336V17.6365H17.404Z" fill="black"/>
<path d="M24.012 17.6365V20.5134H26.1415V17.6365H24.012Z" fill="black"/>
<path fill-rule="evenodd" clip-rule="evenodd" d="M21.5 33C27.8513 33 33 27.8513 33 21.5C33 15.1487 27.8513 10 21.5 10C15.1487 10 10 15.1487 10 21.5C10 27.8513 15.1487 33 21.5 33ZM21.5 30.8705C26.6752 30.8705 30.8705 26.6752 30.8705 21.5C30.8705 16.3248 26.6752 12.1295 21.5 12.1295C16.3248 12.1295 12.1295 16.3248 12.1295 21.5C12.1295 26.6752 16.3248 30.8705 21.5 30.8705Z" fill="black"/>
<path fill-rule="evenodd" clip-rule="evenodd" d="M101.145 32.15L96.5719 19.2822H93.5231L88.9147 32.15H91.7358L92.6294 29.5049H97.3867L98.2191 32.15H101.145ZM95.0212 22.2242L96.6333 27.2875H93.3566L95.0212 22.2242Z" fill="black"/>
<path fill-rule="evenodd" clip-rule="evenodd" d="M73.2344 22.425C74.4902 22.425 75.4714 22.876 76.1782 23.7781C76.8907 24.6802 77.247 25.8442 77.247 27.27C77.247 28.7483 76.8966 29.9734 76.1957 30.9453C75.4948 31.9172 74.5164 32.4032 73.2607 32.4032C72.4722 32.4032 71.8384 32.2461 71.3595 31.9318C71.0733 31.7455 70.7637 31.4196 70.4308 30.954V32.15H67.9864V19.2997H70.4746V23.8741C70.79 23.4318 71.1376 23.0943 71.5172 22.8615C71.9669 22.5705 72.5393 22.425 73.2344 22.425ZM72.5948 30.3517C73.2373 30.3517 73.7367 30.0927 74.093 29.5747C74.4493 29.0567 74.6274 28.3758 74.6274 27.5319C74.6274 26.8568 74.5398 26.2981 74.3646 25.8558C74.0317 25.0177 73.4184 24.5987 72.5247 24.5987C71.6194 24.5987 70.9974 25.009 70.6586 25.8296C70.4834 26.2661 70.3958 26.8306 70.3958 27.5232C70.3958 28.338 70.5768 29.0131 70.939 29.5485C71.3011 30.084 71.853 30.3517 72.5948 30.3517Z" fill="black"/>
<path d="M59.9892 31.6699C59.7088 31.3847 59.5687 30.9453 59.5687 30.3517V24.4939H58.237V22.7218H59.5687V20.0679H62.0393V22.7218H63.59V24.4939H62.0393V29.5223C62.0393 29.9123 62.089 30.1567 62.1882 30.2556C62.2875 30.3488 62.5913 30.3953 63.0994 30.3953H63.336C63.4236 30.3895 63.5083 30.3837 63.59 30.3779V32.2373L62.4073 32.281C61.2274 32.3217 60.4214 32.118 59.9892 31.6699Z" fill="black"/>
<path fill-rule="evenodd" clip-rule="evenodd" d="M58.1399 27.4097C58.1399 28.8065 57.7369 30.0025 56.9308 30.9977C56.1248 31.9871 54.9012 32.4818 53.2599 32.4818C51.6186 32.4818 50.395 31.9871 49.589 30.9977C48.7829 30.0025 48.3799 28.8065 48.3799 27.4097C48.3799 26.0362 48.7829 24.8461 49.589 23.8392C50.395 22.8324 51.6186 22.3289 53.2599 22.3289C54.9012 22.3289 56.1248 22.8324 56.9308 23.8392C57.7369 24.8461 58.1399 26.0362 58.1399 27.4097ZM53.2511 30.3953C53.9812 30.3953 54.542 30.1363 54.9333 29.6184C55.3246 29.1004 55.5203 28.3642 55.5203 27.4097C55.5203 26.4553 55.3246 25.7219 54.9333 25.2098C54.542 24.6918 53.9812 24.4328 53.2511 24.4328C52.521 24.4328 51.9574 24.6918 51.5602 25.2098C51.1689 25.7219 50.9732 26.4553 50.9732 27.4097C50.9732 28.3642 51.1689 29.1004 51.5602 29.6184C51.9574 30.1363 52.521 30.3953 53.2511 30.3953Z" fill="black"/>
<path d="M46.4255 23.1845C45.8005 22.6665 44.9945 22.4075 44.0074 22.4075C43.2189 22.4075 42.5676 22.5996 42.0536 22.9837C41.7674 23.199 41.4637 23.5511 41.1425 24.04V22.6519H38.7332V32.15H41.2213V26.9994C41.2213 26.4116 41.3031 25.9286 41.4666 25.5503C41.782 24.8344 42.3632 24.4765 43.2101 24.4765C43.8993 24.4765 44.3666 24.7209 44.6119 25.2098C44.7462 25.4775 44.8134 25.8616 44.8134 26.3621V32.15H47.3717V25.7423C47.3717 24.5492 47.0563 23.6966 46.4255 23.1845Z" fill="black"/>
<path d="M79.0262 33.992L78.7108 33.9746V35.965C78.9795 35.9824 79.181 35.9912 79.3154 35.9912C79.4497 35.997 79.6278 35.9999 79.8498 35.9999C80.9537 35.9999 81.6896 35.7816 82.0576 35.3451C82.4256 34.9145 82.925 33.7971 83.5558 31.9929L86.8325 22.6345H84.1778L82.2065 29.6533L80.1214 22.6345H77.3441L80.8486 32.5691C80.8719 32.6389 80.8194 32.831 80.6909 33.1452C80.5682 33.4595 80.4339 33.6661 80.2878 33.765C80.136 33.8698 79.9491 33.9367 79.7271 33.9658C79.5052 33.9949 79.2716 34.0037 79.0262 33.992Z" fill="black"/>
<path d="M103.446 21.471V29.9642H101.855V32.153H107.532V29.9642H106.127V21.471H107.532V19.2822H101.855V21.471H103.446Z" fill="black"/>
<path d="M86.6943 13.9219L87.9932 10.0049H88.8867C88.7728 10.3136 88.5201 11.0177 88.1279 12.1162C87.8345 12.9426 87.5883 13.6167 87.3906 14.1377C86.9235 15.3653 86.594 16.1143 86.4023 16.3838C86.2106 16.653 85.881 16.7881 85.4141 16.7881C85.3005 16.7881 85.2122 16.7834 85.1494 16.7744C85.0895 16.7654 85.0146 16.7486 84.9248 16.7246V15.9883C85.0655 16.0272 85.1676 16.0506 85.2305 16.0596C85.2933 16.0685 85.3486 16.0732 85.3965 16.0732C85.5462 16.0732 85.6557 16.048 85.7246 15.9971C85.7964 15.9492 85.8564 15.8892 85.9043 15.8174C85.9193 15.7933 85.9727 15.6705 86.0654 15.4492C86.1582 15.2278 86.2256 15.0629 86.2676 14.9551L84.4893 10.0049H85.4053L86.6943 13.9219Z" fill="black"/>
<path fill-rule="evenodd" clip-rule="evenodd" d="M56.6904 9.8877C57.2354 9.88772 57.6978 10.0974 58.0781 10.5166C58.4585 10.9329 58.6494 11.529 58.6494 12.3047C58.6494 13.3527 58.3751 14.1016 57.8271 14.5508C57.4798 14.8352 57.0753 14.9775 56.6143 14.9775C56.2519 14.9775 55.9477 14.8979 55.7021 14.7393C55.5584 14.6494 55.3984 14.495 55.2217 14.2764V16.7334H54.4131V10.0273H55.1992V10.665C55.3609 10.4464 55.5378 10.277 55.7295 10.1572C56.002 9.97767 56.3222 9.8877 56.6904 9.8877ZM56.5059 10.5977C55.946 10.5978 55.5631 10.8776 55.3564 11.4375C55.2457 11.7369 55.1905 12.1171 55.1904 12.5781C55.1904 12.9495 55.2456 13.2658 55.3564 13.5264C55.5661 14.0233 55.949 14.2724 56.5059 14.2725C56.8831 14.2725 57.1968 14.1151 57.4453 13.8008C57.6969 13.4833 57.8223 13.0097 57.8223 12.3809C57.8223 11.9976 57.767 11.6681 57.6562 11.3926C57.4466 10.8625 57.0629 10.5977 56.5059 10.5977Z" fill="black"/>
<path d="M65.7266 9.87891C66.4513 9.87891 66.9745 10.0913 67.2949 10.5166C67.4955 10.786 67.5928 11.0764 67.5869 11.3877H66.8232C66.8082 11.2052 66.7436 11.0393 66.6299 10.8896C66.4442 10.677 66.1223 10.5703 65.6641 10.5703C65.3586 10.5703 65.1265 10.6293 64.9678 10.7461C64.8123 10.8628 64.7345 11.0166 64.7344 11.208C64.7344 11.4176 64.8373 11.5861 65.0439 11.7119C65.1637 11.7868 65.3407 11.8523 65.5742 11.9092L66.1084 12.0391C66.6891 12.1797 67.0786 12.3165 67.2764 12.4482C67.5908 12.6549 67.748 12.9797 67.748 13.4229C67.748 13.851 67.5851 14.2208 67.2588 14.5322C66.9354 14.8437 66.4412 15 65.7764 15C65.0608 15 64.5534 14.8379 64.2539 14.5146C63.9575 14.1883 63.7984 13.7856 63.7773 13.3066H64.5547C64.5787 13.5759 64.6462 13.7821 64.7568 13.9258C64.9604 14.1863 65.3135 14.3173 65.8164 14.3174C66.1158 14.3174 66.3799 14.2527 66.6074 14.124C66.835 13.9923 66.9492 13.79 66.9492 13.5176C66.9492 13.311 66.8574 13.1537 66.6748 13.0459C66.558 12.98 66.3276 12.9032 65.9834 12.8164L65.3408 12.6553C64.9307 12.5535 64.6283 12.4392 64.4336 12.3135C64.0863 12.0949 63.9122 11.7925 63.9121 11.4062C63.9121 10.9511 64.0751 10.5823 64.4014 10.3008C64.7307 10.0193 65.1727 9.87898 65.7266 9.87891Z" fill="black"/>
<path d="M119.695 9.87891C120.42 9.87891 120.943 10.0913 121.264 10.5166C121.464 10.786 121.562 11.0765 121.556 11.3877H120.792C120.777 11.2052 120.712 11.0392 120.599 10.8896C120.413 10.6771 120.091 10.5704 119.633 10.5703C119.327 10.5703 119.095 10.6293 118.937 10.7461C118.781 10.8628 118.703 11.0165 118.703 11.208C118.703 11.4176 118.806 11.5861 119.013 11.7119C119.132 11.7867 119.31 11.8523 119.543 11.9092L120.077 12.0391C120.658 12.1798 121.047 12.3165 121.245 12.4482C121.56 12.6549 121.717 12.9797 121.717 13.4229C121.717 13.851 121.554 14.2208 121.228 14.5322C120.904 14.8436 120.41 15 119.745 15C119.029 15 118.521 14.8381 118.222 14.5146C117.925 14.1883 117.767 13.7855 117.746 13.3066H118.523C118.547 13.5759 118.615 13.7821 118.726 13.9258C118.929 14.1863 119.282 14.3174 119.785 14.3174C120.085 14.3174 120.349 14.2528 120.576 14.124C120.804 13.9923 120.917 13.7899 120.917 13.5176C120.917 13.3111 120.826 13.1537 120.644 13.0459C120.527 12.98 120.296 12.9033 119.951 12.8164L119.31 12.6553C118.899 12.5535 118.596 12.4393 118.401 12.3135C118.054 12.0949 117.881 11.7924 117.881 11.4062C117.881 10.951 118.044 10.5823 118.37 10.3008C118.7 10.0193 119.141 9.87893 119.695 9.87891Z" fill="black"/>
<path fill-rule="evenodd" clip-rule="evenodd" d="M44.2754 9.86523C44.8953 9.86523 45.4194 10.0721 45.8477 10.4854C46.2758 10.8986 46.4902 11.5062 46.4902 12.3086C46.4902 13.0842 46.3012 13.7253 45.9238 14.2314C45.5465 14.7375 44.9614 14.9912 44.168 14.9912C43.5061 14.9912 42.9801 14.7675 42.5908 14.3213C42.2016 13.8721 42.0068 13.2702 42.0068 12.5156C42.0068 11.7071 42.2119 11.0631 42.6221 10.584C43.0323 10.1049 43.5837 9.86527 44.2754 9.86523ZM44.2529 10.5703C43.7589 10.5704 43.3994 10.7594 43.1748 11.1367C42.9503 11.514 42.8379 11.9691 42.8379 12.502C42.8379 13.014 42.9503 13.4409 43.1748 13.7822C43.3994 14.1236 43.756 14.2949 44.2441 14.2949C44.78 14.2949 45.147 14.0925 45.3447 13.6885C45.5454 13.2812 45.6455 12.8282 45.6455 12.3311C45.6455 11.882 45.5734 11.5168 45.4297 11.2354C45.2021 10.7922 44.8099 10.5703 44.2529 10.5703Z" fill="black"/>
<path fill-rule="evenodd" clip-rule="evenodd" d="M61.2158 9.86523C61.8356 9.86532 62.3599 10.0722 62.7881 10.4854C63.2161 10.8986 63.4296 11.5064 63.4297 12.3086C63.4297 13.0841 63.2415 13.7254 62.8643 14.2314C62.4869 14.7376 61.901 14.9912 61.1074 14.9912C60.4457 14.9912 59.9205 14.7674 59.5312 14.3213C59.1419 13.8721 58.9473 13.2703 58.9473 12.5156C58.9473 11.707 59.1522 11.0632 59.5625 10.584C59.9728 10.1049 60.5241 9.86523 61.2158 9.86523ZM61.1934 10.5703C60.6992 10.5703 60.3398 10.7594 60.1152 11.1367C59.8906 11.514 59.7783 11.9689 59.7783 12.502C59.7783 13.0141 59.8906 13.4408 60.1152 13.7822C60.3398 14.1235 60.6957 14.2948 61.1836 14.2949C61.7194 14.2949 62.0865 14.0924 62.2842 13.6885C62.4848 13.2812 62.5859 12.8282 62.5859 12.3311C62.5859 11.8821 62.5138 11.5168 62.3701 11.2354C62.1426 10.7922 61.7502 10.5704 61.1934 10.5703Z" fill="black"/>
<path fill-rule="evenodd" clip-rule="evenodd" d="M70.3555 9.89648C70.6969 9.89649 71.0282 9.97794 71.3486 10.1396C71.6686 10.2983 71.9125 10.5046 72.0801 10.7588C72.2418 11.0014 72.3504 11.285 72.4043 11.6084C72.4522 11.83 72.4756 12.1832 72.4756 12.668H68.9492C68.9642 13.1561 69.0793 13.5492 69.2949 13.8457C69.5105 14.1391 69.8448 14.2851 70.2969 14.2852C70.719 14.2852 71.0561 14.1465 71.3076 13.8682C71.4513 13.7065 71.5534 13.5191 71.6133 13.3066H72.4082C72.3872 13.4832 72.317 13.681 72.1973 13.8994C72.0805 14.115 71.9485 14.292 71.8018 14.4297C71.5562 14.6691 71.2519 14.8302 70.8896 14.9141C70.695 14.9619 70.475 14.9863 70.2295 14.9863C69.6307 14.9863 69.1232 14.7691 68.707 14.335C68.2908 13.8977 68.082 13.2866 68.082 12.502C68.0821 11.7295 68.2919 11.1022 68.7109 10.6201C69.1302 10.138 69.6786 9.89648 70.3555 9.89648ZM70.3057 10.6016C69.9346 10.6016 69.6235 10.7367 69.3721 11.0059C69.1205 11.2724 68.9867 11.6131 68.9717 12.0264H71.6445C71.6116 11.676 71.5358 11.3952 71.416 11.1855C71.1944 10.7963 70.8237 10.6016 70.3057 10.6016Z" fill="black"/>
<path fill-rule="evenodd" clip-rule="evenodd" d="M77.0723 8.19434V14.8154H76.3447V14.1465C76.1561 14.4428 75.9333 14.6573 75.6758 14.7891C75.4183 14.9208 75.1233 14.9863 74.791 14.9863C74.255 14.9863 73.7907 14.7616 73.3984 14.3125C73.0061 13.8603 72.8096 13.2594 72.8096 12.5107C72.8096 11.8101 72.9874 11.2034 73.3438 10.6914C73.7031 10.1763 74.216 9.91895 74.8809 9.91895C75.2489 9.919 75.5572 9.99679 75.8057 10.1523C75.9494 10.2422 76.1132 10.3994 76.2959 10.624V8.19434H77.0723ZM75.0332 10.624C74.6259 10.624 74.2946 10.7803 74.04 11.0918C73.7887 11.4032 73.6631 11.8613 73.6631 12.4658C73.6631 12.9809 73.7726 13.4124 73.9912 13.7598C74.2098 14.1071 74.5599 14.2812 75.042 14.2812C75.4162 14.2812 75.7234 14.121 75.9629 13.8008C76.2055 13.4773 76.3271 13.0141 76.3271 12.4121C76.3271 11.8042 76.2026 11.3549 75.9541 11.0645C75.7055 10.771 75.3985 10.624 75.0332 10.624Z" fill="black"/>
<path fill-rule="evenodd" clip-rule="evenodd" d="M110.331 9.8877C110.897 9.88772 111.357 9.99536 111.71 10.2109C112.06 10.4266 112.235 10.7626 112.235 11.2178V13.9893C112.235 14.073 112.252 14.1405 112.285 14.1914C112.321 14.2421 112.394 14.2676 112.505 14.2676C112.541 14.2676 112.581 14.2657 112.626 14.2627C112.671 14.2567 112.72 14.2492 112.771 14.2402V14.8379C112.645 14.8738 112.548 14.8963 112.482 14.9053C112.417 14.9142 112.327 14.9189 112.213 14.9189C111.934 14.9189 111.732 14.8197 111.606 14.6221C111.541 14.5173 111.495 14.3692 111.468 14.1777C111.303 14.3933 111.066 14.5806 110.758 14.7393C110.449 14.8979 110.109 14.9775 109.738 14.9775C109.292 14.9775 108.926 14.8428 108.642 14.5732C108.36 14.3008 108.22 13.9608 108.22 13.5537C108.22 13.1075 108.359 12.7612 108.638 12.5156C108.916 12.2702 109.281 12.1184 109.733 12.0615L111.022 11.9004C111.208 11.8765 111.333 11.7986 111.396 11.667C111.431 11.5951 111.449 11.4912 111.449 11.3564C111.449 11.0811 111.351 10.8816 111.153 10.7588C110.959 10.633 110.678 10.5703 110.312 10.5703C109.89 10.5704 109.591 10.6846 109.414 10.9121C109.315 11.0379 109.252 11.2253 109.222 11.4736H108.467C108.482 10.8807 108.674 10.4689 109.042 10.2383C109.413 10.0048 109.843 9.8877 110.331 9.8877ZM111.427 12.3672C111.328 12.4301 111.201 12.4825 111.045 12.5244C110.889 12.5663 110.737 12.5963 110.587 12.6143L110.098 12.6777C109.804 12.7167 109.583 12.7775 109.437 12.8613C109.188 13.0021 109.064 13.2269 109.064 13.5352C109.064 13.7688 109.15 13.9531 109.32 14.0879C109.491 14.2226 109.693 14.29 109.927 14.29C110.211 14.29 110.487 14.2244 110.753 14.0928C111.202 13.8742 111.427 13.5157 111.427 13.0186V12.3672Z" fill="black"/>
<path fill-rule="evenodd" clip-rule="evenodd" d="M80.9121 8.19434V10.5889C81.0888 10.3583 81.2994 10.1823 81.5449 10.0625C81.7905 9.93973 82.0573 9.87893 82.3447 9.87891C82.9437 9.87891 83.4294 10.0857 83.8008 10.499C84.1749 10.9093 84.3623 11.5161 84.3623 12.3184C84.3622 13.0788 84.1779 13.7108 83.8096 14.2139C83.4412 14.717 82.9302 14.9688 82.2773 14.9688C81.9122 14.9687 81.604 14.8797 81.3525 14.7031C81.2028 14.5983 81.0418 14.4308 80.8711 14.2002V14.8154H80.126V8.19434H80.9121ZM82.251 10.6016C81.8826 10.6016 81.5588 10.7382 81.2803 11.0107C81.0048 11.2833 80.8672 11.7325 80.8672 12.3584C80.8672 12.8106 80.9243 13.1775 81.0381 13.459C81.2507 13.9889 81.6476 14.2539 82.2285 14.2539C82.6653 14.2538 82.9915 14.0804 83.207 13.7334C83.4256 13.386 83.5351 12.9274 83.5352 12.3584C83.5352 11.8523 83.4257 11.433 83.207 11.1006C82.9915 10.7684 82.673 10.6017 82.251 10.6016Z" fill="black"/>
<path d="M39.9121 9.86523C40.4542 9.86523 40.895 9.9972 41.2334 10.2607C41.5746 10.5243 41.7798 10.9785 41.8486 11.6221H41.0625C41.0146 11.3256 40.9051 11.0794 40.7344 10.8848C40.5637 10.6871 40.2894 10.5889 39.9121 10.5889C39.3972 10.5889 39.0292 10.84 38.8076 11.3428C38.6639 11.6692 38.5918 12.0726 38.5918 12.5518C38.5918 13.0338 38.6939 13.4392 38.8975 13.7686C39.1011 14.098 39.4212 14.2627 39.8584 14.2627C40.1936 14.2627 40.4587 14.1614 40.6533 13.958C40.8509 13.7514 40.9876 13.4696 41.0625 13.1133H41.8486C41.7588 13.751 41.5341 14.2182 41.1748 14.5146C40.8155 14.8081 40.3557 14.955 39.7959 14.9551C39.1671 14.9551 38.6653 14.7256 38.291 14.2676C37.9167 13.8065 37.7286 13.2316 37.7285 12.543C37.7285 11.6984 37.9344 11.0405 38.3447 10.5703C38.755 10.1003 39.2774 9.86526 39.9121 9.86523Z" fill="black"/>
<path d="M97.1123 13.1982C97.1123 13.4438 97.1507 13.6451 97.2285 13.8008C97.3723 14.0881 97.641 14.2314 98.0332 14.2314C98.596 14.2313 98.979 13.9796 99.1826 13.4766C99.2934 13.207 99.3486 12.8372 99.3486 12.3672V10.0049H100.157V14.8154H99.3936L99.4033 14.1055C99.2985 14.2882 99.1674 14.4426 99.0117 14.5684C98.7033 14.8198 98.3288 14.9463 97.8887 14.9463C97.2031 14.9462 96.7358 14.7168 96.4873 14.2588C96.3525 14.0132 96.2852 13.6847 96.2852 13.2744V10.0049H97.1123V13.1982Z" fill="black"/>
<path d="M52.0977 9.89648C52.7445 9.89648 53.1854 10.1305 53.4189 10.5977C53.5446 10.8491 53.6074 11.1874 53.6074 11.6123V14.8154H52.7676V11.4736C52.7676 11.1532 52.6861 10.9333 52.5244 10.8135C52.3657 10.6937 52.171 10.6338 51.9404 10.6338C51.6231 10.6338 51.3487 10.7396 51.1182 10.9521C50.8907 11.1647 50.7774 11.5198 50.7773 12.0166V14.8154H49.9551V11.6758C49.9551 11.3493 49.9158 11.1107 49.8379 10.9609C49.7151 10.7367 49.4864 10.6241 49.1514 10.624C48.8459 10.624 48.567 10.7429 48.3154 10.9795C48.067 11.2161 47.9424 11.6441 47.9424 12.2637V14.8154H47.1338V10.0049H47.9336V10.6875C48.1253 10.4509 48.2993 10.2787 48.4551 10.1709C48.7216 9.98827 49.0239 9.89648 49.3623 9.89648C49.7454 9.89651 50.0536 9.99117 50.2871 10.1797C50.4189 10.2875 50.5387 10.4466 50.6465 10.6562C50.8262 10.3987 51.0377 10.2077 51.2803 10.085C51.5228 9.95925 51.7953 9.89652 52.0977 9.89648Z" fill="black"/>
<path d="M92.3125 10.6562C92.5041 10.4138 92.6764 10.2424 92.8291 10.1436C93.0896 9.97285 93.4154 9.8877 93.8047 9.8877C94.5022 9.88779 94.9751 10.1321 95.2236 10.6201C95.3584 10.8866 95.4258 11.2564 95.4258 11.7295V14.8154H94.5947V11.7832C94.5947 11.4299 94.5498 11.1706 94.46 11.0059C94.3132 10.7426 94.0378 10.6114 93.6338 10.6113C93.2984 10.6113 92.9942 10.7264 92.7217 10.957C92.4493 11.1876 92.3125 11.6231 92.3125 12.2637V14.8154H91.5039V8.19434H92.3125V10.6562Z" fill="black"/>
<path d="M106.066 9.89648C106.713 9.89651 107.153 10.1305 107.387 10.5977C107.512 10.8491 107.576 11.1872 107.576 11.6123V14.8154H106.735V11.4736C106.735 11.1534 106.655 10.9333 106.493 10.8135C106.334 10.6937 106.14 10.6338 105.909 10.6338C105.592 10.6338 105.318 10.7395 105.087 10.9521C104.859 11.1647 104.746 11.5196 104.746 12.0166V14.8154H103.924V11.6758C103.924 11.3493 103.885 11.1107 103.807 10.9609C103.684 10.7365 103.454 10.624 103.119 10.624C102.814 10.6241 102.536 10.743 102.284 10.9795C102.036 11.216 101.911 11.6439 101.911 12.2637V14.8154H101.103V10.0049H101.902V10.6875C102.094 10.4511 102.267 10.2787 102.423 10.1709C102.689 9.98822 102.993 9.89648 103.331 9.89648C103.714 9.89656 104.022 9.99112 104.256 10.1797C104.388 10.2875 104.507 10.4466 104.615 10.6562C104.795 10.3987 105.006 10.2077 105.249 10.085C105.492 9.95931 105.764 9.89648 106.066 9.89648Z" fill="black"/>
<path d="M115.584 9.89648C116.267 9.89656 116.727 10.1352 116.967 10.6113C117.099 10.8719 117.165 11.2444 117.165 11.7295V14.8154H116.343V11.7832C116.343 11.4898 116.3 11.2529 116.213 11.0732C116.069 10.7739 115.808 10.624 115.431 10.624C115.239 10.624 115.082 10.6437 114.959 10.6826C114.737 10.7485 114.543 10.8805 114.375 11.0781C114.24 11.2368 114.152 11.4016 114.11 11.5723C114.071 11.74 114.052 11.9815 114.052 12.2959V14.8154H113.243V10.0049H114.012V10.6875C114.239 10.4061 114.48 10.2039 114.734 10.0811C114.989 9.95827 115.273 9.89648 115.584 9.89648Z" fill="black"/>
</svg>
