<svg width="131" height="42" viewBox="0 0 131 42" fill="none" xmlns="http://www.w3.org/2000/svg">
<path d="M0.5 0.5H116C124.008 0.5 130.5 6.99187 130.5 15V41.5H15C6.99187 41.5 0.5 35.0081 0.5 27V0.5Z" fill="white" stroke="black"/>
<path d="M29.8497 24.1575C26.3836 26.9643 21.4266 26.9643 17.9605 24.1575L19.3007 22.5026C21.9854 24.6766 25.8248 24.6766 28.5095 22.5026L29.8497 24.1575Z" fill="black"/>
<path d="M19.404 17.6365V20.5134H21.5336V17.6365H19.404Z" fill="black"/>
<path d="M26.012 17.6365V20.5134H28.1415V17.6365H26.012Z" fill="black"/>
<path fill-rule="evenodd" clip-rule="evenodd" d="M23.5 33C29.8513 33 35 27.8513 35 21.5C35 15.1487 29.8513 10 23.5 10C17.1487 10 12 15.1487 12 21.5C12 27.8513 17.1487 33 23.5 33ZM23.5 30.8705C28.6752 30.8705 32.8705 26.6752 32.8705 21.5C32.8705 16.3248 28.6752 12.1295 23.5 12.1295C18.3248 12.1295 14.1295 16.3248 14.1295 21.5C14.1295 26.6752 18.3248 30.8705 23.5 30.8705Z" fill="black"/>
<path d="M56.5907 9.24869C56.6038 8.88449 56.6678 8.61784 56.7826 8.44875C56.9894 8.14958 57.3881 8 57.9788 8C58.0346 8 58.0921 8.00163 58.1511 8.00488C58.2102 8.00813 58.2775 8.01301 58.353 8.01951V8.81945C58.2611 8.81295 58.1938 8.8097 58.1511 8.8097C58.1117 8.80645 58.074 8.80482 58.0379 8.80482C57.7688 8.80482 57.608 8.87473 57.5555 9.01456C57.503 9.15114 57.4767 9.50233 57.4767 10.0681H58.353V10.7608H57.4669V15.2678H56.5907V10.7608H55.8572V10.0681H56.5907V9.24869Z" fill="black"/>
<path d="M90.8031 11.0778C90.5044 11.3282 90.3551 11.8013 90.3551 12.4972V15.2677H89.469V8.07802H90.3551V10.751C90.5651 10.4876 90.7538 10.3022 90.9212 10.1949C91.2067 10.0096 91.5628 9.91691 91.9894 9.91691C92.7541 9.91691 93.2726 10.1819 93.545 10.712C93.6926 11.0014 93.7665 11.403 93.7665 11.9168V15.2677H92.8558V11.9753C92.8558 11.5916 92.8066 11.3103 92.7081 11.1315C92.5473 10.8453 92.2454 10.7022 91.8023 10.7022C91.4348 10.7022 91.1017 10.8274 90.8031 11.0778Z" fill="black"/>
<path fill-rule="evenodd" clip-rule="evenodd" d="M111.916 12.1022C112.12 12.0761 112.256 11.9916 112.325 11.8485C112.364 11.7705 112.384 11.6583 112.384 11.512C112.384 11.2128 112.276 10.9965 112.059 10.8632C111.846 10.7266 111.539 10.6584 111.138 10.6584C110.676 10.6584 110.347 10.7819 110.154 11.0291C110.046 11.1656 109.975 11.3689 109.942 11.6388H109.115C109.132 10.9949 109.342 10.5478 109.745 10.2974C110.152 10.0438 110.623 9.91694 111.158 9.91694C111.778 9.91694 112.282 10.034 112.669 10.2681C113.053 10.5023 113.245 10.8665 113.245 11.3607V14.3703C113.245 14.4613 113.263 14.5345 113.299 14.5898C113.339 14.6451 113.419 14.6727 113.541 14.6727C113.58 14.6727 113.624 14.6711 113.674 14.6678C113.723 14.6613 113.775 14.6532 113.831 14.6434V15.2922C113.693 15.3312 113.588 15.3556 113.516 15.3653C113.444 15.3751 113.345 15.38 113.221 15.38C112.915 15.38 112.694 15.2727 112.556 15.058C112.484 14.9442 112.433 14.7833 112.403 14.5751C112.223 14.8093 111.964 15.0125 111.626 15.1849C111.288 15.3572 110.915 15.4434 110.508 15.4434C110.019 15.4434 109.619 15.297 109.307 15.0044C108.999 14.7085 108.844 14.3394 108.844 13.8971C108.844 13.4126 108.997 13.037 109.302 12.7704C109.607 12.5037 110.008 12.3395 110.503 12.2778L111.916 12.1022ZM109.77 13.8776C109.77 14.1313 109.863 14.3313 110.05 14.4776C110.238 14.6239 110.459 14.6971 110.715 14.6971C111.027 14.6971 111.329 14.6255 111.621 14.4825C112.113 14.2451 112.359 13.8565 112.359 13.3167V12.6094C112.251 12.6777 112.111 12.7346 111.941 12.7802C111.77 12.8257 111.603 12.8582 111.439 12.8777L110.902 12.946C110.58 12.9883 110.339 13.0549 110.178 13.146C109.906 13.2988 109.77 13.5427 109.77 13.8776Z" fill="black"/>
<path d="M115.653 11.746C115.61 11.9281 115.589 12.1899 115.589 12.5313V15.2677H114.703V10.0437H115.544V10.7851C115.794 10.4794 116.058 10.2599 116.337 10.1266C116.616 9.9933 116.926 9.92664 117.267 9.92664C118.015 9.92664 118.521 10.1852 118.783 10.7022C118.928 10.9851 119 11.3899 119 11.9167V15.2677H118.099V11.9753C118.099 11.6566 118.052 11.3997 117.956 11.2046C117.799 10.8794 117.513 10.7168 117.1 10.7168C116.89 10.7168 116.718 10.738 116.583 10.7802C116.34 10.8518 116.127 10.9949 115.943 11.2095C115.795 11.3818 115.699 11.5607 115.653 11.746Z" fill="black"/>
<path fill-rule="evenodd" clip-rule="evenodd" d="M93.0574 32.1609L97.6787 19.3289H100.736L105.322 32.1609H102.388L101.553 29.5231H96.7825L95.8864 32.1609H93.0574ZM99.181 22.2627L97.5118 27.3119H100.798L99.181 22.2627Z" fill="black"/>
<path fill-rule="evenodd" clip-rule="evenodd" d="M80.2852 23.8123C79.5765 22.9127 78.5925 22.4629 77.3332 22.4629C76.6362 22.4629 76.0622 22.608 75.6112 22.8982C75.2304 23.1303 74.882 23.4669 74.5657 23.908V19.3463H72.0705V32.1609H74.5217V30.9682C74.8556 31.4325 75.166 31.7575 75.453 31.9432C75.9333 32.2566 76.5688 32.4133 77.3595 32.4133C78.6188 32.4133 79.5999 31.9287 80.3027 30.9595C81.0056 29.9903 81.357 28.7686 81.357 27.2945C81.357 25.8726 80.9997 24.7118 80.2852 23.8123ZM78.1942 29.5927C77.8369 30.1093 77.3361 30.3675 76.6918 30.3675C75.9479 30.3675 75.3945 30.1006 75.0313 29.5666C74.6682 29.0327 74.4866 28.3595 74.4866 27.5469C74.4866 26.8563 74.5744 26.2933 74.7502 25.8581C75.0899 25.0397 75.7137 24.6306 76.6215 24.6306C77.5177 24.6306 78.1327 25.0485 78.4665 25.8842C78.6422 26.3253 78.7301 26.8824 78.7301 27.5556C78.7301 28.3972 78.5515 29.0762 78.1942 29.5927Z" fill="black"/>
<path d="M66.2561 30.2718C66.1565 30.1731 66.1067 29.9293 66.1067 29.5405V24.5261H67.6618V22.7589H66.1067V20.1124H63.6291V22.7589H62.2937V24.5261H63.6291V30.3675C63.6291 30.9595 63.7697 31.3977 64.0509 31.6821C64.4843 32.1289 65.2926 32.3321 66.4757 32.2914L67.6618 32.2479V30.3936L67.4933 30.4053L67.407 30.4111H67.1698C66.6602 30.4111 66.3556 30.3646 66.2561 30.2718Z" fill="black"/>
<path fill-rule="evenodd" clip-rule="evenodd" d="M60.9839 31.0117C61.7922 30.0193 62.1964 28.8267 62.1964 27.4338C62.1964 26.0641 61.7922 24.8772 60.9839 23.8732C60.1756 22.8692 58.9486 22.3671 57.3027 22.3671C55.6568 22.3671 54.4298 22.8692 53.6215 23.8732C52.8132 24.8772 52.4091 26.0641 52.4091 27.4338C52.4091 28.8267 52.8132 30.0193 53.6215 31.0117C54.4298 31.9984 55.6568 32.4917 57.3027 32.4917C58.9486 32.4917 60.1756 31.9984 60.9839 31.0117ZM58.9808 29.6363C58.5884 30.1528 58.0261 30.4111 57.2939 30.4111C56.5618 30.4111 55.9966 30.1528 55.5983 29.6363C55.2058 29.1197 55.0096 28.3856 55.0096 27.4338C55.0096 26.482 55.2058 25.7507 55.5983 25.24C55.9966 24.7234 56.5618 24.4652 57.2939 24.4652C58.0261 24.4652 58.5884 24.7234 58.9808 25.24C59.3732 25.7507 59.5694 26.482 59.5694 27.4338C59.5694 28.3856 59.3732 29.1197 58.9808 29.6363Z" fill="black"/>
<path d="M48.0243 22.4455C49.0141 22.4455 49.8224 22.7038 50.4491 23.2203C51.0817 23.731 51.398 24.5813 51.398 25.771V32.1609H48.8326V26.3891C48.8326 25.89 48.7652 25.5069 48.6305 25.24C48.3845 24.7525 47.9159 24.5087 47.2248 24.5087C46.3755 24.5087 45.7927 24.8656 45.4764 25.5795C45.3124 25.9567 45.2304 26.4384 45.2304 27.0246V32.1609H42.7353V22.6893H45.1513V24.0734C45.4735 23.5859 45.7781 23.2348 46.0651 23.0201C46.5805 22.637 47.2336 22.4455 48.0243 22.4455Z" fill="black"/>
<path d="M82.825 33.9803L83.1412 33.9977C83.3872 34.0093 83.6215 34.0006 83.8441 33.9716C84.0667 33.9426 84.2541 33.8759 84.4064 33.7714C84.5528 33.6727 84.6875 33.4667 84.8105 33.1533C84.9394 32.8399 84.9921 32.6484 84.9687 32.5787L81.4544 22.6718H84.2395L86.3305 29.6711L88.3073 22.6718H90.9693L87.6835 32.0042C87.0509 33.8033 86.5501 34.9176 86.1811 35.3471C85.8121 35.7824 85.0741 36 83.9671 36C83.7445 36 83.5659 35.9971 83.4312 35.9913C83.2965 35.9913 83.0944 35.9826 82.825 35.9652V33.9803Z" fill="black"/>
<path d="M101.987 11.1022C101.715 11.3591 101.579 11.8241 101.579 12.4972V15.2677H100.693V10.0437H101.569V10.7851C101.779 10.5282 101.969 10.3412 102.14 10.2242C102.432 10.0258 102.763 9.92664 103.134 9.92664C103.554 9.92664 103.892 10.0291 104.148 10.2339C104.293 10.351 104.424 10.5233 104.542 10.751C104.739 10.4713 104.97 10.2648 105.236 10.1315C105.502 9.99492 105.801 9.92664 106.132 9.92664C106.841 9.92664 107.323 10.1803 107.579 10.6876C107.717 10.9607 107.786 11.3282 107.786 11.7899V15.2677H106.866V11.6387C106.866 11.2908 106.777 11.0518 106.6 10.9217C106.426 10.7916 106.212 10.7266 105.96 10.7266C105.612 10.7266 105.312 10.842 105.059 11.0729C104.809 11.3038 104.685 11.6891 104.685 12.2289V15.2677H103.784V11.8582C103.784 11.5038 103.741 11.2452 103.656 11.0827C103.521 10.8388 103.27 10.7168 102.903 10.7168C102.568 10.7168 102.263 10.8453 101.987 11.1022Z" fill="black"/>
<path d="M95.2826 14.6628C95.1349 14.3962 95.0611 14.0401 95.0611 13.5946V10.0437H95.9669V13.5117C95.9669 13.7783 96.0095 13.9962 96.0948 14.1653C96.2524 14.4775 96.5461 14.6336 96.976 14.6336C97.593 14.6336 98.013 14.3604 98.2362 13.8141C98.3576 13.5215 98.4183 13.1199 98.4183 12.6093V10.0437H99.3044V15.2677H98.4676L98.4774 14.497C98.3625 14.6954 98.2198 14.8628 98.0491 14.9994C97.7111 15.2726 97.3009 15.4091 96.8185 15.4091C96.0669 15.4091 95.555 15.1604 95.2826 14.6628Z" fill="black"/>
<path d="M85.0631 12.3362C85.493 11.1428 85.7703 10.3786 85.895 10.0437H84.9154L83.4928 14.297L82.08 10.0437H81.0758L83.0251 15.4189C82.9792 15.5359 82.9054 15.7148 82.8036 15.9554C82.7019 16.1961 82.6428 16.3294 82.6264 16.3554C82.5739 16.4334 82.5083 16.4985 82.4295 16.5505C82.354 16.6058 82.2342 16.6334 82.0702 16.6334C82.0176 16.6334 81.9569 16.6286 81.888 16.6188C81.8191 16.609 81.7075 16.583 81.5533 16.5408V17.3407C81.6517 17.3667 81.7338 17.3846 81.7994 17.3943C81.8683 17.4041 81.9651 17.409 82.0898 17.409C82.6018 17.409 82.9628 17.2627 83.1728 16.97C83.3829 16.6773 83.7438 15.8644 84.2558 14.5311C84.4724 13.9653 84.7415 13.2337 85.0631 12.3362Z" fill="black"/>
<path fill-rule="evenodd" clip-rule="evenodd" d="M77.4972 10.1071C77.2281 10.2372 76.9968 10.4274 76.8032 10.6778V8.07802H75.9417V15.2677H76.7588V14.5995C76.9459 14.8499 77.1215 15.032 77.2856 15.1458C77.5612 15.3377 77.8993 15.4336 78.2996 15.4336C79.0151 15.4336 79.5746 15.1604 79.9783 14.6141C80.3819 14.0678 80.5837 13.3817 80.5837 12.5557C80.5837 11.6843 80.3786 11.0258 79.9684 10.5803C79.5615 10.1315 79.0298 9.90715 78.3735 9.90715C78.0584 9.90715 77.7663 9.97381 77.4972 10.1071ZM79.3186 14.0922C79.0823 14.4694 78.7246 14.658 78.2455 14.658C77.6088 14.658 77.174 14.3702 76.941 13.7947C76.8163 13.489 76.7539 13.0907 76.7539 12.5996C76.7539 11.92 76.9049 11.4322 77.2068 11.1363C77.512 10.8404 77.8664 10.6925 78.2701 10.6925C78.7328 10.6925 79.0823 10.8729 79.3186 11.2339C79.5582 11.5948 79.678 12.0501 79.678 12.5996C79.678 13.2175 79.5582 13.715 79.3186 14.0922Z" fill="black"/>
<path fill-rule="evenodd" clip-rule="evenodd" d="M70.502 10.2047C70.2296 10.0356 69.8916 9.95105 69.4879 9.95105C68.7594 9.95105 68.1982 10.2307 67.8044 10.79C67.4139 11.3461 67.2186 12.0046 67.2186 12.7655C67.2186 13.5784 67.4336 14.2304 67.8635 14.7214C68.2934 15.2092 68.802 15.4531 69.3895 15.4531C69.7538 15.4531 70.077 15.3816 70.3592 15.2385C70.6415 15.0954 70.886 14.8629 71.0927 14.541V15.2677H71.8902V8.07802H71.0386V10.7168C70.8384 10.473 70.6595 10.3022 70.502 10.2047ZM68.5132 14.1215C68.2737 13.7443 68.1539 13.276 68.1539 12.7167C68.1539 12.0598 68.2917 11.5623 68.5674 11.2241C68.8463 10.8859 69.209 10.7168 69.6553 10.7168C70.0557 10.7168 70.3921 10.8762 70.6644 11.1949C70.9368 11.5103 71.073 11.9981 71.073 12.6582C71.073 13.3118 70.9401 13.8142 70.6743 14.1654C70.4117 14.5133 70.0754 14.6873 69.6651 14.6873C69.1368 14.6873 68.7528 14.4987 68.5132 14.1215Z" fill="black"/>
<path fill-rule="evenodd" clip-rule="evenodd" d="M65.2645 10.19C64.9133 10.0144 64.5507 9.92664 64.1766 9.92664C63.4349 9.92664 62.8343 10.1884 62.3749 10.7119C61.9154 11.2355 61.6857 11.9167 61.6857 12.7557C61.6857 13.6077 61.9138 14.271 62.3699 14.7458C62.8261 15.2173 63.3824 15.4531 64.0387 15.4531C64.3078 15.4531 64.549 15.4271 64.7623 15.375C65.1594 15.284 65.4925 15.1084 65.7616 14.8482C65.9225 14.6986 66.0668 14.5068 66.1948 14.2727C66.3261 14.0353 66.4032 13.8207 66.4262 13.6288H65.5549C65.4893 13.8597 65.3777 14.0629 65.2202 14.2385C64.9445 14.5409 64.5753 14.6921 64.1126 14.6921C63.617 14.6921 63.2511 14.5328 63.0148 14.2141C62.7785 13.8922 62.6522 13.4662 62.6358 12.9362H66.5C66.5 12.4094 66.4738 12.0257 66.4213 11.785C66.3622 11.4338 66.2441 11.1265 66.0668 10.8632C65.8831 10.5868 65.6156 10.3624 65.2645 10.19ZM65.3383 11.3265C65.4696 11.5542 65.5533 11.8582 65.5894 12.2387H62.6604C62.6768 11.7899 62.8228 11.4208 63.0985 11.1314C63.3742 10.8388 63.7155 10.6924 64.1224 10.6924C64.6901 10.6924 65.0954 10.9038 65.3383 11.3265Z" fill="black"/>
<path d="M60.4353 14.5361C60.3106 14.4744 60.2482 14.3524 60.2482 14.1703V10.7608H61.09V10.0438H60.2482V8.58536H59.3523V10.0438H58.6385V10.7608H59.3523V14.2191C59.3523 14.554 59.4262 14.8272 59.5738 15.0385C59.7215 15.2467 60.0021 15.3507 60.4156 15.3507C60.5436 15.3507 60.6618 15.3442 60.7701 15.3312C60.8816 15.3182 60.9883 15.2971 61.09 15.2678V14.5752C61.0244 14.5817 60.967 14.5865 60.9177 14.5898H60.7799C60.6191 14.5898 60.5042 14.5719 60.4353 14.5361Z" fill="black"/>
<path fill-rule="evenodd" clip-rule="evenodd" d="M53.5831 12.1022C53.7865 12.0761 53.9227 11.9916 53.9916 11.8485C54.031 11.7705 54.0507 11.6583 54.0507 11.512C54.0507 11.2128 53.9424 10.9965 53.7258 10.8632C53.5125 10.7266 53.2057 10.6584 52.8053 10.6584C52.3426 10.6584 52.0144 10.7819 51.8208 11.0291C51.7125 11.1656 51.6419 11.3689 51.6091 11.6388H50.7821C50.7985 10.9949 51.0085 10.5478 51.4122 10.2974C51.8191 10.0438 52.2901 9.91694 52.825 9.91694C53.4452 9.91694 53.949 10.034 54.3362 10.2681C54.7202 10.5023 54.9122 10.8665 54.9122 11.3607V14.3703C54.9122 14.4613 54.9302 14.5345 54.9663 14.5898C55.0057 14.6451 55.0861 14.6727 55.2075 14.6727C55.2469 14.6727 55.2912 14.6711 55.3404 14.6678C55.3897 14.6613 55.4422 14.6532 55.498 14.6434V15.2922C55.3601 15.3312 55.2551 15.3556 55.1829 15.3653C55.1107 15.3751 55.0123 15.38 54.8876 15.38C54.5824 15.38 54.3608 15.2727 54.223 15.058C54.1508 14.9442 54.0999 14.7833 54.0704 14.5751C53.8899 14.8093 53.6307 15.0125 53.2926 15.1849C52.9546 15.3572 52.5821 15.4434 52.1752 15.4434C51.6862 15.4434 51.2858 15.297 50.9741 15.0044C50.6656 14.7085 50.5113 14.3394 50.5113 13.8971C50.5113 13.4126 50.6639 13.037 50.9691 12.7704C51.2743 12.5037 51.6747 12.3395 52.1703 12.2778L53.5831 12.1022ZM51.4368 13.8776C51.4368 14.1313 51.5303 14.3313 51.7174 14.4776C51.9044 14.6239 52.126 14.6971 52.3819 14.6971C52.6937 14.6971 52.9956 14.6255 53.2877 14.4825C53.78 14.2451 54.0261 13.8565 54.0261 13.3167V12.6094C53.9178 12.6777 53.7783 12.7346 53.6077 12.7802C53.437 12.8257 53.2697 12.8582 53.1056 12.8777L52.569 12.946C52.2474 12.9883 52.0062 13.0549 51.8454 13.146C51.573 13.2988 51.4368 13.5427 51.4368 13.8776Z" fill="black"/>
<path d="M48.6702 11.2826C48.4307 11.5655 48.3109 11.8923 48.3109 12.2631V15.2677H47.4248V10.0437H48.2666V10.9461C48.3355 10.7705 48.5045 10.5575 48.7736 10.3071C49.0427 10.0535 49.3529 9.92664 49.704 9.92664C49.7204 9.92664 49.7483 9.92826 49.7877 9.93151C49.8271 9.93477 49.8943 9.94127 49.9895 9.95102V10.8778C49.937 10.868 49.8878 10.8615 49.8418 10.8583C49.7992 10.855 49.7516 10.8534 49.6991 10.8534C49.2528 10.8534 48.9098 10.9965 48.6702 11.2826Z" fill="black"/>
<path d="M44.3924 9.89247C44.9864 9.89247 45.4688 10.0356 45.8397 10.3217C46.2138 10.6079 46.4386 11.1005 46.5141 11.7997H45.6526C45.6001 11.4777 45.4803 11.2111 45.2932 10.9997C45.1062 10.7851 44.8059 10.6778 44.3924 10.6778C43.8279 10.6778 43.4243 10.9509 43.1814 11.4972C43.0239 11.8517 42.9451 12.289 42.9451 12.8093C42.9451 13.3329 43.0567 13.7735 43.2799 14.1312C43.503 14.4889 43.8542 14.6677 44.3333 14.6677C44.7009 14.6677 44.9913 14.5572 45.2046 14.3361C45.4212 14.1117 45.5706 13.806 45.6526 13.419H46.5141C46.4156 14.1117 46.1695 14.619 45.7757 14.9409C45.3819 15.2596 44.8781 15.4189 44.2644 15.4189C43.5752 15.4189 43.0255 15.1701 42.6153 14.6726C42.2051 14.1718 42 13.5475 42 12.7996C42 11.8826 42.2248 11.1688 42.6744 10.6583C43.124 10.1477 43.6967 9.89247 44.3924 9.89247Z" fill="black"/>
<path d="M107.629 29.9811V21.5116H106.034V19.3289H111.727V21.5116H110.318V29.9811H111.727V32.1638H106.034V29.9811H107.629Z" fill="black"/>
</svg>
