<svg width="131" height="42" viewBox="0 0 131 42" fill="none" xmlns="http://www.w3.org/2000/svg">
<path d="M0.5 0.5H116C124.008 0.5 130.5 6.99187 130.5 15V41.5H15C6.99187 41.5 0.5 35.0081 0.5 27V0.5Z" fill="white" stroke="black"/>
<path d="M28.8497 24.1575C25.3836 26.9643 20.4266 26.9643 16.9605 24.1575L18.3007 22.5026C20.9854 24.6766 24.8248 24.6766 27.5095 22.5026L28.8497 24.1575Z" fill="black"/>
<path d="M18.404 17.6365V20.5134H20.5336V17.6365H18.404Z" fill="black"/>
<path d="M25.012 17.6365V20.5134H27.1415V17.6365H25.012Z" fill="black"/>
<path fill-rule="evenodd" clip-rule="evenodd" d="M22.5 33C28.8513 33 34 27.8513 34 21.5C34 15.1487 28.8513 10 22.5 10C16.1487 10 11 15.1487 11 21.5C11 27.8513 16.1487 33 22.5 33ZM22.5 30.8705C27.6752 30.8705 31.8705 26.6752 31.8705 21.5C31.8705 16.3248 27.6752 12.1295 22.5 12.1295C17.3248 12.1295 13.1295 16.3248 13.1295 21.5C13.1295 26.6752 17.3248 30.8705 22.5 30.8705Z" fill="black"/>
<path d="M92.3107 11.0082C92.0132 11.2593 91.8644 11.7337 91.8644 12.4315V15.2098H90.9817V8H91.8644V10.6804C92.0737 10.4163 92.2617 10.2304 92.4284 10.1228C92.7128 9.93696 93.0676 9.84403 93.4926 9.84403C94.2544 9.84403 94.771 10.1098 95.0423 10.6413C95.1894 10.9315 95.263 11.3343 95.263 11.8495V15.2098H94.3557V11.9082C94.3557 11.5234 94.3067 11.2413 94.2086 11.062C94.0484 10.775 93.7476 10.6315 93.3062 10.6315C92.9401 10.6315 92.6082 10.7571 92.3107 11.0082Z" fill="black"/>
<path fill-rule="evenodd" clip-rule="evenodd" d="M113.45 11.781C113.382 11.9245 113.246 12.0093 113.043 12.0354L111.636 12.2115C111.142 12.2734 110.743 12.4381 110.439 12.7055C110.135 12.9729 109.983 13.3495 109.983 13.8354C109.983 14.2789 110.137 14.649 110.444 14.9457C110.755 15.2392 111.154 15.3859 111.641 15.3859C112.046 15.3859 112.417 15.2995 112.754 15.1267C113.091 14.9539 113.349 14.7501 113.529 14.5153C113.558 14.724 113.609 14.8854 113.681 14.9995C113.818 15.2147 114.039 15.3224 114.343 15.3224C114.467 15.3224 114.565 15.3175 114.637 15.3077C114.709 15.2979 114.814 15.2734 114.951 15.2343V14.5838C114.895 14.5935 114.843 14.6017 114.794 14.6082C114.745 14.6115 114.701 14.6131 114.662 14.6131C114.541 14.6131 114.461 14.5854 114.421 14.53C114.385 14.4745 114.367 14.4012 114.367 14.3098V11.2919C114.367 10.7962 114.176 10.431 113.794 10.1962C113.408 9.96146 112.906 9.84407 112.288 9.84407C111.755 9.84407 111.286 9.97124 110.881 10.2256C110.478 10.4767 110.269 10.9251 110.253 11.5707H111.077C111.109 11.3001 111.18 11.0962 111.288 10.9593C111.481 10.7115 111.807 10.5875 112.268 10.5875C112.667 10.5875 112.973 10.656 113.186 10.793C113.401 10.9267 113.509 11.1435 113.509 11.4435C113.509 11.5903 113.49 11.7028 113.45 11.781ZM111.185 14.4175C110.998 14.2707 110.905 14.0702 110.905 13.8158C110.905 13.48 111.041 13.2354 111.312 13.0821C111.472 12.9908 111.713 12.924 112.033 12.8816L112.568 12.8131C112.731 12.7935 112.898 12.7609 113.068 12.7153C113.238 12.6696 113.377 12.6126 113.485 12.5441V13.2533C113.485 13.7946 113.239 14.1843 112.749 14.4223C112.458 14.5658 112.157 14.6376 111.847 14.6376C111.592 14.6376 111.371 14.5642 111.185 14.4175Z" fill="black"/>
<path d="M116.557 10.7147C116.806 10.4081 117.069 10.188 117.347 10.0543C117.625 9.92063 117.934 9.85379 118.274 9.85379C119.019 9.85379 119.523 10.113 119.784 10.6315C119.928 10.9152 120 11.3212 120 11.8494V15.2098H119.103V11.9081C119.103 11.5886 119.055 11.331 118.96 11.1353C118.803 10.8092 118.519 10.6462 118.107 10.6462C117.898 10.6462 117.726 10.6674 117.592 10.7098C117.35 10.7815 117.138 10.925 116.955 11.1402C116.807 11.313 116.711 11.4924 116.665 11.6783C116.623 11.8609 116.601 12.1234 116.601 12.4658V15.2098H115.719V9.97118H116.557V10.7147Z" fill="black"/>
<path fill-rule="evenodd" clip-rule="evenodd" d="M104.834 32.1501L100.265 19.2823H97.2186L92.6146 32.1501H95.433L96.3258 29.505H101.079L101.91 32.1501H104.834ZM98.7153 22.2243L100.326 27.2876H97.0523L98.7153 22.2243Z" fill="black"/>
<path fill-rule="evenodd" clip-rule="evenodd" d="M79.8903 23.7782C79.1842 22.8761 78.2039 22.4251 76.9493 22.4251C76.2549 22.4251 75.6831 22.5706 75.2338 22.8616C74.8545 23.0944 74.5073 23.4319 74.1922 23.8742V19.2998H71.7064V32.1501H74.1484V30.9541C74.481 31.4197 74.7903 31.7457 75.0762 31.9319C75.5547 32.2462 76.1878 32.4033 76.9756 32.4033C78.2302 32.4033 79.2075 31.9173 79.9078 30.9454C80.608 29.9735 80.9581 28.7484 80.9581 27.2702C80.9581 25.8443 80.6022 24.6803 79.8903 23.7782ZM77.8071 29.5748C77.4512 30.0928 76.9522 30.3518 76.3104 30.3518C75.5693 30.3518 75.0179 30.0841 74.6561 29.5486C74.2943 29.0132 74.1134 28.3381 74.1134 27.5233C74.1134 26.8308 74.2009 26.2662 74.376 25.8297C74.7144 25.0091 75.3359 24.5988 76.2403 24.5988C77.1331 24.5988 77.7458 25.0179 78.0784 25.8559C78.2535 26.2982 78.341 26.8569 78.341 27.532C78.341 28.3759 78.163 29.0569 77.8071 29.5748Z" fill="black"/>
<path d="M63.7168 31.67C63.4367 31.3848 63.2967 30.9454 63.2967 30.3518V24.4941H61.9662V22.7219H63.2967V20.068H65.765V22.7219H67.3142V24.4941H65.765V29.5225C65.765 29.9124 65.8146 30.1568 65.9138 30.2558C66.013 30.3489 66.3164 30.3954 66.824 30.3954H67.0604C67.1479 30.3896 67.2325 30.3838 67.3142 30.378V32.2374L66.1326 32.2811C64.9539 32.3218 64.1486 32.1181 63.7168 31.67Z" fill="black"/>
<path fill-rule="evenodd" clip-rule="evenodd" d="M60.6614 30.9978C61.4666 30.0026 61.8693 28.8066 61.8693 27.4098C61.8693 26.0363 61.4666 24.8462 60.6614 23.8393C59.8561 22.8325 58.6336 22.3291 56.9939 22.3291C55.3543 22.3291 54.1318 22.8325 53.3265 23.8393C52.5213 24.8462 52.1186 26.0363 52.1186 27.4098C52.1186 28.8066 52.5213 30.0026 53.3265 30.9978C54.1318 31.9872 55.3543 32.4819 56.9939 32.4819C58.6336 32.4819 59.8561 31.9872 60.6614 30.9978ZM58.6657 29.6185C58.2748 30.1365 57.7146 30.3954 56.9852 30.3954C56.2558 30.3954 55.6927 30.1365 55.2959 29.6185C54.905 29.1005 54.7095 28.3643 54.7095 27.4098C54.7095 26.4554 54.905 25.7221 55.2959 25.2099C55.6927 24.6919 56.2558 24.433 56.9852 24.433C57.7146 24.433 58.2748 24.6919 58.6657 25.2099C59.0567 25.7221 59.2522 26.4554 59.2522 27.4098C59.2522 28.3643 59.0567 29.1005 58.6657 29.6185Z" fill="black"/>
<path d="M50.1661 23.1846C49.5417 22.6666 48.7364 22.4076 47.7503 22.4076C46.9625 22.4076 46.3119 22.5997 45.7984 22.9838C45.5125 23.1991 45.2091 23.5512 44.8881 24.0401V22.6521H42.4811V32.1501H44.9669V26.9995C44.9669 26.4117 45.0486 25.9287 45.212 25.5504C45.5271 24.8345 46.1077 24.4766 46.9538 24.4766C47.6423 24.4766 48.1092 24.721 48.3542 25.2099C48.4884 25.4776 48.5556 25.8617 48.5556 26.3622V32.1501H51.1114V25.7424C51.1114 24.5494 50.7963 23.6967 50.1661 23.1846Z" fill="black"/>
<path d="M82.4205 33.9747L82.7356 33.9921C82.9807 34.0038 83.2141 33.995 83.4359 33.9659C83.6576 33.9368 83.8443 33.8699 83.996 33.7652C84.1419 33.6662 84.2761 33.4596 84.3987 33.1453C84.527 32.8311 84.5795 32.639 84.5562 32.5692L81.0551 22.6346H83.8297L85.9129 29.6534L87.8823 22.6346H90.5344L87.2608 31.993C86.6306 33.7972 86.1317 34.9146 85.7641 35.3453C85.3965 35.7818 84.6612 36 83.5584 36C83.3367 36 83.1587 35.9971 83.0245 35.9913C82.8903 35.9913 82.6889 35.9825 82.4205 35.9651V33.9747Z" fill="black"/>
<path d="M103.404 10.1522C103.234 10.2695 103.045 10.457 102.835 10.7147V9.97118H101.962V15.2098H102.845V12.4315C102.845 11.7565 102.981 11.2902 103.252 11.0326C103.527 10.775 103.831 10.6462 104.164 10.6462C104.531 10.6462 104.781 10.7685 104.915 11.013C105 11.1761 105.042 11.4353 105.042 11.7908V15.2098H105.94V12.1625C105.94 11.6212 106.064 11.2348 106.312 11.0032C106.564 10.7717 106.863 10.656 107.21 10.656C107.462 10.656 107.674 10.7212 107.847 10.8516C108.024 10.9821 108.112 11.2217 108.112 11.5706V15.2098H109.029V11.7223C109.029 11.2592 108.961 10.8907 108.823 10.6168C108.568 10.1081 108.088 9.85379 107.381 9.85379C107.051 9.85379 106.754 9.92226 106.489 10.0592C106.224 10.1929 105.994 10.4 105.797 10.6804C105.68 10.4522 105.549 10.2793 105.405 10.1619C105.15 9.9565 104.813 9.85379 104.395 9.85379C104.025 9.85379 103.695 9.95324 103.404 10.1522Z" fill="black"/>
<path d="M97.3548 13.4489C97.3548 13.7163 97.3973 13.9347 97.4823 14.1043C97.6392 14.4174 97.9318 14.5739 98.3601 14.5739C98.9748 14.5739 99.3933 14.3 99.6156 13.7521C99.7366 13.4587 99.7971 13.0559 99.7971 12.544V9.97114H100.68V15.2097H99.8461L99.8559 14.4369C99.7415 14.6358 99.5993 14.8038 99.4292 14.9407C99.0925 15.2146 98.6838 15.3516 98.2032 15.3516C97.4545 15.3516 96.9445 15.1021 96.6731 14.6032C96.526 14.3358 96.4524 13.9788 96.4524 13.532V9.97114H97.3548V13.4489Z" fill="black"/>
<path d="M85.2288 14.2364L86.6461 9.97114H87.622C87.4978 10.307 87.2215 11.0733 86.7932 12.2701C86.4728 13.1701 86.2047 13.9038 85.989 14.4712C85.4789 15.8081 85.1193 16.6233 84.91 16.9168C84.7008 17.2103 84.3411 17.357 83.8311 17.357C83.7069 17.357 83.6104 17.3521 83.5418 17.3424C83.4764 17.3326 83.3946 17.3146 83.2966 17.2886V16.4864C83.4502 16.5288 83.5614 16.5549 83.63 16.5646C83.6987 16.5744 83.7592 16.5793 83.8115 16.5793C83.975 16.5793 84.0943 16.5516 84.1695 16.4962C84.248 16.444 84.3134 16.3788 84.3657 16.3005C84.382 16.2744 84.4409 16.1407 84.5422 15.8994C84.6436 15.6581 84.7171 15.4788 84.7629 15.3614L82.8209 9.97114H83.8213L85.2288 14.2364Z" fill="black"/>
<path fill-rule="evenodd" clip-rule="evenodd" d="M78.6202 14.5397C78.8066 14.7908 78.9815 14.9734 79.145 15.0875C79.4196 15.2799 79.7564 15.3761 80.1552 15.3761C80.868 15.3761 81.4254 15.1022 81.8276 14.5544C82.2297 14.0065 82.4308 13.3185 82.4308 12.4902C82.4308 11.6163 82.2264 10.956 81.8177 10.5093C81.4123 10.0592 80.8827 9.83425 80.2288 9.83425C79.9149 9.83425 79.6239 9.9011 79.3558 10.0348C79.0877 10.1652 78.8573 10.356 78.6644 10.6071V8H77.8061V15.2098H78.6202V14.5397ZM81.1704 14.031C80.935 14.4093 80.5786 14.5984 80.1013 14.5984C79.467 14.5984 79.0338 14.3098 78.8017 13.7326C78.6774 13.4261 78.6153 13.0267 78.6153 12.5343C78.6153 11.8527 78.7657 11.3636 79.0665 11.0669C79.3706 10.7701 79.7237 10.6218 80.1258 10.6218C80.5868 10.6218 80.935 10.8027 81.1704 11.1647C81.4091 11.5266 81.5284 11.9832 81.5284 12.5343C81.5284 13.1538 81.4091 13.6527 81.1704 14.031Z" fill="black"/>
<path fill-rule="evenodd" clip-rule="evenodd" d="M71.5778 9.87827C71.9799 9.87827 72.3167 9.96305 72.588 10.1326C72.745 10.2304 72.9232 10.4016 73.1226 10.6462V8H73.971V15.2098H73.1765V14.481C72.9706 14.8038 72.727 15.037 72.4458 15.1805C72.1646 15.3239 71.8426 15.3957 71.4797 15.3957C70.8945 15.3957 70.3877 15.1511 69.9594 14.662C69.5311 14.1696 69.3169 13.5158 69.3169 12.7006C69.3169 11.9375 69.5115 11.2772 69.9005 10.7196C70.2929 10.1587 70.8519 9.87827 71.5778 9.87827ZM70.2487 12.6517C70.2487 13.2125 70.3681 13.6821 70.6067 14.0604C70.8454 14.4386 71.2279 14.6277 71.7543 14.6277C72.163 14.6277 72.4981 14.4533 72.7597 14.1044C73.0245 13.7522 73.1569 13.2484 73.1569 12.593C73.1569 11.931 73.0212 11.4419 72.7499 11.1256C72.4785 10.806 72.1434 10.6462 71.7445 10.6462C71.2999 10.6462 70.9386 10.8158 70.6607 11.1549C70.3861 11.494 70.2487 11.993 70.2487 12.6517Z" fill="black"/>
<path fill-rule="evenodd" clip-rule="evenodd" d="M67.4705 10.1179C67.1207 9.94183 66.7594 9.85379 66.3867 9.85379C65.6478 9.85379 65.0495 10.1163 64.5917 10.6413C64.134 11.1663 63.9051 11.8494 63.9051 12.6908C63.9051 13.5451 64.1324 14.2103 64.5868 14.6864C65.0413 15.1592 65.5955 15.3957 66.2493 15.3957C66.5174 15.3957 66.7577 15.3696 66.9703 15.3174C67.3659 15.2261 67.6977 15.05 67.9658 14.7891C68.126 14.6391 68.2699 14.4467 68.3974 14.212C68.5282 13.9739 68.605 13.7587 68.6279 13.5663H67.7598C67.6944 13.7978 67.5833 14.0016 67.4264 14.1777C67.1517 14.481 66.7839 14.6326 66.3229 14.6326C65.8292 14.6326 65.4647 14.4728 65.2293 14.1533C64.9939 13.8304 64.868 13.4033 64.8517 12.8717H68.7014C68.7014 12.3435 68.6753 11.9587 68.623 11.7174C68.5641 11.3652 68.4464 11.0571 68.2699 10.7929C68.0868 10.5157 67.8203 10.2907 67.4705 10.1179ZM67.5441 11.2576C67.6748 11.4859 67.7582 11.7908 67.7942 12.1723H64.8762C64.8925 11.7223 65.038 11.3522 65.3126 11.0619C65.5873 10.7685 65.9273 10.6217 66.3327 10.6217C66.8983 10.6217 67.3021 10.8337 67.5441 11.2576Z" fill="black"/>
<path d="M61.9016 14.98C61.7545 14.768 61.6809 14.4941 61.6809 14.1582V10.6903H60.9698V9.97126H61.6809V8.50876H62.5735V9.97126H63.4121V10.6903H62.5735V14.1093C62.5735 14.2919 62.6356 14.4142 62.7598 14.4762C62.8285 14.512 62.9429 14.53 63.1031 14.53H63.2404C63.2895 14.5267 63.3467 14.5218 63.4121 14.5153V15.2099C63.3107 15.2392 63.2045 15.2604 63.0933 15.2735C62.9854 15.2865 62.8677 15.293 62.7402 15.293C62.3282 15.293 62.0487 15.1887 61.9016 14.98Z" fill="black"/>
<path fill-rule="evenodd" clip-rule="evenodd" d="M59.236 11.781C59.1673 11.9245 59.0316 12.0093 58.8289 12.0354L57.4214 12.2115C56.9277 12.2734 56.5288 12.4381 56.2248 12.7055C55.9207 12.9729 55.7687 13.3495 55.7687 13.8354C55.7687 14.2789 55.9224 14.649 56.2297 14.9457C56.5403 15.2392 56.9392 15.3859 57.4263 15.3859C57.8317 15.3859 58.2028 15.2995 58.5396 15.1267C58.8763 14.9539 59.1346 14.7501 59.3144 14.5153C59.3439 14.724 59.3945 14.8854 59.4665 14.9995C59.6038 15.2147 59.8245 15.3224 60.1285 15.3224C60.2528 15.3224 60.3508 15.3175 60.4228 15.3077C60.4947 15.2979 60.5993 15.2734 60.7366 15.2343V14.5838C60.6811 14.5935 60.6287 14.6017 60.5797 14.6082C60.5307 14.6115 60.4865 14.6131 60.4473 14.6131C60.3263 14.6131 60.2462 14.5854 60.207 14.53C60.171 14.4745 60.153 14.4012 60.153 14.3098V11.2919C60.153 10.7962 59.9618 10.431 59.5793 10.1962C59.1935 9.96146 58.6916 9.84407 58.0737 9.84407C57.5407 9.84407 57.0716 9.97124 56.6662 10.2256C56.264 10.4767 56.0548 10.9251 56.0384 11.5707H56.8623C56.895 11.3001 56.9653 11.0962 57.0732 10.9593C57.2661 10.7115 57.5931 10.5875 58.0541 10.5875C58.4529 10.5875 58.7586 10.656 58.9711 10.793C59.1869 10.9267 59.2948 11.1435 59.2948 11.4435C59.2948 11.5903 59.2752 11.7028 59.236 11.781ZM56.9702 14.4175C56.7839 14.2707 56.6907 14.0702 56.6907 13.8158C56.6907 13.48 56.8264 13.2354 57.0977 13.0821C57.2579 12.9908 57.4982 12.924 57.8186 12.8816L58.3532 12.8131C58.5167 12.7935 58.6834 12.7609 58.8534 12.7153C59.0234 12.6696 59.1624 12.6126 59.2703 12.5441V13.2533C59.2703 13.7946 59.0251 14.1843 58.5347 14.4223C58.2437 14.5658 57.9429 14.6376 57.6323 14.6376C57.3773 14.6376 57.1566 14.5642 56.9702 14.4175Z" fill="black"/>
<path fill-rule="evenodd" clip-rule="evenodd" d="M52.711 9.85379C53.0837 9.85379 53.445 9.94183 53.7948 10.1179C54.1447 10.2907 54.4111 10.5157 54.5942 10.7929C54.7708 11.0571 54.8885 11.3652 54.9473 11.7174C54.9996 11.9587 55.0258 12.3435 55.0258 12.8717H51.176C51.1924 13.4033 51.3182 13.8304 51.5536 14.1533C51.789 14.4728 52.1536 14.6326 52.6473 14.6326C53.1083 14.6326 53.4761 14.481 53.7507 14.1777C53.9076 14.0016 54.0188 13.7978 54.0842 13.5663H54.9522C54.9293 13.7587 54.8525 13.9739 54.7217 14.212C54.5942 14.4467 54.4504 14.6391 54.2902 14.7891C54.0221 15.05 53.6902 15.2261 53.2946 15.3174C53.0821 15.3696 52.8418 15.3957 52.5737 15.3957C51.9198 15.3957 51.3656 15.1592 50.9112 14.6864C50.4567 14.2103 50.2295 13.5451 50.2295 12.6908C50.2295 11.8494 50.4584 11.1663 50.9161 10.6413C51.3738 10.1163 51.9721 9.85379 52.711 9.85379ZM54.1185 12.1723C54.0826 11.7908 53.9992 11.4859 53.8684 11.2576C53.6265 10.8337 53.2227 10.6217 52.6571 10.6217C52.2517 10.6217 51.9116 10.7685 51.637 11.0619C51.3624 11.3522 51.2169 11.7223 51.2005 12.1723H54.1185Z" fill="black"/>
<path d="M48.1866 12.1967C48.1866 11.825 48.306 11.4973 48.5446 11.2136C48.7833 10.9266 49.125 10.7831 49.5696 10.7831C49.6219 10.7831 49.6693 10.7848 49.7118 10.788C49.7576 10.7913 49.8066 10.7978 49.859 10.8076V9.87824C49.7641 9.86846 49.6971 9.86194 49.6579 9.85868C49.6187 9.85542 49.5909 9.85379 49.5745 9.85379C49.2247 9.85379 48.9157 9.98096 48.6476 10.2353C48.3795 10.4864 48.2112 10.7 48.1425 10.8761V9.97118H47.3039V15.2098H48.1866V12.1967Z" fill="black"/>
<path d="M44.3834 9.81953C44.9752 9.81953 45.4558 9.96301 45.8253 10.25C46.198 10.5369 46.4219 11.0309 46.4971 11.732H45.6389C45.5866 11.4092 45.4673 11.1418 45.2809 10.9299C45.0945 10.7146 44.7954 10.607 44.3834 10.607C43.8211 10.607 43.4189 10.8809 43.177 11.4288C43.0201 11.7842 42.9416 12.2228 42.9416 12.7445C42.9416 13.2695 43.0528 13.7114 43.2751 14.0701C43.4974 14.4288 43.8472 14.6081 44.3246 14.6081C44.6908 14.6081 44.9801 14.4973 45.1926 14.2755C45.4084 14.0505 45.5572 13.744 45.6389 13.356H46.4971C46.3991 14.0505 46.1538 14.5592 45.7615 14.8821C45.3692 15.2016 44.8673 15.3614 44.2559 15.3614C43.5693 15.3614 43.0217 15.1119 42.613 14.613C42.2043 14.1109 42 13.4848 42 12.7348C42 11.8152 42.224 11.0994 42.6719 10.5875C43.1198 10.0755 43.6903 9.81953 44.3834 9.81953Z" fill="black"/>
<path d="M107.132 29.9643V21.4711H105.543V19.2823H111.214V21.4711H109.81V29.9643H111.214V32.1531H105.543V29.9643H107.132Z" fill="black"/>
</svg>
