<svg width="131" height="42" viewBox="0 0 131 42" fill="none" xmlns="http://www.w3.org/2000/svg">
<path d="M116 0.5C124.008 0.5 130.5 6.99187 130.5 15V41.5H15C6.99187 41.5 0.5 35.0081 0.5 27V0.5H116Z" fill="white" stroke="black"/>
<path d="M28.8497 24.1575C25.3836 26.9643 20.4266 26.9643 16.9605 24.1575L18.3007 22.5026C20.9854 24.6766 24.8248 24.6766 27.5095 22.5026L28.8497 24.1575Z" fill="black"/>
<path d="M18.404 17.6365V20.5134H20.5336V17.6365H18.404Z" fill="black"/>
<path d="M25.012 17.6365V20.5134H27.1415V17.6365H25.012Z" fill="black"/>
<path fill-rule="evenodd" clip-rule="evenodd" d="M22.5 33C28.8513 33 34 27.8513 34 21.5C34 15.1487 28.8513 10 22.5 10C16.1487 10 11 15.1487 11 21.5C11 27.8513 16.1487 33 22.5 33ZM22.5 30.8705C27.6752 30.8705 31.8705 26.6752 31.8705 21.5C31.8705 16.3248 27.6752 12.1295 22.5 12.1295C17.3248 12.1295 13.1295 16.3248 13.1295 21.5C13.1295 26.6752 17.3248 30.8705 22.5 30.8705Z" fill="black"/>
<path fill-rule="evenodd" clip-rule="evenodd" d="M103.964 32.15L99.4047 19.2822H96.3653L91.7712 32.15H94.5835L95.4744 29.5049H100.217L101.047 32.15H103.964ZM97.8588 22.2242L99.4658 27.2875H96.1993L97.8588 22.2242Z" fill="black"/>
<path fill-rule="evenodd" clip-rule="evenodd" d="M76.1396 22.425C77.3915 22.425 78.3697 22.876 79.0743 23.7781C79.7846 24.6802 80.1398 25.8442 80.1398 27.27C80.1398 28.7483 79.7904 29.9734 79.0917 30.9453C78.393 31.9172 77.4177 32.4032 76.1658 32.4032C75.3798 32.4032 74.748 32.2461 74.2706 31.9318C73.9853 31.7455 73.6767 31.4196 73.3448 30.954V32.15H70.908V19.2997H73.3884V23.8741C73.7029 23.4318 74.0493 23.0943 74.4278 22.8615C74.8761 22.5705 75.4467 22.425 76.1396 22.425ZM75.5021 30.3517C76.1426 30.3517 76.6404 30.0927 76.9956 29.5747C77.3507 29.0567 77.5283 28.3758 77.5283 27.5319C77.5283 26.8568 77.441 26.2981 77.2663 25.8558C76.9344 25.0177 76.3231 24.5987 75.4322 24.5987C74.5297 24.5987 73.9096 25.009 73.5719 25.8296C73.3972 26.2661 73.3098 26.8306 73.3098 27.5232C73.3098 28.338 73.4903 29.0131 73.8513 29.5485C74.2123 30.084 74.7626 30.3517 75.5021 30.3517Z" fill="black"/>
<path d="M62.9356 31.6699C62.6561 31.3847 62.5164 30.9453 62.5164 30.3517V24.4939H61.1888V22.7218H62.5164V20.0679H64.9793V22.7218H66.5253V24.4939H64.9793V29.5223C64.9793 29.9123 65.0288 30.1567 65.1278 30.2556C65.2268 30.3488 65.5296 30.3953 66.0362 30.3953H66.272C66.3593 30.3895 66.4437 30.3837 66.5253 30.3779V32.2373L65.3462 32.281C64.17 32.3217 63.3665 32.118 62.9356 31.6699Z" fill="black"/>
<path fill-rule="evenodd" clip-rule="evenodd" d="M61.092 27.4097C61.092 28.8065 60.6903 30.0025 59.8867 30.9977C59.0832 31.9871 57.8634 32.4818 56.2272 32.4818C54.5911 32.4818 53.3712 31.9871 52.5677 30.9977C51.7642 30.0025 51.3624 28.8065 51.3624 27.4097C51.3624 26.0362 51.7642 24.8461 52.5677 23.8392C53.3712 22.8324 54.5911 22.3289 56.2272 22.3289C57.8634 22.3289 59.0832 22.8324 59.8867 23.8392C60.6903 24.8461 61.092 26.0362 61.092 27.4097ZM56.2185 30.3953C56.9463 30.3953 57.5053 30.1363 57.8954 29.6184C58.2855 29.1004 58.4806 28.3642 58.4806 27.4097C58.4806 26.4553 58.2855 25.7219 57.8954 25.2098C57.5053 24.6918 56.9463 24.4328 56.2185 24.4328C55.4906 24.4328 54.9288 24.6918 54.5328 25.2098C54.1427 25.7219 53.9476 26.4553 53.9476 27.4097C53.9476 28.3642 54.1427 29.1004 54.5328 29.6184C54.9288 30.1363 55.4906 30.3953 56.2185 30.3953Z" fill="black"/>
<path d="M49.414 23.1845C48.791 22.6665 47.9875 22.4075 47.0035 22.4075C46.2174 22.4075 45.5682 22.5996 45.0558 22.9837C44.7705 23.199 44.4677 23.5511 44.1474 24.04V22.6519H41.7456V32.15H44.2261V26.9994C44.2261 26.4116 44.3076 25.9286 44.4706 25.5503C44.785 24.8344 45.3644 24.4765 46.2087 24.4765C46.8957 24.4765 47.3615 24.7209 47.6061 25.2098C47.74 25.4775 47.807 25.8616 47.807 26.3621V32.15H50.3573V25.7423C50.3573 24.5492 50.0429 23.6966 49.414 23.1845Z" fill="black"/>
<path d="M81.9135 33.992L81.5991 33.9746V35.965C81.8669 35.9824 82.0678 35.9912 82.2017 35.9912C82.3356 35.997 82.5132 35.9999 82.7345 35.9999C83.835 35.9999 84.5686 35.7816 84.9354 35.3451C85.3023 34.9145 85.8001 33.7971 86.4289 31.9929L89.6954 22.6345H87.0491L85.0839 29.6533L83.0052 22.6345H80.2366L83.7301 32.5691C83.7534 32.6389 83.701 32.831 83.5729 33.1452C83.4507 33.4595 83.3167 33.6661 83.1712 33.765C83.0198 33.8698 82.8335 33.9367 82.6122 33.9658C82.3909 33.9949 82.158 34.0037 81.9135 33.992Z" fill="black"/>
<path d="M106.257 21.471V29.9642H104.671V32.153H110.331V29.9642H108.93V21.471H110.331V19.2822H104.671V21.471H106.257Z" fill="black"/>
<path fill-rule="evenodd" clip-rule="evenodd" d="M58.9414 9.94434C59.3309 9.9444 59.6713 10.0398 59.9619 10.2314C60.1195 10.3397 60.2805 10.498 60.4443 10.7051V10.0781H61.2139V14.5967C61.2138 15.2273 61.121 15.725 60.9355 16.0898C60.5892 16.764 59.9353 17.1015 58.9736 17.1016C58.4387 17.1016 57.9889 16.9804 57.624 16.7393C57.2592 16.5012 57.0551 16.1273 57.0117 15.6172H57.8604C57.9006 15.8397 57.981 16.0113 58.1016 16.1318C58.2902 16.3173 58.5871 16.4102 58.9922 16.4102C59.632 16.4101 60.051 16.1846 60.249 15.7334C60.3665 15.4674 60.4204 14.992 60.4111 14.3086C60.2441 14.5622 60.0436 14.7513 59.8086 14.875C59.5736 14.9987 59.2625 15.0605 58.876 15.0605C58.338 15.0605 57.866 14.8705 57.4609 14.4902C57.059 14.1068 56.8584 13.474 56.8584 12.5928C56.8584 11.761 57.0608 11.1115 57.4658 10.6445C57.874 10.1776 58.3662 9.94434 58.9414 9.94434ZM59.0938 10.6816C58.5064 10.6817 58.1041 10.9565 57.8877 11.5068C57.7733 11.8006 57.7168 12.1859 57.7168 12.6621C57.7168 13.2217 57.829 13.6486 58.0547 13.9424C58.2835 14.2331 58.5902 14.3789 58.9736 14.3789C59.5735 14.3789 59.996 14.1075 60.2402 13.5664C60.3762 13.2603 60.4443 12.9032 60.4443 12.4951C60.4443 11.8798 60.317 11.4238 60.0635 11.127C59.8099 10.8301 59.4865 10.6816 59.0938 10.6816Z" fill="black"/>
<path d="M86.04 14.0771L87.3799 10.0322H88.3037C88.1862 10.3508 87.9245 11.0773 87.5195 12.2119C87.2165 13.0654 86.9629 13.7617 86.7588 14.2998C86.2764 15.5676 85.9362 16.3408 85.7383 16.6191C85.5404 16.8974 85.2001 17.0361 84.7178 17.0361C84.6004 17.0361 84.5093 17.0317 84.4443 17.0225C84.3825 17.0132 84.3047 16.9964 84.2119 16.9717V16.2109C84.3571 16.2511 84.4624 16.2759 84.5273 16.2852C84.5923 16.2944 84.6497 16.2988 84.6992 16.2988C84.8538 16.2988 84.967 16.2723 85.0381 16.2197C85.1122 16.1703 85.1742 16.1083 85.2236 16.0342C85.2394 16.0087 85.2952 15.8821 85.3906 15.6543C85.4865 15.4255 85.5553 15.2549 85.5986 15.1436L83.7617 10.0322H84.708L86.04 14.0771Z" fill="black"/>
<path d="M52.6943 9.90234C53.4427 9.90234 53.9826 10.1215 54.3135 10.5605C54.5207 10.8389 54.6214 11.1393 54.6152 11.4609H53.8262C53.8107 11.2725 53.7443 11.1008 53.627 10.9463C53.4353 10.7268 53.1028 10.6163 52.6299 10.6162C52.3145 10.6162 52.0741 10.6772 51.9102 10.7979C51.7496 10.9184 51.6689 11.0776 51.6689 11.2754C51.669 11.4917 51.776 11.6651 51.9893 11.7949C52.113 11.8722 52.296 11.9403 52.5371 11.999L53.0889 12.1338C53.6886 12.2791 54.0909 12.4196 54.2949 12.5557C54.6195 12.7691 54.7822 13.1049 54.7822 13.5625C54.7821 14.0045 54.6133 14.3865 54.2764 14.708C53.9424 15.0296 53.4316 15.1904 52.7451 15.1904C52.0063 15.1904 51.4821 15.0233 51.1729 14.6895C50.8667 14.3524 50.7033 13.9362 50.6816 13.4414H51.4834C51.5081 13.7197 51.578 13.9336 51.6924 14.082C51.9027 14.3509 52.2678 14.4853 52.7871 14.4854C53.0962 14.4854 53.3685 14.419 53.6035 14.2861C53.8385 14.1501 53.9561 13.9406 53.9561 13.6592C53.956 13.4459 53.8614 13.2841 53.6729 13.1729C53.5523 13.1048 53.3145 13.0252 52.959 12.9355L52.2959 12.7686C51.8722 12.6634 51.5594 12.5459 51.3584 12.416C50.9998 12.1903 50.8204 11.8783 50.8203 11.4795C50.8203 11.0094 50.9891 10.6286 51.3262 10.3379C51.6663 10.0473 52.1224 9.90235 52.6943 9.90234Z" fill="black"/>
<path d="M120.116 9.90234C120.864 9.90234 121.404 10.1215 121.735 10.5605C121.943 10.8389 122.043 11.1393 122.037 11.4609H121.248C121.233 11.2724 121.166 11.1008 121.049 10.9463C120.857 10.7268 120.525 10.6162 120.052 10.6162C119.736 10.6162 119.497 10.6773 119.333 10.7979C119.172 10.9185 119.092 11.0775 119.092 11.2754C119.092 11.4917 119.198 11.6651 119.411 11.7949C119.535 11.8722 119.718 11.9403 119.959 11.999L120.511 12.1338C121.111 12.2791 121.513 12.4196 121.717 12.5557C122.041 12.769 122.204 13.1048 122.204 13.5625C122.204 14.0045 122.035 14.3865 121.698 14.708C121.364 15.0295 120.854 15.1904 120.168 15.1904C119.429 15.1904 118.904 15.0234 118.595 14.6895C118.289 14.3524 118.125 13.9362 118.104 13.4414H118.906C118.931 13.7197 119 13.9336 119.114 14.082C119.325 14.3509 119.69 14.4853 120.209 14.4854C120.518 14.4854 120.79 14.4189 121.025 14.2861C121.26 14.1501 121.378 13.9406 121.378 13.6592C121.378 13.4461 121.284 13.2841 121.096 13.1729C120.975 13.1048 120.736 13.0252 120.381 12.9355L119.718 12.7686C119.294 12.6634 118.981 12.5459 118.78 12.416C118.422 12.1903 118.242 11.8782 118.242 11.4795C118.242 11.0094 118.411 10.6286 118.748 10.3379C119.088 10.0473 119.544 9.9024 120.116 9.90234Z" fill="black"/>
<path fill-rule="evenodd" clip-rule="evenodd" d="M45.126 8.16211V15H44.374V14.3086C44.1792 14.6147 43.9495 14.8366 43.6836 14.9727C43.4177 15.1087 43.1127 15.1767 42.7695 15.1768C42.216 15.1768 41.7362 14.9443 41.3311 14.4805C40.926 14.0135 40.7236 13.3932 40.7236 12.6201C40.7237 11.8968 40.9076 11.2708 41.2754 10.7422C41.6465 10.2103 42.1758 9.94434 42.8623 9.94434C43.2426 9.94437 43.5608 10.0248 43.8174 10.1855C43.9658 10.2783 44.1347 10.44 44.3232 10.6719V8.16211H45.126ZM43.0195 10.6719C42.5992 10.6719 42.2579 10.833 41.9951 11.1543C41.7354 11.4759 41.6055 11.9495 41.6055 12.5742C41.6055 13.106 41.7176 13.5515 41.9434 13.9102C42.1691 14.2688 42.5314 14.4482 43.0293 14.4482C43.4157 14.4482 43.7331 14.2829 43.9805 13.9521C44.2309 13.6182 44.3554 13.14 44.3555 12.5186C44.3555 11.8909 44.2273 11.4269 43.9707 11.127C43.714 10.8239 43.3968 10.6719 43.0195 10.6719Z" fill="black"/>
<path fill-rule="evenodd" clip-rule="evenodd" d="M48.1006 9.9209C48.4531 9.9209 48.7951 10.0039 49.126 10.1709C49.4568 10.3348 49.7087 10.5487 49.8818 10.8115C50.0488 11.062 50.1602 11.3546 50.2158 11.6885C50.2652 11.9173 50.29 12.2826 50.29 12.7832H46.6484C46.664 13.287 46.7833 13.692 47.0059 13.998C47.2285 14.301 47.5732 14.4531 48.04 14.4531C48.476 14.4531 48.8242 14.309 49.084 14.0215C49.2324 13.8545 49.3376 13.661 49.3994 13.4414H50.2207C50.1991 13.6238 50.1266 13.828 50.0029 14.0537C49.8823 14.2764 49.7463 14.4593 49.5947 14.6016C49.3411 14.849 49.0265 15.016 48.6523 15.1025C48.4514 15.152 48.2241 15.1768 47.9707 15.1768C47.3523 15.1768 46.8282 14.9521 46.3984 14.5039C45.9686 14.0525 45.7539 13.4214 45.7539 12.6113C45.7539 11.8135 45.9704 11.1658 46.4033 10.668C46.8363 10.1701 47.4017 9.9209 48.1006 9.9209ZM48.0498 10.6494C47.6664 10.6494 47.3447 10.7882 47.085 11.0664C46.8252 11.3416 46.6874 11.6925 46.6719 12.1191H49.4316C49.3976 11.7574 49.319 11.4684 49.1953 11.252C48.9665 10.85 48.5847 10.6495 48.0498 10.6494Z" fill="black"/>
<path fill-rule="evenodd" clip-rule="evenodd" d="M69.168 9.9209C69.5202 9.92096 69.8617 10.0041 70.1924 10.1709C70.5233 10.3348 70.776 10.5487 70.9492 10.8115C71.1161 11.0619 71.2276 11.3546 71.2832 11.6885C71.3326 11.9174 71.3574 12.2826 71.3574 12.7832H67.7158C67.7313 13.287 67.8507 13.692 68.0732 13.998C68.2959 14.301 68.6406 14.4531 69.1074 14.4531C69.5434 14.4531 69.8916 14.3091 70.1514 14.0215C70.2998 13.8545 70.405 13.6609 70.4668 13.4414H71.2871C71.2655 13.6238 71.193 13.828 71.0693 14.0537C70.9487 14.2763 70.8127 14.4593 70.6611 14.6016C70.4076 14.8488 70.0938 15.016 69.7197 15.1025C69.5188 15.152 69.2915 15.1767 69.0381 15.1768C68.4196 15.1768 67.8947 14.9523 67.4648 14.5039C67.0351 14.0525 66.8204 13.4214 66.8203 12.6113C66.8203 11.8137 67.037 11.1658 67.4697 10.668C67.9027 10.1701 68.4691 9.9209 69.168 9.9209ZM69.1162 10.6494C68.7329 10.6495 68.4111 10.7882 68.1514 11.0664C67.8918 11.3416 67.7548 11.6926 67.7393 12.1191H70.499C70.465 11.7575 70.3863 11.4684 70.2627 11.252C70.0339 10.8499 69.6512 10.6494 69.1162 10.6494Z" fill="black"/>
<path fill-rule="evenodd" clip-rule="evenodd" d="M76.1035 15H75.3525V14.3086C75.1577 14.6147 74.9271 14.8366 74.6611 14.9727C74.3953 15.1086 74.0902 15.1768 73.7471 15.1768C73.1937 15.1767 72.7146 14.9442 72.3096 14.4805C71.9045 14.0135 71.7021 13.3932 71.7021 12.6201C71.7022 11.8967 71.8861 11.2709 72.2539 10.7422C72.6249 10.2104 73.1535 9.94443 73.8398 9.94434C74.2202 9.94434 74.5392 10.0247 74.7959 10.1855C74.9443 10.2784 75.1132 10.4401 75.3018 10.6719V8.16211H76.1035V15ZM73.998 10.6719C73.5775 10.6719 73.2355 10.8327 72.9727 11.1543C72.7129 11.4759 72.583 11.9495 72.583 12.5742C72.583 13.106 72.6962 13.5515 72.9219 13.9102C73.1476 14.2686 73.5093 14.4482 74.0068 14.4482C74.3932 14.4482 74.7107 14.2828 74.958 13.9521C75.2085 13.6182 75.334 13.14 75.334 12.5186C75.334 11.891 75.2057 11.4269 74.9492 11.127C74.6926 10.8239 74.3753 10.6719 73.998 10.6719Z" fill="black"/>
<path fill-rule="evenodd" clip-rule="evenodd" d="M110.446 9.91113C111.031 9.91113 111.506 10.0225 111.871 10.2451C112.233 10.4677 112.413 10.8143 112.413 11.2842V14.1465C112.413 14.2331 112.431 14.3029 112.465 14.3555C112.502 14.4077 112.577 14.4345 112.691 14.4346C112.729 14.4346 112.771 14.4328 112.817 14.4297C112.864 14.4235 112.913 14.4155 112.966 14.4062V15.0234C112.836 15.0605 112.737 15.0835 112.669 15.0928C112.601 15.102 112.508 15.1064 112.391 15.1064C112.103 15.1064 111.894 15.0049 111.764 14.8008C111.696 14.6926 111.648 14.5395 111.62 14.3418C111.45 14.5642 111.206 14.7571 110.888 14.9209C110.569 15.0848 110.217 15.167 109.834 15.167C109.373 15.1669 108.996 15.0282 108.702 14.75C108.411 14.4686 108.267 14.1169 108.267 13.6963C108.267 13.2356 108.411 12.8785 108.698 12.625C108.986 12.3715 109.363 12.215 109.83 12.1562L111.161 11.9893C111.353 11.9645 111.481 11.8841 111.546 11.748C111.583 11.6739 111.602 11.5675 111.602 11.4287C111.602 11.1444 111.5 10.9383 111.296 10.8115C111.095 10.6816 110.805 10.6162 110.428 10.6162C109.992 10.6163 109.682 10.7338 109.5 10.9688C109.398 11.0986 109.332 11.2922 109.301 11.5488H108.521C108.537 10.9366 108.735 10.5116 109.115 10.2734C109.499 10.0323 109.942 9.91118 110.446 9.91113ZM111.578 12.4717C111.476 12.5366 111.345 12.5915 111.185 12.6348C111.024 12.6781 110.866 12.709 110.711 12.7275L110.205 12.792C109.902 12.8322 109.675 12.8959 109.523 12.9824C109.267 13.1277 109.139 13.3594 109.139 13.6777C109.139 13.9189 109.227 14.1099 109.403 14.249C109.579 14.3879 109.788 14.457 110.029 14.457C110.323 14.457 110.608 14.389 110.883 14.2529C111.347 14.0272 111.578 13.6578 111.578 13.1445V12.4717Z" fill="black"/>
<path fill-rule="evenodd" clip-rule="evenodd" d="M80.0684 10.6348C80.2508 10.3967 80.4691 10.2164 80.7227 10.0928C80.9762 9.96603 81.2511 9.90237 81.5479 9.90234C82.1662 9.90234 82.6673 10.1154 83.0508 10.542C83.4373 10.9657 83.6309 11.5921 83.6309 12.4209C83.6309 13.2064 83.4409 13.8594 83.0605 14.3789C82.6802 14.8983 82.1526 15.1582 81.4785 15.1582C81.1012 15.1582 80.7822 15.0662 80.5225 14.8838C80.368 14.7755 80.2025 14.6022 80.0264 14.3643V15H79.2568V8.16211H80.0684V10.6348ZM81.4502 10.6494C81.07 10.6495 80.7357 10.79 80.4482 11.0713C80.164 11.3527 80.0215 11.8168 80.0215 12.4629C80.0215 12.9297 80.0807 13.309 80.1982 13.5996C80.4179 14.1467 80.828 14.4199 81.4277 14.4199C81.8791 14.4198 82.2159 14.2405 82.4385 13.8818C82.6642 13.5232 82.7773 13.0503 82.7773 12.4629C82.7773 11.9403 82.6642 11.5073 82.4385 11.1641C82.2158 10.8208 81.8862 10.6494 81.4502 10.6494Z" fill="black"/>
<path d="M96.7969 13.3301C96.7969 13.5837 96.8366 13.7913 96.917 13.9521C97.0655 14.2488 97.3431 14.3975 97.748 14.3975C98.3291 14.3973 98.7253 14.1374 98.9355 13.6182C99.05 13.3398 99.1064 12.9572 99.1064 12.4717V10.0322H99.9414V15H99.1533L99.1621 14.2676C99.0539 14.456 98.9195 14.6153 98.7588 14.7451C98.4404 15.0047 98.0539 15.1347 97.5996 15.1348C96.8915 15.1348 96.409 14.8978 96.1523 14.4248C96.0132 14.1713 95.9434 13.8327 95.9434 13.4092V10.0322H96.7969V13.3301Z" fill="black"/>
<path d="M56.2539 15H55.4053V10.0557H56.2539V15Z" fill="black"/>
<path d="M64.5596 9.9209C65.2646 9.9209 65.7409 10.1666 65.9883 10.6582C66.1243 10.9272 66.1924 11.3125 66.1924 11.8135V15H65.3438V11.8691C65.3438 11.5661 65.2987 11.3213 65.209 11.1357C65.0605 10.8268 64.7918 10.6719 64.4023 10.6719C64.2044 10.6719 64.0418 10.6922 63.915 10.7324C63.6863 10.8004 63.4856 10.9367 63.3125 11.1406C63.1733 11.3045 63.0814 11.4751 63.0381 11.6514C62.998 11.8245 62.9785 12.0732 62.9785 12.3975V15H62.1436V10.0322H62.9365V10.7373C63.1715 10.4466 63.4207 10.2381 63.6836 10.1113C63.9463 9.98462 64.2381 9.92094 64.5596 9.9209Z" fill="black"/>
<path d="M91.8408 10.7051C92.0386 10.4548 92.2164 10.2779 92.374 10.1758C92.643 9.99955 92.9789 9.91117 93.3809 9.91113C94.1014 9.91113 94.59 10.1639 94.8467 10.668C94.9857 10.9432 95.0557 11.325 95.0557 11.8135V15H94.1973V11.8691C94.1973 11.5043 94.1513 11.2365 94.0586 11.0664C93.9071 10.7943 93.6224 10.6583 93.2051 10.6582C92.8587 10.6582 92.5441 10.7775 92.2627 11.0156C91.9815 11.2538 91.8408 11.7038 91.8408 12.3652V15H91.0059V8.16211H91.8408V10.7051Z" fill="black"/>
<path d="M106.043 9.9209C106.711 9.9209 107.166 10.1621 107.407 10.6445C107.537 10.9042 107.602 11.2536 107.602 11.6924V15H106.734V11.5488C106.734 11.2179 106.65 10.9909 106.483 10.8672C106.32 10.7436 106.119 10.6817 105.881 10.6816C105.553 10.6816 105.27 10.7913 105.032 11.0107C104.797 11.2303 104.68 11.597 104.68 12.1104V15H103.83V11.7578C103.83 11.4211 103.79 11.1752 103.71 11.0205C103.583 10.7886 103.346 10.6719 103 10.6719C102.685 10.6719 102.397 10.7948 102.138 11.0391C101.881 11.2834 101.752 11.7251 101.752 12.3652V15H100.917V10.0322H101.743V10.7373C101.941 10.493 102.12 10.3154 102.281 10.2041C102.556 10.0155 102.868 9.92095 103.218 9.9209C103.614 9.9209 103.933 10.0181 104.174 10.2129C104.31 10.3242 104.434 10.4887 104.545 10.7051C104.73 10.4391 104.949 10.242 105.199 10.1152C105.45 9.98551 105.731 9.9209 106.043 9.9209Z" fill="black"/>
<path d="M115.871 9.9209C116.576 9.921 117.052 10.1666 117.3 10.6582C117.436 10.9272 117.504 11.3126 117.504 11.8135V15H116.654V11.8691C116.654 11.5661 116.61 11.3213 116.521 11.1357C116.372 10.8265 116.103 10.6719 115.713 10.6719C115.515 10.6719 115.352 10.6922 115.226 10.7324C114.997 10.8005 114.796 10.9367 114.623 11.1406C114.484 11.3045 114.393 11.4751 114.35 11.6514C114.309 11.8245 114.289 12.0731 114.289 12.3975V15H113.454V10.0322H114.247V10.7373C114.482 10.4466 114.731 10.2381 114.994 10.1113C115.257 9.98454 115.549 9.9209 115.871 9.9209Z" fill="black"/>
<path d="M56.2539 9.13184H55.4053V8.18555H56.2539V9.13184Z" fill="black"/>
</svg>
