<svg width="131" height="42" viewBox="0 0 131 42" fill="none" xmlns="http://www.w3.org/2000/svg">
<path d="M116 0.5C124.008 0.5 130.5 6.99187 130.5 15V41.5H15C6.99187 41.5 0.5 35.0081 0.5 27V0.5H116Z" fill="white" stroke="black"/>
<path d="M27.8497 24.1575C24.3836 26.9643 19.4266 26.9643 15.9605 24.1575L17.3007 22.5026C19.9854 24.6766 23.8248 24.6766 26.5095 22.5026L27.8497 24.1575Z" fill="black"/>
<path d="M17.404 17.6365V20.5134H19.5336V17.6365H17.404Z" fill="black"/>
<path d="M24.012 17.6365V20.5134H26.1415V17.6365H24.012Z" fill="black"/>
<path fill-rule="evenodd" clip-rule="evenodd" d="M21.5 33C27.8513 33 33 27.8513 33 21.5C33 15.1487 27.8513 10 21.5 10C15.1487 10 10 15.1487 10 21.5C10 27.8513 15.1487 33 21.5 33ZM21.5 30.8705C26.6752 30.8705 30.8705 26.6752 30.8705 21.5C30.8705 16.3248 26.6752 12.1295 21.5 12.1295C16.3248 12.1295 12.1295 16.3248 12.1295 21.5C12.1295 26.6752 16.3248 30.8705 21.5 30.8705Z" fill="black"/>
<path fill-rule="evenodd" clip-rule="evenodd" d="M101.594 32.0851L97.0078 19H93.95L89.3281 32.0851H92.1575L93.0537 29.3953H97.825L98.6597 32.0851H101.594ZM95.4525 21.9916L97.0693 27.1405H93.783L95.4525 21.9916Z" fill="black"/>
<path fill-rule="evenodd" clip-rule="evenodd" d="M73.602 22.1958C74.8615 22.1958 75.8456 22.6545 76.5544 23.5718C77.2691 24.4891 77.6264 25.6728 77.6264 27.1227C77.6264 28.6259 77.2749 29.8717 76.572 30.8601C75.869 31.8484 74.8878 32.3426 73.6284 32.3426C72.8376 32.3426 72.202 32.1828 71.7217 31.8632C71.4346 31.6738 71.1242 31.3424 70.7903 30.8689V32.0851H68.3388V19.0178H70.8342V23.6695C71.1505 23.2197 71.4991 22.8764 71.8798 22.6397C72.3309 22.3438 72.905 22.1958 73.602 22.1958ZM72.9606 30.2564C73.605 30.2564 74.1058 29.993 74.4631 29.4663C74.8205 28.9396 74.9991 28.2472 74.9991 27.389C74.9991 26.7025 74.9113 26.1344 74.7355 25.6846C74.4016 24.8324 73.7866 24.4063 72.8903 24.4063C71.9823 24.4063 71.3585 24.8235 71.0187 25.658C70.843 26.1018 70.7551 26.6759 70.7551 27.3802C70.7551 28.2087 70.9367 28.8952 71.2999 29.4397C71.6631 29.9842 72.2167 30.2564 72.9606 30.2564Z" fill="black"/>
<path d="M60.3181 31.5969C60.037 31.3069 59.8964 30.8601 59.8964 30.2564V24.2997H58.5608V22.4977H59.8964V19.799H62.3743V22.4977H63.9295V24.2997H62.3743V29.4131C62.3743 29.8096 62.424 30.0581 62.5236 30.1587C62.6232 30.2534 62.9278 30.3008 63.4375 30.3008H63.6747C63.7626 30.2949 63.8475 30.2889 63.9295 30.283V32.1739L62.7433 32.2183C61.56 32.2597 60.7516 32.0526 60.3181 31.5969Z" fill="black"/>
<path fill-rule="evenodd" clip-rule="evenodd" d="M58.4634 27.2648C58.4634 28.6851 58.0592 29.9013 57.2509 30.9133C56.4425 31.9194 55.2152 32.4225 53.5692 32.4225C51.9231 32.4225 50.6959 31.9194 49.8875 30.9133C49.0791 29.9013 48.675 28.6851 48.675 27.2648C48.675 25.8681 49.0791 24.6578 49.8875 23.6339C50.6959 22.6101 51.9231 22.0982 53.5692 22.0982C55.2152 22.0982 56.4425 22.6101 57.2509 23.6339C58.0592 24.6578 58.4634 25.8681 58.4634 27.2648ZM53.5604 30.3008C54.2926 30.3008 54.855 30.0374 55.2475 29.5107C55.6399 28.984 55.8362 28.2353 55.8362 27.2648C55.8362 26.2942 55.6399 25.5485 55.2475 25.0277C54.855 24.501 54.2926 24.2376 53.5604 24.2376C52.8282 24.2376 52.2629 24.501 51.8646 25.0277C51.4721 25.5485 51.2758 26.2942 51.2758 27.2648C51.2758 28.2353 51.4721 28.984 51.8646 29.5107C52.2629 30.0374 52.8282 30.3008 53.5604 30.3008Z" fill="black"/>
<path d="M46.7148 22.9681C46.088 22.4414 45.2796 22.1781 44.2896 22.1781C43.4988 22.1781 42.8457 22.3734 42.3302 22.764C42.0432 22.9829 41.7385 23.341 41.4164 23.8381V22.4266H39V32.0851H41.4954V26.8475C41.4954 26.2498 41.5775 25.7586 41.7415 25.3739C42.0578 24.646 42.6407 24.282 43.49 24.282C44.1813 24.282 44.6499 24.5305 44.8959 25.0277C45.0307 25.2999 45.098 25.6905 45.098 26.1995V32.0851H47.6638V25.5692C47.6638 24.356 47.3474 23.4889 46.7148 22.9681Z" fill="black"/>
<path d="M79.4108 33.9582L79.0945 33.9405V35.9645C79.3639 35.9822 79.566 35.9911 79.7008 35.9911C79.8355 35.997 80.0142 36 80.2368 36C81.3439 36 82.082 35.7781 82.451 35.3342C82.8201 34.8963 83.3209 33.76 83.9536 31.9253L87.2398 22.4089H84.5774L82.6004 29.5462L80.5092 22.4089H77.7237L81.2385 32.5112C81.2619 32.5822 81.2092 32.7775 81.0803 33.0971C80.9573 33.4167 80.8226 33.6268 80.6761 33.7274C80.5238 33.8339 80.3363 33.902 80.1138 33.9316C79.8912 33.9612 79.6568 33.9701 79.4108 33.9582Z" fill="black"/>
<path d="M103.902 21.2258V29.8624H102.306V32.0882H108V29.8624H106.59V21.2258H108V19H102.306V21.2258H103.902Z" fill="black"/>
<path d="M86.3994 14.0088L87.6973 10.0918H88.5918C88.478 10.4003 88.2243 11.104 87.832 12.2031C87.5386 13.0296 87.2934 13.7035 87.0957 14.2246C86.6285 15.4525 86.2991 16.2012 86.1074 16.4707C85.9158 16.7402 85.5863 16.875 85.1191 16.875C85.0055 16.875 84.9174 16.8703 84.8545 16.8613C84.7947 16.8524 84.7196 16.8364 84.6299 16.8125V16.0752C84.7702 16.114 84.8717 16.1384 84.9346 16.1475C84.9975 16.1564 85.0536 16.1611 85.1016 16.1611C85.2511 16.1611 85.3599 16.1348 85.4287 16.084C85.5006 16.0361 85.5605 15.9762 85.6084 15.9043C85.6235 15.8801 85.6778 15.7574 85.7705 15.5361C85.8633 15.3146 85.9307 15.1498 85.9727 15.042L84.1934 10.0918H85.1104L86.3994 14.0088Z" fill="black"/>
<path fill-rule="evenodd" clip-rule="evenodd" d="M65.4727 9.97461C66.0174 9.97473 66.4802 10.1845 66.8604 10.6035C67.2407 11.0197 67.4306 11.6161 67.4307 12.3916C67.4307 13.4398 67.1564 14.1885 66.6084 14.6377C66.261 14.9222 65.8567 15.0645 65.3955 15.0645C65.0333 15.0644 64.7299 14.9848 64.4844 14.8262C64.3406 14.7363 64.1796 14.5829 64.0029 14.3643V16.8213H63.1943V10.1143H63.9805V10.752C64.1422 10.5333 64.3191 10.3639 64.5107 10.2441C64.7832 10.0645 65.1043 9.97461 65.4727 9.97461ZM65.2881 10.6846C64.7282 10.6846 64.3444 10.9646 64.1377 11.5244C64.0269 11.8239 63.9717 12.2048 63.9717 12.666C63.9717 13.0371 64.027 13.3529 64.1377 13.6133C64.3473 14.1104 64.7311 14.3594 65.2881 14.3594C65.6653 14.3594 65.978 14.202 66.2266 13.8877C66.4781 13.5702 66.6045 13.0967 66.6045 12.4678C66.6045 12.0846 66.5492 11.7549 66.4385 11.4795C66.2288 10.9496 65.845 10.6846 65.2881 10.6846Z" fill="black"/>
<path fill-rule="evenodd" clip-rule="evenodd" d="M60.3994 9.95215C61.0192 9.95222 61.5435 10.1591 61.9717 10.5723C62.3999 10.9855 62.6133 11.5939 62.6133 12.3965C62.6133 13.1721 62.4252 13.8132 62.0479 14.3193C61.6705 14.8254 61.0846 15.0781 60.291 15.0781C59.6295 15.0781 59.1041 14.8551 58.7148 14.4092C58.3255 13.96 58.1309 13.3572 58.1309 12.6025C58.1309 11.7942 58.3359 11.15 58.7461 10.6709C59.1564 10.1919 59.7078 9.95215 60.3994 9.95215ZM60.377 10.6582C59.883 10.6582 59.5235 10.8465 59.2988 11.2236C59.0742 11.601 58.9619 12.0568 58.9619 12.5898C58.962 13.1018 59.0743 13.5288 59.2988 13.8701C59.5234 14.2112 59.8795 14.3817 60.3672 14.3818C60.9032 14.3818 61.2701 14.1796 61.4678 13.7754C61.6684 13.3681 61.7695 12.916 61.7695 12.4189C61.7695 11.9697 61.6975 11.6038 61.5537 11.3223C61.3261 10.8793 60.9337 10.6583 60.377 10.6582Z" fill="black"/>
<path fill-rule="evenodd" clip-rule="evenodd" d="M41.9785 14.9033H41.251V14.2334C41.0623 14.5299 40.8386 14.7442 40.5811 14.876C40.3236 15.0077 40.0286 15.0732 39.6963 15.0732C39.1603 15.0732 38.696 14.8486 38.3037 14.3994C37.9116 13.9473 37.7149 13.3471 37.7148 12.5986C37.7148 11.8979 37.8936 11.2914 38.25 10.7793C38.6094 10.2642 39.1213 10.0069 39.7861 10.0068C40.1545 10.0068 40.4633 10.0845 40.7119 10.2402C40.8556 10.3301 41.0186 10.4874 41.2012 10.7119V8.28125H41.9785V14.9033ZM39.9385 10.7119C39.5315 10.712 39.2007 10.8675 38.9463 11.1787C38.6947 11.4902 38.5693 11.9488 38.5693 12.5537C38.5694 13.0688 38.6779 13.5003 38.8965 13.8477C39.1151 14.195 39.4661 14.3682 39.9482 14.3682C40.3225 14.3681 40.6296 14.2081 40.8691 13.8877C41.1116 13.5643 41.2324 13.1017 41.2324 12.5C41.2324 11.8921 41.1079 11.4428 40.8594 11.1523C40.6108 10.8589 40.3038 10.7119 39.9385 10.7119Z" fill="black"/>
<path fill-rule="evenodd" clip-rule="evenodd" d="M44.8594 9.98438C45.2008 9.98438 45.5321 10.0648 45.8525 10.2266C46.1728 10.3853 46.4163 10.5922 46.584 10.8467C46.7457 11.0892 46.8543 11.3719 46.9082 11.6953C46.9561 11.9169 46.9795 12.2707 46.9795 12.7559H43.4531C43.4681 13.2438 43.5833 13.6362 43.7988 13.9326C44.0144 14.2261 44.3487 14.373 44.8008 14.373C45.223 14.373 45.56 14.2336 45.8115 13.9551C45.9553 13.7934 46.0573 13.6062 46.1172 13.3936H46.9121C46.8912 13.5702 46.8209 13.7678 46.7012 13.9863C46.5844 14.202 46.4524 14.3788 46.3057 14.5166C46.0601 14.7562 45.7559 14.9181 45.3936 15.002C45.199 15.0498 44.9788 15.0732 44.7334 15.0732C44.1345 15.0732 43.6272 14.8561 43.2109 14.4219C42.7948 13.9847 42.586 13.3742 42.5859 12.5898C42.5859 11.8172 42.7956 11.1892 43.2148 10.707C43.6341 10.2249 44.1826 9.98438 44.8594 9.98438ZM44.8096 10.6895C44.4384 10.6895 44.1274 10.8244 43.876 11.0938C43.6244 11.3603 43.4906 11.7 43.4756 12.1133H46.1484C46.1155 11.7631 46.0396 11.483 45.9199 11.2734C45.6983 10.8841 45.3277 10.6895 44.8096 10.6895Z" fill="black"/>
<path fill-rule="evenodd" clip-rule="evenodd" d="M53.9365 9.98438C54.2779 9.98439 54.6093 10.0649 54.9297 10.2266C55.2499 10.3853 55.4935 10.5922 55.6611 10.8467C55.8228 11.0892 55.9314 11.3719 55.9854 11.6953C56.0333 11.9169 56.0566 12.2707 56.0566 12.7559H52.5303C52.5453 13.2438 52.6605 13.6362 52.876 13.9326C53.0916 14.2261 53.4258 14.373 53.8779 14.373C54.3002 14.373 54.6371 14.2336 54.8887 13.9551C55.0324 13.7934 55.1344 13.6062 55.1943 13.3936H55.9893C55.9683 13.5702 55.898 13.7678 55.7783 13.9863C55.6615 14.202 55.5296 14.3788 55.3828 14.5166C55.1372 14.7562 54.8331 14.9181 54.4707 15.002C54.2761 15.0498 54.056 15.0732 53.8105 15.0732C53.2116 15.0732 52.7043 14.8561 52.2881 14.4219C51.8719 13.9847 51.6631 13.3743 51.6631 12.5898C51.6631 11.8172 51.8727 11.1892 52.292 10.707C52.7113 10.2249 53.2597 9.98438 53.9365 9.98438ZM53.8867 10.6895C53.5156 10.6895 53.2046 10.8244 52.9531 11.0938C52.7016 11.3603 52.5677 11.7 52.5527 12.1133H55.2256C55.1927 11.7631 55.1168 11.483 54.9971 11.2734C54.7755 10.8841 54.4048 10.6895 53.8867 10.6895Z" fill="black"/>
<path fill-rule="evenodd" clip-rule="evenodd" d="M70.0605 9.98438C70.4018 9.98444 70.7325 10.065 71.0527 10.2266C71.3732 10.3853 71.6174 10.5921 71.7852 10.8467C71.9468 11.0892 72.0545 11.372 72.1084 11.6953C72.1563 11.9169 72.1807 12.2707 72.1807 12.7559H68.6543C68.6693 13.2439 68.7844 13.6362 69 13.9326C69.2156 14.2261 69.5497 14.373 70.002 14.373C70.4241 14.373 70.7612 14.2336 71.0127 13.9551C71.1564 13.7934 71.2585 13.6061 71.3184 13.3936H72.1133C72.0923 13.5702 72.022 13.7678 71.9023 13.9863C71.7856 14.2019 71.6535 14.3789 71.5068 14.5166C71.2613 14.7562 70.9571 14.9181 70.5947 15.002C70.4001 15.0499 70.18 15.0732 69.9346 15.0732C69.3356 15.0732 68.8274 14.8561 68.4111 14.4219C67.9952 13.9847 67.7872 13.3741 67.7871 12.5898C67.7871 11.8172 67.9967 11.1892 68.416 10.707C68.8353 10.225 69.3838 9.98438 70.0605 9.98438ZM70.0107 10.6895C69.6394 10.6895 69.3277 10.8242 69.0762 11.0938C68.8247 11.3602 68.6917 11.7001 68.6768 12.1133H71.3496C71.3167 11.7629 71.2399 11.4831 71.1201 11.2734C70.8985 10.8841 70.5288 10.6895 70.0107 10.6895Z" fill="black"/>
<path fill-rule="evenodd" clip-rule="evenodd" d="M76.7773 14.9033H76.0498V14.2334C75.8611 14.5299 75.6374 14.7442 75.3799 14.876C75.1224 15.0076 74.8274 15.0732 74.4951 15.0732C73.9592 15.0732 73.4948 14.8486 73.1025 14.3994C72.7105 13.9473 72.5147 13.3471 72.5146 12.5986C72.5146 11.8979 72.6925 11.2914 73.0488 10.7793C73.4082 10.2643 73.9202 10.0069 74.585 10.0068C74.9533 10.0068 75.2622 10.0845 75.5107 10.2402C75.6544 10.3301 75.8174 10.4874 76 10.7119V8.28125H76.7773V14.9033ZM74.7383 10.7119C74.331 10.7119 73.9997 10.8673 73.7451 11.1787C73.4936 11.4902 73.3682 11.9488 73.3682 12.5537C73.3682 13.0688 73.4767 13.5003 73.6953 13.8477C73.9139 14.195 74.2649 14.3682 74.7471 14.3682C75.1214 14.3681 75.4284 14.2081 75.668 13.8877C75.9105 13.5643 76.0312 13.1017 76.0312 12.5C76.0312 11.8923 75.9075 11.4428 75.6592 11.1523C75.4107 10.8589 75.1035 10.712 74.7383 10.7119Z" fill="black"/>
<path fill-rule="evenodd" clip-rule="evenodd" d="M93.0957 9.97461C93.6617 9.97461 94.1212 10.0832 94.4746 10.2988C94.825 10.5144 95 10.8495 95 11.3047V14.0762C95 14.1599 95.0169 14.2274 95.0498 14.2783C95.0857 14.3292 95.159 14.3544 95.2695 14.3545C95.3055 14.3545 95.3467 14.3536 95.3916 14.3506C95.4364 14.3446 95.4844 14.3371 95.5352 14.3281V14.9258C95.4094 14.9617 95.313 14.9842 95.2471 14.9932C95.1812 15.0021 95.0911 15.0059 94.9775 15.0059C94.6992 15.0058 94.4968 14.9075 94.3711 14.71C94.3052 14.6051 94.2594 14.4563 94.2324 14.2646C94.0677 14.4802 93.8309 14.6675 93.5225 14.8262C93.214 14.9849 92.8742 15.0644 92.5029 15.0645C92.0567 15.0645 91.6908 14.9297 91.4062 14.6602C91.125 14.3877 90.9844 14.0478 90.9844 13.6406C90.9844 13.1944 91.1238 12.8481 91.4023 12.6025C91.6808 12.3572 92.0461 12.2063 92.498 12.1494L93.7871 11.9873C93.9728 11.9633 94.0973 11.8856 94.1602 11.7539C94.1961 11.6821 94.2138 11.5789 94.2139 11.4443C94.2139 11.1689 94.1155 10.9695 93.918 10.8467C93.7234 10.7209 93.4433 10.6582 93.0781 10.6582C92.6561 10.6582 92.3564 10.7716 92.1797 10.999C92.0809 11.1248 92.0163 11.3121 91.9863 11.5605H91.2314C91.2465 10.9677 91.4383 10.5558 91.8066 10.3252C92.1779 10.0917 92.6077 9.97462 93.0957 9.97461ZM94.1914 12.4551C94.0926 12.5178 93.9651 12.5704 93.8096 12.6123C93.654 12.6542 93.5011 12.6842 93.3516 12.7021L92.8623 12.7646C92.5689 12.8036 92.3489 12.8654 92.2021 12.9492C91.9536 13.09 91.8291 13.3146 91.8291 13.623C91.8292 13.8564 91.9145 14.0401 92.085 14.1748C92.2557 14.3096 92.4578 14.3769 92.6914 14.377C92.9758 14.377 93.2511 14.3114 93.5176 14.1797C93.9667 13.9611 94.1913 13.6034 94.1914 13.1064V12.4551Z" fill="black"/>
<path fill-rule="evenodd" clip-rule="evenodd" d="M117.073 9.97461C117.639 9.97461 118.099 10.0832 118.452 10.2988C118.803 10.5144 118.978 10.8495 118.978 11.3047V14.0762C118.978 14.1599 118.994 14.2274 119.027 14.2783C119.063 14.3292 119.136 14.3544 119.247 14.3545C119.283 14.3545 119.324 14.3536 119.369 14.3506C119.414 14.3446 119.462 14.3371 119.513 14.3281V14.9258C119.387 14.9617 119.29 14.9842 119.225 14.9932C119.159 15.0021 119.069 15.0059 118.955 15.0059C118.677 15.0058 118.474 14.9075 118.349 14.71C118.283 14.6051 118.237 14.4563 118.21 14.2646C118.045 14.4802 117.808 14.6675 117.5 14.8262C117.192 14.9849 116.852 15.0644 116.48 15.0645C116.034 15.0645 115.668 14.9297 115.384 14.6602C115.102 14.3877 114.962 14.0478 114.962 13.6406C114.962 13.1944 115.101 12.8481 115.38 12.6025C115.658 12.3572 116.024 12.2063 116.476 12.1494L117.765 11.9873C117.95 11.9633 118.075 11.8857 118.138 11.7539C118.174 11.6821 118.191 11.5789 118.191 11.4443C118.191 11.1689 118.093 10.9695 117.896 10.8467C117.701 10.7209 117.421 10.6582 117.056 10.6582C116.634 10.6582 116.334 10.7716 116.157 10.999C116.058 11.1248 115.994 11.3121 115.964 11.5605H115.209C115.224 10.9677 115.416 10.5558 115.784 10.3252C116.155 10.0917 116.585 9.97461 117.073 9.97461ZM118.169 12.4551C118.07 12.5178 117.943 12.5704 117.787 12.6123C117.632 12.6542 117.479 12.6842 117.329 12.7021L116.84 12.7646C116.546 12.8036 116.326 12.8654 116.18 12.9492C115.931 13.09 115.807 13.3146 115.807 13.623C115.807 13.8564 115.892 14.0401 116.062 14.1748C116.233 14.3096 116.435 14.377 116.669 14.377C116.953 14.377 117.229 14.3114 117.495 14.1797C117.944 13.9611 118.169 13.6034 118.169 13.1064V12.4551Z" fill="black"/>
<path fill-rule="evenodd" clip-rule="evenodd" d="M80.6162 10.6758C80.7929 10.4452 81.0045 10.2702 81.25 10.1504C81.4956 10.0276 81.7623 9.96582 82.0498 9.96582C82.6486 9.96586 83.1336 10.1728 83.5049 10.5859C83.8792 10.9962 84.0664 11.6027 84.0664 12.4053C84.0664 13.166 83.882 13.7977 83.5137 14.3008C83.1453 14.8038 82.6352 15.0556 81.9824 15.0557C81.6171 15.0557 81.3082 14.9677 81.0566 14.791C80.9069 14.6862 80.7469 14.5177 80.5762 14.2871V14.9033H79.8301V8.28125H80.6162V10.6758ZM81.9551 10.6895C81.587 10.6895 81.2637 10.8255 80.9854 11.0977C80.7099 11.3701 80.5714 11.8196 80.5713 12.4453C80.5713 12.8973 80.6285 13.2644 80.7422 13.5459C80.9548 14.0759 81.3517 14.3417 81.9326 14.3418C82.3699 14.3418 82.6965 14.1677 82.9121 13.8203C83.1307 13.4729 83.2402 13.0143 83.2402 12.4453C83.2402 11.9394 83.1307 11.5198 82.9121 11.1875C82.6965 10.8553 82.3772 10.6895 81.9551 10.6895Z" fill="black"/>
<path d="M103.854 10.0918V13.2861C103.855 13.5314 103.893 13.7321 103.971 13.8877C104.114 14.1752 104.383 14.3193 104.775 14.3193C105.338 14.3193 105.721 14.0674 105.925 13.5645C106.036 13.295 106.092 12.9251 106.092 12.4551V10.0918H106.9V14.9033H106.137L106.146 14.1934C106.041 14.376 105.911 14.5305 105.755 14.6562C105.447 14.9077 105.072 15.0331 104.632 15.0332C103.946 15.0332 103.478 14.8039 103.229 14.3457C103.095 14.1002 103.027 13.7723 103.027 13.3623V10.0918H103.854Z" fill="black"/>
<path d="M49.335 14.0088L50.6777 10.0918H51.5635L49.748 14.9033H48.8857L47.1113 10.0918H48.0498L49.335 14.0088Z" fill="black"/>
<path d="M57.5635 14.9033H56.7549V8.30371H57.5635V14.9033Z" fill="black"/>
<path d="M99.0557 8.28125V10.7432C99.2473 10.5007 99.4196 10.3302 99.5723 10.2314C99.8328 10.0608 100.158 9.97461 100.547 9.97461C101.244 9.97466 101.717 10.2192 101.966 10.707C102.101 10.9735 102.168 11.3434 102.168 11.8164V14.9033H101.337V11.8711C101.337 11.5177 101.292 11.2585 101.202 11.0938C101.055 10.8302 100.78 10.6982 100.376 10.6982C100.041 10.6982 99.7364 10.8134 99.4639 11.0439C99.1913 11.2745 99.0557 11.7107 99.0557 12.3516V14.9033H98.2471V8.28125H99.0557Z" fill="black"/>
<path d="M112.809 9.98438C113.455 9.98438 113.896 10.2174 114.13 10.6846C114.256 10.9361 114.318 11.2749 114.318 11.7002V14.9033H113.479V11.5605C113.478 11.2402 113.397 11.0202 113.235 10.9004C113.077 10.7806 112.882 10.7207 112.651 10.7207C112.334 10.7207 112.06 10.8274 111.829 11.04C111.602 11.2527 111.488 11.6076 111.488 12.1045V14.9033H110.666V11.7627C110.666 11.4364 110.627 11.1985 110.549 11.0488C110.426 10.8243 110.197 10.712 109.862 10.7119C109.557 10.7119 109.278 10.8299 109.026 11.0664C108.778 11.303 108.653 11.7316 108.653 12.3516V14.9033H107.845V10.0918H108.645V10.7744C108.836 10.5379 109.01 10.3656 109.166 10.2578C109.432 10.0753 109.735 9.98438 110.073 9.98438C110.456 9.98442 110.765 10.0782 110.998 10.2666C111.13 10.3744 111.25 10.5336 111.357 10.7432C111.537 10.4856 111.749 10.2956 111.991 10.1729C112.234 10.0471 112.506 9.98439 112.809 9.98438Z" fill="black"/>
<path d="M122.326 9.98438C123.009 9.98441 123.47 10.2221 123.71 10.6982C123.842 10.9587 123.907 11.3315 123.907 11.8164V14.9033H123.085V11.8711C123.085 11.5777 123.042 11.3408 122.955 11.1611C122.811 10.8617 122.55 10.7119 122.173 10.7119C121.981 10.7119 121.824 10.7316 121.701 10.7705C121.48 10.8364 121.285 10.9676 121.117 11.165C120.983 11.3236 120.895 11.4886 120.853 11.6592C120.814 11.8269 120.794 12.0684 120.794 12.3828V14.9033H119.985V10.0918H120.754V10.7744C120.981 10.4931 121.222 10.2907 121.477 10.168C121.731 10.0452 122.015 9.98438 122.326 9.98438Z" fill="black"/>
</svg>
