<svg width="131" height="42" viewBox="0 0 131 42" fill="none" xmlns="http://www.w3.org/2000/svg">
<path d="M0.5 0.5H116C124.008 0.5 130.5 6.99187 130.5 15V41.5H15C6.99187 41.5 0.5 35.0081 0.5 27V0.5Z" fill="white" stroke="black"/>
<path d="M28.8497 24.1575C25.3836 26.9643 20.4266 26.9643 16.9605 24.1575L18.3007 22.5026C20.9854 24.6766 24.8248 24.6766 27.5095 22.5026L28.8497 24.1575Z" fill="black"/>
<path d="M18.404 17.6365V20.5134H20.5336V17.6365H18.404Z" fill="black"/>
<path d="M25.012 17.6365V20.5134H27.1415V17.6365H25.012Z" fill="black"/>
<path fill-rule="evenodd" clip-rule="evenodd" d="M22.5 33C28.8513 33 34 27.8513 34 21.5C34 15.1487 28.8513 10 22.5 10C16.1487 10 11 15.1487 11 21.5C11 27.8513 16.1487 33 22.5 33ZM22.5 30.8705C27.6752 30.8705 31.8705 26.6752 31.8705 21.5C31.8705 16.3248 27.6752 12.1295 22.5 12.1295C17.3248 12.1295 13.1295 16.3248 13.1295 21.5C13.1295 26.6752 17.3248 30.8705 22.5 30.8705Z" fill="black"/>
<path fill-rule="evenodd" clip-rule="evenodd" d="M103.594 32.0851L99.0078 19H95.95L91.3281 32.0851H94.1575L95.0537 29.3953H99.825L100.66 32.0851H103.594ZM97.4525 21.9916L99.0693 27.1405H95.783L97.4525 21.9916Z" fill="black"/>
<path fill-rule="evenodd" clip-rule="evenodd" d="M75.602 22.1958C76.8615 22.1958 77.8456 22.6545 78.5544 23.5718C79.2691 24.4891 79.6264 25.6728 79.6264 27.1227C79.6264 28.6259 79.2749 29.8717 78.572 30.8601C77.869 31.8484 76.8878 32.3426 75.6284 32.3426C74.8376 32.3426 74.202 32.1828 73.7217 31.8632C73.4346 31.6738 73.1242 31.3424 72.7903 30.8689V32.0851H70.3388V19.0178H72.8342V23.6695C73.1505 23.2197 73.4991 22.8764 73.8798 22.6397C74.3309 22.3438 74.905 22.1958 75.602 22.1958ZM74.9606 30.2564C75.605 30.2564 76.1058 29.993 76.4631 29.4663C76.8205 28.9396 76.9991 28.2472 76.9991 27.389C76.9991 26.7025 76.9113 26.1344 76.7355 25.6846C76.4016 24.8324 75.7866 24.4063 74.8903 24.4063C73.9823 24.4063 73.3585 24.8235 73.0187 25.658C72.843 26.1018 72.7551 26.6759 72.7551 27.3802C72.7551 28.2087 72.9367 28.8952 73.2999 29.4397C73.6631 29.9842 74.2167 30.2564 74.9606 30.2564Z" fill="black"/>
<path d="M62.3181 31.5969C62.037 31.3069 61.8964 30.8601 61.8964 30.2564V24.2997H60.5608V22.4977H61.8964V19.799H64.3742V22.4977H65.9295V24.2997H64.3742V29.4131C64.3742 29.8096 64.424 30.0581 64.5236 30.1587C64.6232 30.2534 64.9278 30.3008 65.4375 30.3008H65.6747C65.7626 30.2949 65.8475 30.2889 65.9295 30.283V32.1739L64.7433 32.2183C63.56 32.2597 62.7516 32.0526 62.3181 31.5969Z" fill="black"/>
<path fill-rule="evenodd" clip-rule="evenodd" d="M60.4634 27.2648C60.4634 28.6851 60.0592 29.9013 59.2509 30.9133C58.4425 31.9194 57.2152 32.4225 55.5692 32.4225C53.9231 32.4225 52.6959 31.9194 51.8875 30.9133C51.0791 29.9013 50.675 28.6851 50.675 27.2648C50.675 25.8681 51.0791 24.6578 51.8875 23.6339C52.6959 22.6101 53.9231 22.0982 55.5692 22.0982C57.2152 22.0982 58.4425 22.6101 59.2509 23.6339C60.0592 24.6578 60.4634 25.8681 60.4634 27.2648ZM55.5604 30.3008C56.2926 30.3008 56.855 30.0374 57.2475 29.5107C57.6399 28.984 57.8362 28.2353 57.8362 27.2648C57.8362 26.2942 57.6399 25.5485 57.2475 25.0277C56.855 24.501 56.2926 24.2376 55.5604 24.2376C54.8282 24.2376 54.2629 24.501 53.8646 25.0277C53.4721 25.5485 53.2758 26.2942 53.2758 27.2648C53.2758 28.2353 53.4721 28.984 53.8646 29.5107C54.2629 30.0374 54.8282 30.3008 55.5604 30.3008Z" fill="black"/>
<path d="M48.7148 22.9681C48.088 22.4414 47.2796 22.1781 46.2896 22.1781C45.4988 22.1781 44.8457 22.3734 44.3302 22.764C44.0432 22.9829 43.7385 23.341 43.4164 23.8381V22.4266H41V32.0851H43.4954V26.8475C43.4954 26.2498 43.5775 25.7586 43.7415 25.3739C44.0578 24.646 44.6407 24.282 45.49 24.282C46.1813 24.282 46.6499 24.5305 46.8959 25.0277C47.0307 25.2999 47.098 25.6905 47.098 26.1995V32.0851H49.6638V25.5692C49.6638 24.356 49.3474 23.4889 48.7148 22.9681Z" fill="black"/>
<path d="M81.4108 33.9582L81.0945 33.9405V35.9645C81.364 35.9822 81.566 35.9911 81.7008 35.9911C81.8355 35.997 82.0142 36 82.2368 36C83.3439 36 84.082 35.7781 84.451 35.3342C84.8201 34.8963 85.3209 33.76 85.9536 31.9253L89.2398 22.4089H86.5774L84.6004 29.5462L82.5092 22.4089H79.7237L83.2385 32.5112C83.2619 32.5822 83.2092 32.7775 83.0803 33.0971C82.9573 33.4167 82.8226 33.6268 82.6761 33.7274C82.5238 33.8339 82.3364 33.902 82.1138 33.9316C81.8912 33.9612 81.6568 33.9701 81.4108 33.9582Z" fill="black"/>
<path d="M105.902 21.2258V29.8624H104.306V32.0882H110V29.8624H108.59V21.2258H110V19H104.306V21.2258H105.902Z" fill="black"/>
<path fill-rule="evenodd" clip-rule="evenodd" d="M42.1932 9.8066C42.5833 9.8066 42.91 9.88815 43.1732 10.0512C43.3255 10.1453 43.4983 10.31 43.6918 10.5452V8H44.5148V14.9347H43.7441V14.2337C43.5443 14.5442 43.308 14.7685 43.0352 14.9065C42.7625 15.0445 42.4501 15.1135 42.098 15.1135C41.5303 15.1135 41.0387 14.8783 40.6232 14.4078C40.2077 13.9342 40 13.3053 40 12.5212C40 11.7873 40.1887 11.1521 40.5661 10.6158C40.9467 10.0763 41.4891 9.8066 42.1932 9.8066ZM40.9039 12.4742C40.9039 13.0136 41.0197 13.4653 41.2512 13.8291C41.4827 14.1929 41.8538 14.3748 42.3644 14.3748C42.7609 14.3748 43.086 14.207 43.3397 13.8714C43.5966 13.5327 43.7251 13.0481 43.7251 12.4177C43.7251 11.781 43.5935 11.3105 43.3302 11.0063C43.067 10.6989 42.7419 10.5452 42.3549 10.5452C41.9236 10.5452 41.5731 10.7083 41.3035 11.0345C41.0371 11.3607 40.9039 11.8406 40.9039 12.4742Z" fill="black"/>
<path fill-rule="evenodd" clip-rule="evenodd" d="M78.6572 9.8066C79.0474 9.8066 79.374 9.88815 79.6373 10.0512C79.7895 10.1453 79.9624 10.31 80.1558 10.5452V8H80.9789V14.9347H80.2082V14.2337C80.0084 14.5442 79.7721 14.7685 79.4993 14.9065C79.2265 15.0445 78.9141 15.1135 78.5621 15.1135C77.9944 15.1135 77.5028 14.8783 77.0873 14.4078C76.6718 13.9342 76.4641 13.3053 76.4641 12.5212C76.4641 11.7873 76.6528 11.1521 77.0302 10.6158C77.4108 10.0763 77.9531 9.8066 78.6572 9.8066ZM77.368 12.4742C77.368 13.0136 77.4837 13.4653 77.7153 13.8291C77.9468 14.1929 78.3179 14.3748 78.8285 14.3748C79.225 14.3748 79.5501 14.207 79.8038 13.8714C80.0607 13.5327 80.1891 13.0481 80.1891 12.4177C80.1891 11.781 80.0575 11.3105 79.7943 11.0063C79.531 10.6989 79.2059 10.5452 78.819 10.5452C78.3877 10.5452 78.0372 10.7083 77.7676 11.0345C77.5012 11.3607 77.368 11.8406 77.368 12.4742Z" fill="black"/>
<path fill-rule="evenodd" clip-rule="evenodd" d="M85.4136 14.8171C85.255 14.7073 85.0854 14.5317 84.9046 14.2902V14.9347H84.1148V8H84.9474V10.5076C85.1345 10.2661 85.3581 10.0826 85.6182 9.95715C85.8783 9.82856 86.1605 9.76426 86.465 9.76426C87.0993 9.76426 87.6131 9.98067 88.0064 10.4135C88.4029 10.8432 88.6011 11.4783 88.6011 12.3189C88.6011 13.1156 88.406 13.7774 88.0159 14.3043C87.6258 14.8312 87.0851 15.0947 86.3937 15.0947C86.0067 15.0947 85.68 15.0021 85.4136 14.8171ZM86.3413 14.3466C86.8044 14.3466 87.1501 14.1647 87.3784 13.8009C87.61 13.437 87.7257 12.9572 87.7257 12.3612C87.7257 11.8312 87.61 11.3921 87.3784 11.0439C87.1501 10.6958 86.8123 10.5217 86.3651 10.5217C85.975 10.5217 85.6325 10.6644 85.3375 10.9498C85.0457 11.2353 84.8998 11.7057 84.8998 12.3612C84.8998 12.8348 84.9601 13.2191 85.0806 13.5139C85.3058 14.069 85.726 14.3466 86.3413 14.3466Z" fill="black"/>
<path d="M97.4226 10.0418C97.2609 10.1453 97.0785 10.3241 96.8755 10.5782V8H96.0192V14.9347H96.8755V12.2624C96.8755 11.5912 97.0198 11.1349 97.3085 10.8934C97.5971 10.6519 97.919 10.5311 98.2742 10.5311C98.7024 10.5311 98.9942 10.6691 99.1496 10.9451C99.2447 11.1176 99.2923 11.3889 99.2923 11.759V14.9347H100.172V11.7026C100.172 11.207 100.101 10.8197 99.9584 10.5405C99.6951 10.0293 99.194 9.77367 98.455 9.77367C98.0427 9.77367 97.6986 9.86306 97.4226 10.0418Z" fill="black"/>
<path fill-rule="evenodd" clip-rule="evenodd" d="M116.939 11.6368C116.872 11.7748 116.74 11.8563 116.544 11.8814L115.178 12.0508C114.699 12.1104 114.313 12.2688 114.018 12.5259C113.723 12.7831 113.575 13.1454 113.575 13.6127C113.575 14.0393 113.724 14.3953 114.022 14.6807C114.324 14.963 114.711 15.1041 115.183 15.1041C115.576 15.1041 115.936 15.021 116.263 14.8548C116.59 14.6885 116.84 14.4925 117.015 14.2667C117.043 14.4674 117.092 14.6227 117.162 14.7324C117.295 14.9394 117.51 15.043 117.805 15.043C117.925 15.043 118.02 15.0382 118.09 15.0288C118.16 15.0194 118.261 14.9959 118.394 14.9583V14.3325C118.341 14.342 118.29 14.3498 118.242 14.3561C118.195 14.3592 118.152 14.3608 118.114 14.3608C117.996 14.3608 117.919 14.3341 117.881 14.2808C117.846 14.2275 117.828 14.1569 117.828 14.0691V11.1663C117.828 10.6895 117.643 10.3383 117.272 10.1124C116.897 9.88662 116.411 9.7737 115.811 9.7737C115.294 9.7737 114.839 9.89603 114.446 10.1407C114.056 10.3822 113.853 10.8134 113.837 11.4345H114.636C114.668 11.1741 114.736 10.9781 114.841 10.8464C115.028 10.608 115.345 10.4888 115.792 10.4888C116.179 10.4888 116.476 10.5547 116.682 10.6864C116.891 10.815 116.996 11.0236 116.996 11.3121C116.996 11.4533 116.977 11.5615 116.939 11.6368ZM114.741 14.1726C114.56 14.0314 114.47 13.8386 114.47 13.5939C114.47 13.2709 114.601 13.0356 114.864 12.8882C115.02 12.8004 115.253 12.7361 115.564 12.6953L116.082 12.6294C116.241 12.6106 116.403 12.5793 116.568 12.5354C116.732 12.4914 116.867 12.4366 116.972 12.3707V13.0529C116.972 13.5735 116.734 13.9483 116.258 14.1773C115.976 14.3153 115.684 14.3843 115.383 14.3843C115.136 14.3843 114.921 14.3137 114.741 14.1726Z" fill="black"/>
<path d="M119.765 11.5379C119.724 11.7135 119.703 11.966 119.703 12.2954V14.9347H118.847V9.89596H119.66V10.6111C119.901 10.3162 120.157 10.1045 120.426 9.97594C120.696 9.84735 120.996 9.78305 121.325 9.78305C122.049 9.78305 122.537 10.0324 122.791 10.5311C122.93 10.804 123 11.1945 123 11.7026V14.9347H122.129V11.759C122.129 11.4516 122.083 11.2039 121.991 11.0157C121.839 10.702 121.563 10.5452 121.164 10.5452C120.961 10.5452 120.794 10.5656 120.664 10.6064C120.429 10.6754 120.223 10.8134 120.046 11.0204C119.903 11.1866 119.809 11.3591 119.765 11.5379Z" fill="black"/>
<path d="M107.338 10.9169C107.074 11.1647 106.943 11.6132 106.943 12.2624V14.9347H106.086V9.89596H106.933V10.6111C107.136 10.3633 107.32 10.1829 107.485 10.07C107.767 9.87871 108.088 9.78305 108.446 9.78305C108.852 9.78305 109.179 9.88185 109.426 10.0794C109.566 10.1924 109.693 10.3586 109.807 10.5781C109.997 10.3084 110.221 10.1092 110.478 9.98065C110.734 9.84892 111.023 9.78305 111.343 9.78305C112.029 9.78305 112.495 10.0277 112.742 10.517C112.875 10.7804 112.942 11.1349 112.942 11.5802V14.9347H112.052V11.4344C112.052 11.0988 111.967 10.8683 111.795 10.7428C111.627 10.6173 111.421 10.5546 111.177 10.5546C110.841 10.5546 110.551 10.666 110.306 10.8887C110.065 11.1113 109.945 11.483 109.945 12.0037V14.9347H109.074V11.6461C109.074 11.3042 109.033 11.0549 108.95 10.8981C108.82 10.6628 108.578 10.5452 108.223 10.5452C107.899 10.5452 107.604 10.6691 107.338 10.9169Z" fill="black"/>
<path d="M101.248 14.3513C101.105 14.0941 101.034 13.7506 101.034 13.3209V9.89592H101.909V13.241C101.909 13.4981 101.95 13.7083 102.033 13.8714C102.185 14.1725 102.469 14.323 102.884 14.323C103.481 14.323 103.887 14.0596 104.102 13.5326C104.22 13.2504 104.278 12.863 104.278 12.3706V9.89592H105.135V14.9346H104.326L104.335 14.1913C104.224 14.3826 104.086 14.5442 103.921 14.6759C103.595 14.9393 103.198 15.0711 102.732 15.0711C102.006 15.0711 101.511 14.8311 101.248 14.3513Z" fill="black"/>
<path d="M92.5405 12.1071C92.956 10.956 93.224 10.219 93.3445 9.89592H92.3978L91.0229 13.9984L89.6575 9.89592H88.687L90.5709 15.0805C90.5265 15.1934 90.4551 15.3659 90.3568 15.598C90.2585 15.8301 90.2014 15.9587 90.1856 15.9838C90.1348 16.0591 90.0714 16.1218 89.9953 16.172C89.9223 16.2253 89.8065 16.252 89.648 16.252C89.5972 16.252 89.5385 16.2473 89.4719 16.2378C89.4053 16.2284 89.2975 16.2033 89.1484 16.1626V16.9341C89.2436 16.9592 89.3229 16.9765 89.3863 16.9859C89.4529 16.9953 89.5465 17 89.667 17C90.1618 17 90.5106 16.8589 90.7136 16.5766C90.9166 16.2943 91.2655 15.5102 91.7603 14.2242C91.9696 13.6785 92.2297 12.9728 92.5405 12.1071Z" fill="black"/>
<path fill-rule="evenodd" clip-rule="evenodd" d="M74.9649 10.0371C74.6256 9.86774 74.2751 9.78305 73.9135 9.78305C73.1968 9.78305 72.6163 10.0355 72.1723 10.5405C71.7283 11.0455 71.5063 11.7026 71.5063 12.5118C71.5063 13.3335 71.7267 13.9734 72.1676 14.4313C72.6084 14.8861 73.146 15.1135 73.7803 15.1135C74.0404 15.1135 74.2735 15.0884 74.4797 15.0382C74.8634 14.9504 75.1854 14.781 75.4454 14.5301C75.6008 14.3858 75.7404 14.2008 75.8641 13.9749C75.991 13.746 76.0655 13.539 76.0877 13.3539H75.2456C75.1822 13.5766 75.0744 13.7726 74.9221 13.942C74.6557 14.2337 74.2989 14.3795 73.8517 14.3795C73.3728 14.3795 73.0191 14.2258 72.7908 13.9185C72.5624 13.608 72.4403 13.1971 72.4245 12.6858H76.1591C76.1591 12.1777 76.1337 11.8076 76.0829 11.5755C76.0258 11.2368 75.9117 10.9404 75.7404 10.6864C75.5628 10.4198 75.3043 10.2033 74.9649 10.0371ZM75.0363 11.1333C75.1632 11.3528 75.244 11.6461 75.2789 12.0131H72.4482C72.4641 11.5802 72.6052 11.2243 72.8717 10.9451C73.1381 10.6628 73.4679 10.5217 73.8612 10.5217C74.4099 10.5217 74.8016 10.7256 75.0363 11.1333Z" fill="black"/>
<path fill-rule="evenodd" clip-rule="evenodd" d="M68.0856 10.056C67.8826 10.1814 67.6955 10.3587 67.5242 10.5876V9.91955H66.6917V16.9436H67.548V14.3702C67.7352 14.5991 67.9048 14.7607 68.0571 14.8548C68.3172 15.021 68.6391 15.1041 69.0228 15.1041C69.5113 15.1041 69.9394 14.9551 70.3074 14.6572C70.8878 14.1867 71.178 13.4026 71.178 12.3048C71.178 11.4925 70.9766 10.8683 70.5738 10.4324C70.171 9.99326 69.681 9.7737 69.1037 9.7737C68.7136 9.7737 68.3742 9.8678 68.0856 10.056ZM69.903 13.8715C69.6397 14.2008 69.3083 14.3655 68.9087 14.3655C68.3187 14.3655 67.9128 14.1052 67.6908 13.5845C67.5734 13.3116 67.5147 12.9807 67.5147 12.5918C67.5147 12.1088 67.5734 11.7105 67.6908 11.3968C67.9096 10.8103 68.3156 10.517 68.9087 10.517C69.4986 10.517 69.9046 10.7946 70.1266 11.3498C70.2439 11.6383 70.3026 11.9833 70.3026 12.3848C70.3026 13.0435 70.1694 13.539 69.903 13.8715Z" fill="black"/>
<path fill-rule="evenodd" clip-rule="evenodd" d="M65.4447 10.3993C64.9912 9.96652 64.4361 9.7501 63.7796 9.7501C63.0469 9.7501 62.4634 10.001 62.0289 10.5029C61.5943 11.0047 61.3771 11.679 61.3771 12.5259C61.3771 13.3163 61.5832 13.9467 61.9955 14.4172C62.4079 14.8845 62.9645 15.1181 63.6654 15.1181C64.5059 15.1181 65.1259 14.8531 65.5256 14.3231C65.9252 13.793 66.125 13.1218 66.125 12.3095C66.125 11.4689 65.8982 10.8322 65.4447 10.3993ZM64.9119 13.7538C64.7025 14.1772 64.314 14.3889 63.7463 14.3889C63.2293 14.3889 62.8519 14.2101 62.614 13.8526C62.3761 13.495 62.2572 13.0481 62.2572 12.5118C62.2572 11.9535 62.3761 11.4767 62.614 11.0815C62.8519 10.6863 63.2325 10.4887 63.7558 10.4887C64.3457 10.4887 64.7612 10.7208 65.0023 11.185C65.1545 11.4799 65.2306 11.8625 65.2306 12.333C65.2306 12.8536 65.1244 13.3272 64.9119 13.7538Z" fill="black"/>
<path fill-rule="evenodd" clip-rule="evenodd" d="M58.0844 10.0371C57.745 9.86774 57.3945 9.78305 57.033 9.78305C56.3162 9.78305 55.7358 10.0355 55.2917 10.5405C54.8477 11.0455 54.6257 11.7026 54.6257 12.5118C54.6257 13.3335 54.8461 13.9734 55.287 14.4313C55.7278 14.8861 56.2654 15.1135 56.8998 15.1135C57.1598 15.1135 57.3929 15.0884 57.5991 15.0382C57.9829 14.9504 58.3048 14.781 58.5649 14.5301C58.7203 14.3858 58.8598 14.2008 58.9835 13.9749C59.1104 13.746 59.1849 13.539 59.2071 13.3539H58.3651C58.3016 13.5766 58.1938 13.7726 58.0415 13.942C57.7751 14.2337 57.4183 14.3795 56.9711 14.3795C56.4922 14.3795 56.1386 14.2258 55.9102 13.9185C55.6819 13.608 55.5597 13.1971 55.5439 12.6858H59.2785C59.2785 12.1777 59.2531 11.8076 59.2024 11.5755C59.1453 11.2368 59.0311 10.9404 58.8598 10.6864C58.6822 10.4198 58.4237 10.2033 58.0844 10.0371ZM58.1557 11.1333C58.2826 11.3528 58.3635 11.6461 58.3984 12.0131H55.5677C55.5835 11.5802 55.7247 11.2243 55.9911 10.9451C56.2575 10.6628 56.5874 10.5217 56.9806 10.5217C57.5293 10.5217 57.921 10.7256 58.1557 11.1333Z" fill="black"/>
<path d="M52.2086 13.9984L50.848 9.89592H49.8537L51.7328 14.9346H52.6463L54.5683 9.89592H53.6311L52.2086 13.9984Z" fill="black"/>
<path fill-rule="evenodd" clip-rule="evenodd" d="M48.5686 10.0371C48.2293 9.86774 47.8788 9.78305 47.5172 9.78305C46.8004 9.78305 46.22 10.0355 45.776 10.5405C45.332 11.0455 45.11 11.7026 45.11 12.5118C45.11 13.3335 45.3304 13.9734 45.7713 14.4313C46.2121 14.8861 46.7497 15.1135 47.384 15.1135C47.6441 15.1135 47.8772 15.0884 48.0834 15.0382C48.4671 14.9504 48.7891 14.781 49.0491 14.5301C49.2045 14.3858 49.3441 14.2008 49.4678 13.9749C49.5947 13.746 49.6692 13.539 49.6914 13.3539H48.8493C48.7859 13.5766 48.6781 13.7726 48.5258 13.942C48.2594 14.2337 47.9026 14.3795 47.4554 14.3795C46.9765 14.3795 46.6228 14.2258 46.3945 13.9185C46.1661 13.608 46.044 13.1971 46.0282 12.6858H49.7627C49.7627 12.1777 49.7374 11.8076 49.6866 11.5755C49.6295 11.2368 49.5154 10.9404 49.3441 10.6864C49.1665 10.4198 48.908 10.2033 48.5686 10.0371ZM48.64 11.1333C48.7669 11.3528 48.8477 11.6461 48.8826 12.0131H46.0519C46.0678 11.5802 46.2089 11.2243 46.4754 10.9451C46.7418 10.6628 47.0716 10.5217 47.4649 10.5217C48.0136 10.5217 48.4053 10.7256 48.64 11.1333Z" fill="black"/>
<path d="M60.825 8.0236H59.9687V14.9348H60.825V8.0236Z" fill="black"/>
</svg>
