<svg width="131" height="42" viewBox="0 0 131 42" fill="none" xmlns="http://www.w3.org/2000/svg">
<path d="M0.5 0.5H116C124.008 0.5 130.5 6.99187 130.5 15V41.5H15C6.99187 41.5 0.5 35.0081 0.5 27V0.5Z" fill="white" stroke="black"/>
<path d="M29.8497 24.1575C26.3836 26.9643 21.4266 26.9643 17.9605 24.1575L19.3007 22.5026C21.9854 24.6766 25.8248 24.6766 28.5095 22.5026L29.8497 24.1575Z" fill="black"/>
<path d="M19.404 17.6365V20.5134H21.5336V17.6365H19.404Z" fill="black"/>
<path d="M26.012 17.6365V20.5134H28.1415V17.6365H26.012Z" fill="black"/>
<path fill-rule="evenodd" clip-rule="evenodd" d="M23.5 33C29.8513 33 35 27.8513 35 21.5C35 15.1487 29.8513 10 23.5 10C17.1487 10 12 15.1487 12 21.5C12 27.8513 17.1487 33 23.5 33ZM23.5 30.8705C28.6752 30.8705 32.8705 26.6752 32.8705 21.5C32.8705 16.3248 28.6752 12.1295 23.5 12.1295C18.3248 12.1295 14.1295 16.3248 14.1295 21.5C14.1295 26.6752 18.3248 30.8705 23.5 30.8705Z" fill="black"/>
<path fill-rule="evenodd" clip-rule="evenodd" d="M45.2991 10.1326C45.0254 9.96305 44.6858 9.87827 44.2802 9.87827C43.5482 9.87827 42.9843 10.1587 42.5886 10.7196C42.1962 11.2772 42 11.9375 42 12.7006C42 13.5158 42.216 14.1696 42.648 14.662C43.0799 15.1511 43.591 15.3957 44.1813 15.3957C44.5473 15.3957 44.8721 15.3239 45.1557 15.1805C45.4392 15.037 45.6849 14.8038 45.8926 14.481V15.2098H46.6939V8H45.8382V10.6462C45.6371 10.4016 45.4574 10.2304 45.2991 10.1326ZM43.3008 14.0604C43.0601 13.6821 42.9398 13.2125 42.9398 12.6517C42.9398 11.993 43.0783 11.494 43.3553 11.1549C43.6355 10.8158 43.9999 10.6462 44.4484 10.6462C44.8507 10.6462 45.1886 10.806 45.4623 11.1256C45.736 11.4419 45.8729 11.931 45.8729 12.593C45.8729 13.2484 45.7393 13.7522 45.4722 14.1044C45.2084 14.4533 44.8704 14.6277 44.4583 14.6277C43.9274 14.6277 43.5416 14.4386 43.3008 14.0604Z" fill="black"/>
<path d="M87.6682 11.0082C87.3681 11.2593 87.2181 11.7337 87.2181 12.4315V15.2098H86.3278V8H87.2181V10.6804C87.4291 10.4163 87.6187 10.2304 87.7869 10.1228C88.0738 9.93696 88.4315 9.84403 88.8602 9.84403C89.6285 9.84403 90.1495 10.1098 90.4232 10.6413C90.5716 10.9315 90.6458 11.3343 90.6458 11.8495V15.2098H89.7307V11.9082C89.7307 11.5234 89.6813 11.2413 89.5823 11.062C89.4208 10.775 89.1174 10.6315 88.6722 10.6315C88.3029 10.6315 87.9682 10.7571 87.6682 11.0082Z" fill="black"/>
<path fill-rule="evenodd" clip-rule="evenodd" d="M108.882 12.0354C109.087 12.0093 109.224 11.9245 109.293 11.781C109.332 11.7028 109.352 11.5903 109.352 11.4435C109.352 11.1435 109.243 10.9267 109.026 10.793C108.811 10.656 108.503 10.5875 108.101 10.5875C107.636 10.5875 107.306 10.7115 107.112 10.9593C107.003 11.0962 106.932 11.3001 106.899 11.5707H106.068C106.084 10.9251 106.295 10.4767 106.701 10.2256C107.11 9.97124 107.583 9.84407 108.121 9.84407C108.744 9.84407 109.25 9.96146 109.639 10.1962C110.025 10.431 110.218 10.7962 110.218 11.2919V14.3098C110.218 14.4012 110.236 14.4745 110.272 14.53C110.312 14.5854 110.393 14.6131 110.515 14.6131C110.554 14.6131 110.599 14.6115 110.648 14.6082C110.698 14.6017 110.75 14.5935 110.806 14.5838V15.2343C110.668 15.2734 110.562 15.2979 110.49 15.3077C110.417 15.3175 110.318 15.3224 110.193 15.3224C109.886 15.3224 109.664 15.2147 109.525 14.9995C109.453 14.8854 109.402 14.724 109.372 14.5153C109.191 14.7501 108.93 14.9539 108.59 15.1267C108.251 15.2995 107.877 15.3859 107.468 15.3859C106.976 15.3859 106.574 15.2392 106.261 14.9457C105.951 14.649 105.796 14.2789 105.796 13.8354C105.796 13.3495 105.949 12.9729 106.256 12.7055C106.563 12.4381 106.965 12.2734 107.463 12.2115L108.882 12.0354ZM106.726 13.8158C106.726 14.0702 106.82 14.2707 107.008 14.4175C107.196 14.5642 107.418 14.6376 107.675 14.6376C107.989 14.6376 108.292 14.5658 108.585 14.4223C109.08 14.1843 109.327 13.7946 109.327 13.2533V12.5441C109.219 12.6126 109.078 12.6696 108.907 12.7153C108.736 12.7609 108.567 12.7935 108.402 12.8131L107.863 12.8816C107.54 12.924 107.298 12.9908 107.136 13.0821C106.863 13.2354 106.726 13.48 106.726 13.8158Z" fill="black"/>
<path d="M112.637 11.6783C112.594 11.8609 112.572 12.1234 112.572 12.4658V15.2098H111.682V9.97118H112.528V10.7147C112.778 10.4081 113.044 10.188 113.324 10.0543C113.604 9.92063 113.916 9.85379 114.259 9.85379C115.011 9.85379 115.519 10.113 115.782 10.6315C115.927 10.9152 116 11.3212 116 11.8494V15.2098H115.095V11.9081C115.095 11.5886 115.047 11.331 114.951 11.1353C114.793 10.8092 114.506 10.6462 114.091 10.6462C113.88 10.6462 113.707 10.6674 113.571 10.7098C113.327 10.7815 113.113 10.925 112.928 11.1402C112.78 11.313 112.683 11.4924 112.637 11.6783Z" fill="black"/>
<path fill-rule="evenodd" clip-rule="evenodd" d="M93.3166 32.1501L97.96 19.2823H101.032L105.64 32.1501H102.692L101.853 29.505H97.0596L96.1592 32.1501H93.3166ZM99.4696 22.2243L97.7923 27.2876H101.094L99.4696 22.2243Z" fill="black"/>
<path fill-rule="evenodd" clip-rule="evenodd" d="M80.4833 23.7782C79.7712 22.8761 78.7825 22.4251 77.5172 22.4251C76.8168 22.4251 76.2401 22.5706 75.7869 22.8616C75.4044 23.0944 75.0542 23.4319 74.7364 23.8742V19.2998H72.2293V32.1501H74.6923V30.9541C75.0277 31.4197 75.3397 31.7457 75.628 31.9319C76.1106 32.2462 76.7492 32.4033 77.5437 32.4033C78.809 32.4033 79.7947 31.9173 80.501 30.9454C81.2072 29.9735 81.5603 28.7484 81.5603 27.2702C81.5603 25.8443 81.2013 24.6803 80.4833 23.7782ZM78.3823 29.5748C78.0233 30.0928 77.5201 30.3518 76.8727 30.3518C76.1253 30.3518 75.5692 30.0841 75.2043 29.5486C74.8394 29.0132 74.657 28.3381 74.657 27.5233C74.657 26.8308 74.7453 26.2662 74.9218 25.8297C75.2632 25.0091 75.8899 24.5988 76.8021 24.5988C77.7026 24.5988 78.3205 25.0179 78.656 25.8559C78.8325 26.2982 78.9208 26.8569 78.9208 27.532C78.9208 28.3759 78.7413 29.0569 78.3823 29.5748Z" fill="black"/>
<path d="M66.3871 30.2558C66.287 30.1568 66.237 29.9124 66.237 29.5225V24.4941H67.7995V22.7219H66.237V20.068H63.7476V22.7219H62.4058V24.4941H63.7476V30.3518C63.7476 30.9454 63.8888 31.3848 64.1713 31.67C64.6068 32.1181 65.419 32.3218 66.6078 32.2811L67.7995 32.2374V30.378C67.7171 30.3838 67.6318 30.3896 67.5435 30.3954H67.3052C66.7932 30.3954 66.4871 30.3489 66.3871 30.2558Z" fill="black"/>
<path fill-rule="evenodd" clip-rule="evenodd" d="M61.0897 30.9978C61.9019 30.0026 62.308 28.8066 62.308 27.4098C62.308 26.0363 61.9019 24.8462 61.0897 23.8393C60.2776 22.8325 59.0446 22.3291 57.3909 22.3291C55.7372 22.3291 54.5042 22.8325 53.6921 23.8393C52.8799 24.8462 52.4738 26.0363 52.4738 27.4098C52.4738 28.8066 52.8799 30.0026 53.6921 30.9978C54.5042 31.9872 55.7372 32.4819 57.3909 32.4819C59.0446 32.4819 60.2776 31.9872 61.0897 30.9978ZM59.077 29.6185C58.6827 30.1365 58.1177 30.3954 57.3821 30.3954C56.6464 30.3954 56.0785 30.1365 55.6783 29.6185C55.284 29.1005 55.0869 28.3643 55.0869 27.4098C55.0869 26.4554 55.284 25.7221 55.6783 25.2099C56.0785 24.6919 56.6464 24.433 57.3821 24.433C58.1177 24.433 58.6827 24.6919 59.077 25.2099C59.4713 25.7221 59.6685 26.4554 59.6685 27.4098C59.6685 28.3643 59.4713 29.1005 59.077 29.6185Z" fill="black"/>
<path d="M48.0681 22.4076C49.0627 22.4076 49.8748 22.6666 50.5045 23.1846C51.1401 23.6967 51.4579 24.5494 51.4579 25.7424V32.1501H48.8802V26.3622C48.8802 25.8617 48.8125 25.4776 48.6772 25.2099C48.43 24.721 47.9592 24.4766 47.2647 24.4766C46.4114 24.4766 45.8258 24.8345 45.508 25.5504C45.3432 25.9287 45.2608 26.4117 45.2608 26.9995V32.1501H42.7538V22.6521H45.1814V24.0401C45.5051 23.5512 45.8111 23.1991 46.0995 22.9838C46.6174 22.5997 47.2736 22.4076 48.0681 22.4076Z" fill="black"/>
<path d="M83.0352 33.9747L83.353 33.9921C83.6002 34.0038 83.8356 33.995 84.0593 33.9659C84.2829 33.9368 84.4712 33.8699 84.6242 33.7652C84.7714 33.6662 84.9067 33.4596 85.0303 33.1453C85.1598 32.8311 85.2127 32.639 85.1892 32.5692L81.6581 22.6346H84.4565L86.5575 29.6534L88.5438 22.6346H91.2186L87.917 31.993C87.2814 33.7972 86.7782 34.9146 86.4074 35.3453C86.0367 35.7818 85.2951 36 84.1828 36C83.9592 36 83.7797 35.9971 83.6443 35.9913C83.509 35.9913 83.306 35.9825 83.0352 35.9651V33.9747Z" fill="black"/>
<path d="M98.9058 11.0326C98.6321 11.2902 98.4953 11.7565 98.4953 12.4315V15.2098H97.6049V9.97118H98.4854V10.7147C98.6964 10.457 98.8877 10.2695 99.0591 10.1522C99.3526 9.95324 99.6856 9.85379 100.058 9.85379C100.48 9.85379 100.82 9.9565 101.077 10.1619C101.222 10.2793 101.354 10.4522 101.473 10.6804C101.671 10.4 101.903 10.1929 102.17 10.0592C102.437 9.92226 102.737 9.85379 103.07 9.85379C103.783 9.85379 104.267 10.1081 104.525 10.6168C104.663 10.8907 104.732 11.2592 104.732 11.7223V15.2098H103.807V11.5706C103.807 11.2217 103.718 10.9821 103.54 10.8516C103.366 10.7212 103.151 10.656 102.897 10.656C102.548 10.656 102.246 10.7717 101.992 11.0032C101.742 11.2348 101.616 11.6212 101.616 12.1625V15.2098H100.711V11.7908C100.711 11.4353 100.668 11.1761 100.583 11.013C100.447 10.7685 100.195 10.6462 99.8258 10.6462C99.4894 10.6462 99.1828 10.775 98.9058 11.0326Z" fill="black"/>
<path d="M92.1692 14.6032C92.0208 14.3358 91.9466 13.9788 91.9466 13.532V9.97114H92.8567V13.4489C92.8567 13.7163 92.8995 13.9347 92.9853 14.1043C93.1436 14.4174 93.4387 14.5739 93.8706 14.5739C94.4906 14.5739 94.9126 14.3 95.1369 13.7521C95.2589 13.4587 95.3199 13.0559 95.3199 12.544V9.97114H96.2102V15.2097H95.3693L95.3792 14.4369C95.2638 14.6358 95.1204 14.8038 94.9489 14.9407C94.6093 15.2146 94.1971 15.3516 93.7124 15.3516C92.9572 15.3516 92.4428 15.1021 92.1692 14.6032Z" fill="black"/>
<path d="M81.9008 12.2701C82.3327 11.0733 82.6114 10.307 82.7367 9.97114H81.7524L80.3229 14.2364L78.9034 9.97114H77.8944L79.853 15.3614C79.8069 15.4788 79.7327 15.6581 79.6305 15.8994C79.5283 16.1407 79.4689 16.2744 79.4524 16.3005C79.3996 16.3788 79.3337 16.444 79.2546 16.4962C79.1787 16.5516 79.0584 16.5793 78.8935 16.5793C78.8407 16.5793 78.7797 16.5744 78.7105 16.5646C78.6412 16.5549 78.5291 16.5288 78.3741 16.4864V17.2886C78.4731 17.3146 78.5555 17.3326 78.6215 17.3424C78.6907 17.3521 78.788 17.357 78.9133 17.357C79.4277 17.357 79.7904 17.2103 80.0014 16.9168C80.2125 16.6233 80.5752 15.8081 81.0896 14.4712C81.3072 13.9038 81.5776 13.1701 81.9008 12.2701Z" fill="black"/>
<path fill-rule="evenodd" clip-rule="evenodd" d="M74.2987 10.0348C74.0283 10.1652 73.7958 10.356 73.6013 10.6071V8H72.7357V15.2098H73.5568V14.5397C73.7447 14.7908 73.9211 14.9734 74.086 15.0875C74.363 15.2799 74.7026 15.3761 75.1049 15.3761C75.8238 15.3761 76.386 15.1022 76.7916 14.5544C77.1972 14.0065 77.4 13.3185 77.4 12.4902C77.4 11.6163 77.1939 10.956 76.7817 10.5093C76.3728 10.0592 75.8386 9.83425 75.1791 9.83425C74.8626 9.83425 74.5691 9.9011 74.2987 10.0348ZM76.1288 14.031C75.8914 14.4093 75.532 14.5984 75.0505 14.5984C74.4108 14.5984 73.9739 14.3098 73.7398 13.7326C73.6145 13.4261 73.5518 13.0267 73.5518 12.5343C73.5518 11.8527 73.7035 11.3636 74.0069 11.0669C74.3135 10.7701 74.6697 10.6218 75.0753 10.6218C75.5402 10.6218 75.8914 10.8027 76.1288 11.1647C76.3695 11.5266 76.4899 11.9832 76.4899 12.5343C76.4899 13.1538 76.3695 13.6527 76.1288 14.031Z" fill="black"/>
<path d="M65.9889 10.0543C65.7086 10.188 65.4432 10.4081 65.1926 10.7147V9.97118H64.3468V15.2098H65.2371V12.4658C65.2371 12.1234 65.2585 11.8609 65.3014 11.6783C65.3476 11.4924 65.4448 11.313 65.5932 11.1402C65.7779 10.925 65.9922 10.7815 66.2362 10.7098C66.3714 10.6674 66.5445 10.6462 66.7556 10.6462C67.1711 10.6462 67.4579 10.8092 67.6162 11.1353C67.7118 11.331 67.7597 11.5886 67.7597 11.9081V15.2098H68.6648V11.8494C68.6648 11.3212 68.5923 10.9152 68.4472 10.6315C68.1834 10.113 67.6756 9.85379 66.9238 9.85379C66.5808 9.85379 66.2692 9.92063 65.9889 10.0543Z" fill="black"/>
<path d="M58.4561 14.0994L57.4371 9.97114H56.4628L57.9911 15.2097H58.9161L59.9597 11.1548L61.038 15.2097H61.9629L63.5012 9.97114H62.6109L61.5276 14.075L60.4889 9.97114H59.4898L58.4561 14.0994Z" fill="black"/>
<path fill-rule="evenodd" clip-rule="evenodd" d="M54.6374 11.781C54.5682 11.9245 54.4313 12.0093 54.2269 12.0354L52.8073 12.2115C52.3094 12.2734 51.9071 12.4381 51.6005 12.7055C51.2938 12.9729 51.1405 13.3495 51.1405 13.8354C51.1405 14.2789 51.2955 14.649 51.6054 14.9457C51.9187 15.2392 52.321 15.3859 52.8123 15.3859C53.2212 15.3859 53.5954 15.2995 53.9351 15.1267C54.2747 14.9539 54.5352 14.7501 54.7166 14.5153C54.7462 14.724 54.7974 14.8854 54.8699 14.9995C55.0084 15.2147 55.231 15.3224 55.5376 15.3224C55.6629 15.3224 55.7619 15.3175 55.8344 15.3077C55.9069 15.2979 56.0125 15.2734 56.151 15.2343V14.5838C56.0949 14.5935 56.0421 14.6017 55.9927 14.6082C55.9432 14.6115 55.8987 14.6131 55.8591 14.6131C55.7371 14.6131 55.6563 14.5854 55.6168 14.53C55.5805 14.4745 55.5624 14.4012 55.5624 14.3098V11.2919C55.5624 10.7962 55.3695 10.431 54.9837 10.1962C54.5946 9.96146 54.0884 9.84407 53.4652 9.84407C52.9277 9.84407 52.4545 9.97124 52.0456 10.2256C51.64 10.4767 51.429 10.9251 51.4125 11.5707H52.2435C52.2764 11.3001 52.3473 11.0962 52.4562 10.9593C52.6507 10.7115 52.9805 10.5875 53.4454 10.5875C53.8477 10.5875 54.156 10.656 54.3703 10.793C54.588 10.9267 54.6968 11.1435 54.6968 11.4435C54.6968 11.5903 54.677 11.7028 54.6374 11.781ZM52.3523 14.4175C52.1643 14.2707 52.0704 14.0702 52.0704 13.8158C52.0704 13.48 52.2072 13.2354 52.4809 13.0821C52.6425 12.9908 52.8848 12.924 53.208 12.8816L53.7471 12.8131C53.912 12.7935 54.0802 12.7609 54.2516 12.7153C54.4231 12.6696 54.5632 12.6126 54.672 12.5441V13.2533C54.672 13.7946 54.4247 14.1843 53.9301 14.4223C53.6366 14.5658 53.3333 14.6376 53.02 14.6376C52.7628 14.6376 52.5402 14.5642 52.3523 14.4175Z" fill="black"/>
<path d="M49.3944 10.2353C49.1241 10.4864 48.9542 10.7 48.885 10.8761V9.97118H48.0392V15.2098H48.9295V12.1967C48.9295 11.825 49.0499 11.4973 49.2906 11.2136C49.5313 10.9266 49.8759 10.7831 50.3243 10.7831C50.3771 10.7831 50.4249 10.7848 50.4678 10.788C50.5139 10.7913 50.5634 10.7978 50.6161 10.8076V9.87824C50.5205 9.86846 50.4529 9.86194 50.4134 9.85868C50.3738 9.85542 50.3458 9.85379 50.3293 9.85379C49.9764 9.85379 49.6648 9.98096 49.3944 10.2353Z" fill="black"/>
<path d="M107.958 29.9643V21.4711H106.355V19.2823H112.076V21.4711H110.659V29.9643H112.076V32.1531H106.355V29.9643H107.958Z" fill="black"/>
</svg>
