<svg width="131" height="42" viewBox="0 0 131 42" fill="none" xmlns="http://www.w3.org/2000/svg">
<path d="M116 0.5C124.008 0.5 130.5 6.99187 130.5 15V41.5H15C6.99187 41.5 0.5 35.0081 0.5 27V0.5H116Z" fill="white" stroke="black"/>
<path d="M29.8497 24.1575C26.3836 26.9643 21.4266 26.9643 17.9605 24.1575L19.3007 22.5026C21.9854 24.6766 25.8248 24.6766 28.5095 22.5026L29.8497 24.1575Z" fill="black"/>
<path d="M19.404 17.6365V20.5134H21.5336V17.6365H19.404Z" fill="black"/>
<path d="M26.012 17.6365V20.5134H28.1415V17.6365H26.012Z" fill="black"/>
<path fill-rule="evenodd" clip-rule="evenodd" d="M23.5 33C29.8513 33 35 27.8513 35 21.5C35 15.1487 29.8513 10 23.5 10C17.1487 10 12 15.1487 12 21.5C12 27.8513 17.1487 33 23.5 33ZM23.5 30.8705C28.6752 30.8705 32.8705 26.6752 32.8705 21.5C32.8705 16.3248 28.6752 12.1295 23.5 12.1295C18.3248 12.1295 14.1295 16.3248 14.1295 21.5C14.1295 26.6752 18.3248 30.8705 23.5 30.8705Z" fill="black"/>
<path fill-rule="evenodd" clip-rule="evenodd" d="M93.3168 32.15L97.9602 19.2822H101.032L105.64 32.15H102.692L101.853 29.5049H97.0597L96.1593 32.15H93.3168ZM99.4697 22.2242L97.7924 27.2875H101.094L99.4697 22.2242Z" fill="black"/>
<path fill-rule="evenodd" clip-rule="evenodd" d="M80.4834 23.7781C79.7713 22.876 78.7826 22.425 77.5173 22.425C76.817 22.425 76.2402 22.5705 75.7871 22.8615C75.4045 23.0943 75.0544 23.4318 74.7366 23.8741V19.2997H72.2295V32.15H74.6924V30.954C75.0279 31.4196 75.3398 31.7455 75.6282 31.9318C76.1108 32.2461 76.7493 32.4032 77.5438 32.4032C78.8091 32.4032 79.7949 31.9172 80.5011 30.9453C81.2073 29.9734 81.5604 28.7483 81.5604 27.27C81.5604 25.8442 81.2014 24.6802 80.4834 23.7781ZM78.3824 29.5747C78.0234 30.0927 77.5203 30.3517 76.8729 30.3517C76.1255 30.3517 75.5693 30.084 75.2044 29.5485C74.8396 29.0131 74.6571 28.338 74.6571 27.5232C74.6571 26.8306 74.7454 26.2661 74.922 25.8296C75.2633 25.009 75.8901 24.5987 76.8023 24.5987C77.7027 24.5987 78.3206 25.0177 78.6561 25.8558C78.8327 26.2981 78.9209 26.8568 78.9209 27.5319C78.9209 28.3758 78.7414 29.0567 78.3824 29.5747Z" fill="black"/>
<path d="M66.3872 30.2556C66.2872 30.1567 66.2372 29.9123 66.2372 29.5223V24.4939H67.7997V22.7218H66.2372V20.0679H63.7477V22.7218H62.4059V24.4939H63.7477V30.3517C63.7477 30.9453 63.889 31.3847 64.1715 31.6699C64.607 32.118 65.4191 32.3217 66.6079 32.281L67.7997 32.2373V30.3779C67.7173 30.3837 67.632 30.3895 67.5437 30.3953H67.3053C66.7933 30.3953 66.4873 30.3488 66.3872 30.2556Z" fill="black"/>
<path fill-rule="evenodd" clip-rule="evenodd" d="M61.0899 30.9977C61.902 30.0025 62.3081 28.8065 62.3081 27.4097C62.3081 26.0362 61.902 24.8461 61.0899 23.8392C60.2777 22.8324 59.0448 22.3289 57.391 22.3289C55.7373 22.3289 54.5044 22.8324 53.6922 23.8392C52.8801 24.8461 52.474 26.0362 52.474 27.4097C52.474 28.8065 52.8801 30.0025 53.6922 30.9977C54.5044 31.9871 55.7373 32.4818 57.391 32.4818C59.0448 32.4818 60.2777 31.9871 61.0899 30.9977ZM59.0771 29.6184C58.6828 30.1363 58.1179 30.3953 57.3822 30.3953C56.6466 30.3953 56.0786 30.1363 55.6785 29.6184C55.2842 29.1004 55.087 28.3642 55.087 27.4097C55.087 26.4553 55.2842 25.7219 55.6785 25.2098C56.0786 24.6918 56.6466 24.4328 57.3822 24.4328C58.1179 24.4328 58.6828 24.6918 59.0771 25.2098C59.4715 25.7219 59.6686 26.4553 59.6686 27.4097C59.6686 28.3642 59.4715 29.1004 59.0771 29.6184Z" fill="black"/>
<path d="M48.0682 22.4075C49.0628 22.4075 49.875 22.6665 50.5047 23.1845C51.1403 23.6966 51.4581 24.5492 51.4581 25.7423V32.15H48.8804V26.3621C48.8804 25.8616 48.8127 25.4775 48.6773 25.2098C48.4302 24.7209 47.9593 24.4765 47.2649 24.4765C46.4115 24.4765 45.826 24.8344 45.5082 25.5503C45.3434 25.9286 45.261 26.4116 45.261 26.9994V32.15H42.7539V22.6519H45.1815V24.04C45.5052 23.5511 45.8113 23.199 46.0996 22.9837C46.6175 22.5996 47.2737 22.4075 48.0682 22.4075Z" fill="black"/>
<path d="M83.0354 33.9746L83.3532 33.992C83.6004 34.0037 83.8358 33.9949 84.0594 33.9658C84.283 33.9367 84.4714 33.8698 84.6244 33.765C84.7715 33.6661 84.9069 33.4595 85.0305 33.1452C85.1599 32.831 85.2129 32.6389 85.1894 32.5691L81.6582 22.6345H84.4566L86.5577 29.6533L88.5439 22.6345H91.2187L87.9171 31.9929C87.2815 33.7971 86.7783 34.9145 86.4076 35.3451C86.0368 35.7816 85.2953 35.9999 84.183 35.9999C83.9594 35.9999 83.7799 35.997 83.6445 35.9912C83.5091 35.9912 83.3061 35.9824 83.0354 35.965V33.9746Z" fill="black"/>
<path d="M107.958 29.9642V21.471H106.355V19.2822H112.076V21.471H110.66V29.9642H112.076V32.153H106.355V29.9642H107.958Z" fill="black"/>
<path d="M78.4102 9.63867L79.8213 13.9248L81.2412 9.63867H82.2197C82.0952 9.97617 81.8179 10.7467 81.3887 11.9492C81.0676 12.8535 80.7993 13.591 80.583 14.1611C80.0721 15.504 79.7117 16.323 79.502 16.6182C79.2922 16.9131 78.9311 17.0605 78.4199 17.0605C78.2956 17.0605 78.1986 17.0557 78.1299 17.0459C78.0645 17.0361 77.9827 17.0183 77.8848 16.9922V16.1855C78.0387 16.2281 78.1499 16.2548 78.2188 16.2646C78.2874 16.2745 78.348 16.2793 78.4004 16.2793C78.5642 16.2793 78.6844 16.251 78.7598 16.1953C78.8382 16.1429 78.9037 16.0775 78.9561 15.999C78.9725 15.9727 79.0313 15.838 79.1328 15.5957C79.2343 15.3534 79.3086 15.1736 79.3545 15.0557L77.4082 9.63867H78.4102Z" fill="black"/>
<path d="M118.395 9.50098C119.188 9.50098 119.76 9.73392 120.11 10.1992C120.33 10.4941 120.436 10.8126 120.43 11.1533H119.594C119.577 10.9535 119.507 10.7712 119.383 10.6074C119.18 10.3748 118.827 10.2578 118.326 10.2578C117.992 10.2578 117.738 10.3225 117.564 10.4502C117.394 10.578 117.309 10.7464 117.309 10.9561C117.309 11.1854 117.421 11.3692 117.647 11.5068C117.778 11.5887 117.972 11.6604 118.228 11.7227L118.812 11.8652C119.448 12.0192 119.875 12.1683 120.091 12.3125C120.435 12.5385 120.606 12.8942 120.606 13.3789C120.606 13.8474 120.428 14.253 120.071 14.5938C119.717 14.9345 119.176 15.1044 118.449 15.1045C117.666 15.1045 117.11 14.9281 116.782 14.5742C116.458 14.2171 116.285 13.7761 116.262 13.252H117.112C117.139 13.5466 117.212 13.7725 117.333 13.9297C117.556 14.2148 117.943 14.3574 118.493 14.3574C118.821 14.3574 119.109 14.2874 119.358 14.1465C119.607 14.0023 119.731 13.7806 119.731 13.4824C119.731 13.2564 119.631 13.0847 119.432 12.9668C119.304 12.8947 119.052 12.8108 118.675 12.7158L117.972 12.5391C117.523 12.4277 117.192 12.3026 116.979 12.165C116.6 11.9259 116.409 11.5954 116.409 11.1729C116.409 10.675 116.588 10.2718 116.944 9.96387C117.305 9.65589 117.788 9.50102 118.395 9.50098Z" fill="black"/>
<path fill-rule="evenodd" clip-rule="evenodd" d="M46.4033 14.9033H45.6074V14.1709C45.401 14.4953 45.1568 14.7299 44.875 14.874C44.5932 15.0182 44.2699 15.0898 43.9062 15.0898C43.3199 15.0898 42.812 14.844 42.3828 14.3525C41.9536 13.8578 41.7393 13.2009 41.7393 12.3818C41.7393 11.6151 41.9343 10.9509 42.3242 10.3906C42.7174 9.82729 43.2776 9.5459 44.0049 9.5459C44.4079 9.5459 44.7456 9.63041 45.0176 9.80078C45.1748 9.89907 45.3529 10.0717 45.5527 10.3174V7.6582H46.4033V14.9033ZM44.1719 10.3174C43.7264 10.3174 43.3644 10.4876 43.0859 10.8281C42.8108 11.1688 42.6729 11.6703 42.6729 12.332C42.6729 12.8955 42.7921 13.368 43.0312 13.748C43.2704 14.1281 43.6542 14.3183 44.1816 14.3184C44.5912 14.3184 44.9273 14.1426 45.1895 13.792C45.4548 13.4381 45.5879 12.9319 45.5879 12.2734C45.5879 11.6083 45.4517 11.1167 45.1797 10.7988C44.9077 10.4777 44.5716 10.3174 44.1719 10.3174Z" fill="black"/>
<path fill-rule="evenodd" clip-rule="evenodd" d="M53.1318 9.51074C53.7511 9.51074 54.2549 9.62931 54.6416 9.86523C55.0246 10.1011 55.2158 10.4681 55.2158 10.9658V13.999C55.2159 14.0906 55.2345 14.1641 55.2705 14.2197C55.3098 14.2754 55.3897 14.3037 55.5107 14.3037C55.55 14.3037 55.5945 14.3021 55.6436 14.2988C55.6926 14.2923 55.7452 14.2833 55.8008 14.2734V14.9277C55.6633 14.967 55.5584 14.9912 55.4863 15.001C55.4143 15.0108 55.3158 15.0156 55.1914 15.0156C54.8868 15.0156 54.6659 14.9076 54.5283 14.6914C54.4563 14.5767 54.4055 14.4147 54.376 14.2051C54.1958 14.4409 53.9369 14.6457 53.5996 14.8193C53.2621 14.993 52.8897 15.0801 52.4834 15.0801C51.9952 15.0801 51.5955 14.9326 51.2842 14.6377C50.9762 14.3395 50.8223 13.9671 50.8223 13.5215C50.8224 13.0335 50.9747 12.6553 51.2793 12.3867C51.584 12.118 51.9837 11.9519 52.4785 11.8896L53.8887 11.7129C54.0916 11.6867 54.228 11.6019 54.2969 11.458C54.3362 11.3794 54.3564 11.2656 54.3564 11.1182C54.3564 10.8168 54.2475 10.5992 54.0312 10.4648C53.8183 10.3273 53.5119 10.2578 53.1123 10.2578C52.6505 10.2579 52.3232 10.383 52.1299 10.6318C52.0218 10.7694 51.9507 10.9742 51.918 11.2461H51.0928C51.1092 10.5974 51.3187 10.1468 51.7217 9.89453C52.1279 9.63905 52.5979 9.5108 53.1318 9.51074ZM54.3311 12.2246C54.2231 12.2933 54.0841 12.3507 53.9141 12.3965C53.7437 12.4424 53.5759 12.4755 53.4121 12.4951L52.877 12.5635C52.556 12.606 52.3149 12.673 52.1543 12.7646C51.8824 12.9186 51.7462 13.1646 51.7461 13.502C51.7461 13.7575 51.8397 13.959 52.0264 14.1064C52.213 14.2538 52.434 14.3281 52.6895 14.3281C53.0007 14.3281 53.3022 14.2554 53.5938 14.1113C54.0853 13.8721 54.3311 13.4805 54.3311 12.9365V12.2246Z" fill="black"/>
<path fill-rule="evenodd" clip-rule="evenodd" d="M107.444 9.51074C108.063 9.51079 108.567 9.62936 108.953 9.86523C109.336 10.1011 109.528 10.468 109.528 10.9658V13.999C109.528 14.0906 109.546 14.1641 109.582 14.2197C109.621 14.2754 109.702 14.3037 109.823 14.3037C109.862 14.3037 109.906 14.3021 109.955 14.2988C110.004 14.2923 110.058 14.2833 110.113 14.2734V14.9277C109.976 14.9671 109.87 14.9911 109.798 15.001C109.726 15.0108 109.627 15.0156 109.503 15.0156C109.198 15.0155 108.977 14.9076 108.84 14.6914C108.768 14.5767 108.717 14.4147 108.688 14.2051C108.507 14.4409 108.249 14.6457 107.911 14.8193C107.574 14.993 107.201 15.0801 106.795 15.0801C106.307 15.08 105.907 14.9326 105.596 14.6377C105.288 14.3395 105.134 13.9671 105.134 13.5215C105.134 13.0335 105.286 12.6553 105.591 12.3867C105.896 12.1181 106.295 11.9519 106.79 11.8896L108.201 11.7129C108.404 11.6867 108.54 11.6018 108.608 11.458C108.648 11.3794 108.668 11.2656 108.668 11.1182C108.668 10.817 108.56 10.5992 108.344 10.4648C108.131 10.3272 107.824 10.2578 107.424 10.2578C106.962 10.2579 106.635 10.3829 106.441 10.6318C106.333 10.7694 106.262 10.9742 106.229 11.2461H105.404C105.421 10.5974 105.63 10.1468 106.033 9.89453C106.44 9.63895 106.91 9.51074 107.444 9.51074ZM108.644 12.2246C108.535 12.2934 108.396 12.3506 108.226 12.3965C108.055 12.4424 107.887 12.4755 107.724 12.4951L107.188 12.5635C106.867 12.6061 106.626 12.6729 106.466 12.7646C106.194 12.9186 106.058 13.1646 106.058 13.502C106.058 13.7574 106.151 13.959 106.338 14.1064C106.525 14.2539 106.746 14.3281 107.002 14.3281C107.313 14.3281 107.615 14.2554 107.906 14.1113C108.397 13.8721 108.644 13.4803 108.644 12.9365V12.2246Z" fill="black"/>
<path fill-rule="evenodd" clip-rule="evenodd" d="M73.1416 7.6582V10.2783C73.3349 10.026 73.5663 9.83419 73.835 9.70312C74.1035 9.56892 74.3947 9.50104 74.709 9.50098C75.3643 9.50098 75.8955 9.72754 76.3018 10.1797C76.7113 10.6285 76.916 11.2919 76.916 12.1699C76.916 13.0022 76.7145 13.6937 76.3115 14.2441C75.9085 14.7946 75.3501 15.0703 74.6357 15.0703C74.236 15.0703 73.8983 14.9736 73.623 14.7803C73.4592 14.6656 73.2844 14.4817 73.0977 14.2295V14.9033H72.2812V7.6582H73.1416ZM74.6064 10.293C74.2034 10.293 73.8496 10.4421 73.5449 10.7402C73.2435 11.0384 73.0928 11.53 73.0928 12.2148C73.0928 12.7095 73.1548 13.111 73.2793 13.4189C73.512 13.9987 73.9464 14.2891 74.582 14.2891C75.0602 14.289 75.4175 14.0987 75.6533 13.7188C75.8925 13.3387 76.0117 12.8373 76.0117 12.2148C76.0117 11.6611 75.8925 11.2016 75.6533 10.8379C75.4174 10.4744 75.0683 10.293 74.6064 10.293Z" fill="black"/>
<path d="M92.2764 9.63867V13.1338C92.2764 13.4022 92.3183 13.6217 92.4033 13.792C92.5606 14.1065 92.8541 14.2636 93.2832 14.2637C93.8992 14.2637 94.3192 13.9889 94.542 13.4385C94.6632 13.1436 94.7236 12.7389 94.7236 12.2246V9.63867H95.6084V14.9033H94.7725L94.7822 14.126C94.6676 14.3258 94.5258 14.4952 94.3555 14.6328C94.018 14.9081 93.6077 15.0459 93.126 15.0459C92.3759 15.0458 91.8647 14.795 91.5928 14.2939C91.4453 14.0253 91.3721 13.6657 91.3721 13.2168V9.63867H92.2764Z" fill="black"/>
<path d="M50.0996 9.52637C50.1389 9.52964 50.206 9.53609 50.3008 9.5459V10.4795C50.2485 10.4697 50.1991 10.4632 50.1533 10.46C50.1108 10.4567 50.063 10.4551 50.0107 10.4551C49.5653 10.4552 49.2225 10.5994 48.9834 10.8877C48.7445 11.1726 48.6251 11.5018 48.625 11.875V14.9033H47.7402V9.63867H48.5811V10.5479C48.65 10.371 48.8185 10.1564 49.0869 9.9043C49.3555 9.64881 49.6652 9.52158 50.0156 9.52148C50.032 9.52148 50.0603 9.52309 50.0996 9.52637Z" fill="black"/>
<path d="M58.0918 13.7871L59.1191 9.63867H60.1113L61.1436 13.7627L62.2197 9.63867H63.1045L61.5762 14.9033H60.6572L59.5859 10.8281L58.5488 14.9033H57.6299L56.1104 9.63867H57.0791L58.0918 13.7871Z" fill="black"/>
<path d="M66.5059 9.52148C67.2529 9.52148 67.7574 9.78175 68.0195 10.3027C68.1637 10.5878 68.2363 10.9955 68.2363 11.5264V14.9033H67.3369V11.585C67.3369 11.264 67.2893 11.0051 67.1943 10.8086C67.037 10.481 66.7517 10.3174 66.3389 10.3174C66.1294 10.3174 65.9575 10.3383 65.8232 10.3809C65.5808 10.4529 65.3671 10.5972 65.1836 10.8135C65.0362 10.9871 64.9394 11.1677 64.8936 11.3545C64.851 11.5379 64.8301 11.8017 64.8301 12.1455V14.9033H63.9453V9.63867H64.7861V10.3857C65.0351 10.0779 65.2988 9.85696 65.5771 9.72266C65.8556 9.58835 66.1652 9.52152 66.5059 9.52148Z" fill="black"/>
<path d="M86.6729 7.6582V10.3516C86.8825 10.0862 87.0712 9.89913 87.2383 9.79102C87.5233 9.6044 87.8789 9.51074 88.3047 9.51074C89.0681 9.51077 89.5855 9.77843 89.8574 10.3125C90.0049 10.6041 90.0791 11.0087 90.0791 11.5264V14.9033H89.1699V11.585C89.1699 11.1988 89.1206 10.9155 89.0225 10.7354C88.8619 10.4471 88.5603 10.3028 88.1182 10.3027C87.7513 10.3027 87.4182 10.4285 87.1201 10.6807C86.8219 10.933 86.6729 11.4101 86.6729 12.1113V14.9033H85.7881V7.6582H86.6729Z" fill="black"/>
<path d="M102.426 9.52148C103.133 9.52152 103.616 9.77695 103.871 10.2881C104.009 10.5633 104.077 10.9334 104.077 11.3984V14.9033H103.158V11.2461C103.158 10.8956 103.069 10.6545 102.893 10.5234C102.719 10.3925 102.506 10.3272 102.254 10.3271C101.907 10.3271 101.607 10.4433 101.354 10.6758C101.105 10.9084 100.98 11.2969 100.98 11.8408V14.9033H100.081V11.4678C100.081 11.1106 100.038 10.8494 99.9531 10.6855C99.8187 10.44 99.568 10.3174 99.2012 10.3174C98.8671 10.3174 98.5623 10.4464 98.2871 10.7051C98.0151 10.9639 97.8789 11.433 97.8789 12.1113V14.9033H96.9941V9.63867H97.8691V10.3857C98.0787 10.1271 98.2691 9.93925 98.4395 9.82129C98.7311 9.62141 99.0623 9.52148 99.4326 9.52148C99.8519 9.52153 100.19 9.62467 100.445 9.83105C100.589 9.94898 100.72 10.1225 100.838 10.3516C101.034 10.0698 101.266 9.86188 101.531 9.72754C101.797 9.58995 102.095 9.52148 102.426 9.52148Z" fill="black"/>
<path d="M113.544 9.52148C114.291 9.52157 114.796 9.78182 115.058 10.3027C115.202 10.5878 115.273 10.9957 115.273 11.5264V14.9033H114.374V11.585C114.374 11.264 114.326 11.0051 114.231 10.8086C114.074 10.4811 113.789 10.3174 113.376 10.3174C113.167 10.3174 112.995 10.3383 112.86 10.3809C112.618 10.4529 112.405 10.5974 112.222 10.8135C112.074 10.9871 111.978 11.1677 111.932 11.3545C111.889 11.538 111.867 11.8016 111.867 12.1455V14.9033H110.982V9.63867H111.823V10.3857C112.072 10.0779 112.336 9.85699 112.614 9.72266C112.893 9.58831 113.203 9.52148 113.544 9.52148Z" fill="black"/>
</svg>
