<svg width="131" height="42" viewBox="0 0 131 42" fill="none" xmlns="http://www.w3.org/2000/svg">
<path d="M116 0.5C124.008 0.5 130.5 6.99187 130.5 15V41.5H15C6.99187 41.5 0.5 35.0081 0.5 27V0.5H116Z" fill="white" stroke="black"/>
<path d="M29.8497 24.1575C26.3836 26.9643 21.4266 26.9643 17.9605 24.1575L19.3007 22.5026C21.9854 24.6766 25.8248 24.6766 28.5095 22.5026L29.8497 24.1575Z" fill="black"/>
<path d="M19.404 17.6365V20.5134H21.5336V17.6365H19.404Z" fill="black"/>
<path d="M26.012 17.6365V20.5134H28.1415V17.6365H26.012Z" fill="black"/>
<path fill-rule="evenodd" clip-rule="evenodd" d="M23.5 33C29.8513 33 35 27.8513 35 21.5C35 15.1487 29.8513 10 23.5 10C17.1487 10 12 15.1487 12 21.5C12 27.8513 17.1487 33 23.5 33ZM23.5 30.8705C28.6752 30.8705 32.8705 26.6752 32.8705 21.5C32.8705 16.3248 28.6752 12.1295 23.5 12.1295C18.3248 12.1295 14.1295 16.3248 14.1295 21.5C14.1295 26.6752 18.3248 30.8705 23.5 30.8705Z" fill="black"/>
<path fill-rule="evenodd" clip-rule="evenodd" d="M93.0602 32.1608L97.668 19.3289H100.716L105.289 32.1608H102.363L101.531 29.523H96.7744L95.8809 32.1608H93.0602ZM99.1659 22.2626L97.5015 27.3118H100.778L99.1659 22.2626Z" fill="black"/>
<path fill-rule="evenodd" clip-rule="evenodd" d="M80.3253 23.8122C79.6187 22.9126 78.6376 22.4628 77.382 22.4628C76.687 22.4628 76.1147 22.6079 75.665 22.8981C75.2854 23.1303 74.9379 23.4669 74.6225 23.908V19.3463H72.1347V32.1608H74.5787V30.9681C74.9116 31.4324 75.2211 31.7574 75.5073 31.9432C75.9862 32.2566 76.6198 32.4133 77.4082 32.4133C78.6638 32.4133 79.642 31.9287 80.3428 30.9594C81.0437 29.9902 81.3941 28.7685 81.3941 27.2944C81.3941 25.8725 81.0378 24.7118 80.3253 23.8122ZM78.2404 29.5927C77.8842 30.1092 77.3849 30.3675 76.7425 30.3675C76.0008 30.3675 75.4489 30.1005 75.0868 29.5666C74.7247 29.0326 74.5437 28.3594 74.5437 27.5469C74.5437 26.8562 74.6313 26.2933 74.8065 25.858C75.1452 25.0397 75.7672 24.6305 76.6724 24.6305C77.5659 24.6305 78.1791 25.0484 78.512 25.8841C78.6872 26.3252 78.7748 26.8824 78.7748 27.5556C78.7748 28.3971 78.5967 29.0761 78.2404 29.5927Z" fill="black"/>
<path d="M66.3373 30.2717C66.238 30.173 66.1883 29.9293 66.1883 29.5404V24.5261H67.7389V22.7588H66.1883V20.1124H63.718V22.7588H62.3865V24.5261H63.718V30.3675C63.718 30.9594 63.8582 31.3976 64.1385 31.682C64.5707 32.1289 65.3766 32.332 66.5563 32.2914L67.7389 32.2479V30.3936C67.6571 30.3994 67.5724 30.4052 67.4848 30.411H67.2483C66.7402 30.411 66.4365 30.3646 66.3373 30.2717Z" fill="black"/>
<path fill-rule="evenodd" clip-rule="evenodd" d="M61.0805 31.0117C61.8865 30.0192 62.2894 28.8266 62.2894 27.4337C62.2894 26.064 61.8865 24.8772 61.0805 23.8731C60.2746 22.8691 59.0511 22.3671 57.4101 22.3671C55.769 22.3671 54.5456 22.8691 53.7396 23.8731C52.9337 24.8772 52.5308 26.064 52.5308 27.4337C52.5308 28.8266 52.9337 30.0192 53.7396 31.0117C54.5456 31.9983 55.769 32.4916 57.4101 32.4916C59.0511 32.4916 60.2746 31.9983 61.0805 31.0117ZM59.0833 29.6362C58.692 30.1527 58.1313 30.411 57.4013 30.411C56.6713 30.411 56.1078 30.1527 55.7106 29.6362C55.3194 29.1197 55.1237 28.3855 55.1237 27.4337C55.1237 26.4819 55.3194 25.7506 55.7106 25.2399C56.1078 24.7234 56.6713 24.4651 57.4013 24.4651C58.1313 24.4651 58.692 24.7234 59.0833 25.2399C59.4745 25.7506 59.6702 26.4819 59.6702 27.4337C59.6702 28.3855 59.4745 29.1197 59.0833 29.6362Z" fill="black"/>
<path d="M48.1588 22.4454C49.1458 22.4454 49.9517 22.7037 50.5766 23.2202C51.2073 23.731 51.5226 24.5812 51.5226 25.7709V32.1608H48.9647V26.389C48.9647 25.8899 48.8976 25.5069 48.7632 25.2399C48.518 24.7524 48.0508 24.5086 47.3616 24.5086C46.5148 24.5086 45.9337 24.8656 45.6184 25.5794C45.4549 25.9567 45.3731 26.4384 45.3731 27.0245V32.1608H42.8853V22.6892H45.2943V24.0734C45.6155 23.5859 45.9191 23.2347 46.2053 23.02C46.7192 22.637 47.3704 22.4454 48.1588 22.4454Z" fill="black"/>
<path d="M82.8577 33.9803L83.173 33.9977C83.4183 34.0093 83.6519 34.0006 83.8738 33.9715C84.0958 33.9425 84.2826 33.8758 84.4345 33.7713C84.5805 33.6727 84.7148 33.4666 84.8374 33.1532C84.9659 32.8398 85.0185 32.6483 84.9951 32.5787L81.4911 22.6718H84.268L86.3529 29.671L88.3239 22.6718H90.9782L87.702 32.0041C87.0713 33.8032 86.5719 34.9175 86.204 35.347C85.8361 35.7823 85.1002 35.9999 83.9965 35.9999C83.7746 35.9999 83.5964 35.997 83.4621 35.9912C83.3278 35.9912 83.1263 35.9825 82.8577 35.9651V33.9803Z" fill="black"/>
<path d="M107.589 29.9811V21.5116H105.999V19.3289H111.675V21.5116H110.27V29.9811H111.675V32.1638H105.999V29.9811H107.589Z" fill="black"/>
<path d="M77.8408 9.63867L79.251 13.9248L80.6719 9.63867H81.6494C81.5249 9.97617 81.2486 10.7467 80.8193 11.9492C80.4982 12.8536 80.229 13.591 80.0127 14.1611C79.5017 15.5041 79.1414 16.3231 78.9316 16.6182C78.722 16.913 78.3616 17.0605 77.8506 17.0605C77.7262 17.0605 77.6293 17.0557 77.5605 17.0459C77.495 17.0361 77.4128 17.0184 77.3145 16.9922V16.1855C77.4682 16.2281 77.5796 16.2548 77.6484 16.2646C77.7172 16.2745 77.7786 16.2793 77.8311 16.2793C77.9947 16.2793 78.1141 16.251 78.1895 16.1953C78.268 16.1429 78.3334 16.0776 78.3857 15.999C78.4021 15.9728 78.4619 15.8382 78.5635 15.5957C78.6649 15.3536 78.7383 15.1735 78.7842 15.0557L76.8379 9.63867H77.8408Z" fill="black"/>
<path d="M117.825 9.50098C118.618 9.50106 119.189 9.73409 119.54 10.1992C119.76 10.4941 119.866 10.8125 119.859 11.1533H119.024C119.008 10.9534 118.937 10.7713 118.812 10.6074C118.609 10.3748 118.257 10.2588 117.756 10.2588C117.422 10.2588 117.168 10.3224 116.994 10.4502C116.824 10.5779 116.738 10.7465 116.738 10.9561C116.738 11.1854 116.852 11.3692 117.078 11.5068C117.209 11.5886 117.402 11.6605 117.657 11.7227L118.242 11.8652C118.878 12.0192 119.304 12.1684 119.521 12.3125C119.865 12.5386 120.036 12.8949 120.036 13.3799C120.036 13.8482 119.858 14.2531 119.501 14.5938C119.147 14.9345 118.606 15.1045 117.879 15.1045C117.096 15.1045 116.541 14.9279 116.213 14.5742C115.889 14.2171 115.714 13.7761 115.691 13.252H116.542C116.568 13.5465 116.642 13.7725 116.763 13.9297C116.985 14.2147 117.372 14.3574 117.923 14.3574C118.25 14.3574 118.539 14.2873 118.788 14.1465C119.037 14.0023 119.162 13.7806 119.162 13.4824C119.162 13.2566 119.062 13.0847 118.862 12.9668C118.735 12.8947 118.481 12.8108 118.104 12.7158L117.402 12.5391C116.953 12.4277 116.622 12.3027 116.409 12.165C116.029 11.9259 115.839 11.5953 115.839 11.1729C115.839 10.6748 116.018 10.2719 116.375 9.96387C116.735 9.65585 117.219 9.50098 117.825 9.50098Z" fill="black"/>
<path fill-rule="evenodd" clip-rule="evenodd" d="M59.9639 9.52148C60.3374 9.52148 60.7002 9.60919 61.0508 9.78613C61.4014 9.95979 61.6681 10.1863 61.8516 10.4648C62.0285 10.7302 62.1471 11.0397 62.2061 11.3936C62.2585 11.636 62.2842 12.0229 62.2842 12.5537H58.4258C58.4422 13.0878 58.5688 13.5174 58.8047 13.8418C59.0406 14.1626 59.4058 14.3232 59.9004 14.3232C60.3622 14.3232 60.7306 14.1707 61.0059 13.8662C61.1631 13.6893 61.2753 13.4845 61.3408 13.252H62.2109C62.188 13.4452 62.1105 13.6613 61.9795 13.9004C61.8517 14.1363 61.7074 14.3297 61.5469 14.4805C61.2782 14.7425 60.9453 14.919 60.5488 15.0107C60.336 15.0631 60.0956 15.0898 59.8271 15.0898C59.1718 15.0898 58.6156 14.8521 58.1602 14.377C57.7049 13.8986 57.4776 13.2303 57.4775 12.3721C57.4775 11.5268 57.7064 10.84 58.165 10.3125C58.6237 9.78506 59.2235 9.5216 59.9639 9.52148ZM59.9102 10.293C59.5039 10.293 59.1629 10.4405 58.8877 10.7354C58.6127 11.0269 58.4666 11.3986 58.4502 11.8506H61.375C61.3389 11.4673 61.2551 11.161 61.124 10.9316C60.8815 10.5058 60.477 10.293 59.9102 10.293Z" fill="black"/>
<path fill-rule="evenodd" clip-rule="evenodd" d="M67.666 7.6582V14.9033H66.8701V14.1709C66.6637 14.4952 66.4195 14.7299 66.1377 14.874C65.8559 15.0181 65.5326 15.0898 65.1689 15.0898C64.5826 15.0897 64.0746 14.8439 63.6455 14.3525C63.2164 13.8578 63.002 13.2008 63.002 12.3818C63.002 11.6151 63.197 10.9509 63.5869 10.3906C63.9801 9.82729 64.5404 9.54594 65.2676 9.5459C65.6705 9.5459 66.0083 9.63046 66.2803 9.80078C66.4376 9.89908 66.6165 10.0716 66.8164 10.3174V7.6582H67.666ZM65.4346 10.3174C64.9892 10.3174 64.6271 10.4876 64.3486 10.8281C64.0735 11.1688 63.9356 11.6704 63.9355 12.332C63.9355 12.8956 64.0557 13.3679 64.2949 13.748C64.5341 14.1279 64.917 14.3183 65.4443 14.3184C65.8539 14.3184 66.19 14.1426 66.4521 13.792C66.7175 13.4381 66.8506 12.932 66.8506 12.2734C66.8506 11.6083 66.7143 11.1167 66.4424 10.7988C66.1704 10.4778 65.8343 10.3174 65.4346 10.3174Z" fill="black"/>
<path fill-rule="evenodd" clip-rule="evenodd" d="M106.874 9.51074C107.493 9.51075 107.996 9.62932 108.383 9.86523C108.766 10.1011 108.958 10.4679 108.958 10.9658V13.999C108.958 14.0905 108.976 14.1641 109.012 14.2197C109.051 14.2754 109.132 14.3037 109.253 14.3037C109.292 14.3037 109.337 14.3021 109.386 14.2988C109.435 14.2923 109.487 14.2842 109.543 14.2744V14.9277C109.406 14.967 109.301 14.9911 109.229 15.001C109.156 15.0108 109.058 15.0166 108.934 15.0166C108.629 15.0166 108.407 14.9077 108.27 14.6914C108.198 14.5767 108.147 14.4146 108.117 14.2051C107.937 14.441 107.678 14.6457 107.341 14.8193C107.003 14.9929 106.632 15.08 106.226 15.0801C105.737 15.0801 105.338 14.9324 105.026 14.6377C104.718 14.3395 104.563 13.9671 104.563 13.5215C104.564 13.0337 104.716 12.6553 105.021 12.3867C105.325 12.118 105.726 11.9519 106.221 11.8896L107.631 11.7129C107.834 11.6867 107.97 11.602 108.039 11.458C108.078 11.3794 108.098 11.2656 108.098 11.1182C108.098 10.8169 107.99 10.5991 107.773 10.4648C107.56 10.3272 107.254 10.2588 106.854 10.2588C106.392 10.2588 106.064 10.3828 105.871 10.6318C105.763 10.7694 105.693 10.9743 105.66 11.2461H104.834C104.85 10.5975 105.06 10.1469 105.463 9.89453C105.869 9.63895 106.34 9.51074 106.874 9.51074ZM108.073 12.2246C107.965 12.2934 107.826 12.3506 107.655 12.3965C107.485 12.4423 107.318 12.4755 107.154 12.4951L106.618 12.5635C106.297 12.6061 106.056 12.6729 105.896 12.7646C105.624 12.9186 105.488 13.1647 105.488 13.502C105.488 13.7573 105.581 13.959 105.768 14.1064C105.954 14.2539 106.176 14.3281 106.432 14.3281C106.743 14.3281 107.044 14.2555 107.336 14.1113C107.827 13.8722 108.073 13.4811 108.073 12.9375V12.2246Z" fill="black"/>
<path fill-rule="evenodd" clip-rule="evenodd" d="M72.5713 7.6582V10.2783C72.7646 10.026 72.996 9.83419 73.2646 9.70312C73.5333 9.56878 73.8251 9.50098 74.1396 9.50098C74.7949 9.50102 75.3261 9.72754 75.7324 10.1797C76.1418 10.6285 76.3466 11.2921 76.3467 12.1699C76.3467 13.002 76.145 13.6937 75.7422 14.2441C75.3391 14.7946 74.7798 15.0703 74.0654 15.0703C73.666 15.0703 73.3288 14.9734 73.0537 14.7803C72.8899 14.6656 72.7141 14.4818 72.5273 14.2295V14.9033H71.7109V7.6582H72.5713ZM74.0361 10.293C73.6331 10.293 73.2793 10.4421 72.9746 10.7402C72.6732 11.0384 72.5225 11.5301 72.5225 12.2148C72.5225 12.7095 72.5845 13.111 72.709 13.4189C72.9416 13.9988 73.3761 14.2891 74.0117 14.2891C74.49 14.289 74.8471 14.0987 75.083 13.7188C75.3222 13.3387 75.4423 12.8373 75.4424 12.2148C75.4424 11.6611 75.3222 11.2016 75.083 10.8379C74.8471 10.4744 74.498 10.293 74.0361 10.293Z" fill="black"/>
<path d="M91.7061 13.1338C91.7061 13.4023 91.7489 13.6217 91.834 13.792C91.9913 14.1066 92.2846 14.2637 92.7139 14.2637C93.3297 14.2636 93.7489 13.9888 93.9717 13.4385C94.0929 13.1436 94.1533 12.7389 94.1533 12.2246V9.63867H95.0381V14.9033H94.2031L94.2129 14.127C94.0982 14.3267 93.9555 14.4953 93.7852 14.6328C93.4477 14.908 93.0382 15.0458 92.5566 15.0459C91.8063 15.0459 91.2944 14.7952 91.0225 14.2939C90.875 14.0253 90.8018 13.6657 90.8018 13.2168V9.63867H91.7061V13.1338Z" fill="black"/>
<path d="M43.7197 7.5791C43.7753 7.5791 43.8327 7.5817 43.8916 7.58496C43.9506 7.58824 44.0184 7.59306 44.0938 7.59961V8.40527C44.002 8.39872 43.9342 8.39551 43.8916 8.39551C43.8525 8.39226 43.8151 8.39064 43.7793 8.39062C43.5107 8.39062 43.3494 8.46079 43.2969 8.60156C43.2444 8.73919 43.2188 9.09391 43.2188 9.66406H44.0938V10.3613H43.209V14.9033H42.334V10.3613H41.6016V9.66406H42.334V8.83789C42.3471 8.47119 42.4109 8.20264 42.5254 8.03223C42.7318 7.73081 43.13 7.57914 43.7197 7.5791Z" fill="black"/>
<path d="M45.8281 14.9033H44.9434V9.66406H45.8281V14.9033Z" fill="black"/>
<path d="M48.0547 14.9033H47.1699V7.68262H48.0547V14.9033Z" fill="black"/>
<path d="M54.8184 9.52148C55.5261 9.52151 56.0081 9.77695 56.2637 10.2881C56.4011 10.5633 56.4697 10.9334 56.4697 11.3984V14.9033H55.5508V11.2461C55.5508 10.8956 55.4621 10.6545 55.2852 10.5234C55.1116 10.3925 54.8986 10.3272 54.6465 10.3271C54.2993 10.3271 53.9993 10.4433 53.7471 10.6758C53.4981 10.9084 53.3731 11.297 53.373 11.8408V14.9033H52.4736V11.4678C52.4736 11.1106 52.4309 10.8494 52.3457 10.6855C52.2113 10.4401 51.9605 10.3174 51.5938 10.3174C51.2596 10.3174 50.9549 10.4472 50.6797 10.7061C50.4079 10.965 50.2715 11.4333 50.2715 12.1113V14.9033H49.3867V9.63867H50.2617V10.3857C50.4713 10.1271 50.6617 9.93925 50.832 9.82129C51.1237 9.62141 51.4549 9.52148 51.8252 9.52148C52.2445 9.52152 52.5824 9.62466 52.8379 9.83105C52.9819 9.94898 53.1126 10.1225 53.2305 10.3516C53.4271 10.0698 53.6584 9.86188 53.9238 9.72754C54.1892 9.58995 54.4874 9.52148 54.8184 9.52148Z" fill="black"/>
<path d="M86.1025 10.3516C86.3122 10.0861 86.5009 9.89915 86.668 9.79102C86.953 9.60433 87.3086 9.51078 87.7344 9.51074C88.4979 9.51074 89.0161 9.77839 89.2881 10.3125C89.4355 10.6041 89.5088 11.0088 89.5088 11.5264V14.9033H88.5996V11.585C88.5996 11.1987 88.5503 10.9155 88.4521 10.7354C88.2916 10.447 87.9902 10.3027 87.5479 10.3027C87.1809 10.3027 86.848 10.4284 86.5498 10.6807C86.2516 10.933 86.1025 11.4101 86.1025 12.1113V14.9033H85.2178V7.6582H86.1025V10.3516Z" fill="black"/>
<path d="M101.855 9.52148C102.563 9.52148 103.045 9.77692 103.301 10.2881C103.438 10.5633 103.507 10.9334 103.507 11.3984V14.9033H102.588V11.2461C102.588 10.8956 102.499 10.6545 102.322 10.5234C102.149 10.3925 101.936 10.3271 101.684 10.3271C101.336 10.3272 101.036 10.4432 100.784 10.6758C100.535 10.9084 100.41 11.297 100.41 11.8408V14.9033H99.5107V11.4678C99.5107 11.1106 99.469 10.8494 99.3838 10.6855C99.2495 10.44 98.9985 10.3175 98.6318 10.3174C98.2976 10.3174 97.992 10.4472 97.7168 10.7061C97.4451 10.965 97.3096 11.4334 97.3096 12.1113V14.9033H96.4248V9.63867H97.2998V10.3857C97.5092 10.1273 97.699 9.93921 97.8691 9.82129C98.1608 9.62142 98.4921 9.5215 98.8623 9.52148C99.2817 9.52148 99.6194 9.62462 99.875 9.83105C100.019 9.94901 100.151 10.1223 100.269 10.3516C100.465 10.07 100.696 9.86184 100.961 9.72754C101.226 9.58994 101.525 9.52151 101.855 9.52148Z" fill="black"/>
<path d="M112.974 9.52148C113.721 9.52149 114.225 9.78174 114.487 10.3027C114.631 10.5878 114.704 10.9956 114.704 11.5264V14.9033H113.805V11.585C113.805 11.264 113.757 11.0051 113.662 10.8086C113.505 10.481 113.219 10.3174 112.807 10.3174C112.597 10.3174 112.424 10.3383 112.29 10.3809C112.048 10.453 111.835 10.5973 111.651 10.8135C111.504 10.9871 111.407 11.1677 111.361 11.3545C111.319 11.5379 111.298 11.8016 111.298 12.1455V14.9033H110.413V9.63867H111.253V10.3857C111.502 10.0777 111.766 9.857 112.045 9.72266C112.323 9.58837 112.633 9.52148 112.974 9.52148Z" fill="black"/>
<path d="M45.8281 8.68555H44.9434V7.68262H45.8281V8.68555Z" fill="black"/>
</svg>
