<svg width="131" height="42" viewBox="0 0 131 42" fill="none" xmlns="http://www.w3.org/2000/svg">
<path d="M116 0.5C124.008 0.5 130.5 6.99187 130.5 15V41.5H15C6.99187 41.5 0.5 35.0081 0.5 27V0.5H116Z" fill="white" stroke="black"/>
<path d="M28.8497 24.1575C25.3836 26.9643 20.4266 26.9643 16.9605 24.1575L18.3007 22.5026C20.9854 24.6766 24.8248 24.6766 27.5095 22.5026L28.8497 24.1575Z" fill="black"/>
<path d="M18.404 17.6365V20.5134H20.5336V17.6365H18.404Z" fill="black"/>
<path d="M25.012 17.6365V20.5134H27.1415V17.6365H25.012Z" fill="black"/>
<path fill-rule="evenodd" clip-rule="evenodd" d="M22.5 33C28.8513 33 34 27.8513 34 21.5C34 15.1487 28.8513 10 22.5 10C16.1487 10 11 15.1487 11 21.5C11 27.8513 16.1487 33 22.5 33ZM22.5 30.8705C27.6752 30.8705 31.8705 26.6752 31.8705 21.5C31.8705 16.3248 27.6752 12.1295 22.5 12.1295C17.3248 12.1295 13.1295 16.3248 13.1295 21.5C13.1295 26.6752 17.3248 30.8705 22.5 30.8705Z" fill="black"/>
<path fill-rule="evenodd" clip-rule="evenodd" d="M95.16 19.2822L90.552 32.15H93.3729L94.2664 29.5049H99.0233L99.8556 32.15H102.782L98.2086 19.2822H95.16ZM94.9935 27.2875L96.658 22.2242L98.2699 27.2875H94.9935Z" fill="black"/>
<path fill-rule="evenodd" clip-rule="evenodd" d="M74.8731 22.425C76.1288 22.425 77.11 22.876 77.8166 23.7781C78.5291 24.6802 78.8854 25.8442 78.8854 27.27C78.8854 28.7483 78.535 29.9734 77.8342 30.9453C77.1333 31.9172 76.1551 32.4032 74.8994 32.4032C74.111 32.4032 73.4773 32.2461 72.9984 31.9318C72.7122 31.7455 72.4027 31.4196 72.0698 30.954V32.15H69.6257V19.2997H72.1136V23.8741C72.429 23.4318 72.7765 23.0943 73.1561 22.8615C73.6058 22.5705 74.1782 22.425 74.8731 22.425ZM74.2336 30.3517C74.8761 30.3517 75.3754 30.0927 75.7317 29.5747C76.0879 29.0567 76.266 28.3758 76.266 27.5319C76.266 26.8568 76.1784 26.2981 76.0032 25.8558C75.6703 25.0177 75.0571 24.5987 74.1635 24.5987C73.2583 24.5987 72.6363 25.009 72.2976 25.8296C72.1224 26.2661 72.0348 26.8306 72.0348 27.5232C72.0348 28.338 72.2158 29.0131 72.5779 29.5485C72.94 30.084 73.4919 30.3517 74.2336 30.3517Z" fill="black"/>
<path d="M63.6791 29.5223C63.6791 29.9123 63.7287 30.1567 63.828 30.2556C63.9273 30.3488 64.231 30.3953 64.7391 30.3953H64.9756C65.0632 30.3895 65.1479 30.3837 65.2297 30.3779V32.2373L64.047 32.281C62.8673 32.3217 62.0613 32.118 61.6291 31.6699C61.3488 31.3847 61.2086 30.9453 61.2086 30.3517V24.4939H59.877V22.7218H61.2086V20.0679H63.6791V22.7218H65.2297V24.4939H63.6791V29.5223Z" fill="black"/>
<path fill-rule="evenodd" clip-rule="evenodd" d="M59.78 27.4097C59.78 28.8065 59.377 30.0025 58.571 30.9977C57.7651 31.9871 56.5416 32.4818 54.9004 32.4818C53.2593 32.4818 52.0358 31.9871 51.2298 30.9977C50.4239 30.0025 50.0209 28.8065 50.0209 27.4097C50.0209 26.0362 50.4239 24.8461 51.2298 23.8392C52.0358 22.8324 53.2593 22.3289 54.9004 22.3289C56.5416 22.3289 57.7651 22.8324 58.571 23.8392C59.377 24.8461 59.78 26.0362 59.78 27.4097ZM54.8917 30.3953C55.6217 30.3953 56.1824 30.1363 56.5737 29.6184C56.965 29.1004 57.1606 28.3642 57.1606 27.4097C57.1606 26.4553 56.965 25.7219 56.5737 25.2098C56.1824 24.6918 55.6217 24.4328 54.8917 24.4328C54.1616 24.4328 53.5981 24.6918 53.2009 25.2098C52.8096 25.7219 52.614 26.4553 52.614 27.4097C52.614 28.3642 52.8096 29.1004 53.2009 29.6184C53.5981 30.1363 54.1616 30.3953 54.8917 30.3953Z" fill="black"/>
<path d="M48.0666 23.1845C47.4417 22.6665 46.6358 22.4075 45.6488 22.4075C44.8603 22.4075 44.2091 22.5996 43.6952 22.9837C43.409 23.199 43.1053 23.5511 42.7841 24.04V22.6519H40.375V32.15H42.863V26.9994C42.863 26.4116 42.9447 25.9286 43.1082 25.5503C43.4236 24.8344 44.0047 24.4765 44.8516 24.4765C45.5407 24.4765 46.0079 24.7209 46.2532 25.2098C46.3876 25.4775 46.4547 25.8616 46.4547 26.3621V32.15H49.0128V25.7423C49.0128 24.5492 48.6974 23.6966 48.0666 23.1845Z" fill="black"/>
<path d="M80.6645 33.992L80.3491 33.9746V35.965C80.6177 35.9824 80.8192 35.9912 80.9536 35.9912C81.0879 35.997 81.266 35.9999 81.4879 35.9999C82.5918 35.9999 83.3276 35.7816 83.6956 35.3451C84.0635 34.9145 84.5628 33.7971 85.1936 31.9929L88.47 22.6345H85.8156L83.8445 29.6533L81.7595 22.6345H78.9825L82.4866 32.5691C82.51 32.6389 82.4574 32.831 82.3289 33.1452C82.2063 33.4595 82.072 33.6661 81.926 33.765C81.7741 33.8698 81.5872 33.9367 81.3653 33.9658C81.1434 33.9949 80.9098 34.0037 80.6645 33.992Z" fill="black"/>
<path d="M105.082 21.471V29.9642H103.491V32.153H109.168V29.9642H107.762V21.471H109.168V19.2822H103.491V21.471H105.082Z" fill="black"/>
<path d="M86.1484 13.9805L87.4893 9.93555H88.4121C88.2945 10.2543 88.0329 10.9807 87.6279 12.1152C87.3249 12.9687 87.0713 13.665 86.8672 14.2031C86.3849 15.4708 86.0446 16.2442 85.8467 16.5225C85.6487 16.8006 85.3084 16.9395 84.8262 16.9395C84.7088 16.9395 84.6177 16.935 84.5527 16.9258C84.4909 16.9165 84.4131 16.8997 84.3203 16.875V16.1143C84.4655 16.1544 84.5708 16.1792 84.6357 16.1885C84.7007 16.1978 84.7581 16.2021 84.8076 16.2021C84.9622 16.2021 85.0754 16.1756 85.1465 16.123C85.2206 16.0736 85.2826 16.0117 85.332 15.9375C85.3476 15.9125 85.4034 15.7859 85.499 15.5576C85.5949 15.3288 85.6647 15.1582 85.708 15.0469L83.8711 9.93555H84.8174L86.1484 13.9805Z" fill="black"/>
<path d="M52.0869 9.80566C52.8353 9.80566 53.3752 10.0247 53.7061 10.4639C53.9132 10.7422 54.014 11.0427 54.0078 11.3643H53.2188C53.2033 11.1756 53.137 11.0033 53.0195 10.8486C52.8278 10.6292 52.4953 10.5196 52.0225 10.5195C51.707 10.5195 51.4666 10.5796 51.3027 10.7002C51.142 10.8208 51.0615 10.9808 51.0615 11.1787C51.0617 11.395 51.1686 11.5685 51.3818 11.6982C51.5055 11.7755 51.6886 11.8436 51.9297 11.9023L52.4814 12.0361C53.0813 12.1815 53.4834 12.3229 53.6875 12.459C54.0119 12.6723 54.1747 13.0074 54.1748 13.4648C54.1748 13.9071 54.006 14.2897 53.6689 14.6113C53.335 14.9328 52.8241 15.0938 52.1377 15.0938C51.3989 15.0937 50.8747 14.9266 50.5654 14.5928C50.2593 14.2558 50.0959 13.8394 50.0742 13.3447H50.876C50.9007 13.6228 50.9707 13.836 51.085 13.9844C51.2952 14.2534 51.6602 14.3887 52.1797 14.3887C52.4889 14.3887 52.7611 14.3215 52.9961 14.1885C53.2311 14.0524 53.3486 13.8439 53.3486 13.5625C53.3486 13.3491 53.2541 13.1865 53.0654 13.0752C52.9447 13.0072 52.7068 12.9284 52.3516 12.8389L51.6885 12.6719C51.2648 12.5667 50.952 12.4492 50.751 12.3193C50.3924 12.0937 50.213 11.7815 50.2129 11.3828C50.2129 10.9128 50.3817 10.5319 50.7188 10.2412C51.0589 9.95059 51.5149 9.80568 52.0869 9.80566Z" fill="black"/>
<path d="M120.225 9.80566C120.973 9.80566 121.513 10.0248 121.844 10.4639C122.051 10.7422 122.152 11.0426 122.146 11.3643H121.356C121.341 11.1756 121.275 11.0033 121.157 10.8486C120.965 10.6292 120.633 10.5195 120.16 10.5195C119.845 10.5195 119.605 10.5798 119.441 10.7002C119.281 10.8208 119.2 10.9808 119.2 11.1787C119.2 11.3949 119.306 11.5685 119.52 11.6982C119.643 11.7756 119.826 11.8436 120.067 11.9023L120.619 12.0361C121.219 12.1815 121.621 12.3229 121.825 12.459C122.15 12.6723 122.312 13.0073 122.312 13.4648C122.312 13.9071 122.144 14.2897 121.807 14.6113C121.473 14.9327 120.963 15.0937 120.276 15.0938C119.537 15.0938 119.012 14.9267 118.703 14.5928C118.397 14.2558 118.234 13.8394 118.212 13.3447H119.015C119.039 13.6227 119.108 13.836 119.223 13.9844C119.433 14.2534 119.798 14.3886 120.317 14.3887C120.627 14.3887 120.899 14.3214 121.134 14.1885C121.369 14.0524 121.486 13.8439 121.486 13.5625C121.486 13.3492 121.393 13.1865 121.204 13.0752C121.083 13.0072 120.845 12.9285 120.489 12.8389L119.826 12.6719C119.403 12.5667 119.09 12.4492 118.889 12.3193C118.53 12.0937 118.351 11.7814 118.351 11.3828C118.351 10.9128 118.519 10.5319 118.856 10.2412C119.197 9.95059 119.653 9.80573 120.225 9.80566Z" fill="black"/>
<path fill-rule="evenodd" clip-rule="evenodd" d="M69.2764 9.82422C69.6287 9.82427 69.9701 9.90739 70.3008 10.0742C70.6317 10.2381 70.8844 10.452 71.0576 10.7148C71.2244 10.9652 71.336 11.2571 71.3916 11.5908C71.4411 11.8196 71.4658 12.1847 71.4658 12.6855H67.8242C67.8397 13.1896 67.959 13.5952 68.1816 13.9014C68.4043 14.2042 68.749 14.3555 69.2158 14.3555C69.6518 14.3555 70 14.2123 70.2598 13.9248C70.4082 13.7578 70.5133 13.5642 70.5752 13.3447H71.3955C71.3738 13.5271 71.3014 13.7314 71.1777 13.957C71.0572 14.1796 70.921 14.3617 70.7695 14.5039C70.516 14.7513 70.2023 14.9183 69.8281 15.0049C69.6272 15.0543 69.3999 15.0791 69.1465 15.0791C68.528 15.0791 68.0031 14.8556 67.5732 14.4072C67.1435 13.9558 66.9288 13.3246 66.9287 12.5146C66.9287 11.7168 67.1452 11.0682 67.5781 10.5703C68.0111 10.0725 68.5775 9.82422 69.2764 9.82422ZM69.2246 10.5518C68.8413 10.5519 68.5194 10.6915 68.2598 10.9697C68.0002 11.2449 67.8631 11.5959 67.8477 12.0225H70.6074C70.5734 11.6608 70.4947 11.3717 70.3711 11.1553C70.1423 10.7533 69.7596 10.5518 69.2246 10.5518Z" fill="black"/>
<path fill-rule="evenodd" clip-rule="evenodd" d="M76.2119 14.9033H75.4609V14.2119C75.2661 14.5181 75.0355 14.7389 74.7695 14.875C74.5036 15.011 74.1987 15.0791 73.8555 15.0791C73.3022 15.079 72.8229 14.8474 72.418 14.3838C72.0129 13.9168 71.8105 13.2965 71.8105 12.5234C71.8105 11.7998 71.9943 11.1733 72.3623 10.6445C72.7333 10.1129 73.262 9.84679 73.9482 9.84668C74.3286 9.84668 74.6476 9.92712 74.9043 10.0879C75.0527 10.1807 75.2215 10.3433 75.4102 10.5752V8.06543H76.2119V14.9033ZM74.1064 10.5752C73.6859 10.5752 73.3439 10.736 73.0811 11.0576C72.8213 11.3792 72.6914 11.8529 72.6914 12.4775C72.6915 13.0092 72.8046 13.4549 73.0303 13.8135C73.256 14.1718 73.6177 14.3515 74.1152 14.3516C74.5018 14.3516 74.819 14.1854 75.0664 13.8545C75.3168 13.5206 75.4423 13.0432 75.4424 12.4219C75.4424 11.7944 75.314 11.3303 75.0576 11.0303C74.801 10.7272 74.4837 10.5752 74.1064 10.5752Z" fill="black"/>
<path fill-rule="evenodd" clip-rule="evenodd" d="M61.8887 9.81445C62.473 9.8145 62.9477 9.92583 63.3125 10.1484C63.6743 10.3711 63.8555 10.7175 63.8555 11.1875V14.0498C63.8555 14.1363 63.8723 14.2063 63.9062 14.2588C63.9435 14.3111 64.0196 14.3369 64.1338 14.3369C64.1708 14.3369 64.2125 14.3361 64.2588 14.333C64.3052 14.3268 64.3547 14.3188 64.4072 14.3096V14.9268C64.2774 14.9638 64.1784 14.9868 64.1104 14.9961C64.0423 15.0054 63.9495 15.0098 63.832 15.0098C63.5447 15.0098 63.336 14.9079 63.2061 14.7041C63.138 14.5959 63.0894 14.4421 63.0615 14.2441C62.8915 14.4668 62.6476 14.6603 62.3291 14.8242C62.0107 14.9881 61.6597 15.0703 61.2764 15.0703C60.8156 15.0703 60.4383 14.9306 60.1445 14.6523C59.8538 14.3709 59.708 14.0202 59.708 13.5996C59.708 13.1389 59.8521 12.7819 60.1396 12.5283C60.4272 12.2747 60.8045 12.1183 61.2715 12.0596L62.6025 11.8926C62.7942 11.8678 62.9223 11.7873 62.9873 11.6514C63.0244 11.5771 63.043 11.4702 63.043 11.3311C63.0429 11.0468 62.9412 10.8416 62.7373 10.7148C62.5364 10.585 62.2472 10.5196 61.8701 10.5195C61.4342 10.5195 61.1249 10.6372 60.9424 10.8721C60.8403 11.002 60.7731 11.1955 60.7422 11.4521H59.9629C59.9783 10.8401 60.1766 10.4149 60.5566 10.1768C60.9401 9.93555 61.3846 9.81445 61.8887 9.81445ZM63.0205 12.375C62.9185 12.4399 62.7867 12.4938 62.626 12.5371C62.4652 12.5804 62.307 12.6113 62.1523 12.6299L61.6475 12.6953C61.3444 12.7355 61.1164 12.7992 60.9648 12.8857C60.7085 13.0311 60.5801 13.2627 60.5801 13.5811C60.5801 13.8222 60.6685 14.0122 60.8447 14.1514C61.021 14.2905 61.2295 14.3603 61.4707 14.3604C61.7644 14.3604 62.049 14.2923 62.3242 14.1562C62.788 13.9305 63.0204 13.5611 63.0205 13.0479V12.375Z" fill="black"/>
<path fill-rule="evenodd" clip-rule="evenodd" d="M110.555 9.81445C111.139 9.81445 111.615 9.92578 111.979 10.1484C112.341 10.3711 112.521 10.7176 112.521 11.1875V14.0498C112.522 14.1363 112.539 14.2063 112.573 14.2588C112.61 14.311 112.686 14.3369 112.8 14.3369C112.837 14.3369 112.879 14.3361 112.926 14.333C112.972 14.3268 113.022 14.3188 113.074 14.3096V14.9268C112.945 14.9638 112.845 14.9868 112.777 14.9961C112.709 15.0054 112.616 15.0098 112.499 15.0098C112.212 15.0098 112.002 14.9081 111.872 14.7041C111.804 14.5959 111.756 14.4421 111.729 14.2441C111.558 14.4667 111.314 14.6604 110.996 14.8242C110.678 14.9881 110.326 15.0703 109.942 15.0703C109.482 15.0702 109.104 14.9306 108.811 14.6523C108.52 14.371 108.375 14.02 108.375 13.5996C108.375 13.1388 108.519 12.7819 108.807 12.5283C109.094 12.2748 109.472 12.1183 109.938 12.0596L111.27 11.8926C111.461 11.8678 111.589 11.7874 111.654 11.6514C111.691 11.5771 111.71 11.4702 111.71 11.3311C111.71 11.0469 111.608 10.8416 111.404 10.7148C111.203 10.585 110.913 10.5195 110.536 10.5195C110.1 10.5196 109.791 10.6371 109.608 10.8721C109.506 11.002 109.44 11.1956 109.409 11.4521H108.63C108.645 10.84 108.843 10.4149 109.224 10.1768C109.607 9.9356 110.051 9.81451 110.555 9.81445ZM111.687 12.375C111.585 12.4398 111.453 12.4939 111.293 12.5371C111.132 12.5804 110.974 12.6113 110.819 12.6299L110.313 12.6953C110.011 12.7355 109.783 12.7992 109.632 12.8857C109.375 13.0311 109.247 13.2627 109.247 13.5811C109.247 13.8223 109.335 14.0122 109.512 14.1514C109.688 14.2905 109.897 14.3604 110.138 14.3604C110.431 14.3603 110.716 14.2923 110.991 14.1562C111.455 13.9305 111.686 13.561 111.687 13.0479V12.375Z" fill="black"/>
<path fill-rule="evenodd" clip-rule="evenodd" d="M80.1768 10.5381C80.3592 10.3 80.5775 10.1188 80.8311 9.99512C81.0845 9.86846 81.3596 9.8057 81.6562 9.80566C82.2747 9.80566 82.7757 10.0186 83.1592 10.4453C83.5457 10.869 83.7393 11.4954 83.7393 12.3242C83.7392 13.1094 83.5491 13.7618 83.1689 14.2812C82.7886 14.8008 82.2611 15.0605 81.5869 15.0605C81.2096 15.0605 80.8906 14.9696 80.6309 14.7871C80.4763 14.6789 80.3109 14.5055 80.1348 14.2676V14.9033H79.3652V8.06543H80.1768V10.5381ZM81.5586 10.5518C81.1784 10.5519 80.8441 10.6933 80.5566 10.9746C80.2725 11.2561 80.1299 11.7203 80.1299 12.3662C80.1299 12.8328 80.1892 13.2114 80.3066 13.502C80.5262 14.0493 80.9362 14.3232 81.5361 14.3232C81.9875 14.3232 82.3243 14.1437 82.5469 13.7852C82.7726 13.4265 82.8857 12.9535 82.8857 12.3662C82.8857 11.8437 82.7725 11.4106 82.5469 11.0674C82.3242 10.7241 81.9946 10.5518 81.5586 10.5518Z" fill="black"/>
<path d="M46.2598 13.2334C46.2598 13.4868 46.2996 13.6938 46.3799 13.8545C46.5283 14.1513 46.805 14.2997 47.21 14.2998C47.7913 14.2998 48.1872 14.04 48.3975 13.5205C48.5119 13.2422 48.5693 12.8605 48.5693 12.375V9.93555H49.4043V14.9033H48.6162L48.625 14.1699C48.5168 14.3586 48.3825 14.5186 48.2217 14.6484C47.9032 14.9081 47.5161 15.0381 47.0615 15.0381C46.3535 15.038 45.8709 14.8012 45.6143 14.3281C45.4752 14.0746 45.4063 13.7359 45.4062 13.3125V9.93555H46.2598V13.2334Z" fill="black"/>
<path d="M96.9053 13.2334C96.9053 13.4867 96.9451 13.6938 97.0254 13.8545C97.1738 14.1514 97.4513 14.2998 97.8564 14.2998C98.4376 14.2997 98.8337 14.0399 99.0439 13.5205C99.1583 13.2422 99.2148 12.8603 99.2148 12.375V9.93555H100.05V14.9033H99.2617L99.2705 14.1699C99.1623 14.3586 99.028 14.5186 98.8672 14.6484C98.5488 14.908 98.1623 15.038 97.708 15.0381C97 15.0381 96.5175 14.801 96.2607 14.3281C96.1216 14.0746 96.0518 13.7359 96.0518 13.3125V9.93555H96.9053V13.2334Z" fill="black"/>
<path d="M55.8086 8.54785V9.93555H56.6016V10.6172H55.8086V13.8594C55.8086 14.0326 55.8678 14.1483 55.9854 14.207C56.0503 14.241 56.1583 14.2588 56.3096 14.2588H56.4395C56.4858 14.2557 56.5398 14.2503 56.6016 14.2441V14.9033C56.5059 14.9311 56.4057 14.9515 56.3008 14.9639C56.1988 14.9762 56.0873 14.9824 55.9668 14.9824C55.5773 14.9824 55.312 14.8834 55.1729 14.6855C55.0338 14.4846 54.9649 14.2245 54.9648 13.9062V10.6172H54.292V9.93555H54.9648V8.54785H55.8086Z" fill="black"/>
<path d="M65.9072 8.54785V9.93555H66.7002V10.6172H65.9072V13.8594C65.9072 14.0324 65.9656 14.1482 66.083 14.207C66.1479 14.241 66.2567 14.2588 66.4082 14.2588H66.5381C66.5844 14.2557 66.6385 14.2503 66.7002 14.2441V14.9033C66.6043 14.9312 66.5036 14.9515 66.3984 14.9639C66.2964 14.9762 66.185 14.9824 66.0645 14.9824C65.6751 14.9824 65.4107 14.8832 65.2715 14.6855C65.1324 14.4846 65.0626 14.2245 65.0625 13.9062V10.6172H64.3896V9.93555H65.0625V8.54785H65.9072Z" fill="black"/>
<path d="M40.9248 14.9033H40.0762V9.95801H40.9248V14.9033Z" fill="black"/>
<path d="M42.7168 14.9033H41.8818V8.08887H42.7168V14.9033Z" fill="black"/>
<path d="M44.5 14.9033H43.665V8.08887H44.5V14.9033Z" fill="black"/>
<path d="M59.3584 9.82812C59.3955 9.83122 59.4592 9.83741 59.5488 9.84668V10.7285C59.4995 10.7193 59.4533 10.7131 59.4102 10.71C59.37 10.7069 59.3248 10.7051 59.2754 10.7051C58.8548 10.7051 58.5314 10.8411 58.3057 11.1133C58.0799 11.3823 57.9668 11.6934 57.9668 12.0459V14.9033H57.1318V9.93555H57.9258V10.793C57.9908 10.626 58.1499 10.4235 58.4033 10.1855C58.6569 9.94438 58.9494 9.82422 59.2803 9.82422C59.2957 9.82424 59.3218 9.82508 59.3584 9.82812Z" fill="black"/>
<path d="M91.9492 10.6074C92.1471 10.3569 92.3257 10.1812 92.4834 10.0791C92.7523 9.90296 93.0875 9.8145 93.4893 9.81445C94.2096 9.81445 94.6984 10.0665 94.9551 10.5703C95.0942 10.8455 95.1641 11.2282 95.1641 11.7168V14.9033H94.3057V11.7725C94.3057 11.4077 94.2597 11.1398 94.167 10.9697C94.0155 10.6976 93.7309 10.5616 93.3135 10.5615C92.9671 10.5615 92.6535 10.6808 92.3721 10.9189C92.0907 11.1571 91.9492 11.6068 91.9492 12.2686V14.9033H91.1143V8.06543H91.9492V10.6074Z" fill="black"/>
<path d="M106.151 9.82422C106.819 9.82422 107.274 10.0654 107.516 10.5479C107.645 10.8076 107.71 11.1569 107.71 11.5957V14.9033H106.843V11.4521C106.843 11.1213 106.759 10.8942 106.592 10.7705C106.428 10.6468 106.227 10.585 105.989 10.585C105.661 10.585 105.379 10.6946 105.141 10.9141C104.906 11.1336 104.788 11.5003 104.788 12.0137V14.9033H103.938V11.6611C103.938 11.3241 103.899 11.0775 103.818 10.9229C103.692 10.691 103.455 10.5752 103.108 10.5752C102.793 10.5752 102.506 10.6973 102.246 10.9414C101.989 11.1857 101.86 11.6284 101.86 12.2686V14.9033H101.025V9.93555H101.852V10.6406C102.049 10.3963 102.229 10.2178 102.39 10.1064C102.665 9.91797 102.977 9.82428 103.326 9.82422C103.722 9.82422 104.041 9.92139 104.282 10.1162C104.418 10.2275 104.542 10.3911 104.653 10.6074C104.839 10.3416 105.057 10.1453 105.308 10.0186C105.558 9.88879 105.839 9.82423 106.151 9.82422Z" fill="black"/>
<path d="M115.979 9.82422C116.684 9.8243 117.161 10.0699 117.408 10.5615C117.544 10.8306 117.612 11.216 117.612 11.7168V14.9033H116.763V11.7725C116.763 11.4695 116.719 11.2246 116.629 11.0391C116.48 10.7298 116.211 10.5752 115.821 10.5752C115.623 10.5752 115.461 10.5955 115.334 10.6357C115.105 10.7038 114.905 10.84 114.731 11.0439C114.592 11.2077 114.501 11.3776 114.458 11.5537C114.418 11.7269 114.397 11.9761 114.397 12.3008V14.9033H113.562V9.93555H114.355V10.6406C114.59 10.3499 114.84 10.1405 115.103 10.0137C115.365 9.88694 115.658 9.82422 115.979 9.82422Z" fill="black"/>
<path d="M40.9248 9.03516H40.0762V8.08887H40.9248V9.03516Z" fill="black"/>
</svg>
