<svg width="131" height="42" viewBox="0 0 131 42" fill="none" xmlns="http://www.w3.org/2000/svg">
<path d="M0.5 0.5H116C124.008 0.5 130.5 6.99187 130.5 15V41.5H15C6.99187 41.5 0.5 35.0081 0.5 27V0.5Z" fill="white" stroke="black"/>
<path d="M29.8497 24.1575C26.3836 26.9643 21.4266 26.9643 17.9605 24.1575L19.3007 22.5026C21.9854 24.6766 25.8248 24.6766 28.5095 22.5026L29.8497 24.1575Z" fill="black"/>
<path d="M19.404 17.6365V20.5134H21.5336V17.6365H19.404Z" fill="black"/>
<path d="M26.012 17.6365V20.5134H28.1415V17.6365H26.012Z" fill="black"/>
<path fill-rule="evenodd" clip-rule="evenodd" d="M23.5 33C29.8513 33 35 27.8513 35 21.5C35 15.1487 29.8513 10 23.5 10C17.1487 10 12 15.1487 12 21.5C12 27.8513 17.1487 33 23.5 33ZM23.5 30.8705C28.6752 30.8705 32.8705 26.6752 32.8705 21.5C32.8705 16.3248 28.6752 12.1295 23.5 12.1295C18.3248 12.1295 14.1295 16.3248 14.1295 21.5C14.1295 26.6752 18.3248 30.8705 23.5 30.8705Z" fill="black"/>
<path d="M95.3927 11.0082C95.0939 11.2593 94.9445 11.7337 94.9445 12.4315V15.2098H94.0579V8H94.9445V10.6804C95.1546 10.4163 95.3434 10.2304 95.5109 10.1228C95.7965 9.93696 96.1528 9.84403 96.5797 9.84403C97.3447 9.84403 97.8636 10.1098 98.1361 10.6413C98.2839 10.9315 98.3577 11.3343 98.3577 11.8495V15.2098H97.4465V11.9082C97.4465 11.5234 97.3973 11.2413 97.2988 11.062C97.1379 10.775 96.8358 10.6315 96.3925 10.6315C96.0247 10.6315 95.6915 10.7571 95.3927 11.0082Z" fill="black"/>
<path fill-rule="evenodd" clip-rule="evenodd" d="M116.473 11.781C116.404 11.9245 116.267 12.0093 116.064 12.0354L114.65 12.2115C114.154 12.2734 113.754 12.4381 113.449 12.7055C113.143 12.9729 112.99 13.3495 112.99 13.8354C112.99 14.2789 113.145 14.649 113.453 14.9457C113.765 15.2392 114.166 15.3859 114.655 15.3859C115.062 15.3859 115.435 15.2995 115.773 15.1267C116.112 14.9539 116.371 14.7501 116.552 14.5153C116.581 14.724 116.632 14.8854 116.704 14.9995C116.842 15.2147 117.064 15.3224 117.369 15.3224C117.494 15.3224 117.592 15.3175 117.665 15.3077C117.737 15.2979 117.842 15.2734 117.98 15.2343V14.5838C117.924 14.5935 117.872 14.6017 117.822 14.6082C117.773 14.6115 117.729 14.6131 117.689 14.6131C117.568 14.6131 117.487 14.5854 117.448 14.53C117.412 14.4745 117.394 14.4012 117.394 14.3098V11.2919C117.394 10.7962 117.202 10.431 116.817 10.1962C116.43 9.96146 115.926 9.84407 115.305 9.84407C114.77 9.84407 114.299 9.97124 113.892 10.2256C113.488 10.4767 113.278 10.9251 113.261 11.5707H114.089C114.122 11.3001 114.192 11.0962 114.301 10.9593C114.494 10.7115 114.823 10.5875 115.286 10.5875C115.686 10.5875 115.993 10.656 116.207 10.793C116.423 10.9267 116.532 11.1435 116.532 11.4435C116.532 11.5903 116.512 11.7028 116.473 11.781ZM114.197 14.4175C114.01 14.2707 113.916 14.0702 113.916 13.8158C113.916 13.48 114.053 13.2354 114.325 13.0821C114.486 12.9908 114.727 12.924 115.049 12.8816L115.586 12.8131C115.75 12.7935 115.918 12.7609 116.089 12.7153C116.259 12.6696 116.399 12.6126 116.507 12.5441V13.2533C116.507 13.7946 116.261 14.1843 115.768 14.4223C115.476 14.5658 115.174 14.6376 114.862 14.6376C114.606 14.6376 114.384 14.5642 114.197 14.4175Z" fill="black"/>
<path d="M120.335 10.0543C120.056 10.188 119.792 10.4081 119.542 10.7147V9.97118H118.7V15.2098H119.587V12.4658C119.587 12.1234 119.608 11.8609 119.651 11.6783C119.697 11.4924 119.794 11.313 119.941 11.1402C120.125 10.925 120.339 10.7815 120.582 10.7098C120.716 10.6674 120.889 10.6462 121.099 10.6462C121.513 10.6462 121.798 10.8092 121.956 11.1353C122.051 11.331 122.099 11.5886 122.099 11.9081V15.2098H123V11.8494C123 11.3212 122.928 10.9152 122.783 10.6315C122.521 10.113 122.015 9.85379 121.266 9.85379C120.925 9.85379 120.614 9.92063 120.335 10.0543Z" fill="black"/>
<path fill-rule="evenodd" clip-rule="evenodd" d="M104.998 32.1501L100.409 19.2823H97.3502L92.7263 32.1501H95.5569L96.4536 29.505H101.227L102.062 32.1501H104.998ZM98.8534 22.2243L100.471 27.2876H97.1832L98.8534 22.2243Z" fill="black"/>
<path fill-rule="evenodd" clip-rule="evenodd" d="M76.9934 22.4251C78.2534 22.4251 79.2379 22.8761 79.947 23.7782C80.662 24.6803 81.0195 25.8443 81.0195 27.2702C81.0195 28.7484 80.6679 29.9735 79.9646 30.9454C79.2614 31.9173 78.2798 32.4033 77.0198 32.4033C76.2286 32.4033 75.5928 32.2462 75.1122 31.9319C74.825 31.7457 74.5144 31.4197 74.1804 30.9541V32.1501H71.7278V19.2998H74.2244V23.8742C74.5408 23.4319 74.8895 23.0944 75.2704 22.8616C75.7217 22.5706 76.296 22.4251 76.9934 22.4251ZM76.3517 30.3518C76.9963 30.3518 77.4974 30.0928 77.8549 29.5748C78.2124 29.0569 78.3911 28.3759 78.3911 27.532C78.3911 26.8569 78.3032 26.2982 78.1274 25.8559C77.7933 25.0179 77.178 24.5988 76.2814 24.5988C75.373 24.5988 74.7489 25.0091 74.409 25.8297C74.2331 26.2662 74.1452 26.8308 74.1452 27.5233C74.1452 28.3381 74.3269 29.0132 74.6903 29.5486C75.0536 30.0841 75.6074 30.3518 76.3517 30.3518Z" fill="black"/>
<path d="M63.7037 31.67C63.4224 31.3848 63.2818 30.9454 63.2818 30.3518V24.4941H61.9456V22.7219H63.2818V20.068H65.7607V22.7219H67.3166V24.4941H65.7607V29.5225C65.7607 29.9124 65.8105 30.1568 65.9102 30.2558C66.0098 30.3489 66.3145 30.3954 66.8244 30.3954H67.0617C67.1496 30.3896 67.2346 30.3838 67.3166 30.378V32.2374L66.1299 32.2811C64.9461 32.3218 64.1374 32.1181 63.7037 31.67Z" fill="black"/>
<path fill-rule="evenodd" clip-rule="evenodd" d="M61.8482 27.4098C61.8482 28.8066 61.4438 30.0026 60.6351 30.9978C59.8263 31.9872 58.5986 32.4819 56.9518 32.4819C55.305 32.4819 54.0773 31.9872 53.2685 30.9978C52.4598 30.0026 52.0554 28.8066 52.0554 27.4098C52.0554 26.0363 52.4598 24.8462 53.2685 23.8393C54.0773 22.8325 55.305 22.3291 56.9518 22.3291C58.5986 22.3291 59.8263 22.8325 60.6351 23.8393C61.4438 24.8462 61.8482 26.0363 61.8482 27.4098ZM56.943 30.3954C57.6756 30.3954 58.2382 30.1365 58.6308 29.6185C59.0235 29.1005 59.2198 28.3643 59.2198 27.4098C59.2198 26.4554 59.0235 25.7221 58.6308 25.2099C58.2382 24.6919 57.6756 24.433 56.943 24.433C56.2105 24.433 55.6449 24.6919 55.2464 25.2099C54.8538 25.7221 54.6575 26.4554 54.6575 27.4098C54.6575 28.3643 54.8538 29.1005 55.2464 29.6185C55.6449 30.1365 56.2105 30.3954 56.943 30.3954Z" fill="black"/>
<path d="M50.0944 23.1846C49.4674 22.6666 48.6586 22.4076 47.6682 22.4076C46.8771 22.4076 46.2236 22.5997 45.7079 22.9838C45.4208 23.1991 45.116 23.5512 44.7937 24.0401V22.6521H42.3763V32.1501H44.8728V26.9995C44.8728 26.4117 44.9549 25.9287 45.1189 25.5504C45.4354 24.8345 46.0185 24.4766 46.8683 24.4766C47.5598 24.4766 48.0286 24.721 48.2748 25.2099C48.4096 25.4776 48.477 25.8617 48.477 26.3622V32.1501H51.0438V25.7424C51.0438 24.5494 50.7274 23.6967 50.0944 23.1846Z" fill="black"/>
<path d="M82.8047 33.9921L82.4882 33.9747V35.9651C82.7578 35.9825 82.96 35.9913 83.0948 35.9913C83.2296 35.9971 83.4083 36 83.631 36C84.7386 36 85.477 35.7818 85.8462 35.3453C86.2155 34.9146 86.7165 33.7972 87.3494 31.993L90.6371 22.6346H87.9736L85.9957 29.6534L83.9035 22.6346H81.1169L84.6331 32.5692C84.6566 32.639 84.6038 32.8311 84.4749 33.1453C84.3518 33.4596 84.2171 33.6662 84.0705 33.7652C83.9182 33.8699 83.7306 33.9368 83.5079 33.9659C83.2853 33.995 83.0508 34.0038 82.8047 33.9921Z" fill="black"/>
<path d="M106.434 10.1522C106.263 10.2695 106.072 10.457 105.862 10.7147V9.97118H104.985V15.2098H105.872V12.4315C105.872 11.7565 106.008 11.2902 106.281 11.0326C106.557 10.775 106.862 10.6462 107.197 10.6462C107.565 10.6462 107.816 10.7685 107.951 11.013C108.036 11.1761 108.079 11.4353 108.079 11.7908V15.2098H108.98V12.1625C108.98 11.6212 109.105 11.2348 109.354 11.0032C109.607 10.7717 109.908 10.656 110.256 10.656C110.508 10.656 110.722 10.7212 110.896 10.8516C111.073 10.9821 111.162 11.2217 111.162 11.5706V15.2098H112.083V11.7223C112.083 11.2592 112.014 10.8907 111.876 10.6168C111.62 10.1081 111.137 9.85379 110.428 9.85379C110.096 9.85379 109.798 9.92226 109.532 10.0592C109.266 10.1929 109.034 10.4 108.837 10.6804C108.719 10.4522 108.588 10.2793 108.443 10.1619C108.187 9.9565 107.849 9.85379 107.428 9.85379C107.057 9.85379 106.726 9.95324 106.434 10.1522Z" fill="black"/>
<path d="M100.536 14.1043C100.451 13.9347 100.408 13.7163 100.408 13.4489V9.97114H99.5019V13.532C99.5019 13.9788 99.5757 14.3358 99.7235 14.6032C99.996 15.1021 100.508 15.3516 101.26 15.3516C101.743 15.3516 102.153 15.2146 102.492 14.9407C102.662 14.8038 102.805 14.6358 102.92 14.4369L102.91 15.2097H103.748V9.97114H102.861V12.544C102.861 13.0559 102.8 13.4587 102.679 13.7521C102.455 14.3 102.035 14.5739 101.418 14.5739C100.988 14.5739 100.694 14.4174 100.536 14.1043Z" fill="black"/>
<path d="M88.3812 14.2364L89.8047 9.97114H90.7848C90.66 10.307 90.3826 11.0733 89.9524 12.2701C89.6306 13.1701 89.3614 13.9038 89.1447 14.4712C88.6324 15.8081 88.2712 16.6233 88.0611 16.9168C87.8509 17.2103 87.4897 17.357 86.9775 17.357C86.8527 17.357 86.7558 17.3521 86.6869 17.3424C86.6212 17.3326 86.5391 17.3146 86.4406 17.2886V16.4864C86.5949 16.5288 86.7066 16.5549 86.7755 16.5646C86.8445 16.5744 86.9052 16.5793 86.9578 16.5793C87.122 16.5793 87.2418 16.5516 87.3173 16.4962C87.3961 16.444 87.4618 16.3788 87.5144 16.3005C87.5308 16.2744 87.5899 16.1407 87.6917 15.8994C87.7935 15.6581 87.8673 15.4788 87.9133 15.3614L85.9629 9.97114H86.9676L88.3812 14.2364Z" fill="black"/>
<path fill-rule="evenodd" clip-rule="evenodd" d="M82.3215 15.0875C82.1573 14.9734 81.9816 14.7908 81.7945 14.5397V15.2098H80.9769V8H81.8388V10.6071C82.0325 10.356 82.264 10.1652 82.5333 10.0348C82.8025 9.9011 83.0948 9.83425 83.41 9.83425C84.0667 9.83425 84.5987 10.0592 85.0058 10.5093C85.4163 10.956 85.6215 11.6163 85.6215 12.4902C85.6215 13.3185 85.4196 14.0065 85.0157 14.5544C84.6118 15.1022 84.0519 15.3761 83.3361 15.3761C82.9355 15.3761 82.5973 15.2799 82.3215 15.0875ZM83.2819 14.5984C83.7613 14.5984 84.1193 14.4093 84.3557 14.031C84.5954 13.6527 84.7152 13.1538 84.7152 12.5343C84.7152 11.9832 84.5954 11.5266 84.3557 11.1647C84.1193 10.8027 83.7696 10.6218 83.3066 10.6218C82.9027 10.6218 82.5481 10.7701 82.2427 11.0669C81.9406 11.3636 81.7896 11.8527 81.7896 12.5343C81.7896 13.0267 81.8519 13.4261 81.9767 13.7326C82.2099 14.3098 82.6449 14.5984 83.2819 14.5984Z" fill="black"/>
<path fill-rule="evenodd" clip-rule="evenodd" d="M74.8227 9.87827C75.2265 9.87827 75.5647 9.96305 75.8373 10.1326C75.9949 10.2304 76.1738 10.4016 76.3741 10.6462V8H77.2262V15.2098H76.4283V14.481C76.2215 14.8038 75.9768 15.037 75.6944 15.1805C75.4121 15.3239 75.0886 15.3957 74.7241 15.3957C74.1364 15.3957 73.6274 15.1511 73.1973 14.662C72.7671 14.1696 72.5521 13.5158 72.5521 12.7006C72.5521 11.9375 72.7474 11.2772 73.1382 10.7196C73.5322 10.1587 74.0937 9.87827 74.8227 9.87827ZM73.4879 12.6517C73.4879 13.2125 73.6077 13.6821 73.8474 14.0604C74.0871 14.4386 74.4713 14.6277 75 14.6277C75.4104 14.6277 75.747 14.4533 76.0097 14.1044C76.2756 13.7522 76.4086 13.2484 76.4086 12.593C76.4086 11.931 76.2724 11.4419 75.9998 11.1256C75.7273 10.806 75.3907 10.6462 74.9901 10.6462C74.5435 10.6462 74.1807 10.8158 73.9016 11.1549C73.6258 11.494 73.4879 11.993 73.4879 12.6517Z" fill="black"/>
<path fill-rule="evenodd" clip-rule="evenodd" d="M69.6595 9.85379C70.0338 9.85379 70.3967 9.94183 70.748 10.1179C71.0994 10.2907 71.367 10.5157 71.5509 10.7929C71.7282 11.0571 71.8464 11.3652 71.9055 11.7174C71.958 11.9587 71.9843 12.3435 71.9843 12.8717H68.1179C68.1343 13.4033 68.2607 13.8304 68.4971 14.1533C68.7335 14.4728 69.0997 14.6326 69.5955 14.6326C70.0585 14.6326 70.4279 14.481 70.7037 14.1777C70.8613 14.0016 70.973 13.7978 71.0386 13.5663H71.9104C71.8874 13.7587 71.8103 13.9739 71.6789 14.212C71.5509 14.4467 71.4064 14.6391 71.2455 14.7891C70.9762 15.05 70.643 15.2261 70.2456 15.3174C70.0322 15.3696 69.7909 15.3957 69.5216 15.3957C68.8649 15.3957 68.3083 15.1592 67.8519 14.6864C67.3955 14.2103 67.1673 13.5451 67.1673 12.6908C67.1673 11.8494 67.3971 11.1663 67.8568 10.6413C68.3165 10.1163 68.9174 9.85379 69.6595 9.85379ZM71.0731 12.1723C71.037 11.7908 70.9532 11.4859 70.8219 11.2576C70.5789 10.8337 70.1734 10.6217 69.6053 10.6217C69.1982 10.6217 68.8567 10.7685 68.5809 11.0619C68.305 11.3522 68.1589 11.7223 68.1425 12.1723H71.0731Z" fill="black"/>
<path d="M65.2055 14.98C65.0577 14.768 64.9838 14.4941 64.9838 14.1582V10.6903H64.2696V9.97126H64.9838V8.50876H65.8802V9.97126H66.7225V10.6903H65.8802V14.1093C65.8802 14.2919 65.9426 14.4142 66.0674 14.4762C66.1363 14.512 66.2513 14.53 66.4122 14.53H66.5501C66.5993 14.5267 66.6568 14.5218 66.7225 14.5153V15.2099C66.6207 15.2392 66.514 15.2604 66.4023 15.2735C66.294 15.2865 66.1757 15.293 66.0477 15.293C65.634 15.293 65.3532 15.1887 65.2055 14.98Z" fill="black"/>
<path fill-rule="evenodd" clip-rule="evenodd" d="M62.1702 12.0354C62.3737 12.0093 62.51 11.9245 62.579 11.781C62.6184 11.7028 62.6381 11.5903 62.6381 11.4435C62.6381 11.1435 62.5297 10.9267 62.313 10.793C62.0996 10.656 61.7925 10.5875 61.3919 10.5875C60.929 10.5875 60.6006 10.7115 60.4069 10.9593C60.2985 11.0962 60.2279 11.3001 60.1951 11.5707H59.3676C59.384 10.9251 59.5942 10.4767 59.9981 10.2256C60.4052 9.97124 60.8764 9.84407 61.4116 9.84407C62.0322 9.84407 62.5363 9.96146 62.9237 10.1962C63.3079 10.431 63.5 10.7962 63.5 11.2919V14.3098C63.5 14.4012 63.5181 14.4745 63.5542 14.53C63.5936 14.5854 63.674 14.6131 63.7955 14.6131C63.8349 14.6131 63.8793 14.6115 63.9285 14.6082C63.9778 14.6017 64.0303 14.5935 64.0861 14.5838V15.2343C63.9482 15.2734 63.8431 15.2979 63.7709 15.3077C63.6987 15.3175 63.6002 15.3224 63.4754 15.3224C63.17 15.3224 62.9484 15.2147 62.8105 14.9995C62.7382 14.8854 62.6873 14.724 62.6578 14.5153C62.4772 14.7501 62.2178 14.9539 61.8796 15.1267C61.5413 15.2995 61.1687 15.3859 60.7615 15.3859C60.2722 15.3859 59.8716 15.2392 59.5597 14.9457C59.2511 14.649 59.0967 14.2789 59.0967 13.8354C59.0967 13.3495 59.2494 12.9729 59.5548 12.7055C59.8602 12.4381 60.2608 12.2734 60.7566 12.2115L62.1702 12.0354ZM60.0227 13.8158C60.0227 14.0702 60.1163 14.2707 60.3034 14.4175C60.4906 14.5642 60.7122 14.6376 60.9684 14.6376C61.2803 14.6376 61.5824 14.5658 61.8746 14.4223C62.3672 14.1843 62.6134 13.7946 62.6134 13.2533V12.5441C62.5051 12.6126 62.3655 12.6696 62.1948 12.7153C62.024 12.7609 61.8566 12.7935 61.6924 12.8131L61.1555 12.8816C60.8337 12.924 60.5924 12.9908 60.4315 13.0821C60.159 13.2354 60.0227 13.48 60.0227 13.8158Z" fill="black"/>
<path d="M57.4056 11.2136C57.1659 11.4973 57.046 11.825 57.046 12.1967V15.2098H56.1594V9.97118H57.0017V10.8761C57.0706 10.7 57.2397 10.4864 57.509 10.2353C57.7782 9.98096 58.0885 9.85379 58.4399 9.85379C58.4563 9.85379 58.4842 9.85542 58.5236 9.85868C58.563 9.86194 58.6303 9.86846 58.7256 9.87824V10.8076C58.673 10.7978 58.6238 10.7913 58.5778 10.788C58.5351 10.7848 58.4875 10.7831 58.435 10.7831C57.9884 10.7831 57.6453 10.9266 57.4056 11.2136Z" fill="black"/>
<path d="M54.1982 11.2136C53.9585 11.4973 53.8386 11.825 53.8386 12.1967V15.2098H52.9521V9.97118H53.7943V10.8761C53.8633 10.7 54.0324 10.4864 54.3016 10.2353C54.5709 9.98096 54.8812 9.85379 55.2325 9.85379C55.2489 9.85379 55.2768 9.85542 55.3162 9.85868C55.3556 9.86194 55.423 9.86846 55.5182 9.87824V10.8076C55.4656 10.7978 55.4164 10.7913 55.3704 10.788C55.3277 10.7848 55.2801 10.7831 55.2276 10.7831C54.781 10.7831 54.4379 10.9266 54.1982 11.2136Z" fill="black"/>
<path fill-rule="evenodd" clip-rule="evenodd" d="M50.2909 12.0354C50.4944 12.0093 50.6307 11.9245 50.6997 11.781C50.7391 11.7028 50.7588 11.5903 50.7588 11.4435C50.7588 11.1435 50.6504 10.9267 50.4337 10.793C50.2203 10.656 49.9133 10.5875 49.5127 10.5875C49.0497 10.5875 48.7213 10.7115 48.5276 10.9593C48.4192 11.0962 48.3486 11.3001 48.3158 11.5707H47.4883C47.5047 10.9251 47.7149 10.4767 48.1188 10.2256C48.5259 9.97124 48.9971 9.84407 49.5324 9.84407C50.153 9.84407 50.657 9.96146 51.0444 10.1962C51.4286 10.431 51.6207 10.7962 51.6207 11.2919V14.3098C51.6207 14.4012 51.6388 14.4745 51.6749 14.53C51.7143 14.5854 51.7947 14.6131 51.9162 14.6131C51.9556 14.6131 52 14.6115 52.0492 14.6082C52.0985 14.6017 52.151 14.5935 52.2068 14.5838V15.2343C52.0689 15.2734 51.9639 15.2979 51.8916 15.3077C51.8194 15.3175 51.7209 15.3224 51.5961 15.3224C51.2907 15.3224 51.0691 15.2147 50.9312 14.9995C50.8589 14.8854 50.808 14.724 50.7785 14.5153C50.5979 14.7501 50.3385 14.9539 50.0003 15.1267C49.6621 15.2995 49.2894 15.3859 48.8822 15.3859C48.393 15.3859 47.9924 15.2392 47.6804 14.9457C47.3718 14.649 47.2174 14.2789 47.2174 13.8354C47.2174 13.3495 47.3701 12.9729 47.6755 12.7055C47.9809 12.4381 48.3815 12.2734 48.8773 12.2115L50.2909 12.0354ZM48.1434 13.8158C48.1434 14.0702 48.237 14.2707 48.4241 14.4175C48.6113 14.5642 48.833 14.6376 49.0891 14.6376C49.401 14.6376 49.7031 14.5658 49.9953 14.4223C50.4879 14.1843 50.7341 13.7946 50.7341 13.2533V12.5441C50.6258 12.6126 50.4862 12.6696 50.3155 12.7153C50.1447 12.7609 49.9773 12.7935 49.8131 12.8131L49.2762 12.8816C48.9544 12.924 48.7131 12.9908 48.5522 13.0821C48.2797 13.2354 48.1434 13.48 48.1434 13.8158Z" fill="black"/>
<path d="M42.9506 11.6783C42.9079 11.8609 42.8866 12.1234 42.8866 12.4658V15.2098H42V9.97118H42.8422V10.7147C43.0918 10.4081 43.3561 10.188 43.6352 10.0543C43.9143 9.92063 44.2246 9.85379 44.5661 9.85379C45.3148 9.85379 45.8204 10.113 46.0831 10.6315C46.2276 10.9152 46.2998 11.3212 46.2998 11.8494V15.2098H45.3985V11.9081C45.3985 11.5886 45.3509 11.331 45.2557 11.1353C45.0981 10.8092 44.8124 10.6462 44.3987 10.6462C44.1885 10.6462 44.0161 10.6674 43.8815 10.7098C43.6385 10.7815 43.4251 10.925 43.2412 11.1402C43.0934 11.313 42.9966 11.4924 42.9506 11.6783Z" fill="black"/>
<path d="M107.306 21.4711V29.9643H105.71V32.1531H111.406V29.9643H109.996V21.4711H111.406V19.2823H105.71V21.4711H107.306Z" fill="black"/>
</svg>
