<svg width="131" height="42" viewBox="0 0 131 42" fill="none" xmlns="http://www.w3.org/2000/svg">
<path d="M116 0.5C124.008 0.5 130.5 6.99187 130.5 15V41.5H15C6.99187 41.5 0.5 35.0081 0.5 27V0.5H116Z" fill="white" stroke="black"/>
<path d="M27.8497 24.1575C24.3836 26.9643 19.4266 26.9643 15.9605 24.1575L17.3007 22.5026C19.9854 24.6766 23.8248 24.6766 26.5095 22.5026L27.8497 24.1575Z" fill="black"/>
<path d="M17.404 17.6365V20.5134H19.5336V17.6365H17.404Z" fill="black"/>
<path d="M24.012 17.6365V20.5134H26.1415V17.6365H24.012Z" fill="black"/>
<path fill-rule="evenodd" clip-rule="evenodd" d="M21.5 33C27.8513 33 33 27.8513 33 21.5C33 15.1487 27.8513 10 21.5 10C15.1487 10 10 15.1487 10 21.5C10 27.8513 15.1487 33 21.5 33ZM21.5 30.8705C26.6752 30.8705 30.8705 26.6752 30.8705 21.5C30.8705 16.3248 26.6752 12.1295 21.5 12.1295C16.3248 12.1295 12.1295 16.3248 12.1295 21.5C12.1295 26.6752 16.3248 30.8705 21.5 30.8705Z" fill="black"/>
<path fill-rule="evenodd" clip-rule="evenodd" d="M100.998 32.15L96.4095 19.2822H93.3504L88.7265 32.15H91.5571L92.4538 29.5049H97.2271L98.0622 32.15H100.998ZM94.8536 22.2242L96.4711 27.2875H93.1834L94.8536 22.2242Z" fill="black"/>
<path fill-rule="evenodd" clip-rule="evenodd" d="M72.9936 22.425C74.2536 22.425 75.2381 22.876 75.9472 23.7781C76.6622 24.6802 77.0197 25.8442 77.0197 27.27C77.0197 28.7483 76.6681 29.9734 75.9648 30.9453C75.2616 31.9172 74.2799 32.4032 73.02 32.4032C72.2288 32.4032 71.5929 32.2461 71.1124 31.9318C70.8252 31.7455 70.5146 31.4196 70.1806 30.954V32.15H67.728V19.2997H70.2245V23.8741C70.541 23.4318 70.8897 23.0943 71.2706 22.8615C71.7219 22.5705 72.2962 22.425 72.9936 22.425ZM72.3519 30.3517C72.9965 30.3517 73.4976 30.0927 73.8551 29.5747C74.2126 29.0567 74.3913 28.3758 74.3913 27.5319C74.3913 26.8568 74.3034 26.2981 74.1276 25.8558C73.7935 25.0177 73.1782 24.5987 72.2815 24.5987C71.3732 24.5987 70.7491 25.009 70.4091 25.8296C70.2333 26.2661 70.1454 26.8306 70.1454 27.5232C70.1454 28.338 70.3271 29.0131 70.6904 29.5485C71.0538 30.084 71.6076 30.3517 72.3519 30.3517Z" fill="black"/>
<path d="M59.7039 31.6699C59.4226 31.3847 59.2819 30.9453 59.2819 30.3517V24.4939H57.9458V22.7218H59.2819V20.0679H61.7609V22.7218H63.3168V24.4939H61.7609V29.5223C61.7609 29.9123 61.8107 30.1567 61.9103 30.2556C62.01 30.3488 62.3147 30.3953 62.8246 30.3953H63.0619C63.1498 30.3895 63.2348 30.3837 63.3168 30.3779V32.2373L62.1301 32.281C60.9463 32.3217 60.1376 32.118 59.7039 31.6699Z" fill="black"/>
<path fill-rule="evenodd" clip-rule="evenodd" d="M57.8484 27.4097C57.8484 28.8065 57.444 30.0025 56.6353 30.9977C55.8265 31.9871 54.5988 32.4818 52.952 32.4818C51.3052 32.4818 50.0775 31.9871 49.2687 30.9977C48.46 30.0025 48.0556 28.8065 48.0556 27.4097C48.0556 26.0362 48.46 24.8461 49.2687 23.8392C50.0775 22.8324 51.3052 22.3289 52.952 22.3289C54.5988 22.3289 55.8265 22.8324 56.6353 23.8392C57.444 24.8461 57.8484 26.0362 57.8484 27.4097ZM52.9432 30.3953C53.6758 30.3953 54.2384 30.1363 54.631 29.6184C55.0237 29.1004 55.22 28.3642 55.22 27.4097C55.22 26.4553 55.0237 25.7219 54.631 25.2098C54.2384 24.6918 53.6758 24.4328 52.9432 24.4328C52.2107 24.4328 51.6451 24.6918 51.2466 25.2098C50.854 25.7219 50.6577 26.4553 50.6577 27.4097C50.6577 28.3642 50.854 29.1004 51.2466 29.6184C51.6451 30.1363 52.2107 30.3953 52.9432 30.3953Z" fill="black"/>
<path d="M46.0946 23.1845C45.4676 22.6665 44.6588 22.4075 43.6684 22.4075C42.8773 22.4075 42.2238 22.5996 41.7081 22.9837C41.4209 23.199 41.1162 23.5511 40.7939 24.04V22.6519H38.3765V32.15H40.873V26.9994C40.873 26.4116 40.955 25.9286 41.1191 25.5503C41.4356 24.8344 42.0187 24.4765 42.8685 24.4765C43.56 24.4765 44.0288 24.7209 44.275 25.2098C44.4098 25.4775 44.4771 25.8616 44.4771 26.3621V32.15H47.044V25.7423C47.044 24.5492 46.7275 23.6966 46.0946 23.1845Z" fill="black"/>
<path d="M78.8049 33.992L78.4884 33.9746V35.965C78.758 35.9824 78.9602 35.9912 79.095 35.9912C79.2298 35.997 79.4085 35.9999 79.6312 35.9999C80.7388 35.9999 81.4772 35.7816 81.8464 35.3451C82.2156 34.9145 82.7167 33.7971 83.3496 31.9929L86.6373 22.6345H83.9738L81.9959 29.6533L79.9037 22.6345H77.1171L80.6333 32.5691C80.6568 32.6389 80.604 32.831 80.4751 33.1452C80.352 33.4595 80.2172 33.6661 80.0707 33.765C79.9184 33.8698 79.7308 33.9367 79.5081 33.9658C79.2854 33.9949 79.051 34.0037 78.8049 33.992Z" fill="black"/>
<path d="M103.306 21.471V29.9642H101.71V32.153H107.407V29.9642H105.996V21.471H107.407V19.2822H101.71V21.471H103.306Z" fill="black"/>
<path d="M82.8877 13.9248L84.3076 9.63867H85.2861C85.1616 9.97617 84.8843 10.7467 84.4551 11.9492C84.134 12.8535 83.8657 13.591 83.6494 14.1611C83.1383 15.5045 82.7771 16.3233 82.5674 16.6182C82.3577 16.913 81.9975 17.0605 81.4863 17.0605C81.3619 17.0605 81.2651 17.0557 81.1963 17.0459C81.1309 17.0361 81.0492 17.0183 80.9512 16.9922V16.1855C81.105 16.2281 81.2164 16.2548 81.2852 16.2646C81.3539 16.2745 81.4144 16.2793 81.4668 16.2793C81.6306 16.2793 81.7498 16.251 81.8252 16.1953C81.9038 16.1429 81.97 16.0777 82.0225 15.999C82.039 15.9724 82.0978 15.8377 82.1992 15.5957C82.3006 15.3536 82.3741 15.1736 82.4199 15.0557L80.4736 9.63867H81.4766L82.8877 13.9248Z" fill="black"/>
<path d="M119.347 9.50098C120.14 9.50098 120.712 9.73393 121.062 10.1992C121.282 10.4941 121.388 10.8125 121.382 11.1533H120.546C120.53 10.9535 120.459 10.7712 120.335 10.6074C120.132 10.3748 119.78 10.2578 119.278 10.2578C118.944 10.2578 118.69 10.3224 118.517 10.4502C118.346 10.578 118.261 10.7464 118.261 10.9561C118.261 11.1854 118.374 11.3692 118.6 11.5068C118.731 11.5887 118.924 11.6604 119.18 11.7227L119.765 11.8652C120.4 12.0192 120.827 12.1683 121.043 12.3125C121.387 12.5385 121.558 12.8942 121.559 13.3789C121.559 13.8475 121.381 14.253 121.023 14.5938C120.67 14.9345 120.129 15.1045 119.401 15.1045C118.619 15.1045 118.063 14.9278 117.735 14.5742C117.411 14.2171 117.237 13.7761 117.214 13.252H118.064C118.091 13.5465 118.164 13.7725 118.285 13.9297C118.508 14.2148 118.895 14.3574 119.445 14.3574C119.773 14.3574 120.062 14.2874 120.311 14.1465C120.56 14.0023 120.684 13.7806 120.684 13.4824C120.684 13.2564 120.584 13.0847 120.384 12.9668C120.256 12.8947 120.004 12.8108 119.627 12.7158L118.925 12.5391C118.476 12.4277 118.145 12.3027 117.932 12.165C117.552 11.9259 117.361 11.5954 117.361 11.1729C117.361 10.6748 117.54 10.2719 117.897 9.96387C118.258 9.65592 118.741 9.50104 119.347 9.50098Z" fill="black"/>
<path fill-rule="evenodd" clip-rule="evenodd" d="M64.8086 9.52148C65.182 9.52151 65.544 9.60929 65.8945 9.78613C66.2451 9.9598 66.5128 10.1863 66.6963 10.4648C66.8731 10.7302 66.9908 11.0398 67.0498 11.3936C67.1022 11.636 67.1279 12.0229 67.1279 12.5537H63.2695C63.2859 13.0878 63.4125 13.5174 63.6484 13.8418C63.8843 14.1627 64.2497 14.3232 64.7441 14.3232C65.2061 14.3232 65.5753 14.1709 65.8506 13.8662C66.0078 13.6894 66.119 13.4844 66.1846 13.252H67.0547C67.0317 13.4452 66.9542 13.6613 66.8232 13.9004C66.6955 14.1362 66.5511 14.3298 66.3906 14.4805C66.1221 14.7424 65.7898 14.919 65.3936 15.0107C65.1806 15.0632 64.9395 15.0898 64.6709 15.0898C64.0156 15.0898 63.4603 14.852 63.0049 14.377C62.5495 13.8986 62.3213 13.2304 62.3213 12.3721C62.3213 11.5267 62.551 10.8401 63.0098 10.3125C63.4685 9.78498 64.0681 9.52148 64.8086 9.52148ZM64.7539 10.293C64.3478 10.2931 64.0076 10.4406 63.7324 10.7354C63.4572 11.0269 63.3113 11.3985 63.2949 11.8506H66.2188C66.1827 11.4674 66.0997 11.161 65.9688 10.9316C65.7263 10.5057 65.3208 10.293 64.7539 10.293Z" fill="black"/>
<path fill-rule="evenodd" clip-rule="evenodd" d="M72.208 7.6582V14.9033H71.4121V14.1709C71.2057 14.4952 70.9614 14.7299 70.6797 14.874C70.3981 15.0181 70.0754 15.0898 69.7119 15.0898C69.1254 15.0898 68.6168 14.844 68.1875 14.3525C67.7584 13.8578 67.544 13.2008 67.5439 12.3818C67.5439 11.6151 67.739 10.9509 68.1289 10.3906C68.5221 9.82727 69.0824 9.54596 69.8096 9.5459C70.2125 9.5459 70.5503 9.63048 70.8223 9.80078C70.9795 9.89908 71.1585 10.0716 71.3584 10.3174V7.6582H72.208ZM69.9766 10.3174C69.5312 10.3175 69.1691 10.4875 68.8906 10.8281C68.6154 11.1688 68.4776 11.6703 68.4775 12.332C68.4775 12.8956 68.5977 13.3679 68.8369 13.748C69.0761 14.1279 69.4591 14.3183 69.9863 14.3184C70.3959 14.3184 70.732 14.1426 70.9941 13.792C71.2595 13.4381 71.3926 12.932 71.3926 12.2734C71.3926 11.6083 71.2563 11.1167 70.9844 10.7988C70.7124 10.4778 70.3763 10.3174 69.9766 10.3174Z" fill="black"/>
<path fill-rule="evenodd" clip-rule="evenodd" d="M45.4785 9.51074C46.0977 9.51076 46.6007 9.62933 46.9873 9.86523C47.3706 10.1011 47.5624 10.4679 47.5625 10.9658V13.999C47.5625 14.0905 47.5803 14.1641 47.6162 14.2197C47.6555 14.2754 47.7362 14.3037 47.8574 14.3037C47.8967 14.3037 47.9412 14.3021 47.9902 14.2988C48.0393 14.2923 48.0918 14.2833 48.1475 14.2734V14.9277C48.0101 14.967 47.9051 14.9911 47.833 15.001C47.761 15.0108 47.6625 15.0156 47.5381 15.0156C47.2334 15.0156 47.0116 14.9077 46.874 14.6914C46.802 14.5767 46.7511 14.4146 46.7217 14.2051C46.5415 14.441 46.2827 14.6457 45.9453 14.8193C45.6078 14.993 45.2354 15.0801 44.8291 15.0801C44.3411 15.08 43.9411 14.9325 43.6299 14.6377C43.322 14.3395 43.168 13.967 43.168 13.5215C43.1681 13.0336 43.3206 12.6553 43.625 12.3867C43.9297 12.1181 44.3296 11.9519 44.8242 11.8896L46.2354 11.7129C46.4383 11.6867 46.5747 11.602 46.6436 11.458C46.6829 11.3794 46.7021 11.2656 46.7021 11.1182C46.7021 10.8169 46.594 10.5992 46.3779 10.4648C46.165 10.3273 45.8586 10.2578 45.459 10.2578C44.997 10.2578 44.6689 10.3828 44.4756 10.6318C44.3675 10.7694 44.2974 10.9742 44.2646 11.2461H43.4385C43.4549 10.5975 43.6645 10.1469 44.0674 9.89453C44.4737 9.63895 44.9444 9.51074 45.4785 9.51074ZM46.6777 12.2246C46.5696 12.2934 46.4301 12.3506 46.2598 12.3965C46.0895 12.4423 45.9225 12.4755 45.7588 12.4951L45.2227 12.5635C44.9016 12.6061 44.6605 12.6729 44.5 12.7646C44.2281 12.9186 44.0929 13.1646 44.0928 13.502C44.0928 13.7574 44.1856 13.959 44.3721 14.1064C44.5588 14.2539 44.7805 14.3281 45.0361 14.3281C45.3474 14.3281 45.6488 14.2555 45.9404 14.1113C46.4318 13.8721 46.6777 13.4804 46.6777 12.9365V12.2246Z" fill="black"/>
<path fill-rule="evenodd" clip-rule="evenodd" d="M56.8799 9.51074C57.4991 9.51075 58.002 9.62932 58.3887 9.86523C58.772 10.1011 58.9638 10.4679 58.9639 10.9658V13.999C58.9639 14.0905 58.9817 14.1641 59.0176 14.2197C59.0569 14.2754 59.1376 14.3037 59.2588 14.3037C59.2981 14.3037 59.3425 14.3021 59.3916 14.2988C59.4407 14.2923 59.4932 14.2833 59.5488 14.2734V14.9277C59.4114 14.967 59.3065 14.9911 59.2344 15.001C59.1623 15.0108 59.0639 15.0156 58.9395 15.0156C58.6347 15.0156 58.413 14.9077 58.2754 14.6914C58.2034 14.5767 58.1525 14.4146 58.123 14.2051C57.9428 14.4409 57.6841 14.6457 57.3467 14.8193C57.0093 14.9929 56.6376 15.08 56.2314 15.0801C55.7432 15.0801 55.3425 14.9326 55.0312 14.6377C54.7234 14.3395 54.5693 13.967 54.5693 13.5215C54.5694 13.0336 54.7219 12.6553 55.0264 12.3867C55.3311 12.118 55.7318 11.9519 56.2266 11.8896L57.6367 11.7129C57.8397 11.6867 57.9761 11.602 58.0449 11.458C58.0842 11.3794 58.1035 11.2656 58.1035 11.1182C58.1035 10.8169 57.9954 10.5992 57.7793 10.4648C57.5663 10.3272 57.26 10.2578 56.8604 10.2578C56.3983 10.2578 56.0703 10.3828 55.877 10.6318C55.7689 10.7694 55.6988 10.9743 55.666 11.2461H54.8398C54.8562 10.5975 55.0659 10.1469 55.4688 9.89453C55.8751 9.63895 56.3458 9.51074 56.8799 9.51074ZM58.0791 12.2246C57.971 12.2934 57.8315 12.3506 57.6611 12.3965C57.4909 12.4423 57.3239 12.4755 57.1602 12.4951L56.624 12.5635C56.303 12.6061 56.0619 12.6729 55.9014 12.7646C55.6295 12.9186 55.4942 13.1646 55.4941 13.502C55.4941 13.7573 55.587 13.959 55.7734 14.1064C55.9602 14.2539 56.1819 14.3281 56.4375 14.3281C56.7488 14.3281 57.0502 14.2555 57.3418 14.1113C57.8332 13.8721 58.0791 13.4804 58.0791 12.9365V12.2246Z" fill="black"/>
<path fill-rule="evenodd" clip-rule="evenodd" d="M109 9.51074C109.619 9.51074 110.122 9.62938 110.509 9.86523C110.892 10.1011 111.084 10.4679 111.084 10.9658V13.999C111.084 14.0906 111.103 14.1641 111.139 14.2197C111.178 14.2753 111.258 14.3037 111.379 14.3037C111.418 14.3037 111.463 14.3021 111.512 14.2988C111.561 14.2923 111.613 14.2833 111.669 14.2734V14.9277C111.531 14.967 111.427 14.9911 111.354 15.001C111.282 15.0108 111.184 15.0156 111.06 15.0156C110.755 15.0156 110.534 14.9077 110.396 14.6914C110.324 14.5767 110.274 14.4148 110.244 14.2051C110.064 14.441 109.804 14.6457 109.467 14.8193C109.129 14.9929 108.758 15.0801 108.352 15.0801C107.863 15.0801 107.464 14.9325 107.152 14.6377C106.844 14.3395 106.69 13.9671 106.69 13.5215C106.691 13.0335 106.843 12.6553 107.147 12.3867C107.452 12.1181 107.852 11.9519 108.347 11.8896L109.757 11.7129C109.96 11.6867 110.096 11.602 110.165 11.458C110.204 11.3794 110.224 11.2656 110.224 11.1182C110.224 10.8168 110.116 10.5992 109.899 10.4648C109.686 10.3273 109.38 10.2578 108.98 10.2578C108.518 10.2578 108.19 10.3828 107.997 10.6318C107.889 10.7694 107.819 10.9743 107.786 11.2461H106.96C106.976 10.5974 107.187 10.1468 107.59 9.89453C107.996 9.63907 108.466 9.51077 109 9.51074ZM110.199 12.2246C110.091 12.2933 109.951 12.3507 109.781 12.3965C109.611 12.4423 109.444 12.4755 109.28 12.4951L108.744 12.5635C108.424 12.606 108.183 12.6731 108.022 12.7646C107.751 12.9186 107.614 13.1646 107.614 13.502C107.614 13.7575 107.708 13.959 107.895 14.1064C108.081 14.2539 108.302 14.3281 108.558 14.3281C108.869 14.3281 109.17 14.2555 109.462 14.1113C109.953 13.8721 110.199 13.4805 110.199 12.9365V12.2246Z" fill="black"/>
<path fill-rule="evenodd" clip-rule="evenodd" d="M76.5098 10.2783C76.7031 10.026 76.9344 9.83419 77.2031 9.70312C77.4716 9.56892 77.7628 9.50104 78.0771 9.50098C78.7325 9.50098 79.2636 9.72754 79.6699 10.1797C80.0795 10.6285 80.2841 11.2919 80.2842 12.1699C80.2842 13.0022 80.0827 13.6937 79.6797 14.2441C79.2767 14.7946 78.7182 15.0703 78.0039 15.0703C77.6041 15.0703 77.2665 14.9736 76.9912 14.7803C76.8274 14.6656 76.6526 14.4817 76.4658 14.2295V14.9033H75.6494V7.6582H76.5098V10.2783ZM77.9746 10.293C77.5716 10.293 77.2178 10.4421 76.9131 10.7402C76.6116 11.0384 76.4609 11.53 76.4609 12.2148C76.461 12.7095 76.523 13.111 76.6475 13.4189C76.8801 13.9987 77.3146 14.2891 77.9502 14.2891C78.4284 14.289 78.7856 14.0987 79.0215 13.7188C79.2606 13.3387 79.3798 12.8373 79.3799 12.2148C79.3799 11.6611 79.2607 11.2016 79.0215 10.8379C78.7856 10.4744 78.4364 10.293 77.9746 10.293Z" fill="black"/>
<path d="M94.4365 13.1338C94.4365 13.4024 94.4793 13.6216 94.5645 13.792C94.7217 14.1065 95.0143 14.2636 95.4434 14.2637C96.0594 14.2637 96.4793 13.9889 96.7021 13.4385C96.8234 13.1436 96.8838 12.7389 96.8838 12.2246V9.63867H97.7686V14.9033H96.9326L96.9434 14.126C96.8287 14.3258 96.6859 14.4952 96.5156 14.6328C96.1781 14.9081 95.7678 15.0459 95.2861 15.0459C94.5361 15.0458 94.0249 14.795 93.7529 14.2939C93.6055 14.0253 93.5322 13.6657 93.5322 13.2168V9.63867H94.4365V13.1338Z" fill="black"/>
<path d="M61.1885 8.16895V9.63867H62.0283V10.3613H61.1885V13.7969C61.1885 13.9804 61.2505 14.1038 61.375 14.166C61.4438 14.202 61.5584 14.2197 61.7188 14.2197H61.8564C61.9055 14.2165 61.9629 14.2116 62.0283 14.2051V14.9033C61.9269 14.9328 61.8203 14.9537 61.709 14.9668C61.601 14.9799 61.4831 14.9863 61.3555 14.9863C60.9426 14.9863 60.6621 14.8816 60.5146 14.6719C60.3673 14.459 60.294 14.1839 60.2939 13.8467V10.3613H59.5811V9.63867H60.2939V8.16895H61.1885Z" fill="black"/>
<path d="M40.6738 9.52148C41.4208 9.52155 41.9254 9.7818 42.1875 10.3027C42.3316 10.5878 42.4033 10.9957 42.4033 11.5264V14.9033H41.5039V11.585C41.5039 11.264 41.4563 11.0051 41.3613 10.8086C41.2041 10.4812 40.9194 10.3175 40.5068 10.3174C40.2971 10.3174 40.1246 10.3383 39.9902 10.3809C39.7478 10.4529 39.535 10.5973 39.3516 10.8135C39.2041 10.9871 39.1074 11.1677 39.0615 11.3545C39.0189 11.538 38.9971 11.8016 38.9971 12.1455V14.9033H38.1123V9.63867H38.9531V10.3857C39.202 10.078 39.4658 9.857 39.7441 9.72266C40.0227 9.58831 40.333 9.52148 40.6738 9.52148Z" fill="black"/>
<path d="M51.0156 9.52148C51.032 9.52149 51.0596 9.52312 51.0986 9.52637C51.138 9.52964 51.2058 9.53607 51.3008 9.5459V10.4795C51.2484 10.4697 51.1991 10.4632 51.1533 10.46C51.1108 10.4567 51.0631 10.4551 51.0107 10.4551C50.5651 10.4551 50.2226 10.5993 49.9834 10.8877C49.7443 11.1727 49.6251 11.5017 49.625 11.875V14.9033H48.7402V9.63867H49.5801V10.5479C49.649 10.371 49.8184 10.1565 50.0869 9.9043C50.3555 9.64887 50.6651 9.52148 51.0156 9.52148Z" fill="black"/>
<path d="M54.0654 9.52148C54.0818 9.52148 54.1101 9.52309 54.1494 9.52637C54.1888 9.52965 54.2558 9.5361 54.3506 9.5459V10.4795C54.2982 10.4697 54.249 10.4632 54.2031 10.46C54.1606 10.4567 54.1129 10.4551 54.0605 10.4551C53.615 10.4551 53.2724 10.5994 53.0332 10.8877C52.7942 11.1726 52.6749 11.5017 52.6748 11.875V14.9033H51.79V9.63867H52.6309V10.5479C52.6998 10.371 52.8683 10.1564 53.1367 9.9043C53.4053 9.64881 53.7149 9.52153 54.0654 9.52148Z" fill="black"/>
<path d="M89.1348 7.6582V10.3516C89.3445 10.0861 89.5331 9.89915 89.7002 9.79102C89.9852 9.60433 90.3408 9.51077 90.7666 9.51074C91.5301 9.51074 92.0483 9.77839 92.3203 10.3125C92.4677 10.6041 92.541 11.0088 92.541 11.5264V14.9033H91.6318V11.585C91.6318 11.1987 91.5826 10.9155 91.4844 10.7354C91.3238 10.447 91.0224 10.3027 90.5801 10.3027C90.2131 10.3027 89.8802 10.4284 89.582 10.6807C89.2838 10.933 89.1348 11.4101 89.1348 12.1113V14.9033H88.25V7.6582H89.1348Z" fill="black"/>
<path d="M104.284 9.52148C104.992 9.52156 105.473 9.77699 105.729 10.2881C105.866 10.5633 105.936 10.9333 105.936 11.3984V14.9033H105.017V11.2461C105.017 10.8956 104.928 10.6545 104.751 10.5234C104.577 10.3925 104.364 10.3272 104.112 10.3271C103.765 10.3271 103.464 10.4431 103.212 10.6758C102.963 10.9084 102.839 11.297 102.839 11.8408V14.9033H101.939V11.4678C101.939 11.1106 101.897 10.8494 101.812 10.6855C101.677 10.44 101.426 10.3174 101.06 10.3174C100.725 10.3174 100.421 10.4464 100.146 10.7051C99.8735 10.9639 99.7373 11.433 99.7373 12.1113V14.9033H98.8525V9.63867H99.7275V10.3857C99.9371 10.127 100.128 9.93923 100.298 9.82129C100.589 9.62141 100.921 9.52148 101.291 9.52148C101.71 9.52156 102.047 9.6247 102.303 9.83105C102.447 9.949 102.578 10.1222 102.696 10.3516C102.893 10.0698 103.124 9.86187 103.39 9.72754C103.655 9.59 103.953 9.52148 104.284 9.52148Z" fill="black"/>
<path d="M114.798 9.52148C115.545 9.52149 116.049 9.78174 116.312 10.3027C116.456 10.5878 116.528 10.9956 116.528 11.5264V14.9033H115.629V11.585C115.629 11.264 115.581 11.0051 115.486 10.8086C115.329 10.481 115.044 10.3174 114.631 10.3174C114.421 10.3174 114.249 10.3383 114.114 10.3809C113.872 10.453 113.659 10.5973 113.476 10.8135C113.328 10.9871 113.231 11.1677 113.186 11.3545C113.143 11.538 113.122 11.8016 113.122 12.1455V14.9033H112.237V9.63867H113.077V10.3857C113.326 10.0777 113.591 9.857 113.869 9.72266C114.148 9.58836 114.457 9.52148 114.798 9.52148Z" fill="black"/>
</svg>
