<svg width="131" height="42" viewBox="0 0 131 42" fill="none" xmlns="http://www.w3.org/2000/svg">
<path d="M0.5 0.5H116C124.008 0.5 130.5 6.99187 130.5 15V41.5H15C6.99187 41.5 0.5 35.0081 0.5 27V0.5Z" fill="white" stroke="black"/>
<path d="M15.9605 24.1575C19.4266 26.9643 24.3836 26.9643 27.8497 24.1575L26.5095 22.5026C23.8248 24.6766 19.9854 24.6766 17.3007 22.5026L15.9605 24.1575Z" fill="black"/>
<path d="M17.404 20.5134V17.6365H19.5336V20.5134H17.404Z" fill="black"/>
<path d="M24.012 17.6365V20.5134H26.1415V17.6365H24.012Z" fill="black"/>
<path fill-rule="evenodd" clip-rule="evenodd" d="M33 21.5C33 27.8513 27.8513 33 21.5 33C15.1487 33 10 27.8513 10 21.5C10 15.1487 15.1487 10 21.5 10C27.8513 10 33 15.1487 33 21.5ZM30.8705 21.5C30.8705 26.6752 26.6752 30.8705 21.5 30.8705C16.3248 30.8705 12.1295 26.6752 12.1295 21.5C12.1295 16.3248 16.3248 12.1295 21.5 12.1295C26.6752 12.1295 30.8705 16.3248 30.8705 21.5Z" fill="black"/>
<path d="M52.8557 7.44875C52.7409 7.61784 52.6769 7.88449 52.6637 8.24869V9.06814H52.0776V8.95102C51.9824 8.94127 51.9151 8.93477 51.8757 8.93151C51.8363 8.92826 51.8084 8.92664 51.792 8.92664C51.4408 8.92664 51.1306 9.05346 50.8615 9.3071C50.5923 9.55749 50.4233 9.77048 50.3544 9.94607V9.0437H49.5125V14.2677H50.3987V11.2631C50.3987 10.8923 50.5185 10.5655 50.7581 10.2826C50.9977 9.99648 51.3407 9.8534 51.7871 9.8534C51.8396 9.8534 51.8872 9.85502 51.9299 9.85828C51.9758 9.86153 52.0251 9.86803 52.0776 9.87779V9.76078H52.6637V14.2678H53.5401V9.76078H54.4263V9.06814H53.5499C53.5499 8.50233 53.5762 8.15114 53.6287 8.01456C53.6812 7.87473 53.8421 7.80482 54.1112 7.80482C54.1473 7.80482 54.1851 7.80645 54.2245 7.8097C54.2671 7.8097 54.3344 7.81295 54.4263 7.81945V7.01951C54.3508 7.01301 54.2835 7.00813 54.2245 7.00488C54.1654 7.00163 54.1079 7 54.0521 7C53.4613 7 53.0625 7.14958 52.8557 7.44875Z" fill="black"/>
<path d="M97.5302 9.19494C97.3628 9.30224 97.1741 9.4876 96.964 9.75099V7.07802H96.0778V14.2677H96.964V11.4972C96.964 10.8013 97.1133 10.3282 97.412 10.0778C97.7107 9.82741 98.0439 9.70222 98.4115 9.70222C98.8546 9.70222 99.1566 9.8453 99.3174 10.1315C99.4159 10.3103 99.4651 10.5916 99.4651 10.9753V14.2677H100.376V10.9168C100.376 10.403 100.302 10.0014 100.154 9.71197C99.882 9.18193 99.3633 8.91691 98.5986 8.91691C98.1719 8.91691 97.8157 9.00958 97.5302 9.19494Z" fill="black"/>
<path fill-rule="evenodd" clip-rule="evenodd" d="M117.727 10.8485C117.658 10.9916 117.522 11.0761 117.319 11.1022L115.905 11.2778C115.41 11.3395 115.009 11.5037 114.704 11.7704C114.399 12.037 114.246 12.4126 114.246 12.8971C114.246 13.3394 114.401 13.7085 114.709 14.0044C115.021 14.297 115.421 14.4434 115.91 14.4434C116.317 14.4434 116.69 14.3572 117.028 14.1849C117.366 14.0125 117.625 13.8093 117.806 13.5751C117.835 13.7833 117.886 13.9442 117.959 14.058C118.096 14.2727 118.318 14.38 118.623 14.38C118.748 14.38 118.846 14.3751 118.919 14.3653C118.991 14.3556 119.096 14.3312 119.234 14.2922V13.6434C119.178 13.6532 119.125 13.6613 119.076 13.6678C119.027 13.6711 118.983 13.6727 118.943 13.6727C118.822 13.6727 118.741 13.6451 118.702 13.5898C118.666 13.5345 118.648 13.4613 118.648 13.3703V10.3607C118.648 9.86647 118.456 9.50227 118.072 9.26814C117.684 9.03401 117.181 8.91694 116.56 8.91694C116.025 8.91694 115.554 9.04377 115.147 9.29741C114.744 9.54779 114.533 9.99492 114.517 10.6388H115.344C115.377 10.3689 115.448 10.1656 115.556 10.0291C115.75 9.78192 116.078 9.65835 116.541 9.65835C116.941 9.65835 117.248 9.72664 117.461 9.86322C117.678 9.99654 117.786 10.2128 117.786 10.512C117.786 10.6583 117.767 10.7705 117.727 10.8485ZM115.453 13.4776C115.265 13.3313 115.172 13.1313 115.172 12.8776C115.172 12.5427 115.308 12.2988 115.581 12.146C115.741 12.0549 115.983 11.9883 116.304 11.946L116.841 11.8777C117.005 11.8582 117.172 11.8257 117.343 11.7802C117.514 11.7346 117.653 11.6777 117.762 11.6094V12.3167C117.762 12.8565 117.515 13.2451 117.023 13.4825C116.731 13.6255 116.429 13.6971 116.117 13.6971C115.861 13.6971 115.64 13.6239 115.453 13.4776Z" fill="black"/>
<path d="M121.336 9.12662C121.057 9.25995 120.793 9.47944 120.544 9.78511V9.0437H119.702V14.2677H120.588V11.5313C120.588 11.1899 120.609 10.9281 120.652 10.746C120.698 10.5607 120.795 10.3818 120.943 10.2095C121.126 9.99485 121.34 9.85177 121.583 9.78023C121.717 9.73796 121.889 9.71682 122.1 9.71682C122.513 9.71682 122.799 9.87941 122.956 10.2046C123.051 10.3997 123.099 10.6566 123.099 10.9753V14.2677H124V10.9167C124 10.3899 123.928 9.9851 123.783 9.70219C123.521 9.18515 123.015 8.92664 122.267 8.92664C121.926 8.92664 121.615 8.9933 121.336 9.12662Z" fill="black"/>
<path fill-rule="evenodd" clip-rule="evenodd" d="M102.042 31.1609L97.4552 18.3289H94.3972L89.7752 31.1609H92.6047L93.5009 28.5231H98.2724L99.1072 31.1609H102.042ZM95.8999 21.2627L97.5167 26.3119H94.2303L95.8999 21.2627Z" fill="black"/>
<path fill-rule="evenodd" clip-rule="evenodd" d="M74.0484 21.4629C75.3079 21.4629 76.2921 21.9127 77.0009 22.8123C77.7156 23.7118 78.0729 24.8726 78.0729 26.2945C78.0729 27.7686 77.7214 28.9903 77.0185 29.9595C76.3155 30.9287 75.3343 31.4133 74.0748 31.4133C73.2839 31.4133 72.6483 31.2566 72.1679 30.9432C71.8809 30.7575 71.5704 30.4325 71.2365 29.9682V31.1609H68.7849V18.3463H71.2804V22.908C71.5968 22.4669 71.9453 22.1303 72.3261 21.8982C72.7772 21.608 73.3513 21.4629 74.0484 21.4629ZM73.4069 29.3675C74.0513 29.3675 74.5522 29.1093 74.9095 28.5927C75.2669 28.0762 75.4456 27.3972 75.4456 26.5556C75.4456 25.8824 75.3577 25.3253 75.1819 24.8842C74.848 24.0485 74.2329 23.6306 73.3366 23.6306C72.4286 23.6306 71.8047 24.0397 71.465 24.8581C71.2892 25.2933 71.2014 25.8563 71.2014 26.5469C71.2014 27.3595 71.383 28.0327 71.7462 28.5666C72.1094 29.1006 72.663 29.3675 73.4069 29.3675Z" fill="black"/>
<path d="M60.7639 30.6821C60.4827 30.3977 60.3421 29.9595 60.3421 29.3675V23.5261H59.0065V21.7589H60.3421V19.1124H62.8201V21.7589H64.3754V23.5261H62.8201V28.5405C62.8201 28.9293 62.8699 29.1731 62.9695 29.2718C63.0691 29.3646 63.3737 29.4111 63.8834 29.4111H64.1206C64.2085 29.4053 64.2934 29.3994 64.3754 29.3936V31.2479L63.1892 31.2914C62.0058 31.3321 61.1974 31.1289 60.7639 30.6821Z" fill="black"/>
<path fill-rule="evenodd" clip-rule="evenodd" d="M58.9091 26.4338C58.9091 27.8267 58.5049 29.0193 57.6965 30.0117C56.8881 30.9984 55.6608 31.4917 54.0147 31.4917C52.3685 31.4917 51.1413 30.9984 50.3329 30.0117C49.5244 29.0193 49.1202 27.8267 49.1202 26.4338C49.1202 25.0641 49.5244 23.8772 50.3329 22.8732C51.1413 21.8692 52.3685 21.3671 54.0147 21.3671C55.6608 21.3671 56.8881 21.8692 57.6965 22.8732C58.5049 23.8772 58.9091 25.0641 58.9091 26.4338ZM54.0059 29.4111C54.7382 29.4111 55.3005 29.1528 55.693 28.6363C56.0855 28.1197 56.2818 27.3856 56.2818 26.4338C56.2818 25.482 56.0855 24.7507 55.693 24.24C55.3005 23.7234 54.7382 23.4652 54.0059 23.4652C53.2736 23.4652 52.7083 23.7234 52.31 24.24C51.9175 24.7507 51.7212 25.482 51.7212 26.4338C51.7212 27.3856 51.9175 28.1197 52.31 28.6363C52.7083 29.1528 53.2736 29.4111 54.0059 29.4111Z" fill="black"/>
<path d="M47.16 22.2203C46.5332 21.7038 45.7247 21.4455 44.7347 21.4455C43.9439 21.4455 43.2907 21.637 42.7752 22.0201C42.4881 22.2348 42.1835 22.5859 41.8613 23.0734V21.6893H39.4448V31.1609H41.9404V26.0246C41.9404 25.4384 42.0224 24.9567 42.1864 24.5795C42.5028 23.8656 43.0857 23.5087 43.9351 23.5087C44.6263 23.5087 45.095 23.7525 45.341 24.24C45.4758 24.5069 45.5431 24.89 45.5431 25.3891V31.1609H48.109V24.771C48.109 23.5813 47.7927 22.731 47.16 22.2203Z" fill="black"/>
<path d="M79.8574 32.9977L79.5411 32.9803V34.9652C79.8106 34.9826 80.0127 34.9913 80.1474 34.9913C80.2821 34.9971 80.4608 35 80.6834 35C81.7906 35 82.5287 34.7824 82.8978 34.3471C83.2668 33.9176 83.7677 32.8033 84.4004 31.0042L87.6868 21.6718H85.0243L83.0472 28.6711L80.9558 21.6718H78.1703L81.6852 31.5787C81.7086 31.6484 81.6559 31.8399 81.527 32.1533C81.404 32.4667 81.2692 32.6727 81.1228 32.7714C80.9705 32.8759 80.783 32.9426 80.5604 32.9716C80.3378 33.0006 80.1035 33.0093 79.8574 32.9977Z" fill="black"/>
<path d="M107.944 9.22418C107.773 9.34124 107.583 9.52822 107.373 9.78511V9.0437H106.496V14.2677H107.383V11.4972C107.383 10.8241 107.519 10.3591 107.791 10.1022C108.067 9.84527 108.372 9.71682 108.707 9.71682C109.075 9.71682 109.326 9.83877 109.46 10.0827C109.546 10.2452 109.588 10.5038 109.588 10.8582V14.2677H110.489V11.2289C110.489 10.6891 110.614 10.3038 110.863 10.0729C111.116 9.84202 111.416 9.72658 111.764 9.72658C112.017 9.72658 112.23 9.79161 112.404 9.92169C112.582 10.0518 112.67 10.2908 112.67 10.6387V14.2677H113.591V10.7899C113.591 10.3282 113.522 9.96071 113.384 9.68756C113.128 9.18028 112.646 8.92664 111.937 8.92664C111.605 8.92664 111.307 8.99492 111.041 9.1315C110.775 9.26482 110.543 9.47131 110.346 9.75097C110.228 9.52334 110.097 9.351 109.953 9.23393C109.697 9.02907 109.358 8.92664 108.938 8.92664C108.567 8.92664 108.236 9.02582 107.944 9.22418Z" fill="black"/>
<path d="M102.301 13.1653C102.216 12.9962 102.173 12.7783 102.173 12.5117V9.04366H101.267V12.5946C101.267 13.0401 101.341 13.3962 101.489 13.6628C101.761 14.1604 102.273 14.4091 103.025 14.4091C103.507 14.4091 103.918 14.2726 104.256 13.9994C104.426 13.8628 104.569 13.6954 104.684 13.497L104.674 14.2677H105.511V9.04366H104.625V11.6093C104.625 12.1199 104.564 12.5215 104.443 12.8141C104.22 13.3604 103.8 13.6336 103.182 13.6336C102.752 13.6336 102.459 13.4775 102.301 13.1653Z" fill="black"/>
<path d="M90.9074 13.297L92.3302 9.04366H93.31C93.1853 9.37859 92.9079 10.1428 92.4779 11.3362C92.1563 12.2337 91.8871 12.9653 91.6705 13.5311C91.1585 14.8644 90.7974 15.6773 90.5873 15.97C90.3773 16.2627 90.0162 16.409 89.5042 16.409C89.3795 16.409 89.2826 16.4041 89.2137 16.3943C89.1481 16.3846 89.066 16.3667 88.9675 16.3407V15.5408C89.1218 15.583 89.2334 15.609 89.3023 15.6188C89.3712 15.6286 89.432 15.6334 89.4845 15.6334C89.6486 15.6334 89.7684 15.6058 89.8439 15.5505C89.9227 15.4985 89.9883 15.4334 90.0408 15.3554C90.0572 15.3294 90.1163 15.1961 90.2181 14.9554C90.3198 14.7148 90.3937 14.5359 90.4396 14.4189L88.49 9.04366H89.4943L90.9074 13.297Z" fill="black"/>
<path fill-rule="evenodd" clip-rule="evenodd" d="M85.1021 14.1458C84.938 14.032 84.7624 13.8499 84.5753 13.5995V14.2677H83.758V7.07802H84.6197V9.67783C84.8133 9.42744 85.0447 9.23721 85.3139 9.10714C85.583 8.97381 85.8751 8.90715 86.1902 8.90715C86.8467 8.90715 87.3784 9.13153 87.7854 9.58027C88.1957 10.0258 88.4009 10.6843 88.4009 11.5557C88.4009 12.3817 88.199 13.0678 87.7953 13.6141C87.3915 14.1604 86.8319 14.4336 86.1164 14.4336C85.7159 14.4336 85.3779 14.3377 85.1021 14.1458ZM86.0622 13.658C86.5414 13.658 86.8992 13.4694 87.1355 13.0922C87.3751 12.715 87.4949 12.2175 87.4949 11.5996C87.4949 11.0501 87.3751 10.5948 87.1355 10.2339C86.8992 9.87294 86.5496 9.69246 86.0868 9.69246C85.6831 9.69246 85.3286 9.84042 85.0234 10.1363C84.7214 10.4322 84.5704 10.92 84.5704 11.5996C84.5704 12.0907 84.6328 12.489 84.7575 12.7947C84.9906 13.3702 85.4255 13.658 86.0622 13.658Z" fill="black"/>
<path fill-rule="evenodd" clip-rule="evenodd" d="M78.11 8.95105C78.5138 8.95105 78.8518 9.0356 79.1243 9.20469C79.2818 9.30225 79.4607 9.47296 79.6609 9.71685V7.07802H80.5127V14.2677H79.7151V13.541C79.5083 13.8629 79.2638 14.0954 78.9815 14.2385C78.6992 14.3816 78.3759 14.4531 78.0116 14.4531C77.424 14.4531 76.9153 14.2092 76.4853 13.7214C76.0553 13.2304 75.8403 12.5784 75.8403 11.7655C75.8403 11.0046 76.0356 10.3461 76.4262 9.79001C76.8201 9.23071 77.3814 8.95105 78.11 8.95105ZM76.7758 11.7167C76.7758 12.276 76.8956 12.7443 77.1352 13.1215C77.3748 13.4987 77.7588 13.6873 78.2873 13.6873C78.6976 13.6873 79.034 13.5133 79.2966 13.1654C79.5624 12.8142 79.6954 12.3118 79.6954 11.6582C79.6954 10.9981 79.5592 10.5103 79.2867 10.1949C79.0143 9.87619 78.6779 9.71685 78.2774 9.71685C77.831 9.71685 77.4683 9.88594 77.1893 10.2241C76.9136 10.5623 76.7758 11.0598 76.7758 11.7167Z" fill="black"/>
<path fill-rule="evenodd" clip-rule="evenodd" d="M73.2011 8.92664C73.5752 8.92664 73.9379 9.01443 74.2891 9.19003C74.6403 9.36238 74.9078 9.58675 75.0917 9.86315C75.2689 10.1265 75.3871 10.4338 75.4461 10.785C75.4987 11.0257 75.5249 11.4094 75.5249 11.9362H71.66C71.6764 12.4662 71.8028 12.8922 72.0391 13.2141C72.2754 13.5328 72.6414 13.6921 73.137 13.6921C73.5998 13.6921 73.9691 13.5409 74.2448 13.2385C74.4024 13.0629 74.514 12.8597 74.5796 12.6288H75.4511C75.4281 12.8207 75.351 13.0353 75.2197 13.2727C75.0917 13.5068 74.9472 13.6986 74.7864 13.8482C74.5173 14.1084 74.1841 14.284 73.7869 14.375C73.5736 14.4271 73.3323 14.4531 73.0632 14.4531C72.4067 14.4531 71.8504 14.2173 71.3941 13.7458C70.9379 13.271 70.7098 12.6077 70.7098 11.7557C70.7098 10.9167 70.9396 10.2355 71.3991 9.71195C71.8586 9.18841 72.4593 8.92664 73.2011 8.92664ZM74.6141 11.2387C74.578 10.8582 74.4943 10.5542 74.363 10.3265C74.1201 9.9038 73.7147 9.69243 73.1469 9.69243C72.7399 9.69243 72.3985 9.83877 72.1228 10.1314C71.8471 10.4208 71.701 10.7899 71.6846 11.2387H74.6141Z" fill="black"/>
<path d="M64.3039 10.1022C64.0314 10.3591 63.8952 10.8241 63.8952 11.4972V14.2677H63.009V9.0437H63.8854V9.78511C64.0954 9.52822 64.2858 9.34124 64.4565 9.22418C64.7486 9.02582 65.0801 8.92664 65.451 8.92664C65.8711 8.92664 66.2092 9.02907 66.4652 9.23393C66.6097 9.351 66.741 9.52334 66.8591 9.75097C67.0561 9.47131 67.2875 9.26482 67.5533 9.1315C67.8192 8.99492 68.1179 8.92664 68.4494 8.92664C69.1584 8.92664 69.6409 9.18028 69.8969 9.68756C70.0347 9.96071 70.1037 10.3282 70.1037 10.7899V14.2677H69.183V10.6387C69.183 10.2908 69.0944 10.0518 68.9171 9.92169C68.7432 9.79161 68.5298 9.72658 68.2771 9.72658C67.9291 9.72658 67.6288 9.84202 67.3761 10.0729C67.1266 10.3038 67.0019 10.6891 67.0019 11.2289V14.2677H66.1009V10.8582C66.1009 10.5038 66.0582 10.2452 65.9729 10.0827C65.8383 9.83877 65.5872 9.71682 65.2196 9.71682C64.8848 9.71682 64.5796 9.84527 64.3039 10.1022Z" fill="black"/>
<path d="M61.3248 10.2826C61.0852 10.5655 60.9654 10.8923 60.9654 11.2631V14.2677H60.0792V9.0437H60.9211V9.94607C60.99 9.77048 61.1591 9.55749 61.4282 9.3071C61.6974 9.05346 62.0076 8.92664 62.3588 8.92664C62.3752 8.92664 62.4031 8.92826 62.4425 8.93151C62.4818 8.93477 62.5491 8.94127 62.6443 8.95102V9.87779C62.5918 9.86803 62.5426 9.86153 62.4966 9.85828C62.454 9.85502 62.4064 9.8534 62.3538 9.8534C61.9075 9.8534 61.5645 9.99648 61.3248 10.2826Z" fill="black"/>
<path fill-rule="evenodd" clip-rule="evenodd" d="M56.9721 8.89247C57.6515 8.89247 58.2259 9.11685 58.6953 9.5656C59.1646 10.0143 59.3993 10.6745 59.3993 11.5459C59.3993 12.3882 59.1926 13.084 58.779 13.6336C58.3654 14.1831 57.7237 14.4579 56.8539 14.4579C56.1285 14.4579 55.5525 14.2157 55.1258 13.7311C54.6991 13.2434 54.4857 12.5898 54.4857 11.7703C54.4857 10.8923 54.7106 10.1932 55.1602 9.67291C55.6099 9.15262 56.2139 8.89247 56.9721 8.89247ZM56.9376 13.7019C57.5251 13.7019 57.9272 13.4824 58.1439 13.0434C58.3638 12.6011 58.4737 12.1101 58.4737 11.5703C58.4737 11.0826 58.395 10.6858 58.2374 10.3802C57.9879 9.89891 57.558 9.65827 56.9475 9.65827C56.4059 9.65827 56.012 9.86314 55.7658 10.2729C55.5197 10.6826 55.3966 11.1769 55.3966 11.7557C55.3966 12.3117 55.5197 12.7751 55.7658 13.1458C56.012 13.5165 56.4026 13.7019 56.9376 13.7019Z" fill="black"/>
<path fill-rule="evenodd" clip-rule="evenodd" d="M46.4741 8.92664C46.8483 8.92664 47.211 9.01443 47.5622 9.19003C47.9134 9.36238 48.1809 9.58675 48.3647 9.86315C48.5419 10.1265 48.6601 10.4338 48.7192 10.785C48.7717 11.0257 48.7979 11.4094 48.7979 11.9362H44.933C44.9495 12.4662 45.0758 12.8922 45.3121 13.2141C45.5485 13.5328 45.9144 13.6921 46.4101 13.6921C46.8729 13.6921 47.2421 13.5409 47.5178 13.2385C47.6754 13.0629 47.787 12.8597 47.8526 12.6288H48.7241C48.7011 12.8207 48.624 13.0353 48.4927 13.2727C48.3647 13.5068 48.2203 13.6986 48.0594 13.8482C47.7903 14.1084 47.4571 14.284 47.06 14.375C46.8466 14.4271 46.6054 14.4531 46.3362 14.4531C45.6798 14.4531 45.1234 14.2173 44.6672 13.7458C44.2109 13.271 43.9828 12.6077 43.9828 11.7557C43.9828 10.9167 44.2126 10.2355 44.6721 9.71195C45.1316 9.18841 45.7323 8.92664 46.4741 8.92664ZM47.8871 11.2387C47.851 10.8582 47.7673 10.5542 47.636 10.3265C47.3931 9.9038 46.9878 9.69243 46.4199 9.69243C46.0129 9.69243 45.6716 9.83877 45.3958 10.1314C45.1201 10.4208 44.9741 10.7899 44.9577 11.2387H47.8871Z" fill="black"/>
<path fill-rule="evenodd" clip-rule="evenodd" d="M40.413 14.1849C40.2555 14.0873 40.0799 13.9198 39.8862 13.6825V16.3506H39V9.06815H39.8616V9.76079C40.0388 9.52341 40.2325 9.33968 40.4426 9.20961C40.7413 9.0145 41.0925 8.91694 41.4962 8.91694C42.0936 8.91694 42.6007 9.14457 43.0175 9.59982C43.4344 10.0518 43.6428 10.6989 43.6428 11.5411C43.6428 12.6793 43.3425 13.4922 42.7418 13.98C42.3611 14.2889 41.918 14.4434 41.4125 14.4434C41.0153 14.4434 40.6822 14.3572 40.413 14.1849ZM41.2943 13.6776C41.7079 13.6776 42.0509 13.5069 42.3233 13.1654C42.599 12.8207 42.7369 12.3069 42.7369 11.6241C42.7369 11.2078 42.6762 10.8501 42.5547 10.551C42.325 9.97541 41.9048 9.68762 41.2943 9.68762C40.6805 9.68762 40.2604 9.99166 40.0339 10.5998C39.9125 10.9249 39.8518 11.3379 39.8518 11.8387C39.8518 12.2419 39.9125 12.585 40.0339 12.8679C40.2637 13.4077 40.6838 13.6776 41.2943 13.6776Z" fill="black"/>
<path d="M104.349 20.5116V28.9811H102.754V31.1638H108.448V28.9811H107.038V20.5116H108.448V18.3289H102.754V20.5116H104.349Z" fill="black"/>
</svg>
