<svg width="131" height="42" viewBox="0 0 131 42" fill="none" xmlns="http://www.w3.org/2000/svg">
<path d="M116 0.5C124.008 0.5 130.5 6.99187 130.5 15V41.5H15C6.99187 41.5 0.5 35.0081 0.5 27V0.5H116Z" fill="white" stroke="black"/>
<path d="M15.9605 24.1575C19.4266 26.9643 24.3836 26.9643 27.8497 24.1575L26.5095 22.5026C23.8248 24.6766 19.9854 24.6766 17.3007 22.5026L15.9605 24.1575Z" fill="black"/>
<path d="M17.404 20.5134V17.6365H19.5336V20.5134H17.404Z" fill="black"/>
<path d="M24.012 17.6365V20.5134H26.1415V17.6365H24.012Z" fill="black"/>
<path fill-rule="evenodd" clip-rule="evenodd" d="M33 21.5C33 27.8513 27.8513 33 21.5 33C15.1487 33 10 27.8513 10 21.5C10 15.1487 15.1487 10 21.5 10C27.8513 10 33 15.1487 33 21.5ZM30.8705 21.5C30.8705 26.6752 26.6752 30.8705 21.5 30.8705C16.3248 30.8705 12.1295 26.6752 12.1295 21.5C12.1295 16.3248 16.3248 12.1295 21.5 12.1295C26.6752 12.1295 30.8705 16.3248 30.8705 21.5Z" fill="black"/>
<path fill-rule="evenodd" clip-rule="evenodd" d="M101.042 32.1608L96.4552 19.3289H93.3972L88.7752 32.1608H91.6046L92.5009 29.523H97.2724L98.1071 32.1608H101.042ZM94.8998 22.2626L96.5167 27.3118H93.2303L94.8998 22.2626Z" fill="black"/>
<path fill-rule="evenodd" clip-rule="evenodd" d="M73.0484 22.4628C74.3079 22.4628 75.292 22.9126 76.0009 23.8122C76.7156 24.7118 77.0729 25.8725 77.0729 27.2944C77.0729 28.7685 76.7214 29.9902 76.0184 30.9594C75.3155 31.9287 74.3342 32.4133 73.0747 32.4133C72.2839 32.4133 71.6483 32.2566 71.1679 31.9432C70.8809 31.7574 70.5704 31.4324 70.2365 30.9681V32.1608H67.7849V19.3463H70.2804V23.908C70.5968 23.4669 70.9453 23.1303 71.3261 22.8981C71.7772 22.6079 72.3513 22.4628 73.0484 22.4628ZM72.4069 30.3675C73.0513 30.3675 73.5522 30.1092 73.9095 29.5927C74.2669 29.0761 74.4455 28.3971 74.4455 27.5556C74.4455 26.8824 74.3577 26.3252 74.1819 25.8841C73.848 25.0484 73.2329 24.6305 72.3366 24.6305C71.4286 24.6305 70.8047 25.0397 70.465 25.858C70.2892 26.2933 70.2013 26.8562 70.2013 27.5469C70.2013 28.3594 70.3829 29.0326 70.7461 29.5666C71.1094 30.1005 71.6629 30.3675 72.4069 30.3675Z" fill="black"/>
<path d="M59.7639 31.682C59.4827 31.3976 59.3421 30.9594 59.3421 30.3675V24.5261H58.0065V22.7588H59.3421V20.1124H61.8201V22.7588H63.3754V24.5261H61.8201V29.5404C61.8201 29.9293 61.8699 30.173 61.9695 30.2717C62.0691 30.3646 62.3737 30.411 62.8833 30.411H63.1206C63.2085 30.4052 63.2934 30.3994 63.3754 30.3936V32.2479L62.1892 32.2914C61.0058 32.332 60.1974 32.1289 59.7639 31.682Z" fill="black"/>
<path fill-rule="evenodd" clip-rule="evenodd" d="M57.9091 27.4337C57.9091 28.8266 57.5049 30.0192 56.6965 31.0117C55.8881 31.9983 54.6608 32.4916 53.0147 32.4916C51.3685 32.4916 50.1412 31.9983 49.3328 31.0117C48.5244 30.0192 48.1202 28.8266 48.1202 27.4337C48.1202 26.064 48.5244 24.8772 49.3328 23.8731C50.1412 22.8691 51.3685 22.3671 53.0147 22.3671C54.6608 22.3671 55.8881 22.8691 56.6965 23.8731C57.5049 24.8772 57.9091 26.064 57.9091 27.4337ZM53.0059 30.411C53.7381 30.411 54.3005 30.1527 54.693 29.6362C55.0855 29.1197 55.2817 28.3855 55.2817 27.4337C55.2817 26.4819 55.0855 25.7506 54.693 25.2399C54.3005 24.7234 53.7381 24.4651 53.0059 24.4651C52.2736 24.4651 51.7083 24.7234 51.3099 25.2399C50.9174 25.7506 50.7212 26.4819 50.7212 27.4337C50.7212 28.3855 50.9174 29.1197 51.3099 29.6362C51.7083 30.1527 52.2736 30.411 53.0059 30.411Z" fill="black"/>
<path d="M46.16 23.2202C45.5331 22.7037 44.7247 22.4454 43.7347 22.4454C42.9439 22.4454 42.2907 22.637 41.7752 23.02C41.4881 23.2347 41.1835 23.5859 40.8613 24.0734V22.6892H38.4448V32.1608H40.9404V27.0245C40.9404 26.4384 41.0224 25.9567 41.1864 25.5794C41.5028 24.8656 42.0856 24.5086 42.9351 24.5086C43.6263 24.5086 44.095 24.7524 44.341 25.2399C44.4758 25.5069 44.5431 25.8899 44.5431 26.389V32.1608H47.109V25.7709C47.109 24.5812 46.7926 23.731 46.16 23.2202Z" fill="black"/>
<path d="M78.8574 33.9977L78.5411 33.9803V35.9651C78.8105 35.9825 79.0126 35.9912 79.1474 35.9912C79.2821 35.997 79.4608 35.9999 79.6834 35.9999C80.7906 35.9999 81.5287 35.7823 81.8978 35.347C82.2668 34.9175 82.7677 33.8032 83.4004 32.0041L86.6868 22.6718H84.0243L82.0471 29.671L79.9558 22.6718H77.1703L80.6851 32.5787C80.7086 32.6483 80.6558 32.8398 80.527 33.1532C80.4039 33.4666 80.2692 33.6727 80.1228 33.7713C79.9704 33.8758 79.783 33.9425 79.5604 33.9715C79.3378 34.0006 79.1034 34.0093 78.8574 33.9977Z" fill="black"/>
<path d="M103.349 21.5116V29.9811H101.754V32.1638H107.448V29.9811H106.038V21.5116H107.448V19.3289H101.754V21.5116H103.349Z" fill="black"/>
<path d="M86.873 13.9219L88.1709 10.0049H89.0645C88.9506 10.3135 88.6978 11.0175 88.3057 12.1162C88.0122 12.9427 87.767 13.6166 87.5693 14.1377C87.1022 15.3655 86.7727 16.1142 86.5811 16.3838C86.3894 16.6532 86.0598 16.788 85.5928 16.7881C85.479 16.7881 85.39 16.7834 85.3271 16.7744C85.2673 16.7654 85.1923 16.7485 85.1025 16.7246V15.9883C85.2433 16.0272 85.3453 16.0516 85.4082 16.0605C85.471 16.0695 85.5264 16.0732 85.5742 16.0732C85.724 16.0732 85.8335 16.048 85.9023 15.9971C85.9742 15.9492 86.0341 15.8892 86.082 15.8174C86.0971 15.7932 86.1514 15.6705 86.2441 15.4492C86.337 15.2277 86.4044 15.0629 86.4463 14.9551L84.667 10.0049H85.583L86.873 13.9219Z" fill="black"/>
<path fill-rule="evenodd" clip-rule="evenodd" d="M40.2715 9.8877C40.8164 9.88771 41.2789 10.0975 41.6592 10.5166C42.0395 10.9329 42.2305 11.529 42.2305 12.3047C42.2304 13.3527 41.9562 14.1016 41.4082 14.5508C41.0609 14.8352 40.6564 14.9775 40.1953 14.9775C39.833 14.9775 39.5288 14.898 39.2832 14.7393C39.1395 14.6494 38.9794 14.495 38.8027 14.2764V16.7334H37.9941V10.0273H38.7803V10.665C38.942 10.4464 39.1189 10.277 39.3105 10.1572C39.583 9.97767 39.9033 9.8877 40.2715 9.8877ZM40.0869 10.5977C39.5271 10.5978 39.1441 10.8776 38.9375 11.4375C38.8267 11.7369 38.7715 12.1171 38.7715 12.5781C38.7715 12.9495 38.8267 13.2658 38.9375 13.5264C39.1471 14.0233 39.5301 14.2724 40.0869 14.2725C40.4642 14.2725 40.7778 14.1152 41.0264 13.8008C41.2779 13.4833 41.4033 13.0098 41.4033 12.3809C41.4033 11.9975 41.3481 11.6681 41.2373 11.3926C41.0277 10.8625 40.6439 10.5977 40.0869 10.5977Z" fill="black"/>
<path d="M120.518 9.87891C121.242 9.87897 121.765 10.0914 122.085 10.5166C122.286 10.786 122.383 11.0764 122.377 11.3877H121.613C121.598 11.2052 121.534 11.0393 121.42 10.8896C121.234 10.677 120.912 10.5703 120.454 10.5703C120.149 10.5703 119.916 10.6293 119.758 10.7461C119.602 10.8628 119.525 11.0167 119.524 11.208C119.524 11.4176 119.627 11.5861 119.834 11.7119C119.954 11.7868 120.131 11.8523 120.364 11.9092L120.899 12.0391C121.48 12.1798 121.87 12.3165 122.067 12.4482C122.382 12.6549 122.539 12.9798 122.539 13.4229C122.539 13.8511 122.375 14.2208 122.049 14.5322C121.725 14.8437 121.231 15 120.566 15C119.851 15 119.343 14.838 119.044 14.5146C118.748 14.1883 118.588 13.7856 118.567 13.3066H119.345C119.369 13.5758 119.436 13.7821 119.547 13.9258C119.751 14.1863 120.104 14.3174 120.607 14.3174C120.907 14.3173 121.17 14.2526 121.397 14.124C121.625 13.9923 121.739 13.79 121.739 13.5176C121.739 13.3109 121.648 13.1537 121.465 13.0459C121.348 12.98 121.118 12.9032 120.773 12.8164L120.131 12.6553C119.721 12.5535 119.418 12.4392 119.224 12.3135C118.876 12.0949 118.702 11.7925 118.702 11.4062C118.702 10.951 118.866 10.5823 119.192 10.3008C119.522 10.0194 119.964 9.87891 120.518 9.87891Z" fill="black"/>
<path fill-rule="evenodd" clip-rule="evenodd" d="M54.9434 9.86523C55.5632 9.86523 56.0874 10.0722 56.5156 10.4854C56.9438 10.8986 57.1581 11.5062 57.1582 12.3086C57.1582 13.0841 56.97 13.7254 56.5928 14.2314C56.2154 14.7376 55.6296 14.9912 54.8359 14.9912C54.1742 14.9912 53.6491 14.7674 53.2598 14.3213C52.8704 13.8721 52.6758 13.2703 52.6758 12.5156C52.6758 11.707 52.8807 11.0632 53.291 10.584C53.7012 10.105 54.2519 9.86535 54.9434 9.86523ZM54.9209 10.5703C54.427 10.5704 54.0673 10.7595 53.8428 11.1367C53.6183 11.5139 53.5059 11.9691 53.5059 12.502C53.5059 13.0139 53.6183 13.4409 53.8428 13.7822C54.0673 14.1236 54.4241 14.2949 54.9121 14.2949C55.448 14.2949 55.815 14.0925 56.0127 13.6885C56.2133 13.2812 56.3135 12.8282 56.3135 12.3311C56.3134 11.8821 56.2423 11.5168 56.0986 11.2354C55.871 10.7921 55.4779 10.5703 54.9209 10.5703Z" fill="black"/>
<path fill-rule="evenodd" clip-rule="evenodd" d="M44.9512 9.89648C45.2926 9.89648 45.6239 9.97793 45.9443 10.1396C46.2646 10.2983 46.5091 10.5044 46.6768 10.7588C46.8385 11.0014 46.9461 11.285 47 11.6084C47.0479 11.83 47.0723 12.1831 47.0723 12.668H43.5459C43.5609 13.1561 43.676 13.5492 43.8916 13.8457C44.1072 14.139 44.4415 14.2852 44.8936 14.2852C45.3156 14.2851 45.6528 14.1466 45.9043 13.8682C46.0479 13.7066 46.1491 13.5191 46.209 13.3066H47.0049C46.9839 13.4833 46.9127 13.6809 46.793 13.8994C46.6762 14.1149 46.5451 14.292 46.3984 14.4297C46.1529 14.6692 45.8486 14.8302 45.4863 14.9141C45.2918 14.962 45.0716 14.9863 44.8262 14.9863C44.2272 14.9863 43.719 14.7692 43.3027 14.335C42.8865 13.8977 42.6787 13.2865 42.6787 12.502C42.6788 11.7294 42.8884 11.1022 43.3076 10.6201C43.7268 10.1381 44.2745 9.89657 44.9512 9.89648ZM44.9023 10.6016C44.5311 10.6016 44.2193 10.7365 43.9678 11.0059C43.7162 11.2724 43.5833 11.6131 43.5684 12.0264H46.2412C46.2083 11.676 46.1315 11.3952 46.0117 11.1855C45.7901 10.7965 45.4202 10.6016 44.9023 10.6016Z" fill="black"/>
<path fill-rule="evenodd" clip-rule="evenodd" d="M70.165 9.89648C70.5064 9.89648 70.8378 9.97793 71.1582 10.1396C71.4784 10.2983 71.723 10.5044 71.8906 10.7588C72.0523 11.0014 72.16 11.285 72.2139 11.6084C72.2617 11.83 72.2851 12.1832 72.2852 12.668H68.7588C68.7738 13.1561 68.8898 13.5492 69.1055 13.8457C69.3211 14.1388 69.6546 14.2851 70.1064 14.2852C70.5285 14.2852 70.8657 14.1465 71.1172 13.8682C71.2609 13.7065 71.3629 13.5191 71.4229 13.3066H72.2178C72.1968 13.4832 72.1265 13.6809 72.0068 13.8994C71.8901 14.115 71.758 14.292 71.6113 14.4297C71.3659 14.669 71.0622 14.8302 70.7002 14.9141C70.5055 14.962 70.2846 14.9863 70.0391 14.9863C69.4402 14.9863 68.9328 14.7691 68.5166 14.335C68.1003 13.8977 67.8926 13.2866 67.8926 12.502C67.8926 11.7294 68.1023 11.1022 68.5215 10.6201C68.9407 10.1381 69.4883 9.89651 70.165 9.89648ZM70.1162 10.6016C69.745 10.6016 69.4331 10.7366 69.1816 11.0059C68.9301 11.2724 68.7962 11.6131 68.7812 12.0264H71.4541C71.4212 11.676 71.3454 11.3952 71.2256 11.1855C71.004 10.7965 70.634 10.6017 70.1162 10.6016Z" fill="black"/>
<path fill-rule="evenodd" clip-rule="evenodd" d="M76.9746 14.8154H76.2471V14.1465C76.0584 14.4429 75.8347 14.6573 75.5771 14.7891C75.3197 14.9207 75.0246 14.9863 74.6924 14.9863C74.1564 14.9863 73.6921 14.7617 73.2998 14.3125C72.9075 13.8603 72.7119 13.2594 72.7119 12.5107C72.712 11.8101 72.8898 11.2034 73.2461 10.6914C73.6054 10.1765 74.1175 9.91897 74.7822 9.91895C75.1506 9.91895 75.4594 9.99661 75.708 10.1523C75.8517 10.2422 76.0147 10.3996 76.1973 10.624V8.19434H76.9746V14.8154ZM74.9355 10.624C74.5283 10.624 74.1969 10.7803 73.9424 11.0918C73.6909 11.4032 73.5655 11.8611 73.5654 12.4658C73.5654 12.9808 73.6741 13.4124 73.8926 13.7598C74.1112 14.1072 74.4622 14.2812 74.9443 14.2812C75.3185 14.2812 75.6257 14.121 75.8652 13.8008C76.1078 13.4773 76.2285 13.0141 76.2285 12.4121C76.2285 11.8044 76.1049 11.3549 75.8564 11.0645C75.608 10.7711 75.3007 10.6242 74.9355 10.624Z" fill="black"/>
<path fill-rule="evenodd" clip-rule="evenodd" d="M110.969 9.8877C111.535 9.8877 111.994 9.9954 112.348 10.2109C112.698 10.4266 112.873 10.7626 112.873 11.2178V13.9893C112.873 14.073 112.89 14.1405 112.923 14.1914C112.959 14.2422 113.032 14.2675 113.143 14.2676C113.179 14.2676 113.22 14.2657 113.265 14.2627C113.309 14.2567 113.357 14.2492 113.408 14.2402V14.8379C113.282 14.8738 113.186 14.8963 113.12 14.9053C113.054 14.9142 112.964 14.9189 112.851 14.9189C112.572 14.9189 112.37 14.8196 112.244 14.6221C112.178 14.5173 112.132 14.3691 112.105 14.1777C111.941 14.3934 111.704 14.5805 111.396 14.7393C111.087 14.898 110.747 14.9775 110.376 14.9775C109.93 14.9775 109.564 14.8428 109.279 14.5732C108.998 14.3008 108.858 13.9608 108.857 13.5537C108.857 13.1075 108.997 12.7612 109.275 12.5156C109.554 12.2701 109.919 12.1184 110.371 12.0615L111.66 11.9004C111.846 11.8765 111.97 11.7985 112.033 11.667C112.069 11.5951 112.087 11.4912 112.087 11.3564C112.087 11.081 111.989 10.8815 111.791 10.7588C111.596 10.6331 111.316 10.5704 110.951 10.5703C110.529 10.5703 110.229 10.6846 110.053 10.9121C109.954 11.0379 109.889 11.2251 109.859 11.4736H109.104C109.119 10.8807 109.311 10.4689 109.68 10.2383C110.051 10.0047 110.481 9.8877 110.969 9.8877ZM112.064 12.3672C111.966 12.43 111.838 12.4825 111.683 12.5244C111.527 12.5663 111.374 12.5963 111.225 12.6143L110.735 12.6777C110.442 12.7166 110.222 12.7776 110.075 12.8613C109.827 13.0021 109.702 13.2268 109.702 13.5352C109.702 13.7688 109.787 13.9531 109.958 14.0879C110.129 14.2227 110.331 14.29 110.564 14.29C110.849 14.29 111.124 14.2244 111.391 14.0928C111.84 13.8742 112.064 13.5157 112.064 13.0186V12.3672Z" fill="black"/>
<path fill-rule="evenodd" clip-rule="evenodd" d="M80.998 10.5889C81.1747 10.3583 81.3853 10.1823 81.6309 10.0625C81.8764 9.93973 82.1432 9.87891 82.4307 9.87891C83.0296 9.87893 83.5144 10.0858 83.8857 10.499C84.26 10.9093 84.4473 11.5158 84.4473 12.3184C84.4472 13.0788 84.2638 13.7109 83.8955 14.2139C83.5272 14.717 83.0161 14.9687 82.3633 14.9688C81.9979 14.9688 81.6891 14.8798 81.4375 14.7031C81.2878 14.5983 81.1276 14.4307 80.957 14.2002V14.8154H80.2119V8.19434H80.998V10.5889ZM82.3359 10.6016C81.9678 10.6016 81.6446 10.7384 81.3662 11.0107C81.0907 11.2833 80.9531 11.7325 80.9531 12.3584C80.9531 12.8106 81.0093 13.1775 81.123 13.459C81.3356 13.989 81.7326 14.2538 82.3135 14.2539C82.7506 14.2539 83.0773 14.0806 83.293 13.7334C83.5116 13.386 83.6211 12.9274 83.6211 12.3584C83.6211 11.8523 83.5116 11.433 83.293 11.1006C83.0773 10.7682 82.7582 10.6016 82.3359 10.6016Z" fill="black"/>
<path d="M97.5654 10.0049V13.1982C97.5654 13.4438 97.6048 13.6451 97.6826 13.8008C97.8263 14.0881 98.0943 14.2314 98.4863 14.2314C99.0492 14.2314 99.433 13.9804 99.6367 13.4775C99.7475 13.208 99.8027 12.8374 99.8027 12.3672V10.0049H100.611V14.8154H99.8477L99.8564 14.1064C99.7517 14.2889 99.6214 14.4427 99.4658 14.5684C99.1574 14.8199 98.783 14.9463 98.3428 14.9463C97.6571 14.9462 97.19 14.7169 96.9414 14.2588C96.8067 14.0133 96.7393 13.6855 96.7393 13.2754V10.0049H97.5654Z" fill="black"/>
<path d="M49.9414 9.89648C49.9563 9.89648 49.9818 9.89839 50.0176 9.90137C50.0535 9.90436 50.1153 9.90996 50.2021 9.91895V10.7725C50.1543 10.7635 50.1093 10.7579 50.0674 10.7549C50.0285 10.7519 49.9844 10.75 49.9365 10.75C49.5294 10.7501 49.2166 10.8821 48.998 11.1455C48.7794 11.4061 48.6699 11.7074 48.6699 12.0488V14.8154H47.8613V10.0049H48.6299V10.8359C48.6928 10.6742 48.8472 10.4777 49.0928 10.2471C49.3383 10.0136 49.6211 9.8965 49.9414 9.89648Z" fill="black"/>
<path d="M52.1416 8.12207C52.1925 8.12207 52.245 8.12396 52.2988 8.12695C52.3527 8.12995 52.4145 8.13464 52.4834 8.14062V8.87695C52.3995 8.87096 52.3378 8.86816 52.2988 8.86816C52.2629 8.86517 52.2282 8.86328 52.1953 8.86328C51.95 8.86333 51.8038 8.92805 51.7559 9.05664C51.7079 9.18242 51.6836 9.50625 51.6836 10.0273H52.4834V10.665H51.6748V14.8154H50.875V10.665H50.2061V10.0273H50.875V9.27246C50.887 8.93704 50.945 8.69089 51.0498 8.53516C51.2385 8.25976 51.6027 8.12209 52.1416 8.12207Z" fill="black"/>
<path d="M60.0732 9.90137C60.1092 9.90436 60.1704 9.91 60.2568 9.91895V10.7725C60.2091 10.7635 60.1639 10.7579 60.1221 10.7549C60.0832 10.7519 60.0399 10.75 59.9922 10.75C59.585 10.75 59.2723 10.8821 59.0537 11.1455C58.8351 11.4061 58.7256 11.7074 58.7256 12.0488V14.8154H57.917V10.0049H58.6846V10.8359C58.7475 10.6742 58.9019 10.4776 59.1475 10.2471C59.393 10.0135 59.6766 9.89648 59.9971 9.89648C60.0121 9.89651 60.0377 9.8984 60.0732 9.90137Z" fill="black"/>
<path d="M65.6924 9.89648C66.339 9.8966 66.7792 10.1306 67.0127 10.5977C67.1384 10.8491 67.2011 11.1873 67.2012 11.6123V14.8154H66.3613V11.4736C66.3613 11.1535 66.2805 10.9333 66.1191 10.8135C65.9605 10.6938 65.7655 10.6339 65.5352 10.6338C65.2178 10.6338 64.9434 10.7397 64.7129 10.9521C64.4854 11.1647 64.3712 11.5197 64.3711 12.0166V14.8154H63.5488V11.6758C63.5488 11.3493 63.5105 11.1107 63.4326 10.9609C63.3098 10.7365 63.0804 10.624 62.7451 10.624C62.4396 10.624 62.1607 10.7429 61.9092 10.9795C61.6608 11.2161 61.5372 11.6442 61.5371 12.2637V14.8154H60.7285V10.0049H61.5273V10.6875C61.719 10.4509 61.8931 10.2787 62.0488 10.1709C62.3153 9.98823 62.6177 9.8965 62.9561 9.89648C63.3394 9.89648 63.6482 9.99102 63.8818 10.1797C64.0135 10.2875 64.1334 10.4467 64.2412 10.6562C64.4209 10.3987 64.6315 10.2077 64.874 10.085C65.1166 9.95918 65.3899 9.89648 65.6924 9.89648Z" fill="black"/>
<path d="M92.6748 8.19434V10.6562C92.8665 10.4137 93.0387 10.2424 93.1914 10.1436C93.4519 9.97296 93.7768 9.8877 94.166 9.8877C94.8638 9.88771 95.3374 10.132 95.5859 10.6201C95.7206 10.8866 95.7881 11.2565 95.7881 11.7295V14.8154H94.957V11.7832C94.957 11.4299 94.9121 11.1706 94.8223 11.0059C94.6755 10.7424 94.3994 10.6113 93.9951 10.6113C93.6598 10.6114 93.3555 10.7265 93.083 10.957C92.8107 11.1877 92.6749 11.6232 92.6748 12.2637V14.8154H91.8662V8.19434H92.6748Z" fill="black"/>
<path d="M106.612 9.89648C107.259 9.89654 107.699 10.1305 107.933 10.5977C108.058 10.8491 108.121 11.1873 108.121 11.6123V14.8154H107.281V11.4736C107.281 11.1534 107.201 10.9333 107.039 10.8135C106.88 10.6937 106.686 10.6338 106.455 10.6338C106.138 10.6338 105.863 10.7396 105.633 10.9521C105.405 11.1647 105.291 11.5197 105.291 12.0166V14.8154H104.47V11.6758C104.47 11.3493 104.43 11.1107 104.353 10.9609C104.23 10.7365 104 10.624 103.665 10.624C103.36 10.6241 103.082 10.743 102.83 10.9795C102.582 11.216 102.457 11.644 102.457 12.2637V14.8154H101.648V10.0049H102.448V10.6875C102.64 10.4511 102.813 10.2787 102.969 10.1709C103.235 9.98828 103.538 9.89655 103.876 9.89648C104.259 9.89648 104.568 9.99102 104.802 10.1797C104.934 10.2875 105.053 10.4466 105.161 10.6562C105.341 10.3987 105.552 10.2077 105.795 10.085C106.037 9.95936 106.31 9.89648 106.612 9.89648Z" fill="black"/>
<path d="M116.313 9.89648C116.996 9.89652 117.458 10.1352 117.697 10.6113C117.829 10.8718 117.895 11.2446 117.895 11.7295V14.8154H117.072V11.7832C117.072 11.4898 117.029 11.2529 116.942 11.0732C116.799 10.774 116.537 10.624 116.16 10.624C115.969 10.6241 115.811 10.6437 115.688 10.6826C115.467 10.7485 115.272 10.8806 115.104 11.0781C114.97 11.2368 114.882 11.4016 114.84 11.5723C114.801 11.74 114.781 11.9814 114.781 12.2959V14.8154H113.973V10.0049H114.741V10.6875C114.969 10.4061 115.209 10.2039 115.464 10.0811C115.718 9.95827 116.002 9.89648 116.313 9.89648Z" fill="black"/>
</svg>
