<svg width="131" height="42" viewBox="0 0 131 42" fill="none" xmlns="http://www.w3.org/2000/svg">
<path d="M116 0.5C124.008 0.5 130.5 6.99187 130.5 15V41.5H15C6.99187 41.5 0.5 35.0081 0.5 27V0.5H116Z" fill="white" stroke="black"/>
<path d="M25.8497 24.1575C22.3836 26.9643 17.4266 26.9643 13.9605 24.1575L15.3007 22.5026C17.9854 24.6766 21.8248 24.6766 24.5095 22.5026L25.8497 24.1575Z" fill="black"/>
<path d="M15.404 17.6365V20.5134H17.5336V17.6365H15.404Z" fill="black"/>
<path d="M22.012 17.6365V20.5134H24.1415V17.6365H22.012Z" fill="black"/>
<path fill-rule="evenodd" clip-rule="evenodd" d="M19.5 33C25.8513 33 31 27.8513 31 21.5C31 15.1487 25.8513 10 19.5 10C13.1487 10 8 15.1487 8 21.5C8 27.8513 13.1487 33 19.5 33ZM19.5 30.8705C24.6752 30.8705 28.8705 26.6752 28.8705 21.5C28.8705 16.3248 24.6752 12.1295 19.5 12.1295C14.3248 12.1295 10.1295 16.3248 10.1295 21.5C10.1295 26.6752 14.3248 30.8705 19.5 30.8705Z" fill="black"/>
<path fill-rule="evenodd" clip-rule="evenodd" d="M98.5945 32.0851L94.0078 19H90.95L86.3281 32.0851H89.1575L90.0537 29.3953H94.825L95.6597 32.0851H98.5945ZM92.4525 21.9916L94.0693 27.1405H90.783L92.4525 21.9916Z" fill="black"/>
<path fill-rule="evenodd" clip-rule="evenodd" d="M70.602 22.1958C71.8615 22.1958 72.8456 22.6545 73.5544 23.5718C74.2691 24.4891 74.6264 25.6728 74.6264 27.1227C74.6264 28.6259 74.2749 29.8717 73.572 30.8601C72.869 31.8484 71.8878 32.3426 70.6284 32.3426C69.8376 32.3426 69.202 32.1828 68.7217 31.8632C68.4346 31.6738 68.1242 31.3424 67.7903 30.8689V32.0851H65.3388V19.0178H67.8342V23.6695C68.1505 23.2197 68.4991 22.8764 68.8798 22.6397C69.3309 22.3438 69.905 22.1958 70.602 22.1958ZM69.9606 30.2564C70.605 30.2564 71.1058 29.993 71.4631 29.4663C71.8205 28.9396 71.9991 28.2472 71.9991 27.389C71.9991 26.7025 71.9113 26.1344 71.7355 25.6846C71.4016 24.8324 70.7866 24.4063 69.8903 24.4063C68.9823 24.4063 68.3585 24.8235 68.0187 25.658C67.843 26.1018 67.7551 26.6759 67.7551 27.3802C67.7551 28.2087 67.9367 28.8952 68.2999 29.4397C68.6631 29.9842 69.2167 30.2564 69.9606 30.2564Z" fill="black"/>
<path d="M57.3181 31.5969C57.037 31.3069 56.8964 30.8601 56.8964 30.2564V24.2997H55.5608V22.4977H56.8964V19.799H59.3743V22.4977H60.9295V24.2997H59.3743V29.4131C59.3743 29.8096 59.424 30.0581 59.5236 30.1587C59.6232 30.2534 59.9278 30.3008 60.4375 30.3008H60.6747C60.7626 30.2949 60.8475 30.2889 60.9295 30.283V32.1739L59.7433 32.2183C58.56 32.2597 57.7516 32.0526 57.3181 31.5969Z" fill="black"/>
<path fill-rule="evenodd" clip-rule="evenodd" d="M55.4634 27.2648C55.4634 28.6851 55.0592 29.9013 54.2509 30.9133C53.4425 31.9194 52.2152 32.4225 50.5692 32.4225C48.9231 32.4225 47.6959 31.9194 46.8875 30.9133C46.0791 29.9013 45.675 28.6851 45.675 27.2648C45.675 25.8681 46.0791 24.6578 46.8875 23.6339C47.6959 22.6101 48.9231 22.0982 50.5692 22.0982C52.2152 22.0982 53.4425 22.6101 54.2509 23.6339C55.0592 24.6578 55.4634 25.8681 55.4634 27.2648ZM50.5604 30.3008C51.2926 30.3008 51.855 30.0374 52.2475 29.5107C52.6399 28.984 52.8362 28.2353 52.8362 27.2648C52.8362 26.2942 52.6399 25.5485 52.2475 25.0277C51.855 24.501 51.2926 24.2376 50.5604 24.2376C49.8282 24.2376 49.2629 24.501 48.8646 25.0277C48.4721 25.5485 48.2758 26.2942 48.2758 27.2648C48.2758 28.2353 48.4721 28.984 48.8646 29.5107C49.2629 30.0374 49.8282 30.3008 50.5604 30.3008Z" fill="black"/>
<path d="M43.7148 22.9681C43.088 22.4414 42.2796 22.1781 41.2896 22.1781C40.4988 22.1781 39.8457 22.3734 39.3302 22.764C39.0432 22.9829 38.7385 23.341 38.4164 23.8381V22.4266H36V32.0851H38.4954V26.8475C38.4954 26.2498 38.5775 25.7586 38.7415 25.3739C39.0578 24.646 39.6407 24.282 40.49 24.282C41.1813 24.282 41.6499 24.5305 41.8959 25.0277C42.0307 25.2999 42.098 25.6905 42.098 26.1995V32.0851H44.6638V25.5692C44.6638 24.356 44.3474 23.4889 43.7148 22.9681Z" fill="black"/>
<path d="M76.4108 33.9582L76.0945 33.9405V35.9645C76.3639 35.9822 76.566 35.9911 76.7008 35.9911C76.8355 35.997 77.0142 36 77.2368 36C78.3439 36 79.082 35.7781 79.451 35.3342C79.8201 34.8963 80.3209 33.76 80.9536 31.9253L84.2398 22.4089H81.5774L79.6004 29.5462L77.5092 22.4089H74.7237L78.2385 32.5112C78.2619 32.5822 78.2092 32.7775 78.0803 33.0971C77.9573 33.4167 77.8226 33.6268 77.6761 33.7274C77.5238 33.8339 77.3363 33.902 77.1138 33.9316C76.8912 33.9612 76.6568 33.9701 76.4108 33.9582Z" fill="black"/>
<path d="M100.902 21.2258V29.8624H99.3063V32.0882H105V29.8624H103.59V21.2258H105V19H99.3063V21.2258H100.902Z" fill="black"/>
<path fill-rule="evenodd" clip-rule="evenodd" d="M56.7881 9.91895C57.1262 9.91895 57.4215 10.0118 57.6738 10.1973C57.8107 10.3021 57.9505 10.4556 58.0928 10.6562V10.0498H58.7617V14.4248C58.7617 15.0357 58.6806 15.5177 58.5195 15.8711C58.2189 16.5239 57.6513 16.8506 56.8164 16.8506C56.352 16.8506 55.9613 16.7336 55.6445 16.5C55.3278 16.2694 55.1509 15.9072 55.1133 15.4131H55.8496C55.8845 15.6287 55.9549 15.7953 56.0596 15.9121C56.2233 16.0915 56.4808 16.1816 56.832 16.1816C57.3878 16.1816 57.752 15.9626 57.9238 15.5254C58.0258 15.2678 58.0725 14.8082 58.0645 14.1465C57.9195 14.3919 57.745 14.5746 57.541 14.6943C57.337 14.8141 57.067 14.874 56.7314 14.874C56.2645 14.8739 55.8555 14.6895 55.5039 14.3213C55.1549 13.95 54.9795 13.3378 54.9795 12.4844C54.9795 11.6788 55.1561 11.0499 55.5078 10.5977C55.8622 10.1455 56.2888 9.91895 56.7881 9.91895ZM56.9209 10.6338C56.411 10.6338 56.062 10.8999 55.874 11.4326C55.7747 11.7171 55.7246 12.0906 55.7246 12.5518C55.7246 13.0934 55.8228 13.5066 56.0186 13.791C56.2172 14.0725 56.4835 14.2139 56.8164 14.2139C57.3372 14.2138 57.7039 13.9518 57.916 13.4277C58.0341 13.1312 58.0928 12.785 58.0928 12.3896C58.0927 11.7938 57.9828 11.3519 57.7627 11.0645C57.5426 10.777 57.2618 10.6338 56.9209 10.6338Z" fill="black"/>
<path d="M90.2197 10.0049L91.376 13.9219L92.54 10.0049H93.3408C93.2388 10.3135 93.0117 11.0175 92.6602 12.1162C92.3971 12.9426 92.1772 13.6167 92 14.1377C91.5812 15.3654 91.2861 16.1143 91.1143 16.3838C90.9425 16.6532 90.6471 16.788 90.2285 16.7881C90.1265 16.7881 90.0466 16.7834 89.9902 16.7744C89.9366 16.7654 89.8694 16.7485 89.7891 16.7246V15.9883C89.9152 16.0272 90.0071 16.0516 90.0635 16.0605C90.1196 16.0695 90.1691 16.0732 90.2119 16.0732C90.3461 16.0732 90.4441 16.048 90.5059 15.9971C90.5703 15.9492 90.624 15.8893 90.667 15.8174C90.6805 15.7933 90.7293 15.6707 90.8125 15.4492C90.8957 15.2277 90.9556 15.0629 90.9932 14.9551L89.3984 10.0049H90.2197Z" fill="black"/>
<path fill-rule="evenodd" clip-rule="evenodd" d="M38.0361 9.8877C38.5246 9.88777 38.9394 10.0974 39.2803 10.5166C39.6212 10.9329 39.792 11.5291 39.792 12.3047C39.792 13.3528 39.546 14.1016 39.0547 14.5508C38.7434 14.8351 38.381 14.9775 37.9678 14.9775C37.6431 14.9775 37.3705 14.8978 37.1504 14.7393C37.0215 14.6494 36.8771 14.495 36.7188 14.2764V16.7334H35.9941V10.0273H36.6992V10.665C36.8441 10.4465 37.0021 10.277 37.1738 10.1572C37.4181 9.97754 37.7059 9.8877 38.0361 9.8877ZM37.8711 10.5977C37.3691 10.5977 37.0251 10.8775 36.8398 11.4375C36.7405 11.7369 36.6905 12.1171 36.6904 12.5781C36.6904 12.9495 36.7405 13.2658 36.8398 13.5264C37.0278 14.0235 37.3717 14.2725 37.8711 14.2725C38.2092 14.2724 38.4901 14.1151 38.7129 13.8008C38.9384 13.4833 39.0508 13.0098 39.0508 12.3809C39.0508 11.9975 39.0007 11.6681 38.9014 11.3926C38.7135 10.8627 38.3702 10.5978 37.8711 10.5977Z" fill="black"/>
<path fill-rule="evenodd" clip-rule="evenodd" d="M68.3135 9.8877C68.802 9.88777 69.2167 10.0974 69.5576 10.5166C69.8986 10.9329 70.0693 11.5291 70.0693 12.3047C70.0693 13.3528 69.8233 14.1016 69.332 14.5508C69.0207 14.8351 68.6584 14.9775 68.2451 14.9775C67.9204 14.9775 67.6478 14.8978 67.4277 14.7393C67.2989 14.6494 67.1545 14.495 66.9961 14.2764V16.7334H66.2715V10.0273H66.9766V10.665C67.1215 10.4465 67.2794 10.277 67.4512 10.1572C67.6955 9.97754 67.9833 9.8877 68.3135 9.8877ZM68.1484 10.5977C67.6464 10.5977 67.3024 10.8775 67.1172 11.4375C67.0179 11.7369 66.9678 12.1171 66.9678 12.5781C66.9678 12.9495 67.0179 13.2658 67.1172 13.5264C67.3051 14.0235 67.6491 14.2725 68.1484 14.2725C68.4865 14.2724 68.7675 14.1151 68.9902 13.8008C69.2157 13.4833 69.3281 13.0098 69.3281 12.3809C69.3281 11.9975 69.278 11.6681 69.1787 11.3926C68.9908 10.8627 68.6476 10.5978 68.1484 10.5977Z" fill="black"/>
<path fill-rule="evenodd" clip-rule="evenodd" d="M46.3945 9.86523C46.9502 9.86525 47.4198 10.0721 47.8037 10.4854C48.1876 10.8986 48.3798 11.5062 48.3799 12.3086C48.3799 13.0842 48.2103 13.7253 47.8721 14.2314C47.5338 14.7375 47.0093 14.9912 46.2979 14.9912C45.7046 14.9912 45.2338 14.7674 44.8848 14.3213C44.5358 13.8721 44.3604 13.2703 44.3604 12.5156C44.3604 11.7071 44.5444 11.0631 44.9121 10.584C45.2799 10.1048 45.7744 9.86523 46.3945 9.86523ZM46.374 10.5703C45.9312 10.5704 45.6095 10.7595 45.4082 11.1367C45.2069 11.514 45.1055 11.969 45.1055 12.502C45.1055 13.0141 45.2069 13.4408 45.4082 13.7822C45.6095 14.1236 45.9286 14.2949 46.3662 14.2949C46.8466 14.2949 47.1753 14.0925 47.3525 13.6885C47.5324 13.2812 47.623 12.8282 47.623 12.3311C47.623 11.8821 47.5585 11.5168 47.4297 11.2354C47.2256 10.7921 46.8734 10.5703 46.374 10.5703Z" fill="black"/>
<path fill-rule="evenodd" clip-rule="evenodd" d="M52.7031 9.86523C53.2589 9.86523 53.7294 10.0721 54.1133 10.4854C54.4969 10.8986 54.6884 11.5064 54.6885 12.3086C54.6885 13.0841 54.5198 13.7254 54.1816 14.2314C53.8434 14.7376 53.3179 14.9912 52.6064 14.9912C52.0133 14.9911 51.5423 14.7674 51.1934 14.3213C50.8444 13.8721 50.6699 13.2703 50.6699 12.5156C50.6699 11.707 50.8539 11.0632 51.2217 10.584C51.5894 10.105 52.0831 9.8653 52.7031 9.86523ZM52.6836 10.5703C52.2406 10.5703 51.9181 10.7594 51.7168 11.1367C51.5155 11.514 51.4151 11.969 51.415 12.502C51.415 13.014 51.5155 13.4408 51.7168 13.7822C51.9181 14.1235 52.2374 14.2948 52.6748 14.2949C53.1553 14.2949 53.4849 14.0926 53.6621 13.6885C53.842 13.2812 53.9316 12.8282 53.9316 12.3311C53.9316 11.882 53.8671 11.5168 53.7383 11.2354C53.5343 10.7922 53.1828 10.5704 52.6836 10.5703Z" fill="black"/>
<path fill-rule="evenodd" clip-rule="evenodd" d="M76.7285 9.89648C77.0345 9.89651 77.3309 9.97796 77.6182 10.1396C77.9052 10.2983 78.1241 10.5045 78.2744 10.7588C78.4194 11.0014 78.5161 11.285 78.5645 11.6084C78.6074 11.83 78.6289 12.1831 78.6289 12.668H75.4678C75.4812 13.1561 75.585 13.5492 75.7783 13.8457C75.9716 14.1389 76.2707 14.2851 76.6758 14.2852C77.0542 14.2852 77.3565 14.1465 77.582 13.8682C77.7108 13.7066 77.8018 13.5191 77.8555 13.3066H78.5684C78.5495 13.4832 78.4872 13.681 78.3799 13.8994C78.2752 14.115 78.1569 14.2919 78.0254 14.4297C77.8054 14.6691 77.5326 14.8302 77.208 14.9141C77.0335 14.962 76.8354 14.9863 76.6152 14.9863C76.0785 14.9862 75.6231 14.7691 75.25 14.335C74.877 13.8977 74.6904 13.2864 74.6904 12.502C74.6905 11.7294 74.8791 11.1022 75.2549 10.6201C75.6307 10.138 76.1218 9.89648 76.7285 9.89648ZM76.6836 10.6016C76.3511 10.6017 76.072 10.7367 75.8467 11.0059C75.6212 11.2724 75.5017 11.6131 75.4883 12.0264H77.8838C77.8543 11.676 77.7861 11.3952 77.6787 11.1855C77.48 10.7965 77.1479 10.6016 76.6836 10.6016Z" fill="black"/>
<path fill-rule="evenodd" clip-rule="evenodd" d="M82.75 8.19434V14.8154H82.0977V14.1465C81.9286 14.4428 81.7288 14.6573 81.498 14.7891C81.2673 14.9207 81.0028 14.9863 80.7051 14.9863C80.2245 14.9863 79.8078 14.7617 79.4561 14.3125C79.1044 13.8603 78.9287 13.2594 78.9287 12.5107C78.9288 11.8101 79.0888 11.2034 79.4082 10.6914C79.7304 10.1766 80.1893 9.91895 80.7852 9.91895C81.1154 9.91895 81.3924 9.99661 81.6152 10.1523C81.744 10.2422 81.8901 10.3996 82.0537 10.624V8.19434H82.75ZM80.9219 10.624C80.5569 10.6241 80.2604 10.7804 80.0322 11.0918C79.8068 11.4032 79.6944 11.8611 79.6943 12.4658C79.6943 12.9809 79.7923 13.4124 79.9883 13.7598C80.1842 14.107 80.4977 14.2811 80.9297 14.2812C81.2652 14.2812 81.5411 14.1211 81.7559 13.8008C81.9733 13.4773 82.082 13.0141 82.082 12.4121C82.082 11.8043 81.9708 11.3549 81.748 11.0645C81.5252 10.771 81.2494 10.624 80.9219 10.624Z" fill="black"/>
<path fill-rule="evenodd" clip-rule="evenodd" d="M63.7178 9.8877C64.225 9.88775 64.6374 9.99537 64.9541 10.2109C65.2681 10.4266 65.4248 10.7627 65.4248 11.2178V13.9893C65.4248 14.073 65.4393 14.1405 65.4688 14.1914C65.5009 14.2422 65.5669 14.2675 65.666 14.2676C65.6982 14.2676 65.7351 14.2657 65.7754 14.2627C65.8156 14.2567 65.8587 14.2492 65.9043 14.2402V14.8379C65.7917 14.8738 65.7055 14.8963 65.6465 14.9053C65.5874 14.9143 65.5063 14.9189 65.4043 14.9189C65.1548 14.9188 64.974 14.8196 64.8613 14.6221C64.8023 14.5173 64.7605 14.3693 64.7363 14.1777C64.5887 14.3934 64.3761 14.5805 64.0996 14.7393C63.8232 14.8979 63.5184 14.9775 63.1855 14.9775C62.7857 14.9775 62.4581 14.8427 62.2031 14.5732C61.9508 14.3008 61.8243 13.9608 61.8242 13.5537C61.8242 13.1075 61.9495 12.7612 62.1992 12.5156C62.4489 12.2701 62.7763 12.1184 63.1816 12.0615L64.3379 11.9004C64.504 11.8764 64.6155 11.7985 64.6719 11.667C64.7041 11.5951 64.7197 11.4912 64.7197 11.3564C64.7197 11.081 64.6313 10.8815 64.4541 10.7588C64.2796 10.6332 64.0285 10.5703 63.7012 10.5703C63.3227 10.5703 63.0539 10.6845 62.8955 10.9121C62.807 11.0379 62.7495 11.2253 62.7227 11.4736H62.0459C62.0593 10.8808 62.2314 10.4689 62.5615 10.2383C62.8944 10.0047 63.2802 9.8877 63.7178 9.8877ZM64.7002 12.3672C64.6116 12.4301 64.497 12.4825 64.3574 12.5244C64.218 12.5663 64.0813 12.5963 63.9473 12.6143L63.5078 12.6777C63.2449 12.7167 63.0475 12.7775 62.916 12.8613C62.6932 13.0021 62.5821 13.2268 62.582 13.5352C62.582 13.7688 62.6585 13.9531 62.8115 14.0879C62.9644 14.2225 63.1453 14.2899 63.3545 14.29C63.6094 14.29 63.8569 14.2244 64.0957 14.0928C64.4984 13.8742 64.7002 13.5157 64.7002 13.0186V12.3672Z" fill="black"/>
<path fill-rule="evenodd" clip-rule="evenodd" d="M97.3789 9.8877C97.8862 9.88772 98.2985 9.99533 98.6152 10.2109C98.9293 10.4266 99.0859 10.7626 99.0859 11.2178V13.9893C99.086 14.073 99.1013 14.1405 99.1309 14.1914C99.1631 14.2421 99.229 14.2676 99.3281 14.2676C99.3603 14.2676 99.3964 14.2657 99.4365 14.2627C99.4768 14.2567 99.5198 14.2492 99.5654 14.2402V14.8379C99.4527 14.8738 99.3667 14.8963 99.3076 14.9053C99.2486 14.9142 99.1682 14.9189 99.0664 14.9189C98.8167 14.9189 98.6352 14.8197 98.5225 14.6221C98.4635 14.5173 98.4216 14.3692 98.3975 14.1777C98.2499 14.3933 98.0381 14.5806 97.7617 14.7393C97.4853 14.8979 97.1804 14.9775 96.8477 14.9775C96.4476 14.9775 96.1193 14.8428 95.8643 14.5732C95.612 14.3008 95.4864 13.9608 95.4863 13.5537C95.4863 13.1075 95.6107 12.7612 95.8604 12.5156C96.11 12.2701 96.4375 12.1185 96.8428 12.0615L97.999 11.9004C98.1653 11.8764 98.2766 11.7985 98.333 11.667C98.3652 11.5951 98.3818 11.4912 98.3818 11.3564C98.3818 11.081 98.2924 10.8815 98.1152 10.7588C97.9408 10.6332 97.6895 10.5703 97.3623 10.5703C96.984 10.5704 96.716 10.6846 96.5576 10.9121C96.469 11.0379 96.4106 11.2251 96.3838 11.4736H95.708C95.7214 10.8809 95.8926 10.4689 96.2227 10.2383C96.5556 10.0047 96.9413 9.8877 97.3789 9.8877ZM98.3613 12.3672C98.2728 12.43 98.1589 12.4825 98.0195 12.5244C97.88 12.5663 97.7426 12.5963 97.6084 12.6143L97.1689 12.6777C96.9061 12.7167 96.7086 12.7775 96.5771 12.8613C96.3544 13.0021 96.2432 13.2268 96.2432 13.5352C96.2432 13.7687 96.3196 13.9531 96.4727 14.0879C96.6257 14.2227 96.8072 14.29 97.0166 14.29C97.2714 14.29 97.5181 14.2243 97.7568 14.0928C98.1595 13.8742 98.3613 13.5157 98.3613 13.0186V12.3672Z" fill="black"/>
<path fill-rule="evenodd" clip-rule="evenodd" d="M118.874 9.8877C119.381 9.88775 119.794 9.99537 120.11 10.2109C120.424 10.4266 120.581 10.7627 120.581 11.2178V13.9893C120.581 14.073 120.595 14.1405 120.625 14.1914C120.657 14.2422 120.723 14.2675 120.822 14.2676C120.854 14.2676 120.891 14.2657 120.932 14.2627C120.972 14.2567 121.015 14.2492 121.061 14.2402V14.8379C120.948 14.8738 120.862 14.8963 120.803 14.9053C120.744 14.9143 120.663 14.9189 120.561 14.9189C120.311 14.9188 120.13 14.8196 120.018 14.6221C119.959 14.5173 119.917 14.3693 119.893 14.1777C119.745 14.3934 119.532 14.5805 119.256 14.7393C118.979 14.8979 118.675 14.9775 118.342 14.9775C117.942 14.9775 117.614 14.8427 117.359 14.5732C117.107 14.3008 116.981 13.9608 116.98 13.5537C116.98 13.1075 117.106 12.7612 117.355 12.5156C117.605 12.2701 117.933 12.1184 118.338 12.0615L119.494 11.9004C119.66 11.8764 119.772 11.7985 119.828 11.667C119.86 11.5951 119.876 11.4912 119.876 11.3564C119.876 11.081 119.787 10.8815 119.61 10.7588C119.436 10.6332 119.185 10.5703 118.857 10.5703C118.479 10.5703 118.21 10.6845 118.052 10.9121C117.963 11.0379 117.906 11.2253 117.879 11.4736H117.202C117.216 10.8808 117.388 10.4689 117.718 10.2383C118.051 10.0047 118.436 9.8877 118.874 9.8877ZM119.856 12.3672C119.768 12.4301 119.653 12.4825 119.514 12.5244C119.374 12.5663 119.238 12.5963 119.104 12.6143L118.664 12.6777C118.401 12.7167 118.204 12.7775 118.072 12.8613C117.849 13.0021 117.738 13.2268 117.738 13.5352C117.738 13.7688 117.815 13.9531 117.968 14.0879C118.121 14.2225 118.302 14.2899 118.511 14.29C118.766 14.29 119.013 14.2244 119.252 14.0928C119.655 13.8742 119.856 13.5157 119.856 13.0186V12.3672Z" fill="black"/>
<path fill-rule="evenodd" clip-rule="evenodd" d="M86.1914 8.19434V10.5889C86.3498 10.3583 86.5396 10.1823 86.7598 10.0625C86.9799 9.93979 87.2189 9.87891 87.4766 9.87891C88.0135 9.87893 88.4484 10.0858 88.7812 10.499C89.1167 10.9093 89.2842 11.5159 89.2842 12.3184C89.2841 13.0788 89.1192 13.7108 88.7891 14.2139C88.4589 14.7168 88.0012 14.9688 87.416 14.9688C87.0886 14.9687 86.8124 14.8797 86.5869 14.7031C86.4527 14.5983 86.3083 14.4308 86.1553 14.2002V14.8154H85.4873V8.19434H86.1914ZM87.3916 10.6016C87.0616 10.6017 86.772 10.7384 86.5225 11.0107C86.2755 11.2833 86.1514 11.7325 86.1514 12.3584C86.1514 12.8106 86.2027 13.1775 86.3047 13.459C86.4953 13.989 86.8513 14.2539 87.3721 14.2539C87.7638 14.2538 88.0567 14.0806 88.25 13.7334C88.446 13.386 88.5439 12.9274 88.5439 12.3584C88.5439 11.8524 88.4459 11.433 88.25 11.1006C88.0567 10.7682 87.7701 10.6016 87.3916 10.6016Z" fill="black"/>
<path d="M107.023 10.0049V13.1982C107.023 13.4438 107.058 13.6451 107.128 13.8008C107.257 14.0881 107.497 14.2313 107.849 14.2314C108.353 14.2314 108.697 13.9804 108.88 13.4775C108.979 13.208 109.029 12.8374 109.029 12.3672V10.0049H109.754V14.8154H109.069L109.077 14.1064C108.983 14.289 108.866 14.4427 108.727 14.5684C108.45 14.8199 108.114 14.9463 107.72 14.9463C107.105 14.9462 106.687 14.7168 106.464 14.2588C106.343 14.0133 106.282 13.6855 106.282 13.2754V10.0049H107.023Z" fill="black"/>
<path d="M49.835 8.66113V10.0049H50.5234V10.665H49.835V13.8047C49.835 13.9722 49.8856 14.0846 49.9873 14.1416C50.0437 14.1745 50.138 14.1914 50.2695 14.1914H50.3828C50.423 14.1884 50.4699 14.1837 50.5234 14.1777V14.8154C50.4403 14.8424 50.3529 14.862 50.2617 14.874C50.1731 14.886 50.0764 14.8916 49.9717 14.8916C49.6334 14.8916 49.404 14.7961 49.2832 14.6045C49.1624 14.4098 49.1016 14.1581 49.1016 13.8496V10.665H48.5176V10.0049H49.1016V8.66113H49.835Z" fill="black"/>
<path d="M41.0771 10.6562C41.249 10.4137 41.4041 10.2424 41.541 10.1436C41.7744 9.97309 42.0654 9.88775 42.4141 9.8877C43.0396 9.8877 43.4637 10.132 43.6865 10.6201C43.8073 10.8867 43.8682 11.2563 43.8682 11.7295V14.8154H43.123V11.7832C43.123 11.4299 43.0825 11.1706 43.002 11.0059C42.8704 10.7427 42.6238 10.6114 42.2617 10.6113C41.9611 10.6113 41.6886 10.7265 41.4443 10.957C41.2001 11.1876 41.0772 11.623 41.0771 12.2637V14.8154H40.3525V8.19434H41.0771V10.6562Z" fill="black"/>
<path d="M61.4531 9.89648C61.4666 9.8965 61.4895 9.89839 61.5215 9.90137C61.5537 9.90437 61.6088 9.90998 61.6865 9.91895V10.7725C61.6436 10.7635 61.603 10.7579 61.5654 10.7549C61.5307 10.7519 61.4919 10.75 61.4492 10.75C61.0842 10.75 60.8034 10.8821 60.6074 11.1455C60.4114 11.4061 60.3135 11.7074 60.3135 12.0488V14.8154H59.5879V10.0049H60.2773V10.8359C60.3337 10.6743 60.4713 10.4776 60.6914 10.2471C60.9116 10.0135 61.1659 9.89648 61.4531 9.89648Z" fill="black"/>
<path d="M71.3555 10.6562C71.5273 10.4137 71.6814 10.2424 71.8184 10.1436C72.0519 9.9729 72.3434 9.8877 72.6924 9.8877C73.3178 9.88774 73.742 10.132 73.9648 10.6201C74.0856 10.8866 74.1455 11.2565 74.1455 11.7295V14.8154H73.4014V11.7832C73.4014 11.4299 73.3608 11.1706 73.2803 11.0059C73.1487 10.7425 72.9014 10.6113 72.5391 10.6113C72.2384 10.6114 71.966 10.7265 71.7217 10.957C71.4775 11.1876 71.3555 11.6231 71.3555 12.2637V14.8154H70.6299V8.19434H71.3555V10.6562Z" fill="black"/>
<path d="M102.721 10.6562C102.893 10.4137 103.048 10.2424 103.185 10.1436C103.418 9.97297 103.71 9.8877 104.059 9.8877C104.684 9.88781 105.108 10.1321 105.331 10.6201C105.452 10.8866 105.512 11.2565 105.512 11.7295V14.8154H104.767V11.7832C104.767 11.4299 104.727 11.1706 104.646 11.0059C104.515 10.7424 104.268 10.6114 103.905 10.6113C103.605 10.6113 103.332 10.7264 103.088 10.957C102.844 11.1876 102.721 11.623 102.721 12.2637V14.8154H101.996V8.19434H102.721V10.6562Z" fill="black"/>
<path d="M115.051 9.89648C115.631 9.89655 116.025 10.1305 116.234 10.5977C116.347 10.8491 116.403 11.1873 116.403 11.6123V14.8154H115.65V11.4736C115.65 11.1535 115.578 10.9334 115.434 10.8135C115.291 10.6937 115.116 10.6338 114.909 10.6338C114.625 10.6339 114.379 10.7398 114.173 10.9521C113.969 11.1647 113.866 11.5197 113.866 12.0166V14.8154H113.13V11.6758C113.13 11.3493 113.095 11.1107 113.025 10.9609C112.915 10.7365 112.71 10.6241 112.409 10.624C112.135 10.624 111.886 10.743 111.66 10.9795C111.437 11.216 111.325 11.644 111.325 12.2637V14.8154H110.601V10.0049H111.317V10.6875C111.489 10.4511 111.645 10.2787 111.784 10.1709C112.023 9.9883 112.294 9.89656 112.598 9.89648C112.941 9.89648 113.218 9.99102 113.428 10.1797C113.546 10.2875 113.653 10.4466 113.75 10.6562C113.911 10.3987 114.1 10.2077 114.317 10.085C114.535 9.95919 114.78 9.89648 115.051 9.89648Z" fill="black"/>
<path d="M123.583 9.89648C124.195 9.89656 124.608 10.1352 124.823 10.6113C124.941 10.8719 125 11.2446 125 11.7295V14.8154H124.264V11.7832C124.264 11.4898 124.224 11.2529 124.146 11.0732C124.018 10.7742 123.784 10.6242 123.446 10.624C123.275 10.624 123.133 10.6438 123.023 10.6826C122.825 10.7485 122.649 10.8805 122.499 11.0781C122.378 11.2368 122.299 11.4016 122.262 11.5723C122.227 11.74 122.21 11.9814 122.21 12.2959V14.8154H121.484V10.0049H122.173V10.6875C122.377 10.4061 122.593 10.2039 122.821 10.0811C123.049 9.95827 123.304 9.89648 123.583 9.89648Z" fill="black"/>
</svg>
