<svg width="131" height="42" viewBox="0 0 131 42" fill="none" xmlns="http://www.w3.org/2000/svg">
<path d="M116 0.5C124.008 0.5 130.5 6.99187 130.5 15V41.5H15C6.99187 41.5 0.5 35.0081 0.5 27V0.5H116Z" fill="white" stroke="black"/>
<path d="M25.8497 24.1575C22.3836 26.9643 17.4266 26.9643 13.9605 24.1575L15.3007 22.5026C17.9854 24.6766 21.8248 24.6766 24.5095 22.5026L25.8497 24.1575Z" fill="black"/>
<path d="M15.404 17.6365V20.5134H17.5336V17.6365H15.404Z" fill="black"/>
<path d="M22.012 17.6365V20.5134H24.1415V17.6365H22.012Z" fill="black"/>
<path fill-rule="evenodd" clip-rule="evenodd" d="M19.5 33C25.8513 33 31 27.8513 31 21.5C31 15.1487 25.8513 10 19.5 10C13.1487 10 8 15.1487 8 21.5C8 27.8513 13.1487 33 19.5 33ZM19.5 30.8705C24.6752 30.8705 28.8705 26.6752 28.8705 21.5C28.8705 16.3248 24.6752 12.1295 19.5 12.1295C14.3248 12.1295 10.1295 16.3248 10.1295 21.5C10.1295 26.6752 14.3248 30.8705 19.5 30.8705Z" fill="black"/>
<path fill-rule="evenodd" clip-rule="evenodd" d="M98.5945 32.0851L94.0078 19H90.95L86.3281 32.0851H89.1575L90.0537 29.3953H94.825L95.6597 32.0851H98.5945ZM92.4525 21.9916L94.0693 27.1405H90.783L92.4525 21.9916Z" fill="black"/>
<path fill-rule="evenodd" clip-rule="evenodd" d="M70.602 22.1958C71.8615 22.1958 72.8456 22.6545 73.5544 23.5718C74.2691 24.4891 74.6264 25.6728 74.6264 27.1227C74.6264 28.6259 74.2749 29.8717 73.572 30.8601C72.869 31.8484 71.8878 32.3426 70.6284 32.3426C69.8376 32.3426 69.202 32.1828 68.7217 31.8632C68.4346 31.6738 68.1242 31.3424 67.7903 30.8689V32.0851H65.3388V19.0178H67.8342V23.6695C68.1505 23.2197 68.4991 22.8764 68.8798 22.6397C69.3309 22.3438 69.905 22.1958 70.602 22.1958ZM69.9606 30.2564C70.605 30.2564 71.1058 29.993 71.4631 29.4663C71.8205 28.9396 71.9991 28.2472 71.9991 27.389C71.9991 26.7025 71.9113 26.1344 71.7355 25.6846C71.4016 24.8324 70.7866 24.4063 69.8903 24.4063C68.9823 24.4063 68.3585 24.8235 68.0187 25.658C67.843 26.1018 67.7551 26.6759 67.7551 27.3802C67.7551 28.2087 67.9367 28.8952 68.2999 29.4397C68.6631 29.9842 69.2167 30.2564 69.9606 30.2564Z" fill="black"/>
<path d="M57.3181 31.5969C57.037 31.3069 56.8964 30.8601 56.8964 30.2564V24.2997H55.5608V22.4977H56.8964V19.799H59.3743V22.4977H60.9295V24.2997H59.3743V29.4131C59.3743 29.8096 59.424 30.0581 59.5236 30.1587C59.6232 30.2534 59.9278 30.3008 60.4375 30.3008H60.6747C60.7626 30.2949 60.8475 30.2889 60.9295 30.283V32.1739L59.7433 32.2183C58.56 32.2597 57.7516 32.0526 57.3181 31.5969Z" fill="black"/>
<path fill-rule="evenodd" clip-rule="evenodd" d="M55.4634 27.2648C55.4634 28.6851 55.0592 29.9013 54.2509 30.9133C53.4425 31.9194 52.2152 32.4225 50.5692 32.4225C48.9231 32.4225 47.6959 31.9194 46.8875 30.9133C46.0791 29.9013 45.675 28.6851 45.675 27.2648C45.675 25.8681 46.0791 24.6578 46.8875 23.6339C47.6959 22.6101 48.9231 22.0982 50.5692 22.0982C52.2152 22.0982 53.4425 22.6101 54.2509 23.6339C55.0592 24.6578 55.4634 25.8681 55.4634 27.2648ZM50.5604 30.3008C51.2926 30.3008 51.855 30.0374 52.2475 29.5107C52.6399 28.984 52.8362 28.2353 52.8362 27.2648C52.8362 26.2942 52.6399 25.5485 52.2475 25.0277C51.855 24.501 51.2926 24.2376 50.5604 24.2376C49.8282 24.2376 49.2629 24.501 48.8646 25.0277C48.4721 25.5485 48.2758 26.2942 48.2758 27.2648C48.2758 28.2353 48.4721 28.984 48.8646 29.5107C49.2629 30.0374 49.8282 30.3008 50.5604 30.3008Z" fill="black"/>
<path d="M43.7148 22.9681C43.088 22.4414 42.2796 22.1781 41.2896 22.1781C40.4988 22.1781 39.8457 22.3734 39.3302 22.764C39.0432 22.9829 38.7385 23.341 38.4164 23.8381V22.4266H36V32.0851H38.4954V26.8475C38.4954 26.2498 38.5775 25.7586 38.7415 25.3739C39.0578 24.646 39.6407 24.282 40.49 24.282C41.1813 24.282 41.6499 24.5305 41.8959 25.0277C42.0307 25.2999 42.098 25.6905 42.098 26.1995V32.0851H44.6638V25.5692C44.6638 24.356 44.3474 23.4889 43.7148 22.9681Z" fill="black"/>
<path d="M76.4108 33.9582L76.0945 33.9405V35.9645C76.3639 35.9822 76.566 35.9911 76.7008 35.9911C76.8355 35.997 77.0142 36 77.2368 36C78.3439 36 79.082 35.7781 79.451 35.3342C79.8201 34.8963 80.3209 33.76 80.9536 31.9253L84.2398 22.4089H81.5774L79.6004 29.5462L77.5092 22.4089H74.7237L78.2385 32.5112C78.2619 32.5822 78.2092 32.7775 78.0803 33.0971C77.9573 33.4167 77.8226 33.6268 77.6761 33.7274C77.5238 33.8339 77.3363 33.902 77.1138 33.9316C76.8912 33.9612 76.6568 33.9701 76.4108 33.9582Z" fill="black"/>
<path d="M100.902 21.2258V29.8624H99.3063V32.0882H105V29.8624H103.59V21.2258H105V19H99.3063V21.2258H100.902Z" fill="black"/>
<path fill-rule="evenodd" clip-rule="evenodd" d="M57.3223 9.91968C57.6691 9.91975 57.9717 10.0124 58.2305 10.198C58.3709 10.3028 58.5142 10.4554 58.6602 10.656V10.0496H59.3457V14.4246C59.3457 15.0355 59.2629 15.5184 59.0977 15.8718C58.7892 16.5243 58.2067 16.8503 57.3506 16.8503C56.8743 16.8503 56.4733 16.7343 56.1484 16.5007C55.8235 16.2701 55.6421 15.907 55.6035 15.4128H56.3594C56.3952 15.6285 56.4668 15.7951 56.5742 15.9119C56.7422 16.0915 57.0065 16.1814 57.3672 16.1814C57.9372 16.1814 58.3101 15.9624 58.4863 15.5251C58.5909 15.2676 58.6391 14.808 58.6309 14.1462C58.4823 14.3916 58.3038 14.5743 58.0947 14.6941C57.8855 14.8139 57.6079 14.8738 57.2637 14.8738C56.7847 14.8737 56.3645 14.6902 56.0039 14.322C55.6459 13.9507 55.4678 13.3376 55.4678 12.4841C55.4678 11.6786 55.6481 11.0496 56.0088 10.5974C56.3722 10.1454 56.8102 9.91968 57.3223 9.91968ZM57.458 10.6335C56.9349 10.6336 56.5765 10.9003 56.3838 11.4333C56.282 11.7178 56.2315 12.0906 56.2314 12.5515C56.2314 13.0936 56.3322 13.5072 56.5332 13.7917C56.7369 14.073 57.0093 14.2136 57.3506 14.2136C57.8848 14.2136 58.261 13.9516 58.4785 13.4275C58.5996 13.1312 58.6601 12.7854 58.6602 12.3904C58.6602 11.7946 58.547 11.3527 58.3213 11.0652C58.0955 10.7777 57.8077 10.6335 57.458 10.6335Z" fill="black"/>
<path d="M91.6123 10.0046L92.7979 13.9216L93.9922 10.0046H94.8135C94.7088 10.3133 94.4758 11.0172 94.1152 12.116C93.8454 12.9424 93.6202 13.6164 93.4385 14.1375C93.0089 15.3652 92.7055 16.114 92.5293 16.3835C92.3531 16.6528 92.0504 16.7878 91.6211 16.7878C91.5165 16.7878 91.4348 16.7832 91.377 16.7742C91.3219 16.7652 91.2533 16.7483 91.1709 16.7244V15.988C91.3 16.0269 91.3934 16.0513 91.4512 16.0603C91.509 16.0693 91.5604 16.073 91.6045 16.073C91.7421 16.073 91.8429 16.0477 91.9062 15.9968C91.9722 15.9489 92.0273 15.8889 92.0713 15.8171C92.0852 15.7927 92.1346 15.67 92.2197 15.449C92.305 15.2275 92.3667 15.0626 92.4053 14.9548L90.7705 10.0046H91.6123Z" fill="black"/>
<path fill-rule="evenodd" clip-rule="evenodd" d="M38.0879 9.88745C38.5889 9.88745 39.0146 10.0973 39.3643 10.5164C39.714 10.9326 39.8887 11.5288 39.8887 12.3044C39.8887 13.3526 39.6367 14.1013 39.1328 14.5505C38.8134 14.8349 38.4415 14.9773 38.0176 14.9773C37.6846 14.9772 37.4054 14.8977 37.1797 14.739C37.0475 14.6492 36.8998 14.4947 36.7373 14.2761V16.7341H35.9941V10.0271H36.7168V10.6648C36.8655 10.4462 37.0279 10.2768 37.2041 10.157C37.4546 9.97736 37.7494 9.88752 38.0879 9.88745ZM37.9189 10.5974C37.4041 10.5974 37.0513 10.8773 36.8613 11.4373C36.7594 11.7367 36.709 12.1177 36.709 12.5789C36.709 12.9499 36.7595 13.2657 36.8613 13.5261C37.0541 14.0233 37.4068 14.2722 37.9189 14.2722C38.2659 14.2722 38.5537 14.1149 38.7822 13.8005C39.0135 13.4831 39.1289 13.0095 39.1289 12.3806C39.1289 11.9974 39.0784 11.6678 38.9766 11.3923C38.7838 10.8624 38.4311 10.5974 37.9189 10.5974Z" fill="black"/>
<path fill-rule="evenodd" clip-rule="evenodd" d="M69.1436 9.88745C69.6446 9.88748 70.0702 10.0972 70.4199 10.5164C70.7696 10.9326 70.9443 11.5288 70.9443 12.3044C70.9443 13.3526 70.6924 14.1013 70.1885 14.5505C69.8691 14.835 69.4973 14.9773 69.0732 14.9773C68.7401 14.9773 68.4602 14.8977 68.2344 14.739C68.1023 14.6491 67.9553 14.4945 67.793 14.2761V16.7341H67.0498V10.0271H67.7725V10.6648C67.9211 10.4463 68.0836 10.2767 68.2598 10.157C68.5103 9.97742 68.805 9.88745 69.1436 9.88745ZM68.9736 10.5974C68.4591 10.5976 68.107 10.8776 67.917 11.4373C67.8151 11.7367 67.7637 12.1177 67.7637 12.5789C67.7637 12.95 67.8152 13.2657 67.917 13.5261C68.1097 14.0231 68.4617 14.2721 68.9736 14.2722C69.3205 14.2722 69.6084 14.1148 69.8369 13.8005C70.0682 13.4831 70.1846 13.0095 70.1846 12.3806C70.1845 11.9974 70.1331 11.6678 70.0312 11.3923C69.8385 10.8625 69.4857 10.5974 68.9736 10.5974Z" fill="black"/>
<path d="M123.142 9.87866C123.808 9.87874 124.288 10.0912 124.583 10.5164C124.768 10.7859 124.857 11.077 124.852 11.3884H124.149C124.136 11.2058 124.076 11.0391 123.972 10.8894C123.801 10.6768 123.504 10.5701 123.083 10.5701C122.802 10.5701 122.589 10.6291 122.443 10.7458C122.3 10.8626 122.229 11.0171 122.229 11.2087C122.229 11.4182 122.324 11.586 122.514 11.7117C122.624 11.7865 122.786 11.8521 123.001 11.9089L123.492 12.0398C124.026 12.1806 124.385 12.3162 124.566 12.448C124.855 12.6546 125 12.9796 125 13.4226C125 13.8509 124.85 14.2215 124.55 14.533C124.252 14.8443 123.798 14.9998 123.187 14.9998C122.528 14.9997 122.061 14.8378 121.786 14.5144C121.514 14.1881 121.368 13.7853 121.349 13.3064H122.063C122.086 13.5758 122.147 13.7828 122.249 13.9265C122.436 14.1869 122.761 14.3171 123.224 14.3171C123.499 14.3171 123.742 14.2526 123.951 14.1238C124.16 13.992 124.265 13.7898 124.265 13.5173C124.265 13.3107 124.181 13.1535 124.013 13.0457C123.905 12.9798 123.693 12.903 123.377 12.8162L122.786 12.655C122.409 12.5532 122.131 12.439 121.952 12.3132C121.633 12.0946 121.473 11.7923 121.473 11.406C121.473 10.9508 121.623 10.582 121.923 10.3005C122.226 10.0192 122.632 9.87866 123.142 9.87866Z" fill="black"/>
<path fill-rule="evenodd" clip-rule="evenodd" d="M46.6611 9.86499C47.2311 9.86499 47.7137 10.0718 48.1074 10.4851C48.5011 10.8984 48.6982 11.5068 48.6982 12.3093C48.6982 13.0846 48.5244 13.7252 48.1777 14.2312C47.8308 14.7373 47.2922 14.991 46.5625 14.991C45.9539 14.991 45.4703 14.7673 45.1123 14.321C44.7546 13.8719 44.5762 13.2698 44.5762 12.5154C44.5762 11.7069 44.7644 11.0629 45.1416 10.5837C45.5188 10.1048 46.0253 9.8651 46.6611 9.86499ZM46.6406 10.5701C46.1864 10.5701 45.8559 10.7592 45.6494 11.1365C45.443 11.5137 45.3399 11.9688 45.3398 12.5017C45.3398 13.0136 45.4431 13.4406 45.6494 13.782C45.8559 14.1234 46.184 14.2947 46.6328 14.2947C47.1256 14.2946 47.4628 14.0924 47.6445 13.6882C47.829 13.281 47.9209 12.8288 47.9209 12.3318C47.9209 11.8826 47.8548 11.5166 47.7227 11.2351C47.5134 10.7921 47.1527 10.5701 46.6406 10.5701Z" fill="black"/>
<path fill-rule="evenodd" clip-rule="evenodd" d="M53.1318 9.86499C53.7018 9.86499 54.1844 10.0718 54.5781 10.4851C54.9718 10.8984 55.1689 11.5068 55.1689 12.3093C55.1689 13.0846 54.9951 13.7252 54.6484 14.2312C54.3015 14.7373 53.7629 14.991 53.0332 14.991C52.4247 14.991 51.941 14.7673 51.583 14.321C51.2253 13.8719 51.0469 13.2698 51.0469 12.5154C51.0469 11.7069 51.2351 11.0629 51.6123 10.5837C51.9895 10.1048 52.496 9.8651 53.1318 9.86499ZM53.1113 10.5701C52.6571 10.5701 52.3266 10.7592 52.1201 11.1365C51.9137 11.5137 51.8106 11.9688 51.8105 12.5017C51.8105 13.0136 51.9138 13.4406 52.1201 13.782C52.3266 14.1234 52.6547 14.2947 53.1035 14.2947C53.5963 14.2946 53.9335 14.0924 54.1152 13.6882C54.2997 13.281 54.3916 12.8288 54.3916 12.3318C54.3916 11.8826 54.3255 11.5166 54.1934 11.2351C53.9841 10.7921 53.6234 10.5701 53.1113 10.5701Z" fill="black"/>
<path fill-rule="evenodd" clip-rule="evenodd" d="M77.7744 9.89722C78.0883 9.89722 78.3929 9.97769 78.6875 10.1394C78.9821 10.2981 79.2062 10.505 79.3604 10.7595C79.509 11.0021 79.6086 11.2848 79.6582 11.6082C79.7023 11.8298 79.7246 12.1835 79.7246 12.6687H76.4814C76.4952 13.1567 76.6016 13.549 76.7998 13.8455C76.998 14.1389 77.305 14.2858 77.7207 14.2859C78.109 14.2859 78.4191 14.1464 78.6504 13.8679C78.7825 13.7063 78.8756 13.5189 78.9307 13.3064H79.6621C79.6428 13.4831 79.5779 13.6806 79.4678 13.8992C79.3604 14.1148 79.2394 14.2917 79.1045 14.4294C78.8787 14.669 78.5988 14.831 78.2656 14.9148C78.0868 14.9626 77.8847 14.9861 77.6592 14.9861C77.1085 14.9861 76.6415 14.769 76.2588 14.3347C75.8762 13.8976 75.6847 13.287 75.6846 12.5027C75.6846 11.73 75.8772 11.102 76.2627 10.6199C76.6482 10.1378 77.1522 9.89726 77.7744 9.89722ZM77.7295 10.6023C77.388 10.6023 77.1014 10.7371 76.8701 11.0066C76.6389 11.2731 76.5157 11.6129 76.502 12.0261H78.96C78.9297 11.6758 78.8591 11.3959 78.749 11.1863C78.5453 10.7971 78.2057 10.6024 77.7295 10.6023Z" fill="black"/>
<path fill-rule="evenodd" clip-rule="evenodd" d="M83.9512 14.8152H83.2822V14.1462C83.1087 14.4427 82.9028 14.657 82.666 14.7888C82.4293 14.9204 82.158 14.9861 81.8525 14.9861C81.3597 14.986 80.9329 14.7614 80.5723 14.3123C80.2117 13.8601 80.0313 13.2599 80.0312 12.5115C80.0312 11.8109 80.195 11.2042 80.5225 10.6921C80.8529 10.177 81.3242 9.9187 81.9355 9.9187C82.2742 9.91873 82.5576 9.99737 82.7861 10.1531C82.9183 10.2429 83.0684 10.4002 83.2363 10.6248V8.19409H83.9512V14.8152ZM82.0762 10.6248C81.7017 10.6248 81.3971 10.7801 81.1631 11.0916C80.9318 11.403 80.8164 11.8616 80.8164 12.4666C80.8165 12.9813 80.9164 13.4123 81.1172 13.7595C81.3182 14.1069 81.6407 14.281 82.084 14.281C82.4281 14.281 82.7104 14.1208 82.9307 13.8005C83.1537 13.4771 83.2656 13.0138 83.2656 12.4119C83.2656 11.8041 83.1514 11.3546 82.9229 11.0642C82.6944 10.7709 82.4119 10.6249 82.0762 10.6248Z" fill="black"/>
<path fill-rule="evenodd" clip-rule="evenodd" d="M64.4287 9.88745C64.9491 9.88745 65.3724 9.99512 65.6973 10.2107C66.0194 10.4263 66.1807 10.7623 66.1807 11.2175V13.989C66.1807 14.0728 66.1954 14.1403 66.2256 14.1912C66.2586 14.2421 66.3268 14.2673 66.4287 14.2673C66.4616 14.2673 66.4989 14.2664 66.54 14.2634C66.5812 14.2574 66.6252 14.2499 66.6719 14.241V14.8376C66.5562 14.8736 66.4678 14.896 66.4072 14.905C66.3467 14.914 66.2644 14.9187 66.1602 14.9187C65.9043 14.9187 65.7182 14.8202 65.6025 14.6228C65.542 14.518 65.4984 14.3692 65.4736 14.1775C65.3222 14.3931 65.1049 14.5803 64.8213 14.739C64.5377 14.8977 64.2252 14.9773 63.8838 14.9773C63.4735 14.9773 63.1376 14.8425 62.876 14.573C62.6172 14.3005 62.4883 13.9607 62.4883 13.5535C62.4883 13.1072 62.616 12.761 62.8721 12.5154C63.1281 12.2699 63.4642 12.1191 63.8799 12.0623L65.0654 11.9001C65.236 11.8762 65.3504 11.7984 65.4082 11.6667C65.4412 11.5949 65.458 11.491 65.458 11.3562C65.4579 11.0809 65.3662 10.8822 65.1846 10.7595C65.0056 10.6338 64.748 10.5701 64.4121 10.5701C64.0242 10.5702 63.7493 10.6845 63.5869 10.9119C63.4961 11.0376 63.4367 11.2249 63.4092 11.4734H62.7148C62.7286 10.8804 62.9055 10.4686 63.2441 10.238C63.5854 10.0047 63.9802 9.88752 64.4287 9.88745ZM65.4365 12.3669C65.3457 12.4298 65.229 12.4823 65.0859 12.5242C64.9427 12.5661 64.8017 12.596 64.6641 12.614L64.2139 12.6775C63.9445 12.7164 63.7423 12.7774 63.6074 12.8611C63.379 13.0018 63.2648 13.2267 63.2646 13.5349C63.2646 13.7685 63.343 13.9529 63.5 14.0876C63.657 14.2224 63.8428 14.2898 64.0576 14.2898C64.3191 14.2898 64.5724 14.2242 64.8174 14.0925C65.2304 13.8739 65.4365 13.5154 65.4365 13.0183V12.3669Z" fill="black"/>
<path fill-rule="evenodd" clip-rule="evenodd" d="M114.531 9.88745C115.051 9.88746 115.474 9.99529 115.799 10.2107C116.121 10.4263 116.282 10.7623 116.282 11.2175V13.989C116.282 14.0729 116.298 14.1403 116.328 14.1912C116.361 14.242 116.428 14.2673 116.53 14.2673C116.563 14.2673 116.6 14.2664 116.642 14.2634C116.683 14.2574 116.728 14.25 116.774 14.241V14.8376C116.659 14.8735 116.57 14.896 116.51 14.905C116.449 14.914 116.366 14.9187 116.262 14.9187C116.006 14.9187 115.82 14.8203 115.704 14.6228C115.644 14.518 115.601 14.3692 115.576 14.1775C115.425 14.393 115.207 14.5803 114.924 14.739C114.64 14.8977 114.328 14.9772 113.986 14.9773C113.576 14.9773 113.24 14.8424 112.979 14.573C112.72 14.3005 112.59 13.9607 112.59 13.5535C112.59 13.1073 112.718 12.761 112.974 12.5154C113.23 12.2699 113.566 12.1192 113.981 12.0623L115.167 11.9001C115.338 11.8762 115.452 11.7984 115.51 11.6667C115.543 11.5949 115.56 11.491 115.56 11.3562C115.559 11.081 115.469 10.8823 115.287 10.7595C115.108 10.6337 114.851 10.5701 114.515 10.5701C114.126 10.5701 113.851 10.6843 113.688 10.9119C113.598 11.0376 113.538 11.2248 113.511 11.4734H112.817C112.831 10.8805 113.007 10.4686 113.346 10.238C113.687 10.0045 114.082 9.88745 114.531 9.88745ZM115.539 12.3669C115.448 12.4298 115.331 12.4822 115.188 12.5242C115.044 12.5661 114.904 12.5961 114.767 12.614L114.316 12.6775C114.047 12.7164 113.844 12.7772 113.709 12.8611C113.481 13.0018 113.366 13.2267 113.366 13.5349C113.366 13.7684 113.445 13.9529 113.602 14.0876C113.758 14.2224 113.944 14.2897 114.159 14.2898C114.421 14.2898 114.674 14.2241 114.919 14.0925C115.332 13.8739 115.539 13.5154 115.539 13.0183V12.3669Z" fill="black"/>
<path fill-rule="evenodd" clip-rule="evenodd" d="M87.4805 10.5886C87.6429 10.358 87.8377 10.183 88.0635 10.0632C88.2891 9.94057 88.5337 9.87872 88.7979 9.87866C89.3486 9.87866 89.7953 10.0855 90.1367 10.4988C90.4808 10.9091 90.6523 11.5156 90.6523 12.3181C90.6523 13.0787 90.4832 13.7105 90.1445 14.2136C89.8058 14.7167 89.3366 14.9685 88.7363 14.9685C88.4004 14.9685 88.117 14.8796 87.8857 14.7029C87.7481 14.5981 87.6003 14.4306 87.4434 14.2V14.8152H86.7578V8.19409H87.4805V10.5886ZM88.7119 10.6023C88.3733 10.6023 88.0754 10.738 87.8193 11.0105C87.566 11.283 87.4395 11.7323 87.4395 12.3582C87.4395 12.8103 87.4921 13.1772 87.5967 13.4587C87.7921 13.9887 88.1565 14.2535 88.6904 14.2537C89.0923 14.2537 89.3926 14.0803 89.5908 13.7332C89.7918 13.3858 89.8926 12.9272 89.8926 12.3582C89.8926 11.8521 89.7918 11.4327 89.5908 11.1003C89.3926 10.7683 89.0998 10.6024 88.7119 10.6023Z" fill="black"/>
<path d="M102.376 10.0046V13.198C102.376 13.4436 102.412 13.6448 102.483 13.8005C102.616 14.0879 102.862 14.2311 103.223 14.2312C103.74 14.2312 104.093 13.9801 104.28 13.4773C104.382 13.2078 104.434 12.8371 104.434 12.3669V10.0046H105.177V14.8152H104.475L104.482 14.1062C104.386 14.2887 104.266 14.4424 104.123 14.5681C103.839 14.8197 103.496 14.946 103.091 14.946C102.46 14.946 102.03 14.7167 101.802 14.2585C101.678 14.0131 101.616 13.6852 101.616 13.2751V10.0046H102.376Z" fill="black"/>
<path d="M50.1904 10.0046H50.8965V10.6648H50.1904V13.8054C50.1905 13.9729 50.2431 14.0855 50.3477 14.1423C50.4055 14.1751 50.5021 14.1912 50.6367 14.1912H50.752C50.7932 14.1882 50.8415 14.1835 50.8965 14.1775V14.8162C50.8113 14.843 50.7214 14.8618 50.6279 14.8738C50.5372 14.8857 50.4383 14.8923 50.3311 14.8923C49.9841 14.8923 49.7489 14.7959 49.625 14.6042C49.5012 14.4097 49.4385 14.1586 49.4385 13.8503V10.6648H48.8398V10.0046H49.4385V8.66187H50.1904V10.0046Z" fill="black"/>
<path d="M62.1768 9.90112C62.2098 9.90412 62.2668 9.91069 62.3467 9.91968V10.7732C62.3027 10.7642 62.2611 10.7576 62.2227 10.7546C62.1869 10.7516 62.1466 10.7507 62.1025 10.7507C61.7281 10.7507 61.4403 10.8818 61.2393 11.1453C61.0382 11.4058 60.9375 11.7072 60.9375 12.0486V14.8162H60.1943V10.0046H60.9004V10.8357C60.9582 10.674 61.1004 10.4774 61.3262 10.2468C61.5519 10.0134 61.812 9.89729 62.1064 9.89722C62.1202 9.89722 62.1438 9.89814 62.1768 9.90112Z" fill="black"/>
<path d="M110.61 9.89722C111.205 9.8973 111.609 10.1304 111.824 10.5974C111.94 10.849 111.998 11.1878 111.998 11.613V14.8162H111.226V11.4734C111.226 11.153 111.151 10.933 111.002 10.8132C110.856 10.6936 110.678 10.6336 110.466 10.6335C110.174 10.6335 109.922 10.7403 109.71 10.9529C109.501 11.1655 109.396 11.5203 109.396 12.0173V14.8162H108.64V11.6755C108.64 11.3493 108.604 11.1114 108.532 10.9617C108.419 10.7371 108.209 10.6248 107.9 10.6248C107.62 10.6248 107.363 10.7427 107.132 10.9792C106.903 11.2159 106.789 11.6446 106.789 12.2644V14.8162H106.046V10.0046H106.781V10.6873C106.957 10.4509 107.117 10.2785 107.26 10.1707C107.505 9.98797 107.784 9.89722 108.095 9.89722C108.447 9.89724 108.731 9.99093 108.945 10.1794C109.066 10.2873 109.177 10.4464 109.276 10.656C109.442 10.3985 109.635 10.2085 109.858 10.0857C110.081 9.95991 110.332 9.89722 110.61 9.89722Z" fill="black"/>
<path d="M119.36 9.89722C119.988 9.89722 120.413 10.1349 120.633 10.6111C120.754 10.8716 120.814 11.2443 120.814 11.7292V14.8162H120.059V11.7839C120.059 11.4905 120.018 11.2536 119.938 11.074C119.806 10.7745 119.567 10.6248 119.22 10.6248C119.044 10.6248 118.899 10.6444 118.786 10.6833C118.583 10.7493 118.403 10.8803 118.249 11.0779C118.125 11.2365 118.044 11.4014 118.006 11.572C117.97 11.7397 117.952 11.9812 117.952 12.2957V14.8162H117.209V10.0046H117.915V10.6873C118.124 10.4058 118.346 10.2036 118.58 10.0808C118.814 9.95813 119.074 9.89723 119.36 9.89722Z" fill="black"/>
<path d="M41.208 8.19409V10.656C41.3842 10.4134 41.5422 10.2421 41.6826 10.1433C41.9222 9.97263 42.2212 9.88746 42.5791 9.88745C43.2207 9.88745 43.6562 10.1317 43.8848 10.6199C44.0086 10.8864 44.0703 11.2563 44.0703 11.7292V14.8152H43.3057V11.783C43.3056 11.4301 43.265 11.1713 43.1826 11.0066C43.0477 10.7431 42.7936 10.6111 42.4219 10.6111C42.1137 10.6112 41.8344 10.7264 41.584 10.9568C41.3334 11.1874 41.208 11.6235 41.208 12.2644V14.8152H40.4648V8.19409H41.208Z" fill="black"/>
<path d="M72.2627 8.19409V10.656C72.4389 10.4134 72.5978 10.2421 72.7383 10.1433C72.9778 9.97278 73.277 9.88745 73.6348 9.88745C74.2761 9.88756 74.7109 10.1319 74.9395 10.6199C75.0634 10.8864 75.125 11.2562 75.125 11.7292V14.8152H74.3613V11.783C74.3613 11.43 74.3198 11.1713 74.2373 11.0066C74.1024 10.7431 73.8492 10.6111 73.4775 10.6111C73.1691 10.6111 72.8893 10.7262 72.6387 10.9568C72.3882 11.1874 72.2627 11.6236 72.2627 12.2644V14.8152H71.5195V8.19409H72.2627Z" fill="black"/>
<path d="M97.9639 10.656C98.1401 10.4134 98.299 10.2421 98.4395 10.1433C98.679 9.97278 98.9781 9.88745 99.3359 9.88745C99.9773 9.88756 100.412 10.1319 100.641 10.6199C100.765 10.8864 100.826 11.2562 100.826 11.7292V14.8152H100.062V11.783C100.062 11.43 100.021 11.1713 99.9385 11.0066C99.8036 10.7431 99.5504 10.6111 99.1787 10.6111C98.8703 10.6111 98.5904 10.7262 98.3398 10.9568C98.0893 11.1874 97.9639 11.6236 97.9639 12.2644V14.8152H97.2207V8.19409H97.9639V10.656Z" fill="black"/>
</svg>
