<svg width="131" height="42" viewBox="0 0 131 42" fill="none" xmlns="http://www.w3.org/2000/svg">
<path d="M116 0.5C124.008 0.5 130.5 6.99187 130.5 15V41.5H15C6.99187 41.5 0.5 35.0081 0.5 27V0.5H116Z" fill="white" stroke="black"/>
<path d="M17.9605 24.1575C21.4266 26.9643 26.3836 26.9643 29.8497 24.1575L28.5095 22.5026C25.8248 24.6766 21.9854 24.6766 19.3007 22.5026L17.9605 24.1575Z" fill="black"/>
<path d="M19.404 20.5134V17.6365H21.5336V20.5134H19.404Z" fill="black"/>
<path d="M26.012 17.6365V20.5134H28.1415V17.6365H26.012Z" fill="black"/>
<path fill-rule="evenodd" clip-rule="evenodd" d="M35 21.5C35 27.8513 29.8513 33 23.5 33C17.1487 33 12 27.8513 12 21.5C12 15.1487 17.1487 10 23.5 10C29.8513 10 35 15.1487 35 21.5ZM32.8705 21.5C32.8705 26.6752 28.6752 30.8705 23.5 30.8705C18.3248 30.8705 14.1295 26.6752 14.1295 21.5C14.1295 16.3248 18.3248 12.1295 23.5 12.1295C28.6752 12.1295 32.8705 16.3248 32.8705 21.5Z" fill="black"/>
<path fill-rule="evenodd" clip-rule="evenodd" d="M93.3281 32.0851L97.95 19H101.008L105.594 32.0851H102.66L101.825 29.3953H97.0537L96.1575 32.0851H93.3281ZM99.4525 21.9916L97.783 27.1405H101.069L99.4525 21.9916Z" fill="black"/>
<path fill-rule="evenodd" clip-rule="evenodd" d="M77.602 22.1958C78.8615 22.1958 79.8456 22.6545 80.5544 23.5718C81.2691 24.4891 81.6264 25.6728 81.6264 27.1227C81.6264 28.6259 81.2749 29.8717 80.572 30.8601C79.869 31.8484 78.8878 32.3426 77.6284 32.3426C76.8376 32.3426 76.202 32.1828 75.7217 31.8632C75.4346 31.6738 75.1242 31.3424 74.7903 30.8689V32.0851H72.3388V19.0178H74.8342V23.6695C75.1505 23.2197 75.4991 22.8764 75.8798 22.6397C76.3309 22.3438 76.905 22.1958 77.602 22.1958ZM76.9606 30.2564C77.605 30.2564 78.1058 29.993 78.4631 29.4663C78.8205 28.9396 78.9991 28.2472 78.9991 27.389C78.9991 26.7025 78.9113 26.1344 78.7355 25.6846C78.4016 24.8324 77.7866 24.4063 76.8903 24.4063C75.9823 24.4063 75.3585 24.8235 75.0187 25.658C74.843 26.1018 74.7551 26.6759 74.7551 27.3802C74.7551 28.2087 74.9367 28.8952 75.2999 29.4397C75.6631 29.9842 76.2167 30.2564 76.9606 30.2564Z" fill="black"/>
<path d="M66.5236 30.1587C66.424 30.0581 66.3742 29.8096 66.3742 29.4131V24.2997H67.9295V22.4977H66.3742V19.799H63.8964V22.4977H62.5608V24.2997H63.8964V30.2564C63.8964 30.8601 64.037 31.3069 64.3181 31.5969C64.7516 32.0526 65.56 32.2597 66.7433 32.2183L67.9295 32.1739V30.283C67.8475 30.2889 67.7626 30.2949 67.6747 30.3008H67.4374C66.9278 30.3008 66.6232 30.2534 66.5236 30.1587Z" fill="black"/>
<path fill-rule="evenodd" clip-rule="evenodd" d="M62.4634 27.2648C62.4634 28.6851 62.0592 29.9013 61.2508 30.9133C60.4425 31.9194 59.2152 32.4225 57.5692 32.4225C55.9231 32.4225 54.6959 31.9194 53.8875 30.9133C53.0791 29.9013 52.6749 28.6851 52.6749 27.2648C52.6749 25.8681 53.0791 24.6578 53.8875 23.6339C54.6959 22.6101 55.9231 22.0982 57.5692 22.0982C59.2152 22.0982 60.4425 22.6101 61.2508 23.6339C62.0592 24.6578 62.4634 25.8681 62.4634 27.2648ZM57.5604 30.3008C58.2926 30.3008 58.855 30.0374 59.2475 29.5107C59.6399 28.984 59.8362 28.2353 59.8362 27.2648C59.8362 26.2942 59.6399 25.5485 59.2475 25.0277C58.855 24.501 58.2926 24.2376 57.5604 24.2376C56.8282 24.2376 56.2629 24.501 55.8646 25.0277C55.4721 25.5485 55.2758 26.2942 55.2758 27.2648C55.2758 28.2353 55.4721 28.984 55.8646 29.5107C56.2629 30.0374 56.8282 30.3008 57.5604 30.3008Z" fill="black"/>
<path d="M48.2896 22.1781C49.2796 22.1781 50.088 22.4414 50.7148 22.9681C51.3474 23.4889 51.6638 24.356 51.6638 25.5692V32.0851H49.098V26.1995C49.098 25.6905 49.0307 25.2999 48.8959 25.0277C48.6499 24.5305 48.1813 24.282 47.49 24.282C46.6407 24.282 46.0578 24.646 45.7415 25.3739C45.5775 25.7586 45.4954 26.2498 45.4954 26.8475V32.0851H43V22.4266H45.4164V23.8381C45.7385 23.341 46.0432 22.9829 46.3302 22.764C46.8457 22.3734 47.4988 22.1781 48.2896 22.1781Z" fill="black"/>
<path d="M83.4108 33.9582L83.0945 33.9405V35.9645C83.3639 35.9822 83.566 35.9911 83.7008 35.9911C83.8355 35.997 84.0142 36 84.2368 36C85.3439 36 86.082 35.7781 86.451 35.3342C86.8201 34.8963 87.3209 33.76 87.9536 31.9253L91.2398 22.4089H88.5774L86.6004 29.5462L84.5092 22.4089H81.7237L85.2385 32.5112C85.2619 32.5822 85.2092 32.7775 85.0803 33.0971C84.9573 33.4167 84.8225 33.6268 84.6761 33.7274C84.5238 33.8339 84.3363 33.902 84.1137 33.9316C83.8911 33.9612 83.6568 33.9701 83.4108 33.9582Z" fill="black"/>
<path d="M107.902 29.8624V21.2258H106.306V19H112V21.2258H110.59V29.8624H112V32.0882H106.306V29.8624H107.902Z" fill="black"/>
<path d="M87.9191 13.9988L89.2685 9.89646H90.1984C90.0801 10.2196 89.8165 10.9563 89.4087 12.107C89.1035 12.9725 88.8485 13.6783 88.643 14.224C88.1572 15.5098 87.815 16.2943 87.6157 16.5766C87.4164 16.8587 87.0738 16.9999 86.5883 17C86.4702 17 86.3781 16.9953 86.3127 16.986C86.2504 16.9766 86.1722 16.9587 86.0788 16.9336V16.1625C86.225 16.2032 86.3308 16.2279 86.3962 16.2373C86.4614 16.2467 86.5191 16.2513 86.5688 16.2513C86.7245 16.2513 86.8387 16.2252 86.9104 16.1719C86.9849 16.1218 87.0471 16.0591 87.0969 15.984C87.1125 15.9589 87.1684 15.8299 87.2649 15.598C87.3614 15.3659 87.4319 15.1931 87.4755 15.0802L85.6259 9.89646H86.5781L87.9191 13.9988Z" fill="black"/>
<path fill-rule="evenodd" clip-rule="evenodd" d="M44.3684 9.77402C44.935 9.77407 45.4161 9.99396 45.8115 10.433C46.2069 10.8689 46.4045 11.493 46.4045 12.3051C46.4045 13.4026 46.1196 14.1864 45.5498 14.6568C45.1886 14.9547 44.7681 15.1035 44.2886 15.1035C43.9119 15.1035 43.5954 15.0211 43.3401 14.8549C43.1907 14.7608 43.0245 14.5987 42.8408 14.3698V16.943H42V9.91983H42.8176V10.5881C42.9858 10.3592 43.1696 10.1817 43.3689 10.0563C43.6522 9.8682 43.9855 9.77402 44.3684 9.77402ZM44.1763 10.5171C43.5943 10.5172 43.1958 10.8105 42.981 11.3966C42.8657 11.7102 42.8083 12.1091 42.8083 12.5921C42.8084 12.9809 42.8658 13.3119 42.981 13.5847C43.1989 14.105 43.5974 14.365 44.1763 14.3651C44.5685 14.3651 44.8942 14.2007 45.1526 13.8716C45.4142 13.5392 45.5452 13.0432 45.5452 12.3846C45.5451 11.9833 45.4877 11.6383 45.3725 11.3499C45.1546 10.7948 44.7555 10.5171 44.1763 10.5171Z" fill="black"/>
<path d="M121.898 9.76467C122.652 9.76467 123.195 9.98762 123.529 10.433C123.737 10.7151 123.838 11.0192 123.832 11.3452H123.038C123.022 11.1539 122.955 10.9795 122.837 10.8227C122.644 10.6002 122.309 10.4891 121.833 10.489C121.516 10.489 121.274 10.5501 121.109 10.6722C120.947 10.7946 120.866 10.9566 120.866 11.1573C120.866 11.3766 120.973 11.5519 121.188 11.6836C121.313 11.762 121.496 11.8315 121.739 11.8911L122.295 12.0275C122.899 12.1749 123.304 12.3176 123.51 12.4556C123.837 12.672 124 13.0123 124 13.4763C124 13.9247 123.83 14.3119 123.49 14.6381C123.154 14.9641 122.641 15.1278 121.95 15.1278C121.206 15.1278 120.677 14.9581 120.366 14.6194C120.058 14.2776 119.893 13.8555 119.871 13.3538H120.679C120.704 13.6361 120.774 13.8529 120.889 14.0034C121.101 14.2762 121.469 14.4128 121.992 14.4128C122.303 14.4128 122.577 14.3448 122.814 14.21C123.05 14.072 123.168 13.8605 123.168 13.5753C123.168 13.3589 123.074 13.1938 122.884 13.0809C122.762 13.0119 122.522 12.9325 122.164 12.8416L121.496 12.6715C121.07 12.565 120.756 12.4461 120.553 12.3145C120.192 12.0855 120.011 11.7685 120.011 11.3639C120.011 10.8874 120.181 10.5015 120.52 10.2068C120.862 9.912 121.322 9.7647 121.898 9.76467Z" fill="black"/>
<path fill-rule="evenodd" clip-rule="evenodd" d="M51.8281 9.75065C52.4726 9.75065 53.018 9.9666 53.4633 10.3993C53.9086 10.8321 54.1315 11.4693 54.1315 12.3098C54.1315 13.122 53.9345 13.7931 53.5422 14.3231C53.1499 14.8528 52.5416 15.1184 51.7167 15.1185C51.0287 15.1185 50.4816 14.8846 50.0768 14.4175C49.672 13.9471 49.4699 13.316 49.4699 12.5257C49.4699 11.6791 49.6828 11.0048 50.1093 10.5031C50.5359 10.0013 51.1089 9.75072 51.8281 9.75065ZM51.8049 10.489C51.2912 10.4891 50.9173 10.6865 50.6838 11.0816C50.4503 11.4767 50.3339 11.9535 50.3339 12.5117C50.3339 13.048 50.4502 13.4954 50.6838 13.8529C50.9173 14.2103 51.2881 14.3885 51.7956 14.3885C52.3529 14.3885 52.7344 14.1772 52.9399 13.7539C53.1485 13.3274 53.2526 12.8537 53.2526 12.3332C53.2526 11.8628 53.1784 11.4802 53.029 11.1854C52.7923 10.7212 52.3841 10.489 51.8049 10.489Z" fill="black"/>
<path fill-rule="evenodd" clip-rule="evenodd" d="M58.8302 14.9344H58.0739V14.2334C57.8777 14.5438 57.6456 14.7683 57.3778 14.9063C57.1102 15.0443 56.8036 15.1128 56.4581 15.1129C55.9008 15.1129 55.4174 14.8785 55.0094 14.4081C54.6015 13.9346 54.3979 13.3051 54.3979 12.521C54.3979 11.7873 54.5833 11.1524 54.9538 10.6162C55.3274 10.0768 55.8597 9.80677 56.5509 9.80673C56.934 9.80673 57.2549 9.88853 57.5133 10.0516C57.6628 10.1457 57.8329 10.31 58.0228 10.5451V8H58.8302V14.9344ZM56.7096 10.5451C56.2863 10.5452 55.9423 10.7088 55.6776 11.0349C55.4161 11.3611 55.2851 11.8408 55.2851 12.4743C55.2851 13.0136 55.3994 13.4649 55.6266 13.8286C55.8539 14.1924 56.2177 14.3744 56.7189 14.3745C57.1081 14.3745 57.4276 14.2071 57.6767 13.8716C57.9288 13.533 58.0553 13.0484 58.0553 12.4182C58.0553 11.7817 57.9258 11.3111 57.6674 11.0069C57.4089 10.6995 57.0895 10.5451 56.7096 10.5451Z" fill="black"/>
<path fill-rule="evenodd" clip-rule="evenodd" d="M71.1205 9.78336C71.4754 9.78336 71.8202 9.86824 72.1534 10.0376C72.4863 10.2037 72.74 10.4199 72.9144 10.6863C73.0825 10.9403 73.1952 11.2374 73.2513 11.5761C73.301 11.8081 73.3255 12.178 73.3255 12.6855H69.6588C69.6743 13.1967 69.7946 13.6079 70.0189 13.9184C70.2431 14.2256 70.59 14.3792 71.0601 14.3792C71.4992 14.3792 71.8491 14.2333 72.1107 13.9417C72.2602 13.7724 72.3667 13.5765 72.429 13.3538H73.2559C73.2341 13.5388 73.1604 13.7456 73.036 13.9745C72.9145 14.2002 72.7774 14.3854 72.6248 14.5297C72.3695 14.7805 72.0531 14.9503 71.6764 15.0381C71.4742 15.0882 71.2455 15.1129 70.9905 15.1129C70.3677 15.1129 69.8392 14.8863 69.4063 14.4315C68.9735 13.9736 68.7576 13.3334 68.7576 12.5117C68.7577 11.7026 68.9751 11.0453 69.411 10.5405C69.8468 10.0356 70.4169 9.78347 71.1205 9.78336ZM71.0694 10.5218C70.6833 10.5218 70.3593 10.6629 70.0977 10.9452C69.8362 11.2243 69.6975 11.5807 69.682 12.0135H72.4615C72.4272 11.6467 72.3475 11.3535 72.223 11.134C71.9925 10.7263 71.6081 10.5218 71.0694 10.5218Z" fill="black"/>
<path fill-rule="evenodd" clip-rule="evenodd" d="M78.0577 8V14.9344H77.3013V14.2334C77.1052 14.5437 76.8729 14.7683 76.6052 14.9063C76.3374 15.0443 76.0303 15.1129 75.6846 15.1129C75.1274 15.1128 74.6447 14.8783 74.2369 14.4081C73.8289 13.9346 73.6253 13.3051 73.6253 12.521C73.6253 11.7873 73.8107 11.1524 74.1812 10.6162C74.5548 10.0768 75.0871 9.80673 75.7784 9.80673C76.1613 9.80675 76.4823 9.88856 76.7407 10.0516C76.8901 10.1457 77.0596 10.3102 77.2493 10.5451V8H78.0577ZM75.937 10.5451C75.5136 10.5451 75.1697 10.7088 74.9051 11.0349C74.6435 11.3611 74.5125 11.8408 74.5125 12.4743C74.5125 13.0135 74.6259 13.4649 74.8531 13.8286C75.0804 14.1924 75.445 14.3745 75.9463 14.3745C76.3356 14.3745 76.655 14.2072 76.9041 13.8716C77.1563 13.533 77.2817 13.0484 77.2818 12.4182C77.2818 11.7818 77.1531 11.3111 76.8948 11.0069C76.6364 10.6995 76.3169 10.5451 75.937 10.5451Z" fill="black"/>
<path fill-rule="evenodd" clip-rule="evenodd" d="M112.256 9.77402C112.845 9.77402 113.323 9.8867 113.69 10.1124C114.055 10.3382 114.237 10.69 114.237 11.1667V14.0689C114.237 14.1567 114.255 14.2277 114.289 14.281C114.326 14.334 114.402 14.3605 114.517 14.3605C114.555 14.3605 114.597 14.3589 114.643 14.3558C114.69 14.3495 114.74 14.3418 114.793 14.3324V14.9577C114.662 14.9954 114.562 15.0194 114.494 15.0288C114.425 15.0382 114.332 15.0428 114.214 15.0428C113.924 15.0428 113.714 14.9392 113.584 14.7325C113.515 14.6228 113.467 14.4675 113.439 14.267C113.267 14.4928 113.021 14.6887 112.7 14.8549C112.379 15.021 112.026 15.1035 111.64 15.1035C111.176 15.1035 110.796 14.9624 110.501 14.6801C110.208 14.3948 110.062 14.0392 110.062 13.6127C110.062 13.1454 110.206 12.7829 110.496 12.5257C110.785 12.2687 111.165 12.1105 111.636 12.0509L112.976 11.8817C113.169 11.8566 113.298 11.7748 113.364 11.6368C113.401 11.5616 113.419 11.4535 113.419 11.3125C113.419 11.024 113.317 10.8148 113.111 10.6863C112.909 10.5547 112.618 10.489 112.238 10.489C111.799 10.489 111.487 10.6078 111.303 10.8461C111.201 10.9778 111.134 11.1746 111.103 11.4349H110.318C110.333 10.814 110.533 10.3828 110.916 10.1413C111.302 9.89676 111.749 9.77404 112.256 9.77402ZM113.396 12.3705C113.293 12.4364 113.161 12.4912 112.999 12.5351C112.837 12.5789 112.678 12.6106 112.523 12.6295L112.013 12.6949C111.708 12.7356 111.48 12.8006 111.327 12.8884C111.069 13.0358 110.94 13.271 110.94 13.594C110.94 13.8386 111.028 14.0315 111.206 14.1726C111.383 14.3136 111.593 14.3838 111.836 14.3838C112.132 14.3838 112.418 14.3152 112.695 14.1773C113.162 13.9483 113.396 13.5735 113.396 13.0529V12.3705Z" fill="black"/>
<path fill-rule="evenodd" clip-rule="evenodd" d="M81.9536 10.5077C82.1373 10.2663 82.3572 10.0827 82.6125 9.95721C82.8679 9.82866 83.1452 9.76467 83.4441 9.76467C84.0668 9.7647 84.5716 9.9806 84.9577 10.4133C85.347 10.843 85.5415 11.4786 85.5415 12.3191C85.5415 13.1156 85.35 13.7776 84.967 14.3044C84.584 14.8313 84.0524 15.0942 83.3735 15.0942C82.9938 15.0941 82.6736 15.0015 82.4121 14.8166C82.2564 14.7069 82.0893 14.5318 81.9119 14.2904V14.9344H81.1369V8H81.9536V10.5077ZM83.3457 10.5218C82.9628 10.5218 82.6264 10.6645 82.3369 10.9498C82.0504 11.2352 81.9072 11.7058 81.9072 12.3612C81.9072 12.8346 81.9662 13.2189 82.0845 13.5137C82.3056 14.0688 82.7184 14.3465 83.3225 14.3465C83.7771 14.3465 84.1164 14.1644 84.3406 13.8006C84.5679 13.4368 84.6821 12.957 84.6821 12.3612C84.6821 11.8312 84.5679 11.3923 84.3406 11.0442C84.1164 10.6961 83.7848 10.5218 83.3457 10.5218Z" fill="black"/>
<path d="M66.5665 9.75065C67.1301 9.75067 67.5882 9.88875 67.94 10.1647C68.2948 10.4407 68.5078 10.9161 68.5794 11.5901H67.7618C67.712 11.2796 67.5987 11.0219 67.4212 10.818C67.2438 10.6112 66.9587 10.5078 66.5665 10.5077C66.0309 10.5077 65.648 10.7716 65.4176 11.2985C65.2681 11.6403 65.193 12.0623 65.193 12.564C65.193 13.0688 65.2987 13.494 65.5104 13.8389C65.7221 14.1837 66.0555 14.3557 66.5099 14.3558C66.8585 14.3558 67.1344 14.2493 67.3368 14.0361C67.5422 13.8198 67.684 13.525 67.7618 13.1519H68.5794C68.486 13.8198 68.2524 14.3089 67.8788 14.6194C67.5051 14.9267 67.0272 15.0802 66.4449 15.0802C65.791 15.0802 65.2695 14.8403 64.8802 14.3605C64.491 13.8775 64.2965 13.275 64.2965 12.5537C64.2966 11.6697 64.5095 10.9813 64.9359 10.489C65.3625 9.99666 65.9063 9.75065 66.5665 9.75065Z" fill="black"/>
<path d="M60.536 9.89646V13.2407C60.536 13.4979 60.5766 13.7086 60.6576 13.8716C60.8071 14.1725 61.086 14.3231 61.4938 14.3231C62.0789 14.323 62.4774 14.0591 62.6891 13.5324C62.8042 13.2501 62.8617 12.8628 62.8617 12.3705V9.89646H63.7025V14.9344H62.909L62.9183 14.1913C62.8094 14.3825 62.6736 14.5438 62.5118 14.6755C62.1911 14.9389 61.8012 15.0708 61.3434 15.0708C60.6306 15.0707 60.1448 14.8309 59.8864 14.3511C59.7463 14.094 59.6766 13.7506 59.6766 13.3211V9.89646H60.536Z" fill="black"/>
<path d="M98.6075 13.2407C98.6075 13.4979 98.6481 13.7086 98.7291 13.8716C98.8786 14.1725 99.1575 14.3231 99.5653 14.3231C100.15 14.323 100.549 14.0591 100.761 13.5324C100.876 13.2501 100.933 12.8628 100.933 12.3705V9.89646H101.774V14.9344H100.981L100.99 14.1913C100.881 14.3825 100.745 14.5438 100.583 14.6755C100.263 14.9389 99.8727 15.0708 99.4149 15.0708C98.7021 15.0707 98.2163 14.8309 97.9579 14.3511C97.8178 14.094 97.7482 13.7506 97.7482 13.3211V9.89646H98.6075V13.2407Z" fill="black"/>
<path d="M49.1933 9.78336C49.2089 9.78336 49.2358 9.7849 49.2732 9.78804C49.3105 9.79117 49.3742 9.79734 49.4643 9.80673V10.7003C49.4146 10.6909 49.3677 10.6847 49.3242 10.6816C49.2838 10.6785 49.2384 10.6769 49.1887 10.6769C48.7653 10.677 48.4397 10.815 48.2124 11.091C47.9851 11.3638 47.8718 11.6794 47.8718 12.0369V14.9344H47.031V9.89646H47.83V10.7666C47.8954 10.5973 48.0556 10.3921 48.3108 10.1507C48.566 9.90614 48.8603 9.78343 49.1933 9.78336Z" fill="black"/>
<path d="M93.6647 8V10.5788C93.8639 10.3248 94.0433 10.1458 94.2021 10.0423C94.4729 9.86356 94.8108 9.77407 95.2155 9.77402C95.941 9.77402 96.4335 10.0294 96.692 10.5405C96.8322 10.8196 96.9018 11.2077 96.9018 11.7032V14.9344H96.0378V11.7593C96.0378 11.3892 95.991 11.1177 95.8976 10.9452C95.745 10.6693 95.4585 10.5311 95.0382 10.5311C94.6895 10.5311 94.3731 10.6523 94.0898 10.8938C93.8067 11.1353 93.6648 11.5914 93.6647 12.2621V14.9344H92.8239V8H93.6647Z" fill="black"/>
<path d="M107.87 9.78336C108.543 9.78343 109 10.0281 109.243 10.5171C109.374 10.7805 109.44 11.1354 109.44 11.5807V14.9344H108.566V11.4349C108.566 11.0995 108.482 10.8688 108.314 10.7433C108.149 10.6179 107.947 10.5545 107.707 10.5545C107.377 10.5545 107.092 10.6665 106.852 10.8891C106.616 11.1118 106.497 11.4835 106.497 12.0042V14.9344H105.642V11.6462C105.642 11.3044 105.602 11.0552 105.521 10.8984C105.393 10.6632 105.155 10.5451 104.806 10.5451C104.488 10.5451 104.199 10.6694 103.937 10.9171C103.679 11.1648 103.549 11.6132 103.549 12.2621V14.9344H102.709V9.89646H103.54V10.6115C103.739 10.3637 103.92 10.1832 104.082 10.0703C104.359 9.87904 104.674 9.78336 105.026 9.78336C105.424 9.78343 105.745 9.88229 105.987 10.0797C106.124 10.1926 106.249 10.3592 106.361 10.5788C106.548 10.3091 106.768 10.1092 107.02 9.98058C107.272 9.84899 107.556 9.78336 107.87 9.78336Z" fill="black"/>
<path d="M117.671 9.78336C118.38 9.78339 118.86 10.0326 119.109 10.5311C119.246 10.804 119.314 11.1951 119.314 11.7032V14.9344H118.46V11.7593C118.46 11.452 118.414 11.2044 118.324 11.0162C118.175 10.7026 117.904 10.5452 117.512 10.5451C117.313 10.5451 117.149 10.566 117.021 10.6068C116.791 10.6758 116.588 10.814 116.414 11.0209C116.274 11.187 116.182 11.3591 116.138 11.5378C116.098 11.7134 116.078 11.9665 116.078 12.2958V14.9344H115.237V9.89646H116.035V10.6115C116.272 10.3167 116.523 10.1045 116.788 9.97591C117.053 9.84746 117.347 9.78336 117.671 9.78336Z" fill="black"/>
</svg>
