<svg width="131" height="42" viewBox="0 0 131 42" fill="none" xmlns="http://www.w3.org/2000/svg">
<path d="M0.5 0.5H116C124.008 0.5 130.5 6.99187 130.5 15V41.5H15C6.99187 41.5 0.5 35.0081 0.5 27V0.5Z" fill="white" stroke="black"/>
<path d="M27.8497 24.1575C24.3836 26.9643 19.4266 26.9643 15.9605 24.1575L17.3007 22.5026C19.9854 24.6766 23.8248 24.6766 26.5095 22.5026L27.8497 24.1575Z" fill="black"/>
<path d="M17.404 17.6365V20.5134H19.5336V17.6365H17.404Z" fill="black"/>
<path d="M24.012 17.6365V20.5134H26.1415V17.6365H24.012Z" fill="black"/>
<path fill-rule="evenodd" clip-rule="evenodd" d="M21.5 33C27.8513 33 33 27.8513 33 21.5C33 15.1487 27.8513 10 21.5 10C15.1487 10 10 15.1487 10 21.5C10 27.8513 15.1487 33 21.5 33ZM21.5 30.8705C26.6752 30.8705 30.8705 26.6752 30.8705 21.5C30.8705 16.3248 26.6752 12.1295 21.5 12.1295C16.3248 12.1295 12.1295 16.3248 12.1295 21.5C12.1295 26.6752 16.3248 30.8705 21.5 30.8705Z" fill="black"/>
<path fill-rule="evenodd" clip-rule="evenodd" d="M103.594 32.0851L99.0078 19H95.95L91.3281 32.0851H94.1575L95.0537 29.3953H99.825L100.66 32.0851H103.594ZM97.4525 21.9916L99.0693 27.1405H95.783L97.4525 21.9916Z" fill="black"/>
<path fill-rule="evenodd" clip-rule="evenodd" d="M75.602 22.1958C76.8615 22.1958 77.8456 22.6545 78.5544 23.5718C79.2691 24.4891 79.6264 25.6728 79.6264 27.1227C79.6264 28.6259 79.2749 29.8717 78.572 30.8601C77.869 31.8484 76.8878 32.3426 75.6284 32.3426C74.8376 32.3426 74.202 32.1828 73.7217 31.8632C73.4346 31.6738 73.1242 31.3424 72.7903 30.8689V32.0851H70.3388V19.0178H72.8342V23.6695C73.1505 23.2197 73.4991 22.8764 73.8798 22.6397C74.3309 22.3438 74.905 22.1958 75.602 22.1958ZM74.9606 30.2564C75.605 30.2564 76.1058 29.993 76.4631 29.4663C76.8205 28.9396 76.9991 28.2472 76.9991 27.389C76.9991 26.7025 76.9113 26.1344 76.7355 25.6846C76.4016 24.8324 75.7866 24.4063 74.8903 24.4063C73.9823 24.4063 73.3585 24.8235 73.0187 25.658C72.843 26.1018 72.7551 26.6759 72.7551 27.3802C72.7551 28.2087 72.9367 28.8952 73.2999 29.4397C73.6631 29.9842 74.2167 30.2564 74.9606 30.2564Z" fill="black"/>
<path d="M62.3181 31.5969C62.037 31.3069 61.8964 30.8601 61.8964 30.2564V24.2997H60.5608V22.4977H61.8964V19.799H64.3742V22.4977H65.9295V24.2997H64.3742V29.4131C64.3742 29.8096 64.424 30.0581 64.5236 30.1587C64.6232 30.2534 64.9278 30.3008 65.4374 30.3008H65.6747C65.7626 30.2949 65.8475 30.2889 65.9295 30.283V32.1739L64.7433 32.2183C63.56 32.2597 62.7516 32.0526 62.3181 31.5969Z" fill="black"/>
<path fill-rule="evenodd" clip-rule="evenodd" d="M60.4634 27.2648C60.4634 28.6851 60.0592 29.9013 59.2508 30.9133C58.4425 31.9194 57.2152 32.4225 55.5692 32.4225C53.9231 32.4225 52.6959 31.9194 51.8875 30.9133C51.0791 29.9013 50.6749 28.6851 50.6749 27.2648C50.6749 25.8681 51.0791 24.6578 51.8875 23.6339C52.6959 22.6101 53.9231 22.0982 55.5692 22.0982C57.2152 22.0982 58.4425 22.6101 59.2508 23.6339C60.0592 24.6578 60.4634 25.8681 60.4634 27.2648ZM55.5604 30.3008C56.2926 30.3008 56.855 30.0374 57.2475 29.5107C57.6399 28.984 57.8362 28.2353 57.8362 27.2648C57.8362 26.2942 57.6399 25.5485 57.2475 25.0277C56.855 24.501 56.2926 24.2376 55.5604 24.2376C54.8282 24.2376 54.2629 24.501 53.8646 25.0277C53.4721 25.5485 53.2758 26.2942 53.2758 27.2648C53.2758 28.2353 53.4721 28.984 53.8646 29.5107C54.2629 30.0374 54.8282 30.3008 55.5604 30.3008Z" fill="black"/>
<path d="M48.7148 22.9681C48.088 22.4414 47.2796 22.1781 46.2896 22.1781C45.4988 22.1781 44.8457 22.3734 44.3302 22.764C44.0432 22.9829 43.7385 23.341 43.4164 23.8381V22.4266H41V32.0851H43.4954V26.8475C43.4954 26.2498 43.5775 25.7586 43.7415 25.3739C44.0578 24.646 44.6407 24.282 45.49 24.282C46.1813 24.282 46.6499 24.5305 46.8959 25.0277C47.0307 25.2999 47.098 25.6905 47.098 26.1995V32.0851H49.6638V25.5692C49.6638 24.356 49.3474 23.4889 48.7148 22.9681Z" fill="black"/>
<path d="M81.4108 33.9582L81.0945 33.9405V35.9645C81.3639 35.9822 81.566 35.9911 81.7008 35.9911C81.8355 35.997 82.0142 36 82.2368 36C83.3439 36 84.082 35.7781 84.451 35.3342C84.8201 34.8963 85.3209 33.76 85.9536 31.9253L89.2398 22.4089H86.5774L84.6004 29.5462L82.5092 22.4089H79.7237L83.2385 32.5112C83.2619 32.5822 83.2092 32.7775 83.0803 33.0971C82.9573 33.4167 82.8225 33.6268 82.6761 33.7274C82.5238 33.8339 82.3363 33.902 82.1137 33.9316C81.8912 33.9612 81.6568 33.9701 81.4108 33.9582Z" fill="black"/>
<path d="M105.902 21.2258V29.8624H104.306V32.0882H110V29.8624H108.59V21.2258H110V19H104.306V21.2258H105.902Z" fill="black"/>
<path d="M70.9598 10.8934C70.6812 11.1349 70.5419 11.5912 70.5419 12.2624V14.9347H69.7154V8H70.5419V10.5782C70.7379 10.3241 70.9139 10.1453 71.07 10.0418C71.3363 9.86306 71.6685 9.77367 72.0664 9.77367C72.7797 9.77367 73.2634 10.0293 73.5175 10.5405C73.6552 10.8197 73.7241 11.207 73.7241 11.7026V14.9347H72.8746V11.759C72.8746 11.3889 72.8287 11.1176 72.7368 10.9451C72.5868 10.6691 72.3052 10.5311 71.8919 10.5311C71.5491 10.5311 71.2384 10.6519 70.9598 10.8934Z" fill="black"/>
<path fill-rule="evenodd" clip-rule="evenodd" d="M81.2003 9.8066C81.5768 9.8066 81.8921 9.88815 82.1462 10.0512C82.2931 10.1453 82.46 10.31 82.6467 10.5452V8H83.4411V14.9347H82.6972V14.2337C82.5043 14.5442 82.2763 14.7685 82.013 14.9065C81.7497 15.0445 81.4482 15.1135 81.1084 15.1135C80.5605 15.1135 80.086 14.8783 79.6849 14.4078C79.2839 13.9342 79.0834 13.3053 79.0834 12.5212C79.0834 11.7873 79.2656 11.1521 79.6298 10.6158C79.9972 10.0763 80.5207 9.8066 81.2003 9.8066ZM79.9559 12.4742C79.9559 13.0136 80.0676 13.4653 80.2911 13.8291C80.5145 14.1929 80.8727 14.3748 81.3656 14.3748C81.7482 14.3748 82.062 14.207 82.3069 13.8714C82.5549 13.5327 82.6788 13.0481 82.6788 12.4177C82.6788 11.781 82.5518 11.3105 82.2977 11.0063C82.0436 10.6989 81.7299 10.5452 81.3564 10.5452C80.94 10.5452 80.6018 10.7083 80.3416 11.0345C80.0844 11.3607 79.9559 11.8406 79.9559 12.4742Z" fill="black"/>
<path fill-rule="evenodd" clip-rule="evenodd" d="M87.7213 14.8171C87.5682 14.7073 87.4044 14.5317 87.2299 14.2902V14.9347H86.4677V8H87.2713V10.5076C87.4519 10.2661 87.6677 10.0826 87.9187 9.95715C88.1697 9.82856 88.4422 9.76426 88.7361 9.76426C89.3483 9.76426 89.8442 9.98067 90.2238 10.4135C90.6065 10.8432 90.7978 11.4783 90.7978 12.3189C90.7978 13.1156 90.6095 13.7774 90.233 14.3043C89.8565 14.8312 89.3345 15.0947 88.6672 15.0947C88.2937 15.0947 87.9784 15.0021 87.7213 14.8171ZM88.6167 14.3466C89.0636 14.3466 89.3973 14.1647 89.6177 13.8009C89.8412 13.437 89.9529 12.9572 89.9529 12.3612C89.9529 11.8312 89.8412 11.3921 89.6177 11.0439C89.3973 10.6958 89.0713 10.5217 88.6396 10.5217C88.2631 10.5217 87.9325 10.6644 87.6478 10.9498C87.3662 11.2353 87.2253 11.7057 87.2253 12.3612C87.2253 12.8348 87.2835 13.2191 87.3998 13.5139C87.6172 14.069 88.0228 14.3466 88.6167 14.3466Z" fill="black"/>
<path d="M99.3124 10.0418C99.1563 10.1453 98.9803 10.3241 98.7844 10.5782V8H97.9578V14.9347H98.7844V12.2624C98.7844 11.5912 98.9237 11.1349 99.2022 10.8934C99.4808 10.6519 99.7915 10.5311 100.134 10.5311C100.548 10.5311 100.829 10.6691 100.979 10.9451C101.071 11.1176 101.117 11.3889 101.117 11.759V14.9347H101.967V11.7026C101.967 11.207 101.898 10.8197 101.76 10.5405C101.506 10.0293 101.022 9.77367 100.309 9.77367C99.9109 9.77367 99.5788 9.86306 99.3124 10.0418Z" fill="black"/>
<path fill-rule="evenodd" clip-rule="evenodd" d="M118.15 11.6368C118.085 11.7748 117.958 11.8563 117.769 11.8814L116.451 12.0508C115.989 12.1104 115.615 12.2688 115.33 12.5259C115.046 12.7831 114.903 13.1454 114.903 13.6127C114.903 14.0393 115.047 14.3953 115.335 14.6807C115.626 14.963 115.999 15.1041 116.455 15.1041C116.835 15.1041 117.182 15.021 117.498 14.8548C117.813 14.6885 118.055 14.4925 118.223 14.2667C118.251 14.4674 118.298 14.6227 118.366 14.7324C118.494 14.9394 118.701 15.043 118.985 15.043C119.102 15.043 119.194 15.0382 119.261 15.0288C119.328 15.0194 119.426 14.9959 119.555 14.9583V14.3325C119.503 14.342 119.454 14.3498 119.408 14.3561C119.362 14.3592 119.321 14.3608 119.284 14.3608C119.171 14.3608 119.096 14.3341 119.059 14.2808C119.025 14.2275 119.008 14.1569 119.008 14.0691V11.1663C119.008 10.6895 118.829 10.3383 118.471 10.1124C118.11 9.88662 117.64 9.7737 117.061 9.7737C116.563 9.7737 116.123 9.89603 115.744 10.1407C115.367 10.3822 115.171 10.8134 115.156 11.4345H115.927C115.958 11.1741 116.024 10.9781 116.125 10.8464C116.305 10.608 116.611 10.4888 117.043 10.4888C117.417 10.4888 117.703 10.5547 117.902 10.6864C118.104 10.815 118.205 11.0236 118.205 11.3121C118.205 11.4533 118.186 11.5615 118.15 11.6368ZM116.028 14.1726C115.854 14.0314 115.767 13.8386 115.767 13.5939C115.767 13.2709 115.894 13.0356 116.148 12.8882C116.298 12.8004 116.523 12.7361 116.823 12.6953L117.323 12.6294C117.476 12.6106 117.632 12.5793 117.792 12.5354C117.951 12.4914 118.081 12.4366 118.182 12.3707V13.0529C118.182 13.5735 117.952 13.9483 117.493 14.1773C117.221 14.3153 116.939 14.3843 116.648 14.3843C116.409 14.3843 116.203 14.3137 116.028 14.1726Z" fill="black"/>
<path d="M120.878 11.5379C120.838 11.7135 120.818 11.966 120.818 12.2954V14.9347H119.991V9.89596H120.777V10.6111C121.009 10.3162 121.256 10.1045 121.516 9.97594C121.776 9.84735 122.065 9.78305 122.384 9.78305C123.082 9.78305 123.553 10.0324 123.798 10.5311C123.933 10.804 124 11.1945 124 11.7026V14.9347H123.16V11.759C123.16 11.4516 123.115 11.2039 123.027 11.0157C122.88 10.702 122.613 10.5452 122.228 10.5452C122.032 10.5452 121.871 10.5656 121.745 10.6064C121.519 10.6754 121.32 10.8134 121.148 11.0204C121.011 11.1866 120.92 11.3591 120.878 11.5379Z" fill="black"/>
<path d="M108.883 10.9169C108.629 11.1647 108.502 11.6132 108.502 12.2624V14.9347H107.675V9.89596H108.492V10.6111C108.688 10.3633 108.866 10.1829 109.025 10.07C109.298 9.87871 109.607 9.78305 109.953 9.78305C110.344 9.78305 110.66 9.88185 110.899 10.0794C111.033 10.1924 111.156 10.3586 111.266 10.5781C111.45 10.3084 111.665 10.1092 111.913 9.98065C112.161 9.84892 112.44 9.78305 112.749 9.78305C113.41 9.78305 113.86 10.0277 114.099 10.517C114.228 10.7804 114.292 11.1349 114.292 11.5802V14.9347H113.433V11.4344C113.433 11.0988 113.351 10.8683 113.185 10.7428C113.023 10.6173 112.824 10.5546 112.588 10.5546C112.264 10.5546 111.984 10.666 111.748 10.8887C111.515 11.1113 111.399 11.483 111.399 12.0037V14.9347H110.559V11.6461C110.559 11.3042 110.519 11.0549 110.439 10.8981C110.314 10.6628 110.08 10.5452 109.737 10.5452C109.425 10.5452 109.14 10.6691 108.883 10.9169Z" fill="black"/>
<path d="M103.005 14.3513C102.867 14.0941 102.798 13.7506 102.798 13.3209V9.89592H103.643V13.241C103.643 13.4981 103.683 13.7083 103.763 13.8714C103.91 14.1725 104.184 14.323 104.585 14.323C105.16 14.323 105.552 14.0596 105.76 13.5326C105.873 13.2504 105.93 12.863 105.93 12.3706V9.89592H106.757V14.9346H105.976L105.985 14.1913C105.878 14.3826 105.745 14.5442 105.586 14.6759C105.27 14.9393 104.888 15.0711 104.438 15.0711C103.737 15.0711 103.259 14.8311 103.005 14.3513Z" fill="black"/>
<path d="M94.6006 12.1071C95.0016 10.956 95.2603 10.219 95.3766 9.89592H94.4629L93.1358 13.9984L91.818 9.89592H90.8812L92.6996 15.0805C92.6567 15.1934 92.5879 15.3659 92.493 15.598C92.3981 15.8301 92.343 15.9587 92.3276 15.9838C92.2787 16.0591 92.2174 16.1218 92.144 16.172C92.0736 16.2253 91.9618 16.252 91.8088 16.252C91.7598 16.252 91.7032 16.2473 91.6389 16.2378C91.5746 16.2284 91.4705 16.2033 91.3266 16.1626V16.9341C91.4185 16.9592 91.495 16.9765 91.5562 16.9859C91.6205 16.9953 91.7108 17 91.8271 17C92.3047 17 92.6414 16.8589 92.8373 16.5766C93.0333 16.2943 93.37 15.5102 93.8476 14.2242C94.0496 13.6785 94.3006 12.9728 94.6006 12.1071Z" fill="black"/>
<path fill-rule="evenodd" clip-rule="evenodd" d="M77.6369 10.0371C77.3094 9.86774 76.9711 9.78305 76.6221 9.78305C75.9303 9.78305 75.3701 10.0355 74.9415 10.5405C74.5129 11.0455 74.2987 11.7026 74.2987 12.5118C74.2987 13.3335 74.5114 13.9734 74.9369 14.4313C75.3624 14.8861 75.8813 15.1135 76.4936 15.1135C76.7446 15.1135 76.9696 15.0884 77.1686 15.0382C77.539 14.9504 77.8497 14.781 78.1007 14.5301C78.2507 14.3858 78.3854 14.2008 78.5048 13.9749C78.6272 13.746 78.6992 13.539 78.7206 13.3539H77.9079C77.8466 13.5766 77.7425 13.7726 77.5956 13.942C77.3385 14.2337 76.9941 14.3795 76.5624 14.3795C76.1002 14.3795 75.7589 14.2258 75.5385 13.9185C75.318 13.608 75.2002 13.1971 75.1849 12.6858H78.7895C78.7895 12.1777 78.765 11.8076 78.716 11.5755C78.6609 11.2368 78.5507 10.9404 78.3854 10.6864C78.214 10.4198 77.9645 10.2033 77.6369 10.0371ZM77.7058 11.1333C77.8283 11.3528 77.9063 11.6461 77.94 12.0131H75.2078C75.2231 11.5802 75.3594 11.2243 75.6165 10.9451C75.8737 10.6628 76.192 10.5217 76.5716 10.5217C77.1012 10.5217 77.4793 10.7256 77.7058 11.1333Z" fill="black"/>
<path d="M67.286 9.7501C67.8401 9.7501 68.2901 9.88811 68.636 10.1641C68.985 10.4401 69.1947 10.9153 69.2651 11.5896H68.4615C68.4126 11.2791 68.3008 11.0219 68.1263 10.8181C67.9518 10.6111 67.6717 10.5076 67.286 10.5076C66.7595 10.5076 66.383 10.771 66.1564 11.2979C66.0095 11.6398 65.936 12.0617 65.936 12.5635C65.936 13.0685 66.0401 13.4935 66.2483 13.8385C66.4564 14.1835 66.784 14.356 67.2309 14.356C67.5738 14.356 67.8447 14.2493 68.0437 14.0361C68.2457 13.8197 68.385 13.5248 68.4615 13.1516H69.2651C69.1733 13.8197 68.9437 14.3089 68.5763 14.6195C68.209 14.9268 67.7391 15.0805 67.1666 15.0805C66.5238 15.0805 66.011 14.8406 65.6284 14.3607C65.2457 13.8777 65.0544 13.2755 65.0544 12.5541C65.0544 11.6696 65.2641 10.9812 65.6835 10.4887C66.1029 9.99631 66.637 9.7501 67.286 9.7501Z" fill="black"/>
<path d="M63.8191 11.091C63.5956 11.3638 63.4839 11.679 63.4839 12.0366V14.9347H62.6574V9.89596H63.4426V10.7663C63.5068 10.597 63.6645 10.3915 63.9155 10.15C64.1665 9.90537 64.4558 9.78305 64.7834 9.78305C64.7987 9.78305 64.8247 9.78462 64.8614 9.78776C64.8982 9.79089 64.9609 9.79717 65.0497 9.80657V10.7005C65.0007 10.6911 64.9548 10.6848 64.912 10.6816C64.8722 10.6785 64.8278 10.6769 64.7788 10.6769C64.3625 10.6769 64.0426 10.8149 63.8191 11.091Z" fill="black"/>
<path fill-rule="evenodd" clip-rule="evenodd" d="M60.4112 11.8814C60.601 11.8563 60.728 11.7748 60.7923 11.6368C60.8291 11.5615 60.8474 11.4533 60.8474 11.3121C60.8474 11.0236 60.7464 10.815 60.5444 10.6864C60.3454 10.5547 60.0592 10.4888 59.6857 10.4888C59.2541 10.4888 58.9479 10.608 58.7673 10.8464C58.6663 10.9781 58.6005 11.1741 58.5699 11.4345H57.7984C57.8137 10.8134 58.0097 10.3822 58.3862 10.1407C58.7658 9.89603 59.2051 9.7737 59.7041 9.7737C60.2826 9.7737 60.7525 9.88662 61.1138 10.1124C61.4719 10.3383 61.651 10.6895 61.651 11.1663V14.0691C61.651 14.1569 61.6678 14.2275 61.7015 14.2808C61.7382 14.3341 61.8132 14.3608 61.9265 14.3608C61.9633 14.3608 62.0046 14.3592 62.0505 14.3561C62.0964 14.3498 62.1454 14.342 62.1974 14.3325V14.9583C62.0689 14.9959 61.9709 15.0194 61.9036 15.0288C61.8362 15.0382 61.7444 15.043 61.628 15.043C61.3433 15.043 61.1367 14.9394 61.0081 14.7324C60.9408 14.6227 60.8933 14.4674 60.8658 14.2667C60.6974 14.4925 60.4556 14.6885 60.1403 14.8548C59.825 15.021 59.4775 15.1041 59.0979 15.1041C58.6418 15.1041 58.2683 14.963 57.9775 14.6807C57.6898 14.3953 57.5459 14.0393 57.5459 13.6127C57.5459 13.1454 57.6882 12.7831 57.9729 12.5259C58.2576 12.2688 58.6311 12.1104 59.0933 12.0508L60.4112 11.8814ZM58.4092 13.5939C58.4092 13.8386 58.4964 14.0314 58.6709 14.1726C58.8454 14.3137 59.052 14.3843 59.2908 14.3843C59.5816 14.3843 59.8632 14.3153 60.1357 14.1773C60.5949 13.9483 60.8245 13.5735 60.8245 13.0529V12.3707C60.7235 12.4366 60.5933 12.4914 60.4342 12.5354C60.275 12.5793 60.1189 12.6106 59.9658 12.6294L59.4653 12.6953C59.1653 12.7361 58.9403 12.8004 58.7903 12.8882C58.5362 13.0356 58.4092 13.2709 58.4092 13.5939Z" fill="black"/>
<path fill-rule="evenodd" clip-rule="evenodd" d="M54.9648 9.78305C55.3138 9.78305 55.652 9.86774 55.9796 10.0371C56.3071 10.2033 56.5566 10.4198 56.7281 10.6864C56.8934 10.9404 57.0036 11.2368 57.0587 11.5755C57.1076 11.8076 57.1321 12.1777 57.1321 12.6858H53.5275C53.5428 13.1971 53.6607 13.608 53.8811 13.9185C54.1015 14.2258 54.4428 14.3795 54.9051 14.3795C55.3367 14.3795 55.6811 14.2337 55.9383 13.942C56.0852 13.7726 56.1893 13.5766 56.2505 13.3539H57.0633C57.0418 13.539 56.9699 13.746 56.8474 13.9749C56.7281 14.2008 56.5934 14.3858 56.4434 14.5301C56.1923 14.781 55.8816 14.9504 55.5112 15.0382C55.3122 15.0884 55.0872 15.1135 54.8362 15.1135C54.224 15.1135 53.7051 14.8861 53.2796 14.4313C52.8541 13.9734 52.6413 13.3335 52.6413 12.5118C52.6413 11.7026 52.8556 11.0455 53.2842 10.5405C53.7127 10.0355 54.2729 9.78305 54.9648 9.78305ZM56.2826 12.0131C56.249 11.6461 56.1709 11.3528 56.0485 11.1333C55.8219 10.7256 55.4439 10.5217 54.9143 10.5217C54.5347 10.5217 54.2163 10.6628 53.9592 10.9451C53.702 11.2243 53.5658 11.5802 53.5505 12.0131H56.2826Z" fill="black"/>
<path d="M49.0828 13.354C49.1073 13.6363 49.1762 13.8527 49.2894 14.0033C49.4976 14.2762 49.8588 14.4126 50.3731 14.4126C50.6792 14.4126 50.9486 14.3452 51.1813 14.2103C51.4139 14.0723 51.5303 13.8606 51.5303 13.5752C51.5303 13.3587 51.4369 13.1941 51.2502 13.0812C51.1308 13.0122 50.8951 12.9322 50.543 12.8412L49.8864 12.6719C49.467 12.5652 49.1578 12.446 48.9588 12.3143C48.6037 12.0853 48.4262 11.7686 48.4262 11.3639C48.4262 10.8872 48.593 10.5014 48.9267 10.2066C49.2634 9.91177 49.7149 9.76436 50.2813 9.76436C51.0221 9.76436 51.5563 9.98704 51.8838 10.4324C52.0889 10.7147 52.1884 11.0189 52.1823 11.3451H51.4017C51.3864 11.1538 51.3206 10.9797 51.2042 10.8229C51.0144 10.6002 50.6854 10.4889 50.217 10.4889C49.9047 10.4889 49.6675 10.55 49.5052 10.6724C49.3461 10.7947 49.2665 10.9562 49.2665 11.1569C49.2665 11.3765 49.3721 11.5521 49.5833 11.6839C49.7058 11.7623 49.8864 11.8313 50.1251 11.8909L50.6716 12.0273C51.2655 12.1747 51.6634 12.3174 51.8655 12.4554C52.1869 12.6719 52.3476 13.0122 52.3476 13.4764C52.3476 13.9249 52.1808 14.3122 51.8471 14.6384C51.5165 14.9646 51.0114 15.1277 50.3318 15.1277C49.6001 15.1277 49.0813 14.9583 48.7751 14.6196C48.4721 14.2777 48.3098 13.8559 48.2884 13.354H49.0828Z" fill="black"/>
<path fill-rule="evenodd" clip-rule="evenodd" d="M45.7802 9.78305C46.1292 9.78305 46.4674 9.86774 46.795 10.0371C47.1225 10.2033 47.372 10.4198 47.5434 10.6864C47.7088 10.9404 47.819 11.2368 47.8741 11.5755C47.923 11.8076 47.9475 12.1777 47.9475 12.6858H44.3429C44.3582 13.1971 44.4761 13.608 44.6965 13.9185C44.9169 14.2258 45.2582 14.3795 45.7205 14.3795C46.1521 14.3795 46.4965 14.2337 46.7536 13.942C46.9006 13.7726 47.0047 13.5766 47.0659 13.3539H47.8787C47.8572 13.539 47.7853 13.746 47.6628 13.9749C47.5434 14.2008 47.4088 14.3858 47.2588 14.5301C47.0077 14.781 46.697 14.9504 46.3266 15.0382C46.1276 15.0884 45.9026 15.1135 45.6516 15.1135C45.0394 15.1135 44.5205 14.8861 44.095 14.4313C43.6695 13.9734 43.4567 13.3335 43.4567 12.5118C43.4567 11.7026 43.671 11.0455 44.0996 10.5405C44.5281 10.0355 45.0883 9.78305 45.7802 9.78305ZM47.098 12.0131C47.0644 11.6461 46.9863 11.3528 46.8639 11.1333C46.6373 10.7256 46.2593 10.5217 45.7297 10.5217C45.3501 10.5217 45.0317 10.6628 44.7746 10.9451C44.5174 11.2243 44.3812 11.5802 44.3659 12.0131H47.098Z" fill="black"/>
<path d="M42.1617 11.091C41.9383 11.3638 41.8265 11.679 41.8265 12.0366V14.9347H41V9.89596H41.7852V10.7663C41.8495 10.597 42.0071 10.3915 42.2582 10.15C42.5092 9.90537 42.7985 9.78305 43.126 9.78305C43.1413 9.78305 43.1674 9.78462 43.2041 9.78776C43.2408 9.79089 43.3036 9.79717 43.3924 9.80657V10.7005C43.3434 10.6911 43.2975 10.6848 43.2546 10.6816C43.2148 10.6785 43.1704 10.6769 43.1214 10.6769C42.7051 10.6769 42.3852 10.8149 42.1617 11.091Z" fill="black"/>
</svg>
