<svg width="131" height="42" viewBox="0 0 131 42" fill="none" xmlns="http://www.w3.org/2000/svg">
<path d="M0.5 0.5H116C124.008 0.5 130.5 6.99187 130.5 15V41.5H15C6.99187 41.5 0.5 35.0081 0.5 27V0.5Z" fill="white" stroke="black"/>
<path d="M29.8497 24.1575C26.3836 26.9643 21.4266 26.9643 17.9605 24.1575L19.3007 22.5026C21.9854 24.6766 25.8248 24.6766 28.5095 22.5026L29.8497 24.1575Z" fill="black"/>
<path d="M19.404 17.6365V20.5134H21.5336V17.6365H19.404Z" fill="black"/>
<path d="M26.012 17.6365V20.5134H28.1415V17.6365H26.012Z" fill="black"/>
<path fill-rule="evenodd" clip-rule="evenodd" d="M23.5 33C29.8513 33 35 27.8513 35 21.5C35 15.1487 29.8513 10 23.5 10C17.1487 10 12 15.1487 12 21.5C12 27.8513 17.1487 33 23.5 33ZM23.5 30.8705C28.6752 30.8705 32.8705 26.6752 32.8705 21.5C32.8705 16.3248 28.6752 12.1295 23.5 12.1295C18.3248 12.1295 14.1295 16.3248 14.1295 21.5C14.1295 26.6752 18.3248 30.8705 23.5 30.8705Z" fill="black"/>
<path fill-rule="evenodd" clip-rule="evenodd" d="M74.3091 10.1326C74.0362 9.96305 73.6974 9.87827 73.2929 9.87827C72.5629 9.87827 72.0005 10.1587 71.6059 10.7196C71.2145 11.2772 71.0188 11.9375 71.0188 12.7006C71.0188 13.5158 71.2342 14.1696 71.6651 14.662C72.0959 15.1511 72.6056 15.3957 73.1943 15.3957C73.5593 15.3957 73.8832 15.3239 74.1661 15.1805C74.4489 15.037 74.6939 14.8038 74.9011 14.481V15.2098H75.7002V8H74.8468V10.6462C74.6462 10.4016 74.467 10.2304 74.3091 10.1326ZM72.3162 14.0604C72.0761 13.6821 71.9561 13.2125 71.9561 12.6517C71.9561 11.993 72.0942 11.494 72.3705 11.1549C72.65 10.8158 73.0134 10.6462 73.4607 10.6462C73.8619 10.6462 74.199 10.806 74.4719 11.1256C74.7449 11.4419 74.8814 11.931 74.8814 12.593C74.8814 13.2484 74.7482 13.7522 74.4818 14.1044C74.2187 14.4533 73.8816 14.6277 73.4705 14.6277C72.941 14.6277 72.5563 14.4386 72.3162 14.0604Z" fill="black"/>
<path fill-rule="evenodd" clip-rule="evenodd" d="M80.9048 15.0875C80.7404 14.9734 80.5644 14.7908 80.377 14.5397V15.2098H79.5581V8H80.4214V10.6071C80.6154 10.356 80.8473 10.1652 81.1169 10.0348C81.3866 9.9011 81.6793 9.83425 81.995 9.83425C82.6527 9.83425 83.1855 10.0592 83.5933 10.5093C84.0044 10.956 84.2099 11.6163 84.2099 12.4902C84.2099 13.3185 84.0077 14.0065 83.6032 14.5544C83.1987 15.1022 82.6379 15.3761 81.921 15.3761C81.5198 15.3761 81.1811 15.2799 80.9048 15.0875ZM81.8667 14.5984C82.3469 14.5984 82.7054 14.4093 82.9421 14.031C83.1822 13.6527 83.3022 13.1538 83.3022 12.5343C83.3022 11.9832 83.1822 11.5266 82.9421 11.1647C82.7054 10.8027 82.3551 10.6218 81.8914 10.6218C81.4869 10.6218 81.1317 10.7701 80.8259 11.0669C80.5233 11.3636 80.3721 11.8527 80.3721 12.5343C80.3721 13.0267 80.4345 13.4261 80.5595 13.7326C80.793 14.3098 81.2287 14.5984 81.8667 14.5984Z" fill="black"/>
<path d="M88.598 12.2701C89.0288 11.0733 89.3067 10.307 89.4317 9.97114H88.45L87.0244 14.2364L85.6086 9.97114H84.6023L86.5557 15.3614C86.5097 15.4788 86.4357 15.6581 86.3338 15.8994C86.2318 16.1407 86.1726 16.2744 86.1562 16.3005C86.1035 16.3788 86.0378 16.444 85.9589 16.4962C85.8832 16.5516 85.7632 16.5793 85.5987 16.5793C85.5461 16.5793 85.4853 16.5744 85.4162 16.5646C85.3472 16.5549 85.2353 16.5288 85.0808 16.4864V17.2886C85.1794 17.3146 85.2617 17.3326 85.3274 17.3424C85.3965 17.3521 85.4935 17.357 85.6185 17.357C86.1315 17.357 86.4933 17.2103 86.7037 16.9168C86.9142 16.6233 87.276 15.8081 87.789 14.4712C88.006 13.9038 88.2757 13.1701 88.598 12.2701Z" fill="black"/>
<path fill-rule="evenodd" clip-rule="evenodd" d="M68.0713 9.85379C68.4463 9.85379 68.8097 9.94183 69.1615 10.1179C69.5134 10.2907 69.7815 10.5157 69.9656 10.7929C70.1432 11.0571 70.2616 11.3652 70.3208 11.7174C70.3734 11.9587 70.3997 12.3435 70.3997 12.8717H66.5273C66.5438 13.4033 66.6704 13.8304 66.9072 14.1533C67.1439 14.4728 67.5106 14.6326 68.0072 14.6326C68.4709 14.6326 68.8409 14.481 69.1171 14.1777C69.275 14.0016 69.3868 13.7978 69.4526 13.5663H70.3257C70.3027 13.7587 70.2254 13.9739 70.0939 14.212C69.9656 14.4467 69.8209 14.6391 69.6598 14.7891C69.3901 15.05 69.0563 15.2261 68.6584 15.3174C68.4446 15.3696 68.2029 15.3957 67.9332 15.3957C67.2755 15.3957 66.7181 15.1592 66.2609 14.6864C65.8038 14.2103 65.5753 13.5451 65.5753 12.6908C65.5753 11.8494 65.8055 11.1663 66.2659 10.6413C66.7263 10.1163 67.3281 9.85379 68.0713 9.85379ZM69.4871 12.1723C69.4509 11.7908 69.3671 11.4859 69.2355 11.2576C68.9922 10.8337 68.586 10.6217 68.0171 10.6217C67.6093 10.6217 67.2673 10.7685 66.991 11.0619C66.7148 11.3522 66.5684 11.7223 66.552 12.1723H69.4871Z" fill="black"/>
<path d="M63.5599 14.98C63.4119 14.768 63.3379 14.4941 63.3379 14.1582V10.6903H62.6227V9.97126H63.3379V8.50876H64.2357V9.97126H65.0793V10.6903H64.2357V14.1093C64.2357 14.2919 64.2982 14.4142 64.4232 14.4762C64.4923 14.512 64.6074 14.53 64.7685 14.53H64.9066C64.956 14.5267 65.0135 14.5218 65.0793 14.5153V15.2099C64.9773 15.2392 64.8705 15.2604 64.7586 15.2735C64.6501 15.2865 64.5317 15.293 64.4035 15.293C63.9891 15.293 63.7079 15.1887 63.5599 14.98Z" fill="black"/>
<path fill-rule="evenodd" clip-rule="evenodd" d="M58.9844 15.1267C58.8266 15.0289 58.6506 14.8609 58.4566 14.6229V17.2984H57.5687V9.9957H58.432V10.6903C58.6095 10.4522 58.8036 10.268 59.014 10.1375C59.3133 9.94189 59.6652 9.84407 60.0697 9.84407C60.6682 9.84407 61.1763 10.0723 61.594 10.5289C62.0117 10.9821 62.2205 11.631 62.2205 12.4756C62.2205 13.6169 61.9196 14.4321 61.3177 14.9213C60.9363 15.231 60.4923 15.3859 59.9858 15.3859C59.5879 15.3859 59.2541 15.2995 58.9844 15.1267ZM59.8674 14.618C60.2818 14.618 60.6255 14.4468 60.8984 14.1044C61.1747 13.7588 61.3128 13.2435 61.3128 12.5588C61.3128 12.1414 61.252 11.7827 61.1303 11.4827C60.9001 10.9055 60.4791 10.6169 59.8674 10.6169C59.2525 10.6169 58.8315 10.9218 58.6046 11.5316C58.4829 11.8577 58.4221 12.2718 58.4221 12.774C58.4221 13.1783 58.4829 13.5223 58.6046 13.806C58.8348 14.3473 59.2558 14.618 59.8674 14.618Z" fill="black"/>
<path d="M53.6027 10.2353C53.333 10.4864 53.1637 10.7 53.0946 10.8761V9.97118H52.251V15.2098H53.139V12.1967C53.139 11.825 53.259 11.4973 53.4991 11.2136C53.7392 10.9266 54.0828 10.7831 54.5301 10.7831C54.5827 10.7831 54.6304 10.7848 54.6731 10.788C54.7192 10.7913 54.7685 10.7978 54.8211 10.8076V9.87824C54.7258 9.86846 54.6583 9.86194 54.6189 9.85868C54.5794 9.85542 54.5515 9.85379 54.535 9.85379C54.1831 9.85379 53.8724 9.98096 53.6027 10.2353Z" fill="black"/>
<path d="M50.7635 10.25C50.3919 9.96301 49.9085 9.81953 49.3132 9.81953C48.616 9.81953 48.0421 10.0755 47.5916 10.5875C47.1411 11.0994 46.9158 11.8152 46.9158 12.7348C46.9158 13.4848 47.1213 14.1109 47.5324 14.613C47.9435 15.1119 48.4943 15.3614 49.185 15.3614C49.7999 15.3614 50.3047 15.2016 50.6994 14.8821C51.094 14.5592 51.3407 14.0505 51.4393 13.356H50.5761C50.4938 13.744 50.3442 14.0505 50.1272 14.2755C49.9134 14.4973 49.6223 14.6081 49.254 14.6081C48.7739 14.6081 48.422 14.4288 48.1984 14.0701C47.9747 13.7114 47.8629 13.2695 47.8629 12.7445C47.8629 12.2228 47.9418 11.7842 48.0997 11.4288C48.3431 10.8809 48.7476 10.607 49.3132 10.607C49.7276 10.607 50.0285 10.7146 50.2159 10.9299C50.4034 11.1418 50.5234 11.4092 50.5761 11.732H51.4393C51.3637 11.0309 51.1384 10.5369 50.7635 10.25Z" fill="black"/>
<path d="M43.0754 14.2414C42.9537 14.0849 42.8797 13.8599 42.8534 13.5664H42C42.023 14.0882 42.1973 14.5268 42.5229 14.8822C42.8518 15.2344 43.4092 15.4105 44.1952 15.4105C44.9253 15.4105 45.4679 15.2409 45.8231 14.9018C46.1815 14.5626 46.3608 14.1599 46.3608 13.6936C46.3608 13.211 46.1881 12.8572 45.8428 12.6322C45.6257 12.4887 45.1982 12.3403 44.5602 12.1871L43.9732 12.0452C43.7167 11.9833 43.5226 11.9115 43.3911 11.83C43.1642 11.6931 43.0507 11.5104 43.0507 11.2822C43.0507 11.0735 43.1362 10.9056 43.3072 10.7784C43.4815 10.6512 43.7364 10.5876 44.0719 10.5876C44.575 10.5876 44.9285 10.7034 45.1324 10.9349C45.2574 11.0979 45.3281 11.2789 45.3446 11.4778H46.1832C46.1897 11.1387 46.0829 10.8224 45.8625 10.5289C45.5106 10.0659 44.9368 9.83435 44.1409 9.83435C43.5325 9.83435 43.0474 9.98761 42.6857 10.2941C42.3272 10.6007 42.148 11.0017 42.148 11.4974C42.148 11.9181 42.3387 12.2474 42.7202 12.4854C42.934 12.6224 43.2661 12.7463 43.7167 12.8572L44.4221 13.0333C44.8003 13.1278 45.0535 13.211 45.1818 13.2827C45.3824 13.4001 45.4827 13.5713 45.4827 13.7963C45.4827 14.0931 45.3577 14.3132 45.1078 14.4567C44.8578 14.5969 44.5684 14.667 44.2396 14.667C43.6871 14.667 43.299 14.5251 43.0754 14.2414Z" fill="black"/>
<path d="M94.1476 11.0082C93.8483 11.2593 93.6987 11.7337 93.6987 12.4315V15.2098H92.8108V8H93.6987V10.6804C93.9092 10.4163 94.0983 10.2304 94.266 10.1228C94.5521 9.93696 94.9089 9.84403 95.3365 9.84403C96.1027 9.84403 96.6223 10.1098 96.8953 10.6413C97.0433 10.9315 97.1173 11.3343 97.1173 11.8495V15.2098H96.2047V11.9082C96.2047 11.5234 96.1553 11.2413 96.0567 11.062C95.8955 10.775 95.593 10.6315 95.149 10.6315C94.7807 10.6315 94.4469 10.7571 94.1476 11.0082Z" fill="black"/>
<path fill-rule="evenodd" clip-rule="evenodd" d="M115.002 12.0354C115.206 12.0093 115.343 11.9245 115.412 11.781C115.451 11.7028 115.471 11.5903 115.471 11.4435C115.471 11.1435 115.362 10.9267 115.145 10.793C114.932 10.656 114.624 10.5875 114.223 10.5875C113.759 10.5875 113.43 10.7115 113.236 10.9593C113.128 11.0962 113.057 11.3001 113.024 11.5707H112.195C112.212 10.9251 112.422 10.4767 112.827 10.2256C113.235 9.97124 113.706 9.84407 114.243 9.84407C114.864 9.84407 115.369 9.96146 115.757 10.1962C116.142 10.431 116.334 10.7962 116.334 11.2919V14.3098C116.334 14.4012 116.352 14.4745 116.388 14.53C116.428 14.5854 116.508 14.6131 116.63 14.6131C116.67 14.6131 116.714 14.6115 116.763 14.6082C116.813 14.6017 116.865 14.5935 116.921 14.5838V15.2343C116.783 15.2734 116.678 15.2979 116.605 15.3077C116.533 15.3175 116.434 15.3224 116.309 15.3224C116.004 15.3224 115.782 15.2147 115.644 14.9995C115.571 14.8854 115.52 14.724 115.491 14.5153C115.31 14.7501 115.05 14.9539 114.711 15.1267C114.372 15.2995 113.999 15.3859 113.591 15.3859C113.101 15.3859 112.7 15.2392 112.388 14.9457C112.079 14.649 111.924 14.2789 111.924 13.8354C111.924 13.3495 112.077 12.9729 112.383 12.7055C112.689 12.4381 113.09 12.2734 113.586 12.2115L115.002 12.0354ZM112.851 13.8158C112.851 14.0702 112.945 14.2707 113.133 14.4175C113.32 14.5642 113.542 14.6376 113.799 14.6376C114.111 14.6376 114.414 14.5658 114.706 14.4223C115.2 14.1843 115.446 13.7946 115.446 13.2533V12.5441C115.338 12.6126 115.198 12.6696 115.027 12.7153C114.856 12.7609 114.688 12.7935 114.524 12.8131L113.986 12.8816C113.664 12.924 113.422 12.9908 113.261 13.0821C112.988 13.2354 112.851 13.48 112.851 13.8158Z" fill="black"/>
<path d="M118.646 11.6783C118.603 11.8609 118.581 12.1234 118.581 12.4658V15.2098H117.694V9.97118H118.537V10.7147C118.787 10.4081 119.052 10.188 119.331 10.0543C119.611 9.92063 119.922 9.85379 120.264 9.85379C121.013 9.85379 121.52 10.113 121.783 10.6315C121.928 10.9152 122 11.3212 122 11.8494V15.2098H121.097V11.9081C121.097 11.5886 121.05 11.331 120.954 11.1353C120.796 10.8092 120.51 10.6462 120.096 10.6462C119.885 10.6462 119.713 10.6674 119.578 10.7098C119.335 10.7815 119.121 10.925 118.937 11.1402C118.789 11.313 118.692 11.4924 118.646 11.6783Z" fill="black"/>
<path fill-rule="evenodd" clip-rule="evenodd" d="M93.1306 32.1501L97.7616 19.2823H100.826L105.421 32.1501H102.481L101.644 29.505H96.8636L95.9656 32.1501H93.1306ZM99.2672 22.2243L97.5944 27.2876H100.887L99.2672 22.2243Z" fill="black"/>
<path fill-rule="evenodd" clip-rule="evenodd" d="M80.3316 23.7782C79.6214 22.8761 78.6353 22.4251 77.3734 22.4251C76.6749 22.4251 76.0997 22.5706 75.6477 22.8616C75.2662 23.0944 74.917 23.4319 74.6 23.8742V19.2998H72.0997V32.1501H74.556V30.9541C74.8906 31.4197 75.2017 31.7457 75.4893 31.9319C75.9706 32.2462 76.6074 32.4033 77.3998 32.4033C78.6617 32.4033 79.6448 31.9173 80.3492 30.9454C81.0535 29.9735 81.4057 28.7484 81.4057 27.2702C81.4057 25.8443 81.0476 24.6803 80.3316 23.7782ZM78.2362 29.5748C77.8781 30.0928 77.3763 30.3518 76.7307 30.3518C75.9852 30.3518 75.4306 30.0841 75.0667 29.5486C74.7028 29.0132 74.5208 28.3381 74.5208 27.5233C74.5208 26.8308 74.6088 26.2662 74.7849 25.8297C75.1254 25.0091 75.7505 24.5988 76.6602 24.5988C77.5583 24.5988 78.1745 25.0179 78.5091 25.8559C78.6852 26.2982 78.7732 26.8569 78.7732 27.532C78.7732 28.3759 78.5942 29.0569 78.2362 29.5748Z" fill="black"/>
<path d="M66.273 30.2558C66.1732 30.1568 66.1233 29.9124 66.1233 29.5225V24.4941H67.6817V22.7219H66.1233V20.068H63.6405V22.7219H62.3023V24.4941H63.6405V30.3518C63.6405 30.9454 63.7814 31.3848 64.0631 31.67C64.4975 32.1181 65.3075 32.3218 66.4931 32.2811L67.6817 32.2374V30.378C67.5995 30.3838 67.5144 30.3896 67.4263 30.3954H67.1886C66.678 30.3954 66.3728 30.3489 66.273 30.2558Z" fill="black"/>
<path fill-rule="evenodd" clip-rule="evenodd" d="M60.9898 30.9978C61.7998 30.0026 62.2047 28.8066 62.2047 27.4098C62.2047 26.0363 61.7998 24.8462 60.9898 23.8393C60.1798 22.8325 58.9501 22.3291 57.3008 22.3291C55.6515 22.3291 54.4218 22.8325 53.6119 23.8393C52.8019 24.8462 52.3969 26.0363 52.3969 27.4098C52.3969 28.8066 52.8019 30.0026 53.6119 30.9978C54.4218 31.9872 55.6515 32.4819 57.3008 32.4819C58.9501 32.4819 60.1798 31.9872 60.9898 30.9978ZM58.9824 29.6185C58.5892 30.1365 58.0257 30.3954 57.292 30.3954C56.5583 30.3954 55.9919 30.1365 55.5928 29.6185C55.1995 29.1005 55.0029 28.3643 55.0029 27.4098C55.0029 26.4554 55.1995 25.7221 55.5928 25.2099C55.9919 24.6919 56.5583 24.433 57.292 24.433C58.0257 24.433 58.5892 24.6919 58.9824 25.2099C59.3757 25.7221 59.5723 26.4554 59.5723 27.4098C59.5723 28.3643 59.3757 29.1005 58.9824 29.6185Z" fill="black"/>
<path d="M48.0029 22.4076C48.9948 22.4076 49.8048 22.6666 50.4328 23.1846C51.0667 23.6967 51.3837 24.5494 51.3837 25.7424V32.1501H48.8129V26.3622C48.8129 25.8617 48.7454 25.4776 48.6104 25.2099C48.3638 24.721 47.8943 24.4766 47.2017 24.4766C46.3506 24.4766 45.7666 24.8345 45.4497 25.5504C45.2853 25.9287 45.2031 26.4117 45.2031 26.9995V32.1501H42.7027V22.6521H45.1239V24.0401C45.4467 23.5512 45.7519 23.1991 46.0395 22.9838C46.556 22.5997 47.2105 22.4076 48.0029 22.4076Z" fill="black"/>
<path d="M82.8767 33.9747L83.1936 33.9921C83.4402 34.0038 83.6749 33.995 83.898 33.9659C84.121 33.9368 84.3088 33.8699 84.4615 33.7652C84.6082 33.6662 84.7432 33.4596 84.8664 33.1453C84.9956 32.8311 85.0484 32.639 85.0249 32.5692L81.5032 22.6346H84.2942L86.3896 29.6534L88.3705 22.6346H91.0382L87.7454 31.993C87.1115 33.7972 86.6097 34.9146 86.2399 35.3453C85.8701 35.7818 85.1306 36 84.0212 36C83.7982 36 83.6192 35.9971 83.4842 35.9913C83.3492 35.9913 83.1467 35.9825 82.8767 35.9651V33.9747Z" fill="black"/>
<path d="M105.154 11.0326C104.881 11.2902 104.744 11.7565 104.744 12.4315V15.2098H103.856V9.97118H104.734V10.7147C104.945 10.457 105.135 10.2695 105.306 10.1522C105.599 9.95324 105.931 9.85379 106.303 9.85379C106.724 9.85379 107.063 9.9565 107.319 10.1619C107.464 10.2793 107.595 10.4522 107.714 10.6804C107.911 10.4 108.143 10.1929 108.409 10.0592C108.676 9.92226 108.975 9.85379 109.307 9.85379C110.017 9.85379 110.501 10.1081 110.757 10.6168C110.896 10.8907 110.965 11.2592 110.965 11.7223V15.2098H110.042V11.5706C110.042 11.2217 109.953 10.9821 109.776 10.8516C109.601 10.7212 109.388 10.656 109.134 10.656C108.786 10.656 108.485 10.7717 108.232 11.0032C107.982 11.2348 107.857 11.6212 107.857 12.1625V15.2098H106.954V11.7908C106.954 11.4353 106.911 11.1761 106.826 11.013C106.691 10.7685 106.439 10.6462 106.071 10.6462C105.736 10.6462 105.43 10.775 105.154 11.0326Z" fill="black"/>
<path d="M98.5356 14.6032C98.3876 14.3358 98.3136 13.9788 98.3136 13.532V9.97114H99.2213V13.4489C99.2213 13.7163 99.2641 13.9347 99.3496 14.1043C99.5074 14.4174 99.8018 14.5739 100.233 14.5739C100.851 14.5739 101.272 14.3 101.495 13.7521C101.617 13.4587 101.678 13.0559 101.678 12.544V9.97114H102.566V15.2097H101.727L101.737 14.4369C101.622 14.6358 101.479 14.8038 101.308 14.9407C100.969 15.2146 100.558 15.3516 100.075 15.3516C99.3216 15.3516 98.8086 15.1021 98.5356 14.6032Z" fill="black"/>
<path d="M55.4894 9.99574H56.3921V15.2099H55.4894V9.99574Z" fill="black"/>
<path d="M56.3921 8.02454H55.4894V9.02237H56.3921V8.02454Z" fill="black"/>
<path d="M107.733 29.9643V21.4711H106.134V19.2823H111.84V21.4711H110.427V29.9643H111.84V32.1531H106.134V29.9643H107.733Z" fill="black"/>
</svg>
