<svg width="131" height="42" viewBox="0 0 131 42" fill="none" xmlns="http://www.w3.org/2000/svg">
<path d="M116 0.5C124.008 0.5 130.5 6.99187 130.5 15V41.5H15C6.99187 41.5 0.5 35.0081 0.5 27V0.5H116Z" fill="white" stroke="black"/>
<path d="M27.8497 24.1575C24.3836 26.9643 19.4266 26.9643 15.9605 24.1575L17.3007 22.5026C19.9854 24.6766 23.8248 24.6766 26.5095 22.5026L27.8497 24.1575Z" fill="black"/>
<path d="M17.404 17.6365V20.5134H19.5336V17.6365H17.404Z" fill="black"/>
<path d="M24.012 17.6365V20.5134H26.1415V17.6365H24.012Z" fill="black"/>
<path fill-rule="evenodd" clip-rule="evenodd" d="M21.5 33C27.8513 33 33 27.8513 33 21.5C33 15.1487 27.8513 10 21.5 10C15.1487 10 10 15.1487 10 21.5C10 27.8513 15.1487 33 21.5 33ZM21.5 30.8705C26.6752 30.8705 30.8705 26.6752 30.8705 21.5C30.8705 16.3248 26.6752 12.1295 21.5 12.1295C16.3248 12.1295 12.1295 16.3248 12.1295 21.5C12.1295 26.6752 16.3248 30.8705 21.5 30.8705Z" fill="black"/>
<path fill-rule="evenodd" clip-rule="evenodd" d="M89.1305 32.15L93.7615 19.2822H96.8254L101.421 32.15H98.4806L97.6442 29.5049H92.8635L91.9655 32.15H89.1305ZM95.2671 22.2242L93.5943 27.2875H96.887L95.2671 22.2242Z" fill="black"/>
<path fill-rule="evenodd" clip-rule="evenodd" d="M76.3315 23.7781C75.6213 22.876 74.6352 22.425 73.3733 22.425C72.6748 22.425 72.0996 22.5705 71.6476 22.8615C71.2661 23.0943 70.9169 23.4318 70.5999 23.8741V19.2997H68.0995V32.15H70.5559V30.954C70.8905 31.4196 71.2016 31.7455 71.4892 31.9318C71.9705 32.2461 72.6073 32.4032 73.3997 32.4032C74.6616 32.4032 75.6447 31.9172 76.3491 30.9453C77.0534 29.9734 77.4056 28.7483 77.4056 27.27C77.4056 25.8442 77.0475 24.6802 76.3315 23.7781ZM74.2361 29.5747C73.878 30.0927 73.3762 30.3517 72.7306 30.3517C71.9851 30.3517 71.4305 30.084 71.0666 29.5485C70.7027 29.0131 70.5207 28.338 70.5207 27.5232C70.5207 26.8306 70.6087 26.2661 70.7848 25.8296C71.1253 25.009 71.7504 24.5987 72.6601 24.5987C73.5581 24.5987 74.1744 25.0177 74.509 25.8558C74.6851 26.2981 74.7731 26.8568 74.7731 27.5319C74.7731 28.3758 74.5941 29.0567 74.2361 29.5747Z" fill="black"/>
<path d="M62.2729 30.2556C62.1731 30.1567 62.1232 29.9123 62.1232 29.5223V24.4939H63.6816V22.7218H62.1232V20.0679H59.6404V22.7218H58.3022V24.4939H59.6404V30.3517C59.6404 30.9453 59.7813 31.3847 60.063 31.6699C60.4974 32.118 61.3074 32.3217 62.493 32.281L63.6816 32.2373V30.3779C63.5994 30.3837 63.5143 30.3895 63.4262 30.3953H63.1885C62.6779 30.3953 62.3727 30.3488 62.2729 30.2556Z" fill="black"/>
<path fill-rule="evenodd" clip-rule="evenodd" d="M56.9897 30.9977C57.7996 30.0025 58.2046 28.8065 58.2046 27.4097C58.2046 26.0362 57.7996 24.8461 56.9897 23.8392C56.1797 22.8324 54.95 22.3289 53.3007 22.3289C51.6514 22.3289 50.4217 22.8324 49.6117 23.8392C48.8018 24.8461 48.3968 26.0362 48.3968 27.4097C48.3968 28.8065 48.8018 30.0025 49.6117 30.9977C50.4217 31.9871 51.6514 32.4818 53.3007 32.4818C54.95 32.4818 56.1797 31.9871 56.9897 30.9977ZM54.9823 29.6184C54.589 30.1363 54.0256 30.3953 53.2919 30.3953C52.5582 30.3953 51.9918 30.1363 51.5927 29.6184C51.1994 29.1004 51.0028 28.3642 51.0028 27.4097C51.0028 26.4553 51.1994 25.7219 51.5927 25.2098C51.9918 24.6918 52.5582 24.4328 53.2919 24.4328C54.0256 24.4328 54.589 24.6918 54.9823 25.2098C55.3756 25.7219 55.5722 26.4553 55.5722 27.4097C55.5722 28.3642 55.3756 29.1004 54.9823 29.6184Z" fill="black"/>
<path d="M44.0028 22.4075C44.9947 22.4075 45.8047 22.6665 46.4327 23.1845C47.0666 23.6966 47.3836 24.5492 47.3836 25.7423V32.15H44.8127V26.3621C44.8127 25.8616 44.7453 25.4775 44.6103 25.2098C44.3637 24.7209 43.8942 24.4765 43.2016 24.4765C42.3505 24.4765 41.7665 24.8344 41.4495 25.5503C41.2852 25.9286 41.203 26.4116 41.203 26.9994V32.15H38.7026V22.6519H41.1238V24.04C41.4466 23.5511 41.7518 23.199 42.0394 22.9837C42.5559 22.5996 43.2104 22.4075 44.0028 22.4075Z" fill="black"/>
<path d="M78.8766 33.9746L79.1935 33.992C79.4401 34.0037 79.6748 33.9949 79.8979 33.9658C80.1209 33.9367 80.3087 33.8698 80.4613 33.765C80.6081 33.6661 80.7431 33.4595 80.8663 33.1452C80.9955 32.831 81.0483 32.6389 81.0248 32.5691L77.5031 22.6345H80.2941L82.3895 29.6533L84.3704 22.6345H87.0381L83.7453 31.9929C83.1114 33.7971 82.6096 34.9145 82.2398 35.3451C81.87 35.7816 81.1305 35.9999 80.0211 35.9999C79.7981 35.9999 79.6191 35.997 79.4841 35.9912C79.3491 35.9912 79.1466 35.9824 78.8766 35.965V33.9746Z" fill="black"/>
<path d="M103.733 29.9642V21.471H102.134V19.2822H107.839V21.471H106.427V29.9642H107.839V32.153H102.134V29.9642H103.733Z" fill="black"/>
<path d="M80.6357 13.8379L82.0566 9.55176H83.0342C82.9096 9.88935 82.6332 10.6593 82.2041 11.8613C81.883 12.7656 81.6137 13.5031 81.3975 14.0732C80.8863 15.4167 80.5261 16.2363 80.3164 16.5312C80.1067 16.826 79.7463 16.9736 79.2354 16.9736C79.111 16.9736 79.0141 16.9688 78.9453 16.959C78.8798 16.9492 78.7975 16.9305 78.6992 16.9043V16.0986C78.8529 16.1411 78.9644 16.1669 79.0332 16.1768C79.102 16.1866 79.1634 16.1914 79.2158 16.1914C79.3794 16.1914 79.4989 16.164 79.5742 16.1084C79.6527 16.0561 79.7181 15.9906 79.7705 15.9121C79.7869 15.8859 79.8467 15.7513 79.9482 15.5088C80.0498 15.2663 80.1231 15.0857 80.1689 14.9678L78.2227 9.55176H79.2256L80.6357 13.8379Z" fill="black"/>
<path fill-rule="evenodd" clip-rule="evenodd" d="M54.9873 9.42383C55.5836 9.42386 56.0897 9.6536 56.5059 10.1123C56.9219 10.5678 57.1299 11.2198 57.1299 12.0684C57.1298 13.2151 56.8301 14.0339 56.2305 14.5254C55.8504 14.8367 55.4079 14.9922 54.9033 14.9922C54.5072 14.9921 54.1748 14.9059 53.9062 14.7324C53.749 14.6341 53.5732 14.4648 53.3799 14.2256V16.9141H52.4951V9.57617H53.3555V10.2744C53.5324 10.0352 53.7258 9.84982 53.9355 9.71875C54.2337 9.5222 54.5843 9.42383 54.9873 9.42383ZM54.7861 10.2002C54.1735 10.2002 53.7535 10.5066 53.5273 11.1191C53.4061 11.4468 53.3457 11.8635 53.3457 12.3682C53.3457 12.7744 53.4061 13.1203 53.5273 13.4053C53.7567 13.9491 54.1767 14.2207 54.7861 14.2207C55.1986 14.2206 55.5407 14.0488 55.8125 13.7051C56.0877 13.3577 56.2256 12.8395 56.2256 12.1514C56.2256 11.7321 56.1652 11.3717 56.0439 11.0703C55.8146 10.4905 55.3953 10.2003 54.7861 10.2002Z" fill="black"/>
<path d="M39.9209 9.41406C40.7139 9.41406 41.2861 9.64701 41.6367 10.1123C41.8561 10.4071 41.9626 10.7248 41.9561 11.0654H41.1201C41.1037 10.8656 41.0337 10.6834 40.9092 10.5195C40.706 10.287 40.3537 10.1709 39.8525 10.1709C39.5185 10.1709 39.2645 10.2346 39.0908 10.3623C38.9204 10.4901 38.835 10.6594 38.835 10.8691C38.8351 11.0982 38.9481 11.2814 39.1738 11.4189C39.3049 11.5008 39.4984 11.5735 39.7539 11.6357L40.3389 11.7783C40.9746 11.9323 41.4009 12.0814 41.6172 12.2256C41.9611 12.4517 42.1328 12.8072 42.1328 13.292C42.1328 13.7604 41.9546 14.1651 41.5977 14.5059C41.2438 14.8466 40.7029 15.0175 39.9756 15.0176C39.1926 15.0176 38.6373 14.8401 38.3096 14.4863C37.9852 14.1292 37.811 13.6883 37.7881 13.1641H38.6387C38.6649 13.459 38.7381 13.6855 38.8594 13.8428C39.0822 14.1278 39.4691 14.2705 40.0195 14.2705C40.3472 14.2705 40.6357 14.1995 40.8848 14.0586C41.1336 13.9145 41.2577 13.6935 41.2578 13.3955C41.2578 13.1694 41.1579 12.9969 40.958 12.8789C40.8301 12.8069 40.5777 12.7239 40.2012 12.6289L39.499 12.4512C39.0503 12.3398 38.7189 12.2157 38.5059 12.0781C38.1258 11.8389 37.9355 11.5077 37.9355 11.085C37.9356 10.587 38.1145 10.184 38.4717 9.87598C38.832 9.56815 39.315 9.41412 39.9209 9.41406Z" fill="black"/>
<path d="M117.096 9.41406C117.889 9.41408 118.46 9.64703 118.811 10.1123C119.03 10.4072 119.137 10.7247 119.131 11.0654H118.295C118.279 10.8655 118.208 10.6834 118.084 10.5195C117.881 10.2869 117.528 10.1709 117.026 10.1709C116.692 10.171 116.438 10.2346 116.265 10.3623C116.094 10.4901 116.01 10.6595 116.01 10.8691C116.01 11.0983 116.123 11.2814 116.349 11.4189C116.48 11.5009 116.673 11.5735 116.929 11.6357L117.514 11.7783C118.149 11.9323 118.575 12.0815 118.791 12.2256C119.135 12.4517 119.308 12.807 119.308 13.292C119.308 13.7606 119.129 14.1651 118.771 14.5059C118.418 14.8466 117.877 15.0176 117.149 15.0176C116.366 15.0175 115.811 14.8402 115.483 14.4863C115.159 14.1292 114.986 13.6883 114.963 13.1641H115.812C115.839 13.459 115.913 13.6855 116.034 13.8428C116.257 14.1276 116.644 14.2705 117.194 14.2705C117.522 14.2704 117.81 14.1993 118.059 14.0586C118.308 13.9145 118.433 13.6935 118.433 13.3955C118.433 13.1694 118.333 12.9969 118.133 12.8789C118.005 12.8068 117.753 12.7239 117.376 12.6289L116.673 12.4512C116.224 12.3398 115.893 12.2157 115.68 12.0781C115.3 11.8389 115.11 11.5076 115.11 11.085C115.11 10.587 115.288 10.184 115.646 9.87598C116.006 9.56796 116.49 9.41406 117.096 9.41406Z" fill="black"/>
<path fill-rule="evenodd" clip-rule="evenodd" d="M62.5566 9.43359C62.9302 9.43359 63.2929 9.52228 63.6436 9.69922C63.9939 9.87281 64.2609 10.0986 64.4443 10.377C64.6213 10.6424 64.7389 10.9528 64.7979 11.3066C64.8502 11.5491 64.8769 11.9354 64.877 12.4658H61.0186C61.0349 12.9999 61.1615 13.4295 61.3975 13.7539C61.6334 14.0749 61.9985 14.2354 62.4932 14.2354C62.9551 14.2353 63.3234 14.083 63.5986 13.7783C63.7559 13.6014 63.8681 13.3967 63.9336 13.1641H64.8027C64.7798 13.3573 64.7032 13.5735 64.5723 13.8125C64.4445 14.0483 64.3001 14.2419 64.1396 14.3926C63.871 14.6547 63.5381 14.8321 63.1416 14.9238C62.9287 14.9762 62.6875 15.002 62.4189 15.002C61.7638 15.0018 61.2083 14.765 60.7529 14.29C60.2975 13.8116 60.0703 13.1427 60.0703 12.2842C60.0703 11.4389 60.2991 10.7521 60.7578 10.2246C61.2165 9.69718 61.8163 9.43368 62.5566 9.43359ZM62.5029 10.2051C62.0966 10.2051 61.7557 10.3526 61.4805 10.6475C61.2052 10.9391 61.0594 11.3115 61.043 11.7637H63.9678C63.9317 11.3805 63.8478 11.0741 63.7168 10.8447C63.4743 10.4188 63.0698 10.2051 62.5029 10.2051Z" fill="black"/>
<path fill-rule="evenodd" clip-rule="evenodd" d="M69.957 14.8154H69.1611V14.083C68.9548 14.4073 68.7104 14.6419 68.4287 14.7861C68.1469 14.9303 67.8237 15.002 67.46 15.002C66.8736 15.0019 66.3657 14.7569 65.9365 14.2656C65.5073 13.7708 65.293 13.1131 65.293 12.2939C65.293 11.5274 65.4872 10.8639 65.877 10.3037C66.2702 9.74011 66.8312 9.45801 67.5586 9.45801C67.9615 9.45804 68.2994 9.54351 68.5713 9.71387C68.7284 9.81216 68.9068 9.98407 69.1064 10.2295V7.57031H69.957V14.8154ZM67.7256 10.2295C67.28 10.2295 66.9182 10.4005 66.6396 10.7412C66.3644 11.082 66.2266 11.5832 66.2266 12.2451C66.2266 12.8085 66.3459 13.2801 66.585 13.6602C66.8242 14.0403 67.2078 14.2305 67.7354 14.2305C68.1449 14.2305 68.481 14.0557 68.7432 13.7051C69.0085 13.3513 69.1406 12.8449 69.1406 12.1865C69.1406 11.5216 69.0052 11.0298 68.7334 10.7119C68.4614 10.3908 68.1253 10.2295 67.7256 10.2295Z" fill="black"/>
<path fill-rule="evenodd" clip-rule="evenodd" d="M106.749 9.42383C107.368 9.42386 107.871 9.54148 108.258 9.77734C108.641 10.0133 108.833 10.3808 108.833 10.8789V13.9111C108.833 14.0029 108.851 14.0771 108.887 14.1328C108.926 14.1884 109.007 14.2158 109.128 14.2158C109.167 14.2158 109.212 14.2142 109.261 14.2109C109.31 14.2044 109.362 14.1963 109.418 14.1865V14.8398C109.281 14.8791 109.176 14.9042 109.104 14.9141C109.032 14.9239 108.933 14.9287 108.809 14.9287C108.504 14.9287 108.282 14.8207 108.145 14.6045C108.072 14.4899 108.022 14.3277 107.992 14.1182C107.812 14.3539 107.553 14.5588 107.216 14.7324C106.878 14.9061 106.506 14.9922 106.1 14.9922C105.612 14.9921 105.212 14.8446 104.9 14.5498C104.593 14.2517 104.438 13.88 104.438 13.4346C104.438 12.9463 104.591 12.5675 104.896 12.2988C105.2 12.0302 105.6 11.865 106.095 11.8027L107.506 11.626C107.709 11.5997 107.845 11.5143 107.914 11.3701C107.953 11.2915 107.973 11.1785 107.973 11.0312C107.973 10.7298 107.865 10.5113 107.648 10.377C107.436 10.2394 107.129 10.1709 106.729 10.1709C106.268 10.1709 105.939 10.2951 105.746 10.5439C105.638 10.6816 105.568 10.8872 105.535 11.1592H104.709C104.725 10.5106 104.935 10.06 105.338 9.80762C105.744 9.55203 106.215 9.42383 106.749 9.42383ZM107.948 12.1367C107.84 12.2055 107.701 12.2627 107.53 12.3086C107.36 12.3544 107.193 12.3876 107.029 12.4072L106.493 12.4756C106.172 12.5182 105.931 12.586 105.771 12.6777C105.499 12.8317 105.362 13.0776 105.362 13.415C105.362 13.6705 105.456 13.8721 105.643 14.0195C105.829 14.167 106.051 14.2402 106.307 14.2402C106.618 14.2402 106.919 14.1686 107.211 14.0244C107.702 13.7852 107.948 13.3935 107.948 12.8496V12.1367Z" fill="black"/>
<path fill-rule="evenodd" clip-rule="evenodd" d="M74.2578 7.57031V10.1904C74.4511 9.93812 74.6825 9.7463 74.9512 9.61523C75.2199 9.48089 75.5116 9.41406 75.8262 9.41406C76.4815 9.41406 77.0126 9.63968 77.4189 10.0918C77.8285 10.5407 78.0332 11.2048 78.0332 12.083C78.0332 12.9152 77.8317 13.6068 77.4287 14.1572C77.0257 14.7077 76.4663 14.9824 75.752 14.9824C75.3524 14.9823 75.0154 14.8856 74.7402 14.6924C74.5764 14.5777 74.4006 14.3948 74.2139 14.1426V14.8154H73.3984V7.57031H74.2578ZM75.7227 10.2051C75.3198 10.2052 74.9658 10.3543 74.6611 10.6523C74.3597 10.9505 74.209 11.4422 74.209 12.127C74.209 12.6216 74.2711 13.0231 74.3955 13.3311C74.6281 13.911 75.0626 14.2011 75.6982 14.2012C76.1766 14.2012 76.5336 14.011 76.7695 13.6309C77.0087 13.2508 77.1289 12.7495 77.1289 12.127C77.1289 11.5732 77.0087 11.1147 76.7695 10.751C76.5336 10.3873 76.1846 10.2051 75.7227 10.2051Z" fill="black"/>
<path d="M44.873 9.39941C45.4661 9.39941 45.9481 9.54368 46.3184 9.83203C46.6919 10.1204 46.9168 10.6168 46.9922 11.3213H46.1318C46.0794 10.9969 45.9592 10.7276 45.7725 10.5146C45.5857 10.2987 45.2857 10.1904 44.873 10.1904C44.3097 10.1906 43.9065 10.4663 43.6641 11.0166C43.5069 11.3737 43.4287 11.8148 43.4287 12.3389C43.4288 12.8662 43.5399 13.3106 43.7627 13.6709C43.9855 14.0311 44.3362 14.2109 44.8145 14.2109C45.1814 14.2109 45.4716 14.0998 45.6846 13.877C45.9008 13.6509 46.0499 13.3429 46.1318 12.9531H46.9922C46.8939 13.6508 46.648 14.162 46.2549 14.4863C45.8618 14.8074 45.3587 14.9677 44.7461 14.9678C44.058 14.9678 43.5092 14.7171 43.0996 14.2158C42.69 13.7112 42.4844 13.0818 42.4844 12.3281C42.4845 11.4043 42.7094 10.6853 43.1582 10.1709C43.607 9.65658 44.1786 9.39952 44.873 9.39941Z" fill="black"/>
<path d="M92.1846 13.0459C92.1846 13.3146 92.2273 13.5347 92.3125 13.7051C92.4698 14.0195 92.7632 14.1768 93.1924 14.1768C93.8084 14.1768 94.2274 13.9011 94.4502 13.3506C94.5714 13.0557 94.6328 12.6511 94.6328 12.1367V9.55176H95.5176V14.8154H94.6816L94.6914 14.0391C94.5767 14.2389 94.434 14.4073 94.2637 14.5449C93.9262 14.8202 93.5168 14.958 93.0352 14.958C92.2848 14.958 91.7739 14.7073 91.502 14.2061C91.3545 13.9374 91.2803 13.5787 91.2803 13.1299V9.55176H92.1846V13.0459Z" fill="black"/>
<path d="M58.9365 9.55176H59.7773V10.2744H58.9365V13.71C58.9366 13.8931 58.9989 14.0158 59.123 14.0781C59.1919 14.1142 59.3072 14.1328 59.4678 14.1328H59.6055C59.6546 14.1295 59.7119 14.1247 59.7773 14.1182V14.8154C59.6758 14.8449 59.5693 14.8668 59.458 14.8799C59.3499 14.893 59.2313 14.8994 59.1035 14.8994C58.6911 14.8994 58.4112 14.7944 58.2637 14.585C58.1162 14.372 58.042 14.0963 58.042 13.7588V10.2744H57.3291V9.55176H58.042V8.08203H58.9365V9.55176Z" fill="black"/>
<path d="M49.958 9.43848C49.9973 9.44175 50.0651 9.44818 50.1602 9.45801V10.3916C50.1078 10.3818 50.0585 10.3754 50.0127 10.3721C49.9701 10.3688 49.9225 10.3672 49.8701 10.3672C49.4246 10.3672 49.082 10.5116 48.8428 10.7998C48.6036 11.0849 48.4844 11.4145 48.4844 11.7881V14.8154H47.5996V9.55176H48.4395V10.4609C48.5083 10.284 48.6776 10.0697 48.9463 9.81738C49.215 9.5618 49.5244 9.43359 49.875 9.43359C49.8913 9.4336 49.919 9.43523 49.958 9.43848Z" fill="black"/>
<path d="M51.5244 14.8154H50.625V9.57617H51.5244V14.8154Z" fill="black"/>
<path d="M86.8838 7.57031V10.2646C87.0935 9.99923 87.2821 9.81223 87.4492 9.7041C87.7343 9.51743 88.0898 9.42383 88.5156 9.42383C89.2788 9.42389 89.7964 9.69079 90.0684 10.2246C90.2158 10.5162 90.29 10.9217 90.29 11.4395V14.8154H89.3809V11.498C89.3809 11.1114 89.3317 10.8277 89.2334 10.6475C89.0728 10.3591 88.7705 10.2148 88.3281 10.2148C87.9613 10.2149 87.6291 10.3416 87.3311 10.5938C87.0329 10.846 86.8839 11.3225 86.8838 12.0234V14.8154H85.999V7.57031H86.8838Z" fill="black"/>
<path d="M102.032 9.43359C102.74 9.43359 103.222 9.68911 103.478 10.2002C103.615 10.4754 103.684 10.8462 103.684 11.3115V14.8154H102.765V11.1592C102.765 10.8086 102.676 10.5676 102.499 10.4365C102.325 10.3055 102.113 10.2393 101.86 10.2393C101.513 10.2393 101.213 10.3562 100.961 10.5889C100.712 10.8215 100.588 11.2101 100.588 11.7539V14.8154H99.6875V11.3799C99.6875 11.023 99.6456 10.7625 99.5605 10.5986C99.4263 10.353 99.1753 10.2296 98.8086 10.2295C98.4744 10.2295 98.1688 10.3593 97.8936 10.6182C97.6218 10.877 97.4864 11.3456 97.4863 12.0234V14.8154H96.6016V9.55176H97.4766V10.2988C97.6861 10.0402 97.8756 9.85136 98.0459 9.7334C98.3375 9.53354 98.6688 9.43361 99.0391 9.43359C99.4585 9.43359 99.7962 9.53673 100.052 9.74316C100.196 9.86113 100.327 10.0353 100.445 10.2646C100.642 9.98285 100.872 9.77399 101.138 9.63965C101.403 9.50206 101.701 9.43362 102.032 9.43359Z" fill="black"/>
<path d="M112.547 9.43359C113.294 9.4337 113.798 9.69402 114.061 10.2148C114.205 10.4999 114.276 10.9086 114.276 11.4395V14.8154H113.377V11.498C113.377 11.177 113.329 10.9183 113.234 10.7217C113.077 10.394 112.792 10.2295 112.379 10.2295C112.169 10.2295 111.998 10.2514 111.863 10.2939C111.621 10.366 111.408 10.5103 111.225 10.7266C111.077 10.9001 110.98 11.08 110.935 11.2666C110.892 11.4501 110.87 11.7145 110.87 12.0586V14.8154H109.985V9.55176H110.826V10.2988C111.075 9.99084 111.339 9.76911 111.617 9.63477C111.896 9.50042 112.206 9.43359 112.547 9.43359Z" fill="black"/>
<path d="M51.5244 8.59766H50.625V7.5957H51.5244V8.59766Z" fill="black"/>
</svg>
