<svg width="131" height="42" viewBox="0 0 131 42" fill="none" xmlns="http://www.w3.org/2000/svg">
<path d="M0.5 0.5H116C124.008 0.5 130.5 6.99187 130.5 15V41.5H15C6.99187 41.5 0.5 35.0081 0.5 27V0.5Z" fill="white" stroke="black"/>
<path d="M29.8497 24.1575C26.3836 26.9643 21.4266 26.9643 17.9605 24.1575L19.3007 22.5026C21.9854 24.6766 25.8248 24.6766 28.5095 22.5026L29.8497 24.1575Z" fill="black"/>
<path d="M19.404 17.6365V20.5134H21.5336V17.6365H19.404Z" fill="black"/>
<path d="M26.012 17.6365V20.5134H28.1415V17.6365H26.012Z" fill="black"/>
<path fill-rule="evenodd" clip-rule="evenodd" d="M23.5 33C29.8513 33 35 27.8513 35 21.5C35 15.1487 29.8513 10 23.5 10C17.1487 10 12 15.1487 12 21.5C12 27.8513 17.1487 33 23.5 33ZM23.5 30.8705C28.6752 30.8705 32.8705 26.6752 32.8705 21.5C32.8705 16.3248 28.6752 12.1295 23.5 12.1295C18.3248 12.1295 14.1295 16.3248 14.1295 21.5C14.1295 26.6752 18.3248 30.8705 23.5 30.8705Z" fill="black"/>
<path d="M94.7711 11.0082C94.4742 11.2593 94.3257 11.7337 94.3257 12.4315V15.2098H93.4449V8H94.3257V10.6804C94.5345 10.4163 94.7221 10.2304 94.8885 10.1228C95.1723 9.93696 95.5263 9.84403 95.9504 9.84403C96.7106 9.84403 97.2261 10.1098 97.4968 10.6413C97.6437 10.9315 97.7171 11.3343 97.7171 11.8495V15.2098H96.8117V11.9082C96.8117 11.5234 96.7628 11.2413 96.6649 11.062C96.5051 10.775 96.2049 10.6315 95.7645 10.6315C95.3991 10.6315 95.068 10.7571 94.7711 11.0082Z" fill="black"/>
<path fill-rule="evenodd" clip-rule="evenodd" d="M115.565 11.781C115.496 11.9245 115.361 12.0093 115.159 12.0354L113.754 12.2115C113.261 12.2734 112.863 12.4381 112.56 12.7055C112.257 12.9729 112.105 13.3495 112.105 13.8354C112.105 14.2789 112.258 14.649 112.565 14.9457C112.875 15.2392 113.273 15.3859 113.759 15.3859C114.164 15.3859 114.534 15.2995 114.87 15.1267C115.206 14.9539 115.464 14.7501 115.643 14.5153C115.672 14.724 115.723 14.8854 115.795 14.9995C115.932 15.2147 116.152 15.3224 116.455 15.3224C116.579 15.3224 116.677 15.3175 116.749 15.3077C116.821 15.2979 116.925 15.2734 117.062 15.2343V14.5838C117.007 14.5935 116.955 14.6017 116.906 14.6082C116.857 14.6115 116.813 14.6131 116.774 14.6131C116.653 14.6131 116.573 14.5854 116.534 14.53C116.498 14.4745 116.48 14.4012 116.48 14.3098V11.2919C116.48 10.7962 116.289 10.431 115.907 10.1962C115.522 9.96146 115.022 9.84407 114.405 9.84407C113.873 9.84407 113.405 9.97124 113 10.2256C112.599 10.4767 112.39 10.9251 112.374 11.5707H113.196C113.229 11.3001 113.299 11.0962 113.407 10.9593C113.599 10.7115 113.925 10.5875 114.385 10.5875C114.783 10.5875 115.088 10.656 115.301 10.793C115.516 10.9267 115.624 11.1435 115.624 11.4435C115.624 11.5903 115.604 11.7028 115.565 11.781ZM113.304 14.4175C113.118 14.2707 113.025 14.0702 113.025 13.8158C113.025 13.48 113.16 13.2354 113.431 13.0821C113.591 12.9908 113.831 12.924 114.151 12.8816L114.684 12.8131C114.847 12.7935 115.013 12.7609 115.183 12.7153C115.353 12.6696 115.491 12.6126 115.599 12.5441V13.2533C115.599 13.7946 115.354 14.1843 114.865 14.4223C114.575 14.5658 114.274 14.6376 113.965 14.6376C113.71 14.6376 113.49 14.5642 113.304 14.4175Z" fill="black"/>
<path d="M119.353 10.0543C119.075 10.188 118.813 10.4081 118.565 10.7147V9.97118H117.728V15.2098H118.609V12.4658C118.609 12.1234 118.63 11.8609 118.672 11.6783C118.718 11.4924 118.814 11.313 118.961 11.1402C119.144 10.925 119.356 10.7815 119.597 10.7098C119.731 10.6674 119.902 10.6462 120.111 10.6462C120.522 10.6462 120.806 10.8092 120.963 11.1353C121.057 11.331 121.104 11.5886 121.104 11.9081V15.2098H122V11.8494C122 11.3212 121.928 10.9152 121.785 10.6315C121.524 10.113 121.021 9.85379 120.277 9.85379C119.938 9.85379 119.63 9.92063 119.353 10.0543Z" fill="black"/>
<path fill-rule="evenodd" clip-rule="evenodd" d="M104.916 32.1501L100.357 19.2823H97.3174L92.7233 32.1501H95.5356L96.4265 29.505H101.169L101.999 32.1501H104.916ZM98.8109 22.2243L100.418 27.2876H97.1515L98.8109 22.2243Z" fill="black"/>
<path fill-rule="evenodd" clip-rule="evenodd" d="M77.0916 22.4251C78.3434 22.4251 79.3216 22.8761 80.0262 23.7782C80.7366 24.6803 81.0918 25.8443 81.0918 27.2702C81.0918 28.7484 80.7424 29.9735 80.0437 30.9454C79.3449 31.9173 78.3696 32.4033 77.1178 32.4033C76.3317 32.4033 75.6999 32.2462 75.2225 31.9319C74.9372 31.7457 74.6285 31.4197 74.2967 30.9541V32.1501H71.8599V19.2998H74.3403V23.8742C74.6548 23.4319 75.0012 23.0944 75.3797 22.8616C75.828 22.5706 76.3987 22.4251 77.0916 22.4251ZM76.454 30.3518C77.0945 30.3518 77.5923 30.0928 77.9475 29.5748C78.3027 29.0569 78.4803 28.3759 78.4803 27.532C78.4803 26.8569 78.3929 26.2982 78.2182 25.8559C77.8863 25.0179 77.275 24.5988 76.3841 24.5988C75.4816 24.5988 74.8615 25.0091 74.5237 25.8297C74.3491 26.2662 74.2617 26.8308 74.2617 27.5233C74.2617 28.3381 74.4422 29.0132 74.8032 29.5486C75.1642 30.0841 75.7145 30.3518 76.454 30.3518Z" fill="black"/>
<path d="M63.8874 31.67C63.6079 31.3848 63.4681 30.9454 63.4681 30.3518V24.4941H62.1406V22.7219H63.4681V20.068H65.9311V22.7219H67.4771V24.4941H65.9311V29.5225C65.9311 29.9124 65.9806 30.1568 66.0796 30.2558C66.1786 30.3489 66.4814 30.3954 66.988 30.3954H67.2238C67.3111 30.3896 67.3955 30.3838 67.4771 30.378V32.2374L66.298 32.2811C65.1218 32.3218 64.3182 32.1181 63.8874 31.67Z" fill="black"/>
<path fill-rule="evenodd" clip-rule="evenodd" d="M62.0438 27.4098C62.0438 28.8066 61.642 30.0026 60.8385 30.9978C60.0349 31.9872 58.8151 32.4819 57.1789 32.4819C55.5427 32.4819 54.3229 31.9872 53.5193 30.9978C52.7158 30.0026 52.314 28.8066 52.314 27.4098C52.314 26.0363 52.7158 24.8462 53.5193 23.8393C54.3229 22.8325 55.5427 22.3291 57.1789 22.3291C58.8151 22.3291 60.0349 22.8325 60.8385 23.8393C61.642 24.8462 62.0438 26.0363 62.0438 27.4098ZM57.1702 30.3954C57.898 30.3954 58.457 30.1365 58.8471 29.6185C59.2372 29.1005 59.4323 28.3643 59.4323 27.4098C59.4323 26.4554 59.2372 25.7221 58.8471 25.2099C58.457 24.6919 57.898 24.433 57.1702 24.433C56.4423 24.433 55.8804 24.6919 55.4845 25.2099C55.0944 25.7221 54.8993 26.4554 54.8993 27.4098C54.8993 28.3643 55.0944 29.1005 55.4845 29.6185C55.8804 30.1365 56.4423 30.3954 57.1702 30.3954Z" fill="black"/>
<path d="M50.3656 23.1846C49.7426 22.6666 48.9391 22.4076 47.955 22.4076C47.169 22.4076 46.5198 22.5997 46.0074 22.9838C45.722 23.1991 45.4193 23.5512 45.099 24.0401V22.6521H42.6971V32.1501H45.1776V26.9995C45.1776 26.4117 45.2591 25.9287 45.4222 25.5504C45.7366 24.8345 46.316 24.4766 47.1602 24.4766C47.8473 24.4766 48.3131 24.721 48.5577 25.2099C48.6916 25.4776 48.7586 25.8617 48.7586 26.3622V32.1501H51.3089V25.7424C51.3089 24.5494 50.9945 23.6967 50.3656 23.1846Z" fill="black"/>
<path d="M82.8655 33.9921L82.551 33.9747V35.9651C82.8189 35.9825 83.0198 35.9913 83.1537 35.9913C83.2876 35.9971 83.4652 36 83.6865 36C84.787 36 85.5206 35.7818 85.8874 35.3453C86.2543 34.9146 86.7521 33.7972 87.381 31.993L90.6475 22.6346H88.0011L86.0359 29.6534L83.9572 22.6346H81.1885L84.6821 32.5692C84.7054 32.639 84.653 32.8311 84.5249 33.1453C84.4027 33.4596 84.2687 33.6662 84.1232 33.7652C83.9718 33.8699 83.7854 33.9368 83.5642 33.9659C83.3429 33.995 83.11 34.0038 82.8655 33.9921Z" fill="black"/>
<path d="M105.64 10.1522C105.471 10.2695 105.281 10.457 105.073 10.7147V9.97118H104.202V15.2098H105.082V12.4315C105.082 11.7565 105.218 11.2902 105.489 11.0326C105.763 10.775 106.066 10.6462 106.399 10.6462C106.764 10.6462 107.014 10.7685 107.148 11.013C107.232 11.1761 107.275 11.4353 107.275 11.7908V15.2098H108.17V12.1625C108.17 11.6212 108.294 11.2348 108.542 11.0032C108.793 10.7717 109.092 10.656 109.438 10.656C109.689 10.656 109.901 10.7212 110.074 10.8516C110.25 10.9821 110.338 11.2217 110.338 11.5706V15.2098H111.253V11.7223C111.253 11.2592 111.185 10.8907 111.048 10.6168C110.793 10.1081 110.314 9.85379 109.609 9.85379C109.28 9.85379 108.983 9.92226 108.718 10.0592C108.454 10.1929 108.224 10.4 108.028 10.6804C107.911 10.4522 107.78 10.2793 107.637 10.1619C107.382 9.9565 107.046 9.85379 106.629 9.85379C106.26 9.85379 105.931 9.95324 105.64 10.1522Z" fill="black"/>
<path d="M99.8314 14.1043C99.7466 13.9347 99.7042 13.7163 99.7042 13.4489V9.97114H98.8038V13.532C98.8038 13.9788 98.8772 14.3358 99.024 14.6032C99.2948 15.1021 99.8037 15.3516 100.551 15.3516C101.03 15.3516 101.438 15.2146 101.774 14.9407C101.944 14.8038 102.086 14.6358 102.2 14.4369L102.19 15.2097H103.022V9.97114H102.141V12.544C102.141 13.0559 102.081 13.4587 101.96 13.7521C101.738 14.3 101.321 14.5739 100.707 14.5739C100.28 14.5739 99.988 14.4174 99.8314 14.1043Z" fill="black"/>
<path d="M87.9049 14.2364L89.3192 9.97114H90.293C90.169 10.307 89.8933 11.0733 89.466 12.2701C89.1462 13.1701 88.8787 13.9038 88.6634 14.4712C88.1545 15.8081 87.7956 16.6233 87.5868 16.9168C87.378 17.2103 87.0191 17.357 86.5102 17.357C86.3862 17.357 86.29 17.3521 86.2215 17.3424C86.1562 17.3326 86.0746 17.3146 85.9768 17.2886V16.4864C86.1301 16.5288 86.241 16.5549 86.3095 16.5646C86.3781 16.5744 86.4384 16.5793 86.4906 16.5793C86.6537 16.5793 86.7728 16.5516 86.8478 16.4962C86.9261 16.444 86.9914 16.3788 87.0436 16.3005C87.0599 16.2744 87.1186 16.1407 87.2198 15.8994C87.3209 15.6581 87.3943 15.4788 87.44 15.3614L85.5021 9.97114H86.5004L87.9049 14.2364Z" fill="black"/>
<path fill-rule="evenodd" clip-rule="evenodd" d="M81.9342 15.0875C81.7711 14.9734 81.5966 14.7908 81.4106 14.5397V15.2098H80.5982V8H81.4546V10.6071C81.6471 10.356 81.8771 10.1652 82.1446 10.0348C82.4122 9.9011 82.7025 9.83425 83.0157 9.83425C83.6682 9.83425 84.1967 10.0592 84.6013 10.5093C85.0091 10.956 85.213 11.6163 85.213 12.4902C85.213 13.3185 85.0123 14.0065 84.6111 14.5544C84.2098 15.1022 83.6535 15.3761 82.9423 15.3761C82.5443 15.3761 82.2083 15.2799 81.9342 15.0875ZM82.8885 14.5984C83.3648 14.5984 83.7204 14.4093 83.9553 14.031C84.1935 13.6527 84.3125 13.1538 84.3125 12.5343C84.3125 11.9832 84.1935 11.5266 83.9553 11.1647C83.7204 10.8027 83.373 10.6218 82.913 10.6218C82.5117 10.6218 82.1593 10.7701 81.8559 11.0669C81.5558 11.3636 81.4057 11.8527 81.4057 12.5343C81.4057 13.0267 81.4677 13.4261 81.5917 13.7326C81.8233 14.3098 82.2556 14.5984 82.8885 14.5984Z" fill="black"/>
<path fill-rule="evenodd" clip-rule="evenodd" d="M74.5833 9.87827C74.9846 9.87827 75.3206 9.96305 75.5914 10.1326C75.748 10.2304 75.9258 10.4016 76.1248 10.6462V8H76.9714V15.2098H76.1786V14.481C75.9731 14.8038 75.73 15.037 75.4495 15.1805C75.1689 15.3239 74.8475 15.3957 74.4854 15.3957C73.9014 15.3957 73.3957 15.1511 72.9684 14.662C72.541 14.1696 72.3273 13.5158 72.3273 12.7006C72.3273 11.9375 72.5214 11.2772 72.9096 10.7196C73.3011 10.1587 73.859 9.87827 74.5833 9.87827ZM73.2571 12.6517C73.2571 13.2125 73.3762 13.6821 73.6143 14.0604C73.8525 14.4386 74.2342 14.6277 74.7595 14.6277C75.1673 14.6277 75.5017 14.4533 75.7627 14.1044C76.0269 13.7522 76.159 13.2484 76.159 12.593C76.159 11.931 76.0237 11.4419 75.7529 11.1256C75.4821 10.806 75.1477 10.6462 74.7497 10.6462C74.306 10.6462 73.9455 10.8158 73.6682 11.1549C73.3941 11.494 73.2571 11.993 73.2571 12.6517Z" fill="black"/>
<path fill-rule="evenodd" clip-rule="evenodd" d="M69.5034 9.85379C69.8754 9.85379 70.2359 9.94183 70.5849 10.1179C70.934 10.2907 71.1999 10.5157 71.3826 10.7929C71.5588 11.0571 71.6762 11.3652 71.735 11.7174C71.7872 11.9587 71.8133 12.3435 71.8133 12.8717H67.9717C67.988 13.4033 68.1136 13.8304 68.3485 14.1533C68.5834 14.4728 68.9472 14.6326 69.4398 14.6326C69.8998 14.6326 70.2669 14.481 70.5409 14.1777C70.6975 14.0016 70.8084 13.7978 70.8737 13.5663H71.7399C71.717 13.7587 71.6404 13.9739 71.5099 14.212C71.3826 14.4467 71.2391 14.6391 71.0792 14.7891C70.8117 15.05 70.4805 15.2261 70.0858 15.3174C69.8737 15.3696 69.6339 15.3957 69.3664 15.3957C68.7139 15.3957 68.1609 15.1592 67.7075 14.6864C67.254 14.2103 67.0272 13.5451 67.0272 12.6908C67.0272 11.8494 67.2556 11.1663 67.7124 10.6413C68.1691 10.1163 68.7661 9.85379 69.5034 9.85379ZM70.9079 12.1723C70.872 11.7908 70.7888 11.4859 70.6583 11.2576C70.4169 10.8337 70.014 10.6217 69.4496 10.6217C69.0451 10.6217 68.7058 10.7685 68.4317 11.0619C68.1577 11.3522 68.0125 11.7223 67.9962 12.1723H70.9079Z" fill="black"/>
<path d="M65.1286 14.98C64.9818 14.768 64.9084 14.4941 64.9084 14.1582V10.6903H64.1988V9.97126H64.9084V8.50876H65.799V9.97126H66.6358V10.6903H65.799V14.1093C65.799 14.2919 65.861 14.4142 65.985 14.4762C66.0535 14.512 66.1677 14.53 66.3275 14.53H66.4646C66.5135 14.5267 66.5706 14.5218 66.6358 14.5153V15.2099C66.5347 15.2392 66.4287 15.2604 66.3178 15.2735C66.2101 15.2865 66.0926 15.293 65.9654 15.293C65.5543 15.293 65.2754 15.1887 65.1286 14.98Z" fill="black"/>
<path fill-rule="evenodd" clip-rule="evenodd" d="M60.6897 15.1267C60.5331 15.0289 60.3586 14.8609 60.1661 14.6229V17.2984H59.2852V9.9957H60.1416V10.6903C60.3178 10.4522 60.5103 10.268 60.7191 10.1375C61.016 9.94189 61.365 9.84407 61.7663 9.84407C62.3601 9.84407 62.8641 10.0723 63.2785 10.5289C63.6928 10.9821 63.9 11.631 63.9 12.4756C63.9 13.6169 63.6015 14.4321 63.0044 14.9213C62.626 15.231 62.1855 15.3859 61.6831 15.3859C61.2884 15.3859 60.9572 15.2995 60.6897 15.1267ZM61.5657 14.618C61.9768 14.618 62.3177 14.4468 62.5885 14.1044C62.8625 13.7588 62.9995 13.2435 62.9995 12.5588C62.9995 12.1414 62.9392 11.7827 62.8185 11.4827C62.5901 10.9055 62.1725 10.6169 61.5657 10.6169C60.9556 10.6169 60.538 10.9218 60.3129 11.5316C60.1922 11.8577 60.1318 12.2718 60.1318 12.774C60.1318 13.1783 60.1922 13.5223 60.3129 13.806C60.5413 14.3473 60.9589 14.618 61.5657 14.618Z" fill="black"/>
<path d="M52.1451 14.6032C51.9983 14.3358 51.9248 13.9788 51.9248 13.532V9.97114H52.8253V13.4489C52.8253 13.7163 52.8677 13.9347 52.9525 14.1043C53.1091 14.4174 53.4011 14.5739 53.8285 14.5739C54.4418 14.5739 54.8594 14.3 55.0813 13.7521C55.202 13.4587 55.2623 13.0559 55.2623 12.544V9.97114H56.1432V15.2097H55.3113L55.3211 14.4369C55.2069 14.6358 55.065 14.8038 54.8953 14.9407C54.5593 15.2146 54.1515 15.3516 53.6719 15.3516C52.9248 15.3516 52.4158 15.1021 52.1451 14.6032Z" fill="black"/>
<path d="M49.1548 9.81953C49.7453 9.81953 50.2249 9.96301 50.5935 10.25C50.9655 10.5369 51.1889 11.0309 51.264 11.732H50.4076C50.3554 11.4092 50.2363 11.1418 50.0503 10.9299C49.8644 10.7146 49.5659 10.607 49.1548 10.607C48.5937 10.607 48.1924 10.8809 47.951 11.4288C47.7944 11.7842 47.7161 12.2228 47.7161 12.7445C47.7161 13.2695 47.827 13.7114 48.0488 14.0701C48.2707 14.4288 48.6198 14.6081 49.0961 14.6081C49.4615 14.6081 49.7502 14.4973 49.9623 14.2755C50.1776 14.0505 50.326 13.744 50.4076 13.356H51.264C51.1661 14.0505 50.9214 14.5592 50.5299 14.8821C50.1384 15.2016 49.6376 15.3614 49.0276 15.3614C48.3424 15.3614 47.796 15.1119 47.3882 14.613C46.9804 14.1109 46.7765 13.4848 46.7765 12.7348C46.7765 11.8152 46.9999 11.0994 47.4469 10.5875C47.8939 10.0755 48.4632 9.81953 49.1548 9.81953Z" fill="black"/>
<path d="M42.8466 13.5664C42.8727 13.8599 42.9461 14.0849 43.0668 14.2414C43.2887 14.5251 43.6736 14.667 44.2217 14.667C44.548 14.667 44.8351 14.5969 45.083 14.4567C45.331 14.3132 45.4549 14.0931 45.4549 13.7963C45.4549 13.5713 45.3554 13.4001 45.1564 13.2827C45.0292 13.211 44.778 13.1278 44.4028 13.0333L43.703 12.8572C43.256 12.7463 42.9265 12.6224 42.7145 12.4854C42.336 12.2474 42.1468 11.9181 42.1468 11.4974C42.1468 11.0017 42.3246 10.6007 42.6802 10.2941C43.0391 9.98761 43.5203 9.83435 44.1239 9.83435C44.9134 9.83435 45.4827 10.0659 45.8318 10.5289C46.0503 10.8224 46.1564 11.1387 46.1498 11.4778H45.3179C45.3016 11.2789 45.2315 11.0979 45.1075 10.9349C44.9052 10.7034 44.5545 10.5876 44.0553 10.5876C43.7226 10.5876 43.4697 10.6512 43.2968 10.7784C43.1272 10.9056 43.0424 11.0735 43.0424 11.2822C43.0424 11.5104 43.1549 11.6931 43.38 11.83C43.5105 11.9115 43.703 11.9833 43.9575 12.0452L44.5398 12.1871C45.1727 12.3403 45.5969 12.4887 45.8122 12.6322C46.1547 12.8572 46.326 13.211 46.326 13.6936C46.326 14.1599 46.1482 14.5626 45.7926 14.9018C45.4403 15.2409 44.902 15.4105 44.1777 15.4105C43.398 15.4105 42.845 15.2344 42.5187 14.8822C42.1957 14.5268 42.0228 14.0882 42 13.5664H42.8466Z" fill="black"/>
<path d="M107.209 21.4711V29.9643H105.624V32.1531H111.283V29.9643H109.882V21.4711H111.283V19.2823H105.624V21.4711H107.209Z" fill="black"/>
<path d="M57.3474 8.02454H58.2283V15.2099H57.3474V8.02454Z" fill="black"/>
</svg>
