<svg width="131" height="42" viewBox="0 0 131 42" fill="none" xmlns="http://www.w3.org/2000/svg">
<path d="M116 0.5C124.008 0.5 130.5 6.99187 130.5 15V41.5H15C6.99187 41.5 0.5 35.0081 0.5 27V0.5H116Z" fill="white" stroke="black"/>
<path d="M28.8497 24.1575C25.3836 26.9643 20.4266 26.9643 16.9605 24.1575L18.3007 22.5026C20.9854 24.6766 24.8248 24.6766 27.5095 22.5026L28.8497 24.1575Z" fill="black"/>
<path d="M18.404 17.6365V20.5134H20.5336V17.6365H18.404Z" fill="black"/>
<path d="M25.012 17.6365V20.5134H27.1415V17.6365H25.012Z" fill="black"/>
<path fill-rule="evenodd" clip-rule="evenodd" d="M22.5 33C28.8513 33 34 27.8513 34 21.5C34 15.1487 28.8513 10 22.5 10C16.1487 10 11 15.1487 11 21.5C11 27.8513 16.1487 33 22.5 33ZM22.5 30.8705C27.6752 30.8705 31.8705 26.6752 31.8705 21.5C31.8705 16.3248 27.6752 12.1295 22.5 12.1295C17.3248 12.1295 13.1295 16.3248 13.1295 21.5C13.1295 26.6752 17.3248 30.8705 22.5 30.8705Z" fill="black"/>
<path fill-rule="evenodd" clip-rule="evenodd" d="M103.916 32.15L99.357 19.2822H96.3175L91.7234 32.15H94.5358L95.4266 29.5049H100.169L100.999 32.15H103.916ZM97.811 22.2242L99.4181 27.2875H96.1516L97.811 22.2242Z" fill="black"/>
<path fill-rule="evenodd" clip-rule="evenodd" d="M76.0917 22.425C77.3436 22.425 78.3218 22.876 79.0263 23.7781C79.7367 24.6802 80.0919 25.8442 80.0919 27.27C80.0919 28.7483 79.7425 29.9734 79.0438 30.9453C78.3451 31.9172 77.3698 32.4032 76.1179 32.4032C75.3318 32.4032 74.7 32.2461 74.2226 31.9318C73.9373 31.7455 73.6287 31.4196 73.2968 30.954V32.15H70.86V19.2997H73.3404V23.8741C73.6549 23.4318 74.0013 23.0943 74.3798 22.8615C74.8281 22.5705 75.3988 22.425 76.0917 22.425ZM75.4541 30.3517C76.0946 30.3517 76.5924 30.0927 76.9476 29.5747C77.3028 29.0567 77.4804 28.3758 77.4804 27.5319C77.4804 26.8568 77.393 26.2981 77.2184 25.8558C76.8865 25.0177 76.2751 24.5987 75.3842 24.5987C74.4817 24.5987 73.8616 25.009 73.5239 25.8296C73.3492 26.2661 73.2618 26.8306 73.2618 27.5232C73.2618 28.338 73.4423 29.0131 73.8033 29.5485C74.1644 30.084 74.7146 30.3517 75.4541 30.3517Z" fill="black"/>
<path d="M62.8875 31.6699C62.608 31.3847 62.4683 30.9453 62.4683 30.3517V24.4939H61.1407V22.7218H62.4683V20.0679H64.9313V22.7218H66.4772V24.4939H64.9313V29.5223C64.9313 29.9123 64.9807 30.1567 65.0797 30.2556C65.1787 30.3488 65.4815 30.3953 65.9881 30.3953H66.2239C66.3112 30.3895 66.3957 30.3837 66.4772 30.3779V32.2373L65.2981 32.281C64.1219 32.3217 63.3184 32.118 62.8875 31.6699Z" fill="black"/>
<path fill-rule="evenodd" clip-rule="evenodd" d="M61.0439 27.4097C61.0439 28.8065 60.6421 30.0025 59.8386 30.9977C59.0351 31.9871 57.8152 32.4818 56.179 32.4818C54.5428 32.4818 53.323 31.9871 52.5195 30.9977C51.7159 30.0025 51.3142 28.8065 51.3142 27.4097C51.3142 26.0362 51.7159 24.8461 52.5195 23.8392C53.323 22.8324 54.5428 22.3289 56.179 22.3289C57.8152 22.3289 59.0351 22.8324 59.8386 23.8392C60.6421 24.8461 61.0439 26.0362 61.0439 27.4097ZM56.1703 30.3953C56.8981 30.3953 57.4571 30.1363 57.8472 29.6184C58.2374 29.1004 58.4324 28.3642 58.4324 27.4097C58.4324 26.4553 58.2374 25.7219 57.8472 25.2098C57.4571 24.6918 56.8981 24.4328 56.1703 24.4328C55.4425 24.4328 54.8806 24.6918 54.4846 25.2098C54.0945 25.7219 53.8994 26.4553 53.8994 27.4097C53.8994 28.3642 54.0945 29.1004 54.4846 29.6184C54.8806 30.1363 55.4425 30.3953 56.1703 30.3953Z" fill="black"/>
<path d="M49.3658 23.1845C48.7427 22.6665 47.9392 22.4075 46.9552 22.4075C46.1691 22.4075 45.5199 22.5996 45.0075 22.9837C44.7222 23.199 44.4194 23.5511 44.0991 24.04V22.6519H41.6973V32.15H44.1777V26.9994C44.1777 26.4116 44.2593 25.9286 44.4223 25.5503C44.7367 24.8344 45.3161 24.4765 46.1604 24.4765C46.8474 24.4765 47.3133 24.7209 47.5578 25.2098C47.6917 25.4775 47.7587 25.8616 47.7587 26.3621V32.15H50.309V25.7423C50.309 24.5492 49.9946 23.6966 49.3658 23.1845Z" fill="black"/>
<path d="M81.8656 33.992L81.5512 33.9746V35.965C81.819 35.9824 82.0199 35.9912 82.1538 35.9912C82.2877 35.997 82.4653 35.9999 82.6866 35.9999C83.7871 35.9999 84.5207 35.7816 84.8876 35.3451C85.2544 34.9145 85.7522 33.7971 86.3811 31.9929L89.6476 22.6345H87.0012L85.036 29.6533L82.9573 22.6345H80.1886L83.6823 32.5691C83.7055 32.6389 83.6531 32.831 83.5251 33.1452C83.4028 33.4595 83.2689 33.6661 83.1233 33.765C82.9719 33.8698 82.7856 33.9367 82.5643 33.9658C82.343 33.9949 82.1101 34.0037 81.8656 33.992Z" fill="black"/>
<path d="M106.209 21.471V29.9642H104.624V32.153H110.283V29.9642H108.882V21.471H110.283V19.2822H104.624V21.471H106.209Z" fill="black"/>
<path d="M84.2354 13.873L85.6035 9.74316H86.5459C86.4259 10.0685 86.1595 10.8105 85.7461 11.9688C85.4367 12.8402 85.1771 13.5512 84.9688 14.1006C84.4762 15.395 84.1288 16.1846 83.9268 16.4688C83.7246 16.7527 83.3772 16.8945 82.8848 16.8945C82.765 16.8945 82.6717 16.8903 82.6055 16.8809C82.5424 16.8714 82.4637 16.8533 82.3691 16.8281V16.0518C82.5174 16.0928 82.6251 16.1185 82.6914 16.1279C82.7575 16.1374 82.8158 16.1416 82.8662 16.1416C83.024 16.1416 83.1393 16.1151 83.2119 16.0615C83.2876 16.0111 83.3509 15.9478 83.4014 15.8721C83.4172 15.8468 83.4744 15.7171 83.5723 15.4834C83.6701 15.2498 83.741 15.0756 83.7852 14.9619L81.9092 9.74316H82.876L84.2354 13.873Z" fill="black"/>
<path fill-rule="evenodd" clip-rule="evenodd" d="M59.5195 9.62012C60.094 9.62021 60.5815 9.84124 60.9824 10.2832C61.3834 10.7221 61.584 11.3502 61.584 12.168C61.584 13.273 61.2955 14.0625 60.7178 14.5361C60.3515 14.8361 59.9247 14.9863 59.4385 14.9863C59.0567 14.9863 58.7364 14.9025 58.4775 14.7354C58.326 14.6406 58.157 14.4775 57.9707 14.2471V16.8379H57.1182V9.7666H57.9463V10.4395C58.1168 10.209 58.3038 10.0306 58.5059 9.9043C58.7932 9.71487 59.1312 9.62012 59.5195 9.62012ZM59.3252 10.3682C58.7347 10.3682 58.3302 10.6634 58.1123 11.2539C57.9955 11.5696 57.9375 11.9708 57.9375 12.457C57.9375 12.8484 57.9956 13.1814 58.1123 13.4561C58.3333 13.9802 58.7379 14.2422 59.3252 14.2422C59.7229 14.2421 60.0524 14.0765 60.3145 13.7451C60.5797 13.4104 60.7129 12.9111 60.7129 12.248C60.7128 11.8441 60.6539 11.4964 60.5371 11.2061C60.3161 10.6476 59.9122 10.3682 59.3252 10.3682Z" fill="black"/>
<path d="M42.832 9.61035C43.5961 9.61037 44.1475 9.83485 44.4854 10.2832C44.6967 10.5673 44.7993 10.8739 44.793 11.2021H43.9873C43.9715 11.0095 43.9042 10.8337 43.7842 10.6758C43.5884 10.4516 43.2487 10.3398 42.7656 10.3398C42.4436 10.3398 42.1986 10.4013 42.0312 10.5244C41.8671 10.6475 41.7852 10.8107 41.7852 11.0127C41.7853 11.2335 41.8946 11.4104 42.1123 11.543C42.2386 11.6218 42.4248 11.691 42.6709 11.751L43.2344 11.8887C43.8468 12.037 44.2574 12.1804 44.4658 12.3193C44.7974 12.5372 44.9629 12.8803 44.9629 13.3477C44.9628 13.799 44.7914 14.1893 44.4473 14.5176C44.1062 14.8459 43.5847 15.0098 42.8838 15.0098C42.1293 15.0097 41.594 14.839 41.2783 14.498C40.9659 14.154 40.7985 13.7295 40.7764 13.2246H41.5957C41.621 13.5085 41.6918 13.7264 41.8086 13.8779C42.0233 14.1526 42.3963 14.29 42.9268 14.29C43.2424 14.29 43.5199 14.2216 43.7598 14.0859C43.9997 13.947 44.1201 13.7336 44.1201 13.4463C44.12 13.2287 44.0235 13.0628 43.8311 12.9492C43.7078 12.8798 43.4644 12.7995 43.1016 12.708L42.4248 12.5371C41.9923 12.4298 41.673 12.3103 41.4678 12.1777C41.1015 11.9472 40.918 11.628 40.918 11.2207C40.918 10.7408 41.0905 10.3525 41.4346 10.0557C41.7819 9.75885 42.2479 9.61035 42.832 9.61035Z" fill="black"/>
<path d="M119.369 9.61035C120.133 9.61043 120.684 9.83491 121.021 10.2832C121.233 10.5674 121.335 10.8738 121.329 11.2021H120.524C120.509 11.0095 120.44 10.8337 120.32 10.6758C120.125 10.4519 119.785 10.3399 119.303 10.3398C118.981 10.3398 118.736 10.4013 118.568 10.5244C118.404 10.6476 118.322 10.8106 118.322 11.0127C118.322 11.2335 118.431 11.4104 118.648 11.543C118.775 11.6219 118.962 11.691 119.208 11.751L119.771 11.8887C120.384 12.0371 120.795 12.1804 121.003 12.3193C121.334 12.5372 121.5 12.8804 121.5 13.3477C121.5 13.799 121.327 14.1893 120.983 14.5176C120.642 14.8457 120.122 15.0098 119.421 15.0098C118.666 15.0098 118.131 14.8391 117.815 14.498C117.503 14.154 117.336 13.7296 117.313 13.2246H118.133C118.158 13.5086 118.229 13.7264 118.346 13.8779C118.56 14.1526 118.933 14.29 119.464 14.29C119.779 14.29 120.057 14.2216 120.297 14.0859C120.537 13.947 120.657 13.7336 120.657 13.4463C120.657 13.2287 120.561 13.0628 120.368 12.9492C120.245 12.8798 120.002 12.7996 119.639 12.708L118.961 12.5371C118.529 12.4298 118.21 12.3102 118.005 12.1777C117.639 11.9472 117.455 11.628 117.455 11.2207C117.455 10.7408 117.628 10.3525 117.972 10.0557C118.319 9.75888 118.785 9.61035 119.369 9.61035Z" fill="black"/>
<path fill-rule="evenodd" clip-rule="evenodd" d="M66.8135 9.62891C67.1734 9.62891 67.5225 9.71431 67.8604 9.88477C68.1982 10.0521 68.456 10.2707 68.6328 10.5391C68.8031 10.7947 68.9168 11.0929 68.9736 11.4336C69.0242 11.6673 69.0488 12.0402 69.0488 12.5518H65.3311C65.3469 13.0664 65.469 13.4804 65.6963 13.793C65.9236 14.1021 66.2755 14.2568 66.752 14.2568C67.197 14.2568 67.5522 14.1099 67.8174 13.8164C67.9688 13.646 68.0765 13.4486 68.1396 13.2246H68.9785C68.9564 13.4108 68.8821 13.6193 68.7559 13.8496C68.6327 14.0769 68.4935 14.263 68.3389 14.4082C68.0799 14.6608 67.759 14.8315 67.377 14.9199C67.1718 14.9704 66.9394 14.9951 66.6807 14.9951C66.0493 14.995 65.514 14.7663 65.0752 14.3086C64.6364 13.8476 64.417 13.2031 64.417 12.376C64.4171 11.5615 64.6381 10.8999 65.0801 10.3916C65.5221 9.88334 66.1 9.62895 66.8135 9.62891ZM66.7617 10.373C66.3703 10.373 66.0416 10.5148 65.7764 10.7988C65.5112 11.0798 65.3703 11.4384 65.3545 11.874H68.1729C68.1381 11.5047 68.0579 11.2092 67.9316 10.9883C67.698 10.578 67.3078 10.3731 66.7617 10.373Z" fill="black"/>
<path fill-rule="evenodd" clip-rule="evenodd" d="M73.9443 7.83398V14.8154H73.1768V14.1094C72.9779 14.4219 72.7432 14.6482 72.4717 14.7871C72.2001 14.926 71.8886 14.9951 71.5381 14.9951C70.9731 14.995 70.4838 14.7586 70.0703 14.2852C69.6567 13.8084 69.4502 13.1751 69.4502 12.3857C69.4502 11.6469 69.6379 11.0077 70.0137 10.4678C70.3925 9.9248 70.932 9.65341 71.6328 9.65332C72.0211 9.65332 72.3464 9.73533 72.6084 9.89941C72.7599 9.99413 72.9324 10.1597 73.125 10.3965V7.83398H73.9443ZM71.7939 10.3965C71.3646 10.3965 71.0154 10.5613 70.7471 10.8896C70.4821 11.218 70.3496 11.7014 70.3496 12.3389C70.3497 12.8816 70.465 13.336 70.6953 13.7021C70.9258 14.0684 71.2953 14.252 71.8037 14.252C72.1984 14.2519 72.5218 14.0829 72.7744 13.7451C73.0302 13.4041 73.1582 12.9159 73.1582 12.2812C73.1581 11.6405 73.0276 11.1666 72.7656 10.8604C72.5035 10.5509 72.1792 10.3965 71.7939 10.3965Z" fill="black"/>
<path fill-rule="evenodd" clip-rule="evenodd" d="M109.398 9.62012C109.995 9.62015 110.48 9.73363 110.853 9.96094C111.222 10.1882 111.406 10.5418 111.406 11.0215V13.9443C111.406 14.0325 111.423 14.1036 111.458 14.1572C111.496 14.2109 111.574 14.2373 111.69 14.2373C111.728 14.2373 111.771 14.2366 111.818 14.2334C111.866 14.2271 111.916 14.2184 111.97 14.209V14.8389C111.837 14.8767 111.736 14.9007 111.667 14.9102C111.598 14.9196 111.503 14.9248 111.383 14.9248C111.089 14.9248 110.876 14.8206 110.743 14.6123C110.674 14.5018 110.625 14.3447 110.597 14.1426C110.423 14.3699 110.173 14.568 109.848 14.7354C109.523 14.9025 109.165 14.9863 108.773 14.9863C108.303 14.9863 107.917 14.8438 107.617 14.5596C107.321 14.2723 107.172 13.9137 107.172 13.4844C107.172 13.0141 107.319 12.6495 107.612 12.3906C107.906 12.1317 108.292 11.9721 108.769 11.9121L110.128 11.7412C110.323 11.7159 110.454 11.634 110.521 11.4951C110.558 11.4194 110.577 11.3108 110.577 11.1689C110.577 10.8785 110.473 10.6685 110.265 10.5391C110.059 10.4065 109.764 10.3398 109.379 10.3398C108.934 10.3399 108.618 10.4594 108.432 10.6992C108.327 10.8318 108.26 11.0299 108.229 11.292H107.433C107.448 10.6668 107.651 10.2324 108.039 9.98926C108.431 9.74303 108.884 9.62012 109.398 9.62012ZM110.554 12.2344C110.45 12.3006 110.315 12.3562 110.151 12.4004C109.987 12.4446 109.826 12.4762 109.668 12.4951L109.152 12.5615C108.843 12.6025 108.611 12.6666 108.456 12.7549C108.194 12.9033 108.062 13.1406 108.062 13.4658C108.063 13.7118 108.152 13.9058 108.332 14.0479C108.512 14.1899 108.725 14.2617 108.972 14.2617C109.272 14.2617 109.563 14.1917 109.844 14.0527C110.317 13.8222 110.554 13.4449 110.554 12.9209V12.2344Z" fill="black"/>
<path fill-rule="evenodd" clip-rule="evenodd" d="M78.0889 10.3584C78.2751 10.1154 78.4981 9.93099 78.7568 9.80469C79.0158 9.67523 79.2975 9.61035 79.6006 9.61035C80.2318 9.61043 80.7433 9.82813 81.1348 10.2637C81.5295 10.6963 81.7266 11.3364 81.7266 12.1826C81.7265 12.9843 81.5327 13.6503 81.1445 14.1807C80.7562 14.7111 80.2176 14.9765 79.5293 14.9766C79.1442 14.9766 78.8189 14.8835 78.5537 14.6973C78.3959 14.5868 78.2268 14.41 78.0469 14.167V14.8154H77.2607V7.83398H78.0889V10.3584ZM79.501 10.373C79.1126 10.373 78.7712 10.5164 78.4775 10.8037C78.1871 11.091 78.042 11.5648 78.042 12.2246C78.042 12.7011 78.1018 13.088 78.2217 13.3848C78.4459 13.9437 78.865 14.2236 79.4775 14.2236C79.9383 14.2235 80.2825 14.04 80.5098 13.6738C80.7402 13.3076 80.8555 12.8244 80.8555 12.2246C80.8554 11.6911 80.7402 11.2489 80.5098 10.8984C80.2825 10.548 79.9461 10.3731 79.501 10.373Z" fill="black"/>
<path d="M47.6045 9.5957C48.1756 9.59577 48.6394 9.73511 48.9961 10.0127C49.3561 10.2906 49.5729 10.7694 49.6455 11.4482H48.8164C48.7659 11.1356 48.6507 10.8761 48.4707 10.6709C48.2908 10.4628 48.0019 10.3585 47.6045 10.3584C47.0614 10.3584 46.6721 10.6238 46.4385 11.1543C46.2869 11.4985 46.2119 11.9235 46.2119 12.4287C46.2119 12.9368 46.3186 13.3647 46.5332 13.7119C46.7479 14.0592 47.0861 14.2333 47.5469 14.2334C47.9005 14.2334 48.1805 14.1258 48.3857 13.9111C48.5941 13.6933 48.7375 13.3962 48.8164 13.0205H49.6455C49.5508 13.6931 49.3135 14.1854 48.9346 14.498C48.5557 14.8074 48.0709 14.9619 47.4805 14.9619C46.8176 14.9618 46.2891 14.7203 45.8945 14.2373C45.4999 13.7511 45.3018 13.1451 45.3018 12.4189C45.3018 11.5285 45.5186 10.8356 45.9512 10.3398C46.3838 9.84411 46.9351 9.5957 47.6045 9.5957Z" fill="black"/>
<path d="M51.0596 13.1104C51.0596 13.3692 51.1005 13.5809 51.1826 13.7451C51.3342 14.0482 51.6167 14.2002 52.0303 14.2002C52.6239 14.2002 53.0284 13.9347 53.2432 13.4043C53.36 13.1201 53.418 12.7301 53.418 12.2344V9.74316H54.2705V14.8154H53.4658L53.4746 14.0674C53.3641 14.2599 53.2266 14.4221 53.0625 14.5547C52.7373 14.8199 52.343 14.9531 51.8789 14.9531C51.156 14.9531 50.6635 14.7114 50.4014 14.2285C50.2593 13.9697 50.1885 13.6238 50.1885 13.1914V9.74316H51.0596V13.1104Z" fill="black"/>
<path d="M95.3643 9.74316V13.1104C95.3643 13.3693 95.4052 13.5809 95.4873 13.7451C95.6389 14.0482 95.9214 14.2002 96.335 14.2002C96.9284 14.2002 97.3321 13.9345 97.5469 13.4043C97.6637 13.1201 97.7226 12.7301 97.7227 12.2344V9.74316H98.5752V14.8154H97.7695L97.7793 14.0674C97.6688 14.2599 97.5313 14.4221 97.3672 14.5547C97.042 14.8199 96.6476 14.9531 96.1836 14.9531C95.4605 14.9531 94.9672 14.7116 94.7051 14.2285C94.563 13.9697 94.4922 13.6238 94.4922 13.1914V9.74316H95.3643Z" fill="black"/>
<path d="M63.3252 8.32715V9.74316H64.1348V10.4395H63.3252V13.75C63.3252 13.9268 63.3849 14.0455 63.5049 14.1055C63.5712 14.1402 63.6822 14.1572 63.8369 14.1572H63.9688C64.0161 14.1541 64.0717 14.1489 64.1348 14.1426V14.8154C64.0369 14.8438 63.9344 14.8643 63.8271 14.877C63.723 14.8896 63.6094 14.8965 63.4863 14.8965C63.0885 14.8965 62.8179 14.7949 62.6758 14.5928C62.5338 14.3876 62.4629 14.1219 62.4629 13.7969V10.4395H61.7764V9.74316H62.4629V8.32715H63.3252Z" fill="black"/>
<path d="M56.1914 14.8154H55.3389V7.8584H56.1914V14.8154Z" fill="black"/>
<path d="M90.2559 10.4297C90.4578 10.1741 90.6389 9.99383 90.7998 9.88965C91.0745 9.70967 91.4176 9.62012 91.8281 9.62012C92.5636 9.62017 93.0621 9.8772 93.3242 10.3916C93.4663 10.6726 93.5381 11.0627 93.5381 11.5615V14.8154H92.6611V11.6182C92.6611 11.2458 92.6142 10.9724 92.5195 10.7988C92.3648 10.5211 92.0736 10.3828 91.6475 10.3828C91.294 10.3829 90.9737 10.5041 90.6865 10.7471C90.3992 10.9902 90.2559 11.4495 90.2559 12.125V14.8154H89.4033V7.83398H90.2559V10.4297Z" fill="black"/>
<path d="M104.854 9.62891C105.535 9.62894 106 9.87562 106.246 10.3682C106.379 10.6334 106.444 10.9902 106.444 11.4385V14.8154H105.56V11.292C105.56 10.9544 105.474 10.7221 105.304 10.5957C105.136 10.4694 104.931 10.4062 104.688 10.4062C104.353 10.4063 104.064 10.5182 103.821 10.7422C103.581 10.9664 103.461 11.3411 103.461 11.8652V14.8154H102.594V11.5049C102.594 11.1607 102.553 10.9098 102.471 10.752C102.341 10.5151 102.1 10.3965 101.746 10.3965C101.424 10.3966 101.13 10.5212 100.865 10.7705C100.603 11.0199 100.473 11.4716 100.473 12.125V14.8154H99.6201V9.74316H100.463V10.4629C100.665 10.2135 100.849 10.0316 101.013 9.91797C101.294 9.72559 101.612 9.62894 101.969 9.62891C102.373 9.62891 102.698 9.7289 102.944 9.92773C103.083 10.0414 103.21 10.2087 103.323 10.4297C103.513 10.1582 103.735 9.95759 103.991 9.82812C104.247 9.69551 104.535 9.62891 104.854 9.62891Z" fill="black"/>
<path d="M114.985 9.62891C115.705 9.629 116.191 9.88085 116.443 10.3828C116.582 10.6575 116.652 11.0502 116.652 11.5615V14.8154H115.785V11.6182C115.785 11.3089 115.74 11.0595 115.648 10.8701C115.497 10.5544 115.222 10.3966 114.824 10.3965C114.622 10.3965 114.456 10.417 114.326 10.458C114.093 10.5275 113.888 10.6667 113.711 10.875C113.569 11.0422 113.476 11.2157 113.432 11.3955C113.391 11.5723 113.37 11.8268 113.37 12.1582V14.8154H112.518V9.74316H113.327V10.4629C113.567 10.1661 113.821 9.9527 114.09 9.82324C114.358 9.69383 114.657 9.62891 114.985 9.62891Z" fill="black"/>
</svg>
