<svg width="131" height="42" viewBox="0 0 131 42" fill="none" xmlns="http://www.w3.org/2000/svg">
<path d="M0.5 0.5H116C124.008 0.5 130.5 6.99187 130.5 15V41.5H15C6.99187 41.5 0.5 35.0081 0.5 27V0.5Z" fill="white" stroke="black"/>
<path d="M29.8497 24.1575C26.3836 26.9643 21.4266 26.9643 17.9605 24.1575L19.3007 22.5026C21.9854 24.6766 25.8248 24.6766 28.5095 22.5026L29.8497 24.1575Z" fill="black"/>
<path d="M19.404 17.6365V20.5134H21.5336V17.6365H19.404Z" fill="black"/>
<path d="M26.012 17.6365V20.5134H28.1415V17.6365H26.012Z" fill="black"/>
<path fill-rule="evenodd" clip-rule="evenodd" d="M23.5 33C29.8513 33 35 27.8513 35 21.5C35 15.1487 29.8513 10 23.5 10C17.1487 10 12 15.1487 12 21.5C12 27.8513 17.1487 33 23.5 33ZM23.5 30.8705C28.6752 30.8705 32.8705 26.6752 32.8705 21.5C32.8705 16.3248 28.6752 12.1295 23.5 12.1295C18.3248 12.1295 14.1295 16.3248 14.1295 21.5C14.1295 26.6752 18.3248 30.8705 23.5 30.8705Z" fill="black"/>
<path d="M81.975 11.0082C81.6751 11.2593 81.5251 11.7337 81.5251 12.4315V15.2098H80.6351V8H81.5251V10.6804C81.7361 10.4163 81.9256 10.2304 82.0937 10.1228C82.3805 9.93696 82.7381 9.84403 83.1666 9.84403C83.9346 9.84403 84.4554 10.1098 84.729 10.6413C84.8774 10.9315 84.9515 11.3343 84.9515 11.8495V15.2098H84.0368V11.9082C84.0368 11.5234 83.9874 11.2413 83.8885 11.062C83.727 10.775 83.4237 10.6315 82.9787 10.6315C82.6096 10.6315 82.275 10.7571 81.975 11.0082Z" fill="black"/>
<path fill-rule="evenodd" clip-rule="evenodd" d="M103.592 11.781C103.522 11.9245 103.386 12.0093 103.181 12.0354L101.762 12.2115C101.264 12.2734 100.862 12.4381 100.556 12.7055C100.249 12.9729 100.096 13.3495 100.096 13.8354C100.096 14.2789 100.251 14.649 100.561 14.9457C100.874 15.2392 101.276 15.3859 101.767 15.3859C102.176 15.3859 102.55 15.2995 102.889 15.1267C103.229 14.9539 103.489 14.7501 103.671 14.5153C103.7 14.724 103.751 14.8854 103.824 14.9995C103.962 15.2147 104.185 15.3224 104.491 15.3224C104.617 15.3224 104.716 15.3175 104.788 15.3077C104.861 15.2979 104.966 15.2734 105.104 15.2343V14.5838C105.048 14.5935 104.996 14.6017 104.946 14.6082C104.897 14.6115 104.852 14.6131 104.813 14.6131C104.691 14.6131 104.61 14.5854 104.57 14.53C104.534 14.4745 104.516 14.4012 104.516 14.3098V11.2919C104.516 10.7962 104.323 10.431 103.938 10.1962C103.549 9.96146 103.043 9.84407 102.42 9.84407C101.882 9.84407 101.409 9.97124 101.001 10.2256C100.595 10.4767 100.384 10.9251 100.368 11.5707H101.198C101.231 11.3001 101.302 11.0962 101.411 10.9593C101.606 10.7115 101.935 10.5875 102.4 10.5875C102.802 10.5875 103.11 10.656 103.325 10.793C103.542 10.9267 103.651 11.1435 103.651 11.4435C103.651 11.5903 103.631 11.7028 103.592 11.781ZM101.307 14.4175C101.119 14.2707 101.025 14.0702 101.025 13.8158C101.025 13.48 101.162 13.2354 101.436 13.0821C101.597 12.9908 101.84 12.924 102.163 12.8816L102.702 12.8131C102.866 12.7935 103.034 12.7609 103.206 12.7153C103.377 12.6696 103.517 12.6126 103.626 12.5441V13.2533C103.626 13.7946 103.379 14.1843 102.884 14.4223C102.591 14.5658 102.288 14.6376 101.975 14.6376C101.718 14.6376 101.495 14.5642 101.307 14.4175Z" fill="black"/>
<path d="M107.621 10.0543C107.341 10.188 107.075 10.4081 106.825 10.7147V9.97118H105.979V15.2098H106.869V12.4658C106.869 12.1234 106.891 11.8609 106.934 11.6783C106.98 11.4924 107.077 11.313 107.225 11.1402C107.41 10.925 107.624 10.7815 107.868 10.7098C108.003 10.6674 108.176 10.6462 108.387 10.6462C108.803 10.6462 109.089 10.8092 109.247 11.1353C109.343 11.331 109.391 11.5886 109.391 11.9081V15.2098H110.296V11.8494C110.296 11.3212 110.223 10.9152 110.078 10.6315C109.814 10.113 109.307 9.85379 108.555 9.85379C108.212 9.85379 107.901 9.92063 107.621 10.0543Z" fill="black"/>
<path fill-rule="evenodd" clip-rule="evenodd" d="M105.567 32.1501L100.961 19.2823H97.8898L93.2481 32.1501H96.0896L96.9897 29.505H101.781L102.62 32.1501H105.567ZM99.3988 22.2243L101.022 27.2876H97.7221L99.3988 22.2243Z" fill="black"/>
<path fill-rule="evenodd" clip-rule="evenodd" d="M77.4547 22.4251C78.7195 22.4251 79.7078 22.8761 80.4197 23.7782C81.1374 24.6803 81.4962 25.8443 81.4962 27.2702C81.4962 28.7484 81.1433 29.9735 80.4373 30.9454C79.7314 31.9173 78.746 32.4033 77.4811 32.4033C76.6869 32.4033 76.0486 32.2462 75.5662 31.9319C75.278 31.7457 74.9662 31.4197 74.6308 30.9541V32.1501H72.1688V19.2998H74.675V23.8742C74.9926 23.4319 75.3427 23.0944 75.7251 22.8616C76.1781 22.5706 76.7546 22.4251 77.4547 22.4251ZM76.8105 30.3518C77.4576 30.3518 77.9606 30.0928 78.3195 29.5748C78.6783 29.0569 78.8577 28.3759 78.8577 27.532C78.8577 26.8569 78.7695 26.2982 78.593 25.8559C78.2577 25.0179 77.64 24.5988 76.7399 24.5988C75.828 24.5988 75.2015 25.0091 74.8603 25.8297C74.6838 26.2662 74.5955 26.8308 74.5955 27.5233C74.5955 28.3381 74.7779 29.0132 75.1427 29.5486C75.5074 30.0841 76.0633 30.3518 76.8105 30.3518Z" fill="black"/>
<path d="M64.1138 31.67C63.8315 31.3848 63.6903 30.9454 63.6903 30.3518V24.4941H62.349V22.7219H63.6903V20.068H66.1788V22.7219H67.7407V24.4941H66.1788V29.5225C66.1788 29.9124 66.2288 30.1568 66.3288 30.2558C66.4288 30.3489 66.7347 30.3954 67.2465 30.3954H67.4848C67.573 30.3896 67.6583 30.3838 67.7407 30.378V32.2374L66.5494 32.2811C65.361 32.3218 64.5492 32.1181 64.1138 31.67Z" fill="black"/>
<path fill-rule="evenodd" clip-rule="evenodd" d="M62.2512 27.4098C62.2512 28.8066 61.8453 30.0026 61.0334 30.9978C60.2216 31.9872 58.9891 32.4819 57.336 32.4819C55.6829 32.4819 54.4504 31.9872 53.6385 30.9978C52.8267 30.0026 52.4208 28.8066 52.4208 27.4098C52.4208 26.0363 52.8267 24.8462 53.6385 23.8393C54.4504 22.8325 55.6829 22.3291 57.336 22.3291C58.9891 22.3291 60.2216 22.8325 61.0334 23.8393C61.8453 24.8462 62.2512 26.0363 62.2512 27.4098ZM57.3271 30.3954C58.0625 30.3954 58.6273 30.1365 59.0214 29.6185C59.4156 29.1005 59.6127 28.3643 59.6127 27.4098C59.6127 26.4554 59.4156 25.7221 59.0214 25.2099C58.6273 24.6919 58.0625 24.433 57.3271 24.433C56.5918 24.433 56.0241 24.6919 55.624 25.2099C55.2299 25.7221 55.0328 26.4554 55.0328 27.4098C55.0328 28.3643 55.2299 29.1005 55.624 29.6185C56.0241 30.1365 56.5918 30.3954 57.3271 30.3954Z" fill="black"/>
<path d="M50.4522 23.1846C49.8227 22.6666 49.0109 22.4076 48.0167 22.4076C47.2225 22.4076 46.5665 22.5997 46.0488 22.9838C45.7606 23.1991 45.4546 23.5512 45.1311 24.0401V22.6521H42.7044V32.1501H45.2105V26.9995C45.2105 26.4117 45.2929 25.9287 45.4576 25.5504C45.7753 24.8345 46.3606 24.4766 47.2136 24.4766C47.9078 24.4766 48.3785 24.721 48.6256 25.2099C48.7609 25.4776 48.8285 25.8617 48.8285 26.3622V32.1501H51.4052V25.7424C51.4052 24.5494 51.0876 23.6967 50.4522 23.1846Z" fill="black"/>
<path d="M83.2883 33.9921L82.9706 33.9747V35.9651C83.2412 35.9825 83.4442 35.9913 83.5795 35.9913C83.7148 35.9971 83.8943 36 84.1178 36C85.2297 36 85.9709 35.7818 86.3416 35.3453C86.7122 34.9146 87.2152 33.7972 87.8505 31.993L91.1509 22.6346H88.4771L86.4916 29.6534L84.3914 22.6346H81.594L85.1238 32.5692C85.1473 32.639 85.0944 32.8311 84.965 33.1453C84.8414 33.4596 84.7061 33.6662 84.559 33.7652C84.4061 33.8699 84.2178 33.9368 83.9943 33.9659C83.7707 33.995 83.5354 34.0038 83.2883 33.9921Z" fill="black"/>
<path d="M93.3615 10.1522C93.1901 10.2695 92.9989 10.457 92.7879 10.7147V9.97118H91.9078V15.2098H92.7978V12.4315C92.7978 11.7565 92.9346 11.2902 93.2082 11.0326C93.4851 10.775 93.7916 10.6462 94.1278 10.6462C94.497 10.6462 94.7492 10.7685 94.8843 11.013C94.97 11.1761 95.0129 11.4353 95.0129 11.7908V15.2098H95.9177V12.1625C95.9177 11.6212 96.0429 11.2348 96.2934 11.0032C96.5473 10.7717 96.8489 10.656 97.1983 10.656C97.4521 10.656 97.6663 10.7212 97.841 10.8516C98.019 10.9821 98.108 11.2217 98.108 11.5706V15.2098H99.0326V11.7223C99.0326 11.2592 98.9634 10.8907 98.8249 10.6168C98.5678 10.1081 98.0833 9.85379 97.3713 9.85379C97.0384 9.85379 96.7384 9.92226 96.4714 10.0592C96.2044 10.1929 95.9721 10.4 95.7743 10.6804C95.6556 10.4522 95.5238 10.2793 95.3787 10.1619C95.1216 9.9565 94.7821 9.85379 94.3602 9.85379C93.9877 9.85379 93.6548 9.95324 93.3615 10.1522Z" fill="black"/>
<path d="M87.2901 14.1043C87.2044 13.9347 87.1616 13.7163 87.1616 13.4489V9.97114H86.2518V13.532C86.2518 13.9788 86.326 14.3358 86.4743 14.6032C86.7479 15.1021 87.2621 15.3516 88.017 15.3516C88.5015 15.3516 88.9135 15.2146 89.253 14.9407C89.4244 14.8038 89.5678 14.6358 89.6832 14.4369L89.6733 15.2097H90.5138V9.97114H89.6239V12.544C89.6239 13.0559 89.5629 13.4587 89.4409 13.7521C89.2168 14.3 88.7949 14.5739 88.1752 14.5739C87.7434 14.5739 87.4484 14.4174 87.2901 14.1043Z" fill="black"/>
<path d="M74.6326 14.2364L76.0615 9.97114H77.0454C76.9202 10.307 76.6416 11.0733 76.2098 12.2701C75.8868 13.1701 75.6165 13.9038 75.399 14.4712C74.8848 15.8081 74.5222 16.6233 74.3112 16.9168C74.1003 17.2103 73.7377 17.357 73.2235 17.357C73.0982 17.357 73.001 17.3521 72.9317 17.3424C72.8658 17.3326 72.7834 17.3146 72.6845 17.2886V16.4864C72.8395 16.5288 72.9515 16.5549 73.0207 16.5646C73.09 16.5744 73.1509 16.5793 73.2037 16.5793C73.3685 16.5793 73.4888 16.5516 73.5646 16.4962C73.6437 16.444 73.7097 16.3788 73.7624 16.3005C73.7789 16.2744 73.8382 16.1407 73.9404 15.8994C74.0426 15.6581 74.1167 15.4788 74.1629 15.3614L72.2049 9.97114H73.2136L74.6326 14.2364Z" fill="black"/>
<path fill-rule="evenodd" clip-rule="evenodd" d="M68.3978 15.0875C68.233 14.9734 68.0566 14.7908 67.8687 14.5397V15.2098H67.048V8H67.9132V10.6071C68.1077 10.356 68.3401 10.1652 68.6104 10.0348C68.8807 9.9011 69.174 9.83425 69.4905 9.83425C70.1497 9.83425 70.6837 10.0592 71.0924 10.5093C71.5045 10.956 71.7105 11.6163 71.7105 12.4902C71.7105 13.3185 71.5078 14.0065 71.1023 14.5544C70.6969 15.1022 70.1349 15.3761 69.4163 15.3761C69.0142 15.3761 68.6747 15.2799 68.3978 15.0875ZM69.3619 14.5984C69.8432 14.5984 70.2025 14.4093 70.4398 14.031C70.6804 13.6527 70.8007 13.1538 70.8007 12.5343C70.8007 11.9832 70.6804 11.5266 70.4398 11.1647C70.2025 10.8027 69.8514 10.6218 69.3866 10.6218C68.9812 10.6218 68.6252 10.7701 68.3187 11.0669C68.0154 11.3636 67.8638 11.8527 67.8638 12.5343C67.8638 13.0267 67.9264 13.4261 68.0517 13.7326C68.2857 14.3098 68.7225 14.5984 69.3619 14.5984Z" fill="black"/>
<path fill-rule="evenodd" clip-rule="evenodd" d="M60.5313 9.87833C60.9466 9.87833 61.3092 9.97941 61.619 10.1816C61.7871 10.2957 61.9585 10.462 62.1332 10.6805V10.0202H62.954V14.7843C62.954 15.4495 62.8551 15.9745 62.6573 16.3593C62.2882 17.0702 61.591 17.4256 60.5659 17.4256C59.9956 17.4256 59.516 17.2985 59.1271 17.0441C58.7381 16.793 58.5206 16.3985 58.4744 15.8604H59.3792C59.4221 16.0952 59.5078 16.2762 59.6364 16.4034C59.8374 16.599 60.1539 16.6968 60.5857 16.6968C61.268 16.6968 61.7146 16.4588 61.9256 15.9827C62.0508 15.7023 62.1085 15.2017 62.0986 14.4811C61.9206 14.7485 61.7064 14.9474 61.4559 15.0778C61.2053 15.2082 60.8741 15.2735 60.4621 15.2735C59.8885 15.2735 59.3858 15.0729 58.954 14.6718C58.5255 14.2675 58.3113 13.6006 58.3113 12.6713C58.3113 11.7941 58.5272 11.1093 58.959 10.6169C59.3941 10.1245 59.9182 9.87833 60.5313 9.87833ZM62.1332 12.5686C62.1332 11.9196 61.9981 11.4387 61.7278 11.1256C61.4575 10.8126 61.1131 10.656 60.6944 10.656C60.0682 10.656 59.6396 10.9463 59.4089 11.5267C59.287 11.8365 59.226 12.2425 59.226 12.7446C59.226 13.3349 59.3463 13.7849 59.5869 14.0946C59.8308 14.4012 60.1572 14.5544 60.5659 14.5544C61.2053 14.5544 61.6553 14.2691 61.9157 13.6985C62.0607 13.3756 62.1332 12.999 62.1332 12.5686Z" fill="black"/>
<path d="M53.9799 11.6783C53.937 11.8609 53.9156 12.1234 53.9156 12.4658V15.2098H53.0256V9.97118H53.8711V10.7147C54.1216 10.4081 54.387 10.188 54.6671 10.0543C54.9473 9.92063 55.2588 9.85379 55.6016 9.85379C56.3532 9.85379 56.8608 10.113 57.1245 10.6315C57.2695 10.9152 57.342 11.3212 57.342 11.8494V15.2098H56.4372V11.9081C56.4372 11.5886 56.3894 11.331 56.2938 11.1353C56.1356 10.8092 55.8488 10.6462 55.4335 10.6462C55.2226 10.6462 55.0495 10.6674 54.9144 10.7098C54.6704 10.7815 54.4562 10.925 54.2716 11.1402C54.1233 11.313 54.026 11.4924 53.9799 11.6783Z" fill="black"/>
<path d="M47.5921 14.6032C47.4438 14.3358 47.3696 13.9788 47.3696 13.532V9.97114H48.2794V13.4489C48.2794 13.7163 48.3222 13.9347 48.4079 14.1043C48.5662 14.4174 48.8612 14.5739 49.293 14.5739C49.9127 14.5739 50.3346 14.3 50.5587 13.7521C50.6807 13.4587 50.7417 13.0559 50.7417 12.544V9.97114H51.6316V15.2097H50.7911L50.801 14.4369C50.6856 14.6358 50.5422 14.8038 50.3708 14.9407C50.0313 15.2146 49.6193 15.3516 49.1348 15.3516C48.3799 15.3516 47.8657 15.1021 47.5921 14.6032Z" fill="black"/>
<path d="M42.8554 13.5664C42.8817 13.8599 42.9559 14.0849 43.0779 14.2414C43.302 14.5251 43.691 14.667 44.2447 14.667C44.5743 14.667 44.8644 14.5969 45.1149 14.4567C45.3654 14.3132 45.4907 14.0931 45.4907 13.7963C45.4907 13.5713 45.3902 13.4001 45.1891 13.2827C45.0605 13.211 44.8067 13.1278 44.4277 13.0333L43.7206 12.8572C43.269 12.7463 42.9361 12.6224 42.7219 12.4854C42.3395 12.2474 42.1483 11.9181 42.1483 11.4974C42.1483 11.0017 42.328 10.6007 42.6873 10.2941C43.0498 9.98761 43.536 9.83435 44.1458 9.83435C44.9435 9.83435 45.5187 10.0659 45.8714 10.5289C46.0922 10.8224 46.1994 11.1387 46.1928 11.4778H45.3522C45.3358 11.2789 45.2649 11.0979 45.1396 10.9349C44.9353 10.7034 44.5809 10.5876 44.0766 10.5876C43.7404 10.5876 43.4849 10.6512 43.3102 10.7784C43.1388 10.9056 43.0531 11.0735 43.0531 11.2822C43.0531 11.5104 43.1669 11.6931 43.3943 11.83C43.5261 11.9115 43.7206 11.9833 43.9777 12.0452L44.5661 12.1871C45.2056 12.3403 45.6341 12.4887 45.8516 12.6322C46.1977 12.8572 46.3708 13.211 46.3708 13.6936C46.3708 14.1599 46.1911 14.5626 45.8318 14.9018C45.4759 15.2409 44.932 15.4105 44.2002 15.4105C43.4124 15.4105 42.8537 15.2344 42.5241 14.8822C42.1978 14.5268 42.0231 14.0882 42 13.5664H42.8554Z" fill="black"/>
<path d="M107.884 21.4711V29.9643H106.282V32.1531H112V29.9643H110.584V21.4711H112V19.2823H106.282V21.4711H107.884Z" fill="black"/>
</svg>
