<svg width="131" height="42" viewBox="0 0 131 42" fill="none" xmlns="http://www.w3.org/2000/svg">
<path d="M116 0.5C124.008 0.5 130.5 6.99187 130.5 15V41.5H15C6.99187 41.5 0.5 35.0081 0.5 27V0.5H116Z" fill="white" stroke="black"/>
<path d="M29.8497 24.1575C26.3836 26.9643 21.4266 26.9643 17.9605 24.1575L19.3007 22.5026C21.9854 24.6766 25.8248 24.6766 28.5095 22.5026L29.8497 24.1575Z" fill="black"/>
<path d="M19.404 17.6365V20.5134H21.5336V17.6365H19.404Z" fill="black"/>
<path d="M26.012 17.6365V20.5134H28.1415V17.6365H26.012Z" fill="black"/>
<path fill-rule="evenodd" clip-rule="evenodd" d="M23.5 33C29.8513 33 35 27.8513 35 21.5C35 15.1487 29.8513 10 23.5 10C17.1487 10 12 15.1487 12 21.5C12 27.8513 17.1487 33 23.5 33ZM23.5 30.8705C28.6752 30.8705 32.8705 26.6752 32.8705 21.5C32.8705 16.3248 28.6752 12.1295 23.5 12.1295C18.3248 12.1295 14.1295 16.3248 14.1295 21.5C14.1295 26.6752 18.3248 30.8705 23.5 30.8705Z" fill="black"/>
<path fill-rule="evenodd" clip-rule="evenodd" d="M105.567 32.15L100.961 19.2822H97.89L93.2484 32.15H96.0898L96.9899 29.5049H101.782L102.62 32.15H105.567ZM99.399 22.2242L101.023 27.2875H97.7224L99.399 22.2242Z" fill="black"/>
<path fill-rule="evenodd" clip-rule="evenodd" d="M77.4549 22.425C78.7197 22.425 79.7081 22.876 80.4199 23.7781C81.1376 24.6802 81.4965 25.8442 81.4965 27.27C81.4965 28.7483 81.1435 29.9734 80.4375 30.9453C79.7316 31.9172 78.7462 32.4032 77.4814 32.4032C76.6872 32.4032 76.0489 32.2461 75.5665 31.9318C75.2782 31.7455 74.9664 31.4196 74.6311 30.954V32.15H72.1691V19.2997H74.6752V23.8741C74.9929 23.4318 75.3429 23.0943 75.7253 22.8615C76.1783 22.5705 76.7548 22.425 77.4549 22.425ZM76.8107 30.3517C77.4578 30.3517 77.9608 30.0927 78.3197 29.5747C78.6785 29.0567 78.858 28.3758 78.858 27.5319C78.858 26.8568 78.7697 26.2981 78.5932 25.8558C78.2579 25.0177 77.6402 24.5987 76.7401 24.5987C75.8282 24.5987 75.2017 25.009 74.8605 25.8296C74.684 26.2661 74.5958 26.8306 74.5958 27.5232C74.5958 28.338 74.7781 29.0131 75.1429 29.5485C75.5076 30.084 76.0636 30.3517 76.8107 30.3517Z" fill="black"/>
<path d="M64.1141 31.6699C63.8317 31.3847 63.6905 30.9453 63.6905 30.3517V24.4939H62.3492V22.7218H63.6905V20.0679H66.179V22.7218H67.7409V24.4939H66.179V29.5223C66.179 29.9123 66.229 30.1567 66.329 30.2556C66.429 30.3488 66.7349 30.3953 67.2467 30.3953H67.485C67.5732 30.3895 67.6586 30.3837 67.7409 30.3779V32.2373L66.5496 32.281C65.3613 32.3217 64.5494 32.118 64.1141 31.6699Z" fill="black"/>
<path fill-rule="evenodd" clip-rule="evenodd" d="M62.2514 27.4097C62.2514 28.8065 61.8455 30.0025 61.0336 30.9977C60.2218 31.9871 58.9893 32.4818 57.3362 32.4818C55.6831 32.4818 54.4506 31.9871 53.6388 30.9977C52.8269 30.0025 52.421 28.8065 52.421 27.4097C52.421 26.0362 52.8269 24.8461 53.6388 23.8392C54.4506 22.8324 55.6831 22.3289 57.3362 22.3289C58.9893 22.3289 60.2218 22.8324 61.0336 23.8392C61.8455 24.8461 62.2514 26.0362 62.2514 27.4097ZM57.3274 30.3953C58.0627 30.3953 58.6275 30.1363 59.0217 29.6184C59.4158 29.1004 59.6129 28.3642 59.6129 27.4097C59.6129 26.4553 59.4158 25.7219 59.0217 25.2098C58.6275 24.6918 58.0627 24.4328 57.3274 24.4328C56.592 24.4328 56.0243 24.6918 55.6243 25.2098C55.2301 25.7219 55.033 26.4553 55.033 27.4097C55.033 28.3642 55.2301 29.1004 55.6243 29.6184C56.0243 30.1363 56.592 30.3953 57.3274 30.3953Z" fill="black"/>
<path d="M50.4524 23.1845C49.823 22.6665 49.0111 22.4075 48.0169 22.4075C47.2227 22.4075 46.5667 22.5996 46.049 22.9837C45.7608 23.199 45.4549 23.5511 45.1313 24.04V22.6519H42.7046V32.15H45.2107V26.9994C45.2107 26.4116 45.2931 25.9286 45.4578 25.5503C45.7755 24.8344 46.3608 24.4765 47.2139 24.4765C47.9081 24.4765 48.3787 24.7209 48.6258 25.2098C48.7611 25.4775 48.8287 25.8616 48.8287 26.3621V32.15H51.4055V25.7423C51.4055 24.5492 51.0878 23.6966 50.4524 23.1845Z" fill="black"/>
<path d="M83.2885 33.992L82.9709 33.9746V35.965C83.2415 35.9824 83.4444 35.9912 83.5797 35.9912C83.7151 35.997 83.8945 35.9999 84.118 35.9999C85.2299 35.9999 85.9712 35.7816 86.3418 35.3451C86.7124 34.9145 87.2154 33.7971 87.8508 31.9929L91.1511 22.6345H88.4773L86.4918 29.6533L84.3916 22.6345H81.5942L85.124 32.5691C85.1475 32.6389 85.0946 32.831 84.9652 33.1452C84.8416 33.4595 84.7063 33.6661 84.5593 33.765C84.4063 33.8698 84.218 33.9367 83.9945 33.9658C83.7709 33.9949 83.5356 34.0037 83.2885 33.992Z" fill="black"/>
<path d="M107.884 21.471V29.9642H106.282V32.153H112V29.9642H110.585V21.471H112V19.2822H106.282V21.471H107.884Z" fill="black"/>
<path fill-rule="evenodd" clip-rule="evenodd" d="M60.21 9.45801C60.6227 9.45803 60.9831 9.55965 61.291 9.7627C61.4581 9.87738 61.6291 10.0451 61.8027 10.2646V9.60059H62.6182V14.3877C62.6182 15.0561 62.5198 15.584 62.3232 15.9707C61.9562 16.685 61.2632 17.042 60.2441 17.042C59.6773 17.042 59.2001 16.9147 58.8135 16.6592C58.427 16.4069 58.211 16.0101 58.165 15.4697H59.0645C59.1071 15.7054 59.1926 15.8869 59.3203 16.0146C59.5202 16.2112 59.8345 16.3095 60.2637 16.3096C60.942 16.3096 61.386 16.0702 61.5957 15.5918C61.7201 15.3099 61.7774 14.8069 61.7676 14.083C61.5907 14.3517 61.3779 14.5515 61.1289 14.6826C60.8799 14.8137 60.5502 14.8799 60.1406 14.8799C59.5707 14.8798 59.0707 14.6783 58.6416 14.2754C58.2156 13.8691 58.0029 13.1985 58.0029 12.2646C58.0029 11.3833 58.2173 10.695 58.6465 10.2002C59.079 9.70541 59.6005 9.45801 60.21 9.45801ZM60.3721 10.2393C59.7495 10.2393 59.3231 10.5311 59.0938 11.1143C58.9725 11.4255 58.9121 11.8343 58.9121 12.3389C58.9122 12.9317 59.0323 13.3841 59.2715 13.6953C59.5139 14.003 59.8381 14.1572 60.2441 14.1572C60.8798 14.1572 61.3271 13.8703 61.5859 13.2969C61.7301 12.9725 61.8027 12.5937 61.8027 12.1611C61.8027 11.5094 61.6679 11.0264 61.3994 10.7119C61.1307 10.3974 60.7882 10.2393 60.3721 10.2393Z" fill="black"/>
<path d="M72.8174 9.55176L74.2275 13.8379L75.6484 9.55176H76.626C76.5014 9.88935 76.225 10.6593 75.7959 11.8613C75.4748 12.7656 75.2055 13.5031 74.9893 14.0732C74.4781 15.4167 74.1179 16.2363 73.9082 16.5312C73.6985 16.826 73.3381 16.9736 72.8271 16.9736C72.7028 16.9736 72.6059 16.9688 72.5371 16.959C72.4716 16.9492 72.3893 16.9305 72.291 16.9043V16.0986C72.4447 16.1411 72.5562 16.1669 72.625 16.1768C72.6938 16.1866 72.7552 16.1914 72.8076 16.1914C72.9712 16.1914 73.0907 16.164 73.166 16.1084C73.2445 16.0561 73.3099 15.9906 73.3623 15.9121C73.3787 15.8859 73.4385 15.7513 73.54 15.5088C73.6416 15.2663 73.7149 15.0857 73.7607 14.9678L71.8145 9.55176H72.8174Z" fill="black"/>
<path d="M43.9209 9.41406C44.7139 9.41406 45.2861 9.64701 45.6367 10.1123C45.8561 10.4071 45.9626 10.7248 45.9561 11.0654H45.1201C45.1037 10.8656 45.0337 10.6834 44.9092 10.5195C44.706 10.287 44.3537 10.1709 43.8525 10.1709C43.5185 10.1709 43.2645 10.2346 43.0908 10.3623C42.9204 10.4901 42.835 10.6594 42.835 10.8691C42.8351 11.0982 42.9481 11.2814 43.1738 11.4189C43.3049 11.5008 43.4984 11.5735 43.7539 11.6357L44.3389 11.7783C44.9746 11.9323 45.4009 12.0814 45.6172 12.2256C45.9611 12.4517 46.1328 12.8072 46.1328 13.292C46.1328 13.7604 45.9546 14.1651 45.5977 14.5059C45.2438 14.8466 44.7029 15.0175 43.9756 15.0176C43.1926 15.0176 42.6373 14.8401 42.3096 14.4863C41.9852 14.1292 41.811 13.6883 41.7881 13.1641H42.6387C42.6649 13.459 42.7381 13.6855 42.8594 13.8428C43.0822 14.1278 43.4691 14.2705 44.0195 14.2705C44.3472 14.2705 44.6357 14.1995 44.8848 14.0586C45.1336 13.9145 45.2577 13.6935 45.2578 13.3955C45.2578 13.1694 45.1579 12.9969 44.958 12.8789C44.8301 12.8069 44.5777 12.7239 44.2012 12.6289L43.499 12.4512C43.0503 12.3398 42.7189 12.2157 42.5059 12.0781C42.1258 11.8389 41.9355 11.5077 41.9355 11.085C41.9356 10.587 42.1145 10.184 42.4717 9.87598C42.832 9.56815 43.315 9.41412 43.9209 9.41406Z" fill="black"/>
<path fill-rule="evenodd" clip-rule="evenodd" d="M82.2588 9.42383C82.8779 9.42383 83.381 9.54157 83.7676 9.77734C84.151 10.0133 84.3428 10.3808 84.3428 10.8789V13.9111C84.3428 14.0029 84.3614 14.0771 84.3975 14.1328C84.4369 14.1882 84.5169 14.2158 84.6377 14.2158C84.677 14.2158 84.7214 14.2142 84.7705 14.2109C84.8196 14.2044 84.8721 14.1963 84.9277 14.1865V14.8398C84.7901 14.8792 84.6854 14.9042 84.6133 14.9141C84.5412 14.9239 84.4429 14.9287 84.3184 14.9287C84.0138 14.9287 83.7929 14.8205 83.6553 14.6045C83.5832 14.4899 83.5324 14.3276 83.5029 14.1182C83.3227 14.3541 83.0631 14.5588 82.7256 14.7324C82.3882 14.9059 82.0164 14.9922 81.6104 14.9922C81.1221 14.9922 80.7224 14.8447 80.4111 14.5498C80.1032 14.2516 79.9492 13.8801 79.9492 13.4346C79.9492 12.9463 80.1015 12.5675 80.4062 12.2988C80.7109 12.0303 81.1109 11.865 81.6055 11.8027L83.0156 11.626C83.2188 11.5998 83.355 11.5143 83.4238 11.3701C83.4631 11.2915 83.4824 11.1786 83.4824 11.0312C83.4824 10.7298 83.3745 10.5113 83.1582 10.377C82.9452 10.2395 82.6388 10.1709 82.2393 10.1709C81.7773 10.1709 81.4492 10.295 81.2559 10.5439C81.1477 10.6816 81.0777 10.8872 81.0449 11.1592H80.2188C80.2351 10.5104 80.4456 10.0599 80.8486 9.80762C81.2549 9.55207 81.7248 9.42385 82.2588 9.42383ZM83.458 12.1367C83.3499 12.2055 83.2104 12.2627 83.04 12.3086C82.8697 12.3544 82.7028 12.3876 82.5391 12.4072L82.0029 12.4756C81.6822 12.5182 81.4417 12.5861 81.2812 12.6777C81.0093 12.8317 80.873 13.0775 80.873 13.415C80.8731 13.6705 80.9666 13.8721 81.1533 14.0195C81.34 14.1668 81.561 14.2402 81.8164 14.2402C82.1276 14.2402 82.4291 14.1685 82.7207 14.0244C83.2122 13.7852 83.458 13.3935 83.458 12.8496V12.1367Z" fill="black"/>
<path fill-rule="evenodd" clip-rule="evenodd" d="M110.255 9.42383C110.874 9.42383 111.378 9.54142 111.765 9.77734C112.148 10.0133 112.339 10.3809 112.339 10.8789V13.9111C112.339 14.0029 112.358 14.0771 112.394 14.1328C112.433 14.1882 112.513 14.2158 112.634 14.2158C112.673 14.2158 112.718 14.2142 112.767 14.2109C112.816 14.2044 112.868 14.1963 112.924 14.1865V14.8398C112.786 14.8791 112.681 14.9042 112.609 14.9141C112.537 14.9239 112.439 14.9287 112.314 14.9287C112.01 14.9286 111.789 14.8205 111.651 14.6045C111.579 14.4899 111.529 14.3276 111.499 14.1182C111.319 14.354 111.06 14.5588 110.723 14.7324C110.385 14.9061 110.013 14.9922 109.606 14.9922C109.118 14.9922 108.719 14.8447 108.407 14.5498C108.099 14.2517 107.945 13.8801 107.945 13.4346C107.945 12.9463 108.098 12.5675 108.402 12.2988C108.707 12.0302 109.107 11.865 109.602 11.8027L111.013 11.626C111.216 11.5997 111.351 11.5142 111.42 11.3701C111.459 11.2915 111.479 11.1786 111.479 11.0312C111.479 10.7298 111.371 10.5113 111.154 10.377C110.941 10.2395 110.635 10.1709 110.235 10.1709C109.774 10.1709 109.446 10.2953 109.253 10.5439C109.145 10.6816 109.074 10.8872 109.041 11.1592H108.216C108.232 10.5105 108.442 10.0599 108.845 9.80762C109.251 9.5521 109.721 9.42389 110.255 9.42383ZM111.454 12.1367C111.346 12.2054 111.207 12.2628 111.037 12.3086C110.867 12.3545 110.699 12.3876 110.535 12.4072L110 12.4756C109.679 12.5182 109.438 12.586 109.277 12.6777C109.005 12.8317 108.869 13.0775 108.869 13.415C108.869 13.6705 108.963 13.8721 109.149 14.0195C109.336 14.1669 109.557 14.2401 109.812 14.2402C110.124 14.2402 110.426 14.1686 110.718 14.0244C111.209 13.7852 111.454 13.3934 111.454 12.8496V12.1367Z" fill="black"/>
<path fill-rule="evenodd" clip-rule="evenodd" d="M67.5479 10.1904C67.7412 9.93812 67.9725 9.7463 68.2412 9.61523C68.5099 9.48095 68.8017 9.41406 69.1162 9.41406C69.7712 9.41411 70.3018 9.63998 70.708 10.0918C71.1176 10.5407 71.3232 11.2048 71.3232 12.083C71.3232 12.9152 71.1217 13.6068 70.7188 14.1572C70.3157 14.7077 69.7563 14.9824 69.042 14.9824C68.6423 14.9824 68.3045 14.8857 68.0293 14.6924C67.8657 14.5777 67.6904 14.3945 67.5039 14.1426V14.8154H66.6875V7.57031H67.5479V10.1904ZM69.0127 10.2051C68.6098 10.2051 68.2559 10.3543 67.9512 10.6523C67.6497 10.9505 67.499 11.4422 67.499 12.127C67.499 12.6216 67.5611 13.0231 67.6855 13.3311C67.9182 13.911 68.3526 14.2012 68.9883 14.2012C69.4666 14.2011 69.8237 14.0109 70.0596 13.6309C70.2987 13.2508 70.4189 12.7495 70.4189 12.127C70.4189 11.5733 70.2987 11.1147 70.0596 10.751C69.8236 10.3873 69.4747 10.2051 69.0127 10.2051Z" fill="black"/>
<path d="M48.0303 9.55176V13.0459C48.0303 13.3146 48.073 13.5347 48.1582 13.7051C48.3155 14.0195 48.609 14.1768 49.0381 14.1768C49.654 14.1767 50.0731 13.901 50.2959 13.3506C50.4171 13.0557 50.4775 12.651 50.4775 12.1367V9.55176H51.3623V14.8154H50.5273L50.5371 14.0391C50.4225 14.2389 50.2797 14.4073 50.1094 14.5449C49.7719 14.8201 49.3624 14.958 48.8809 14.958C48.1305 14.958 47.6186 14.7074 47.3467 14.2061C47.1993 13.9374 47.126 13.5786 47.126 13.1299V9.55176H48.0303Z" fill="black"/>
<path d="M95.0869 13.0459C95.0869 13.3146 95.1297 13.5347 95.2148 13.7051C95.3721 14.0195 95.6656 14.1767 96.0947 14.1768C96.7108 14.1768 97.1307 13.9011 97.3535 13.3506C97.4746 13.0557 97.5352 12.6509 97.5352 12.1367V9.55176H98.4199V14.8154H97.584L97.5938 14.0391C97.4791 14.2389 97.3364 14.4073 97.166 14.5449C96.8285 14.8201 96.4192 14.958 95.9375 14.958C95.1872 14.958 94.6763 14.7074 94.4043 14.2061C94.2569 13.9374 94.1826 13.5787 94.1826 13.1299V9.55176H95.0869V13.0459Z" fill="black"/>
<path d="M55.3096 9.43359C56.0565 9.43361 56.5611 9.69404 56.8232 10.2148C56.9674 10.4999 57.04 10.9086 57.04 11.4395V14.8154H56.1406V11.498C56.1406 11.1772 56.0929 10.9182 55.998 10.7217C55.8408 10.3941 55.5553 10.2295 55.1426 10.2295C54.9329 10.2295 54.7603 10.2513 54.626 10.2939C54.3836 10.3661 54.1707 10.5104 53.9873 10.7266C53.84 10.9001 53.7432 11.08 53.6973 11.2666C53.6547 11.4501 53.6338 11.7145 53.6338 12.0586V14.8154H52.749V9.55176H53.5889V10.2988C53.8379 9.99082 54.1023 9.76911 54.3809 9.63477C54.6593 9.50055 54.969 9.43359 55.3096 9.43359Z" fill="black"/>
<path d="M89.4844 7.57031V10.2646C89.6941 9.99923 89.8827 9.81223 90.0498 9.7041C90.3348 9.51744 90.6904 9.42383 91.1162 9.42383C91.8794 9.42389 92.397 9.69079 92.6689 10.2246C92.8164 10.5162 92.8906 10.9217 92.8906 11.4395V14.8154H91.9814V11.498C91.9814 11.1114 91.9323 10.8277 91.834 10.6475C91.6734 10.3591 91.3711 10.2148 90.9287 10.2148C90.5619 10.2149 90.2297 10.3416 89.9316 10.5938C89.6335 10.846 89.4844 11.3225 89.4844 12.0234V14.8154H88.5996V7.57031H89.4844Z" fill="black"/>
<path d="M105.237 9.43359C105.945 9.43367 106.426 9.6893 106.682 10.2002C106.819 10.4754 106.889 10.8462 106.889 11.3115V14.8154H105.97V11.1592C105.97 10.8087 105.881 10.5676 105.704 10.4365C105.531 10.3055 105.318 10.2393 105.065 10.2393C104.718 10.2393 104.417 10.3562 104.165 10.5889C103.916 10.8216 103.792 11.2102 103.792 11.7539V14.8154H102.893V11.3799C102.893 11.0228 102.85 10.7625 102.765 10.5986C102.63 10.3529 102.38 10.2295 102.013 10.2295C101.679 10.2295 101.374 10.3594 101.099 10.6182C100.827 10.877 100.69 11.3454 100.69 12.0234V14.8154H99.8057V9.55176H100.681V10.2988C100.89 10.04 101.081 9.85136 101.251 9.7334C101.543 9.53357 101.874 9.43359 102.244 9.43359C102.663 9.43367 103 9.53694 103.256 9.74316C103.4 9.86113 103.531 10.0353 103.649 10.2646C103.846 9.98285 104.077 9.77399 104.343 9.63965C104.608 9.50217 104.907 9.43359 105.237 9.43359Z" fill="black"/>
<path d="M116.354 9.43359C117.102 9.43359 117.607 9.69389 117.869 10.2148C118.013 10.4999 118.085 10.9086 118.085 11.4395V14.8154H117.186V11.498C117.186 11.177 117.138 10.9183 117.043 10.7217C116.886 10.394 116.6 10.2295 116.188 10.2295C115.978 10.2295 115.806 10.2514 115.672 10.2939C115.429 10.366 115.217 10.5103 115.033 10.7266C114.886 10.9001 114.789 11.08 114.743 11.2666C114.701 11.4501 114.679 11.7145 114.679 12.0586V14.8154H113.794V9.55176H114.635V10.2988C114.884 9.99082 115.147 9.76911 115.426 9.63477C115.704 9.50048 116.014 9.43365 116.354 9.43359Z" fill="black"/>
</svg>
