<svg width="131" height="42" viewBox="0 0 131 42" fill="none" xmlns="http://www.w3.org/2000/svg">
<path d="M116 0.5C124.008 0.5 130.5 6.99187 130.5 15V41.5H15C6.99187 41.5 0.5 35.0081 0.5 27V0.5H116Z" fill="white" stroke="black"/>
<path d="M29.8497 24.1575C26.3836 26.9643 21.4266 26.9643 17.9605 24.1575L19.3007 22.5026C21.9854 24.6766 25.8248 24.6766 28.5095 22.5026L29.8497 24.1575Z" fill="black"/>
<path d="M19.404 17.6365V20.5134H21.5336V17.6365H19.404Z" fill="black"/>
<path d="M26.012 17.6365V20.5134H28.1415V17.6365H26.012Z" fill="black"/>
<path fill-rule="evenodd" clip-rule="evenodd" d="M23.5 33C29.8513 33 35 27.8513 35 21.5C35 15.1487 29.8513 10 23.5 10C17.1487 10 12 15.1487 12 21.5C12 27.8513 17.1487 33 23.5 33ZM23.5 30.8705C28.6752 30.8705 32.8705 26.6752 32.8705 21.5C32.8705 16.3248 28.6752 12.1295 23.5 12.1295C18.3248 12.1295 14.1295 16.3248 14.1295 21.5C14.1295 26.6752 18.3248 30.8705 23.5 30.8705Z" fill="black"/>
<path fill-rule="evenodd" clip-rule="evenodd" d="M105.567 32.15L100.961 19.2822H97.89L93.2484 32.15H96.0898L96.9899 29.5049H101.782L102.62 32.15H105.567ZM99.399 22.2242L101.023 27.2875H97.7224L99.399 22.2242Z" fill="black"/>
<path fill-rule="evenodd" clip-rule="evenodd" d="M77.4549 22.425C78.7197 22.425 79.7081 22.876 80.4199 23.7781C81.1376 24.6802 81.4965 25.8442 81.4965 27.27C81.4965 28.7483 81.1435 29.9734 80.4375 30.9453C79.7316 31.9172 78.7462 32.4032 77.4814 32.4032C76.6872 32.4032 76.0489 32.2461 75.5665 31.9318C75.2782 31.7455 74.9664 31.4196 74.6311 30.954V32.15H72.1691V19.2997H74.6752V23.8741C74.9929 23.4318 75.3429 23.0943 75.7253 22.8615C76.1783 22.5705 76.7548 22.425 77.4549 22.425ZM76.8107 30.3517C77.4578 30.3517 77.9608 30.0927 78.3197 29.5747C78.6785 29.0567 78.858 28.3758 78.858 27.5319C78.858 26.8568 78.7697 26.2981 78.5932 25.8558C78.2579 25.0177 77.6402 24.5987 76.7401 24.5987C75.8282 24.5987 75.2017 25.009 74.8605 25.8296C74.684 26.2661 74.5958 26.8306 74.5958 27.5232C74.5958 28.338 74.7781 29.0131 75.1429 29.5485C75.5076 30.084 76.0636 30.3517 76.8107 30.3517Z" fill="black"/>
<path d="M64.1141 31.6699C63.8317 31.3847 63.6905 30.9453 63.6905 30.3517V24.4939H62.3492V22.7218H63.6905V20.0679H66.179V22.7218H67.7409V24.4939H66.179V29.5223C66.179 29.9123 66.229 30.1567 66.329 30.2556C66.429 30.3488 66.7349 30.3953 67.2467 30.3953H67.485C67.5732 30.3895 67.6586 30.3837 67.7409 30.3779V32.2373L66.5496 32.281C65.3613 32.3217 64.5494 32.118 64.1141 31.6699Z" fill="black"/>
<path fill-rule="evenodd" clip-rule="evenodd" d="M62.2514 27.4097C62.2514 28.8065 61.8455 30.0025 61.0336 30.9977C60.2218 31.9871 58.9893 32.4818 57.3362 32.4818C55.6831 32.4818 54.4506 31.9871 53.6388 30.9977C52.8269 30.0025 52.421 28.8065 52.421 27.4097C52.421 26.0362 52.8269 24.8461 53.6388 23.8392C54.4506 22.8324 55.6831 22.3289 57.3362 22.3289C58.9893 22.3289 60.2218 22.8324 61.0336 23.8392C61.8455 24.8461 62.2514 26.0362 62.2514 27.4097ZM57.3274 30.3953C58.0627 30.3953 58.6275 30.1363 59.0217 29.6184C59.4158 29.1004 59.6129 28.3642 59.6129 27.4097C59.6129 26.4553 59.4158 25.7219 59.0217 25.2098C58.6275 24.6918 58.0627 24.4328 57.3274 24.4328C56.592 24.4328 56.0243 24.6918 55.6243 25.2098C55.2301 25.7219 55.033 26.4553 55.033 27.4097C55.033 28.3642 55.2301 29.1004 55.6243 29.6184C56.0243 30.1363 56.592 30.3953 57.3274 30.3953Z" fill="black"/>
<path d="M50.4524 23.1845C49.823 22.6665 49.0111 22.4075 48.0169 22.4075C47.2227 22.4075 46.5667 22.5996 46.049 22.9837C45.7608 23.199 45.4549 23.5511 45.1313 24.04V22.6519H42.7046V32.15H45.2107V26.9994C45.2107 26.4116 45.2931 25.9286 45.4578 25.5503C45.7755 24.8344 46.3608 24.4765 47.2139 24.4765C47.9081 24.4765 48.3787 24.7209 48.6258 25.2098C48.7611 25.4775 48.8287 25.8616 48.8287 26.3621V32.15H51.4055V25.7423C51.4055 24.5492 51.0878 23.6966 50.4524 23.1845Z" fill="black"/>
<path d="M83.2885 33.992L82.9709 33.9746V35.965C83.2415 35.9824 83.4444 35.9912 83.5797 35.9912C83.7151 35.997 83.8945 35.9999 84.118 35.9999C85.2299 35.9999 85.9712 35.7816 86.3418 35.3451C86.7124 34.9145 87.2154 33.7971 87.8508 31.9929L91.1511 22.6345H88.4773L86.4918 29.6533L84.3916 22.6345H81.5942L85.124 32.5691C85.1475 32.6389 85.0946 32.831 84.9652 33.1452C84.8416 33.4595 84.7063 33.6661 84.5593 33.765C84.4063 33.8698 84.218 33.9367 83.9945 33.9658C83.7709 33.9949 83.5356 34.0037 83.2885 33.992Z" fill="black"/>
<path d="M107.884 21.471V29.9642H106.282V32.153H112V29.9642H110.585V21.471H112V19.2822H106.282V21.471H107.884Z" fill="black"/>
<path d="M60.21 9.45801C60.6227 9.45803 60.9831 9.55965 61.291 9.7627C61.4581 9.87738 61.6291 10.0451 61.8027 10.2646V9.60059H62.6182V14.3877C62.6182 15.0561 62.5198 15.584 62.3232 15.9707C61.9562 16.685 61.2632 17.042 60.2441 17.042C59.6773 17.042 59.2001 16.9147 58.8135 16.6592C58.427 16.4069 58.211 16.0101 58.165 15.4697H59.0645C59.1071 15.7054 59.1926 15.8869 59.3203 16.0146C59.5202 16.2112 59.8345 16.3095 60.2637 16.3096C60.942 16.3096 61.386 16.0702 61.5957 15.5918C61.7201 15.3099 61.7774 14.8069 61.7676 14.083C61.5907 14.3517 61.3779 14.5515 61.1289 14.6826C60.8799 14.8137 60.5502 14.8799 60.1406 14.8799C59.5707 14.8798 59.0707 14.6783 58.6416 14.2754C58.2156 13.8691 58.0029 13.1985 58.0029 12.2646C58.0029 11.3833 58.2173 10.695 58.6465 10.2002C59.079 9.70541 59.6005 9.45801 60.21 9.45801ZM74.2275 13.8379L75.6484 9.55176H76.626C76.5014 9.88935 76.225 10.6593 75.7959 11.8613C75.4748 12.7656 75.2055 13.5031 74.9893 14.0732C74.4781 15.4167 74.1179 16.2363 73.9082 16.5312C73.6985 16.826 73.3381 16.9736 72.8271 16.9736C72.7028 16.9736 72.6059 16.9688 72.5371 16.959C72.4716 16.9492 72.3893 16.9305 72.291 16.9043V16.0986C72.4447 16.1411 72.5562 16.1669 72.625 16.1768C72.6938 16.1866 72.7552 16.1914 72.8076 16.1914C72.9712 16.1914 73.0907 16.164 73.166 16.1084C73.2445 16.0561 73.3099 15.9906 73.3623 15.9121C73.3787 15.8859 73.4385 15.7513 73.54 15.5088C73.6416 15.2663 73.7149 15.0857 73.7607 14.9678L71.8145 9.55176H72.8174L74.2275 13.8379ZM43.9209 9.41406C44.7139 9.41406 45.2861 9.64701 45.6367 10.1123C45.8561 10.4071 45.9626 10.7248 45.9561 11.0654H45.1201C45.1037 10.8656 45.0337 10.6834 44.9092 10.5195C44.706 10.287 44.3537 10.1709 43.8525 10.1709C43.5185 10.1709 43.2645 10.2346 43.0908 10.3623C42.9204 10.4901 42.835 10.6594 42.835 10.8691C42.8351 11.0982 42.9481 11.2814 43.1738 11.4189C43.3049 11.5008 43.4984 11.5735 43.7539 11.6357L44.3389 11.7783C44.9746 11.9323 45.4009 12.0814 45.6172 12.2256C45.9611 12.4517 46.1328 12.8072 46.1328 13.292C46.1328 13.7604 45.9546 14.1651 45.5977 14.5059C45.2438 14.8466 44.7029 15.0175 43.9756 15.0176C43.1926 15.0176 42.6373 14.8401 42.3096 14.4863C41.9852 14.1292 41.811 13.6883 41.7881 13.1641H42.6387C42.6649 13.459 42.7381 13.6855 42.8594 13.8428C43.0822 14.1278 43.4691 14.2705 44.0195 14.2705C44.3472 14.2705 44.6357 14.1995 44.8848 14.0586C45.1336 13.9145 45.2577 13.6935 45.2578 13.3955C45.2578 13.1694 45.1579 12.9969 44.958 12.8789C44.8301 12.8069 44.5777 12.7239 44.2012 12.6289L43.499 12.4512C43.0503 12.3398 42.7189 12.2157 42.5059 12.0781C42.1258 11.8389 41.9355 11.5077 41.9355 11.085C41.9356 10.587 42.1145 10.184 42.4717 9.87598C42.832 9.56815 43.315 9.41412 43.9209 9.41406ZM112.802 9.41406C113.594 9.41415 114.166 9.6471 114.517 10.1123C114.736 10.4071 114.842 10.7247 114.836 11.0654H114.001C113.985 10.8655 113.914 10.6834 113.789 10.5195C113.586 10.2871 113.234 10.1709 112.732 10.1709C112.398 10.1709 112.144 10.2346 111.971 10.3623C111.8 10.4901 111.715 10.6594 111.715 10.8691C111.715 11.0984 111.829 11.2814 112.055 11.4189C112.186 11.5008 112.378 11.5735 112.634 11.6357L113.219 11.7783C113.854 11.9323 114.281 12.0814 114.497 12.2256C114.841 12.4517 115.013 12.8071 115.013 13.292C115.013 13.7605 114.835 14.1651 114.478 14.5059C114.124 14.8466 113.583 15.0176 112.855 15.0176C112.072 15.0176 111.517 14.8401 111.189 14.4863C110.865 14.1292 110.691 13.6883 110.668 13.1641H111.519C111.545 13.459 111.618 13.6855 111.739 13.8428C111.962 14.1278 112.349 14.2705 112.899 14.2705C113.227 14.2705 113.516 14.1995 113.765 14.0586C114.014 13.9145 114.139 13.6935 114.139 13.3955C114.139 13.1695 114.039 12.9969 113.839 12.8789C113.711 12.8068 113.458 12.7239 113.081 12.6289L112.379 12.4512C111.93 12.3398 111.599 12.2157 111.386 12.0781C111.006 11.8389 110.815 11.5077 110.815 11.085C110.815 10.587 110.994 10.184 111.352 9.87598C111.712 9.56803 112.196 9.41406 112.802 9.41406ZM101.851 9.42383C102.47 9.42384 102.973 9.54151 103.359 9.77734C103.743 10.0133 103.935 10.3808 103.935 10.8789V13.9111C103.935 14.0029 103.952 14.0771 103.988 14.1328C104.028 14.1884 104.108 14.2158 104.229 14.2158C104.269 14.2158 104.313 14.2142 104.362 14.2109C104.411 14.2044 104.464 14.1963 104.52 14.1865V14.8398C104.382 14.8791 104.277 14.9042 104.205 14.9141C104.133 14.9239 104.035 14.9287 103.91 14.9287C103.605 14.9287 103.384 14.8207 103.246 14.6045C103.174 14.4899 103.123 14.3277 103.094 14.1182C102.914 14.3539 102.655 14.5589 102.317 14.7324C101.98 14.906 101.608 14.9921 101.202 14.9922C100.714 14.9922 100.313 14.8447 100.002 14.5498C99.6943 14.2517 99.5401 13.88 99.54 13.4346C99.54 12.9464 99.6924 12.5675 99.9971 12.2988C100.302 12.0301 100.702 11.865 101.197 11.8027L102.607 11.626C102.811 11.5998 102.947 11.5143 103.016 11.3701C103.055 11.2915 103.074 11.1785 103.074 11.0312C103.074 10.7298 102.966 10.5113 102.75 10.377C102.537 10.2394 102.231 10.1709 101.831 10.1709C101.369 10.1709 101.041 10.2951 100.848 10.5439C100.74 10.6816 100.669 10.8872 100.637 11.1592H99.8105C99.8269 10.5107 100.037 10.06 100.439 9.80762C100.846 9.55203 101.316 9.42383 101.851 9.42383ZM67.5479 10.1904C67.7412 9.93812 67.9725 9.7463 68.2412 9.61523C68.5099 9.48095 68.8017 9.41406 69.1162 9.41406C69.7712 9.41411 70.3018 9.63998 70.708 10.0918C71.1176 10.5407 71.3232 11.2048 71.3232 12.083C71.3232 12.9152 71.1217 13.6068 70.7188 14.1572C70.3157 14.7077 69.7563 14.9824 69.042 14.9824C68.6423 14.9824 68.3045 14.8857 68.0293 14.6924C67.8657 14.5777 67.6904 14.3945 67.5039 14.1426V14.8154H66.6875V7.57129H67.5479V10.1904ZM48.0303 13.0459C48.0303 13.3146 48.073 13.5347 48.1582 13.7051C48.3155 14.0195 48.609 14.1768 49.0381 14.1768C49.654 14.1767 50.0731 13.901 50.2959 13.3506C50.4171 13.0557 50.4775 12.651 50.4775 12.1367V9.55176H51.3623V14.8154H50.5273L50.5371 14.0391C50.4225 14.2389 50.2797 14.4073 50.1094 14.5449C49.7719 14.8201 49.3624 14.958 48.8809 14.958C48.1305 14.958 47.6186 14.7074 47.3467 14.2061C47.1993 13.9374 47.126 13.5786 47.126 13.1299V9.55176H48.0303V13.0459ZM86.6826 13.0459C86.6826 13.3146 86.7254 13.5347 86.8105 13.7051C86.9679 14.0195 87.2613 14.1768 87.6904 14.1768C88.3063 14.1767 88.7255 13.901 88.9482 13.3506C89.0694 13.0557 89.1299 12.651 89.1299 12.1367V9.55176H90.0146V14.8154H89.1797L89.1895 14.0391C89.0748 14.2388 88.932 14.4073 88.7617 14.5449C88.4243 14.8201 88.0147 14.9579 87.5332 14.958C86.7828 14.958 86.271 14.7074 85.999 14.2061C85.8517 13.9374 85.7783 13.5786 85.7783 13.1299V9.55176H86.6826V13.0459ZM55.3096 9.43359C56.0565 9.43361 56.5611 9.69404 56.8232 10.2148C56.9674 10.4999 57.04 10.9086 57.04 11.4395V14.8154H56.1406V11.498C56.1406 11.1772 56.0929 10.9182 55.998 10.7217C55.8408 10.3941 55.5553 10.2295 55.1426 10.2295C54.9329 10.2295 54.7603 10.2513 54.626 10.2939C54.3836 10.3661 54.1707 10.5104 53.9873 10.7266C53.84 10.9001 53.7432 11.08 53.6973 11.2666C53.6547 11.4501 53.6338 11.7145 53.6338 12.0586V14.8154H52.749V9.55176H53.5889V10.2988C53.8379 9.99082 54.1023 9.76911 54.3809 9.63477C54.6593 9.50055 54.969 9.43359 55.3096 9.43359ZM81.0791 10.2646C81.2888 9.99928 81.4774 9.81224 81.6445 9.7041C81.9296 9.51736 82.285 9.42386 82.7109 9.42383C83.4744 9.42383 83.9927 9.69059 84.2646 10.2246C84.4121 10.5162 84.4854 10.9217 84.4854 11.4395V14.8154H83.5762V11.498C83.5762 11.1114 83.527 10.8277 83.4287 10.6475C83.2681 10.3592 82.9667 10.2149 82.5244 10.2148C82.1574 10.2148 81.8246 10.3414 81.5264 10.5938C81.2284 10.8461 81.0792 11.3226 81.0791 12.0234V14.8154H80.1943V7.57129H81.0791V10.2646ZM96.832 9.43359C97.5398 9.43359 98.0217 9.68909 98.2773 10.2002C98.415 10.4754 98.4834 10.8462 98.4834 11.3115V14.8154H97.5645V11.1592C97.5645 10.8086 97.4758 10.5676 97.2988 10.4365C97.1252 10.3055 96.9124 10.2393 96.6602 10.2393C96.3128 10.2393 96.0131 10.3562 95.7607 10.5889C95.5118 10.8215 95.3867 11.21 95.3867 11.7539V14.8154H94.4873V11.3799C94.4873 11.023 94.4454 10.7625 94.3604 10.5986C94.226 10.3529 93.9744 10.2295 93.6074 10.2295C93.2734 10.2296 92.9685 10.3594 92.6934 10.6182C92.4216 10.877 92.2862 11.3455 92.2861 12.0234V14.8154H91.4014V9.55176H92.2764V10.2988C92.4859 10.0401 92.6754 9.85135 92.8457 9.7334C93.1373 9.53352 93.4686 9.4336 93.8389 9.43359C94.2583 9.43359 94.596 9.53673 94.8516 9.74316C94.9957 9.86113 95.1262 10.0353 95.2441 10.2646C95.4407 9.98285 95.6721 9.77399 95.9375 9.63965C96.2029 9.50207 96.5012 9.43361 96.832 9.43359ZM107.95 9.43359C108.697 9.43361 109.202 9.69404 109.464 10.2148C109.608 10.4999 109.681 10.9086 109.681 11.4395V14.8154H108.781V11.498C108.781 11.1772 108.734 10.9182 108.639 10.7217C108.481 10.3941 108.196 10.2295 107.783 10.2295C107.573 10.2295 107.401 10.2513 107.267 10.2939C107.024 10.3661 106.811 10.5104 106.628 10.7266C106.481 10.9001 106.384 11.08 106.338 11.2666C106.295 11.4501 106.274 11.7145 106.274 12.0586V14.8154H105.39V9.55176H106.229V10.2988C106.479 9.99082 106.743 9.76911 107.021 9.63477C107.3 9.50055 107.61 9.43359 107.95 9.43359ZM103.05 12.1367C102.942 12.2055 102.802 12.2627 102.632 12.3086C102.462 12.3544 102.295 12.3876 102.131 12.4072L101.595 12.4756C101.274 12.5182 101.033 12.586 100.872 12.6777C100.6 12.8318 100.465 13.0777 100.465 13.415C100.465 13.6704 100.558 13.8721 100.744 14.0195C100.931 14.167 101.153 14.2402 101.408 14.2402C101.719 14.2402 102.021 14.1686 102.312 14.0244C102.804 13.7852 103.05 13.3935 103.05 12.8496V12.1367ZM69.0127 10.2051C68.6098 10.2051 68.2559 10.3543 67.9512 10.6523C67.6497 10.9505 67.499 11.4422 67.499 12.127C67.499 12.6216 67.5611 13.0231 67.6855 13.3311C67.9182 13.911 68.3526 14.2012 68.9883 14.2012C69.4666 14.2011 69.8237 14.0109 70.0596 13.6309C70.2987 13.2508 70.4189 12.7495 70.4189 12.127C70.4189 11.5733 70.2987 11.1147 70.0596 10.751C69.8236 10.3873 69.4747 10.2051 69.0127 10.2051ZM60.3721 10.2393C59.7495 10.2393 59.3231 10.5311 59.0938 11.1143C58.9725 11.4255 58.9121 11.8343 58.9121 12.3389C58.9122 12.9317 59.0323 13.3841 59.2715 13.6953C59.5139 14.003 59.8381 14.1572 60.2441 14.1572C60.8798 14.1572 61.3271 13.8703 61.5859 13.2969C61.7301 12.9725 61.8027 12.5937 61.8027 12.1611C61.8027 11.5094 61.6679 11.0264 61.3994 10.7119C61.1307 10.3974 60.7882 10.2393 60.3721 10.2393Z" fill="black"/>
</svg>
