<svg width="29" height="36" viewBox="0 0 29 36" fill="none" xmlns="http://www.w3.org/2000/svg">
<path d="M10.7764 14.3074L14.8423 10.2415M14.8423 10.2415L18.9082 14.3074M14.8423 10.2415V24.2069" stroke="white" stroke-width="2.48" stroke-linecap="round"/>
<path d="M11.052 32.5716L11.3065 26.0707H6.37187C5.92352 26.0709 4.98199 25.717 4.80265 24.3C4.6233 22.8831 4.42902 21.4554 4.3543 20.9187C4.36925 20.704 4.07632 20.2746 2.78507 20.2746C1.171 20.2746 1.30551 18.3424 1.79869 17.4568C2.19324 16.7484 3.18858 14.2633 3.63693 13.1094V10.2513C3.51737 7.46037 5.82489 1.95091 16.0115 2.24074C20.2708 2.17365 28.377 4.82505 26.7271 15.9674C26.5776 16.9604 25.5703 19.5017 22.7367 21.7238C22.3631 21.9787 21.7593 22.8992 22.3332 24.5416C22.9071 26.1839 23.7381 29.6002 24.0818 31.103L14.8457 33.8" stroke="white" stroke-width="2.48" stroke-linecap="round"/>
</svg>
