<svg width="29" height="35" viewBox="0 0 29 35" fill="none" xmlns="http://www.w3.org/2000/svg">
<path d="M11.1726 13.8354L15.2385 9.76953M15.2385 9.76953L19.3044 13.8354M15.2385 9.76953V23.7349" stroke="black" stroke-width="2.48" stroke-linecap="round"/>
<path d="M11.4485 32.0997L11.7029 25.5988H6.76836C6.32001 25.599 5.37847 25.2451 5.19913 23.8281C5.01979 22.4112 4.82551 20.9835 4.75079 20.4468C4.76573 20.2321 4.47281 19.8027 3.18155 19.8027C1.56748 19.8027 1.70199 17.8705 2.19518 16.9849C2.58973 16.2764 3.58506 13.7914 4.03341 12.6375V9.77941C3.91385 6.98845 6.22137 1.47898 16.4079 1.76881C20.6673 1.70172 28.7735 4.35313 27.1236 15.4955C26.9741 16.4884 25.9668 19.0298 23.1332 21.2519C22.7596 21.5068 22.1558 22.4273 22.7297 24.0697C23.3036 25.712 24.1346 29.1283 24.4783 30.6311L15.2422 33.3281" stroke="black" stroke-width="2.48" stroke-linecap="round"/>
</svg>
