<svg width="131" height="42" viewBox="0 0 131 42" fill="none" xmlns="http://www.w3.org/2000/svg">
<path d="M0.5 0.5H116C124.008 0.5 130.5 6.99187 130.5 15V41.5H15C6.99187 41.5 0.5 35.0081 0.5 27V0.5Z" fill="black" stroke="#ACACAC"/>
<path d="M17.9605 24.1575C21.4266 26.9643 26.3836 26.9643 29.8497 24.1575L28.5095 22.5026C25.8248 24.6766 21.9854 24.6766 19.3007 22.5026L17.9605 24.1575Z" fill="white"/>
<path d="M19.404 20.5134V17.6365H21.5336V20.5134H19.404Z" fill="white"/>
<path d="M26.012 17.6365V20.5134H28.1415V17.6365H26.012Z" fill="white"/>
<path fill-rule="evenodd" clip-rule="evenodd" d="M35 21.5C35 27.8513 29.8513 33 23.5 33C17.1487 33 12 27.8513 12 21.5C12 15.1487 17.1487 10 23.5 10C29.8513 10 35 15.1487 35 21.5ZM32.8705 21.5C32.8705 26.6752 28.6752 30.8705 23.5 30.8705C18.3248 30.8705 14.1295 26.6752 14.1295 21.5C14.1295 16.3248 18.3248 12.1295 23.5 12.1295C28.6752 12.1295 32.8705 16.3248 32.8705 21.5Z" fill="white"/>
<path fill-rule="evenodd" clip-rule="evenodd" d="M104.32 26.2505C104.32 25.9898 104.336 25.4196 104.336 25.4196H100.424V23.8717H104.573C104.764 26.2238 105.11 28.471 105.651 30.2984C104.776 31.2876 103.759 32.1157 102.612 32.7515C103.107 33.2077 103.953 34.2016 104.288 34.7067C105.138 34.1597 105.93 33.5082 106.658 32.7639C107.338 33.9391 108.193 34.6415 109.254 34.6415C110.898 34.6415 111.649 33.9572 112 30.78C111.377 30.5356 110.563 29.9817 110.036 29.4277C109.956 31.4155 109.765 32.2301 109.445 32.2301C109.06 32.2301 108.67 31.686 108.312 30.7655C109.465 29.1244 110.389 27.1985 111.058 25.0611L108.711 24.4908C108.396 25.6095 107.983 26.659 107.478 27.6243C107.264 26.4884 107.09 25.2105 106.974 23.8717H111.84V21.5418H110.142L110.946 20.6945C110.387 20.1568 109.27 19.4399 108.455 19L107.05 20.4175C107.553 20.7329 108.148 21.1437 108.647 21.5418H106.835C106.811 20.7923 106.808 20.0385 106.827 19.2933H104.384C104.387 20.0364 104.403 20.7892 104.433 21.5418H97.9812V26.4297C97.9812 28.5642 97.9014 31.4481 96.7199 33.3707C97.2468 33.6477 98.3006 34.5275 98.6997 35C99.5135 33.7498 99.9567 32.0088 100.189 30.2753C100.506 30.8638 100.745 31.7506 100.775 32.4257C101.51 32.4257 102.18 32.4094 102.612 32.3279C103.091 32.2301 103.458 32.0672 103.809 31.5947C104.192 31.0733 104.272 29.5743 104.32 26.2505ZM100.197 30.2141C100.316 29.3052 100.378 28.4 100.406 27.5703H102.058C102.023 29.1922 101.963 29.8644 101.829 30.0631C101.701 30.2261 101.558 30.275 101.35 30.275C101.102 30.275 100.674 30.2596 100.197 30.2141Z" fill="white"/>
<path d="M85.8673 22.112C86.1314 21.4187 86.3672 20.705 86.565 19.9939L84.1541 19.4399C83.6112 21.6395 82.5893 23.8717 81.3599 25.2077C81.9507 25.5336 82.9885 26.2342 83.4515 26.6415C83.9297 26.0332 84.4007 25.2744 84.839 24.4257H87.9062V26.9185H83.7709V29.1996H87.9062V32.002H81.8708V34.3157H96.4005V32.002H90.3332V29.1996H94.9156V26.9185H90.3332V24.4257H95.5543V22.112H90.3332V19.277H87.9062V22.112H85.8673Z" fill="white"/>
<path d="M46.3436 28.4645C46.4377 28.0285 46.4856 27.6141 46.4988 27.2444H42.8462V25.11H46.5026V23.4807H42.6866V21.2811H46.5026V19.3585H48.8018V27C48.8018 29.8513 47.9396 33.0611 44.0278 34.9837C43.6446 34.4134 42.9261 33.6802 42.3672 33.224C43.7784 32.6761 44.7414 31.786 45.3804 30.8057C44.6568 30.9237 43.9507 31.0375 43.2921 31.1436L42.4151 31.2851L42 28.9226C43.1273 28.8236 44.7056 28.6496 46.3436 28.4645Z" fill="white"/>
<path fill-rule="evenodd" clip-rule="evenodd" d="M71.6755 34.3304L66.632 19.7975H63.2696L58.1875 34.3304H61.2986L62.2841 31.3429H67.5305L68.4484 34.3304H71.6755ZM64.9218 23.1201L66.6996 28.8386H63.0861L64.9218 23.1201Z" fill="white"/>
<path d="M52.7456 19.3585V21.2811H56.9289V23.4807H52.7456V25.11H56.5457V27.2444H52.7456V28.9063H57.2163V31.1059H52.7456V34.7556H50.4144V19.3585H52.7456Z" fill="white"/>
<path d="M74.2124 22.2695V31.8617H72.4582V34.3337H78.7189V31.8617H77.169V22.2695H78.7189V19.7975H72.4582V22.2695H74.2124Z" fill="white"/>
<path d="M48.0973 14.2843L47.6212 14.7745C48.7657 15.1373 49.9204 15.6078 50.6091 15.9804L51.2269 15.4706C50.4876 15.098 49.2418 14.6373 48.0973 14.2843Z" fill="white"/>
<path d="M45.1195 14.2843L45.8184 14.7157C44.9676 15.2157 43.6104 15.7255 42.5267 16C42.4153 15.8529 42.1621 15.598 42 15.4608C43.0837 15.2059 44.4409 14.7059 45.1195 14.2843Z" fill="white"/>
<path d="M56.3776 7.20563C56.3791 7.13924 56.3805 7.07675 56.382 7.0195H57.2227L57.2217 7.06195C57.2136 7.41222 57.2026 7.88532 57.1573 8.43612C57.3001 9.58904 57.9168 13.7475 61.5272 15.3038C61.3044 15.4705 61.0816 15.7254 60.9702 15.9313C58.4237 14.7797 57.3266 12.3597 56.8287 10.5277C56.3515 12.4902 55.2729 14.6846 52.7966 15.9705C52.6649 15.7744 52.4117 15.5489 52.1788 15.392C56.239 13.4034 56.3398 8.89587 56.3775 7.20896L56.3776 7.20788L56.3776 7.20563Z" fill="white"/>
<path d="M91.0921 15.8234C91.4061 15.6862 91.5276 15.4705 91.5276 14.9803V7.08813H90.7883V14.9901C90.7883 15.1568 90.7376 15.196 90.5756 15.2058C90.3933 15.2058 89.8261 15.2058 89.2285 15.1862C89.3298 15.4215 89.4412 15.7548 89.4817 15.9705C90.2312 15.9705 90.7883 15.9509 91.0921 15.8234Z" fill="white"/>
<path d="M84.2859 7.35283C84.2018 7.70557 84.0995 8.06066 83.9841 8.40185H85.0657V7.0195H85.7849V8.40185H87.851V9.07832H85.7849V10.1077H88.2562V10.7842H85.7849V11.7744H87.8916V14.4705C87.8916 14.8038 87.8409 14.9901 87.5877 15.1077C87.3446 15.2254 86.9597 15.2352 86.3926 15.2254C86.3723 15.0391 86.2811 14.7744 86.1799 14.5881C86.6154 14.5979 86.9395 14.5979 87.061 14.5881C87.1623 14.5881 87.1927 14.5587 87.1927 14.4607V12.4411H85.7849V15.9999H85.0657V12.4411H83.7389V15.196H83.0502V11.7744H85.0657V10.7842H82.5843V10.1077H85.0657V9.07832H83.7299C83.5719 9.45749 83.3998 9.8003 83.2224 10.0783C83.0705 9.99989 82.7362 9.87244 82.5539 9.81362C83.0097 9.14695 83.3642 8.16656 83.5769 7.21558L84.2859 7.35283Z" fill="white"/>
<path d="M97.3809 9.33322C96.9415 10.1229 96.445 10.8374 95.9331 11.392C95.8217 11.2646 95.5179 10.9999 95.3457 10.8822C96.2674 9.97048 97.0878 8.53911 97.584 7.09793L98.3234 7.2842C98.1554 7.73776 97.9617 8.18966 97.7485 8.62734H102V9.33322H98.8602V10.7548H101.767V11.4313H98.8602V12.9117H101.909V13.6077H98.8602V15.9999H98.0803V9.33322H97.3809Z" fill="white"/>
<path d="M95.1532 7.0195L95.8825 7.24499C95.5955 7.95625 95.2395 8.67112 94.8393 9.34229V15.9901H94.0695V10.5024C93.7474 10.9376 93.4101 11.335 93.0668 11.6764C92.9959 11.4999 92.7629 11.1077 92.6212 10.9313C93.634 9.98028 94.5759 8.50969 95.1532 7.0195Z" fill="white"/>
<path d="M66.5204 15.4606C67.8996 14.2368 68.3058 12.1845 68.4289 9.95082H67.0167V9.24493H68.4591C68.4809 8.55426 68.4831 7.85285 68.4853 7.15937L68.4853 7.1567H69.2348C69.2307 7.85252 69.2253 8.55364 69.2019 9.24493H71.4529C71.4529 9.24493 71.4428 9.51944 71.4428 9.61748C71.3111 13.6665 71.1896 15.0489 70.8351 15.4802C70.6325 15.7449 70.43 15.8234 70.0957 15.8626C69.7818 15.892 69.2348 15.8822 68.698 15.8528C68.6778 15.6371 68.5967 15.3332 68.4549 15.1273C69.0323 15.1763 69.5589 15.1763 69.7818 15.1763C69.9539 15.1861 70.0654 15.1567 70.1768 15.0391C70.4372 14.7402 70.5783 13.4452 70.6873 9.95082H69.1708C69.0365 12.3821 68.6011 14.623 67.1079 15.99C66.9762 15.8234 66.7129 15.5783 66.5204 15.4606Z" fill="white"/>
<path d="M63.0059 13.4214C63.1416 13.1062 63.5681 11.9463 63.8309 10.794H62.4185V10.1273H66.8851V10.794H64.6112C64.3514 11.8285 63.9738 12.9247 63.5751 13.8163L65.9896 13.3247C65.8086 12.8136 65.5994 12.2732 65.4063 11.8136L66.0241 11.6469C66.4191 12.5194 66.8749 13.6959 67.0572 14.3724L66.3888 14.5979C66.3425 14.4109 66.2773 14.1879 66.1993 13.9443C63.3831 14.5568 63.0173 14.6617 62.7831 14.794C62.7426 14.6371 62.621 14.294 62.54 14.1077C62.702 14.0587 62.8337 13.8038 63.0059 13.4214Z" fill="white"/>
<path fill-rule="evenodd" clip-rule="evenodd" d="M43.6509 13.5H42.1924V14.1275H51.1864V13.5H49.7583V9.06863H46.9528V8.45098H50.9231V7.81373H46.9528V7H46.2033V7.81373H42.476V8.45098H46.2033V9.06863H43.6509V13.5ZM44.3802 13.5H48.9987V12.8137H44.3802V13.5ZM44.3802 12.3431H48.9987V11.7549H44.3802V12.3431ZM44.3802 11.2745H48.9987V10.6961H44.3802V11.2745ZM44.3802 10.2353H48.9987V9.58824H44.3802V10.2353Z" fill="white"/>
<path d="M88.9854 7.88224H89.6944V13.3136H88.9854V7.88224Z" fill="white"/>
<path d="M72.9824 7.65675H81.2674V8.35283H72.9824V7.65675Z" fill="white"/>
<path fill-rule="evenodd" clip-rule="evenodd" d="M78.715 13.7646V14.0587H79.4949V9.37244H74.7245V14.0881H75.474V13.7646H78.715ZM76.821 9.99989H75.474V11.3136H76.821V9.99989ZM77.449 9.99989V11.3136H78.715V9.99989H77.449ZM78.715 11.892H77.449V13.1371H78.715V11.892ZM75.474 13.1371H76.821V11.892H75.474V13.1371Z" fill="white"/>
<path d="M80.447 10.1568H81.2167V15.8626H80.447V15.4607H73.0533V10.1862H73.8129V14.7744H80.447V10.1568Z" fill="white"/>
<path d="M66.7027 7.78415H62.7831V8.45082H66.7027V7.78415Z" fill="white"/>
</svg>
