<svg width="131" height="42" viewBox="0 0 131 42" fill="none" xmlns="http://www.w3.org/2000/svg">
<path d="M0.5 0.5H116C124.008 0.5 130.5 6.99187 130.5 15V41.5H15C6.99187 41.5 0.5 35.0081 0.5 27V0.5Z" fill="white" stroke="black"/>
<path d="M17.9605 24.1575C21.4266 26.9643 26.3836 26.9643 29.8497 24.1575L28.5095 22.5026C25.8248 24.6766 21.9854 24.6766 19.3007 22.5026L17.9605 24.1575Z" fill="black"/>
<path d="M19.404 20.5134V17.6365H21.5336V20.5134H19.404Z" fill="black"/>
<path d="M26.012 17.6365V20.5134H28.1415V17.6365H26.012Z" fill="black"/>
<path fill-rule="evenodd" clip-rule="evenodd" d="M35 21.5C35 27.8513 29.8513 33 23.5 33C17.1487 33 12 27.8513 12 21.5C12 15.1487 17.1487 10 23.5 10C29.8513 10 35 15.1487 35 21.5ZM32.8705 21.5C32.8705 26.6752 28.6752 30.8705 23.5 30.8705C18.3248 30.8705 14.1295 26.6752 14.1295 21.5C14.1295 16.3248 18.3248 12.1295 23.5 12.1295C28.6752 12.1295 32.8705 16.3248 32.8705 21.5Z" fill="black"/>
<path d="M86.6858 11.7041C86.792 11.8852 86.905 12.1092 86.9949 12.3165H82.6953V12.9093H86.2504C85.2639 13.4851 83.8107 13.9482 82.5231 14.1728C82.6649 14.3089 82.8574 14.5519 82.9485 14.7171C83.5144 14.6023 84.1154 14.435 84.7007 14.2279V14.6685C84.7007 15.1156 84.4374 15.31 84.2753 15.4072C84.3693 15.5154 84.4894 15.7574 84.5467 15.916L84.5488 15.9515L84.5572 15.9464L84.5589 15.9515L84.559 15.9454C84.7526 15.8319 85.0924 15.7463 87.7392 15.1448C87.729 15.0087 87.7392 14.7657 87.7594 14.5908L85.4198 15.0724V13.9495C86.0996 13.6623 86.7259 13.3246 87.2096 12.9585C87.9884 14.4877 89.3849 15.4354 91.4157 15.8251C91.5069 15.6405 91.6993 15.378 91.8411 15.2322C90.8715 15.0779 90.0388 14.7901 89.3616 14.3756C89.968 14.1037 90.6634 13.7468 91.2132 13.3759L90.6561 12.9968C90.2011 13.3159 89.4664 13.722 88.8504 14.0146C88.4625 13.6991 88.1434 13.33 87.8984 12.9093H91.7095V12.3165H87.8246C87.7171 12.0699 87.5476 11.7521 87.3847 11.5098L86.6858 11.7041Z" fill="black"/>
<path d="M90.2814 11.2862C90.4333 11.2862 90.4738 11.2473 90.4738 11.121V7.09719H91.1625V11.1307C91.1625 11.5098 91.0815 11.675 90.7979 11.7819C90.5143 11.8791 90.0484 11.8888 89.3293 11.8888C89.2989 11.7041 89.1875 11.4612 89.0862 11.2765C89.6433 11.2959 90.1396 11.2959 90.2814 11.2862Z" fill="black"/>
<path d="M87.2429 11.5389C87.4556 11.4514 87.4961 11.3154 87.4961 11.0432V9.85747H85.6122V9.34235H87.7696V8.80779H85.6122V8.21491H87.4151V7.69979H85.6122V7H84.9539V7.69979H83.9965C84.0776 7.5253 84.1514 7.34799 84.2145 7.17495L83.617 7.03888C83.4347 7.56372 83.1511 8.11772 82.7966 8.51621C82.9485 8.58425 83.222 8.7106 83.3435 8.79807C83.4738 8.63393 83.6058 8.43365 83.7308 8.21491H84.9539V8.80779H82.6548V9.34235H84.9539V9.85747H83.1815V11.6847H83.7892V10.3532H84.9539V11.9374H85.6122V10.3532H86.8681V11.0529C86.8681 11.1307 86.8378 11.1501 86.7466 11.1599C86.6656 11.1696 86.4022 11.1696 86.0781 11.1599L86.0902 11.1829L86.1091 11.2185C86.1758 11.3441 86.2545 11.4924 86.2807 11.6264C86.7264 11.6264 87.0302 11.6264 87.2429 11.5389Z" fill="black"/>
<path d="M95.9332 11.3737C96.445 10.8238 96.9416 10.1155 97.3809 9.33265H98.0804V15.9418H98.8602V13.5703H101.909V12.8802H98.8602V11.4126H101.767V10.7419H98.8602V9.33265H102V8.63286H97.7486C97.9618 8.19896 98.1555 7.75096 98.3234 7.30132L97.5841 7.11665C97.0878 8.54539 96.2674 9.9644 95.3457 10.8683C95.5179 10.9849 95.8218 11.2474 95.9332 11.3737Z" fill="black"/>
<path d="M95.8825 7.26244L95.1533 7.0389C94.576 8.51623 93.6341 9.97412 92.6212 10.9169C92.763 11.0918 92.996 11.4806 93.0669 11.6556C93.4101 11.3171 93.7475 10.9232 94.0696 10.4917V15.9321H94.8393V9.34164C95.2396 8.67626 95.5956 7.96756 95.8825 7.26244Z" fill="black"/>
<path fill-rule="evenodd" clip-rule="evenodd" d="M62.2969 14.96C62.9035 14.9076 63.6686 14.8387 64.5049 14.7603V13.9104H62.5805V13.3564H64.5049V12.7635H62.6008V9.84768H64.5049V9.23537H62.3071V8.67165H64.5049V8.0163C63.8533 8.07046 63.1933 8.10809 62.5907 8.12737C62.5603 7.97186 62.4894 7.72888 62.4083 7.58309C63.9175 7.50533 65.7608 7.33038 66.804 7.09712L67.1889 7.66084C66.6388 7.77714 65.9429 7.87492 65.2037 7.95132V8.67165H67.3611V9.23537H65.2037V9.84768H67.1686V12.7635H65.2037V13.3564H67.199V13.9104H65.2037V14.6942C65.8677 14.6307 66.5593 14.5628 67.2395 14.4935L67.24 14.5195C68.116 13.3599 68.3869 11.7867 68.4729 9.9546H67.2902V9.27424H68.4969C68.512 8.67044 68.5135 8.04214 68.515 7.39449L68.5157 7.12628H69.2449C69.243 7.86649 69.241 8.58463 69.2222 9.27424H71.382C71.382 9.27424 71.3719 9.54638 71.3719 9.64358C71.2604 13.7451 71.1592 15.1058 70.8249 15.5238C70.6426 15.7765 70.4401 15.8639 70.1362 15.8931C69.8526 15.9222 69.3665 15.9222 68.9006 15.8931C68.8803 15.689 68.7993 15.3877 68.6777 15.1933C69.174 15.2322 69.6197 15.2419 69.8222 15.2419C69.9843 15.2419 70.0856 15.2127 70.1767 15.0864C70.4188 14.7984 70.5313 13.5066 70.638 9.9546H69.1971C69.0727 12.5619 68.607 14.7042 66.804 16C66.6825 15.8251 66.4191 15.5918 66.2368 15.4752C66.3937 15.3674 66.5397 15.2528 66.6756 15.1316C65.1294 15.3055 63.5525 15.4794 62.4083 15.5918L62.2969 14.96ZM63.2389 12.2581H64.5049V11.5388H63.2389V12.2581ZM66.5204 12.2581H65.2037V11.5388H66.5204V12.2581ZM66.5204 11.0529H65.2037V10.3531H66.5204V11.0529ZM64.5049 10.3531V11.0529H63.2389V10.3531H64.5049Z" fill="black"/>
<path d="M56.3775 7.22342C56.379 7.1576 56.3804 7.09566 56.3819 7.0389H57.2226L57.2216 7.08098C57.2135 7.42823 57.2025 7.89724 57.1572 8.44329C57.3 9.58626 57.9166 13.7088 61.5271 15.2517C61.3042 15.4169 61.0814 15.6696 60.97 15.8737C58.4236 14.7322 57.3265 12.333 56.8285 10.5169C56.3513 12.4623 55.2728 14.6378 52.7965 15.9126C52.6648 15.7182 52.4116 15.4947 52.1787 15.3392C56.2389 13.3677 56.3397 8.89907 56.3774 7.22672L56.3774 7.22565L56.3775 7.22342Z" fill="black"/>
<path d="M47.6212 14.7267L48.0972 14.2408C49.2417 14.5907 50.4875 15.0475 51.2269 15.4168L50.609 15.9222C49.9203 15.5529 48.7657 15.0864 47.6212 14.7267Z" fill="black"/>
<path d="M45.1195 14.2408L45.8184 14.6684C44.9676 15.1641 43.6104 15.6695 42.5267 15.9416C42.4153 15.7959 42.1621 15.5432 42 15.4071C43.0837 15.1544 44.4409 14.6587 45.1195 14.2408Z" fill="black"/>
<path fill-rule="evenodd" clip-rule="evenodd" d="M76.6489 8.55509H72.547V9.0119H76.6489V9.54646H73.5598V10.0033H76.6489V10.5087H73.3066V10.9655H76.6489V11.4709H72.5267V11.986H81.632V11.4709H77.4187V10.9655H80.9028V10.5087H77.4187V10.0033H80.4977V9.0119H81.6016V8.55509H80.4977V7.6026H77.4187V7H76.6489V7.6026H73.6206V8.0594H76.6489V8.55509ZM77.4187 8.0594V8.55509H79.738V8.0594H77.4187ZM79.738 9.0119H77.4187V9.54646H79.738V9.0119Z" fill="black"/>
<path d="M81.632 15.1448H72.5267V15.6696H81.632V15.1448Z" fill="black"/>
<path fill-rule="evenodd" clip-rule="evenodd" d="M73.6813 12.4039H80.5179V14.688H73.6813V12.4039ZM74.4308 12.8413H76.6793V13.337H74.4308V12.8413ZM74.4308 13.7452H76.6793V14.2603H74.4308V13.7452ZM77.3883 13.7452V14.2603H79.7482V13.7452H77.3883ZM77.3883 12.8413V13.337H79.7482V12.8413H77.3883Z" fill="black"/>
<path d="M89.2382 7.5054H88.5494V10.6933H89.2382V7.5054Z" fill="black"/>
<path fill-rule="evenodd" clip-rule="evenodd" d="M43.6509 13.4632H42.1924V14.0853H51.1863V13.4632H49.7583V9.0701H46.9527V8.45779H50.923V7.82603H46.9527V7.01933H46.2032V7.82603H42.476V8.45779H46.2032V9.0701H43.6509V13.4632ZM44.3801 13.4632V12.7829H48.9986V13.4632H44.3801ZM48.9986 12.3163V11.7332H44.3801V12.3163H48.9986ZM44.3801 11.2569H48.9986V10.6835H44.3801V11.2569ZM48.9986 10.2267H44.3801V9.58523H48.9986V10.2267Z" fill="black"/>
<path fill-rule="evenodd" clip-rule="evenodd" d="M104.32 26.2505C104.32 25.9898 104.336 25.4196 104.336 25.4196H100.424V23.8717H104.573C104.764 26.2238 105.11 28.471 105.651 30.2984C104.776 31.2876 103.759 32.1157 102.612 32.7515C103.107 33.2077 103.953 34.2016 104.288 34.7067C105.138 34.1597 105.93 33.5082 106.658 32.7639C107.338 33.9391 108.193 34.6415 109.254 34.6415C110.898 34.6415 111.649 33.9572 112 30.78C111.377 30.5356 110.563 29.9817 110.036 29.4277C109.956 31.4155 109.765 32.2301 109.445 32.2301C109.06 32.2301 108.67 31.686 108.312 30.7655C109.465 29.1244 110.389 27.1985 111.058 25.0611L108.711 24.4908C108.396 25.6095 107.983 26.659 107.478 27.6243C107.264 26.4884 107.09 25.2105 106.974 23.8717H111.84V21.5418H110.142L110.946 20.6945C110.387 20.1568 109.27 19.4399 108.455 19L107.05 20.4175C107.553 20.7329 108.148 21.1437 108.647 21.5418H106.835C106.811 20.7923 106.808 20.0385 106.827 19.2933H104.384C104.387 20.0364 104.403 20.7892 104.433 21.5418H97.9812V26.4297C97.9812 28.5642 97.9014 31.4481 96.7199 33.3707C97.2468 33.6477 98.3006 34.5275 98.6997 35C99.5135 33.7498 99.9567 32.0088 100.189 30.2753C100.506 30.8638 100.745 31.7506 100.775 32.4257C101.51 32.4257 102.18 32.4094 102.612 32.3279C103.091 32.2301 103.458 32.0672 103.809 31.5947C104.192 31.0733 104.272 29.5743 104.32 26.2505ZM100.197 30.2141C100.316 29.3052 100.378 28.4 100.406 27.5703H102.058C102.023 29.1922 101.963 29.8644 101.829 30.0631C101.701 30.2261 101.558 30.275 101.35 30.275C101.102 30.275 100.674 30.2596 100.197 30.2141Z" fill="black"/>
<path d="M85.8673 22.112C86.1314 21.4187 86.3672 20.705 86.565 19.9939L84.1541 19.4399C83.6112 21.6395 82.5893 23.8717 81.3599 25.2077C81.9507 25.5336 82.9885 26.2342 83.4515 26.6415C83.9297 26.0332 84.4007 25.2744 84.839 24.4257H87.9062V26.9185H83.7709V29.1996H87.9062V32.002H81.8708V34.3157H96.4005V32.002H90.3332V29.1996H94.9156V26.9185H90.3332V24.4257H95.5543V22.112H90.3332V19.277H87.9062V22.112H85.8673Z" fill="black"/>
<path d="M46.3436 28.4645C46.4377 28.0285 46.4856 27.6141 46.4988 27.2444H42.8462V25.11H46.5026V23.4807H42.6866V21.2811H46.5026V19.3585H48.8018V27C48.8018 29.8513 47.9396 33.0611 44.0278 34.9837C43.6446 34.4134 42.9261 33.6802 42.3672 33.224C43.7784 32.6761 44.7414 31.786 45.3804 30.8057C44.6568 30.9237 43.9507 31.0375 43.2921 31.1436L42.4151 31.2851L42 28.9226C43.1273 28.8236 44.7056 28.6496 46.3436 28.4645Z" fill="black"/>
<path fill-rule="evenodd" clip-rule="evenodd" d="M71.6755 34.3304L66.632 19.7975H63.2696L58.1875 34.3304H61.2986L62.2841 31.3429H67.5305L68.4484 34.3304H71.6755ZM64.9218 23.1201L66.6996 28.8386H63.0861L64.9218 23.1201Z" fill="black"/>
<path d="M52.7456 19.3585V21.2811H56.9289V23.4807H52.7456V25.11H56.5457V27.2444H52.7456V28.9063H57.2163V31.1059H52.7456V34.7556H50.4144V19.3585H52.7456Z" fill="black"/>
<path d="M74.2124 22.2695V31.8617H72.4582V34.3337H78.7189V31.8617H77.169V22.2695H78.7189V19.7975H72.4582V22.2695H74.2124Z" fill="black"/>
</svg>
