<svg width="131" height="42" viewBox="0 0 131 42" fill="none" xmlns="http://www.w3.org/2000/svg">
<path d="M116 0.5C124.008 0.5 130.5 6.99187 130.5 15V41.5H15C6.99187 41.5 0.5 35.0081 0.5 27V0.5H116Z" fill="white" stroke="black"/>
<path d="M28.8497 24.1575C25.3836 26.9643 20.4266 26.9643 16.9605 24.1575L18.3007 22.5026C20.9854 24.6766 24.8248 24.6766 27.5095 22.5026L28.8497 24.1575Z" fill="black"/>
<path d="M18.404 17.6365V20.5134H20.5336V17.6365H18.404Z" fill="black"/>
<path d="M25.012 17.6365V20.5134H27.1415V17.6365H25.012Z" fill="black"/>
<path fill-rule="evenodd" clip-rule="evenodd" d="M22.5 33C28.8513 33 34 27.8513 34 21.5C34 15.1487 28.8513 10 22.5 10C16.1487 10 11 15.1487 11 21.5C11 27.8513 16.1487 33 22.5 33ZM22.5 30.8705C27.6752 30.8705 31.8705 26.6752 31.8705 21.5C31.8705 16.3248 27.6752 12.1295 22.5 12.1295C17.3248 12.1295 13.1295 16.3248 13.1295 21.5C13.1295 26.6752 17.3248 30.8705 22.5 30.8705Z" fill="black"/>
<path fill-rule="evenodd" clip-rule="evenodd" d="M90.123 32.15L94.7605 19.2822H97.8286L102.431 32.15H99.4861L98.6486 29.5049H93.8612L92.9619 32.15H90.123ZM96.2681 22.2242L94.593 27.2875H97.8903L96.2681 22.2242Z" fill="black"/>
<path fill-rule="evenodd" clip-rule="evenodd" d="M77.306 23.7781C76.5948 22.876 75.6074 22.425 74.3437 22.425C73.6442 22.425 73.0682 22.5705 72.6156 22.8615C72.2336 23.0943 71.8839 23.4318 71.5665 23.8741V19.2997H69.0626V32.15H71.5224V30.954C71.8574 31.4196 72.1689 31.7455 72.4569 31.9318C72.9389 32.2461 73.5766 32.4032 74.3701 32.4032C75.6338 32.4032 76.6183 31.9172 77.3236 30.9453C78.029 29.9734 78.3816 28.7483 78.3816 27.27C78.3816 25.8442 78.0231 24.6802 77.306 23.7781ZM75.2077 29.5747C74.8491 30.0927 74.3466 30.3517 73.7001 30.3517C72.9536 30.3517 72.3981 30.084 72.0337 29.5485C71.6693 29.0131 71.4871 28.338 71.4871 27.5232C71.4871 26.8306 71.5753 26.2661 71.7516 25.8296C72.0925 25.009 72.7185 24.5987 73.6295 24.5987C74.5288 24.5987 75.146 25.0177 75.481 25.8558C75.6573 26.2981 75.7455 26.8568 75.7455 27.5319C75.7455 28.3758 75.5662 29.0567 75.2077 29.5747Z" fill="black"/>
<path d="M63.2277 30.2556C63.1278 30.1567 63.0779 29.9123 63.0779 29.5223V24.4939H64.6384V22.7218H63.0779V20.0679H60.5916V22.7218H59.2515V24.4939H60.5916V30.3517C60.5916 30.9453 60.7327 31.3847 61.0148 31.6699C61.4497 32.118 62.2609 32.3217 63.4482 32.281L64.6384 32.2373V30.3779C64.5561 30.3837 64.4709 30.3895 64.3827 30.3953H64.1447C63.6333 30.3953 63.3277 30.3488 63.2277 30.2556Z" fill="black"/>
<path fill-rule="evenodd" clip-rule="evenodd" d="M57.9371 30.9977C58.7483 30.0025 59.1538 28.8065 59.1538 27.4097C59.1538 26.0362 58.7483 24.8461 57.9371 23.8392C57.126 22.8324 55.8946 22.3289 54.243 22.3289C52.5914 22.3289 51.36 22.8324 50.5489 23.8392C49.7378 24.8461 49.3322 26.0362 49.3322 27.4097C49.3322 28.8065 49.7378 30.0025 50.5489 30.9977C51.36 31.9871 52.5914 32.4818 54.243 32.4818C55.8946 32.4818 57.126 31.9871 57.9371 30.9977ZM55.927 29.6184C55.5332 30.1363 54.9689 30.3953 54.2342 30.3953C53.4995 30.3953 52.9323 30.1363 52.5326 29.6184C52.1388 29.1004 51.9419 28.3642 51.9419 27.4097C51.9419 26.4553 52.1388 25.7219 52.5326 25.2098C52.9323 24.6918 53.4995 24.4328 54.2342 24.4328C54.9689 24.4328 55.5332 24.6918 55.927 25.2098C56.3208 25.7219 56.5177 26.4553 56.5177 27.4097C56.5177 28.3642 56.3208 29.1004 55.927 29.6184Z" fill="black"/>
<path d="M44.9321 22.4075C45.9254 22.4075 46.7365 22.6665 47.3654 23.1845C48.0002 23.6966 48.3176 24.5492 48.3176 25.7423V32.15H45.7432V26.3621C45.7432 25.8616 45.6756 25.4775 45.5404 25.2098C45.2935 24.7209 44.8233 24.4765 44.1298 24.4765C43.2775 24.4765 42.6927 24.8344 42.3753 25.5503C42.2107 25.9286 42.1284 26.4116 42.1284 26.9994V32.15H39.6245V22.6519H42.0491V24.04C42.3723 23.5511 42.678 23.199 42.966 22.9837C43.4832 22.5996 44.1386 22.4075 44.9321 22.4075Z" fill="black"/>
<path d="M79.8547 33.9746L80.1721 33.992C80.4189 34.0037 80.6541 33.9949 80.8774 33.9658C81.1008 33.9367 81.2888 33.8698 81.4417 33.765C81.5886 33.6661 81.7238 33.4595 81.8472 33.1452C81.9765 32.831 82.0294 32.6389 82.0059 32.5691L78.4793 22.6345H81.2741L83.3725 29.6533L85.3562 22.6345H88.0276L84.7302 31.9929C84.0954 33.7971 83.5929 34.9145 83.2226 35.3451C82.8523 35.7816 82.1117 35.9999 81.0008 35.9999C80.7775 35.9999 80.5982 35.997 80.463 35.9912C80.3278 35.9912 80.1251 35.9824 79.8547 35.965V33.9746Z" fill="black"/>
<path d="M104.746 29.9642V21.471H103.145V19.2822H108.858V21.471H107.444V29.9642H108.858V32.153H103.145V29.9642H104.746Z" fill="black"/>
<path d="M85.9844 13.8926L87.3252 9.84766H88.248C88.1305 10.1662 87.869 10.8934 87.4639 12.0283C87.1609 12.8816 86.9072 13.5772 86.7031 14.1152C86.2207 15.3831 85.8805 16.1563 85.6826 16.4346C85.4847 16.7128 85.1445 16.8525 84.6621 16.8525C84.5447 16.8525 84.4536 16.8472 84.3887 16.8379C84.3268 16.8286 84.249 16.8118 84.1562 16.7871V16.0264C84.3013 16.0665 84.4067 16.0913 84.4717 16.1006C84.5366 16.1099 84.5941 16.1142 84.6436 16.1143C84.7981 16.1143 84.9113 16.0886 84.9824 16.0361C85.0565 15.9867 85.1185 15.9247 85.168 15.8506C85.1834 15.8258 85.2391 15.6986 85.335 15.4697C85.4307 15.2411 85.5006 15.0713 85.5439 14.96L83.707 9.84766H84.6533L85.9844 13.8926Z" fill="black"/>
<path d="M121.059 9.71777C121.807 9.71778 122.347 9.93783 122.678 10.377C122.885 10.6551 122.985 10.9549 122.979 11.2764H122.19C122.175 11.0878 122.109 10.9163 121.991 10.7617C121.799 10.5422 121.466 10.4326 120.993 10.4326C120.678 10.4327 120.438 10.4927 120.274 10.6133C120.114 10.7339 120.033 10.893 120.033 11.0908C120.033 11.3073 120.14 11.4805 120.354 11.6104C120.477 11.6876 120.659 11.7557 120.9 11.8145L121.453 11.9492C122.053 12.0945 122.455 12.235 122.659 12.3711C122.984 12.5845 123.146 12.9203 123.146 13.3779C123.145 13.82 122.978 14.2019 122.641 14.5234C122.307 14.8451 121.796 15.0059 121.109 15.0059C120.37 15.0058 119.846 14.8388 119.537 14.5049C119.231 14.1678 119.067 13.7516 119.045 13.2568H119.848C119.872 13.5352 119.942 13.749 120.057 13.8975C120.267 14.1664 120.632 14.3008 121.151 14.3008C121.461 14.3008 121.733 14.2345 121.968 14.1016C122.203 13.9656 122.32 13.7568 122.32 13.4756C122.32 13.2622 122.226 13.0996 122.037 12.9883C121.917 12.9203 121.679 12.8416 121.323 12.752L120.659 12.585C120.236 12.4799 119.924 12.3622 119.723 12.2324C119.364 12.0067 119.185 11.6938 119.185 11.2949C119.185 10.8249 119.353 10.445 119.69 10.1543C120.031 9.86361 120.486 9.71777 121.059 9.71777Z" fill="black"/>
<path fill-rule="evenodd" clip-rule="evenodd" d="M68.542 9.73633C68.8945 9.73633 69.2365 9.82031 69.5674 9.9873C69.8981 10.1512 70.1501 10.3642 70.3232 10.627C70.4902 10.8774 70.6016 11.1699 70.6572 11.5039C70.7067 11.7328 70.7314 12.0978 70.7314 12.5986H67.0898C67.1053 13.1025 67.2247 13.5074 67.4473 13.8135C67.6699 14.1165 68.0147 14.2685 68.4814 14.2686C68.9174 14.2686 69.2656 14.1245 69.5254 13.8369C69.6738 13.6699 69.779 13.4764 69.8408 13.2568H70.6621C70.6405 13.4392 70.5679 13.6435 70.4443 13.8691C70.3237 14.0918 70.1876 14.2747 70.0361 14.417C69.7826 14.6644 69.4679 14.8314 69.0938 14.918C68.8928 14.9674 68.6655 14.9922 68.4121 14.9922C67.7937 14.9922 67.2697 14.7677 66.8398 14.3193C66.41 13.8678 66.1953 13.237 66.1953 12.4268C66.1953 11.6289 66.4118 10.9813 66.8447 10.4834C67.2776 9.98557 67.8432 9.73636 68.542 9.73633ZM68.4912 10.4648C68.1078 10.4648 67.7861 10.6036 67.5264 10.8818C67.2666 11.1571 67.1287 11.5088 67.1133 11.9355H69.873C69.839 11.5737 69.7604 11.2839 69.6367 11.0674C69.4079 10.6656 69.026 10.4649 68.4912 10.4648Z" fill="black"/>
<path fill-rule="evenodd" clip-rule="evenodd" d="M75.6211 7.97852V14.8154H74.8691V14.125C74.6744 14.4308 74.4444 14.6521 74.1787 14.7881C73.9128 14.9241 73.6078 14.9922 73.2646 14.9922C72.7111 14.9922 72.2313 14.7598 71.8262 14.2959C71.4213 13.8291 71.2188 13.2092 71.2188 12.4365C71.2188 11.713 71.4027 11.0864 71.7705 10.5576C72.1416 10.0257 72.6709 9.75977 73.3574 9.75977C73.7377 9.75979 74.0559 9.84024 74.3125 10.001C74.4609 10.0938 74.6297 10.2563 74.8184 10.4883V7.97852H75.6211ZM73.5146 10.4883C73.0942 10.4884 72.753 10.6492 72.4902 10.9707C72.2305 11.2923 72.1006 11.765 72.1006 12.3896C72.1006 12.9215 72.2128 13.3669 72.4385 13.7256C72.6642 14.0843 73.0265 14.2637 73.5244 14.2637C73.9109 14.2636 74.2282 14.0984 74.4756 13.7676C74.7261 13.4336 74.8506 12.9555 74.8506 12.334C74.8506 11.7062 74.7225 11.2424 74.4658 10.9424C74.2092 10.6393 73.8919 10.4883 73.5146 10.4883Z" fill="black"/>
<path fill-rule="evenodd" clip-rule="evenodd" d="M41.0244 9.72754C41.6089 9.72754 42.0833 9.83887 42.4482 10.0615C42.81 10.2842 42.9912 10.6306 42.9912 11.1006V13.9619C42.9912 14.0484 43.008 14.1183 43.042 14.1709C43.0791 14.2235 43.1551 14.25 43.2695 14.25C43.3066 14.25 43.3482 14.2482 43.3945 14.2451C43.4409 14.2389 43.4905 14.2309 43.543 14.2217V14.8389C43.4132 14.8759 43.3141 14.8989 43.2461 14.9082C43.1781 14.9175 43.0852 14.9229 42.9678 14.9229C42.6803 14.9228 42.4716 14.8203 42.3418 14.6162C42.2738 14.508 42.2261 14.355 42.1982 14.1572C42.0282 14.3799 41.7833 14.5734 41.4648 14.7373C41.1464 14.9011 40.7954 14.9824 40.4121 14.9824C39.9514 14.9824 39.574 14.8437 39.2803 14.5654C38.9897 14.2841 38.8439 13.9331 38.8438 13.5127C38.8438 13.0519 38.9878 12.694 39.2754 12.4404C39.5629 12.1869 39.9404 12.0314 40.4072 11.9727L41.7393 11.8057C41.9306 11.7809 42.0591 11.7002 42.124 11.5645C42.1611 11.4903 42.1797 11.3832 42.1797 11.2441C42.1797 10.9596 42.0771 10.7537 41.873 10.627C41.672 10.4971 41.383 10.4326 41.0059 10.4326C40.5698 10.4326 40.2606 10.5501 40.0781 10.7852C39.9762 10.915 39.9098 11.1079 39.8789 11.3643H39.0996C39.1151 10.7521 39.313 10.327 39.6934 10.0889C40.0768 9.84773 40.5204 9.72754 41.0244 9.72754ZM42.1562 12.2881C42.0542 12.353 41.9224 12.4069 41.7617 12.4502C41.6011 12.4934 41.4435 12.5244 41.2891 12.543L40.7832 12.6074C40.4803 12.6476 40.2531 12.7113 40.1016 12.7979C39.8449 12.9432 39.7168 13.1756 39.7168 13.4941C39.7169 13.7351 39.8043 13.9254 39.9805 14.0645C40.1567 14.2036 40.3662 14.2734 40.6074 14.2734C40.901 14.2734 41.1859 14.2053 41.4609 14.0693C41.9247 13.8436 42.1562 13.4732 42.1562 12.96V12.2881Z" fill="black"/>
<path fill-rule="evenodd" clip-rule="evenodd" d="M60.8691 9.72754C61.4536 9.72754 61.929 9.83887 62.2939 10.0615C62.6554 10.2842 62.8359 10.6308 62.8359 11.1006V13.9619C62.8359 14.0485 62.8537 14.1183 62.8877 14.1709C62.9248 14.2233 63.0001 14.25 63.1143 14.25C63.1514 14.25 63.1938 14.2482 63.2402 14.2451C63.2865 14.2389 63.3363 14.2309 63.3887 14.2217V14.8389C63.2591 14.8759 63.1598 14.8989 63.0918 14.9082C63.0239 14.9175 62.9308 14.9228 62.8135 14.9229C62.5259 14.9229 62.3164 14.8203 62.1865 14.6162C62.1186 14.508 62.0708 14.355 62.043 14.1572C61.8729 14.3798 61.6289 14.5735 61.3105 14.7373C60.992 14.9012 60.6403 14.9824 60.2568 14.9824C59.7962 14.9824 59.4187 14.8437 59.125 14.5654C58.8344 14.2841 58.6896 13.933 58.6895 13.5127C58.6895 13.0519 58.8335 12.694 59.1211 12.4404C59.4086 12.1871 59.7862 12.0314 60.2529 11.9727L61.584 11.8057C61.7754 11.7809 61.9038 11.7002 61.9688 11.5645C62.0058 11.4903 62.0244 11.3832 62.0244 11.2441C62.0244 10.9598 61.9226 10.7538 61.7188 10.627C61.5177 10.4971 61.2279 10.4326 60.8506 10.4326C60.4147 10.4327 60.1053 10.5502 59.9229 10.7852C59.821 10.915 59.7545 11.108 59.7236 11.3643H58.9443C58.9598 10.7521 59.1578 10.327 59.5381 10.0889C59.9215 9.8477 60.3652 9.72758 60.8691 9.72754ZM62.001 12.2881C61.8991 12.3529 61.7678 12.407 61.6074 12.4502C61.4466 12.4935 61.2884 12.5244 61.1338 12.543L60.6279 12.6074C60.325 12.6476 60.0978 12.7113 59.9463 12.7979C59.6896 12.9432 59.5615 13.1756 59.5615 13.4941C59.5616 13.7351 59.65 13.9254 59.8262 14.0645C60.0024 14.2034 60.2111 14.2734 60.4521 14.2734C60.7458 14.2734 61.0305 14.2054 61.3057 14.0693C61.7695 13.8436 62.001 13.4733 62.001 12.96V12.2881Z" fill="black"/>
<path fill-rule="evenodd" clip-rule="evenodd" d="M111.104 9.72754C111.688 9.72754 112.162 9.83888 112.527 10.0615C112.889 10.2842 113.07 10.6305 113.07 11.1006V13.9619C113.07 14.0484 113.087 14.1183 113.121 14.1709C113.158 14.2235 113.234 14.25 113.349 14.25C113.386 14.25 113.427 14.2482 113.474 14.2451C113.52 14.2389 113.57 14.2309 113.622 14.2217V14.8389C113.492 14.8759 113.393 14.8989 113.325 14.9082C113.257 14.9175 113.164 14.9229 113.047 14.9229C112.759 14.9228 112.551 14.8202 112.421 14.6162C112.353 14.508 112.305 14.355 112.277 14.1572C112.107 14.3798 111.862 14.5734 111.544 14.7373C111.226 14.901 110.874 14.9824 110.491 14.9824C110.031 14.9824 109.653 14.8437 109.359 14.5654C109.069 14.2841 108.924 13.9331 108.924 13.5127C108.924 13.052 109.067 12.694 109.354 12.4404C109.642 12.1869 110.02 12.0315 110.486 11.9727L111.818 11.8057C112.01 11.7809 112.138 11.7002 112.203 11.5645C112.24 11.4903 112.259 11.3832 112.259 11.2441C112.259 10.9596 112.156 10.7537 111.952 10.627C111.751 10.4972 111.462 10.4326 111.085 10.4326C110.649 10.4326 110.34 10.5501 110.157 10.7852C110.055 10.915 109.989 11.1079 109.958 11.3643H109.179C109.194 10.7521 109.392 10.327 109.772 10.0889C110.156 9.84772 110.6 9.72755 111.104 9.72754ZM112.235 12.2881C112.133 12.3529 112.001 12.4069 111.841 12.4502C111.68 12.4934 111.523 12.5244 111.368 12.543L110.862 12.6074C110.559 12.6476 110.332 12.7113 110.181 12.7979C109.924 12.9432 109.796 13.1756 109.796 13.4941C109.796 13.7351 109.883 13.9254 110.06 14.0645C110.236 14.2036 110.445 14.2734 110.687 14.2734C110.98 14.2734 111.265 14.2053 111.54 14.0693C112.004 13.8436 112.235 13.4733 112.235 12.96V12.2881Z" fill="black"/>
<path fill-rule="evenodd" clip-rule="evenodd" d="M79.8701 10.4512C80.0526 10.2131 80.2709 10.0319 80.5244 9.9082C80.7779 9.78148 81.0529 9.71784 81.3496 9.71777C81.9681 9.71777 82.4691 9.93164 82.8525 10.3584C83.239 10.782 83.4326 11.4077 83.4326 12.2363C83.4326 13.0218 83.2427 13.6748 82.8623 14.1943C82.4819 14.7138 81.9544 14.9736 81.2803 14.9736C80.9033 14.9736 80.5848 14.8824 80.3252 14.7002C80.1706 14.592 80.0044 14.4187 79.8281 14.1807V14.8154H79.0586V7.97852H79.8701V10.4512ZM81.2529 10.4648C80.8726 10.4648 80.5385 10.6054 80.251 10.8867C79.9665 11.1681 79.8242 11.632 79.8242 12.2783C79.8242 12.7453 79.8825 13.1243 80 13.415C80.2196 13.9623 80.6296 14.2363 81.2295 14.2363C81.6807 14.2363 82.0176 14.0566 82.2402 13.6982C82.466 13.3395 82.5791 12.8659 82.5791 12.2783C82.5791 11.7557 82.466 11.3228 82.2402 10.9795C82.0176 10.6364 81.6887 10.4649 81.2529 10.4648Z" fill="black"/>
<path d="M97.1689 9.84766V13.1455C97.1689 13.3991 97.2087 13.6068 97.2891 13.7676C97.4375 14.0643 97.7143 14.2128 98.1191 14.2129C98.7004 14.2129 99.0963 13.9529 99.3066 13.4336C99.421 13.1554 99.4785 12.7734 99.4785 12.2881V9.84766H100.313V14.8154H99.5254L99.5342 14.083C99.426 14.2715 99.2916 14.4307 99.1309 14.5605C98.8123 14.8203 98.4253 14.9502 97.9707 14.9502C97.2628 14.9501 96.7801 14.7133 96.5234 14.2402C96.3844 13.9867 96.3154 13.6481 96.3154 13.2246V9.84766H97.1689Z" fill="black"/>
<path d="M65.0303 9.84766H65.8232V10.5293H65.0303V13.7725C65.0304 13.9454 65.0896 14.0614 65.207 14.1201C65.272 14.154 65.3801 14.1709 65.5312 14.1709H65.6611C65.7074 14.1678 65.7616 14.1634 65.8232 14.1572V14.8154C65.7276 14.8432 65.6274 14.8636 65.5225 14.876C65.4205 14.8883 65.309 14.8945 65.1885 14.8945C64.7988 14.8945 64.5337 14.7956 64.3945 14.5977C64.2555 14.3967 64.1865 14.1368 64.1865 13.8184V10.5293H63.5137V9.84766H64.1865V8.46094H65.0303V9.84766Z" fill="black"/>
<path d="M46.5908 9.73633C47.2958 9.73633 47.7721 9.98211 48.0195 10.4736C48.1556 10.7427 48.2236 11.1279 48.2236 11.6289V14.8154H47.375V11.6846C47.375 11.3817 47.3298 11.1377 47.2402 10.9521C47.0918 10.643 46.8231 10.4884 46.4336 10.4883C46.2357 10.4883 46.0731 10.5077 45.9463 10.5479C45.7174 10.6159 45.516 10.752 45.3428 10.9561C45.2036 11.1199 45.1126 11.2906 45.0693 11.4668C45.0292 11.64 45.0088 11.8893 45.0088 12.2139V14.8154H44.1738V9.84766H44.9678V10.5527C45.2026 10.2623 45.4512 10.0535 45.7139 9.92676C45.9767 9.79999 46.2693 9.73635 46.5908 9.73633Z" fill="black"/>
<path d="M50.1211 14.8154H49.2725V9.87109H50.1211V14.8154Z" fill="black"/>
<path d="M56.3232 9.73633C56.9912 9.73633 57.4463 9.97754 57.6875 10.46C57.8173 10.7197 57.8818 11.0698 57.8818 11.5088V14.8154H57.0146V11.3643C57.0146 11.0335 56.9306 10.8063 56.7637 10.6826C56.5998 10.559 56.3991 10.4971 56.1611 10.4971C55.8335 10.4971 55.5505 10.6068 55.3125 10.8262C55.0775 11.0457 54.96 11.4124 54.96 11.9258V14.8154H54.1104V11.5732C54.1104 11.2364 54.0705 10.9906 53.9902 10.8359C53.8634 10.604 53.6266 10.4883 53.2803 10.4883C52.9649 10.4883 52.6777 10.6103 52.418 10.8545C52.1613 11.0988 52.0323 11.5407 52.0322 12.1807V14.8154H51.1973V9.84766H52.0234V10.5527C52.2213 10.3085 52.4007 10.1308 52.5615 10.0195C52.8367 9.83095 53.1487 9.73638 53.498 9.73633C53.8939 9.73633 54.2129 9.8335 54.4541 10.0283C54.5902 10.1396 54.7139 10.304 54.8252 10.5205C55.0107 10.2546 55.229 10.0584 55.4795 9.93164C55.7299 9.80181 56.011 9.73634 56.3232 9.73633Z" fill="black"/>
<path d="M92.0703 10.5205C92.2682 10.27 92.4468 10.0933 92.6045 9.99121C92.8734 9.81517 93.2087 9.72758 93.6104 9.72754C94.3309 9.72754 94.8195 9.97933 95.0762 10.4834C95.2153 10.7586 95.2852 11.1403 95.2852 11.6289V14.8154H94.4268V11.6846C94.4268 11.3197 94.3809 11.0519 94.2881 10.8818C94.1366 10.6098 93.8519 10.4737 93.4346 10.4736C93.0883 10.4736 92.7745 10.5931 92.4932 10.8311C92.2118 11.0691 92.0703 11.519 92.0703 12.1807V14.8154H91.2354V7.97852H92.0703V10.5205Z" fill="black"/>
<path d="M106.558 9.73633C107.225 9.73635 107.68 9.97767 107.921 10.46C108.051 10.7197 108.116 11.0697 108.116 11.5088V14.8154H107.249V11.3643C107.249 11.0335 107.165 10.8063 106.998 10.6826C106.834 10.559 106.633 10.4971 106.396 10.4971C106.068 10.4971 105.784 10.6066 105.546 10.8262C105.311 11.0457 105.193 11.4125 105.193 11.9258V14.8154H104.345V11.5732C104.345 11.2364 104.305 10.9906 104.225 10.8359C104.098 10.604 103.861 10.4883 103.515 10.4883C103.199 10.4883 102.911 10.6102 102.651 10.8545C102.395 11.0988 102.267 11.5409 102.267 12.1807V14.8154H101.432V9.84766H102.258V10.5527C102.456 10.3085 102.635 10.1308 102.796 10.0195C103.071 9.83097 103.383 9.73635 103.732 9.73633C104.128 9.73633 104.447 9.8335 104.688 10.0283C104.825 10.1396 104.948 10.3041 105.06 10.5205C105.245 10.2547 105.463 10.0584 105.713 9.93164C105.963 9.80176 106.245 9.73633 106.558 9.73633Z" fill="black"/>
<path d="M116.67 9.73633C117.375 9.73633 117.851 9.98214 118.099 10.4736C118.235 10.7427 118.303 11.1279 118.303 11.6289V14.8154H117.454V11.6846C117.454 11.3817 117.409 11.1377 117.319 10.9521C117.171 10.643 116.902 10.4883 116.513 10.4883C116.315 10.4883 116.152 10.5077 116.025 10.5479C115.797 10.6158 115.596 10.7522 115.423 10.9561C115.284 11.12 115.192 11.2905 115.148 11.4668C115.108 11.64 115.089 11.8893 115.089 12.2139V14.8154H114.254V9.84766H115.047V10.5527C115.282 10.2621 115.531 10.0535 115.794 9.92676C116.057 9.80009 116.349 9.73637 116.67 9.73633Z" fill="black"/>
<path d="M50.1211 8.94824H49.2725V8.00195H50.1211V8.94824Z" fill="black"/>
</svg>
