<svg width="131" height="42" viewBox="0 0 131 42" fill="none" xmlns="http://www.w3.org/2000/svg">
<path d="M0.5 0.5H116C124.008 0.5 130.5 6.99187 130.5 15V41.5H15C6.99187 41.5 0.5 35.0081 0.5 27V0.5Z" fill="black" stroke="#ACACAC"/>
<path d="M17.9605 24.1575C21.4266 26.9643 26.3836 26.9643 29.8497 24.1575L28.5095 22.5026C25.8248 24.6766 21.9854 24.6766 19.3007 22.5026L17.9605 24.1575Z" fill="white"/>
<path d="M19.404 20.5134V17.6365H21.5336V20.5134H19.404Z" fill="white"/>
<path d="M26.012 17.6365V20.5134H28.1415V17.6365H26.012Z" fill="white"/>
<path fill-rule="evenodd" clip-rule="evenodd" d="M35 21.5C35 27.8513 29.8513 33 23.5 33C17.1487 33 12 27.8513 12 21.5C12 15.1487 17.1487 10 23.5 10C29.8513 10 35 15.1487 35 21.5ZM32.8705 21.5C32.8705 26.6752 28.6752 30.8705 23.5 30.8705C18.3248 30.8705 14.1295 26.6752 14.1295 21.5C14.1295 16.3248 18.3248 12.1295 23.5 12.1295C28.6752 12.1295 32.8705 16.3248 32.8705 21.5Z" fill="white"/>
<path fill-rule="evenodd" clip-rule="evenodd" d="M104.32 26.2505C104.32 25.9898 104.336 25.4196 104.336 25.4196H100.424V23.8717H104.573C104.764 26.2238 105.11 28.471 105.651 30.2984C104.776 31.2876 103.759 32.1157 102.612 32.7515C103.107 33.2077 103.953 34.2016 104.288 34.7067C105.138 34.1597 105.93 33.5082 106.658 32.7639C107.338 33.9391 108.193 34.6415 109.254 34.6415C110.898 34.6415 111.649 33.9572 112 30.78C111.377 30.5356 110.563 29.9817 110.036 29.4277C109.956 31.4155 109.765 32.2301 109.445 32.2301C109.06 32.2301 108.67 31.686 108.312 30.7655C109.465 29.1244 110.389 27.1985 111.058 25.0611L108.711 24.4908C108.396 25.6095 107.983 26.659 107.478 27.6243C107.264 26.4884 107.09 25.2105 106.974 23.8717H111.84V21.5418H110.142L110.946 20.6945C110.387 20.1568 109.27 19.4399 108.455 19L107.05 20.4175C107.553 20.7329 108.148 21.1437 108.647 21.5418H106.835C106.811 20.7923 106.808 20.0385 106.827 19.2933H104.384C104.387 20.0364 104.403 20.7892 104.433 21.5418H97.9812V26.4297C97.9812 28.5642 97.9014 31.4481 96.7199 33.3707C97.2468 33.6477 98.3006 34.5275 98.6997 35C99.5135 33.7498 99.9567 32.0088 100.189 30.2753C100.506 30.8638 100.745 31.7506 100.775 32.4257C101.51 32.4257 102.18 32.4094 102.612 32.3279C103.091 32.2301 103.458 32.0672 103.809 31.5947C104.192 31.0733 104.272 29.5743 104.32 26.2505ZM100.197 30.2141C100.316 29.3052 100.378 28.4 100.406 27.5703H102.058C102.023 29.1922 101.963 29.8644 101.829 30.0631C101.701 30.2261 101.558 30.275 101.35 30.275C101.102 30.275 100.674 30.2596 100.197 30.2141Z" fill="white"/>
<path d="M85.8673 22.112C86.1314 21.4187 86.3672 20.705 86.565 19.9939L84.1541 19.4399C83.6112 21.6395 82.5893 23.8717 81.3599 25.2077C81.9507 25.5336 82.9885 26.2342 83.4515 26.6415C83.9297 26.0332 84.4007 25.2744 84.839 24.4257H87.9062V26.9185H83.7709V29.1996H87.9062V32.002H81.8708V34.3157H96.4005V32.002H90.3332V29.1996H94.9156V26.9185H90.3332V24.4257H95.5543V22.112H90.3332V19.277H87.9062V22.112H85.8673Z" fill="white"/>
<path d="M46.3436 28.4645C46.4377 28.0285 46.4856 27.6141 46.4988 27.2444H42.8462V25.11H46.5026V23.4807H42.6866V21.2811H46.5026V19.3585H48.8018V27C48.8018 29.8513 47.9396 33.0611 44.0278 34.9837C43.6446 34.4134 42.9261 33.6802 42.3672 33.224C43.7784 32.6761 44.7414 31.786 45.3804 30.8057C44.6568 30.9237 43.9507 31.0375 43.2921 31.1436L42.4151 31.2851L42 28.9226C43.1273 28.8236 44.7056 28.6496 46.3436 28.4645Z" fill="white"/>
<path fill-rule="evenodd" clip-rule="evenodd" d="M71.6755 34.3304L66.632 19.7975H63.2696L58.1875 34.3304H61.2986L62.2841 31.3429H67.5305L68.4484 34.3304H71.6755ZM64.9218 23.1201L66.6996 28.8386H63.0861L64.9218 23.1201Z" fill="white"/>
<path d="M52.7456 19.3585V21.2811H56.9289V23.4807H52.7456V25.11H56.5457V27.2444H52.7456V28.9063H57.2163V31.1059H52.7456V34.7556H50.4144V19.3585H52.7456Z" fill="white"/>
<path d="M74.2124 22.2695V31.8617H72.4582V34.3337H78.7189V31.8617H77.169V22.2695H78.7189V19.7975H72.4582V22.2695H74.2124Z" fill="white"/>
<path fill-rule="evenodd" clip-rule="evenodd" d="M67.8857 7.20388C68.038 7.4763 68.2007 7.81907 68.3138 8.1165H65.9604V10.2136C65.9604 11.7087 65.8697 13.8641 64.9423 15.4175C65.1036 15.4951 65.406 15.7087 65.5269 15.8349C66.4598 14.2532 66.6433 11.9766 66.6553 10.3883H71.0609V8.1165H69.1275C69.0157 7.7893 68.8035 7.33771 68.5913 7L67.8857 7.20388ZM66.6559 8.72815H70.3553V9.77669H66.6559V8.72815Z" fill="white"/>
<path d="M62.2408 12.8058C62.3214 12.9806 62.4323 13.3107 62.4626 13.4466C62.6541 13.3398 62.9666 13.2427 65.1943 12.7379C65.1741 12.5922 65.1439 12.3301 65.1439 12.1359L63.4698 12.4761C64.1831 11.5866 64.8788 10.5006 65.4564 9.42718L64.8314 9.08737C64.6605 9.46048 64.4598 9.83902 64.253 10.1982L63.1317 10.31C63.6953 9.46164 64.2564 8.36356 64.6701 7.30097L63.9544 7.05825C63.5915 8.24272 62.9162 9.51456 62.7045 9.83495C62.5029 10.1748 62.3315 10.4078 62.1602 10.4466C62.2408 10.6311 62.3618 10.9709 62.4021 11.1165C62.5423 11.049 62.7662 10.9888 63.8615 10.8467C63.4696 11.4677 63.1096 11.9614 62.9464 12.1553C62.6541 12.5146 62.4424 12.767 62.2408 12.8058Z" fill="white"/>
<path d="M64.1774 13.9899C63.4188 14.2679 62.7112 14.5272 62.1904 14.699L62.3718 15.3592C62.6195 15.262 62.8894 15.1568 63.1736 15.046L63.1752 15.0454L63.1806 15.0433C63.8318 14.7895 64.5581 14.5063 65.2649 14.2233L65.1338 13.6408C64.8129 13.757 64.4905 13.8752 64.1774 13.9899Z" fill="white"/>
<path fill-rule="evenodd" clip-rule="evenodd" d="M70.1638 15.9223C70.1336 15.767 70.063 15.5243 69.9824 15.3786H70.4662C70.5368 15.3786 70.5569 15.3592 70.5569 15.2815V13.8349H69.811V15.6699H69.2969V13.8349H68.5812V15.6796H68.0671V13.8349H67.2406V15.9126H66.6357V11.2136H71.1617V15.2912C71.1617 15.5534 71.1214 15.7184 70.94 15.8155C70.7585 15.9126 70.5166 15.9223 70.1638 15.9223ZM67.2406 11.8155H68.0671V13.2524H67.2406V11.8155ZM69.811 11.8155H70.5569V13.2524H69.811V11.8155ZM68.5812 13.2524H69.2969V11.8155H68.5812V13.2524Z" fill="white"/>
<path d="M56.3092 7.28134C56.3107 7.21559 56.3121 7.15371 56.3136 7.09701H57.1502L57.1493 7.13906C57.1412 7.48593 57.1303 7.95443 57.0852 8.49988C57.2273 9.64161 57.841 13.7597 61.4343 15.3009C61.2125 15.4659 60.9908 15.7184 60.8799 15.9222C58.3456 14.7819 57.2537 12.3854 56.7581 10.5712C56.2832 12.5146 55.2097 14.6876 52.7452 15.9611C52.6142 15.7669 52.3622 15.5436 52.1303 15.3883C56.1713 13.4189 56.2716 8.95516 56.3091 7.28464L56.3091 7.28357L56.3092 7.28134Z" fill="white"/>
<path d="M47.5945 14.7767L48.0682 14.2913C49.2073 14.6408 50.4472 15.0971 51.183 15.466L50.5681 15.9709C49.8827 15.602 48.7335 15.1359 47.5945 14.7767Z" fill="white"/>
<path d="M45.1047 14.2913L45.8002 14.7185C44.9535 15.2136 43.6027 15.7185 42.5242 15.9903C42.4133 15.8447 42.1613 15.5923 42 15.4563C43.0786 15.2039 44.4293 14.7088 45.1047 14.2913Z" fill="white"/>
<path fill-rule="evenodd" clip-rule="evenodd" d="M73.5709 16V15.3786H80.2541V15.9515H81V9.00001H78.4598V7.16507H77.7139V9.00001H76.0103V7.16507H75.2745V9.00001H72.8552V16H73.5709ZM75.2745 14.6602H73.5709V12.5146H75.2745V14.6602ZM75.2745 11.8253H73.5709V9.70875H75.2745V11.8253ZM76.0103 11.8253V9.70875H77.7139V11.8253H76.0103ZM78.4598 11.8253V9.70875H80.2541V11.8253H78.4598ZM78.4598 12.5146H80.2541V14.6602H78.4598V12.5146ZM77.7139 12.5146V14.6602H76.0103V12.5146H77.7139Z" fill="white"/>
<path fill-rule="evenodd" clip-rule="evenodd" d="M43.6431 13.5146H42.1915V14.1359H51.1427V13.5146H49.7214V9.12625H46.9292V8.5146H50.8806V7.88353H46.9292V7.07771H46.1833V7.88353H42.4738V8.5146H46.1833V9.12625H43.6431V13.5146ZM44.3688 13.5146V12.835H48.9654V13.5146H44.3688ZM48.9654 12.369V11.7864H44.3688V12.369H48.9654ZM44.3688 11.3107V10.7379H48.9654V11.3107H44.3688ZM48.9654 10.2816V9.64081H44.3688V10.2816H48.9654Z" fill="white"/>
</svg>
