<svg width="131" height="42" viewBox="0 0 131 42" fill="none" xmlns="http://www.w3.org/2000/svg">
<path d="M116 0.5C124.008 0.5 130.5 6.99187 130.5 15V41.5H15C6.99187 41.5 0.5 35.0081 0.5 27V0.5H116Z" fill="white" stroke="black"/>
<path d="M27.8497 24.1575C24.3836 26.9643 19.4266 26.9643 15.9605 24.1575L17.3007 22.5026C19.9854 24.6766 23.8248 24.6766 26.5095 22.5026L27.8497 24.1575Z" fill="black"/>
<path d="M17.404 17.6365V20.5134H19.5336V17.6365H17.404Z" fill="black"/>
<path d="M24.012 17.6365V20.5134H26.1415V17.6365H24.012Z" fill="black"/>
<path fill-rule="evenodd" clip-rule="evenodd" d="M21.5 33C27.8513 33 33 27.8513 33 21.5C33 15.1487 27.8513 10 21.5 10C15.1487 10 10 15.1487 10 21.5C10 27.8513 15.1487 33 21.5 33ZM21.5 30.8705C26.6752 30.8705 30.8705 26.6752 30.8705 21.5C30.8705 16.3248 26.6752 12.1295 21.5 12.1295C16.3248 12.1295 12.1295 16.3248 12.1295 21.5C12.1295 26.6752 16.3248 30.8705 21.5 30.8705Z" fill="black"/>
<path fill-rule="evenodd" clip-rule="evenodd" d="M89.3281 32.0851L93.95 19H97.0078L101.594 32.0851H98.6597L97.825 29.3953H93.0537L92.1575 32.0851H89.3281ZM95.4525 21.9916L93.783 27.1405H97.0693L95.4525 21.9916Z" fill="black"/>
<path fill-rule="evenodd" clip-rule="evenodd" d="M76.5544 23.5718C75.8456 22.6545 74.8615 22.1958 73.602 22.1958C72.905 22.1958 72.3309 22.3438 71.8798 22.6397C71.4991 22.8764 71.1505 23.2197 70.8342 23.6695V19.0178H68.3388V32.0851H70.7903V30.8689C71.1242 31.3424 71.4346 31.6738 71.7217 31.8632C72.202 32.1828 72.8376 32.3426 73.6284 32.3426C74.8878 32.3426 75.869 31.8484 76.572 30.8601C77.2749 29.8717 77.6264 28.6259 77.6264 27.1227C77.6264 25.6728 77.2691 24.4891 76.5544 23.5718ZM74.4631 29.4663C74.1058 29.993 73.605 30.2564 72.9606 30.2564C72.2167 30.2564 71.6631 29.9842 71.2999 29.4397C70.9367 28.8952 70.7551 28.2087 70.7551 27.3802C70.7551 26.6759 70.843 26.1018 71.0187 25.658C71.3585 24.8235 71.9823 24.4063 72.8903 24.4063C73.7866 24.4063 74.4016 24.8324 74.7355 25.6846C74.9113 26.1344 74.9991 26.7025 74.9991 27.389C74.9991 28.2472 74.8205 28.9396 74.4631 29.4663Z" fill="black"/>
<path d="M62.5236 30.1587C62.424 30.0581 62.3742 29.8096 62.3742 29.4131V24.2997H63.9295V22.4977H62.3742V19.799H59.8964V22.4977H58.5608V24.2997H59.8964V30.2564C59.8964 30.8601 60.037 31.3069 60.3181 31.5969C60.7516 32.0526 61.56 32.2597 62.7433 32.2183L63.9295 32.1739V30.283C63.8475 30.2889 63.7626 30.2949 63.6747 30.3008H63.4374C62.9278 30.3008 62.6232 30.2534 62.5236 30.1587Z" fill="black"/>
<path fill-rule="evenodd" clip-rule="evenodd" d="M57.2509 30.9133C58.0592 29.9013 58.4634 28.6851 58.4634 27.2648C58.4634 25.8681 58.0592 24.6578 57.2509 23.6339C56.4425 22.6101 55.2152 22.0982 53.5692 22.0982C51.9231 22.0982 50.6959 22.6101 49.8875 23.6339C49.0791 24.6578 48.675 25.8681 48.675 27.2648C48.675 28.6851 49.0791 29.9013 49.8875 30.9133C50.6959 31.9194 51.9231 32.4225 53.5692 32.4225C55.2152 32.4225 56.4425 31.9194 57.2509 30.9133ZM55.2475 29.5107C54.855 30.0374 54.2926 30.3008 53.5604 30.3008C52.8282 30.3008 52.2629 30.0374 51.8646 29.5107C51.4721 28.984 51.2758 28.2353 51.2758 27.2648C51.2758 26.2942 51.4721 25.5485 51.8646 25.0277C52.2629 24.501 52.8282 24.2376 53.5604 24.2376C54.2926 24.2376 54.855 24.501 55.2475 25.0277C55.6399 25.5485 55.8362 26.2942 55.8362 27.2648C55.8362 28.2353 55.6399 28.984 55.2475 29.5107Z" fill="black"/>
<path d="M44.2896 22.1781C45.2796 22.1781 46.088 22.4414 46.7148 22.9681C47.3474 23.4889 47.6638 24.356 47.6638 25.5692V32.0851H45.098V26.1995C45.098 25.6905 45.0307 25.2999 44.8959 25.0277C44.6499 24.5305 44.1813 24.282 43.49 24.282C42.6407 24.282 42.0578 24.646 41.7415 25.3739C41.5775 25.7586 41.4954 26.2498 41.4954 26.8475V32.0851H39V22.4266H41.4164V23.8381C41.7385 23.341 42.0432 22.9829 42.3302 22.764C42.8457 22.3734 43.4988 22.1781 44.2896 22.1781Z" fill="black"/>
<path d="M79.0945 33.9405L79.4108 33.9582C79.6568 33.9701 79.8912 33.9612 80.1137 33.9316C80.3363 33.902 80.5238 33.8339 80.6761 33.7274C80.8226 33.6268 80.9573 33.4167 81.0803 33.0971C81.2092 32.7775 81.2619 32.5822 81.2384 32.5112L77.7237 22.4089H80.5092L82.6004 29.5462L84.5774 22.4089H87.2398L83.9536 31.9253C83.3209 33.76 82.8201 34.8963 82.451 35.3342C82.082 35.7781 81.3439 36 80.2368 36C80.0142 36 79.8355 35.997 79.7008 35.9911C79.566 35.9911 79.3639 35.9822 79.0945 35.9645V33.9405Z" fill="black"/>
<path d="M103.902 29.8624V21.2258H102.306V19H108V21.2258H106.59V29.8624H108V32.0882H102.306V29.8624H103.902Z" fill="black"/>
<path fill-rule="evenodd" clip-rule="evenodd" d="M61.5962 9.75952C61.9857 9.75956 62.3261 9.85592 62.6167 10.0476C62.7743 10.1558 62.9354 10.3132 63.0991 10.5203V9.89429H63.8687V14.4119C63.8687 15.0427 63.7759 15.5411 63.5903 15.906C63.2439 16.58 62.59 16.9167 61.6284 16.9167C61.0936 16.9167 60.6437 16.7965 60.2788 16.5554C59.9139 16.3173 59.7098 15.9426 59.6665 15.4324H60.5151C60.5553 15.655 60.6357 15.8274 60.7563 15.948C60.945 16.1334 61.242 16.2263 61.647 16.2263C62.2871 16.2263 62.7059 16 62.9038 15.5486C63.0213 15.2827 63.0762 14.8081 63.0669 14.1248C62.8999 14.3783 62.6984 14.5665 62.4634 14.6902C62.2284 14.8139 61.9173 14.8757 61.5308 14.8757C60.9929 14.8757 60.5217 14.6856 60.1167 14.3054C59.7147 13.922 59.5132 13.2893 59.5132 12.408C59.5132 11.5762 59.7155 10.9266 60.1206 10.4597C60.5288 9.99277 61.021 9.75952 61.5962 9.75952ZM61.7495 10.4968C61.1619 10.4968 60.7599 10.7725 60.5435 11.323C60.429 11.6168 60.3716 12.0021 60.3716 12.4783C60.3716 13.0378 60.4848 13.4648 60.7104 13.7585C60.9392 14.0489 61.2452 14.1941 61.6284 14.1941C62.2283 14.1941 62.6507 13.9237 62.895 13.3826C63.031 13.0765 63.0991 12.7193 63.0991 12.3113C63.0991 11.6959 62.9718 11.239 62.7183 10.9421C62.4648 10.6456 62.1419 10.4969 61.7495 10.4968Z" fill="black"/>
<path d="M83.9771 13.8923L85.3179 9.84741H86.2407C86.1232 10.1659 85.8617 10.8931 85.4565 12.0281C85.1536 12.8814 84.8999 13.577 84.6958 14.115C84.2135 15.3826 83.8732 16.1559 83.6753 16.4343C83.4774 16.7126 83.1372 16.8523 82.6548 16.8523C82.5375 16.8523 82.4463 16.8479 82.3813 16.8386C82.3195 16.8293 82.2417 16.8116 82.1489 16.7869V16.0261C82.2941 16.0663 82.3994 16.091 82.4644 16.1003C82.5293 16.1096 82.5868 16.115 82.6362 16.115C82.7909 16.115 82.904 16.0885 82.9751 16.0359C83.0493 15.9864 83.1112 15.9245 83.1606 15.8503C83.1761 15.8256 83.2318 15.6983 83.3276 15.4695C83.4234 15.2408 83.4933 15.071 83.5366 14.9597L81.6997 9.84741H82.646L83.9771 13.8923Z" fill="black"/>
<path fill-rule="evenodd" clip-rule="evenodd" d="M66.9146 9.73608C67.2671 9.73608 67.609 9.82007 67.9399 9.98706C68.2706 10.1509 68.5227 10.364 68.6958 10.6267C68.8628 10.8772 68.9741 11.1697 69.0298 11.5037C69.0793 11.7325 69.104 12.0974 69.104 12.5984H65.4624C65.4779 13.1025 65.5972 13.5081 65.8198 13.8142C66.0424 14.117 66.3873 14.2683 66.854 14.2683C67.29 14.2683 67.6382 14.1243 67.8979 13.8367C68.0462 13.6698 68.1515 13.4769 68.2134 13.2576H69.0347C69.013 13.4399 68.9405 13.6443 68.8169 13.8699C68.6964 14.0923 68.5601 14.2746 68.4087 14.4167C68.1551 14.6641 67.8405 14.8311 67.4663 14.9177C67.2654 14.9672 67.0382 14.9919 66.7847 14.9919C66.1662 14.9919 65.6423 14.7675 65.2124 14.3191C64.7826 13.8676 64.5679 13.2367 64.5679 12.4265C64.5679 11.6288 64.7844 10.981 65.2173 10.4832C65.6502 9.98543 66.2158 9.73608 66.9146 9.73608ZM66.8638 10.4646C66.4803 10.4646 66.1587 10.6042 65.8989 10.8826C65.6392 11.1578 65.5013 11.5086 65.4858 11.9353H68.2456C68.2116 11.5737 68.1329 11.2845 68.0093 11.0681C67.7805 10.6662 67.3986 10.4647 66.8638 10.4646Z" fill="black"/>
<path fill-rule="evenodd" clip-rule="evenodd" d="M73.8979 14.8162H73.147V14.1248C72.9522 14.4309 72.7215 14.6518 72.4556 14.7878C72.1896 14.9239 71.8848 14.9919 71.5415 14.9919C70.9882 14.9919 70.509 14.7602 70.104 14.2966C69.6989 13.8297 69.4966 13.2093 69.4966 12.4363C69.4966 11.7126 69.6803 11.0862 70.0483 10.5574C70.4194 10.0256 70.9479 9.75958 71.6343 9.75952L71.7739 9.76343C72.0934 9.78098 72.3657 9.85998 72.5903 10.0007C72.7387 10.0935 72.9076 10.2562 73.0962 10.488V7.97827H73.8979V14.8162ZM71.7925 10.488C71.3719 10.488 71.0299 10.6488 70.7671 10.9705C70.5074 11.292 70.3775 11.7649 70.3774 12.3894C70.3774 12.9213 70.4906 13.3666 70.7163 13.7253C70.942 14.084 71.3035 14.2634 71.8013 14.2634C72.1878 14.2634 72.505 14.0982 72.7524 13.7673C73.0029 13.4333 73.1284 12.9553 73.1284 12.3337C73.1284 11.7062 73.0002 11.2421 72.7437 10.9421C72.487 10.6391 72.1697 10.4881 71.7925 10.488Z" fill="black"/>
<path fill-rule="evenodd" clip-rule="evenodd" d="M41.0249 9.72729C41.6092 9.72736 42.0839 9.83869 42.4487 10.0613C42.8104 10.2839 42.9917 10.6304 42.9917 11.1003V13.9626C42.9918 14.049 43.0086 14.1182 43.0425 14.1707C43.0796 14.2232 43.1556 14.2498 43.27 14.2498C43.307 14.2497 43.3488 14.248 43.395 14.2449C43.4413 14.2387 43.491 14.2317 43.5435 14.2224V14.8386C43.4137 14.8757 43.3146 14.8996 43.2466 14.9089C43.1786 14.9182 43.0857 14.9226 42.9683 14.9226C42.6807 14.9226 42.4722 14.82 42.3423 14.616C42.2912 14.5347 42.2506 14.4285 42.2222 14.2966L42.1978 14.157C42.0277 14.3796 41.7838 14.5732 41.4653 14.7371C41.1469 14.9009 40.7959 14.9831 40.4126 14.9832C39.952 14.9832 39.5745 14.8433 39.2808 14.5652C38.9901 14.2838 38.8443 13.9329 38.8442 13.5125C38.8442 13.0517 38.9884 12.6947 39.2759 12.4412C39.5635 12.1876 39.9408 12.0312 40.4077 11.9724L41.7388 11.8054C41.9304 11.7807 42.0585 11.7001 42.1235 11.5642C42.1606 11.49 42.1792 11.3831 42.1792 11.2439C42.1792 10.9594 42.0776 10.7535 41.8735 10.6267C41.7227 10.5293 41.522 10.4684 41.272 10.4441L41.0063 10.4324C40.5704 10.4324 40.2611 10.5499 40.0786 10.7849C39.9766 10.9148 39.9093 11.1083 39.8784 11.365H39.0991C39.1146 10.7527 39.3125 10.3267 39.6929 10.0886C40.0763 9.84741 40.5208 9.72729 41.0249 9.72729ZM42.1567 12.2878C42.0547 12.3528 41.9229 12.4067 41.7622 12.45C41.6014 12.4932 41.4432 12.5242 41.2886 12.5427L40.7837 12.6082C40.4806 12.6484 40.2526 12.711 40.1011 12.7976C39.8445 12.943 39.7163 13.1754 39.7163 13.4939C39.7164 13.735 39.8047 13.9251 39.981 14.0642C40.1572 14.2033 40.3658 14.2732 40.6069 14.2732C40.9007 14.2732 41.1853 14.2051 41.4604 14.0691C41.9242 13.8434 42.1566 13.4738 42.1567 12.9607V12.2878Z" fill="black"/>
<path fill-rule="evenodd" clip-rule="evenodd" d="M51.7847 9.72729C52.3691 9.72729 52.8436 9.83865 53.2085 10.0613C53.5703 10.2839 53.7515 10.6303 53.7515 11.1003V13.9626C53.7515 14.0489 53.7684 14.1182 53.8022 14.1707C53.8394 14.2232 53.9154 14.2498 54.0298 14.2498C54.0668 14.2498 54.1085 14.248 54.1548 14.2449C54.2011 14.2387 54.2508 14.2317 54.3032 14.2224V14.8386C54.1734 14.8757 54.0744 14.8997 54.0063 14.9089C53.9383 14.9182 53.8454 14.9226 53.728 14.9226C53.4406 14.9225 53.2319 14.82 53.1021 14.616C53.051 14.5347 53.0113 14.4283 52.9829 14.2966L52.9585 14.157C52.7884 14.3796 52.5436 14.5732 52.2251 14.7371C51.9067 14.9009 51.5557 14.9832 51.1724 14.9832C50.7116 14.9832 50.3343 14.8435 50.0405 14.5652C49.7499 14.2838 49.605 13.9329 49.605 13.5125C49.605 13.0519 49.7483 12.6947 50.0356 12.4412C50.3232 12.1876 50.7006 12.0312 51.1675 11.9724L52.4995 11.8054C52.6909 11.7806 52.8194 11.7001 52.8843 11.5642C52.9214 11.49 52.9399 11.3831 52.9399 11.2439C52.9399 10.9594 52.8374 10.7535 52.6333 10.6267C52.4826 10.5294 52.2824 10.4684 52.0327 10.4441L51.7661 10.4324C51.3301 10.4324 51.0208 10.5499 50.8384 10.7849C50.7364 10.9148 50.6701 11.1084 50.6392 11.365H49.8599C49.8753 10.7527 50.0732 10.3267 50.4536 10.0886C50.837 9.84753 51.2807 9.72729 51.7847 9.72729ZM52.9165 12.2878C52.8145 12.3528 52.6827 12.4067 52.522 12.45C52.3613 12.4932 52.2038 12.5242 52.0493 12.5427L51.5435 12.6082C51.2406 12.6483 51.0133 12.7111 50.8618 12.7976C50.6051 12.943 50.4771 13.1754 50.4771 13.4939C50.4771 13.7349 50.5646 13.9251 50.7407 14.0642C50.917 14.2034 51.1265 14.2732 51.3677 14.2732C51.6613 14.2731 51.9461 14.2051 52.2212 14.0691C52.6847 13.8434 52.9164 13.4737 52.9165 12.9607V12.2878Z" fill="black"/>
<path fill-rule="evenodd" clip-rule="evenodd" d="M91.2007 9.73218C91.6879 9.75656 92.0914 9.8665 92.4106 10.0613C92.7723 10.2839 92.9536 10.6304 92.9536 11.1003V13.9626C92.9537 14.049 92.9705 14.1182 93.0044 14.1707C93.0415 14.2232 93.1175 14.2498 93.2319 14.2498C93.2689 14.2497 93.3107 14.248 93.3569 14.2449C93.4032 14.2387 93.4529 14.2317 93.5054 14.2224V14.8386C93.3756 14.8757 93.2765 14.8996 93.2085 14.9089C93.1405 14.9182 93.0476 14.9226 92.9302 14.9226C92.6426 14.9226 92.4341 14.82 92.3042 14.616C92.2362 14.5077 92.1875 14.3549 92.1597 14.157C91.9896 14.3796 91.7457 14.5732 91.4272 14.7371C91.1089 14.9009 90.7578 14.9831 90.3745 14.9832C89.9139 14.9832 89.5364 14.8433 89.2427 14.5652C88.952 14.2838 88.8062 13.9329 88.8062 13.5125C88.8062 13.0517 88.9503 12.6947 89.2378 12.4412C89.5254 12.1876 89.9027 12.0312 90.3696 11.9724L91.7007 11.8054C91.8923 11.7807 92.0205 11.7001 92.0854 11.5642C92.1226 11.49 92.1411 11.3831 92.1411 11.2439C92.1411 10.9594 92.0395 10.7535 91.8354 10.6267C91.6345 10.4969 91.3453 10.4324 90.9683 10.4324C90.5323 10.4324 90.223 10.5499 90.0405 10.7849C89.9385 10.9148 89.8713 11.1083 89.8403 11.365H89.061C89.0765 10.7527 89.2745 10.3267 89.6548 10.0886C90.0382 9.84741 90.4827 9.72729 90.9868 9.72729L91.2007 9.73218ZM92.1187 12.2878C92.0167 12.3528 91.8848 12.4067 91.7241 12.45C91.5633 12.4932 91.4051 12.5242 91.2505 12.5427L90.7456 12.6082C90.4425 12.6484 90.2145 12.711 90.063 12.7976C89.8064 12.943 89.6782 13.1754 89.6782 13.4939C89.6783 13.735 89.7667 13.9251 89.9429 14.0642C90.1191 14.2033 90.3277 14.2732 90.5688 14.2732C90.8626 14.2732 91.1472 14.2051 91.4224 14.0691C91.8861 13.8434 92.1185 13.4738 92.1187 12.9607V12.2878Z" fill="black"/>
<path fill-rule="evenodd" clip-rule="evenodd" d="M115.983 9.72729C116.567 9.72729 117.042 9.83865 117.407 10.0613C117.769 10.2839 117.95 10.6303 117.95 11.1003V13.9626C117.95 14.0489 117.967 14.1182 118 14.1707C118.038 14.2232 118.114 14.2498 118.228 14.2498C118.265 14.2498 118.307 14.248 118.353 14.2449C118.399 14.2387 118.449 14.2317 118.501 14.2224V14.8386C118.372 14.8757 118.273 14.8997 118.205 14.9089C118.137 14.9182 118.044 14.9226 117.926 14.9226C117.639 14.9225 117.43 14.82 117.3 14.616C117.249 14.5347 117.21 14.4283 117.181 14.2966L117.157 14.157C116.987 14.3796 116.742 14.5732 116.423 14.7371C116.105 14.9009 115.754 14.9832 115.371 14.9832C114.91 14.9832 114.533 14.8435 114.239 14.5652C113.948 14.2838 113.803 13.9329 113.803 13.5125C113.803 13.0519 113.947 12.6947 114.234 12.4412C114.521 12.1876 114.899 12.0312 115.366 11.9724L116.698 11.8054C116.889 11.7806 117.018 11.7001 117.083 11.5642C117.12 11.49 117.138 11.3831 117.138 11.2439C117.138 10.9594 117.036 10.7535 116.832 10.6267C116.631 10.4969 116.341 10.4324 115.964 10.4324C115.528 10.4324 115.219 10.5499 115.037 10.7849C114.935 10.9148 114.868 11.1084 114.837 11.365H114.058C114.074 10.7527 114.271 10.3267 114.652 10.0886C115.035 9.84753 115.479 9.72729 115.983 9.72729ZM117.115 12.2878C117.013 12.3528 116.881 12.4067 116.72 12.45C116.56 12.4932 116.402 12.5242 116.248 12.5427L115.742 12.6082C115.439 12.6483 115.212 12.7111 115.06 12.7976C114.803 12.943 114.675 13.1754 114.675 13.4939C114.675 13.7349 114.763 13.9251 114.939 14.0642C115.115 14.2034 115.325 14.2732 115.566 14.2732C115.86 14.2731 116.144 14.2051 116.419 14.0691C116.883 13.8434 117.115 13.4737 117.115 12.9607V12.2878Z" fill="black"/>
<path fill-rule="evenodd" clip-rule="evenodd" d="M77.9575 10.4509C78.14 10.2128 78.3582 10.0317 78.6118 9.90796C78.8654 9.78117 79.1411 9.71753 79.438 9.71753L79.6636 9.72729C80.1792 9.7739 80.6053 9.98465 80.9409 10.3582C81.3272 10.7818 81.52 11.4085 81.52 12.2371C81.5199 13.0223 81.33 13.6747 80.9497 14.1941C80.5693 14.7136 80.0418 14.9734 79.3677 14.9734C78.9906 14.9733 78.6723 14.8822 78.4126 14.7C78.2966 14.6188 78.1745 14.5007 78.0464 14.3464L77.9165 14.1804V14.8162H77.146V7.97827H77.9575V10.4509ZM79.3403 10.4646C78.9601 10.4646 78.6259 10.6052 78.3384 10.8865C78.0539 11.1679 77.9117 11.6319 77.9116 12.2781C77.9116 12.745 77.9699 13.1241 78.0874 13.4148C78.307 13.9622 78.717 14.2361 79.3169 14.2361C79.7684 14.2361 80.106 14.0567 80.3286 13.698C80.5543 13.3393 80.6665 12.8656 80.6665 12.2781C80.6665 11.7556 80.5543 11.3224 80.3286 10.9792C80.106 10.6361 79.7762 10.4647 79.3403 10.4646Z" fill="black"/>
<path d="M102.239 9.84741V13.1462C102.239 13.3996 102.279 13.6066 102.359 13.7673C102.507 14.0641 102.784 14.2126 103.189 14.2126C103.77 14.2126 104.166 13.9528 104.376 13.4333C104.491 13.1551 104.548 12.7732 104.548 12.2878V9.84741H105.383V14.8162H104.595L104.604 14.0828C104.496 14.2713 104.361 14.4305 104.201 14.5603C103.882 14.8201 103.495 14.95 103.041 14.95C102.333 14.9499 101.85 14.7139 101.593 14.241C101.454 13.9874 101.385 13.648 101.385 13.2244V9.84741H102.239Z" fill="black"/>
<path d="M46.2505 9.73608C46.266 9.7361 46.2927 9.73789 46.3296 9.74097C46.3667 9.74407 46.4299 9.7503 46.519 9.75952V10.6414C46.4697 10.6321 46.4235 10.6259 46.3804 10.6228C46.3402 10.6197 46.2951 10.6179 46.2456 10.6179C45.825 10.6179 45.5016 10.754 45.2759 11.0261C45.0503 11.2951 44.938 11.6063 44.938 11.9587V14.8162H44.103V9.84741H44.896V10.7058C44.9609 10.5389 45.1201 10.3364 45.3735 10.0984C45.6271 9.85718 45.9196 9.73608 46.2505 9.73608Z" fill="black"/>
<path d="M49.2075 9.74097C49.2446 9.74406 49.3083 9.75024 49.3979 9.75952V10.6414C49.3485 10.6321 49.3016 10.6259 49.2583 10.6228L49.1245 10.6179C48.7039 10.6179 48.3805 10.754 48.1548 11.0261C47.929 11.2952 47.8159 11.6062 47.8159 11.9587V14.8162H46.981V9.84741H47.7739V10.7058C47.8389 10.5388 47.9989 10.3365 48.2524 10.0984C48.5059 9.85732 48.7977 9.73614 49.1284 9.73608L49.2075 9.74097Z" fill="black"/>
<path d="M57.5103 9.7478C58.0769 9.80167 58.4686 10.0442 58.6851 10.4744C58.8209 10.7433 58.8891 11.1281 58.8892 11.6287V14.8162H58.0405V11.6843C58.0405 11.3815 57.9953 11.1374 57.9058 10.9519C57.7759 10.6813 57.5534 10.5287 57.2388 10.4949L57.0981 10.488C56.9005 10.4881 56.7385 10.5085 56.6118 10.5486C56.383 10.6166 56.1815 10.7527 56.0083 10.9568C55.8693 11.1206 55.7781 11.2904 55.7349 11.4666C55.6947 11.6397 55.6743 11.8889 55.6743 12.2136V14.8162H54.8394V9.84741H55.6323V10.5525C55.8673 10.2618 56.1165 10.0533 56.3794 9.92651C56.6423 9.79972 56.9347 9.73608 57.2563 9.73608L57.5103 9.7478Z" fill="black"/>
<path d="M97.2349 7.97827V10.5203C97.4326 10.27 97.6105 10.094 97.7681 9.99194C98.0371 9.81567 98.3729 9.72729 98.7749 9.72729L99.0347 9.73901C99.6142 9.79423 100.016 10.0422 100.241 10.4832C100.38 10.7583 100.45 11.1402 100.45 11.6287V14.8162H99.5913V11.6843C99.5913 11.32 99.5452 11.0526 99.4526 10.8826C99.3012 10.6105 99.0163 10.4745 98.5991 10.4744C98.2528 10.4744 97.9382 10.5927 97.6567 10.8308C97.3753 11.0689 97.2349 11.5196 97.2349 12.1814V14.8162H96.3999V7.97827H97.2349Z" fill="black"/>
<path d="M111.532 9.73608C112.2 9.73608 112.655 9.97736 112.896 10.4597C113.026 10.7195 113.09 11.0694 113.09 11.5085V14.8162H112.223V11.365C112.223 11.0342 112.14 10.8061 111.973 10.6824C111.809 10.5587 111.608 10.4968 111.37 10.4968C111.042 10.4968 110.759 10.6073 110.521 10.8269C110.286 11.0464 110.168 11.4124 110.168 11.9255V14.8162H109.32V11.573C109.32 11.236 109.279 10.9903 109.199 10.8357C109.072 10.6038 108.835 10.488 108.489 10.488C108.173 10.4881 107.886 10.6101 107.626 10.8542C107.37 11.0986 107.242 11.5413 107.242 12.1814V14.8162H106.407V9.84741H107.232V10.5525C107.43 10.3083 107.609 10.1306 107.77 10.0193C108.045 9.83065 108.358 9.73608 108.708 9.73608L108.852 9.74097C109.181 9.7623 109.452 9.85862 109.663 10.0291C109.799 10.1404 109.922 10.3039 110.034 10.5203C110.219 10.2543 110.438 10.0582 110.688 9.9314C110.938 9.80158 111.22 9.73612 111.532 9.73608Z" fill="black"/>
<path d="M121.455 9.73608C122.16 9.73608 122.636 9.98267 122.883 10.4744C123.019 10.7434 123.087 11.128 123.087 11.6287V14.8162H122.239V11.6843C122.239 11.3814 122.194 11.1374 122.104 10.9519C121.974 10.6814 121.752 10.5288 121.438 10.4949L121.297 10.488C121.099 10.488 120.937 10.5084 120.81 10.5486C120.581 10.6166 120.381 10.7527 120.208 10.9568C120.068 11.1207 119.976 11.2903 119.933 11.4666C119.893 11.6397 119.874 11.8889 119.874 12.2136V14.8162H119.039V9.84741H119.832V10.5525C120.067 10.2619 120.316 10.0533 120.579 9.92651C120.841 9.79988 121.133 9.73612 121.455 9.73608Z" fill="black"/>
</svg>
