<svg width="131" height="42" viewBox="0 0 131 42" fill="none" xmlns="http://www.w3.org/2000/svg">
<path d="M116 0.5C124.008 0.5 130.5 6.99187 130.5 15V41.5H15C6.99187 41.5 0.5 35.0081 0.5 27V0.5H116Z" fill="white" stroke="black"/>
<path d="M27.8497 24.1575C24.3836 26.9643 19.4266 26.9643 15.9605 24.1575L17.3007 22.5026C19.9854 24.6766 23.8248 24.6766 26.5095 22.5026L27.8497 24.1575Z" fill="black"/>
<path d="M17.404 17.6365V20.5134H19.5336V17.6365H17.404Z" fill="black"/>
<path d="M24.012 17.6365V20.5134H26.1415V17.6365H24.012Z" fill="black"/>
<path fill-rule="evenodd" clip-rule="evenodd" d="M21.5 33C27.8513 33 33 27.8513 33 21.5C33 15.1487 27.8513 10 21.5 10C15.1487 10 10 15.1487 10 21.5C10 27.8513 15.1487 33 21.5 33ZM21.5 30.8705C26.6752 30.8705 30.8705 26.6752 30.8705 21.5C30.8705 16.3248 26.6752 12.1295 21.5 12.1295C16.3248 12.1295 12.1295 16.3248 12.1295 21.5C12.1295 26.6752 16.3248 30.8705 21.5 30.8705Z" fill="black"/>
<path fill-rule="evenodd" clip-rule="evenodd" d="M96.5967 19.2822L101.181 32.15H98.2476L97.4134 29.5049H92.6449L91.7491 32.15H88.9214L93.5406 19.2822H96.5967ZM96.6581 27.2875L95.0423 22.2242L93.3738 27.2875H96.6581Z" fill="black"/>
<path fill-rule="evenodd" clip-rule="evenodd" d="M73.2043 22.425C74.463 22.425 75.4466 22.876 76.155 23.7781C76.8692 24.6802 77.2264 25.8442 77.2264 27.27C77.2264 28.7483 76.8751 29.9734 76.1725 30.9453C75.47 31.9172 74.4894 32.4032 73.2307 32.4032C72.4403 32.4032 71.8051 32.2461 71.325 31.9318C71.0381 31.7455 70.7279 31.4196 70.3941 30.954V32.15H67.944V19.2997H70.4381V23.8741C70.7542 23.4318 71.1025 23.0943 71.4831 22.8615C71.9339 22.5705 72.5076 22.425 73.2043 22.425ZM72.5632 30.3517C73.2072 30.3517 73.7078 30.0927 74.0649 29.5747C74.422 29.0567 74.6006 28.3758 74.6006 27.5319C74.6006 26.8568 74.5128 26.2981 74.3372 25.8558C74.0034 25.0177 73.3887 24.5987 72.493 24.5987C71.5855 24.5987 70.962 25.009 70.6225 25.8296C70.4468 26.2661 70.359 26.8306 70.359 27.5232C70.359 28.338 70.5405 29.0131 70.9035 29.5485C71.2665 30.084 71.8197 30.3517 72.5632 30.3517Z" fill="black"/>
<path d="M59.5065 30.3517C59.5065 30.9453 59.647 31.3847 59.928 31.6699C60.3612 32.118 61.1692 32.3217 62.3518 32.281L63.5373 32.2373V30.3779C63.4553 30.3837 63.3705 30.3895 63.2826 30.3953H63.0455C62.5362 30.3953 62.2318 30.3488 62.1322 30.2556C62.0327 30.1567 61.9829 29.9123 61.9829 29.5223V24.4939H63.5373V22.7218H61.9829V20.0679H59.5065V22.7218H58.1717V24.4939H59.5065V30.3517Z" fill="black"/>
<path fill-rule="evenodd" clip-rule="evenodd" d="M58.0744 27.4097C58.0744 28.8065 57.6704 30.0025 56.8625 30.9977C56.0546 31.9871 54.828 32.4818 53.1829 32.4818C51.5378 32.4818 50.3113 31.9871 49.5034 30.9977C48.6954 30.0025 48.2915 28.8065 48.2915 27.4097C48.2915 26.0362 48.6954 24.8461 49.5034 23.8392C50.3113 22.8324 51.5378 22.3289 53.1829 22.3289C54.828 22.3289 56.0546 22.8324 56.8625 23.8392C57.6704 24.8461 58.0744 26.0362 58.0744 27.4097ZM53.1741 30.3953C53.906 30.3953 54.468 30.1363 54.8602 29.6184C55.2525 29.1004 55.4486 28.3642 55.4486 27.4097C55.4486 26.4553 55.2525 25.7219 54.8602 25.2098C54.468 24.6918 53.906 24.4328 53.1741 24.4328C52.4423 24.4328 51.8774 24.6918 51.4793 25.2098C51.087 25.7219 50.8909 26.4553 50.8909 27.4097C50.8909 28.3642 51.087 29.1004 51.4793 29.6184C51.8774 30.1363 52.4423 30.3953 53.1741 30.3953Z" fill="black"/>
<path d="M43.9087 22.4075C44.8981 22.4075 45.706 22.6665 46.3325 23.1845C46.9647 23.6966 47.2809 24.5492 47.2809 25.7423V32.15H44.7166V26.3621C44.7166 25.8616 44.6493 25.4775 44.5146 25.2098C44.2687 24.7209 43.8004 24.4765 43.1095 24.4765C42.2606 24.4765 41.6781 24.8344 41.362 25.5503C41.1981 25.9286 41.1161 26.4116 41.1161 26.9994V32.15H38.6221V22.6519H41.0371V24.04C41.3591 23.5511 41.6635 23.199 41.9504 22.9837C42.4656 22.5996 43.1183 22.4075 43.9087 22.4075Z" fill="black"/>
<path d="M79.0098 33.992L78.6936 33.9746V35.965C78.9629 35.9824 79.1649 35.9912 79.2995 35.9912C79.4342 35.997 79.6128 35.9999 79.8352 35.9999C80.9417 35.9999 81.6794 35.7816 82.0482 35.3451C82.4171 34.9145 82.9176 33.7971 83.5499 31.9929L86.8343 22.6345H84.1734L82.1975 29.6533L80.1075 22.6345H77.3237L80.8364 32.5691C80.8598 32.6389 80.8071 32.831 80.6783 33.1452C80.5553 33.4595 80.4207 33.6661 80.2743 33.765C80.1221 33.8698 79.9348 33.9367 79.7123 33.9658C79.4898 33.9949 79.2556 34.0037 79.0098 33.992Z" fill="black"/>
<path d="M103.487 29.9642V21.471H101.892V19.2822H107.583V21.471H106.174V29.9642H107.583V32.153H101.892V29.9642H103.487Z" fill="black"/>
<path d="M83.4043 13.96L84.7734 9.83008H85.7158C85.5958 10.1553 85.3287 10.8978 84.915 12.0566C84.6057 12.9278 84.347 13.6382 84.1387 14.1875C83.6463 15.4815 83.2988 16.2712 83.0967 16.5557C82.8946 16.8398 82.5471 16.9823 82.0547 16.9824C81.9347 16.9824 81.8407 16.9772 81.7744 16.9678C81.7114 16.9583 81.6325 16.9412 81.5381 16.916V16.1387C81.6865 16.1797 81.794 16.2054 81.8604 16.2148C81.9265 16.2243 81.9847 16.2295 82.0352 16.2295C82.193 16.2295 82.3082 16.2021 82.3809 16.1484C82.4566 16.0979 82.5198 16.0348 82.5703 15.959C82.5861 15.9337 82.6434 15.8039 82.7412 15.5703C82.839 15.3369 82.9099 15.1634 82.9541 15.0498L81.0791 9.83008H82.0449L83.4043 13.96Z" fill="black"/>
<path fill-rule="evenodd" clip-rule="evenodd" d="M57.8691 9.68359C58.5225 9.68364 59.0749 9.90139 59.5264 10.3369C59.9778 10.7726 60.204 11.4137 60.2041 12.2598C60.2041 13.0775 60.0052 13.7535 59.6074 14.2871C59.2096 14.8207 58.5916 15.0879 57.7549 15.0879C57.0572 15.0878 56.5032 14.8522 56.0928 14.3818C55.6823 13.9082 55.4775 13.2732 55.4775 12.4775C55.4776 11.6252 55.6935 10.9465 56.126 10.4414C56.5586 9.9362 57.1397 9.68359 57.8691 9.68359ZM57.8457 10.4268C57.325 10.4268 56.9458 10.626 56.709 11.0234C56.4722 11.4213 56.3535 11.9018 56.3535 12.4639C56.3535 13.0038 56.4722 13.4535 56.709 13.8135C56.9458 14.1734 57.3213 14.3535 57.8359 14.3535C58.401 14.3535 58.7877 14.1401 58.9961 13.7139C59.2075 13.2846 59.3134 12.8081 59.3135 12.2842C59.3135 11.8105 59.2375 11.4247 59.0859 11.1279C58.846 10.6609 58.4327 10.4269 57.8457 10.4268Z" fill="black"/>
<path fill-rule="evenodd" clip-rule="evenodd" d="M65.9824 9.7168C66.3423 9.7168 66.6915 9.80219 67.0293 9.97266C67.3672 10.14 67.6249 10.3576 67.8018 10.626C67.9723 10.8817 68.0857 11.1805 68.1426 11.5215C68.1931 11.7551 68.2187 12.1275 68.2188 12.6387H64.5C64.5158 13.1534 64.6379 13.5673 64.8652 13.8799C65.0925 14.1892 65.4443 14.3437 65.9209 14.3438C66.3661 14.3438 66.7221 14.197 66.9873 13.9033C67.1387 13.7329 67.2455 13.5355 67.3086 13.3115H68.1475C68.1254 13.4978 68.051 13.7061 67.9248 13.9365C67.8017 14.1639 67.6625 14.3508 67.5078 14.4961C67.2491 14.7484 66.9286 14.9184 66.5469 15.0068C66.3417 15.0573 66.1093 15.083 65.8506 15.083C65.2191 15.083 64.683 14.8543 64.2441 14.3965C63.8053 13.9355 63.586 13.2911 63.5859 12.4639C63.5859 11.6494 63.8071 10.9878 64.249 10.4795C64.691 9.97122 65.269 9.71689 65.9824 9.7168ZM65.9307 10.46C65.5391 10.46 65.2105 10.6026 64.9453 10.8867C64.6802 11.1677 64.5402 11.5263 64.5244 11.9619H67.3418C67.3071 11.5925 67.2269 11.2972 67.1006 11.0762C66.8669 10.6657 66.4769 10.46 65.9307 10.46Z" fill="black"/>
<path fill-rule="evenodd" clip-rule="evenodd" d="M73.1133 7.92188V14.9033H72.3467V14.1973C72.1478 14.5099 71.9122 14.7361 71.6406 14.875C71.3692 15.0138 71.0582 15.083 70.708 15.083C70.1428 15.083 69.6529 14.8457 69.2393 14.3721C68.8258 13.8954 68.6192 13.2627 68.6191 12.4736C68.6191 11.7348 68.8069 11.0946 69.1826 10.5547C69.5615 10.0118 70.1019 9.74023 70.8027 9.74023C71.1909 9.74029 71.5163 9.8222 71.7783 9.98633C71.9299 10.0811 72.1014 10.2476 72.2939 10.4844V7.92188H73.1133ZM70.9629 10.4844C70.5338 10.4845 70.1853 10.6484 69.917 10.9766C69.6518 11.3049 69.5186 11.788 69.5186 12.4258C69.5186 12.9689 69.6338 13.4238 69.8643 13.79C70.0947 14.1563 70.4644 14.3388 70.9727 14.3389C71.3672 14.3389 71.6908 14.1705 71.9434 13.833C72.1991 13.492 72.3271 13.0038 72.3271 12.3691C72.3271 11.7283 72.1965 11.2545 71.9346 10.9482C71.6725 10.6388 71.3481 10.4844 70.9629 10.4844Z" fill="black"/>
<path fill-rule="evenodd" clip-rule="evenodd" d="M40.0781 9.70703C40.6748 9.70703 41.1597 9.82056 41.5322 10.0479C41.9017 10.2752 42.0859 10.6294 42.0859 11.1094V14.0312C42.0859 14.1195 42.104 14.1905 42.1387 14.2441C42.1765 14.2978 42.2535 14.3251 42.3701 14.3252C42.4079 14.3252 42.4508 14.3235 42.498 14.3203C42.5454 14.314 42.5967 14.3063 42.6504 14.2969V14.9268C42.5178 14.9646 42.4161 14.9886 42.3467 14.998C42.2772 15.0075 42.1824 15.0117 42.0625 15.0117C41.7689 15.0117 41.5554 14.9076 41.4229 14.6992C41.3535 14.5887 41.3048 14.4324 41.2764 14.2305C41.1028 14.4577 40.8534 14.655 40.5283 14.8223C40.2031 14.9896 39.8446 15.0732 39.4531 15.0732C38.9826 15.0732 38.5968 14.9316 38.2969 14.6475C38.0002 14.3602 37.8516 14.0016 37.8516 13.5723C37.8516 13.1018 37.9993 12.7365 38.293 12.4775C38.5866 12.2189 38.9717 12.06 39.4482 12L40.8076 11.8291C41.0032 11.8038 41.1338 11.7217 41.2002 11.583C41.2381 11.5072 41.2578 11.3979 41.2578 11.2559C41.2578 10.9656 41.1535 10.7554 40.9453 10.626C40.7401 10.4934 40.4446 10.4268 40.0596 10.4268C39.6145 10.4268 39.2986 10.5473 39.1123 10.7871C39.0081 10.9197 38.9398 11.1169 38.9082 11.3789H38.1123C38.1281 10.7538 38.3304 10.3193 38.7188 10.0762C39.1102 9.82996 39.5635 9.70703 40.0781 9.70703ZM41.2334 12.3213C41.1292 12.3876 40.9952 12.4431 40.8311 12.4873C40.6669 12.5315 40.5055 12.5631 40.3477 12.582L39.832 12.6484C39.5226 12.6895 39.2905 12.7544 39.1357 12.8428C38.8738 12.9911 38.7423 13.2277 38.7422 13.5527C38.7422 13.799 38.8327 13.9937 39.0127 14.1357C39.1926 14.2777 39.4061 14.3486 39.6523 14.3486C39.9521 14.3486 40.2426 14.2795 40.5234 14.1406C40.997 13.9102 41.2333 13.5328 41.2334 13.0088V12.3213Z" fill="black"/>
<path fill-rule="evenodd" clip-rule="evenodd" d="M90.5615 9.70703C91.1582 9.70706 91.6431 9.82053 92.0156 10.0479C92.3851 10.2752 92.5693 10.6294 92.5693 11.1094V14.0312C92.5693 14.1196 92.5874 14.1905 92.6221 14.2441C92.6599 14.2978 92.7368 14.3252 92.8535 14.3252C92.8914 14.3252 92.9341 14.3235 92.9814 14.3203C93.0287 14.314 93.0793 14.3063 93.1328 14.2969V14.9268C93.0004 14.9646 92.8995 14.9886 92.8301 14.998C92.7606 15.0075 92.6659 15.0117 92.5459 15.0117C92.2522 15.0117 92.0389 14.9076 91.9062 14.6992C91.8368 14.5887 91.7882 14.4324 91.7598 14.2305C91.5862 14.4577 91.3367 14.655 91.0117 14.8223C90.6866 14.9896 90.3279 15.0732 89.9365 15.0732C89.4661 15.0732 89.0802 14.9316 88.7803 14.6475C88.4835 14.3602 88.335 14.0016 88.335 13.5723C88.335 13.1018 88.4817 12.7365 88.7754 12.4775C89.069 12.2186 89.4549 12.06 89.9316 12L91.291 11.8291C91.4865 11.8038 91.6173 11.7217 91.6836 11.583C91.7215 11.5072 91.7402 11.3979 91.7402 11.2559C91.7402 10.9654 91.6361 10.7554 91.4277 10.626C91.2225 10.4935 90.927 10.4268 90.542 10.4268C90.097 10.4268 89.781 10.5472 89.5947 10.7871C89.4906 10.9197 89.4232 11.1171 89.3916 11.3789H88.5957C88.6115 10.7538 88.8138 10.3193 89.2021 10.0762C89.5936 9.83002 90.047 9.70703 90.5615 9.70703ZM91.7168 12.3213C91.6126 12.3876 91.4786 12.4431 91.3145 12.4873C91.1503 12.5315 90.9889 12.5631 90.8311 12.582L90.3154 12.6484C90.0061 12.6895 89.7739 12.7544 89.6191 12.8428C89.3572 12.9911 89.2257 13.2277 89.2256 13.5527C89.2256 13.799 89.3161 13.9937 89.4961 14.1357C89.6759 14.2776 89.8887 14.3486 90.1348 14.3486C90.4347 14.3486 90.7258 14.2796 91.0068 14.1406C91.4803 13.9102 91.7167 13.5327 91.7168 13.0088V12.3213Z" fill="black"/>
<path fill-rule="evenodd" clip-rule="evenodd" d="M116.084 9.70703C116.681 9.70703 117.166 9.8207 117.538 10.0479C117.908 10.2752 118.093 10.6294 118.093 11.1094V14.0312C118.093 14.1194 118.11 14.1905 118.145 14.2441C118.182 14.2978 118.26 14.3252 118.377 14.3252C118.415 14.3252 118.458 14.3235 118.505 14.3203C118.552 14.314 118.603 14.3063 118.656 14.2969V14.9268C118.524 14.9646 118.423 14.9885 118.354 14.998C118.284 15.0075 118.189 15.0117 118.069 15.0117C117.776 15.0117 117.562 14.9076 117.43 14.6992C117.36 14.5887 117.312 14.4325 117.283 14.2305C117.11 14.4578 116.859 14.6549 116.534 14.8223C116.209 14.9896 115.85 15.0732 115.459 15.0732C114.989 15.0732 114.604 14.9315 114.304 14.6475C114.007 14.3602 113.858 14.0016 113.858 13.5723C113.858 13.1018 114.005 12.7365 114.299 12.4775C114.592 12.2188 114.978 12.06 115.454 12L116.813 11.8291C117.009 11.8038 117.141 11.7219 117.207 11.583C117.245 11.5072 117.264 11.3979 117.264 11.2559C117.264 10.9654 117.16 10.7554 116.951 10.626C116.746 10.4934 116.451 10.4268 116.065 10.4268C115.62 10.4268 115.304 10.5471 115.118 10.7871C115.014 10.9197 114.947 11.117 114.915 11.3789H114.119C114.135 10.7538 114.337 10.3193 114.726 10.0762C115.117 9.83019 115.57 9.7071 116.084 9.70703ZM117.24 12.3213C117.136 12.3875 117.002 12.4431 116.838 12.4873C116.674 12.5315 116.512 12.5631 116.354 12.582L115.838 12.6484C115.529 12.6895 115.296 12.7544 115.142 12.8428C114.88 12.9911 114.749 13.2278 114.749 13.5527C114.749 13.799 114.839 13.9937 115.019 14.1357C115.199 14.2778 115.412 14.3486 115.658 14.3486C115.958 14.3486 116.248 14.2794 116.529 14.1406C117.003 13.9102 117.24 13.5328 117.24 13.0088V12.3213Z" fill="black"/>
<path fill-rule="evenodd" clip-rule="evenodd" d="M77.2588 7.92188V10.4463C77.4451 10.2032 77.6678 10.0179 77.9268 9.8916C78.1855 9.76231 78.4666 9.69824 78.7695 9.69824C79.401 9.69828 79.9122 9.91586 80.3037 10.3516C80.6984 10.7841 80.8955 11.4233 80.8955 12.2695C80.8955 13.0715 80.7019 13.7381 80.3135 14.2686C79.9251 14.7989 79.3865 15.0645 78.6982 15.0645C78.3131 15.0644 77.9879 14.9705 77.7227 14.7842C77.5648 14.6737 77.3957 14.4969 77.2158 14.2539V14.9033H76.4297V7.92188H77.2588ZM78.6699 10.46C78.2815 10.46 77.9401 10.6043 77.6465 10.8916C77.3562 11.179 77.2109 11.6528 77.2109 12.3125C77.211 12.7891 77.2707 13.1759 77.3906 13.4727C77.6148 14.0315 78.0339 14.3105 78.6465 14.3105C79.1073 14.3105 79.4514 14.1278 79.6787 13.7617C79.9092 13.3955 80.0244 12.9123 80.0244 12.3125C80.0244 11.779 79.9091 11.3368 79.6787 10.9863C79.4514 10.6358 79.1151 10.46 78.6699 10.46Z" fill="black"/>
<path d="M44.0498 9.83008V13.1982C44.0498 13.457 44.0908 13.6689 44.1729 13.833C44.3244 14.1359 44.6071 14.287 45.0205 14.2871C45.6141 14.2871 46.0187 14.0217 46.2334 13.4912C46.3501 13.2071 46.4082 12.8168 46.4082 12.3213V9.83008H47.2607V14.9033H46.4561L46.4658 14.1543C46.3554 14.3468 46.2178 14.51 46.0537 14.6426C45.7285 14.9078 45.3333 15.04 44.8691 15.04C44.1461 15.04 43.6537 14.7985 43.3916 14.3154C43.2496 14.0565 43.1787 13.7108 43.1787 13.2783V9.83008H44.0498Z" fill="black"/>
<path d="M102.05 13.1982C102.05 13.457 102.091 13.6689 102.173 13.833C102.324 14.136 102.608 14.2871 103.021 14.2871C103.615 14.287 104.019 14.0216 104.233 13.4912C104.35 13.2071 104.409 12.8169 104.409 12.3213V9.83008H105.262V14.9033H104.456L104.466 14.1543C104.355 14.3469 104.218 14.51 104.054 14.6426C103.728 14.9078 103.333 15.04 102.869 15.04C102.146 15.04 101.654 14.7985 101.392 14.3154C101.25 14.0565 101.179 13.7108 101.179 13.2783V9.83008H102.05V13.1982Z" fill="black"/>
<path d="M49.3379 8.41406V9.83008H50.1484V10.5264H49.3379V13.8369C49.3379 14.0137 49.3986 14.1324 49.5186 14.1924C49.5849 14.227 49.6951 14.2441 49.8496 14.2441H49.9824C50.0298 14.241 50.0853 14.2368 50.1484 14.2305V14.9033C50.0506 14.9317 49.9472 14.9522 49.8398 14.9648C49.7358 14.9774 49.622 14.9834 49.499 14.9834C49.1015 14.9834 48.8316 14.8825 48.6895 14.6807C48.5474 14.4754 48.4766 14.2099 48.4766 13.8848V10.5264H47.7891V9.83008H48.4766V8.41406H49.3379Z" fill="black"/>
<path d="M51.5674 7.92188V10.5176C51.7693 10.262 51.9504 10.0818 52.1113 9.97754C52.386 9.79756 52.7292 9.70703 53.1396 9.70703C53.8752 9.70709 54.3737 9.96487 54.6357 10.4795C54.7778 10.7605 54.8496 11.1506 54.8496 11.6494V14.9033H53.9727V11.7061C53.9727 11.3336 53.9257 11.0604 53.8311 10.8867C53.6763 10.6089 53.3853 10.4697 52.959 10.4697C52.6055 10.4698 52.2853 10.5919 51.998 10.835C51.7108 11.0781 51.5674 11.5373 51.5674 12.2129V14.9033H50.7148V7.92188H51.5674Z" fill="black"/>
<path d="M63.2285 9.72168C63.2664 9.72484 63.3314 9.73078 63.4229 9.74023V10.6406C63.3723 10.6312 63.3245 10.6243 63.2803 10.6211C63.2394 10.618 63.1938 10.6162 63.1436 10.6162C62.7142 10.6162 62.3838 10.7555 62.1533 11.0332C61.9228 11.3079 61.8076 11.6254 61.8076 11.9854V14.9033H60.9551V9.83008H61.7646V10.707C61.831 10.5365 61.994 10.3291 62.2529 10.0859C62.5117 9.83989 62.8099 9.71689 63.1475 9.7168C63.1632 9.7168 63.1906 9.71852 63.2285 9.72168Z" fill="black"/>
<path d="M96.9414 7.92188V10.5176C97.1434 10.2619 97.3253 10.0818 97.4863 9.97754C97.761 9.79756 98.1042 9.70703 98.5146 9.70703C99.2501 9.70714 99.7487 9.96492 100.011 10.4795C100.153 10.7605 100.224 11.1506 100.224 11.6494V14.9033H99.3477V11.7061C99.3477 11.3337 99.3007 11.0604 99.2061 10.8867C99.0513 10.6089 98.7603 10.4697 98.334 10.4697C97.9804 10.4698 97.6603 10.5919 97.373 10.835C97.0857 11.0781 96.9414 11.5372 96.9414 12.2129V14.9033H96.0889V7.92188H96.9414Z" fill="black"/>
<path d="M111.54 9.7168C112.222 9.71689 112.686 9.96357 112.933 10.4561C113.065 10.7212 113.131 11.0783 113.131 11.5264V14.9033H112.245V11.3789C112.245 11.0412 112.16 10.8089 111.989 10.6826C111.822 10.5565 111.617 10.4932 111.374 10.4932C111.039 10.4932 110.75 10.6059 110.507 10.8301C110.267 11.0543 110.147 11.4283 110.147 11.9521V14.9033H109.28V11.5928C109.28 11.2486 109.239 10.9967 109.157 10.8389C109.028 10.6022 108.786 10.4844 108.433 10.4844C108.111 10.4844 107.817 10.609 107.552 10.8584C107.29 11.1079 107.158 11.5593 107.158 12.2129V14.9033H106.306V9.83008H107.149V10.5508C107.351 10.3015 107.534 10.1195 107.698 10.0059C107.979 9.81325 108.298 9.7168 108.655 9.7168C109.059 9.7168 109.385 9.81586 109.631 10.0146C109.77 10.1283 109.896 10.2965 110.01 10.5176C110.199 10.2461 110.422 10.0455 110.678 9.91602C110.933 9.7834 111.221 9.7168 111.54 9.7168Z" fill="black"/>
<path d="M121.671 9.7168C122.391 9.7168 122.877 9.96774 123.13 10.4697C123.269 10.7444 123.339 11.1379 123.339 11.6494V14.9033H122.472V11.7061C122.472 11.3967 122.425 11.1474 122.334 10.958C122.182 10.6423 121.908 10.4844 121.51 10.4844C121.308 10.4844 121.142 10.5049 121.013 10.5459C120.779 10.6153 120.574 10.7538 120.397 10.9619C120.255 11.1292 120.162 11.3034 120.118 11.4834C120.077 11.6602 120.056 11.9146 120.056 12.2461V14.9033H119.203V9.83008H120.014V10.5508C120.254 10.254 120.508 10.0406 120.776 9.91113C121.045 9.78177 121.343 9.71684 121.671 9.7168Z" fill="black"/>
</svg>
