<svg width="131" height="42" viewBox="0 0 131 42" fill="none" xmlns="http://www.w3.org/2000/svg">
<path d="M0.5 0.5H116C124.008 0.5 130.5 6.99187 130.5 15V41.5H15C6.99187 41.5 0.5 35.0081 0.5 27V0.5Z" fill="white" stroke="black"/>
<path d="M29.8497 24.1575C26.3836 26.9643 21.4266 26.9643 17.9605 24.1575L19.3007 22.5026C21.9854 24.6766 25.8248 24.6766 28.5095 22.5026L29.8497 24.1575Z" fill="black"/>
<path d="M19.404 17.6365V20.5134H21.5336V17.6365H19.404Z" fill="black"/>
<path d="M26.012 17.6365V20.5134H28.1415V17.6365H26.012Z" fill="black"/>
<path fill-rule="evenodd" clip-rule="evenodd" d="M23.5 33C29.8513 33 35 27.8513 35 21.5C35 15.1487 29.8513 10 23.5 10C17.1487 10 12 15.1487 12 21.5C12 27.8513 17.1487 33 23.5 33ZM23.5 30.8705C28.6752 30.8705 32.8705 26.6752 32.8705 21.5C32.8705 16.3248 28.6752 12.1295 23.5 12.1295C18.3248 12.1295 14.1295 16.3248 14.1295 21.5C14.1295 26.6752 18.3248 30.8705 23.5 30.8705Z" fill="black"/>
<path d="M95.5774 12.4315C95.5774 11.7337 95.7266 11.2593 96.0251 11.0082C96.3237 10.7571 96.6566 10.6315 97.024 10.6315C97.4668 10.6315 97.7686 10.775 97.9293 11.062C98.0278 11.2413 98.077 11.5234 98.077 11.9082V15.2098H98.9872V11.8495C98.9872 11.3343 98.9134 10.9315 98.7658 10.6413C98.4935 10.1098 97.9753 9.84403 97.211 9.84403C96.7845 9.84403 96.4286 9.93696 96.1432 10.1228C95.9759 10.2304 95.7873 10.4163 95.5774 10.6804V8H94.6917V15.2098H95.5774V12.4315Z" fill="black"/>
<path fill-rule="evenodd" clip-rule="evenodd" d="M116.221 12.0354C116.425 12.0093 116.561 11.9245 116.63 11.781C116.669 11.7028 116.689 11.5903 116.689 11.4435C116.689 11.1435 116.581 10.9267 116.364 10.793C116.151 10.656 115.844 10.5875 115.444 10.5875C114.982 10.5875 114.653 10.7115 114.46 10.9593C114.352 11.0962 114.281 11.3001 114.248 11.5707H113.422C113.438 10.9251 113.648 10.4767 114.052 10.2256C114.458 9.97124 114.929 9.84407 115.464 9.84407C116.084 9.84407 116.587 9.96146 116.974 10.1962C117.358 10.431 117.55 10.7962 117.55 11.2919V14.3098C117.55 14.4012 117.568 14.4745 117.604 14.53C117.643 14.5854 117.724 14.6131 117.845 14.6131C117.885 14.6131 117.929 14.6115 117.978 14.6082C118.027 14.6017 118.08 14.5935 118.135 14.5838V15.2343C117.998 15.2734 117.893 15.2979 117.821 15.3077C117.748 15.3175 117.65 15.3224 117.525 15.3224C117.22 15.3224 116.999 15.2147 116.861 14.9995C116.789 14.8854 116.738 14.724 116.709 14.5153C116.528 14.7501 116.269 14.9539 115.931 15.1267C115.593 15.2995 115.221 15.3859 114.814 15.3859C114.325 15.3859 113.925 15.2392 113.614 14.9457C113.305 14.649 113.151 14.2789 113.151 13.8354C113.151 13.3495 113.304 12.9729 113.609 12.7055C113.914 12.4381 114.314 12.2734 114.809 12.2115L116.221 12.0354ZM114.076 13.8158C114.076 14.0702 114.17 14.2707 114.357 14.4175C114.544 14.5642 114.765 14.6376 115.021 14.6376C115.332 14.6376 115.634 14.5658 115.926 14.4223C116.418 14.1843 116.664 13.7946 116.664 13.2533V12.5441C116.556 12.6126 116.417 12.6696 116.246 12.7153C116.075 12.7609 115.908 12.7935 115.744 12.8131L115.208 12.8816C114.886 12.924 114.645 12.9908 114.485 13.0821C114.212 13.2354 114.076 13.48 114.076 13.8158Z" fill="black"/>
<path d="M120.338 10.0543C120.059 10.188 119.795 10.4081 119.546 10.7147V9.97118H118.704V15.2098H119.59V12.4658C119.59 12.1234 119.611 11.8609 119.654 11.6783C119.7 11.4924 119.797 11.313 119.944 11.1402C120.128 10.925 120.341 10.7815 120.584 10.7098C120.719 10.6674 120.891 10.6462 121.101 10.6462C121.514 10.6462 121.799 10.8092 121.957 11.1353C122.052 11.331 122.1 11.5886 122.1 11.9081V15.2098H123V11.8494C123 11.3212 122.928 10.9152 122.784 10.6315C122.521 10.113 122.016 9.85379 121.268 9.85379C120.927 9.85379 120.617 9.92063 120.338 10.0543Z" fill="black"/>
<path fill-rule="evenodd" clip-rule="evenodd" d="M100.597 19.2823L105.181 32.1501H102.248L101.414 29.505H96.6451L95.7493 32.1501H92.9216L97.5408 19.2823H100.597ZM100.658 27.2876L99.0425 22.2243L97.3739 27.2876H100.658Z" fill="black"/>
<path fill-rule="evenodd" clip-rule="evenodd" d="M77.2045 22.4251C78.4632 22.4251 79.4468 22.8761 80.1552 23.7782C80.8694 24.6803 81.2265 25.8443 81.2265 27.2702C81.2265 28.7484 80.8753 29.9735 80.1727 30.9454C79.4702 31.9173 78.4896 32.4033 77.2308 32.4033C76.4405 32.4033 75.8053 32.2462 75.3252 31.9319C75.0383 31.7457 74.728 31.4197 74.3943 30.9541V32.1501H71.9442V19.2998H74.4382V23.8742C74.7544 23.4319 75.1027 23.0944 75.4833 22.8616C75.9341 22.5706 76.5078 22.4251 77.2045 22.4251ZM76.5634 30.3518C77.2074 30.3518 77.708 30.0928 78.0651 29.5748C78.4222 29.0569 78.6008 28.3759 78.6008 27.532C78.6008 26.8569 78.513 26.2982 78.3373 25.8559C78.0036 25.0179 77.3889 24.5988 76.4932 24.5988C75.5857 24.5988 74.9622 25.0091 74.6227 25.8297C74.447 26.2662 74.3592 26.8308 74.3592 27.5233C74.3592 28.3381 74.5407 29.0132 74.9037 29.5486C75.2667 30.0841 75.8199 30.3518 76.5634 30.3518Z" fill="black"/>
<path d="M63.5067 30.3518C63.5067 30.9454 63.6472 31.3848 63.9282 31.67C64.3614 32.1181 65.1694 32.3218 66.352 32.2811L67.5375 32.2374V30.378C67.4555 30.3838 67.3706 30.3896 67.2828 30.3954H67.0457C66.5364 30.3954 66.2319 30.3489 66.1324 30.2558C66.0329 30.1568 65.9831 29.9124 65.9831 29.5225V24.4941H67.5375V22.7219H65.9831V20.068H63.5067V22.7219H62.1718V24.4941H63.5067V30.3518Z" fill="black"/>
<path fill-rule="evenodd" clip-rule="evenodd" d="M62.0745 27.4098C62.0745 28.8066 61.6706 30.0026 60.8627 30.9978C60.0547 31.9872 58.8282 32.4819 57.1831 32.4819C55.538 32.4819 54.3115 31.9872 53.5036 30.9978C52.6956 30.0026 52.2917 28.8066 52.2917 27.4098C52.2917 26.0363 52.6956 24.8462 53.5036 23.8393C54.3115 22.8325 55.538 22.3291 57.1831 22.3291C58.8282 22.3291 60.0547 22.8325 60.8627 23.8393C61.6706 24.8462 62.0745 26.0363 62.0745 27.4098ZM57.1743 30.3954C57.9061 30.3954 58.4682 30.1365 58.8604 29.6185C59.2527 29.1005 59.4488 28.3643 59.4488 27.4098C59.4488 26.4554 59.2527 25.7221 58.8604 25.2099C58.4682 24.6919 57.9061 24.433 57.1743 24.433C56.4425 24.433 55.8776 24.6919 55.4794 25.2099C55.0872 25.7221 54.8911 26.4554 54.8911 27.4098C54.8911 28.3643 55.0872 29.1005 55.4794 29.6185C55.8776 30.1365 56.4425 30.3954 57.1743 30.3954Z" fill="black"/>
<path d="M47.9089 22.4076C48.8983 22.4076 49.7062 22.6666 50.3326 23.1846C50.9649 23.6967 51.2811 24.5494 51.2811 25.7424V32.1501H48.7168V26.3622C48.7168 25.8617 48.6495 25.4776 48.5148 25.2099C48.2689 24.721 47.8006 24.4766 47.1097 24.4766C46.2608 24.4766 45.6783 24.8345 45.3622 25.5504C45.1982 25.9287 45.1163 26.4117 45.1163 26.9995V32.1501H42.6223V22.6521H45.0372V24.0401C45.3592 23.5512 45.6637 23.1991 45.9505 22.9838C46.4657 22.5997 47.1185 22.4076 47.9089 22.4076Z" fill="black"/>
<path d="M83.0099 33.9921L82.6938 33.9747V35.9651C82.9631 35.9825 83.1651 35.9913 83.2997 35.9913C83.4344 35.9971 83.613 36 83.8354 36C84.9419 36 85.6796 35.7818 86.0484 35.3453C86.4173 34.9146 86.9178 33.7972 87.5501 31.993L90.8345 22.6346H88.1736L86.1977 29.6534L84.1077 22.6346H81.3238L84.8365 32.5692C84.86 32.639 84.8073 32.8311 84.6785 33.1453C84.5555 33.4596 84.4209 33.6662 84.2745 33.7652C84.1223 33.8699 83.9349 33.9368 83.7125 33.9659C83.49 33.995 83.2558 34.0038 83.0099 33.9921Z" fill="black"/>
<path d="M106.181 10.7147C106.391 10.457 106.581 10.2695 106.752 10.1522C107.044 9.95324 107.375 9.85379 107.746 9.85379C108.166 9.85379 108.504 9.9565 108.759 10.1619C108.904 10.2793 109.035 10.4522 109.153 10.6804C109.35 10.4 109.581 10.1929 109.847 10.0592C110.112 9.92226 110.411 9.85379 110.742 9.85379C111.451 9.85379 111.933 10.1081 112.189 10.6168C112.327 10.8907 112.396 11.2592 112.396 11.7223V15.2098H111.475V11.5706C111.475 11.2217 111.387 10.9821 111.21 10.8516C111.036 10.7212 110.823 10.656 110.57 10.656C110.222 10.656 109.922 10.7717 109.67 11.0032C109.42 11.2348 109.296 11.6212 109.296 12.1625V15.2098H108.395V11.7908C108.395 11.4353 108.353 11.1761 108.267 11.013C108.133 10.7685 107.882 10.6462 107.515 10.6462C107.18 10.6462 106.875 10.775 106.599 11.0326C106.327 11.2902 106.191 11.7565 106.191 12.4315V15.2098H105.305V9.97118H106.181V10.7147Z" fill="black"/>
<path d="M101.012 14.1043C100.927 13.9347 100.884 13.7163 100.884 13.4489V9.97114H99.9787V13.532C99.9787 13.9788 100.052 14.3358 100.2 14.6032C100.472 15.1021 100.984 15.3516 101.735 15.3516C102.217 15.3516 102.627 15.2146 102.965 14.9407C103.136 14.8038 103.279 14.6358 103.393 14.4369L103.384 15.2097H104.22V9.97114H103.334V12.544C103.334 13.0559 103.274 13.4587 103.152 13.7521C102.929 14.3 102.509 14.5739 101.893 14.5739C101.463 14.5739 101.169 14.4174 101.012 14.1043Z" fill="black"/>
<path d="M90.7449 9.97114L89.3228 14.2364L87.9107 9.97114H86.9069L88.8554 15.3614C88.8095 15.4788 88.7357 15.6581 88.634 15.8994C88.5323 16.1407 88.4733 16.2744 88.4569 16.3005C88.4044 16.3788 88.3388 16.444 88.26 16.4962C88.1846 16.5516 88.0649 16.5793 87.9009 16.5793C87.8484 16.5793 87.7877 16.5744 87.7188 16.5646C87.6499 16.5549 87.5384 16.5288 87.3842 16.4864V17.2886C87.4826 17.3146 87.5646 17.3326 87.6302 17.3424C87.6991 17.3521 87.7959 17.357 87.9205 17.357C88.4323 17.357 88.7931 17.2103 89.003 16.9168C89.213 16.6233 89.5738 15.8081 90.0855 14.4712C90.302 13.9038 90.571 13.1701 90.8925 12.2701C91.3222 11.0733 91.5994 10.307 91.724 9.97114H90.7449Z" fill="black"/>
<path fill-rule="evenodd" clip-rule="evenodd" d="M83.4203 15.0875C83.2563 14.9734 83.0808 14.7908 82.8938 14.5397V15.2098H82.077V8H82.9381V10.6071C83.1316 10.356 83.3629 10.1652 83.6319 10.0348C83.9008 9.9011 84.1928 9.83425 84.5077 9.83425C85.1637 9.83425 85.6951 10.0592 86.1019 10.5093C86.5119 10.956 86.717 11.6163 86.717 12.4902C86.717 13.3185 86.5152 14.0065 86.1117 14.5544C85.7083 15.1022 85.149 15.3761 84.4339 15.3761C84.0337 15.3761 83.6958 15.2799 83.4203 15.0875ZM84.3798 14.5984C84.8587 14.5984 85.2162 14.4093 85.4524 14.031C85.6919 13.6527 85.8116 13.1538 85.8116 12.5343C85.8116 11.9832 85.6919 11.5266 85.4524 11.1647C85.2162 10.8027 84.8669 10.6218 84.4044 10.6218C84.0009 10.6218 83.6466 10.7701 83.3416 11.0669C83.0398 11.3636 82.8889 11.8527 82.8889 12.5343C82.8889 13.0267 82.9512 13.4261 83.0759 13.7326C83.3088 14.3098 83.7434 14.5984 84.3798 14.5984Z" fill="black"/>
<path fill-rule="evenodd" clip-rule="evenodd" d="M77.2447 10.1326C76.9724 9.96305 76.6346 9.87827 76.2311 9.87827C75.5029 9.87827 74.9419 10.1587 74.5483 10.7196C74.1579 11.2772 73.9628 11.9375 73.9628 12.7006C73.9628 13.5158 74.1776 14.1696 74.6073 14.662C75.0371 15.1511 75.5455 15.3957 76.1327 15.3957C76.4968 15.3957 76.8199 15.3239 77.102 15.1805C77.3841 15.037 77.6285 14.8038 77.8351 14.481V15.2098H78.6322V8H77.781V10.6462C77.5809 10.4016 77.4021 10.2304 77.2447 10.1326ZM75.2568 14.0604C75.0174 13.6821 74.8976 13.2125 74.8976 12.6517C74.8976 11.993 75.0354 11.494 75.311 11.1549C75.5898 10.8158 75.9523 10.6462 76.3984 10.6462C76.7986 10.6462 77.1348 10.806 77.4071 11.1256C77.6793 11.4419 77.8154 11.931 77.8154 12.593C77.8154 13.2484 77.6826 13.7522 77.4169 14.1044C77.1545 14.4533 76.8182 14.6277 76.4082 14.6277C75.8801 14.6277 75.4963 14.4386 75.2568 14.0604Z" fill="black"/>
<path fill-rule="evenodd" clip-rule="evenodd" d="M71.2242 9.85379C71.5981 9.85379 71.9606 9.94183 72.3116 10.1179C72.6626 10.2907 72.9299 10.5157 73.1136 10.7929C73.2908 11.0571 73.4088 11.3652 73.4679 11.7174C73.5204 11.9587 73.5466 12.3435 73.5466 12.8717H69.6841C69.7005 13.4033 69.8268 13.8304 70.063 14.1533C70.2992 14.4728 70.6649 14.6326 71.1602 14.6326C71.6227 14.6326 71.9918 14.481 72.2673 14.1777C72.4248 14.0016 72.5363 13.7978 72.6019 13.5663H73.4728C73.4499 13.7587 73.3728 13.9739 73.2416 14.212C73.1136 14.4467 72.9693 14.6391 72.8086 14.7891C72.5396 15.05 72.2066 15.2261 71.8097 15.3174C71.5965 15.3696 71.3554 15.3957 71.0864 15.3957C70.4304 15.3957 69.8744 15.1592 69.4184 14.6864C68.9624 14.2103 68.7345 13.5451 68.7345 12.6908C68.7345 11.8494 68.9641 11.1663 69.4233 10.6413C69.8826 10.1163 70.4828 9.85379 71.2242 9.85379ZM72.6363 12.1723C72.6003 11.7908 72.5166 11.4859 72.3854 11.2576C72.1427 10.8337 71.7375 10.6217 71.1701 10.6217C70.7633 10.6217 70.4222 10.7685 70.1466 11.0619C69.8711 11.3522 69.7251 11.7223 69.7087 12.1723H72.6363Z" fill="black"/>
<path d="M66.8867 12.1967C66.8867 11.825 67.0064 11.4973 67.2459 11.2136C67.4854 10.9266 67.8281 10.7831 68.2743 10.7831C68.3268 10.7831 68.3743 10.7848 68.417 10.788C68.4629 10.7913 68.5121 10.7978 68.5646 10.8076V9.87824C68.4694 9.86846 68.4022 9.86194 68.3628 9.85868C68.3235 9.85542 68.2956 9.85379 68.2792 9.85379C67.9282 9.85379 67.6182 9.98096 67.3492 10.2353C67.0802 10.4864 66.9113 10.7 66.8424 10.8761V9.97118H66.001V15.2098H66.8867V12.1967Z" fill="black"/>
<path fill-rule="evenodd" clip-rule="evenodd" d="M62.7951 9.81953C63.4741 9.81953 64.0482 10.0445 64.5173 10.4945C64.9863 10.9445 65.2209 11.6065 65.2209 12.4804C65.2209 13.325 65.0142 14.0228 64.6009 14.5739C64.1876 15.125 63.5463 15.4005 62.677 15.4005C61.9521 15.4005 61.3764 15.1576 60.95 14.6717C60.5235 14.1826 60.3103 13.5272 60.3103 12.7054C60.3103 11.825 60.535 11.1239 60.9844 10.6021C61.4338 10.0804 62.0374 9.81953 62.7951 9.81953ZM62.7607 14.6424C63.3478 14.6424 63.7497 14.4223 63.9662 13.982C64.186 13.5386 64.2958 13.0462 64.2958 12.5049C64.2958 12.0157 64.2171 11.6179 64.0597 11.3114C63.8104 10.8288 63.3807 10.5875 62.7705 10.5875C62.2293 10.5875 61.8356 10.7929 61.5896 11.2038C61.3436 11.6146 61.2206 12.1103 61.2206 12.6907C61.2206 13.2483 61.3436 13.713 61.5896 14.0848C61.8356 14.4565 62.226 14.6424 62.7607 14.6424Z" fill="black"/>
<path d="M56.2483 12.4315C56.2483 11.7337 56.3975 11.2593 56.696 11.0082C56.9945 10.7571 57.3275 10.6315 57.6949 10.6315C58.1377 10.6315 58.4395 10.775 58.6002 11.062C58.6986 11.2413 58.7478 11.5234 58.7478 11.9082V15.2098H59.6581V11.8495C59.6581 11.3343 59.5843 10.9315 59.4367 10.6413C59.1644 10.1098 58.6461 9.84403 57.8818 9.84403C57.4554 9.84403 57.0995 9.93696 56.8141 10.1228C56.6468 10.2304 56.4582 10.4163 56.2483 10.6804V8H55.3626V15.2098H56.2483V12.4315Z" fill="black"/>
<path d="M53.2585 14.98C53.1109 14.768 53.0371 14.4941 53.0371 14.1582V10.6903H52.3237V9.97126H53.0371V8.50876H53.9326V9.97126H54.774V10.6903H53.9326V14.1093C53.9326 14.2919 53.995 14.4142 54.1196 14.4762C54.1885 14.512 54.3033 14.53 54.464 14.53H54.6018C54.651 14.5267 54.7084 14.5218 54.774 14.5153V15.2099C54.6723 15.2392 54.5657 15.2604 54.4542 15.2735C54.3459 15.2865 54.2279 15.293 54.0999 15.293C53.6866 15.293 53.4061 15.1887 53.2585 14.98Z" fill="black"/>
<path d="M47.5333 13.532C47.5333 13.9788 47.6071 14.3358 47.7547 14.6032C48.027 15.1021 48.5387 15.3516 49.2899 15.3516C49.7721 15.3516 50.1821 15.2146 50.52 14.9407C50.6906 14.8038 50.8333 14.6358 50.9481 14.4369L50.9382 15.2097H51.7747V9.97114H50.889V12.544C50.889 13.0559 50.8284 13.4587 50.707 13.7521C50.4839 14.3 50.0641 14.5739 49.4474 14.5739C49.0176 14.5739 48.7241 14.4174 48.5666 14.1043C48.4813 13.9347 48.4387 13.7163 48.4387 13.4489V9.97114H47.5333V13.532Z" fill="black"/>
<path fill-rule="evenodd" clip-rule="evenodd" d="M45.0703 12.0354C45.2737 12.0093 45.4098 11.9245 45.4787 11.781C45.5181 11.7028 45.5378 11.5903 45.5378 11.4435C45.5378 11.1435 45.4295 10.9267 45.213 10.793C44.9998 10.656 44.6931 10.5875 44.2929 10.5875C43.8304 10.5875 43.5024 10.7115 43.3088 10.9593C43.2006 11.0962 43.1301 11.3001 43.0973 11.5707H42.2706C42.287 10.9251 42.497 10.4767 42.9004 10.2256C43.3072 9.97124 43.7779 9.84407 44.3126 9.84407C44.9326 9.84407 45.4361 9.96146 45.8232 10.1962C46.2069 10.431 46.3988 10.7962 46.3988 11.2919V14.3098C46.3988 14.4012 46.4169 14.4745 46.453 14.53C46.4923 14.5854 46.5727 14.6131 46.6941 14.6131C46.7334 14.6131 46.7777 14.6115 46.8269 14.6082C46.8761 14.6017 46.9286 14.5935 46.9844 14.5838V15.2343C46.8466 15.2734 46.7416 15.2979 46.6695 15.3077C46.5973 15.3175 46.4989 15.3224 46.3742 15.3224C46.0692 15.3224 45.8478 15.2147 45.71 14.9995C45.6378 14.8854 45.587 14.724 45.5575 14.5153C45.377 14.7501 45.1179 14.9539 44.78 15.1267C44.4422 15.2995 44.0699 15.3859 43.6631 15.3859C43.1743 15.3859 42.7741 15.2392 42.4625 14.9457C42.1542 14.649 42 14.2789 42 13.8354C42 13.3495 42.1525 12.9729 42.4576 12.7055C42.7627 12.4381 43.1629 12.2734 43.6582 12.2115L45.0703 12.0354ZM42.925 13.8158C42.925 14.0702 43.0185 14.2707 43.2055 14.4175C43.3925 14.5642 43.6139 14.6376 43.8698 14.6376C44.1814 14.6376 44.4832 14.5658 44.7751 14.4223C45.2672 14.1843 45.5132 13.7946 45.5132 13.2533V12.5441C45.4049 12.6126 45.2655 12.6696 45.0949 12.7153C44.9244 12.7609 44.7571 12.7935 44.5931 12.8131L44.0567 12.8816C43.7353 12.924 43.4942 12.9908 43.3334 13.0821C43.0612 13.2354 42.925 13.48 42.925 13.8158Z" fill="black"/>
<path d="M107.487 29.9643V21.4711H105.892V19.2823H111.583V21.4711H110.174V29.9643H111.583V32.1531H105.892V29.9643H107.487Z" fill="black"/>
</svg>
