<svg width="131" height="42" viewBox="0 0 131 42" fill="none" xmlns="http://www.w3.org/2000/svg">
<path d="M0.5 0.5H116C124.008 0.5 130.5 6.99187 130.5 15V41.5H15C6.99187 41.5 0.5 35.0081 0.5 27V0.5Z" fill="white" stroke="black"/>
<path d="M17.9605 24.1575C21.4266 26.9643 26.3836 26.9643 29.8497 24.1575L28.5095 22.5026C25.8248 24.6766 21.9854 24.6766 19.3007 22.5026L17.9605 24.1575Z" fill="black"/>
<path d="M19.404 20.5134V17.6365H21.5336V20.5134H19.404Z" fill="black"/>
<path d="M26.012 17.6365V20.5134H28.1415V17.6365H26.012Z" fill="black"/>
<path fill-rule="evenodd" clip-rule="evenodd" d="M35 21.5C35 27.8513 29.8513 33 23.5 33C17.1487 33 12 27.8513 12 21.5C12 15.1487 17.1487 10 23.5 10C29.8513 10 35 15.1487 35 21.5ZM32.8705 21.5C32.8705 26.6752 28.6752 30.8705 23.5 30.8705C18.3248 30.8705 14.1295 26.6752 14.1295 21.5C14.1295 16.3248 18.3248 12.1295 23.5 12.1295C28.6752 12.1295 32.8705 16.3248 32.8705 21.5Z" fill="black"/>
<path fill-rule="evenodd" clip-rule="evenodd" d="M105.32 26.2505C105.32 25.9898 105.336 25.4196 105.336 25.4196H101.424V23.8717H105.573C105.764 26.2238 106.11 28.471 106.651 30.2984C105.776 31.2876 104.759 32.1157 103.612 32.7515C104.107 33.2077 104.953 34.2016 105.288 34.7067C106.138 34.1597 106.93 33.5082 107.658 32.7639C108.338 33.9391 109.193 34.6415 110.254 34.6415C111.898 34.6415 112.649 33.9572 113 30.78C112.377 30.5356 111.563 29.9817 111.036 29.4277C110.956 31.4155 110.765 32.2301 110.445 32.2301C110.06 32.2301 109.67 31.686 109.312 30.7655C110.465 29.1244 111.389 27.1985 112.058 25.0611L109.711 24.4908C109.396 25.6095 108.983 26.659 108.478 27.6243C108.264 26.4884 108.09 25.2105 107.974 23.8717H112.84V21.5418H111.142L111.946 20.6945C111.387 20.1568 110.27 19.4399 109.455 19L108.05 20.4175C108.553 20.7329 109.148 21.1437 109.647 21.5418H107.835C107.811 20.7923 107.808 20.0385 107.827 19.2933H105.384C105.387 20.0364 105.403 20.7892 105.433 21.5418H98.9812V26.4297C98.9812 28.5642 98.9014 31.4481 97.7199 33.3707C98.2468 33.6477 99.3006 34.5275 99.6997 35C100.514 33.7498 100.957 32.0088 101.189 30.2753C101.506 30.8638 101.745 31.7506 101.775 32.4257C102.51 32.4257 103.18 32.4094 103.612 32.3279C104.091 32.2301 104.458 32.0672 104.809 31.5947C105.192 31.0733 105.272 29.5743 105.32 26.2505ZM101.197 30.2141C101.316 29.3052 101.378 28.4 101.406 27.5703H103.058C103.023 29.1922 102.963 29.8644 102.829 30.0631C102.701 30.2261 102.558 30.275 102.35 30.275C102.102 30.275 101.674 30.2596 101.197 30.2141Z" fill="black"/>
<path d="M86.8673 22.112C87.1314 21.4187 87.3672 20.705 87.565 19.9939L85.1541 19.4399C84.6112 21.6395 83.5893 23.8717 82.3599 25.2077C82.9507 25.5336 83.9885 26.2342 84.4515 26.6415C84.9297 26.0332 85.4007 25.2744 85.839 24.4257H88.9062V26.9185H84.7709V29.1996H88.9062V32.002H82.8708V34.3157H97.4005V32.002H91.3332V29.1996H95.9156V26.9185H91.3332V24.4257H96.5543V22.112H91.3332V19.277H88.9062V22.112H86.8673Z" fill="black"/>
<path d="M47.3436 28.4645C47.4377 28.0285 47.4856 27.6141 47.4988 27.2444H43.8462V25.11H47.5026V23.4807H43.6866V21.2811H47.5026V19.3585H49.8018V27C49.8018 29.8513 48.9396 33.0611 45.0278 34.9837C44.6446 34.4134 43.9261 33.6802 43.3672 33.224C44.7784 32.6761 45.7414 31.786 46.3804 30.8057C45.6568 30.9237 44.9507 31.0375 44.2921 31.1436L43.4151 31.2851L43 28.9226C44.1273 28.8236 45.7056 28.6496 47.3436 28.4645Z" fill="black"/>
<path fill-rule="evenodd" clip-rule="evenodd" d="M72.6755 34.3304L67.632 19.7975H64.2696L59.1875 34.3304H62.2986L63.2841 31.3429H68.5305L69.4484 34.3304H72.6755ZM65.9218 23.1201L67.6996 28.8386H64.0861L65.9218 23.1201Z" fill="black"/>
<path d="M53.7456 19.3585V21.2811H57.9289V23.4807H53.7456V25.11H57.5457V27.2444H53.7456V28.9063H58.2163V31.1059H53.7456V34.7556H51.4144V19.3585H53.7456Z" fill="black"/>
<path d="M75.2124 22.2695V31.8617H73.4582V34.3337H79.7189V31.8617H78.169V22.2695H79.7189V19.7975H73.4582V22.2695H75.2124Z" fill="black"/>
<path d="M78.3658 7.17438C78.5033 7.44179 78.6493 7.76359 78.7587 8.04629H76.2849V8.676H82V8.04629H79.5523C79.4398 7.72648 79.2444 7.31329 79.0628 7L78.3658 7.17438Z" fill="black"/>
<path d="M74.423 8.25519C74.0141 8.3329 73.6022 8.39634 73.2183 8.44349C73.1884 8.28849 73.0889 8.0366 72.9993 7.87191C73.9949 7.70721 75.1499 7.45533 75.8269 7.16469L76.3048 7.75565C75.9617 7.88681 75.5533 8.00492 75.12 8.10731V9.82886H76.4442V10.507H75.12V10.7474C75.3751 10.9851 76.133 11.805 76.3048 12.028L75.8568 12.6093C75.7258 12.3607 75.4007 11.8855 75.12 11.4986V15.971H74.423V11.7922C74.0606 12.7359 73.6046 13.6557 73.1486 14.2368C73.069 14.0237 72.8798 13.7234 72.7503 13.5393C73.3306 12.855 73.9574 11.6041 74.3087 10.507H72.9993V9.82886H74.423V8.25519Z" fill="black"/>
<path d="M81.5619 15.8547C81.7909 15.7578 81.8407 15.5931 81.8407 15.2734V11.7277H76.3845V15.9516H77.0715V12.338H81.1537V15.2638C81.1537 15.3606 81.1139 15.3897 81.0243 15.3897C80.9247 15.3994 80.5961 15.3994 80.2476 15.3897C80.3273 15.5544 80.4169 15.7966 80.4468 15.9613C80.9944 15.9613 81.3329 15.9613 81.5619 15.8547Z" fill="black"/>
<path d="M64.1176 11.796C63.6257 11.952 63.1751 12.0894 62.8133 12.1927L63.0124 12.8999L63.198 12.8368C63.4851 12.7392 63.7954 12.6337 64.1176 12.524V15.0603C64.1176 15.1862 64.0678 15.225 63.9384 15.225C63.8288 15.225 63.4605 15.225 63.0323 15.2153C63.1319 15.4187 63.2315 15.7287 63.2613 15.9128C63.8687 15.9128 64.247 15.8934 64.4959 15.7772C64.7349 15.6609 64.8245 15.4575 64.8245 15.0506V12.283C65.1762 12.1629 65.5324 12.0409 65.8799 11.9214L65.7704 11.2529C65.455 11.3599 65.1363 11.4661 64.8245 11.5681V9.67382H65.7704V8.99567H64.8245V7.0484H64.1176V8.99567H62.9626V9.67382H64.1176V11.796Z" fill="black"/>
<path fill-rule="evenodd" clip-rule="evenodd" d="M66.995 10.2357C66.776 10.2357 66.7262 10.1485 66.7262 9.8482V9.36381H68.7076V7.44561H66.0989V9.83851C66.0989 10.5457 66.2782 10.7976 66.995 10.7976H68.2695C68.5383 10.7976 68.7972 10.7879 68.9366 10.7492C68.9165 10.6513 68.9008 10.5051 68.8867 10.3727C68.8859 10.3646 68.885 10.3567 68.8842 10.3488C68.8782 10.2934 68.8726 10.2412 68.8669 10.197C68.7076 10.226 68.4387 10.2357 68.2595 10.2357H66.995ZM66.7262 8.86004H68.1002V7.94938H66.7262V8.86004Z" fill="black"/>
<path fill-rule="evenodd" clip-rule="evenodd" d="M70.0318 10.7492C69.3249 10.7492 69.1457 10.507 69.1457 9.79976V7.44561H71.7642V9.33474H69.7729V9.80945C69.7729 10.1001 69.8227 10.197 70.0517 10.197H71.3759C71.5551 10.197 71.8538 10.1776 72.0131 10.1388C72.0231 10.3132 72.053 10.5651 72.0729 10.7007C71.9335 10.7492 71.6647 10.7492 71.3859 10.7492H70.0318ZM71.1668 8.83097H69.7729V7.94938H71.1668V8.83097Z" fill="black"/>
<path d="M68.4686 14.3918L67.7916 14.1399C67.234 14.6824 66.2782 15.1862 65.4219 15.5059C65.5912 15.6222 65.8699 15.8547 65.9994 15.9806C66.8357 15.6125 67.8513 15.0021 68.4686 14.3918Z" fill="black"/>
<path d="M69.4145 14.4596L70.0019 14.1109C70.7487 14.5468 71.7344 15.1862 72.2521 15.6125L71.6348 16C71.1469 15.5834 70.1712 14.915 69.4145 14.4596Z" fill="black"/>
<path d="M57.1338 7.26146C57.1352 7.19586 57.1366 7.13412 57.1381 7.07754H57.9645L57.9635 7.11949C57.9555 7.46562 57.9448 7.93311 57.9002 8.4774C58.0406 9.61667 58.6468 13.7259 62.196 15.2638C61.977 15.4285 61.758 15.6804 61.6484 15.8838C59.1452 14.7459 58.0667 12.3545 57.5772 10.5443C57.1081 12.4835 56.0478 14.6519 53.6135 15.9226C53.484 15.7288 53.2351 15.506 53.0061 15.351C56.9975 13.3859 57.0966 8.9317 57.1337 7.26476L57.1337 7.26369L57.1338 7.26146Z" fill="black"/>
<path d="M48.5259 14.7408L48.9939 14.2564C50.1189 14.6051 51.3436 15.0605 52.0704 15.4286L51.4631 15.9324C50.786 15.5642 49.651 15.0992 48.5259 14.7408Z" fill="black"/>
<path d="M46.0666 14.2564L46.7536 14.6826C45.9173 15.1767 44.5831 15.6805 43.5177 15.9517C43.4082 15.8064 43.1593 15.5545 43 15.4189C44.0654 15.167 45.3995 14.6729 46.0666 14.2564Z" fill="black"/>
<path fill-rule="evenodd" clip-rule="evenodd" d="M77.0118 9.20884H81.2134V11.1755H77.0118V9.20884ZM77.6788 9.75136V10.6426H80.5065V9.75136H77.6788Z" fill="black"/>
<path fill-rule="evenodd" clip-rule="evenodd" d="M77.7585 12.8999H80.4766V14.8762H77.7585V12.8999ZM78.3161 13.4327V14.3531H79.8892V13.4327H78.3161Z" fill="black"/>
<path fill-rule="evenodd" clip-rule="evenodd" d="M66.1388 11.6501H67.473V11.0107H68.15V11.6501H69.8227V10.9914H70.5097V11.6501H71.8339V12.2702H70.5097V13.394H72.0629V14.014H65.7206V13.394H67.473V12.2702H66.1388V11.6501ZM68.15 13.394V12.2702H69.8227V13.394H68.15Z" fill="black"/>
<path fill-rule="evenodd" clip-rule="evenodd" d="M44.6229 13.4813H43.1892V14.1014H52.0306V13.4813H50.6267V9.10241H47.8688V8.49208H51.7717V7.86237H47.8688V7.05827H47.132V7.86237H43.468V8.49208H47.132V9.10241H44.6229V13.4813ZM45.3398 13.4813V12.8032H49.88V13.4813H45.3398ZM49.88 12.3382V11.7569H45.3398V12.3382H49.88ZM45.3398 11.2822H49.88V10.7106H45.3398V11.2822ZM45.3398 10.2553V9.61587H49.88V10.2553H45.3398Z" fill="black"/>
</svg>
