<svg width="131" height="42" viewBox="0 0 131 42" fill="none" xmlns="http://www.w3.org/2000/svg">
<path d="M0.5 0.5H116C124.008 0.5 130.5 6.99187 130.5 15V41.5H15C6.99187 41.5 0.5 35.0081 0.5 27V0.5Z" fill="white" stroke="black"/>
<path d="M17.9605 24.1575C21.4266 26.9643 26.3836 26.9643 29.8497 24.1575L28.5095 22.5026C25.8248 24.6766 21.9854 24.6766 19.3007 22.5026L17.9605 24.1575Z" fill="black"/>
<path d="M19.404 20.5134V17.6365H21.5336V20.5134H19.404Z" fill="black"/>
<path d="M26.012 17.6365V20.5134H28.1415V17.6365H26.012Z" fill="black"/>
<path fill-rule="evenodd" clip-rule="evenodd" d="M35 21.5C35 27.8513 29.8513 33 23.5 33C17.1487 33 12 27.8513 12 21.5C12 15.1487 17.1487 10 23.5 10C29.8513 10 35 15.1487 35 21.5ZM32.8705 21.5C32.8705 26.6752 28.6752 30.8705 23.5 30.8705C18.3248 30.8705 14.1295 26.6752 14.1295 21.5C14.1295 16.3248 18.3248 12.1295 23.5 12.1295C28.6752 12.1295 32.8705 16.3248 32.8705 21.5Z" fill="black"/>
<path fill-rule="evenodd" clip-rule="evenodd" d="M104.32 26.2505C104.32 25.9898 104.336 25.4196 104.336 25.4196H100.424V23.8717H104.573C104.764 26.2238 105.11 28.471 105.651 30.2984C104.776 31.2876 103.759 32.1157 102.612 32.7515C103.107 33.2077 103.953 34.2016 104.288 34.7067C105.138 34.1597 105.93 33.5082 106.658 32.7639C107.338 33.9391 108.193 34.6415 109.254 34.6415C110.898 34.6415 111.649 33.9572 112 30.78C111.377 30.5356 110.563 29.9817 110.036 29.4277C109.956 31.4155 109.765 32.2301 109.445 32.2301C109.06 32.2301 108.67 31.686 108.312 30.7655C109.465 29.1244 110.389 27.1985 111.058 25.0611L108.711 24.4908C108.396 25.6095 107.983 26.659 107.478 27.6243C107.264 26.4884 107.09 25.2105 106.974 23.8717H111.84V21.5418H110.142L110.946 20.6945C110.387 20.1568 109.27 19.4399 108.455 19L107.05 20.4175C107.553 20.7329 108.148 21.1437 108.647 21.5418H106.835C106.811 20.7923 106.808 20.0385 106.827 19.2933H104.384C104.387 20.0364 104.403 20.7892 104.433 21.5418H97.9812V26.4297C97.9812 28.5642 97.9014 31.4481 96.7199 33.3707C97.2468 33.6477 98.3006 34.5275 98.6997 35C99.5135 33.7498 99.9567 32.0088 100.189 30.2753C100.506 30.8638 100.745 31.7506 100.775 32.4257C101.51 32.4257 102.18 32.4094 102.612 32.3279C103.091 32.2301 103.458 32.0672 103.809 31.5947C104.192 31.0733 104.272 29.5743 104.32 26.2505ZM100.197 30.2141C100.316 29.3052 100.378 28.4 100.406 27.5703H102.058C102.023 29.1922 101.963 29.8644 101.829 30.0631C101.701 30.2261 101.558 30.275 101.35 30.275C101.102 30.275 100.674 30.2596 100.197 30.2141Z" fill="black"/>
<path d="M85.8673 22.112C86.1314 21.4187 86.3672 20.705 86.565 19.9939L84.1541 19.4399C83.6112 21.6395 82.5893 23.8717 81.3599 25.2077C81.9507 25.5336 82.9885 26.2342 83.4515 26.6415C83.9297 26.0332 84.4007 25.2744 84.839 24.4257H87.9062V26.9185H83.7709V29.1996H87.9062V32.002H81.8708V34.3157H96.4005V32.002H90.3332V29.1996H94.9156V26.9185H90.3332V24.4257H95.5543V22.112H90.3332V19.277H87.9062V22.112H85.8673Z" fill="black"/>
<path d="M46.3436 28.4645C46.4377 28.0285 46.4856 27.6141 46.4988 27.2444H42.8462V25.11H46.5026V23.4807H42.6866V21.2811H46.5026V19.3585H48.8018V27C48.8018 29.8513 47.9396 33.0611 44.0278 34.9837C43.6446 34.4134 42.9261 33.6802 42.3672 33.224C43.7784 32.6761 44.7414 31.786 45.3804 30.8057C44.6568 30.9237 43.9507 31.0375 43.2921 31.1436L42.4151 31.2851L42 28.9226C43.1273 28.8236 44.7056 28.6496 46.3436 28.4645Z" fill="black"/>
<path fill-rule="evenodd" clip-rule="evenodd" d="M71.6755 34.3304L66.632 19.7975H63.2696L58.1875 34.3304H61.2986L62.2841 31.3429H67.5305L68.4484 34.3304H71.6755ZM64.9218 23.1201L66.6996 28.8386H63.0861L64.9218 23.1201Z" fill="black"/>
<path d="M52.7456 19.3585V21.2811H56.9289V23.4807H52.7456V25.11H56.5457V27.2444H52.7456V28.9063H57.2163V31.1059H52.7456V34.7556H50.4144V19.3585H52.7456Z" fill="black"/>
<path d="M74.2124 22.2695V31.8617H72.4582V34.3337H78.7189V31.8617H77.169V22.2695H78.7189V19.7975H72.4582V22.2695H74.2124Z" fill="black"/>
<path fill-rule="evenodd" clip-rule="evenodd" d="M66.1216 7.27302L66.676 7C66.9784 7.33153 67.311 7.78982 67.4521 8.10184L67.1504 8.25785H68.7385C68.9787 7.87248 69.2489 7.35544 69.3976 7L70.0629 7.23402C69.8522 7.58056 69.617 7.94603 69.4016 8.25785H71.1112V8.87216H69.2968V10.8418H71.4741V11.4561H64.7809V10.8418H66.8675V8.87216H65.1438V8.25785H66.7991C66.6455 7.95554 66.3798 7.5645 66.1216 7.27302ZM67.5529 8.87216H68.6114V10.8418H67.5529V8.87216Z" fill="black"/>
<path d="M63.2084 7.29252L62.6842 7.72156C63.1882 8.19935 63.8031 8.86241 64.0854 9.29144L64.6398 8.79415C64.3374 8.38462 63.7124 7.75081 63.2084 7.29252Z" fill="black"/>
<path d="M63.5108 15.7757C63.4503 15.6002 63.279 15.3077 63.1479 15.1614C63.3294 15.0542 63.6116 14.7909 63.6116 14.3716V10.7736H62.2206V10.0813H64.3172V14.3169L65.2446 13.6988C65.295 13.8938 65.4059 14.1863 65.4865 14.3229C65.2178 14.5124 64.9872 14.6745 64.7889 14.8139C63.8344 15.485 63.6277 15.6304 63.5108 15.7757Z" fill="black"/>
<path d="M65.6478 9.06717L65.1539 9.33044C65.4764 9.71073 65.8292 10.2275 65.9804 10.5688L66.5046 10.247C66.3534 9.92524 65.9804 9.42795 65.6478 9.06717Z" fill="black"/>
<path d="M70.446 9.07692L71.0306 9.34995C70.7484 9.78873 70.4056 10.2763 70.1234 10.5981L69.6395 10.3543C69.9016 10.0228 70.2544 9.4572 70.446 9.07692Z" fill="black"/>
<path d="M56.3092 7.24353C56.3107 7.1775 56.3121 7.11536 56.3136 7.05841H57.1502L57.1493 7.10064C57.1412 7.44901 57.1303 7.91954 57.0852 8.46737C57.2273 9.61404 57.841 13.75 61.4343 15.2979C61.2125 15.4636 60.9908 15.7171 60.8799 15.9219C58.3456 14.7766 57.2537 12.3697 56.7581 10.5477C56.2832 12.4995 55.2097 14.682 52.7452 15.9609C52.6142 15.7659 52.3622 15.5416 52.1303 15.3856C56.1713 13.4077 56.2716 8.92462 56.3091 7.24685L56.3091 7.24578L56.3092 7.24353Z" fill="black"/>
<path d="M47.5945 14.7714L48.0682 14.2839C49.2073 14.6349 50.4472 15.0932 51.183 15.4637L50.5681 15.9708C49.8827 15.6002 48.7335 15.1322 47.5945 14.7714Z" fill="black"/>
<path d="M45.1047 14.2839L45.8002 14.7129C44.9535 15.2102 43.6027 15.7172 42.5242 15.9903C42.4133 15.844 42.1613 15.5905 42 15.454C43.0786 15.2005 44.4293 14.7032 45.1047 14.2839Z" fill="black"/>
<path fill-rule="evenodd" clip-rule="evenodd" d="M70.5064 12.0802H65.799V15.9902H66.4845V15.4345H69.8109V15.9512H70.5064V12.0802ZM69.8109 14.8884V14.0011H66.4845V14.8884H69.8109ZM66.4845 13.4453H69.8109V12.6652H66.4845V13.4453Z" fill="black"/>
<path fill-rule="evenodd" clip-rule="evenodd" d="M73.5709 16V15.3759H80.2541V15.9512H81V8.96966H78.4598V7.12676H77.7139V8.96966H76.0103V7.12676H75.2745V8.96966H72.8552V16H73.5709ZM75.2745 14.6544H73.5709V12.4995H75.2745V14.6544ZM75.2745 11.8072H73.5709V9.68147H75.2745V11.8072ZM76.0103 11.8072V9.68147H77.7139V11.8072H76.0103ZM78.4598 11.8072V9.68147H80.2541V11.8072H78.4598ZM78.4598 12.4995H80.2541V14.6544H78.4598V12.4995ZM77.7139 12.4995V14.6544H76.0103V12.4995H77.7139Z" fill="black"/>
<path fill-rule="evenodd" clip-rule="evenodd" d="M43.6431 13.5038H42.1915V14.1279H51.1427V13.5038H49.7214V9.09644H46.9292V8.48214H50.8806V7.84834H46.9292V7.03902H46.1833V7.84834H42.4738V8.48214H46.1833V9.09644H43.6431V13.5038ZM44.3688 13.5038H48.9654V12.8213H44.3688V13.5038ZM44.3688 12.3532H48.9654V11.7682H44.3688V12.3532ZM44.3688 11.2904V10.7151H48.9654V11.2904H44.3688ZM48.9654 10.2568V9.61324H44.3688V10.2568H48.9654Z" fill="black"/>
</svg>
