<svg width="131" height="42" viewBox="0 0 131 42" fill="none" xmlns="http://www.w3.org/2000/svg">
<path d="M0.5 0.5H116C124.008 0.5 130.5 6.99187 130.5 15V41.5H15C6.99187 41.5 0.5 35.0081 0.5 27V0.5Z" fill="white" stroke="black"/>
<path d="M28.8497 24.1575C25.3836 26.9643 20.4266 26.9643 16.9605 24.1575L18.3007 22.5026C20.9854 24.6766 24.8248 24.6766 27.5095 22.5026L28.8497 24.1575Z" fill="black"/>
<path d="M18.404 17.6365V20.5134H20.5336V17.6365H18.404Z" fill="black"/>
<path d="M25.012 17.6365V20.5134H27.1415V17.6365H25.012Z" fill="black"/>
<path fill-rule="evenodd" clip-rule="evenodd" d="M22.5 33C28.8513 33 34 27.8513 34 21.5C34 15.1487 28.8513 10 22.5 10C16.1487 10 11 15.1487 11 21.5C11 27.8513 16.1487 33 22.5 33ZM22.5 30.8705C27.6752 30.8705 31.8705 26.6752 31.8705 21.5C31.8705 16.3248 27.6752 12.1295 22.5 12.1295C17.3248 12.1295 13.1295 16.3248 13.1295 21.5C13.1295 26.6752 17.3248 30.8705 22.5 30.8705Z" fill="black"/>
<path d="M98.4907 11.0082C98.1928 11.2593 98.0439 11.7337 98.0439 12.4315V15.2098H97.1603V8H98.0439V10.6804C98.2534 10.4163 98.4416 10.2304 98.6085 10.1228C98.8932 9.93696 99.2483 9.84403 99.6737 9.84403C100.436 9.84403 100.953 10.1098 101.225 10.6413C101.372 10.9315 101.446 11.3343 101.446 11.8495V15.2098H100.538V11.9082C100.538 11.5234 100.489 11.2413 100.39 11.062C100.23 10.775 99.929 10.6315 99.4872 10.6315C99.1206 10.6315 98.7885 10.7571 98.4907 11.0082Z" fill="black"/>
<path fill-rule="evenodd" clip-rule="evenodd" d="M118.746 11.781C118.677 11.9245 118.541 12.0093 118.338 12.0354L116.929 12.2115C116.435 12.2734 116.036 12.4381 115.732 12.7055C115.427 12.9729 115.275 13.3495 115.275 13.8354C115.275 14.2789 115.429 14.649 115.737 14.9457C116.047 15.2392 116.447 15.3859 116.934 15.3859C117.34 15.3859 117.712 15.2995 118.049 15.1267C118.386 14.9539 118.644 14.7501 118.824 14.5153C118.854 14.724 118.904 14.8854 118.976 14.9995C119.114 15.2147 119.335 15.3224 119.639 15.3224C119.763 15.3224 119.862 15.3175 119.934 15.3077C120.006 15.2979 120.11 15.2734 120.248 15.2343V14.5838C120.192 14.5935 120.14 14.6017 120.091 14.6082C120.042 14.6115 119.997 14.6131 119.958 14.6131C119.837 14.6131 119.757 14.5854 119.718 14.53C119.682 14.4745 119.664 14.4012 119.664 14.3098V11.2919C119.664 10.7962 119.472 10.431 119.089 10.1962C118.703 9.96146 118.201 9.84407 117.582 9.84407C117.049 9.84407 116.579 9.97124 116.173 10.2256C115.771 10.4767 115.561 10.9251 115.545 11.5707H116.37C116.403 11.3001 116.473 11.0962 116.581 10.9593C116.774 10.7115 117.101 10.5875 117.563 10.5875C117.962 10.5875 118.268 10.656 118.481 10.793C118.697 10.9267 118.805 11.1435 118.805 11.4435C118.805 11.5903 118.785 11.7028 118.746 11.781ZM116.478 14.4175C116.291 14.2707 116.198 14.0702 116.198 13.8158C116.198 13.48 116.334 13.2354 116.605 13.0821C116.766 12.9908 117.006 12.924 117.327 12.8816L117.862 12.8131C118.026 12.7935 118.193 12.7609 118.363 12.7153C118.533 12.6696 118.672 12.6126 118.78 12.5441V13.2533C118.78 13.7946 118.535 14.1843 118.044 14.4223C117.752 14.5658 117.451 14.6376 117.141 14.6376C116.885 14.6376 116.664 14.5642 116.478 14.4175Z" fill="black"/>
<path d="M122.344 10.0543C122.066 10.188 121.803 10.4081 121.554 10.7147V9.97118H120.715V15.2098H121.598V12.4658C121.598 12.1234 121.619 11.8609 121.662 11.6783C121.708 11.4924 121.804 11.313 121.952 11.1402C122.135 10.925 122.348 10.7815 122.59 10.7098C122.724 10.6674 122.896 10.6462 123.105 10.6462C123.518 10.6462 123.802 10.8092 123.959 11.1353C124.054 11.331 124.102 11.5886 124.102 11.9081V15.2098H125V11.8494C125 11.3212 124.928 10.9152 124.784 10.6315C124.522 10.113 124.018 9.85379 123.272 9.85379C122.932 9.85379 122.622 9.92063 122.344 10.0543Z" fill="black"/>
<path fill-rule="evenodd" clip-rule="evenodd" d="M102.145 32.1501L97.572 19.2823H94.5231L89.9147 32.1501H92.7358L93.6295 29.505H98.3868L99.2191 32.1501H102.145ZM96.0213 22.2243L97.6333 27.2876H94.3566L96.0213 22.2243Z" fill="black"/>
<path fill-rule="evenodd" clip-rule="evenodd" d="M74.2344 22.4251C75.4902 22.4251 76.4715 22.8761 77.1782 23.7782C77.8908 24.6803 78.2471 25.8443 78.2471 27.2702C78.2471 28.7484 77.8966 29.9735 77.1957 30.9454C76.4948 31.9173 75.5165 32.4033 74.2607 32.4033C73.4722 32.4033 72.8385 32.2462 72.3595 31.9319C72.0733 31.7457 71.7638 31.4197 71.4309 30.9541V32.1501H68.9865V19.2998H71.4747V23.8742C71.7901 23.4319 72.1376 23.0944 72.5173 22.8616C72.967 22.5706 73.5394 22.4251 74.2344 22.4251ZM73.5949 30.3518C74.2374 30.3518 74.7367 30.0928 75.093 29.5748C75.4493 29.0569 75.6275 28.3759 75.6275 27.532C75.6275 26.8569 75.5399 26.2982 75.3646 25.8559C75.0317 25.0179 74.4184 24.5988 73.5248 24.5988C72.6195 24.5988 71.9974 25.0091 71.6587 25.8297C71.4834 26.2662 71.3958 26.8308 71.3958 27.5233C71.3958 28.3381 71.5769 29.0132 71.939 29.5486C72.3011 30.0841 72.8531 30.3518 73.5949 30.3518Z" fill="black"/>
<path d="M60.9892 31.67C60.7089 31.3848 60.5687 30.9454 60.5687 30.3518V24.4941H59.237V22.7219H60.5687V20.068H63.0394V22.7219H64.5901V24.4941H63.0394V29.5225C63.0394 29.9124 63.089 30.1568 63.1883 30.2558C63.2876 30.3489 63.5913 30.3954 64.0995 30.3954H64.336C64.4236 30.3896 64.5083 30.3838 64.5901 30.378V32.2374L63.4073 32.2811C62.2275 32.3218 61.4215 32.1181 60.9892 31.67Z" fill="black"/>
<path fill-rule="evenodd" clip-rule="evenodd" d="M59.1399 27.4098C59.1399 28.8066 58.7369 30.0026 57.9309 30.9978C57.1249 31.9872 55.9012 32.4819 54.2599 32.4819C52.6187 32.4819 51.395 31.9872 50.589 30.9978C49.783 30.0026 49.38 28.8066 49.38 27.4098C49.38 26.0363 49.783 24.8462 50.589 23.8393C51.395 22.8325 52.6187 22.3291 54.2599 22.3291C55.9012 22.3291 57.1249 22.8325 57.9309 23.8393C58.7369 24.8462 59.1399 26.0363 59.1399 27.4098ZM54.2512 30.3954C54.9813 30.3954 55.542 30.1365 55.9333 29.6185C56.3247 29.1005 56.5203 28.3643 56.5203 27.4098C56.5203 26.4554 56.3247 25.7221 55.9333 25.2099C55.542 24.6919 54.9813 24.433 54.2512 24.433C53.5211 24.433 52.9575 24.6919 52.5603 25.2099C52.1689 25.7221 51.9733 26.4554 51.9733 27.4098C51.9733 28.3643 52.1689 29.1005 52.5603 29.6185C52.9575 30.1365 53.5211 30.3954 54.2512 30.3954Z" fill="black"/>
<path d="M47.4255 23.1846C46.8006 22.6666 45.9945 22.4076 45.0074 22.4076C44.2189 22.4076 43.5677 22.5997 43.0537 22.9838C42.7675 23.1991 42.4638 23.5512 42.1425 24.0401V22.6521H39.7332V32.1501H42.2214V26.9995C42.2214 26.4117 42.3032 25.9287 42.4667 25.5504C42.7821 24.8345 43.3633 24.4766 44.2102 24.4766C44.8994 24.4766 45.3666 24.721 45.612 25.2099C45.7463 25.4776 45.8135 25.8617 45.8135 26.3622V32.1501H48.3717V25.7424C48.3717 24.5494 48.0563 23.6967 47.4255 23.1846Z" fill="black"/>
<path d="M80.0263 33.9921L79.7109 33.9747V35.9651C79.9796 35.9825 80.1811 35.9913 80.3154 35.9913C80.4497 35.9971 80.6279 36 80.8498 36C81.9537 36 82.6897 35.7818 83.0577 35.3453C83.4256 34.9146 83.925 33.7972 84.5558 31.993L87.8325 22.6346H85.1779L83.2066 29.6534L81.1214 22.6346H78.3441L81.8486 32.5692C81.872 32.639 81.8194 32.8311 81.6909 33.1453C81.5683 33.4596 81.4339 33.6662 81.2879 33.7652C81.136 33.8699 80.9491 33.9368 80.7272 33.9659C80.5052 33.995 80.2716 34.0038 80.0263 33.9921Z" fill="black"/>
<path d="M108.992 10.1522C108.821 10.2695 108.632 10.457 108.422 10.7147V9.97118H107.548V15.2098H108.432V12.4315C108.432 11.7565 108.568 11.2902 108.839 11.0326C109.114 10.775 109.419 10.6462 109.752 10.6462C110.119 10.6462 110.369 10.7685 110.503 11.013C110.589 11.1761 110.631 11.4353 110.631 11.7908V15.2098H111.529V12.1625C111.529 11.6212 111.654 11.2348 111.903 11.0032C112.155 10.7717 112.454 10.656 112.801 10.656C113.053 10.656 113.266 10.7212 113.439 10.8516C113.616 10.9821 113.704 11.2217 113.704 11.5706V15.2098H114.622V11.7223C114.622 11.2592 114.553 10.8907 114.416 10.6168C114.161 10.1081 113.68 9.85379 112.973 9.85379C112.642 9.85379 112.344 9.92226 112.079 10.0592C111.814 10.1929 111.583 10.4 111.387 10.6804C111.269 10.4522 111.138 10.2793 110.994 10.1619C110.739 9.9565 110.402 9.85379 109.983 9.85379C109.613 9.85379 109.283 9.95324 108.992 10.1522Z" fill="black"/>
<path d="M103.366 14.1043C103.28 13.9347 103.238 13.7163 103.238 13.4489V9.97114H102.335V13.532C102.335 13.9788 102.408 14.3358 102.556 14.6032C102.827 15.1021 103.338 15.3516 104.087 15.3516C104.568 15.3516 104.977 15.2146 105.314 14.9407C105.485 14.8038 105.627 14.6358 105.741 14.4369L105.732 15.2097H106.566V9.97114H105.683V12.544C105.683 13.0559 105.622 13.4587 105.501 13.7521C105.278 14.3 104.86 14.5739 104.244 14.5739C103.816 14.5739 103.523 14.4174 103.366 14.1043Z" fill="black"/>
<path d="M92.0052 14.2364L93.4239 9.97114H94.4008C94.2764 10.307 93.9999 11.0733 93.5712 12.2701C93.2504 13.1701 92.9821 13.9038 92.7661 14.4712C92.2556 15.8081 91.8956 16.6233 91.6861 16.9168C91.4767 17.2103 91.1167 17.357 90.6062 17.357C90.4818 17.357 90.3853 17.3521 90.3166 17.3424C90.2511 17.3326 90.1693 17.3146 90.0711 17.2886V16.4864C90.2249 16.5288 90.3362 16.5549 90.4049 16.5646C90.4736 16.5744 90.5342 16.5793 90.5866 16.5793C90.7502 16.5793 90.8696 16.5516 90.9449 16.4962C91.0234 16.444 91.0889 16.3788 91.1413 16.3005C91.1576 16.2744 91.2165 16.1407 91.318 15.8994C91.4194 15.6581 91.4931 15.4788 91.5389 15.3614L89.595 9.97114H90.5964L92.0052 14.2364Z" fill="black"/>
<path fill-rule="evenodd" clip-rule="evenodd" d="M86.2172 15.0875C86.0535 14.9734 85.8785 14.7908 85.6919 14.5397V15.2098H84.877V8H85.7361V10.6071C85.9292 10.356 86.1599 10.1652 86.4283 10.0348C86.6966 9.9011 86.9879 9.83425 87.302 9.83425C87.9566 9.83425 88.4867 10.0592 88.8925 10.5093C89.3016 10.956 89.5061 11.6163 89.5061 12.4902C89.5061 13.3185 89.3049 14.0065 88.9023 14.5544C88.4998 15.1022 87.9418 15.3761 87.2284 15.3761C86.8291 15.3761 86.4921 15.2799 86.2172 15.0875ZM87.1744 14.5984C87.6522 14.5984 88.0089 14.4093 88.2445 14.031C88.4834 13.6527 88.6029 13.1538 88.6029 12.5343C88.6029 11.9832 88.4834 11.5266 88.2445 11.1647C88.0089 10.8027 87.6604 10.6218 87.199 10.6218C86.7964 10.6218 86.443 10.7701 86.1386 11.0669C85.8376 11.3636 85.687 11.8527 85.687 12.5343C85.687 13.0267 85.7492 13.4261 85.8736 13.7326C86.1059 14.3098 86.5395 14.5984 87.1744 14.5984Z" fill="black"/>
<path fill-rule="evenodd" clip-rule="evenodd" d="M79.2457 9.87827C79.6483 9.87827 79.9853 9.96305 80.257 10.1326C80.414 10.2304 80.5924 10.4016 80.792 10.6462V8H81.6413V15.2098H80.846V14.481C80.6399 14.8038 80.396 15.037 80.1146 15.1805C79.8332 15.3239 79.5108 15.3957 79.1475 15.3957C78.5618 15.3957 78.0545 15.1511 77.6258 14.662C77.1971 14.1696 76.9827 13.5158 76.9827 12.7006C76.9827 11.9375 77.1775 11.2772 77.5669 10.7196C77.9596 10.1587 78.5192 9.87827 79.2457 9.87827ZM77.9154 12.6517C77.9154 13.2125 78.0349 13.6821 78.2738 14.0604C78.5127 14.4386 78.8956 14.6277 79.4224 14.6277C79.8315 14.6277 80.167 14.4533 80.4288 14.1044C80.6938 13.7522 80.8264 13.2484 80.8264 12.593C80.8264 11.931 80.6906 11.4419 80.4189 11.1256C80.1473 10.806 79.8119 10.6462 79.4126 10.6462C78.9676 10.6462 78.6059 10.8158 78.3278 11.1549C78.0529 11.494 77.9154 11.993 77.9154 12.6517Z" fill="black"/>
<path fill-rule="evenodd" clip-rule="evenodd" d="M74.3513 9.85379C74.7243 9.85379 75.086 9.94183 75.4361 10.1179C75.7863 10.2907 76.053 10.5157 76.2363 10.7929C76.413 11.0571 76.5308 11.3652 76.5897 11.7174C76.6421 11.9587 76.6683 12.3435 76.6683 12.8717H72.8148C72.8312 13.4033 72.9571 13.8304 73.1928 14.1533C73.4284 14.4728 73.7933 14.6326 74.2875 14.6326C74.7489 14.6326 75.1171 14.481 75.392 14.1777C75.549 14.0016 75.6603 13.7978 75.7258 13.5663H76.5946C76.5717 13.7587 76.4948 13.9739 76.3639 14.212C76.2363 14.4467 76.0923 14.6391 75.9319 14.7891C75.6636 15.05 75.3314 15.2261 74.9354 15.3174C74.7227 15.3696 74.4822 15.3957 74.2138 15.3957C73.5593 15.3957 73.0046 15.1592 72.5497 14.6864C72.0948 14.2103 71.8674 13.5451 71.8674 12.6908C71.8674 11.8494 72.0965 11.1663 72.5546 10.6413C73.0128 10.1163 73.6117 9.85379 74.3513 9.85379ZM75.7601 12.1723C75.7241 11.7908 75.6407 11.4859 75.5098 11.2576C75.2676 10.8337 74.8634 10.6217 74.2973 10.6217C73.8915 10.6217 73.5511 10.7685 73.2762 11.0619C73.0013 11.3522 72.8557 11.7223 72.8393 12.1723H75.7601Z" fill="black"/>
<path d="M68.0626 13.5664C68.0888 13.8599 68.1624 14.0849 68.2835 14.2414C68.506 14.5251 68.8922 14.667 69.442 14.667C69.7692 14.667 70.0572 14.5969 70.3059 14.4567C70.5547 14.3132 70.679 14.0931 70.679 13.7963C70.679 13.5713 70.5792 13.4001 70.3796 13.2827C70.2519 13.211 70 13.1278 69.6236 13.0333L68.9216 12.8572C68.4733 12.7463 68.1428 12.6224 67.93 12.4854C67.5504 12.2474 67.3606 11.9181 67.3606 11.4974C67.3606 11.0017 67.539 10.6007 67.8957 10.2941C68.2557 9.98761 68.7384 9.83435 69.3438 9.83435C70.1358 9.83435 70.7068 10.0659 71.057 10.5289C71.2763 10.8224 71.3826 11.1387 71.3761 11.4778H70.5416C70.5252 11.2789 70.4548 11.0979 70.3305 10.9349C70.1276 10.7034 69.7758 10.5876 69.2751 10.5876C68.9413 10.5876 68.6876 10.6512 68.5142 10.7784C68.344 10.9056 68.2589 11.0735 68.2589 11.2822C68.2589 11.5104 68.3718 11.6931 68.5977 11.83C68.7286 11.9115 68.9216 11.9833 69.1769 12.0452L69.7611 12.1871C70.3959 12.3403 70.8214 12.4887 71.0374 12.6322C71.381 12.8572 71.5528 13.211 71.5528 13.6936C71.5528 14.1599 71.3744 14.5626 71.0177 14.9018C70.6643 15.2409 70.1243 15.4105 69.3978 15.4105C68.6157 15.4105 68.0609 15.2344 67.7337 14.8822C67.4097 14.5268 67.2363 14.0882 67.2133 13.5664H68.0626Z" fill="black"/>
<path fill-rule="evenodd" clip-rule="evenodd" d="M64.4638 9.81953C65.1413 9.81953 65.714 10.0445 66.1819 10.4945C66.6499 10.9445 66.8839 11.6065 66.8839 12.4804C66.8839 13.325 66.6777 14.0228 66.2654 14.5739C65.8531 15.125 65.2133 15.4005 64.346 15.4005C63.6228 15.4005 63.0484 15.1576 62.623 14.6717C62.1976 14.1826 61.9849 13.5272 61.9849 12.7054C61.9849 11.825 62.209 11.1239 62.6574 10.6021C63.1057 10.0804 63.7079 9.81953 64.4638 9.81953ZM64.4295 14.6424C65.0153 14.6424 65.4162 14.4223 65.6322 13.982C65.8514 13.5386 65.961 13.0462 65.961 12.5049C65.961 12.0157 65.8825 11.6179 65.7254 11.3114C65.4767 10.8288 65.048 10.5875 64.4393 10.5875C63.8993 10.5875 63.5066 10.7929 63.2612 11.2038C63.0157 11.6146 62.893 12.1103 62.893 12.6907C62.893 13.2483 63.0157 13.713 63.2612 14.0848C63.5066 14.4565 63.896 14.6424 64.4295 14.6424Z" fill="black"/>
<path fill-rule="evenodd" clip-rule="evenodd" d="M58.4895 15.1267C58.3324 15.0289 58.1573 14.8609 57.9643 14.6229V17.2984H57.0807V9.9957H57.9397V10.6903C58.1164 10.4522 58.3095 10.268 58.519 10.1375C58.8168 9.94189 59.1669 9.84407 59.5695 9.84407C60.1651 9.84407 60.6707 10.0723 61.0863 10.5289C61.5019 10.9821 61.7097 11.631 61.7097 12.4756C61.7097 13.6169 61.4103 14.4321 60.8114 14.9213C60.4318 15.231 59.99 15.3859 59.486 15.3859C59.09 15.3859 58.7579 15.2995 58.4895 15.1267ZM59.3682 14.618C59.7805 14.618 60.1225 14.4468 60.3941 14.1044C60.669 13.7588 60.8065 13.2435 60.8065 12.5588C60.8065 12.1414 60.746 11.7827 60.6249 11.4827C60.3958 10.9055 59.9769 10.6169 59.3682 10.6169C58.7562 10.6169 58.3373 10.9218 58.1115 11.5316C57.9904 11.8577 57.9299 12.2718 57.9299 12.774C57.9299 13.1783 57.9904 13.5223 58.1115 13.806C58.3406 14.3473 58.7595 14.618 59.3682 14.618Z" fill="black"/>
<path d="M50.4679 11.0326C50.1962 11.2902 50.0604 11.7565 50.0604 12.4315V15.2098H49.1768V9.97118H50.0506V10.7147C50.2601 10.457 50.4499 10.2695 50.62 10.1522C50.9113 9.95324 51.2418 9.85379 51.6116 9.85379C52.0305 9.85379 52.3676 9.9565 52.6229 10.1619C52.7669 10.2793 52.8978 10.4522 53.0156 10.6804C53.2119 10.4 53.4426 10.1929 53.7077 10.0592C53.9728 9.92226 54.2706 9.85379 54.6011 9.85379C55.308 9.85379 55.7891 10.1081 56.0444 10.6168C56.1818 10.8907 56.2505 11.2592 56.2505 11.7223V15.2098H55.3326V11.5706C55.3326 11.2217 55.2442 10.9821 55.0675 10.8516C54.894 10.7212 54.6813 10.656 54.4293 10.656C54.0824 10.656 53.783 10.7717 53.531 11.0032C53.2823 11.2348 53.1579 11.6212 53.1579 12.1625V15.2098H52.2596V11.7908C52.2596 11.4353 52.2171 11.1761 52.132 11.013C51.9978 10.7685 51.7474 10.6462 51.3809 10.6462C51.0471 10.6462 50.7428 10.775 50.4679 11.0326Z" fill="black"/>
<path fill-rule="evenodd" clip-rule="evenodd" d="M46.1035 9.81953C46.7809 9.81953 47.3536 10.0445 47.8216 10.4945C48.2896 10.9445 48.5236 11.6065 48.5236 12.4804C48.5236 13.325 48.3174 14.0228 47.9051 14.5739C47.4927 15.125 46.8529 15.4005 45.9857 15.4005C45.2625 15.4005 44.6881 15.1576 44.2627 14.6717C43.8372 14.1826 43.6245 13.5272 43.6245 12.7054C43.6245 11.825 43.8487 11.1239 44.297 10.6021C44.7454 10.0804 45.3475 9.81953 46.1035 9.81953ZM46.0691 14.6424C46.6549 14.6424 47.0558 14.4223 47.2718 13.982C47.4911 13.5386 47.6007 13.0462 47.6007 12.5049C47.6007 12.0157 47.5222 11.6179 47.3651 11.3114C47.1164 10.8288 46.6877 10.5875 46.079 10.5875C45.539 10.5875 45.1463 10.7929 44.9008 11.2038C44.6554 11.6146 44.5327 12.1103 44.5327 12.6907C44.5327 13.2483 44.6554 13.713 44.9008 14.0848C45.1463 14.4565 45.5357 14.6424 46.0691 14.6424Z" fill="black"/>
<path d="M41.3857 9.81953C41.9781 9.81953 42.4591 9.96301 42.8289 10.25C43.202 10.5369 43.4262 11.0309 43.5014 11.732H42.6424C42.59 11.4092 42.4706 11.1418 42.284 10.9299C42.0975 10.7146 41.7981 10.607 41.3857 10.607C40.8228 10.607 40.4203 10.8809 40.1781 11.4288C40.021 11.7842 39.9425 12.2228 39.9425 12.7445C39.9425 13.2695 40.0538 13.7114 40.2763 14.0701C40.4988 14.4288 40.849 14.6081 41.3268 14.6081C41.6933 14.6081 41.983 14.4973 42.1957 14.2755C42.4117 14.0505 42.5606 13.744 42.6424 13.356H43.5014C43.4033 14.0505 43.1578 14.5592 42.7651 14.8821C42.3724 15.2016 41.8701 15.3614 41.2581 15.3614C40.5708 15.3614 40.0227 15.1119 39.6136 14.613C39.2045 14.1109 39 13.4848 39 12.7348C39 11.8152 39.2242 11.0994 39.6725 10.5875C40.1209 10.0755 40.6919 9.81953 41.3857 9.81953Z" fill="black"/>
<path d="M104.446 21.4711V29.9643H102.855V32.1531H108.532V29.9643H107.127V21.4711H108.532V19.2823H102.855V21.4711H104.446Z" fill="black"/>
</svg>
