<svg width="131" height="42" viewBox="0 0 131 42" fill="none" xmlns="http://www.w3.org/2000/svg">
<path d="M0.5 0.5H116C124.008 0.5 130.5 6.99187 130.5 15V41.5H15C6.99187 41.5 0.5 35.0081 0.5 27V0.5Z" fill="black" stroke="#ACACAC"/>
<path d="M17.9605 24.1575C21.4266 26.9643 26.3836 26.9643 29.8497 24.1575L28.5095 22.5026C25.8248 24.6766 21.9854 24.6766 19.3007 22.5026L17.9605 24.1575Z" fill="white"/>
<path d="M19.404 20.5134V17.6365H21.5336V20.5134H19.404Z" fill="white"/>
<path d="M26.012 17.6365V20.5134H28.1415V17.6365H26.012Z" fill="white"/>
<path fill-rule="evenodd" clip-rule="evenodd" d="M35 21.5C35 27.8513 29.8513 33 23.5 33C17.1487 33 12 27.8513 12 21.5C12 15.1487 17.1487 10 23.5 10C29.8513 10 35 15.1487 35 21.5ZM32.8705 21.5C32.8705 26.6752 28.6752 30.8705 23.5 30.8705C18.3248 30.8705 14.1295 26.6752 14.1295 21.5C14.1295 16.3248 18.3248 12.1295 23.5 12.1295C28.6752 12.1295 32.8705 16.3248 32.8705 21.5Z" fill="white"/>
<path fill-rule="evenodd" clip-rule="evenodd" d="M70.3554 7.23352C70.1848 7.54312 70.0003 7.86611 69.8239 8.14812H71.3231V8.77083H69.6095V10.8336H71.4642V11.4855H65.6379V10.8336H67.543V8.77083H65.8697V8.14812H67.4422C67.3394 7.8677 67.1149 7.47544 66.908 7.18487L67.5128 7C67.7547 7.31136 67.9966 7.72001 68.1176 8.00217L67.6496 8.14812H69.1083C69.3084 7.79774 69.5314 7.34326 69.6599 7.02919L70.3554 7.23352ZM68.1579 8.77083H68.9946V10.8336H68.1579V8.77083Z" fill="white"/>
<path d="M71.1013 9.22813L70.5267 9.04327C70.3957 9.47138 70.1135 10.0941 69.9018 10.4833L70.4058 10.6487C70.6275 10.279 70.8795 9.72436 71.1013 9.22813Z" fill="white"/>
<path d="M66.0612 9.20867L66.5955 9.053C66.8676 9.49084 67.1398 10.0844 67.2305 10.4736L66.6761 10.6487C66.5854 10.2595 66.3334 9.65625 66.0612 9.20867Z" fill="white"/>
<path d="M63.7831 7.02919L63.1582 7.23352C63.4202 7.68109 63.7327 8.26488 63.8638 8.64434L64.519 8.4011C64.3779 8.03136 64.0654 7.46703 63.7831 7.02919Z" fill="white"/>
<path d="M56.3094 7.2626C56.3109 7.19671 56.3123 7.1347 56.3138 7.07788H57.1505L57.1495 7.12001C57.1414 7.46763 57.1305 7.93715 57.0854 8.4838C57.2275 9.62801 57.8413 13.7551 61.4345 15.2996C61.2128 15.465 60.991 15.718 60.8801 15.9223C58.3458 14.7795 57.2539 12.3777 56.7583 10.5596C56.2834 12.5072 55.21 14.685 52.7455 15.9612C52.6144 15.7666 52.3624 15.5428 52.1306 15.3872C56.1715 13.4135 56.2718 8.94006 56.3094 7.2659L56.3094 7.26483L56.3094 7.2626Z" fill="white"/>
<path d="M47.5945 14.7741L48.0682 14.2876C49.2073 14.6378 50.4472 15.0951 51.183 15.4649L50.5681 15.9708C49.8827 15.6011 48.7335 15.1341 47.5945 14.7741Z" fill="white"/>
<path d="M45.1047 14.2876L45.8002 14.7157C44.9535 15.2119 43.6027 15.7179 42.5242 15.9903C42.4133 15.8443 42.1613 15.5914 42 15.4551C43.0786 15.2022 44.4293 14.7059 45.1047 14.2876Z" fill="white"/>
<path fill-rule="evenodd" clip-rule="evenodd" d="M70.0631 15.9417V15.572H67.0995V15.9904H66.414V12.0401H70.7787V15.9417H70.0631ZM67.0995 14.9785V14.0833H70.0631V14.9785H67.0995ZM70.0631 12.6433V13.5287H67.0995V12.6433H70.0631Z" fill="white"/>
<path d="M65.3254 9.98706H62.6037V10.5709H65.3254V9.98706Z" fill="white"/>
<path d="M62.6037 11.2909H65.3254V11.8747H62.6037V11.2909Z" fill="white"/>
<path d="M65.6278 8.6638H62.2812V9.26705H65.6278V8.6638Z" fill="white"/>
<path fill-rule="evenodd" clip-rule="evenodd" d="M62.5836 12.6044H65.3254V15.4358H63.2287V15.8931H62.5836V12.6044ZM64.6903 14.8325H63.2287V13.2076H64.6903V14.8325Z" fill="white"/>
<path fill-rule="evenodd" clip-rule="evenodd" d="M73.5709 16V15.3773H80.2541V15.9514H81V8.98478H78.4598V7.14584H77.7139V8.98478H76.0103V7.14584H75.2745V8.98478H72.8552V16H73.5709ZM75.2745 14.6573H73.5709V12.507H75.2745V14.6573ZM75.2745 11.8162H73.5709V9.69506H75.2745V11.8162ZM76.0103 11.8162V9.69506H77.7139V11.8162H76.0103ZM78.4598 11.8162V9.69506H80.2541V11.8162H78.4598ZM78.4598 12.507H80.2541V14.6573H78.4598V12.507ZM77.7139 12.507V14.6573H76.0103V12.507H77.7139Z" fill="white"/>
<path fill-rule="evenodd" clip-rule="evenodd" d="M43.6431 13.5092H42.1915V14.1319H51.1427V13.5092H49.7214V9.11129H46.9292V8.49831H50.8806V7.86587H46.9292V7.05829H46.1833V7.86587H42.4738V8.49831H46.1833V9.11129H43.6431V13.5092ZM44.3688 13.5092V12.8281H48.9654V13.5092H44.3688ZM48.9654 12.3611V11.7773H44.3688V12.3611H48.9654ZM44.3688 11.3005V10.7264H48.9654V11.3005H44.3688ZM48.9654 10.2691V9.62697H44.3688V10.2691H48.9654Z" fill="white"/>
<path fill-rule="evenodd" clip-rule="evenodd" d="M104.32 26.2505C104.32 25.9898 104.336 25.4196 104.336 25.4196H100.424V23.8717H104.573C104.764 26.2238 105.11 28.471 105.651 30.2984C104.776 31.2876 103.759 32.1157 102.612 32.7515C103.107 33.2077 103.953 34.2016 104.288 34.7067C105.138 34.1597 105.93 33.5082 106.658 32.7639C107.338 33.9391 108.193 34.6415 109.254 34.6415C110.898 34.6415 111.649 33.9572 112 30.78C111.377 30.5356 110.563 29.9817 110.036 29.4277C109.956 31.4155 109.765 32.2301 109.445 32.2301C109.06 32.2301 108.67 31.686 108.312 30.7655C109.465 29.1244 110.389 27.1985 111.058 25.0611L108.711 24.4908C108.396 25.6095 107.983 26.659 107.478 27.6243C107.264 26.4884 107.09 25.2105 106.974 23.8717H111.84V21.5418H110.142L110.946 20.6945C110.387 20.1568 109.27 19.4399 108.455 19L107.05 20.4175C107.553 20.7329 108.148 21.1437 108.647 21.5418H106.835C106.811 20.7923 106.808 20.0385 106.827 19.2933H104.384C104.387 20.0364 104.403 20.7892 104.433 21.5418H97.9812V26.4297C97.9812 28.5642 97.9014 31.4481 96.7199 33.3707C97.2468 33.6477 98.3006 34.5275 98.6997 35C99.5135 33.7498 99.9567 32.0088 100.189 30.2753C100.506 30.8638 100.745 31.7506 100.775 32.4257C101.51 32.4257 102.18 32.4094 102.612 32.3279C103.091 32.2301 103.458 32.0672 103.809 31.5947C104.192 31.0733 104.272 29.5743 104.32 26.2505ZM100.197 30.2141C100.316 29.3052 100.378 28.4 100.406 27.5703H102.058C102.023 29.1922 101.963 29.8644 101.829 30.0631C101.701 30.2261 101.558 30.275 101.35 30.275C101.102 30.275 100.674 30.2596 100.197 30.2141Z" fill="white"/>
<path d="M85.8673 22.112C86.1314 21.4187 86.3672 20.705 86.565 19.9939L84.1541 19.4399C83.6112 21.6395 82.5893 23.8717 81.3599 25.2077C81.9507 25.5336 82.9885 26.2342 83.4515 26.6415C83.9297 26.0332 84.4007 25.2744 84.839 24.4257H87.9062V26.9185H83.7709V29.1996H87.9062V32.002H81.8708V34.3157H96.4005V32.002H90.3332V29.1996H94.9156V26.9185H90.3332V24.4257H95.5543V22.112H90.3332V19.277H87.9062V22.112H85.8673Z" fill="white"/>
<path d="M46.3436 28.4645C46.4377 28.0285 46.4856 27.6141 46.4988 27.2444H42.8462V25.11H46.5026V23.4807H42.6866V21.2811H46.5026V19.3585H48.8018V27C48.8018 29.8513 47.9396 33.0611 44.0278 34.9837C43.6446 34.4134 42.9261 33.6802 42.3672 33.224C43.7784 32.6761 44.7414 31.786 45.3804 30.8057C44.6568 30.9237 43.9507 31.0375 43.2921 31.1436L42.4151 31.2851L42 28.9226C43.1273 28.8236 44.7056 28.6496 46.3436 28.4645Z" fill="white"/>
<path fill-rule="evenodd" clip-rule="evenodd" d="M71.6755 34.3304L66.632 19.7975H63.2696L58.1875 34.3304H61.2986L62.2841 31.3429H67.5305L68.4484 34.3304H71.6755ZM64.9218 23.1201L66.6996 28.8386H63.0861L64.9218 23.1201Z" fill="white"/>
<path d="M52.7456 19.3585V21.2811H56.9289V23.4807H52.7456V25.11H56.5457V27.2444H52.7456V28.9063H57.2163V31.1059H52.7456V34.7556H50.4144V19.3585H52.7456Z" fill="white"/>
<path d="M74.2124 22.2695V31.8617H72.4582V34.3337H78.7189V31.8617H77.169V22.2695H78.7189V19.7975H72.4582V22.2695H74.2124Z" fill="white"/>
</svg>
