<svg width="131" height="42" viewBox="0 0 131 42" fill="none" xmlns="http://www.w3.org/2000/svg">
<path d="M116 0.5C124.008 0.5 130.5 6.99187 130.5 15V41.5H15C6.99187 41.5 0.5 35.0081 0.5 27V0.5H116Z" fill="white" stroke="black"/>
<path d="M29.8497 24.1575C26.3836 26.9643 21.4266 26.9643 17.9605 24.1575L19.3007 22.5026C21.9854 24.6766 25.8248 24.6766 28.5095 22.5026L29.8497 24.1575Z" fill="black"/>
<path d="M19.404 17.6365V20.5134H21.5336V17.6365H19.404Z" fill="black"/>
<path d="M26.012 17.6365V20.5134H28.1415V17.6365H26.012Z" fill="black"/>
<path fill-rule="evenodd" clip-rule="evenodd" d="M23.5 33C29.8513 33 35 27.8513 35 21.5C35 15.1487 29.8513 10 23.5 10C17.1487 10 12 15.1487 12 21.5C12 27.8513 17.1487 33 23.5 33ZM23.5 30.8705C28.6752 30.8705 32.8705 26.6752 32.8705 21.5C32.8705 16.3248 28.6752 12.1295 23.5 12.1295C18.3248 12.1295 14.1295 16.3248 14.1295 21.5C14.1295 26.6752 18.3248 30.8705 23.5 30.8705Z" fill="black"/>
<path fill-rule="evenodd" clip-rule="evenodd" d="M93.0575 32.1608L97.6788 19.3289H100.736L105.322 32.1608H102.388L101.553 29.523H96.7826L95.8865 32.1608H93.0575ZM99.1811 22.2626L97.5118 27.3118H100.798L99.1811 22.2626Z" fill="black"/>
<path fill-rule="evenodd" clip-rule="evenodd" d="M80.2853 23.8122C79.5765 22.9126 78.5925 22.4628 77.3333 22.4628C76.6363 22.4628 76.0623 22.6079 75.6113 22.8981C75.2305 23.1303 74.882 23.4669 74.5658 23.908V19.3463H72.0706V32.1608H74.5218V30.9681C74.8557 31.4324 75.1661 31.7574 75.4531 31.9432C75.9334 32.2566 76.5689 32.4133 77.3596 32.4133C78.6189 32.4133 79.6 31.9287 80.3028 30.9594C81.0057 29.9902 81.3571 28.7685 81.3571 27.2944C81.3571 25.8725 80.9998 24.7118 80.2853 23.8122ZM78.1943 29.5927C77.837 30.1092 77.3362 30.3675 76.6919 30.3675C75.948 30.3675 75.3945 30.1005 75.0314 29.5666C74.6683 29.0326 74.4867 28.3594 74.4867 27.5469C74.4867 26.8562 74.5745 26.2933 74.7503 25.858C75.09 25.0397 75.7138 24.6305 76.6216 24.6305C77.5178 24.6305 78.1328 25.0484 78.4666 25.8841C78.6423 26.3252 78.7302 26.8824 78.7302 27.5556C78.7302 28.3971 78.5515 29.0761 78.1943 29.5927Z" fill="black"/>
<path d="M66.2562 30.2717C66.1566 30.173 66.1068 29.9293 66.1068 29.5404V24.5261H67.6619V22.7588H66.1068V20.1124H63.6292V22.7588H62.2938V24.5261H63.6292V30.3675C63.6292 30.9594 63.7698 31.3976 64.0509 31.682C64.4844 32.1289 65.2927 32.332 66.4758 32.2914L67.6619 32.2479V30.3936L67.4934 30.4052L67.4071 30.411H67.1699C66.6603 30.411 66.3557 30.3646 66.2562 30.2717Z" fill="black"/>
<path fill-rule="evenodd" clip-rule="evenodd" d="M60.984 31.0117C61.7923 30.0192 62.1965 28.8266 62.1965 27.4337C62.1965 26.064 61.7923 24.8772 60.984 23.8731C60.1757 22.8691 58.9487 22.3671 57.3028 22.3671C55.6569 22.3671 54.4299 22.8691 53.6216 23.8731C52.8133 24.8772 52.4091 26.064 52.4091 27.4337C52.4091 28.8266 52.8133 30.0192 53.6216 31.0117C54.4299 31.9983 55.6569 32.4916 57.3028 32.4916C58.9487 32.4916 60.1757 31.9983 60.984 31.0117ZM58.9809 29.6362C58.5884 30.1527 58.0262 30.411 57.294 30.411C56.5619 30.411 55.9967 30.1527 55.5984 29.6362C55.2059 29.1197 55.0097 28.3855 55.0097 27.4337C55.0097 26.4819 55.2059 25.7506 55.5984 25.2399C55.9967 24.7234 56.5619 24.4651 57.294 24.4651C58.0262 24.4651 58.5884 24.7234 58.9809 25.2399C59.3733 25.7506 59.5695 26.4819 59.5695 27.4337C59.5695 28.3855 59.3733 29.1197 58.9809 29.6362Z" fill="black"/>
<path d="M48.0244 22.4454C49.0142 22.4454 49.8225 22.7037 50.4492 23.2202C51.0818 23.731 51.3981 24.5812 51.3981 25.7709V32.1608H48.8327V26.389C48.8327 25.8899 48.7653 25.5069 48.6306 25.2399C48.3846 24.7524 47.916 24.5086 47.2249 24.5086C46.3756 24.5086 45.7928 24.8656 45.4765 25.5794C45.3125 25.9567 45.2305 26.4384 45.2305 27.0245V32.1608H42.7354V22.6892H45.1514V24.0734C45.4736 23.5859 45.7781 23.2347 46.0651 23.02C46.5806 22.637 47.2336 22.4454 48.0244 22.4454Z" fill="black"/>
<path d="M82.825 33.9803L83.1413 33.9977C83.3873 34.0093 83.6216 34.0006 83.8442 33.9715C84.0668 33.9425 84.2542 33.8758 84.4065 33.7713C84.5529 33.6727 84.6876 33.4666 84.8106 33.1532C84.9395 32.8398 84.9922 32.6483 84.9688 32.5787L81.4545 22.6718H84.2395L86.3306 29.671L88.3073 22.6718H90.9694L87.6836 32.0041C87.051 33.8032 86.5502 34.9175 86.1812 35.347C85.8122 35.7823 85.0742 35.9999 83.9672 35.9999C83.7446 35.9999 83.566 35.997 83.4313 35.9912C83.2965 35.9912 83.0945 35.9825 82.825 35.9651V33.9803Z" fill="black"/>
<path d="M107.629 29.9811V21.5116H106.034V19.3289H111.727V21.5116H110.318V29.9811H111.727V32.1638H106.034V29.9811H107.629Z" fill="black"/>
<path d="M80.4658 13.9248L81.8857 9.63867H82.8643C82.7397 9.97617 82.4625 10.7467 82.0332 11.9492C81.7121 12.8535 81.4438 13.591 81.2275 14.1611C80.7164 15.5045 80.3552 16.3233 80.1455 16.6182C79.9358 16.9131 79.5756 17.0605 79.0645 17.0605C78.94 17.0605 78.8432 17.0557 78.7744 17.0459C78.709 17.0361 78.6273 17.0183 78.5293 16.9922V16.1855C78.6831 16.2281 78.7945 16.2548 78.8633 16.2646C78.932 16.2745 78.9926 16.2793 79.0449 16.2793C79.2087 16.2793 79.328 16.251 79.4033 16.1953C79.482 16.1429 79.5482 16.0777 79.6006 15.999C79.6171 15.9723 79.676 15.8375 79.7773 15.5957C79.8787 15.3536 79.9522 15.1736 79.998 15.0557L78.0518 9.63867H79.0547L80.4658 13.9248Z" fill="black"/>
<path d="M116.925 9.50098C117.718 9.50098 118.29 9.73392 118.641 10.1992C118.86 10.4941 118.967 10.8125 118.96 11.1533H118.124C118.108 10.9535 118.038 10.7712 117.913 10.6074C117.71 10.3748 117.358 10.2588 116.856 10.2588C116.522 10.2588 116.268 10.3224 116.095 10.4502C115.924 10.5779 115.839 10.7464 115.839 10.9561C115.839 11.1854 115.952 11.3692 116.178 11.5068C116.309 11.5887 116.502 11.6604 116.758 11.7227L117.343 11.8652C117.978 12.0192 118.405 12.1683 118.621 12.3125C118.965 12.5386 119.137 12.895 119.137 13.3799C119.137 13.8482 118.959 14.2531 118.602 14.5938C118.248 14.9345 117.707 15.1044 116.979 15.1045C116.196 15.1045 115.64 14.9281 115.312 14.5742C114.988 14.2171 114.815 13.7761 114.792 13.252H115.643C115.669 13.5465 115.742 13.7725 115.863 13.9297C116.086 14.2148 116.473 14.3574 117.023 14.3574C117.351 14.3574 117.64 14.2874 117.889 14.1465C118.138 14.0023 118.262 13.7806 118.262 13.4824C118.262 13.2564 118.162 13.0847 117.962 12.9668C117.834 12.8947 117.582 12.8108 117.205 12.7158L116.502 12.5391C116.053 12.4277 115.723 12.3026 115.51 12.165C115.13 11.9259 114.94 11.5954 114.939 11.1729C114.939 10.6748 115.118 10.2719 115.476 9.96387C115.836 9.65592 116.319 9.50103 116.925 9.50098Z" fill="black"/>
<path fill-rule="evenodd" clip-rule="evenodd" d="M62.3867 9.52148C62.7601 9.52152 63.1222 9.60929 63.4727 9.78613C63.8232 9.95977 64.0899 10.1864 64.2734 10.4648C64.4504 10.7302 64.5689 11.0397 64.6279 11.3936C64.6804 11.636 64.7061 12.0229 64.7061 12.5537H60.8477C60.864 13.0878 60.9906 13.5174 61.2266 13.8418C61.4624 14.1627 61.8278 14.3232 62.3223 14.3232C62.7843 14.3232 63.1535 14.1709 63.4287 13.8662C63.5859 13.6894 63.6971 13.4845 63.7627 13.252H64.6328C64.6098 13.4452 64.5324 13.6613 64.4014 13.9004C64.2736 14.1363 64.1293 14.3298 63.9688 14.4805C63.7002 14.7424 63.3679 14.919 62.9717 15.0107C62.7587 15.0632 62.5176 15.0898 62.249 15.0898C61.5937 15.0898 61.0385 14.852 60.583 14.377C60.1276 13.8986 59.8995 13.2304 59.8994 12.3721C59.8994 11.5267 60.1291 10.8401 60.5879 10.3125C61.0466 9.78501 61.6462 9.52148 62.3867 9.52148ZM62.332 10.293C61.9259 10.2931 61.5857 10.4406 61.3105 10.7354C61.0353 11.0269 60.8895 11.3985 60.873 11.8506H63.7969C63.7608 11.4674 63.6779 11.1609 63.5469 10.9316C63.3044 10.5057 62.8989 10.293 62.332 10.293Z" fill="black"/>
<path fill-rule="evenodd" clip-rule="evenodd" d="M69.7861 14.9033H68.9902V14.1709C68.7838 14.4952 68.5396 14.7299 68.2578 14.874C67.9762 15.0181 67.6535 15.0898 67.29 15.0898C66.7035 15.0898 66.1949 14.844 65.7656 14.3525C65.3365 13.8578 65.1221 13.2008 65.1221 12.3818C65.1221 11.6151 65.3171 10.9509 65.707 10.3906C66.1002 9.82729 66.6605 9.54594 67.3877 9.5459C67.7906 9.5459 68.1285 9.63047 68.4004 9.80078C68.5577 9.89908 68.7366 10.0716 68.9365 10.3174V7.6582H69.7861V14.9033ZM67.5547 10.3174C67.1093 10.3175 66.7472 10.4876 66.4688 10.8281C66.1936 11.1688 66.0557 11.6704 66.0557 12.332C66.0557 12.8956 66.1758 13.3679 66.415 13.748C66.6542 14.1279 67.0372 14.3183 67.5645 14.3184C67.974 14.3184 68.3101 14.1426 68.5723 13.792C68.8376 13.4381 68.9707 12.932 68.9707 12.2734C68.9707 11.6083 68.8345 11.1167 68.5625 10.7988C68.2906 10.4778 67.9544 10.3174 67.5547 10.3174Z" fill="black"/>
<path fill-rule="evenodd" clip-rule="evenodd" d="M51.958 9.51074C52.5772 9.51074 53.0802 9.62939 53.4668 9.86523C53.8501 10.1011 54.0419 10.4679 54.042 10.9658V13.999C54.042 14.0906 54.0607 14.1641 54.0967 14.2197C54.136 14.2753 54.2159 14.3037 54.3369 14.3037C54.3762 14.3037 54.4206 14.3021 54.4697 14.2988C54.5188 14.2923 54.5713 14.2842 54.627 14.2744V14.9277C54.4894 14.967 54.3846 14.9912 54.3125 15.001C54.2404 15.0108 54.1421 15.0166 54.0176 15.0166C53.7129 15.0166 53.4921 14.9077 53.3545 14.6914C53.2824 14.5767 53.2316 14.4148 53.2021 14.2051C53.0219 14.441 52.7623 14.6457 52.4248 14.8193C52.0874 14.9929 51.7157 15.0801 51.3096 15.0801C50.8214 15.0801 50.4216 14.9325 50.1104 14.6377C49.8023 14.3395 49.6484 13.9671 49.6484 13.5215C49.6485 13.0335 49.8008 12.6553 50.1055 12.3867C50.4102 12.1181 50.8099 11.9519 51.3047 11.8896L52.7148 11.7129C52.9178 11.6867 53.0542 11.602 53.123 11.458C53.1624 11.3794 53.1816 11.2656 53.1816 11.1182C53.1816 10.8169 53.0736 10.5991 52.8574 10.4648C52.6444 10.3273 52.3381 10.2588 51.9385 10.2588C51.4765 10.2588 51.1484 10.3828 50.9551 10.6318C50.8471 10.7694 50.7769 10.9743 50.7441 11.2461H49.9189C49.9354 10.5974 50.1448 10.1468 50.5479 9.89453C50.9541 9.63907 51.4241 9.51078 51.958 9.51074ZM53.1572 12.2246C53.0491 12.2933 52.9095 12.3507 52.7393 12.3965C52.569 12.4423 52.402 12.4755 52.2383 12.4951L51.7031 12.5635C51.3823 12.606 51.141 12.673 50.9805 12.7646C50.7086 12.9186 50.5724 13.1646 50.5723 13.502C50.5723 13.7575 50.6658 13.959 50.8525 14.1064C51.0393 14.2539 51.2601 14.3281 51.5156 14.3281C51.8269 14.3281 52.1283 14.2555 52.4199 14.1113C52.9113 13.8722 53.1571 13.4812 53.1572 12.9375V12.2246Z" fill="black"/>
<path fill-rule="evenodd" clip-rule="evenodd" d="M106.578 9.51074C107.197 9.51074 107.7 9.62936 108.087 9.86523C108.47 10.1011 108.662 10.4679 108.662 10.9658V13.999C108.662 14.0906 108.681 14.1641 108.717 14.2197C108.756 14.2753 108.836 14.3037 108.957 14.3037C108.996 14.3037 109.041 14.3021 109.09 14.2988C109.139 14.2923 109.191 14.2842 109.247 14.2744V14.9277C109.11 14.967 109.005 14.9911 108.933 15.001C108.861 15.0108 108.762 15.0166 108.638 15.0166C108.333 15.0166 108.112 14.9077 107.975 14.6914C107.903 14.5767 107.851 14.4148 107.821 14.2051C107.641 14.4409 107.382 14.6457 107.045 14.8193C106.708 14.9929 106.336 15.08 105.93 15.0801C105.442 15.0801 105.042 14.9325 104.73 14.6377C104.422 14.3395 104.269 13.9671 104.269 13.5215C104.269 13.0335 104.421 12.6553 104.726 12.3867C105.03 12.1181 105.43 11.9519 105.925 11.8896L107.335 11.7129C107.538 11.6867 107.674 11.602 107.743 11.458C107.782 11.3794 107.802 11.2656 107.802 11.1182C107.802 10.8169 107.694 10.5991 107.478 10.4648C107.265 10.3273 106.958 10.2588 106.559 10.2588C106.097 10.2588 105.769 10.3828 105.575 10.6318C105.467 10.7694 105.397 10.9743 105.364 11.2461H104.538C104.554 10.5974 104.765 10.1468 105.168 9.89453C105.574 9.63908 106.044 9.51076 106.578 9.51074ZM107.777 12.2246C107.669 12.2933 107.53 12.3506 107.359 12.3965C107.189 12.4423 107.022 12.4755 106.858 12.4951L106.322 12.5635C106.002 12.606 105.761 12.6731 105.601 12.7646C105.329 12.9186 105.192 13.1646 105.192 13.502C105.192 13.7575 105.286 13.959 105.473 14.1064C105.659 14.2539 105.88 14.3281 106.136 14.3281C106.447 14.3281 106.748 14.2555 107.04 14.1113C107.531 13.8722 107.777 13.4812 107.777 12.9375V12.2246Z" fill="black"/>
<path fill-rule="evenodd" clip-rule="evenodd" d="M74.0879 10.2783C74.2811 10.0262 74.5118 9.83419 74.7803 9.70312C75.0489 9.56883 75.3409 9.50103 75.6553 9.50098C76.3106 9.50098 76.8417 9.72752 77.248 10.1797C77.6576 10.6285 77.8622 11.2919 77.8623 12.1699C77.8623 13.0021 77.6608 13.6937 77.2578 14.2441C76.8548 14.7946 76.2963 15.0703 75.582 15.0703C75.1823 15.0703 74.8446 14.9736 74.5693 14.7803C74.4055 14.6656 74.2307 14.4818 74.0439 14.2295V14.9033H73.2275V7.6582H74.0879V10.2783ZM75.5527 10.293C75.1497 10.293 74.7959 10.4421 74.4912 10.7402C74.1898 11.0384 74.0391 11.53 74.0391 12.2148C74.0391 12.7095 74.1011 13.111 74.2256 13.4189C74.4583 13.9987 74.8927 14.2891 75.5283 14.2891C76.0065 14.2889 76.3638 14.0987 76.5996 13.7188C76.8388 13.3387 76.958 12.8373 76.958 12.2148C76.958 11.6611 76.8388 11.2016 76.5996 10.8379C76.3637 10.4744 76.0145 10.293 75.5527 10.293Z" fill="black"/>
<path d="M44.1426 9.48633C44.7357 9.48633 45.2176 9.63059 45.5879 9.91895C45.9614 10.2073 46.1854 10.7039 46.2607 11.4082H45.4014C45.3489 11.0839 45.2287 10.8155 45.042 10.6025C44.8552 10.3863 44.5554 10.2783 44.1426 10.2783C43.5791 10.2783 43.1761 10.5532 42.9336 11.1035C42.7763 11.4607 42.6973 11.9015 42.6973 12.4258C42.6973 12.9533 42.8094 13.3974 43.0322 13.7578C43.255 14.1182 43.6056 14.2988 44.084 14.2988C44.4508 14.2988 44.7412 14.1866 44.9541 13.9639C45.1701 13.7378 45.3195 13.4297 45.4014 13.04H46.2607C46.1624 13.738 45.9166 14.2498 45.5234 14.5742C45.1303 14.8951 44.6272 15.0557 44.0146 15.0557C43.3267 15.0556 42.7777 14.8049 42.3682 14.3037C41.9586 13.7991 41.7539 13.1697 41.7539 12.416C41.7539 11.492 41.9789 10.7732 42.4277 10.2588C42.8766 9.74436 43.4479 9.48634 44.1426 9.48633Z" fill="black"/>
<path d="M92.0146 9.63867V13.1338C92.0147 13.4022 92.0566 13.6217 92.1416 13.792C92.2988 14.1065 92.5924 14.2636 93.0215 14.2637C93.6375 14.2637 94.0575 13.9889 94.2803 13.4385C94.4015 13.1436 94.4619 12.7389 94.4619 12.2246V9.63867H95.3467V14.9033H94.5107L94.5205 14.127C94.4059 14.3265 94.2639 14.4953 94.0938 14.6328C93.7562 14.9081 93.3459 15.0459 92.8643 15.0459C92.1142 15.0458 91.603 14.795 91.3311 14.2939C91.1836 14.0253 91.1104 13.6657 91.1104 13.2168V9.63867H92.0146Z" fill="black"/>
<path d="M56.8027 7.5791C56.8583 7.57911 56.9158 7.58169 56.9746 7.58496C57.0335 7.58824 57.1006 7.59307 57.1758 7.59961V8.40527C57.0843 8.39874 57.0172 8.39552 56.9746 8.39551C56.9353 8.39223 56.8974 8.39063 56.8613 8.39062C56.5929 8.39062 56.4325 8.46093 56.3799 8.60156C56.3275 8.73919 56.3008 9.09391 56.3008 9.66406H57.1592V9.63867H57.8721V8.16895H58.7666V9.63867H59.6064V10.3613H58.7666V13.7969C58.7666 13.9804 58.8286 14.1038 58.9531 14.166C59.0219 14.202 59.1366 14.2197 59.2969 14.2197H59.4346C59.4837 14.2165 59.541 14.2116 59.6064 14.2051V14.9033C59.505 14.9328 59.3984 14.9537 59.2871 14.9668C59.1791 14.9799 59.0613 14.9863 58.9336 14.9863C58.5207 14.9863 58.2402 14.8816 58.0928 14.6719C57.9454 14.459 57.8721 14.1839 57.8721 13.8467V10.3613H56.291V14.9033H55.416V10.3613H54.6836V9.66406H55.416V8.83789C55.4291 8.47098 55.4938 8.20262 55.6084 8.03223C55.8148 7.73077 56.2129 7.5791 56.8027 7.5791Z" fill="black"/>
<path d="M49.2275 9.52637C49.2668 9.52964 49.3339 9.53609 49.4287 9.5459V10.4795C49.3764 10.4697 49.327 10.4632 49.2812 10.46C49.2388 10.4567 49.1909 10.4551 49.1387 10.4551C48.6933 10.4552 48.3514 10.5995 48.1123 10.8877C47.8732 11.1727 47.753 11.5016 47.7529 11.875V14.9033H46.8682V9.63867H47.709V10.5479C47.7779 10.371 47.9464 10.1564 48.2148 9.9043C48.4834 9.64883 48.7931 9.5216 49.1436 9.52148C49.1599 9.52148 49.1882 9.52309 49.2275 9.52637Z" fill="black"/>
<path d="M86.7129 7.6582V10.3516C86.9226 10.0862 87.1112 9.89915 87.2783 9.79102C87.5633 9.60435 87.9189 9.51076 88.3447 9.51074C89.1082 9.51074 89.6265 9.77839 89.8984 10.3125C90.0458 10.6041 90.1191 11.0088 90.1191 11.5264V14.9033H89.21V11.585C89.2099 11.1987 89.1607 10.9155 89.0625 10.7354C88.902 10.447 88.6005 10.3028 88.1582 10.3027C87.7912 10.3027 87.4583 10.4284 87.1602 10.6807C86.862 10.933 86.7129 11.4101 86.7129 12.1113V14.9033H85.8281V7.6582H86.7129Z" fill="black"/>
<path d="M101.862 9.52148C102.57 9.52158 103.051 9.77701 103.307 10.2881C103.444 10.5633 103.514 10.9333 103.514 11.3984V14.9033H102.595V11.2461C102.595 10.8956 102.506 10.6545 102.329 10.5234C102.155 10.3924 101.942 10.3271 101.689 10.3271C101.342 10.3272 101.042 10.4432 100.79 10.6758C100.541 10.9084 100.417 11.297 100.417 11.8408V14.9033H99.5176V11.4678C99.5176 11.1106 99.4748 10.8494 99.3896 10.6855C99.2553 10.44 99.0045 10.3174 98.6377 10.3174C98.3035 10.3174 97.9989 10.4472 97.7236 10.7061C97.4517 10.9649 97.3154 11.4331 97.3154 12.1113V14.9033H96.4307V9.63867H97.3057V10.3857C97.5153 10.127 97.7057 9.93922 97.876 9.82129C98.1675 9.62149 98.4981 9.52157 98.8682 9.52148C99.2876 9.52148 99.6253 9.62462 99.8809 9.83105C100.025 9.949 100.156 10.1222 100.274 10.3516C100.471 10.0698 100.702 9.86187 100.968 9.72754C101.233 9.59002 101.531 9.52148 101.862 9.52148Z" fill="black"/>
<path d="M112.376 9.52148C113.123 9.5215 113.628 9.78175 113.89 10.3027C114.034 10.5878 114.106 10.9956 114.106 11.5264V14.9033H113.207V11.585C113.207 11.264 113.159 11.0051 113.064 10.8086C112.907 10.481 112.622 10.3174 112.209 10.3174C111.999 10.3174 111.827 10.3383 111.692 10.3809C111.45 10.453 111.237 10.5973 111.054 10.8135C110.906 10.9871 110.81 11.1677 110.764 11.3545C110.721 11.5379 110.7 11.8016 110.7 12.1455V14.9033H109.815V9.63867H110.655V10.3857C110.904 10.0778 111.169 9.85699 111.447 9.72266C111.726 9.58839 112.035 9.52148 112.376 9.52148Z" fill="black"/>
</svg>
