<svg width="131" height="42" viewBox="0 0 131 42" fill="none" xmlns="http://www.w3.org/2000/svg">
<path d="M0.5 0.5H116C124.008 0.5 130.5 6.99187 130.5 15V41.5H15C6.99187 41.5 0.5 35.0081 0.5 27V0.5Z" fill="black" stroke="#ACACAC"/>
<path d="M17.9605 24.1575C21.4266 26.9643 26.3836 26.9643 29.8497 24.1575L28.5095 22.5026C25.8248 24.6766 21.9854 24.6766 19.3007 22.5026L17.9605 24.1575Z" fill="white"/>
<path d="M19.404 20.5134V17.6365H21.5336V20.5134H19.404Z" fill="white"/>
<path d="M26.012 17.6365V20.5134H28.1415V17.6365H26.012Z" fill="white"/>
<path fill-rule="evenodd" clip-rule="evenodd" d="M35 21.5C35 27.8513 29.8513 33 23.5 33C17.1487 33 12 27.8513 12 21.5C12 15.1487 17.1487 10 23.5 10C29.8513 10 35 15.1487 35 21.5ZM32.8705 21.5C32.8705 26.6752 28.6752 30.8705 23.5 30.8705C18.3248 30.8705 14.1295 26.6752 14.1295 21.5C14.1295 16.3248 18.3248 12.1295 23.5 12.1295C28.6752 12.1295 32.8705 16.3248 32.8705 21.5Z" fill="white"/>
<path fill-rule="evenodd" clip-rule="evenodd" d="M105.32 26.2505C105.32 25.9898 105.336 25.4196 105.336 25.4196H101.424V23.8717H105.573C105.764 26.2238 106.11 28.471 106.651 30.2984C105.776 31.2876 104.759 32.1157 103.612 32.7515C104.107 33.2077 104.953 34.2016 105.288 34.7067C106.138 34.1597 106.93 33.5082 107.658 32.7639C108.338 33.9391 109.193 34.6415 110.254 34.6415C111.898 34.6415 112.649 33.9572 113 30.78C112.377 30.5356 111.563 29.9817 111.036 29.4277C110.956 31.4155 110.765 32.2301 110.445 32.2301C110.06 32.2301 109.67 31.686 109.312 30.7655C110.465 29.1244 111.389 27.1985 112.058 25.0611L109.711 24.4908C109.396 25.6095 108.983 26.659 108.478 27.6243C108.264 26.4884 108.09 25.2105 107.974 23.8717H112.84V21.5418H111.142L111.946 20.6945C111.387 20.1568 110.27 19.4399 109.455 19L108.05 20.4175C108.553 20.7329 109.148 21.1437 109.647 21.5418H107.835C107.811 20.7923 107.808 20.0385 107.827 19.2933H105.384C105.387 20.0364 105.403 20.7892 105.433 21.5418H98.9812V26.4297C98.9812 28.5642 98.9014 31.4481 97.7199 33.3707C98.2468 33.6477 99.3006 34.5275 99.6997 35C100.514 33.7498 100.957 32.0088 101.189 30.2753C101.506 30.8638 101.745 31.7506 101.775 32.4257C102.51 32.4257 103.18 32.4094 103.612 32.3279C104.091 32.2301 104.458 32.0672 104.809 31.5947C105.192 31.0733 105.272 29.5743 105.32 26.2505ZM101.197 30.2141C101.316 29.3052 101.378 28.4 101.406 27.5703H103.058C103.023 29.1922 102.963 29.8644 102.829 30.0631C102.701 30.2261 102.558 30.275 102.35 30.275C102.102 30.275 101.674 30.2596 101.197 30.2141Z" fill="white"/>
<path d="M86.8673 22.112C87.1314 21.4187 87.3672 20.705 87.565 19.9939L85.1541 19.4399C84.6112 21.6395 83.5893 23.8717 82.3599 25.2077C82.9507 25.5336 83.9885 26.2342 84.4515 26.6415C84.9297 26.0332 85.4007 25.2744 85.839 24.4257H88.9062V26.9185H84.7709V29.1996H88.9062V32.002H82.8708V34.3157H97.4005V32.002H91.3332V29.1996H95.9156V26.9185H91.3332V24.4257H96.5543V22.112H91.3332V19.277H88.9062V22.112H86.8673Z" fill="white"/>
<path d="M47.3436 28.4645C47.4377 28.0285 47.4856 27.6141 47.4988 27.2444H43.8462V25.11H47.5026V23.4807H43.6866V21.2811H47.5026V19.3585H49.8018V27C49.8018 29.8513 48.9396 33.0611 45.0278 34.9837C44.6446 34.4134 43.9261 33.6802 43.3672 33.224C44.7784 32.6761 45.7414 31.786 46.3804 30.8057C45.6568 30.9237 44.9507 31.0375 44.2921 31.1436L43.4151 31.2851L43 28.9226C44.1273 28.8236 45.7056 28.6496 47.3436 28.4645Z" fill="white"/>
<path fill-rule="evenodd" clip-rule="evenodd" d="M72.6755 34.3304L67.632 19.7975H64.2696L59.1875 34.3304H62.2986L63.2841 31.3429H68.5305L69.4484 34.3304H72.6755ZM65.9218 23.1201L67.6996 28.8386H64.0861L65.9218 23.1201Z" fill="white"/>
<path d="M53.7456 19.3585V21.2811H57.9289V23.4807H53.7456V25.11H57.5457V27.2444H53.7456V28.9063H58.2163V31.1059H53.7456V34.7556H51.4144V19.3585H53.7456Z" fill="white"/>
<path d="M75.2124 22.2695V31.8617H73.4582V34.3337H79.7189V31.8617H78.169V22.2695H79.7189V19.7975H73.4582V22.2695H75.2124Z" fill="white"/>
<path d="M48.9832 14.2843L48.5161 14.7745C49.6392 15.1373 50.7722 15.6078 51.4481 15.9804L52.0543 15.4706C51.3288 15.098 50.1063 14.6373 48.9832 14.2843Z" fill="white"/>
<path d="M46.0612 14.2843L46.747 14.7157C45.9121 15.2157 44.5803 15.7255 43.5168 16C43.4075 15.8529 43.159 15.598 43 15.4608C44.0635 15.2059 45.3953 14.7059 46.0612 14.2843Z" fill="white"/>
<path d="M70.9878 7.59804L70.4313 7C68.9206 7.46078 66.0184 7.72549 63.6529 7.83333C63.7225 8 63.812 8.29412 63.8318 8.48039C64.8688 8.4383 66.0028 8.36549 67.1017 8.25497V9.76471H63.6629V10.4706H67.1017V12.0686H62.997V12.7843H67.1017V14.9706C67.1017 15.1765 67.0222 15.2451 66.7936 15.2451C66.575 15.2549 65.7799 15.2647 64.9549 15.2353C65.0742 15.4314 65.2133 15.7647 65.263 15.9706C66.3166 15.9804 66.9626 15.9608 67.3403 15.8431C67.7179 15.7255 67.877 15.5 67.877 14.9804V12.7843H71.9718V12.0686H67.877V10.4706H71.4152V9.76471H67.877V8.16976C69.0504 8.02913 70.1447 7.84158 70.9878 7.59804Z" fill="white"/>
<path d="M76.0466 11.392C76.5489 10.8374 77.0362 10.1229 77.4673 9.33322H78.1536V15.9999H78.9189V13.6077H81.9105V12.9117H78.9189V11.4313H81.7714V10.7548H78.9189V9.33322H82V8.62734H77.8281C78.0373 8.18966 78.2273 7.73776 78.3922 7.2842L77.6666 7.09793C77.1796 8.53911 76.3746 9.97048 75.4701 10.8822C75.6391 10.9999 75.9373 11.2646 76.0466 11.392Z" fill="white"/>
<path d="M75.9969 7.24499L75.2813 7.0195C74.7148 8.50969 73.7905 9.98028 72.7966 10.9313C72.9357 11.1077 73.1643 11.4999 73.2339 11.6764C73.5707 11.335 73.9018 10.9376 74.2178 10.5024V15.9901H74.9732V9.34229C75.366 8.67112 75.7153 7.95625 75.9969 7.24499Z" fill="white"/>
<path d="M57.937 7.06195L57.9379 7.0195H57.113C57.1115 7.07675 57.1101 7.13924 57.1087 7.20563L57.1086 7.20699L57.1086 7.20896C57.0716 8.89587 56.9727 13.4034 52.9884 15.392C53.217 15.5489 53.4654 15.7744 53.5946 15.9705C56.0246 14.6846 57.083 12.4902 57.5513 10.5277C58.0399 12.3597 59.1165 14.7797 61.6153 15.9313C61.7246 15.7254 61.9433 15.4705 62.162 15.3038C58.619 13.7475 58.0139 9.58904 57.8738 8.43612C57.9182 7.88532 57.929 7.41222 57.937 7.06195Z" fill="white"/>
<path fill-rule="evenodd" clip-rule="evenodd" d="M44.62 13.5H43.1888V14.1275H52.0146V13.5H50.6132V9.06863H47.8601V8.45098H51.7562V7.81373H47.8601V7H47.1246V7.81373H43.4671V8.45098H47.1246V9.06863H44.62V13.5ZM45.3356 13.5H49.8678V12.8137H45.3356V13.5ZM45.3356 12.3431H49.8678V11.7549H45.3356V12.3431ZM45.3356 11.2745H49.8678V10.6961H45.3356V11.2745ZM45.3356 10.2353H49.8678V9.58824H45.3356V10.2353Z" fill="white"/>
</svg>
