<svg width="132" height="42" viewBox="0 0 132 42" fill="none" xmlns="http://www.w3.org/2000/svg">
<path d="M116.393 0.5C124.401 0.5 130.893 6.99187 130.893 15V41.5H15.3926C7.38445 41.5 0.892578 35.0081 0.892578 27V0.5H116.393Z" fill="white" stroke="black"/>
<path d="M28.2422 24.1575C24.7762 26.9643 19.8192 26.9643 16.3531 24.1575L17.6933 22.5026C20.3779 24.6766 24.2174 24.6766 26.9021 22.5026L28.2422 24.1575Z" fill="black"/>
<path d="M17.7966 17.6365V20.5134H19.9261V17.6365H17.7966Z" fill="black"/>
<path d="M24.4046 17.6365V20.5134H26.5341V17.6365H24.4046Z" fill="black"/>
<path fill-rule="evenodd" clip-rule="evenodd" d="M21.8926 33C28.2439 33 33.3926 27.8513 33.3926 21.5C33.3926 15.1487 28.2439 10 21.8926 10C15.5413 10 10.3926 15.1487 10.3926 21.5C10.3926 27.8513 15.5413 33 21.8926 33ZM21.8926 30.8705C27.0678 30.8705 31.2631 26.6752 31.2631 21.5C31.2631 16.3248 27.0678 12.1295 21.8926 12.1295C16.7174 12.1295 12.5221 16.3248 12.5221 21.5C12.5221 26.6752 16.7174 30.8705 21.8926 30.8705Z" fill="black"/>
<path fill-rule="evenodd" clip-rule="evenodd" d="M104.226 32.15L99.6572 19.2822H96.6112L92.0073 32.15H94.8257L95.7185 29.5049H100.471L101.303 32.15H104.226ZM98.108 22.2242L99.7185 27.2875H96.4449L98.108 22.2242Z" fill="black"/>
<path fill-rule="evenodd" clip-rule="evenodd" d="M79.2829 23.7781C78.5769 22.876 77.5966 22.425 76.342 22.425C75.6476 22.425 75.0758 22.5705 74.6264 22.8615C74.2472 23.0943 73.9 23.4318 73.5849 23.8741V19.2997H71.0991V32.15H73.5411V30.954C73.8737 31.4196 74.183 31.7455 74.4689 31.9318C74.9474 32.2461 75.5805 32.4032 76.3683 32.4032C77.6228 32.4032 78.6002 31.9172 79.3004 30.9453C80.0007 29.9734 80.3508 28.7483 80.3508 27.27C80.3508 25.8442 79.9948 24.6802 79.2829 23.7781ZM77.1998 29.5747C76.8438 30.0927 76.3449 30.3517 75.703 30.3517C74.962 30.3517 74.4105 30.084 74.0488 29.5485C73.687 29.0131 73.5061 28.338 73.5061 27.5232C73.5061 26.8306 73.5936 26.2661 73.7687 25.8296C74.1071 25.009 74.7286 24.5987 75.633 24.5987C76.5258 24.5987 77.1385 25.0177 77.4711 25.8558C77.6462 26.2981 77.7337 26.8568 77.7337 27.5319C77.7337 28.3758 77.5557 29.0567 77.1998 29.5747Z" fill="black"/>
<path d="M63.1095 31.6699C62.8294 31.3847 62.6893 30.9453 62.6893 30.3517V24.4939H61.3589V22.7218H62.6893V20.0679H65.1576V22.7218H66.7069V24.4939H65.1576V29.5223C65.1576 29.9123 65.2072 30.1567 65.3064 30.2556C65.4056 30.3488 65.7091 30.3953 66.2167 30.3953H66.453C66.5406 30.3895 66.6252 30.3837 66.7069 30.3779V32.2373L65.5252 32.281C64.3465 32.3217 63.5413 32.118 63.1095 31.6699Z" fill="black"/>
<path fill-rule="evenodd" clip-rule="evenodd" d="M60.054 30.9977C60.8593 30.0025 61.2619 28.8065 61.2619 27.4097C61.2619 26.0362 60.8593 24.8461 60.054 23.8392C59.2488 22.8324 58.0263 22.3289 56.3866 22.3289C54.7469 22.3289 53.5245 22.8324 52.7192 23.8392C51.9139 24.8461 51.5113 26.0362 51.5113 27.4097C51.5113 28.8065 51.9139 30.0025 52.7192 30.9977C53.5245 31.9871 54.7469 32.4818 56.3866 32.4818C58.0263 32.4818 59.2488 31.9871 60.054 30.9977ZM58.0584 29.6184C57.6674 30.1363 57.1073 30.3953 56.3779 30.3953C55.6485 30.3953 55.0854 30.1363 54.6886 29.6184C54.2976 29.1004 54.1021 28.3642 54.1021 27.4097C54.1021 26.4553 54.2976 25.7219 54.6886 25.2098C55.0854 24.6918 55.6485 24.4328 56.3779 24.4328C57.1073 24.4328 57.6674 24.6918 58.0584 25.2098C58.4494 25.7219 58.6448 26.4553 58.6448 27.4097C58.6448 28.3642 58.4494 29.1004 58.0584 29.6184Z" fill="black"/>
<path d="M49.5587 23.1845C48.9344 22.6665 48.1291 22.4075 47.143 22.4075C46.3552 22.4075 45.7046 22.5996 45.1911 22.9837C44.9052 23.199 44.6017 23.5511 44.2808 24.04V22.6519H41.8738V32.15H44.3596V26.9994C44.3596 26.4116 44.4413 25.9286 44.6047 25.5503C44.9198 24.8344 45.5004 24.4765 46.3465 24.4765C47.035 24.4765 47.5018 24.7209 47.7469 25.2098C47.8811 25.4775 47.9482 25.8616 47.9482 26.3621V32.15H50.504V25.7423C50.504 24.5492 50.1889 23.6966 49.5587 23.1845Z" fill="black"/>
<path d="M81.8132 33.9746L82.1283 33.992C82.3734 34.0037 82.6068 33.9949 82.8285 33.9658C83.0503 33.9367 83.237 33.8698 83.3887 33.765C83.5346 33.6661 83.6688 33.4595 83.7913 33.1452C83.9197 32.831 83.9722 32.6389 83.9489 32.5691L80.4478 22.6345H83.2224L85.3056 29.6533L87.2749 22.6345H89.927L86.6535 31.9929C86.0233 33.7971 85.5244 34.9145 85.1568 35.3451C84.7891 35.7816 84.0539 35.9999 82.9511 35.9999C82.7293 35.9999 82.5513 35.997 82.4171 35.9912C82.2829 35.9912 82.0816 35.9824 81.8132 35.965V33.9746Z" fill="black"/>
<path d="M106.524 29.9642V21.471H104.935V19.2822H110.607V21.471H109.203V29.9642H110.607V32.153H104.935V29.9642H106.524Z" fill="black"/>
<path d="M82.9111 13.8379L84.332 9.55176H85.3096C85.185 9.88939 84.9085 10.6593 84.4795 11.8613C84.1584 12.7657 83.8891 13.5031 83.6729 14.0732C83.1617 15.4167 82.8015 16.2363 82.5918 16.5312C82.3821 16.826 82.0217 16.9736 81.5107 16.9736C81.3863 16.9736 81.2895 16.9688 81.2207 16.959C81.1552 16.9492 81.0729 16.9305 80.9746 16.9043V16.0986C81.1286 16.1412 81.2408 16.1669 81.3096 16.1768C81.3782 16.1866 81.4389 16.1914 81.4912 16.1914C81.6548 16.1914 81.7743 16.164 81.8496 16.1084C81.9282 16.056 81.9945 15.9907 82.0469 15.9121C82.0633 15.8859 82.1221 15.7513 82.2236 15.5088C82.3252 15.2663 82.3985 15.0857 82.4443 14.9678L80.498 9.55176H81.501L82.9111 13.8379Z" fill="black"/>
<path d="M119.371 9.41406C120.164 9.41406 120.736 9.64701 121.087 10.1123C121.306 10.4071 121.413 10.7248 121.406 11.0654H120.57C120.554 10.8656 120.484 10.6834 120.359 10.5195C120.156 10.287 119.804 10.1709 119.303 10.1709C118.969 10.1709 118.715 10.2347 118.541 10.3623C118.371 10.4901 118.285 10.6594 118.285 10.8691C118.285 11.0983 118.398 11.2814 118.624 11.4189C118.755 11.5009 118.949 11.5735 119.204 11.6357L119.789 11.7783C120.425 11.9323 120.851 12.0814 121.067 12.2256C121.411 12.4517 121.583 12.8072 121.583 13.292C121.583 13.7606 121.404 14.1651 121.047 14.5059C120.693 14.8465 120.153 15.0175 119.426 15.0176C118.643 15.0176 118.086 14.8402 117.759 14.4863C117.434 14.1292 117.261 13.6883 117.238 13.1641H118.089C118.115 13.459 118.188 13.6855 118.31 13.8428C118.532 14.1277 118.919 14.2705 119.47 14.2705C119.797 14.2705 120.086 14.1995 120.335 14.0586C120.584 13.9145 120.708 13.6934 120.708 13.3955C120.708 13.1694 120.608 12.9969 120.408 12.8789C120.28 12.8068 120.028 12.7239 119.651 12.6289L118.948 12.4512C118.5 12.3398 118.169 12.2156 117.956 12.0781C117.576 11.8389 117.386 11.5077 117.386 11.085C117.386 10.5871 117.564 10.1839 117.921 9.87598C118.281 9.56799 118.765 9.41409 119.371 9.41406Z" fill="black"/>
<path fill-rule="evenodd" clip-rule="evenodd" d="M51.7305 9.43359C52.1039 9.43359 52.4659 9.52235 52.8164 9.69922C53.167 9.87285 53.4347 10.0985 53.6182 10.377C53.7951 10.6424 53.9127 10.9528 53.9717 11.3066C54.024 11.5491 54.0508 11.9354 54.0508 12.4658H50.1924C50.2088 12.9998 50.3345 13.4295 50.5703 13.7539C50.8062 14.075 51.1722 14.2354 51.667 14.2354C52.1289 14.2353 52.4973 14.083 52.7725 13.7783C52.9297 13.6014 53.0409 13.3967 53.1064 13.1641H53.9766C53.9536 13.3573 53.877 13.5735 53.7461 13.8125C53.6184 14.0483 53.4739 14.2419 53.3135 14.3926C53.0448 14.6547 52.7119 14.8321 52.3154 14.9238C52.1024 14.9763 51.8615 15.002 51.5928 15.002C50.9376 15.0019 50.3822 14.765 49.9268 14.29C49.4713 13.8116 49.2432 13.1427 49.2432 12.2842C49.2432 11.4389 49.4729 10.7521 49.9316 10.2246C50.3903 9.69721 50.9901 9.43361 51.7305 9.43359ZM51.6768 10.2051C51.2705 10.2051 50.9295 10.3527 50.6543 10.6475C50.3791 10.9391 50.2332 11.3115 50.2168 11.7637H53.1416C53.1056 11.3805 53.0216 11.0741 52.8906 10.8447C52.6482 10.4188 52.2435 10.2051 51.6768 10.2051Z" fill="black"/>
<path fill-rule="evenodd" clip-rule="evenodd" d="M64.833 9.43359C65.2064 9.43366 65.5685 9.52234 65.9189 9.69922C66.2693 9.8728 66.5363 10.0986 66.7197 10.377C66.8967 10.6424 67.0152 10.9528 67.0742 11.3066C67.1266 11.5491 67.1523 11.9355 67.1523 12.4658H63.2939C63.3103 12.9999 63.4369 13.4295 63.6729 13.7539C63.9088 14.075 64.2739 14.2353 64.7686 14.2354C65.2306 14.2354 65.5998 14.0831 65.875 13.7783C66.0321 13.6015 66.1435 13.3966 66.209 13.1641H67.0791C67.0562 13.3573 66.9786 13.5734 66.8477 13.8125C66.7199 14.0484 66.5756 14.2419 66.415 14.3926C66.1464 14.6546 65.8143 14.8321 65.418 14.9238C65.2051 14.9762 64.9639 15.0019 64.6953 15.002C64.04 15.002 63.4838 14.7652 63.0283 14.29C62.5729 13.8116 62.3457 13.1426 62.3457 12.2842C62.3457 11.4389 62.5745 10.7521 63.0332 10.2246C63.4919 9.69706 64.0925 9.43359 64.833 9.43359ZM64.7783 10.2051C64.3721 10.2051 64.0311 10.3526 63.7559 10.6475C63.4807 10.9391 63.3347 11.3115 63.3184 11.7637H66.2432C66.2071 11.3804 66.1232 11.0741 65.9922 10.8447C65.7497 10.4188 65.3452 10.2051 64.7783 10.2051Z" fill="black"/>
<path fill-rule="evenodd" clip-rule="evenodd" d="M72.2324 7.57031V14.8154H71.4365V14.083C71.2301 14.4074 70.9859 14.642 70.7041 14.7861C70.4223 14.9303 70.0991 15.002 69.7354 15.002C69.1491 15.0019 68.641 14.7569 68.2119 14.2656C67.7827 13.7708 67.5684 13.1131 67.5684 12.2939C67.5684 11.5273 67.7634 10.864 68.1533 10.3037C68.5465 9.74015 69.1066 9.45801 69.834 9.45801C70.237 9.45801 70.5747 9.54348 70.8467 9.71387C71.0038 9.81213 71.1822 9.98405 71.3818 10.2295V7.57031H72.2324ZM70.001 10.2295C69.5554 10.2295 69.1935 10.4005 68.915 10.7412C68.6398 11.082 68.502 11.5832 68.502 12.2451C68.502 12.8084 68.6214 13.2802 68.8604 13.6602C69.0995 14.0402 69.4833 14.2304 70.0107 14.2305C70.4203 14.2305 70.7564 14.0556 71.0186 13.7051C71.2839 13.3513 71.4169 12.8449 71.417 12.1865C71.417 11.5215 71.2806 11.0298 71.0088 10.7119C70.7368 10.3908 70.4007 10.2295 70.001 10.2295Z" fill="black"/>
<path fill-rule="evenodd" clip-rule="evenodd" d="M56.9043 9.42383C57.5234 9.42387 58.0265 9.54147 58.4131 9.77734C58.7965 10.0133 58.9883 10.3808 58.9883 10.8789V13.9111C58.9883 14.0029 59.0059 14.0771 59.042 14.1328C59.0814 14.1884 59.1621 14.2158 59.2832 14.2158C59.3224 14.2158 59.367 14.2142 59.416 14.2109C59.465 14.2044 59.5177 14.1963 59.5732 14.1865V14.8398C59.4359 14.8791 59.3309 14.9042 59.2588 14.9141C59.1868 14.9239 59.0882 14.9287 58.9639 14.9287C58.6592 14.9287 58.4374 14.8207 58.2998 14.6045C58.2278 14.4899 58.177 14.3277 58.1475 14.1182C57.9673 14.354 57.7084 14.5588 57.3711 14.7324C57.0336 14.9061 56.6612 14.9922 56.2549 14.9922C55.7668 14.9921 55.3669 14.8446 55.0557 14.5498C54.7479 14.2517 54.5938 13.88 54.5938 13.4346C54.5938 12.9463 54.746 12.5675 55.0508 12.2988C55.3555 12.0302 55.7554 11.865 56.25 11.8027L57.6611 11.626C57.8642 11.5997 58.0005 11.5142 58.0693 11.3701C58.1086 11.2915 58.1279 11.1784 58.1279 11.0312C58.1279 10.7298 58.02 10.5113 57.8037 10.377C57.5908 10.2394 57.2843 10.171 56.8848 10.1709C56.423 10.1709 56.0947 10.2951 55.9014 10.5439C55.7932 10.6816 55.7232 10.8872 55.6904 11.1592H54.8643C54.8806 10.5106 55.0903 10.06 55.4932 9.80762C55.8995 9.55203 56.3702 9.42383 56.9043 9.42383ZM58.1035 12.1367C57.9954 12.2055 57.8559 12.2627 57.6855 12.3086C57.5153 12.3544 57.3483 12.3876 57.1846 12.4072L56.6484 12.4756C56.3273 12.5182 56.0863 12.586 55.9258 12.6777C55.6539 12.8317 55.5176 13.0776 55.5176 13.415C55.5176 13.6705 55.6112 13.8721 55.7979 14.0195C55.9846 14.167 56.2063 14.2402 56.4619 14.2402C56.7731 14.2402 57.0747 14.1685 57.3662 14.0244C57.8576 13.7852 58.1035 13.3935 58.1035 12.8496V12.1367Z" fill="black"/>
<path fill-rule="evenodd" clip-rule="evenodd" d="M109.024 9.42383C109.644 9.42383 110.147 9.54151 110.533 9.77734C110.917 10.0133 111.108 10.3808 111.108 10.8789V13.9111C111.108 14.0029 111.126 14.0771 111.162 14.1328C111.201 14.1885 111.282 14.2158 111.403 14.2158C111.443 14.2158 111.487 14.2142 111.536 14.2109C111.585 14.2044 111.638 14.1963 111.693 14.1865V14.8398C111.556 14.8791 111.451 14.9042 111.379 14.9141C111.307 14.9239 111.208 14.9287 111.084 14.9287C110.779 14.9287 110.558 14.8208 110.42 14.6045C110.348 14.4899 110.297 14.3277 110.268 14.1182C110.087 14.3539 109.828 14.5589 109.491 14.7324C109.154 14.906 108.782 14.9921 108.376 14.9922C107.888 14.9922 107.488 14.8447 107.177 14.5498C106.869 14.2516 106.714 13.8802 106.714 13.4346C106.714 12.9464 106.866 12.5675 107.171 12.2988C107.476 12.0301 107.876 11.865 108.371 11.8027L109.781 11.626C109.984 11.5998 110.121 11.5143 110.189 11.3701C110.229 11.2915 110.248 11.1785 110.248 11.0312C110.248 10.7298 110.14 10.5113 109.924 10.377C109.711 10.2394 109.404 10.1709 109.005 10.1709C108.543 10.1709 108.215 10.295 108.021 10.5439C107.913 10.6816 107.843 10.8872 107.811 11.1592H106.984C107.001 10.5107 107.211 10.06 107.613 9.80762C108.02 9.55203 108.49 9.42383 109.024 9.42383ZM110.224 12.1367C110.116 12.2055 109.976 12.2627 109.806 12.3086C109.635 12.3544 109.468 12.3876 109.305 12.4072L108.769 12.4756C108.448 12.5182 108.206 12.586 108.046 12.6777C107.774 12.8318 107.639 13.0777 107.639 13.415C107.639 13.6705 107.732 13.8721 107.919 14.0195C108.106 14.1668 108.327 14.2402 108.582 14.2402C108.893 14.2402 109.195 14.1686 109.486 14.0244C109.978 13.7852 110.224 13.3935 110.224 12.8496V12.1367Z" fill="black"/>
<path fill-rule="evenodd" clip-rule="evenodd" d="M76.5342 10.1904C76.7274 9.93829 76.958 9.74626 77.2266 9.61523C77.4952 9.48092 77.7871 9.41409 78.1016 9.41406C78.7568 9.41406 79.288 9.63975 79.6943 10.0918C80.1039 10.5407 80.3086 11.2048 80.3086 12.083C80.3086 12.9152 80.1071 13.6068 79.7041 14.1572C79.3011 14.7076 78.7425 14.9824 78.0283 14.9824C77.6286 14.9824 77.2909 14.8857 77.0156 14.6924C76.8518 14.5777 76.676 14.3948 76.4893 14.1426V14.8154H75.6738V7.57031H76.5342V10.1904ZM77.999 10.2051C77.596 10.2051 77.2413 10.3542 76.9365 10.6523C76.6351 10.9505 76.4844 11.4423 76.4844 12.127C76.4844 12.6217 76.5474 13.0231 76.6719 13.3311C76.9045 13.9109 77.3381 14.2011 77.9736 14.2012C78.452 14.2012 78.81 14.011 79.0459 13.6309C79.2849 13.2508 79.4043 12.7493 79.4043 12.127C79.4043 11.5734 79.285 11.1146 79.0459 10.751C78.8101 10.3874 78.4608 10.2052 77.999 10.2051Z" fill="black"/>
<path d="M43.7871 9.39941C44.3802 9.39941 44.8622 9.54368 45.2324 9.83203C45.6058 10.1204 45.8299 10.617 45.9053 11.3213H45.0459C44.9935 10.9969 44.8733 10.7276 44.6865 10.5146C44.4997 10.2985 44.1998 10.1904 43.7871 10.1904C43.2235 10.1904 42.8206 10.4661 42.5781 11.0166C42.4209 11.3737 42.3418 11.8147 42.3418 12.3389C42.3419 12.8662 42.454 13.3106 42.6768 13.6709C42.8996 14.031 43.2503 14.2109 43.7285 14.2109C44.0954 14.2109 44.3857 14.0997 44.5986 13.877C44.8148 13.6509 44.964 13.3429 45.0459 12.9531H45.9053C45.8069 13.6509 45.5611 14.162 45.168 14.4863C44.7748 14.8073 44.2718 14.9678 43.6592 14.9678C42.9712 14.9677 42.4222 14.7171 42.0127 14.2158C41.6032 13.7112 41.3984 13.0817 41.3984 12.3281C41.3985 11.4043 41.6234 10.6853 42.0723 10.1709C42.5211 9.65661 43.0926 9.39943 43.7871 9.39941Z" fill="black"/>
<path d="M94.46 9.55176V13.0459C94.46 13.3146 94.5027 13.5347 94.5879 13.7051C94.7452 14.0195 95.0387 14.1767 95.4678 14.1768C96.0838 14.1768 96.5037 13.9011 96.7266 13.3506C96.8477 13.0557 96.9082 12.6509 96.9082 12.1367V9.55176H97.793V14.8154H96.957L96.9668 14.0391C96.8521 14.2389 96.7094 14.4073 96.5391 14.5449C96.2016 14.8201 95.7922 14.958 95.3105 14.958C94.5603 14.958 94.0493 14.7074 93.7773 14.2061C93.6299 13.9374 93.5557 13.5787 93.5557 13.1299V9.55176H94.46Z" fill="black"/>
<path d="M61.2119 8.08203V9.55176H62.0527V10.2744H61.2119V13.71C61.212 13.8933 61.2749 14.0159 61.3994 14.0781C61.4682 14.1141 61.5827 14.1328 61.7432 14.1328H61.8809C61.93 14.1295 61.9873 14.1247 62.0527 14.1182V14.8154C61.9512 14.8449 61.8448 14.8668 61.7334 14.8799C61.6254 14.893 61.5075 14.8994 61.3799 14.8994C60.9672 14.8994 60.6866 14.7945 60.5391 14.585C60.3916 14.372 60.3174 14.0963 60.3174 13.7588V10.2744H59.6055V9.55176H60.3174V8.08203H61.2119Z" fill="black"/>
<path d="M48.7881 9.43359C48.8045 9.43359 48.8328 9.4352 48.8721 9.43848C48.9113 9.44175 48.9784 9.4482 49.0732 9.45801V10.3916C49.021 10.3818 48.9715 10.3753 48.9258 10.3721C48.8833 10.3688 48.8355 10.3672 48.7832 10.3672C48.338 10.3673 47.9959 10.5118 47.7568 10.7998C47.5176 11.0849 47.3975 11.4145 47.3975 11.7881V14.8154H46.5127V9.55176H47.3535V10.4609C47.4223 10.2841 47.5909 10.0696 47.8594 9.81738C48.1279 9.56192 48.4377 9.43371 48.7881 9.43359Z" fill="black"/>
<path d="M89.1592 10.2646C89.3689 9.99923 89.5575 9.81223 89.7246 9.7041C90.0097 9.51736 90.3651 9.42383 90.791 9.42383C91.5543 9.42384 92.0717 9.6908 92.3438 10.2246C92.4912 10.5162 92.5654 10.9217 92.5654 11.4395V14.8154H91.6562V11.498C91.6562 11.1114 91.6071 10.8277 91.5088 10.6475C91.3483 10.3592 91.0467 10.2149 90.6045 10.2148C90.2375 10.2148 89.9046 10.3414 89.6064 10.5938C89.3084 10.846 89.1592 11.3225 89.1592 12.0234V14.8154H88.2744V7.57031H89.1592V10.2646Z" fill="black"/>
<path d="M104.308 9.43359C105.015 9.43359 105.497 9.68917 105.753 10.2002C105.891 10.4754 105.96 10.8462 105.96 11.3115V14.8154H105.04V11.1592C105.04 10.8088 104.952 10.5677 104.775 10.4365C104.602 10.3055 104.388 10.2393 104.136 10.2393C103.789 10.2393 103.489 10.3563 103.236 10.5889C102.987 10.8215 102.863 11.2101 102.863 11.7539V14.8154H101.964V11.3799C101.964 11.0229 101.921 10.7625 101.836 10.5986C101.702 10.3529 101.451 10.2295 101.084 10.2295C100.75 10.2295 100.445 10.3594 100.17 10.6182C99.898 10.877 99.7618 11.3454 99.7617 12.0234V14.8154H98.877V9.55176H99.752V10.2988C99.9617 10.04 100.152 9.85136 100.322 9.7334C100.614 9.53369 100.944 9.43365 101.314 9.43359C101.734 9.43359 102.072 9.5368 102.327 9.74316C102.471 9.86113 102.603 10.0353 102.721 10.2646C102.917 9.98291 103.148 9.774 103.413 9.63965C103.678 9.50209 103.977 9.43365 104.308 9.43359Z" fill="black"/>
<path d="M114.822 9.43359C115.569 9.43365 116.074 9.69403 116.336 10.2148C116.48 10.4999 116.552 10.9086 116.552 11.4395V14.8154H115.652V11.498C115.652 11.177 115.605 10.9183 115.51 10.7217C115.353 10.3941 115.068 10.2296 114.655 10.2295C114.446 10.2295 114.273 10.2513 114.139 10.2939C113.896 10.3661 113.683 10.5104 113.5 10.7266C113.353 10.9001 113.256 11.08 113.21 11.2666C113.167 11.4501 113.146 11.7145 113.146 12.0586V14.8154H112.262V9.55176H113.102V10.2988C113.351 9.99082 113.615 9.76911 113.894 9.63477C114.172 9.50059 114.482 9.43359 114.822 9.43359Z" fill="black"/>
</svg>
