<svg width="131" height="42" viewBox="0 0 131 42" fill="none" xmlns="http://www.w3.org/2000/svg">
<path d="M0.5 0.5H116C124.008 0.5 130.5 6.99187 130.5 15V41.5H15C6.99187 41.5 0.5 35.0081 0.5 27V0.5Z" fill="white" stroke="black"/>
<path d="M17.9605 24.1575C21.4266 26.9643 26.3836 26.9643 29.8497 24.1575L28.5095 22.5026C25.8248 24.6766 21.9854 24.6766 19.3007 22.5026L17.9605 24.1575Z" fill="black"/>
<path d="M19.404 20.5134V17.6365H21.5336V20.5134H19.404Z" fill="black"/>
<path d="M26.012 17.6365V20.5134H28.1415V17.6365H26.012Z" fill="black"/>
<path fill-rule="evenodd" clip-rule="evenodd" d="M35 21.5C35 27.8513 29.8513 33 23.5 33C17.1487 33 12 27.8513 12 21.5C12 15.1487 17.1487 10 23.5 10C29.8513 10 35 15.1487 35 21.5ZM32.8705 21.5C32.8705 26.6752 28.6752 30.8705 23.5 30.8705C18.3248 30.8705 14.1295 26.6752 14.1295 21.5C14.1295 16.3248 18.3248 12.1295 23.5 12.1295C28.6752 12.1295 32.8705 16.3248 32.8705 21.5Z" fill="black"/>
<path fill-rule="evenodd" clip-rule="evenodd" d="M104.32 26.2505C104.32 25.9898 104.336 25.4196 104.336 25.4196H100.424V23.8717H104.573C104.764 26.2238 105.11 28.471 105.651 30.2984C104.776 31.2876 103.759 32.1157 102.612 32.7515C103.107 33.2077 103.953 34.2016 104.288 34.7067C105.138 34.1597 105.93 33.5082 106.658 32.7639C107.338 33.9391 108.193 34.6415 109.254 34.6415C110.898 34.6415 111.649 33.9572 112 30.78C111.377 30.5356 110.563 29.9817 110.036 29.4277C109.956 31.4155 109.765 32.2301 109.445 32.2301C109.06 32.2301 108.67 31.686 108.312 30.7655C109.465 29.1244 110.389 27.1985 111.058 25.0611L108.711 24.4908C108.396 25.6095 107.983 26.659 107.478 27.6243C107.264 26.4884 107.09 25.2105 106.974 23.8717H111.84V21.5418H110.142L110.946 20.6945C110.387 20.1568 109.27 19.4399 108.455 19L107.05 20.4175C107.553 20.7329 108.148 21.1437 108.647 21.5418H106.835C106.811 20.7923 106.808 20.0385 106.827 19.2933H104.384C104.387 20.0364 104.403 20.7892 104.433 21.5418H97.9812V26.4297C97.9812 28.5642 97.9014 31.4481 96.7199 33.3707C97.2468 33.6477 98.3006 34.5275 98.6997 35C99.5135 33.7498 99.9567 32.0088 100.189 30.2753C100.506 30.8638 100.745 31.7506 100.775 32.4257C101.51 32.4257 102.18 32.4094 102.612 32.3279C103.091 32.2301 103.458 32.0672 103.809 31.5947C104.192 31.0733 104.272 29.5743 104.32 26.2505ZM100.197 30.2141C100.316 29.3052 100.378 28.4 100.406 27.5703H102.058C102.023 29.1922 101.963 29.8644 101.829 30.0631C101.701 30.2261 101.558 30.275 101.35 30.275C101.102 30.275 100.674 30.2596 100.197 30.2141Z" fill="black"/>
<path d="M85.8673 22.112C86.1314 21.4187 86.3672 20.705 86.565 19.9939L84.1541 19.4399C83.6112 21.6395 82.5893 23.8717 81.3599 25.2077C81.9507 25.5336 82.9885 26.2342 83.4515 26.6415C83.9297 26.0332 84.4007 25.2744 84.839 24.4257H87.9062V26.9185H83.7709V29.1996H87.9062V32.002H81.8708V34.3157H96.4005V32.002H90.3332V29.1996H94.9156V26.9185H90.3332V24.4257H95.5543V22.112H90.3332V19.277H87.9062V22.112H85.8673Z" fill="black"/>
<path d="M46.3436 28.4645C46.4377 28.0285 46.4856 27.6141 46.4988 27.2444H42.8462V25.11H46.5026V23.4807H42.6866V21.2811H46.5026V19.3585H48.8018V27C48.8018 29.8513 47.9396 33.0611 44.0278 34.9837C43.6446 34.4134 42.9261 33.6802 42.3672 33.224C43.7784 32.6761 44.7414 31.786 45.3804 30.8057C44.6568 30.9237 43.9507 31.0375 43.2921 31.1436L42.4151 31.2851L42 28.9226C43.1273 28.8236 44.7056 28.6496 46.3436 28.4645Z" fill="black"/>
<path fill-rule="evenodd" clip-rule="evenodd" d="M71.6755 34.3304L66.632 19.7975H63.2696L58.1875 34.3304H61.2986L62.2841 31.3429H67.5305L68.4484 34.3304H71.6755ZM64.9218 23.1201L66.6996 28.8386H63.0861L64.9218 23.1201Z" fill="black"/>
<path d="M52.7456 19.3585V21.2811H56.9289V23.4807H52.7456V25.11H56.5457V27.2444H52.7456V28.9063H57.2163V31.1059H52.7456V34.7556H50.4144V19.3585H52.7456Z" fill="black"/>
<path d="M74.2124 22.2695V31.8617H72.4582V34.3337H78.7189V31.8617H77.169V22.2695H78.7189V19.7975H72.4582V22.2695H74.2124Z" fill="black"/>
<path d="M47.9862 14.2606L47.5189 14.7492C48.6425 15.1107 49.7761 15.5798 50.4523 15.9511L51.0589 15.443C50.333 15.0716 49.1099 14.6124 47.9862 14.2606Z" fill="black"/>
<path d="M45.0627 14.2606L45.7489 14.6905C44.9136 15.1889 43.5811 15.6971 42.5171 15.9707C42.4077 15.8241 42.1591 15.57 42 15.4332C43.064 15.1791 44.3965 14.6808 45.0627 14.2606Z" fill="black"/>
<path d="M73.3034 7.1563L72.8261 7.62535C73.373 8.08463 74.0691 8.74913 74.3973 9.15955L74.8944 8.62209C74.5663 8.21167 73.8603 7.58626 73.3034 7.1563Z" fill="black"/>
<path d="M73.0051 15.1107C73.1443 15.267 73.3333 15.5895 73.4029 15.7849C73.562 15.5797 73.8404 15.3745 75.7198 14.0651C75.6402 13.9185 75.5209 13.6156 75.4712 13.4104L74.2481 14.2337V10.0488H71.9212V10.7817H73.4924V14.2898C73.4924 14.71 73.194 14.9934 73.0051 15.1107Z" fill="black"/>
<path d="M62.7231 7.61565L63.2104 7.16614C63.7473 7.59611 64.4235 8.22151 64.7417 8.62216L64.2346 9.14985C63.9263 8.72966 63.2601 8.07493 62.7231 7.61565Z" fill="black"/>
<path d="M63.2501 15.7752C63.4092 15.5896 63.6777 15.3844 65.4477 14.0945C65.3582 13.9577 65.2389 13.684 65.1693 13.4886L64.0655 14.2775V10.0489H61.9475V10.7622H63.3496V14.2704C63.3496 14.7101 63.0314 15.0326 62.8524 15.1596C62.9816 15.2964 63.1905 15.6091 63.2501 15.7752Z" fill="black"/>
<path d="M64.861 10.5472C66.1736 9.95115 66.4023 9.14008 66.4023 8.42673V7.34204H69.5645V9.60913C69.5645 9.88275 69.5943 9.98047 69.7435 9.98047H70.4396C70.5688 9.98047 70.7777 9.96092 70.9069 9.93161C70.9169 10.1173 70.9467 10.3909 70.9765 10.557C70.8473 10.6059 70.6484 10.6156 70.4495 10.6156H69.6938C69.0076 10.6156 68.8585 10.3323 68.8585 9.59936V8.02607H67.0984V8.4365C67.0984 9.35506 66.7802 10.4104 65.3483 11.0847C65.2588 10.9381 65.0003 10.6547 64.861 10.5472Z" fill="black"/>
<path fill-rule="evenodd" clip-rule="evenodd" d="M70.012 11.2704L69.8827 11.2997H65.3284V11.9935H65.8202L65.7063 12.0326C66.1117 12.9388 66.6708 13.7175 67.3755 14.3512C66.6316 14.8176 65.7852 15.1446 64.9108 15.3355C65.04 15.5016 65.1991 15.7948 65.2687 15.9805C66.2288 15.7294 67.1462 15.3508 67.9494 14.8121C68.7086 15.3555 69.6042 15.7569 70.6285 16C70.7279 15.8046 70.9268 15.5114 71.0959 15.3551C70.1354 15.1581 69.2802 14.8181 68.5531 14.3575C69.4047 13.6377 70.08 12.6937 70.4694 11.4756L70.012 11.2704ZM67.9637 13.9354C68.6148 13.4168 69.1538 12.7705 69.516 11.9935H66.4137C66.7749 12.7433 67.2996 13.3985 67.9637 13.9354Z" fill="black"/>
<path d="M56.9447 7.06175L56.9457 7.01943H56.1204C56.1188 7.0765 56.1175 7.13878 56.116 7.20496L56.116 7.20631L56.1159 7.20828C56.0789 8.88969 55.98 13.3825 51.9936 15.3647C52.2223 15.521 52.4709 15.7458 52.6002 15.9412C55.0314 14.6595 56.0903 12.4723 56.5588 10.5163C57.0477 12.3422 58.1249 14.7544 60.6249 15.9022C60.7343 15.6969 60.9531 15.4429 61.1719 15.2767C57.6271 13.7255 57.0217 9.58061 56.8815 8.43144C56.926 7.88243 56.9368 7.41088 56.9447 7.06175Z" fill="black"/>
<path fill-rule="evenodd" clip-rule="evenodd" d="M43.6209 13.4788H42.1889V14.1042H51.0191V13.4788H49.617V9.06189H46.8626V8.44625H50.7606V7.81107H46.8626V7H46.1267V7.81107H42.4674V8.44625H46.1267V9.06189H43.6209V13.4788ZM44.3368 13.4788H48.8712V12.7948H44.3368V13.4788ZM44.3368 12.3257H48.8712V11.7394H44.3368V12.3257ZM44.3368 11.2606H48.8712V10.684H44.3368V11.2606ZM44.3368 10.2247H48.8712V9.5798H44.3368V10.2247Z" fill="black"/>
<path d="M77.6787 10.2247H75.153V10.9771H77.6787V15.9706H78.4643V10.9771H81V10.2247H78.4643V7.00972H77.6787V10.2247Z" fill="black"/>
</svg>
