<svg width="131" height="42" viewBox="0 0 131 42" fill="none" xmlns="http://www.w3.org/2000/svg">
<path d="M0.5 0.5H116C124.008 0.5 130.5 6.99187 130.5 15V41.5H15C6.99187 41.5 0.5 35.0081 0.5 27V0.5Z" fill="white" stroke="black"/>
<path d="M17.9605 24.1575C21.4266 26.9643 26.3836 26.9643 29.8497 24.1575L28.5095 22.5026C25.8248 24.6766 21.9854 24.6766 19.3007 22.5026L17.9605 24.1575Z" fill="black"/>
<path d="M19.404 20.5134V17.6365H21.5336V20.5134H19.404Z" fill="black"/>
<path d="M26.012 17.6365V20.5134H28.1415V17.6365H26.012Z" fill="black"/>
<path fill-rule="evenodd" clip-rule="evenodd" d="M35 21.5C35 27.8513 29.8513 33 23.5 33C17.1487 33 12 27.8513 12 21.5C12 15.1487 17.1487 10 23.5 10C29.8513 10 35 15.1487 35 21.5ZM32.8705 21.5C32.8705 26.6752 28.6752 30.8705 23.5 30.8705C18.3248 30.8705 14.1295 26.6752 14.1295 21.5C14.1295 16.3248 18.3248 12.1295 23.5 12.1295C28.6752 12.1295 32.8705 16.3248 32.8705 21.5Z" fill="black"/>
<path fill-rule="evenodd" clip-rule="evenodd" d="M104.32 26.2505C104.32 25.9898 104.336 25.4196 104.336 25.4196H100.424V23.8717H104.573C104.764 26.2238 105.11 28.471 105.651 30.2984C104.776 31.2876 103.759 32.1157 102.612 32.7515C103.107 33.2077 103.953 34.2016 104.288 34.7067C105.138 34.1597 105.93 33.5082 106.658 32.7639C107.338 33.9391 108.193 34.6415 109.254 34.6415C110.898 34.6415 111.649 33.9572 112 30.78C111.377 30.5356 110.563 29.9817 110.036 29.4277C109.956 31.4155 109.765 32.2301 109.445 32.2301C109.06 32.2301 108.67 31.686 108.312 30.7655C109.465 29.1244 110.389 27.1985 111.058 25.0611L108.711 24.4908C108.396 25.6095 107.983 26.659 107.478 27.6243C107.264 26.4884 107.09 25.2105 106.974 23.8717H111.84V21.5418H110.142L110.946 20.6945C110.387 20.1568 109.27 19.4399 108.455 19L107.05 20.4175C107.553 20.7329 108.148 21.1437 108.647 21.5418H106.835C106.811 20.7923 106.808 20.0385 106.827 19.2933H104.384C104.387 20.0364 104.403 20.7892 104.433 21.5418H97.9812V26.4297C97.9812 28.5642 97.9014 31.4481 96.7199 33.3707C97.2468 33.6477 98.3006 34.5275 98.6997 35C99.5135 33.7498 99.9567 32.0088 100.189 30.2753C100.506 30.8638 100.745 31.7506 100.775 32.4257C101.51 32.4257 102.18 32.4094 102.612 32.3279C103.091 32.2301 103.458 32.0672 103.809 31.5947C104.192 31.0733 104.272 29.5743 104.32 26.2505ZM100.197 30.2141C100.316 29.3052 100.378 28.4 100.406 27.5703H102.058C102.023 29.1922 101.963 29.8644 101.829 30.0631C101.701 30.2261 101.558 30.275 101.35 30.275C101.102 30.275 100.674 30.2596 100.197 30.2141Z" fill="black"/>
<path d="M85.8673 22.112C86.1314 21.4187 86.3672 20.705 86.565 19.9939L84.1541 19.4399C83.6112 21.6395 82.5893 23.8717 81.3599 25.2077C81.9507 25.5336 82.9885 26.2342 83.4515 26.6415C83.9297 26.0332 84.4007 25.2744 84.839 24.4257H87.9062V26.9185H83.7709V29.1996H87.9062V32.002H81.8708V34.3157H96.4005V32.002H90.3332V29.1996H94.9156V26.9185H90.3332V24.4257H95.5543V22.112H90.3332V19.277H87.9062V22.112H85.8673Z" fill="black"/>
<path d="M46.3436 28.4645C46.4377 28.0285 46.4856 27.6141 46.4988 27.2444H42.8462V25.11H46.5026V23.4807H42.6866V21.2811H46.5026V19.3585H48.8018V27C48.8018 29.8513 47.9396 33.0611 44.0278 34.9837C43.6446 34.4134 42.9261 33.6802 42.3672 33.224C43.7784 32.6761 44.7414 31.786 45.3804 30.8057C44.6568 30.9237 43.9507 31.0375 43.2921 31.1436L42.4151 31.2851L42 28.9226C43.1273 28.8236 44.7056 28.6496 46.3436 28.4645Z" fill="black"/>
<path fill-rule="evenodd" clip-rule="evenodd" d="M71.6755 34.3304L66.632 19.7975H63.2696L58.1875 34.3304H61.2986L62.2841 31.3429H67.5305L68.4484 34.3304H71.6755ZM64.9218 23.1201L66.6996 28.8386H63.0861L64.9218 23.1201Z" fill="black"/>
<path d="M52.7456 19.3585V21.2811H56.9289V23.4807H52.7456V25.11H56.5457V27.2444H52.7456V28.9063H57.2163V31.1059H52.7456V34.7556H50.4144V19.3585H52.7456Z" fill="black"/>
<path d="M74.2124 22.2695V31.8617H72.4582V34.3337H78.7189V31.8617H77.169V22.2695H78.7189V19.7975H72.4582V22.2695H74.2124Z" fill="black"/>
<path fill-rule="evenodd" clip-rule="evenodd" d="M47.9473 14.2843L47.483 14.7745C48.5993 15.1373 49.7256 15.6078 50.3974 15.9804L51 15.4706C50.2788 15.098 49.0637 14.6373 47.9473 14.2843ZM43.6103 13.5H42.1877V14.1275H50.9605V13.5H49.5675V9.06863H46.831V8.45098H50.7036V7.81373H46.831V7H46.0999V7.81373H42.4643V8.45098H46.0999V9.06863H43.6103V13.5ZM44.3216 13.5H48.8266V12.8137H44.3216V13.5ZM44.3216 12.3431H48.8266V11.7549H44.3216V12.3431ZM44.3216 11.2745H48.8266V10.6961H44.3216V11.2745ZM44.3216 10.2353H48.8266V9.58824H44.3216V10.2353ZM45.7245 14.7157L45.0428 14.2843C44.3809 14.7059 43.0571 15.2059 42 15.4608C42.1581 15.598 42.405 15.8529 42.5137 16C43.5708 15.7255 44.8946 15.2157 45.7245 14.7157ZM56.0466 7H56.8559L56.855 7.04269C56.8471 7.39488 56.8366 7.87056 56.793 8.42438C56.9304 9.5836 57.5241 13.7649 61 15.3297C60.7855 15.4973 60.571 15.7536 60.4637 15.9606C58.0122 14.8027 56.956 12.3694 56.4766 10.5275C56.0172 12.5006 54.9788 14.707 52.5948 16C52.468 15.8028 52.2243 15.5761 52 15.4184C55.9089 13.4188 56.0059 8.88664 56.0423 7.1905V7.19045C56.0437 7.12227 56.0451 7.05867 56.0466 7ZM65.3137 9.98703H62.4118V10.5708H65.3137V9.98703ZM65.3235 11.2616H62.4118V11.8454H65.3235V11.2616ZM65.7353 8.69297H62V9.30595H65.7353V8.69297ZM65.3235 12.5654H63.049H62.7255H62.402V15.8638H63.049V15.4065H65.3125C65.4387 15.571 65.5775 15.8275 65.6471 16C66.523 15.7396 67.359 15.3539 68.0922 14.817C68.7884 15.3435 69.6074 15.7376 70.5392 15.9805C70.6373 15.7762 70.8431 15.4746 71 15.3189C70.1207 15.1245 69.337 14.7895 68.6708 14.3407C69.4468 13.6229 70.0627 12.6941 70.4216 11.5146L69.9608 11.3103L69.8333 11.3395H69.6863H65.6275V12.0303H66.467L66.0392 12.1762C66.4046 13.0123 66.9056 13.7399 67.5323 14.3401C66.8671 14.7977 66.1101 15.1293 65.3235 15.3331V12.5654ZM68.0969 13.901C68.6764 13.3918 69.1548 12.7677 69.4774 12.0303H66.6969C67.02 12.7441 67.4943 13.3771 68.0969 13.901ZM63.049 14.7935H64.6667V13.1784H63.049V14.7935ZM63.6373 7L63.0686 7.29189C63.3333 7.69081 63.6471 8.24541 63.7941 8.60541L64.402 8.25514C64.2451 7.91459 63.9216 7.39892 63.6373 7ZM68.8922 7.39892H67.2549H66.7157H66.5686V8.46919C66.5686 9.16 66.4118 9.95784 65.3529 10.5611C65.4804 10.6681 65.7353 10.9503 65.8235 11.0962C67 10.4054 67.2549 9.36432 67.2549 8.48865V8.08H68.8922V9.64649C68.8922 10.3859 69.0294 10.6584 69.6765 10.6584H70.3235C70.5 10.6584 70.6961 10.6486 70.8039 10.6C70.7745 10.4346 70.7549 10.1622 70.7451 9.9773C70.6275 10.0065 70.4412 10.0259 70.3235 10.0259H69.7255C69.598 10.0259 69.5784 9.92865 69.5784 9.65622V7.39892H69.2549H68.8922ZM75.7534 9.99026H72.454V10.5747H75.7534V9.99026ZM75.7332 11.2662H72.454V11.8506H75.7332V11.2662ZM76.1771 8.69481H72V9.30844H76.1771V8.69481ZM75.7433 12.5714H73.1805H72.8475H72.5247V15.8734H73.1805V15.4156H75.7433V12.5714ZM73.1805 14.8019H75.0774V13.1851H73.1805V14.8019ZM73.796 7L73.2007 7.29221C73.4731 7.69156 73.8061 8.24675 73.9574 8.60714L74.5628 8.25649C74.4013 7.91558 74.0785 7.39935 73.796 7ZM78.1446 10.4188H76.167V11.1396H78.1446V16H78.9215V11.1396H81V10.4188H78.9215V7.22403H78.1446V10.4188Z" fill="black"/>
</svg>
