<svg width="131" height="42" viewBox="0 0 131 42" fill="none" xmlns="http://www.w3.org/2000/svg">
<path d="M0.5 0.5H116C124.008 0.5 130.5 6.99187 130.5 15V41.5H15C6.99187 41.5 0.5 35.0081 0.5 27V0.5Z" fill="white" stroke="black"/>
<path d="M28.8497 24.1575C25.3836 26.9643 20.4266 26.9643 16.9605 24.1575L18.3007 22.5026C20.9854 24.6766 24.8248 24.6766 27.5095 22.5026L28.8497 24.1575Z" fill="black"/>
<path d="M18.404 17.6365V20.5134H20.5336V17.6365H18.404Z" fill="black"/>
<path d="M25.012 17.6365V20.5134H27.1415V17.6365H25.012Z" fill="black"/>
<path fill-rule="evenodd" clip-rule="evenodd" d="M22.5 33C28.8513 33 34 27.8513 34 21.5C34 15.1487 28.8513 10 22.5 10C16.1487 10 11 15.1487 11 21.5C11 27.8513 16.1487 33 22.5 33ZM22.5 30.8705C27.6752 30.8705 31.8705 26.6752 31.8705 21.5C31.8705 16.3248 27.6752 12.1295 22.5 12.1295C17.3248 12.1295 13.1295 16.3248 13.1295 21.5C13.1295 26.6752 17.3248 30.8705 22.5 30.8705Z" fill="black"/>
<path fill-rule="evenodd" clip-rule="evenodd" d="M44.2641 10.1326C43.9933 9.96305 43.6572 9.87827 43.256 9.87827C42.5317 9.87827 41.9738 10.1587 41.5823 10.7196C41.1941 11.2772 41 11.9375 41 12.7006C41 13.5158 41.2137 14.1696 41.6411 14.662C42.0684 15.1511 42.5741 15.3957 43.1581 15.3957C43.5202 15.3957 43.8416 15.3239 44.1221 15.1805C44.4027 15.037 44.6458 14.8038 44.8513 14.481V15.2098H45.6441V8H44.7975V10.6462C44.5984 10.4016 44.4206 10.2304 44.2641 10.1326ZM42.287 14.0604C42.0489 13.6821 41.9298 13.2125 41.9298 12.6517C41.9298 11.993 42.0668 11.494 42.3409 11.1549C42.6182 10.8158 42.9787 10.6462 43.4223 10.6462C43.8204 10.6462 44.1548 10.806 44.4255 11.1256C44.6963 11.4419 44.8317 11.931 44.8317 12.593C44.8317 13.2484 44.6996 13.7522 44.4353 14.1044C44.1743 14.4533 43.8399 14.6277 43.4321 14.6277C42.9069 14.6277 42.5252 14.4386 42.287 14.0604Z" fill="black"/>
<path d="M95.4898 10.1228C95.3234 10.2304 95.1358 10.4163 94.927 10.6804V8H94.0462V15.2098H94.927V12.4315C94.927 11.7337 95.0755 11.2593 95.3724 11.0082C95.6692 10.7571 96.0004 10.6315 96.3658 10.6315C96.8062 10.6315 97.1063 10.775 97.2662 11.062C97.3641 11.2413 97.413 11.5234 97.413 11.9082V15.2098H98.3183V11.8495C98.3183 11.3343 98.2449 10.9315 98.0981 10.6413C97.8273 10.1098 97.3119 9.84403 96.5517 9.84403C96.1276 9.84403 95.7736 9.93696 95.4898 10.1228Z" fill="black"/>
<path fill-rule="evenodd" clip-rule="evenodd" d="M115.715 11.781C115.646 11.9245 115.511 12.0093 115.309 12.0354L113.904 12.2115C113.412 12.2734 113.014 12.4381 112.71 12.7055C112.407 12.9729 112.255 13.3495 112.255 13.8354C112.255 14.2789 112.408 14.649 112.715 14.9457C113.025 15.2392 113.423 15.3859 113.909 15.3859C114.314 15.3859 114.684 15.2995 115.02 15.1267C115.356 14.9539 115.614 14.7501 115.793 14.5153C115.823 14.724 115.873 14.8854 115.945 14.9995C116.082 15.2147 116.302 15.3224 116.606 15.3224C116.73 15.3224 116.827 15.3175 116.899 15.3077C116.971 15.2979 117.075 15.2734 117.212 15.2343V14.5838C117.157 14.5935 117.105 14.6017 117.056 14.6082C117.007 14.6115 116.963 14.6131 116.924 14.6131C116.803 14.6131 116.723 14.5854 116.684 14.53C116.648 14.4745 116.63 14.4012 116.63 14.3098V11.2919C116.63 10.7962 116.439 10.431 116.058 10.1962C115.673 9.96146 115.172 9.84407 114.555 9.84407C114.023 9.84407 113.555 9.97124 113.151 10.2256C112.749 10.4767 112.541 10.9251 112.524 11.5707H113.346C113.379 11.3001 113.449 11.0962 113.557 10.9593C113.749 10.7115 114.076 10.5875 114.536 10.5875C114.934 10.5875 115.239 10.656 115.451 10.793C115.666 10.9267 115.774 11.1435 115.774 11.4435C115.774 11.5903 115.754 11.7028 115.715 11.781ZM113.454 14.4175C113.268 14.2707 113.175 14.0702 113.175 13.8158C113.175 13.48 113.311 13.2354 113.581 13.0821C113.741 12.9908 113.981 12.924 114.301 12.8816L114.834 12.8131C114.997 12.7935 115.164 12.7609 115.333 12.7153C115.503 12.6696 115.642 12.6126 115.749 12.5441V13.2533C115.749 13.7946 115.505 14.1843 115.015 14.4223C114.725 14.5658 114.425 14.6376 114.115 14.6376C113.86 14.6376 113.64 14.5642 113.454 14.4175Z" fill="black"/>
<path d="M119.353 10.0543C119.075 10.188 118.813 10.4081 118.565 10.7147V9.97118H117.728V15.2098H118.609V12.4658C118.609 12.1234 118.63 11.8609 118.672 11.6783C118.718 11.4924 118.814 11.313 118.961 11.1402C119.144 10.925 119.356 10.7815 119.597 10.7098C119.731 10.6674 119.902 10.6462 120.111 10.6462C120.522 10.6462 120.806 10.8092 120.963 11.1353C121.057 11.331 121.104 11.5886 121.104 11.9081V15.2098H122V11.8494C122 11.3212 121.928 10.9152 121.785 10.6315C121.524 10.113 121.021 9.85379 120.277 9.85379C119.938 9.85379 119.63 9.92063 119.353 10.0543Z" fill="black"/>
<path fill-rule="evenodd" clip-rule="evenodd" d="M103.964 32.1501L99.4047 19.2823H96.3653L91.7712 32.1501H94.5836L95.4744 29.505H100.217L101.047 32.1501H103.964ZM97.8588 22.2243L99.4659 27.2876H96.1994L97.8588 22.2243Z" fill="black"/>
<path fill-rule="evenodd" clip-rule="evenodd" d="M76.1397 22.4251C77.3915 22.4251 78.3697 22.8761 79.0743 23.7782C79.7846 24.6803 80.1398 25.8443 80.1398 27.2702C80.1398 28.7484 79.7905 29.9735 79.0917 30.9454C78.393 31.9173 77.4177 32.4033 76.1659 32.4033C75.3798 32.4033 74.7481 32.2462 74.2706 31.9319C73.9853 31.7457 73.6767 31.4197 73.3448 30.9541V32.1501H70.908V19.2998H73.3885V23.8742C73.7029 23.4319 74.0493 23.0944 74.4278 22.8616C74.8762 22.5706 75.4468 22.4251 76.1397 22.4251ZM75.5021 30.3518C76.1426 30.3518 76.6404 30.0928 76.9956 29.5748C77.3508 29.0569 77.5284 28.3759 77.5284 27.532C77.5284 26.8569 77.441 26.2982 77.2663 25.8559C76.9345 25.0179 76.3231 24.5988 75.4322 24.5988C74.5297 24.5988 73.9096 25.0091 73.5719 25.8297C73.3972 26.2662 73.3099 26.8308 73.3099 27.5233C73.3099 28.3381 73.4904 29.0132 73.8514 29.5486C74.2124 30.0841 74.7626 30.3518 75.5021 30.3518Z" fill="black"/>
<path d="M62.9356 31.67C62.6561 31.3848 62.5164 30.9454 62.5164 30.3518V24.4941H61.1888V22.7219H62.5164V20.068H64.9794V22.7219H66.5253V24.4941H64.9794V29.5225C64.9794 29.9124 65.0289 30.1568 65.1278 30.2558C65.2268 30.3489 65.5296 30.3954 66.0362 30.3954H66.272C66.3593 30.3896 66.4438 30.3838 66.5253 30.378V32.2374L65.3462 32.2811C64.17 32.3218 63.3665 32.1181 62.9356 31.67Z" fill="black"/>
<path fill-rule="evenodd" clip-rule="evenodd" d="M61.0921 27.4098C61.0921 28.8066 60.6903 30.0026 59.8868 30.9978C59.0832 31.9872 57.8634 32.4819 56.2272 32.4819C54.5911 32.4819 53.3712 31.9872 52.5677 30.9978C51.7642 30.0026 51.3624 28.8066 51.3624 27.4098C51.3624 26.0363 51.7642 24.8462 52.5677 23.8393C53.3712 22.8325 54.5911 22.3291 56.2272 22.3291C57.8634 22.3291 59.0832 22.8325 59.8868 23.8393C60.6903 24.8462 61.0921 26.0363 61.0921 27.4098ZM56.2185 30.3954C56.9463 30.3954 57.5053 30.1365 57.8954 29.6185C58.2855 29.1005 58.4806 28.3643 58.4806 27.4098C58.4806 26.4554 58.2855 25.7221 57.8954 25.2099C57.5053 24.6919 56.9463 24.433 56.2185 24.433C55.4907 24.433 54.9288 24.6919 54.5329 25.2099C54.1427 25.7221 53.9477 26.4554 53.9477 27.4098C53.9477 28.3643 54.1427 29.1005 54.5329 29.6185C54.9288 30.1365 55.4907 30.3954 56.2185 30.3954Z" fill="black"/>
<path d="M49.4141 23.1846C48.791 22.6666 47.9875 22.4076 47.0035 22.4076C46.2174 22.4076 45.5682 22.5997 45.0558 22.9838C44.7705 23.1991 44.4677 23.5512 44.1475 24.0401V22.6521H41.7456V32.1501H44.2261V26.9995C44.2261 26.4117 44.3076 25.9287 44.4706 25.5504C44.785 24.8345 45.3644 24.4766 46.2087 24.4766C46.8958 24.4766 47.3616 24.721 47.6061 25.2099C47.74 25.4776 47.807 25.8617 47.807 26.3622V32.1501H50.3573V25.7424C50.3573 24.5494 50.0429 23.6967 49.4141 23.1846Z" fill="black"/>
<path d="M81.9135 33.9921L81.5991 33.9747V35.9651C81.8669 35.9825 82.0678 35.9913 82.2017 35.9913C82.3357 35.9971 82.5132 36 82.7345 36C83.835 36 84.5686 35.7818 84.9355 35.3453C85.3023 34.9146 85.8001 33.7972 86.429 31.993L89.6955 22.6346H87.0491L85.0839 29.6534L83.0053 22.6346H80.2366L83.7302 32.5692C83.7535 32.639 83.7011 32.8311 83.573 33.1453C83.4507 33.4596 83.3168 33.6662 83.1712 33.7652C83.0198 33.8699 82.8335 33.9368 82.6122 33.9659C82.391 33.995 82.1581 34.0038 81.9135 33.9921Z" fill="black"/>
<path d="M105.941 10.1522C105.771 10.2695 105.582 10.457 105.373 10.7147V9.97118H104.502V15.2098H105.383V12.4315C105.383 11.7565 105.518 11.2902 105.789 11.0326C106.063 10.775 106.367 10.6462 106.699 10.6462C107.065 10.6462 107.314 10.7685 107.448 11.013C107.533 11.1761 107.575 11.4353 107.575 11.7908V15.2098H108.471V12.1625C108.471 11.6212 108.595 11.2348 108.843 11.0032C109.094 10.7717 109.392 10.656 109.738 10.656C109.989 10.656 110.201 10.7212 110.374 10.8516C110.551 10.9821 110.639 11.2217 110.639 11.5706V15.2098H111.554V11.7223C111.554 11.2592 111.485 10.8907 111.348 10.6168C111.094 10.1081 110.614 9.85379 109.91 9.85379C109.58 9.85379 109.283 9.92226 109.019 10.0592C108.755 10.1929 108.525 10.4 108.329 10.6804C108.211 10.4522 108.081 10.2793 107.937 10.1619C107.683 9.9565 107.347 9.85379 106.929 9.85379C106.561 9.85379 106.231 9.95324 105.941 10.1522Z" fill="black"/>
<path d="M100.282 14.1043C100.197 13.9347 100.155 13.7163 100.155 13.4489V9.97114H99.2545V13.532C99.2545 13.9788 99.3279 14.3358 99.4748 14.6032C99.7455 15.1021 100.254 15.3516 101.002 15.3516C101.481 15.3516 101.889 15.2146 102.225 14.9407C102.395 14.8038 102.537 14.6358 102.651 14.4369L102.641 15.2097H103.473V9.97114H102.592V12.544C102.592 13.0559 102.532 13.4587 102.411 13.7521C102.189 14.3 101.772 14.5739 101.158 14.5739C100.731 14.5739 100.439 14.4174 100.282 14.1043Z" fill="black"/>
<path d="M88.8068 14.2364L90.2211 9.97114H91.1949C91.0709 10.307 90.7953 11.0733 90.3679 12.2701C90.0482 13.1701 89.7806 13.9038 89.5653 14.4712C89.0564 15.8081 88.6975 16.6233 88.4887 16.9168C88.2799 17.2103 87.9211 17.357 87.4121 17.357C87.2882 17.357 87.1919 17.3521 87.1234 17.3424C87.0582 17.3326 86.9766 17.3146 86.8787 17.2886V16.4864C87.0321 16.5288 87.143 16.5549 87.2115 16.5646C87.28 16.5744 87.3404 16.5793 87.3926 16.5793C87.5557 16.5793 87.6748 16.5516 87.7498 16.4962C87.8281 16.444 87.8933 16.3788 87.9455 16.3005C87.9618 16.2744 88.0206 16.1407 88.1217 15.8994C88.2228 15.6581 88.2962 15.4788 88.3419 15.3614L86.404 9.97114H87.4023L88.8068 14.2364Z" fill="black"/>
<path fill-rule="evenodd" clip-rule="evenodd" d="M82.9868 15.0875C82.8237 14.9734 82.6491 14.7908 82.4632 14.5397V15.2098H81.6508V8H82.5072V10.6071C82.6997 10.356 82.9297 10.1652 83.1972 10.0348C83.4647 9.9011 83.7551 9.83425 84.0683 9.83425C84.7208 9.83425 85.2493 10.0592 85.6538 10.5093C86.0616 10.956 86.2655 11.6163 86.2655 12.4902C86.2655 13.3185 86.0649 14.0065 85.6636 14.5544C85.2623 15.1022 84.7061 15.3761 83.9949 15.3761C83.5969 15.3761 83.2608 15.2799 82.9868 15.0875ZM83.9411 14.5984C84.4174 14.5984 84.773 14.4093 85.0079 14.031C85.246 13.6527 85.3651 13.1538 85.3651 12.5343C85.3651 11.9832 85.246 11.5266 85.0079 11.1647C84.773 10.8027 84.4255 10.6218 83.9655 10.6218C83.5642 10.6218 83.2119 10.7701 82.9085 11.0669C82.6084 11.3636 82.4583 11.8527 82.4583 12.5343C82.4583 13.0267 82.5203 13.4261 82.6442 13.7326C82.8759 14.3098 83.3081 14.5984 83.9411 14.5984Z" fill="black"/>
<path fill-rule="evenodd" clip-rule="evenodd" d="M75.9367 9.87827C76.338 9.87827 76.6741 9.96305 76.9448 10.1326C77.1014 10.2304 77.2792 10.4016 77.4782 10.6462V8H78.3248V15.2098H77.5321V14.481C77.3265 14.8038 77.0835 15.037 76.8029 15.1805C76.5223 15.3239 76.201 15.3957 75.8389 15.3957C75.2549 15.3957 74.7492 15.1511 74.3218 14.662C73.8945 14.1696 73.6808 13.5158 73.6808 12.7006C73.6808 11.9375 73.8749 11.2772 74.2631 10.7196C74.6546 10.1587 75.2125 9.87827 75.9367 9.87827ZM74.6106 12.6517C74.6106 13.2125 74.7296 13.6821 74.9678 14.0604C75.206 14.4386 75.5877 14.6277 76.1129 14.6277C76.5207 14.6277 76.8551 14.4533 77.1161 14.1044C77.3804 13.7522 77.5125 13.2484 77.5125 12.593C77.5125 11.931 77.3771 11.4419 77.1063 11.1256C76.8355 10.806 76.5011 10.6462 76.1031 10.6462C75.6594 10.6462 75.2989 10.8158 75.0216 11.1549C74.7476 11.494 74.6106 11.993 74.6106 12.6517Z" fill="black"/>
<path fill-rule="evenodd" clip-rule="evenodd" d="M71.0073 9.85379C71.3792 9.85379 71.7397 9.94183 72.0888 10.1179C72.4379 10.2907 72.7038 10.5157 72.8865 10.7929C73.0626 11.0571 73.1801 11.3652 73.2388 11.7174C73.291 11.9587 73.3171 12.3435 73.3171 12.8717H69.4756C69.4919 13.4033 69.6175 13.8304 69.8524 14.1533C70.0873 14.4728 70.4511 14.6326 70.9437 14.6326C71.4037 14.6326 71.7707 14.481 72.0448 14.1777C72.2013 14.0016 72.3123 13.7978 72.3775 13.5663H73.2437C73.2209 13.7587 73.1442 13.9739 73.0137 14.212C72.8865 14.4467 72.7429 14.6391 72.583 14.7891C72.3155 15.05 71.9844 15.2261 71.5896 15.3174C71.3776 15.3696 71.1378 15.3957 70.8703 15.3957C70.2178 15.3957 69.6648 15.1592 69.2113 14.6864C68.7579 14.2103 68.5311 13.5451 68.5311 12.6908C68.5311 11.8494 68.7595 11.1663 69.2162 10.6413C69.673 10.1163 70.27 9.85379 71.0073 9.85379ZM72.4118 12.1723C72.3759 11.7908 72.2927 11.4859 72.1622 11.2576C71.9208 10.8337 71.5179 10.6217 70.9535 10.6217C70.5489 10.6217 70.2096 10.7685 69.9356 11.0619C69.6616 11.3522 69.5164 11.7223 69.5001 12.1723H72.4118Z" fill="black"/>
<path d="M64.5413 11.6783C64.4989 11.8609 64.4777 12.1234 64.4777 12.4658V15.2098H63.5968V9.97118H64.4336V10.7147C64.6816 10.4081 64.9442 10.188 65.2215 10.0543C65.4988 9.92063 65.8071 9.85379 66.1464 9.85379C66.8902 9.85379 67.3927 10.113 67.6536 10.6315C67.7972 10.9152 67.869 11.3212 67.869 11.8494V15.2098H66.9734V11.9081C66.9734 11.5886 66.9261 11.331 66.8315 11.1353C66.6749 10.8092 66.3911 10.6462 65.98 10.6462C65.7712 10.6462 65.6 10.6674 65.4662 10.7098C65.2248 10.7815 65.0127 10.925 64.83 11.1402C64.6832 11.313 64.587 11.4924 64.5413 11.6783Z" fill="black"/>
<path fill-rule="evenodd" clip-rule="evenodd" d="M60.2187 9.87833C60.6297 9.87833 60.9886 9.97941 61.2953 10.1816C61.4616 10.2957 61.6313 10.462 61.8042 10.6805V10.0202H62.6165V14.7843C62.6165 15.4495 62.5187 15.9745 62.3229 16.3593C61.9575 17.0702 61.2675 17.4256 60.2529 17.4256C59.6885 17.4256 59.2138 17.2985 58.8289 17.0441C58.4439 16.793 58.2286 16.3985 58.1829 15.8604H59.0785C59.1209 16.0952 59.2057 16.2762 59.3329 16.4034C59.5319 16.599 59.8451 16.6968 60.2725 16.6968C60.9478 16.6968 61.3899 16.4588 61.5987 15.9827C61.7226 15.7023 61.7797 15.2017 61.7699 14.4811C61.5938 14.7485 61.3817 14.9474 61.1338 15.0778C60.8858 15.2082 60.558 15.2735 60.1502 15.2735C59.5825 15.2735 59.085 15.0729 58.6576 14.6718C58.2335 14.2675 58.0214 13.6006 58.0214 12.6713C58.0214 11.7941 58.2351 11.1093 58.6625 10.6169C59.0931 10.1245 59.6119 9.87833 60.2187 9.87833ZM61.8042 12.5686C61.8042 11.9196 61.6704 11.4387 61.4029 11.1256C61.1354 10.8126 60.7945 10.656 60.3802 10.656C59.7603 10.656 59.3362 10.9463 59.1078 11.5267C58.9871 11.8365 58.9267 12.2425 58.9267 12.7446C58.9267 13.3349 59.0458 13.7849 59.284 14.0946C59.5254 14.4012 59.8484 14.5544 60.2529 14.5544C60.8858 14.5544 61.3312 14.2691 61.5889 13.6985C61.7324 13.3756 61.8042 12.999 61.8042 12.5686Z" fill="black"/>
<path d="M52.5716 14.2414C52.4509 14.0849 52.3775 13.8599 52.3514 13.5664H51.5048C51.5277 14.0882 51.7006 14.5268 52.0236 14.8822C52.3498 15.2344 52.9028 15.4105 53.6825 15.4105C54.4068 15.4105 54.9451 15.2409 55.2974 14.9018C55.653 14.5626 55.8308 14.1599 55.8308 13.6936C55.8308 13.211 55.6595 12.8572 55.317 12.6322C55.1017 12.4887 54.6775 12.3403 54.0446 12.1871L53.4623 12.0452C53.2078 11.9833 53.0153 11.9115 52.8848 11.83C52.6597 11.6931 52.5472 11.5104 52.5472 11.2822C52.5472 11.0735 52.632 10.9056 52.8016 10.7784C52.9746 10.6512 53.2274 10.5876 53.5602 10.5876C54.0593 10.5876 54.41 10.7034 54.6123 10.9349C54.7363 11.0979 54.8064 11.2789 54.8227 11.4778H55.6546C55.6612 11.1387 55.5551 10.8224 55.3365 10.5289C54.9875 10.0659 54.4182 9.83435 53.6287 9.83435C53.0251 9.83435 52.5439 9.98761 52.1851 10.2941C51.8294 10.6007 51.6516 11.0017 51.6516 11.4974C51.6516 11.9181 51.8409 12.2474 52.2193 12.4854C52.4314 12.6224 52.7609 12.7463 53.2078 12.8572L53.9076 13.0333C54.2828 13.1278 54.534 13.211 54.6612 13.2827C54.8602 13.4001 54.9597 13.5713 54.9597 13.7963C54.9597 14.0931 54.8358 14.3132 54.5878 14.4567C54.3399 14.5969 54.0528 14.667 53.7265 14.667C53.1785 14.667 52.7935 14.5251 52.5716 14.2414Z" fill="black"/>
<path fill-rule="evenodd" clip-rule="evenodd" d="M49.8639 10.1179C49.5148 9.94183 49.1543 9.85379 48.7824 9.85379C48.0451 9.85379 47.448 10.1163 46.9913 10.6413C46.5346 11.1663 46.3062 11.8494 46.3062 12.6908C46.3062 13.5451 46.5329 14.2103 46.9864 14.6864C47.4399 15.1592 47.9929 15.3957 48.6454 15.3957C48.9129 15.3957 49.1527 15.3696 49.3647 15.3174C49.7595 15.2261 50.0906 15.05 50.3581 14.7891C50.518 14.6391 50.6615 14.4467 50.7888 14.212C50.9193 13.9739 50.9959 13.7587 51.0188 13.5663H50.1526C50.0873 13.7978 49.9764 14.0016 49.8198 14.1777C49.5458 14.481 49.1788 14.6326 48.7188 14.6326C48.2261 14.6326 47.8624 14.4728 47.6275 14.1533C47.3926 13.8304 47.267 13.4033 47.2507 12.8717H51.0922C51.0922 12.3435 51.0661 11.9587 51.0139 11.7174C50.9551 11.3652 50.8377 11.0571 50.6615 10.7929C50.4788 10.5157 50.2129 10.2907 49.8639 10.1179ZM49.9373 11.2576C50.0678 11.4859 50.151 11.7908 50.1868 12.1723H47.2751C47.2914 11.7223 47.4366 11.3522 47.7107 11.0619C47.9847 10.7685 48.324 10.6217 48.7285 10.6217C49.2929 10.6217 49.6959 10.8337 49.9373 11.2576Z" fill="black"/>
<path d="M106.257 21.4711V29.9643H104.671V32.1531H110.331V29.9643H108.93V21.4711H110.331V19.2823H104.671V21.4711H106.257Z" fill="black"/>
<path d="M56.4881 9.99574H57.3836V15.2099H56.4881V9.99574Z" fill="black"/>
<path d="M57.3836 8.02454H56.4881V9.02237H57.3836V8.02454Z" fill="black"/>
</svg>
