<svg width="131" height="42" viewBox="0 0 131 42" fill="none" xmlns="http://www.w3.org/2000/svg">
<path d="M0.5 0.5H116C124.008 0.5 130.5 6.99187 130.5 15V41.5H15C6.99187 41.5 0.5 35.0081 0.5 27V0.5Z" fill="black" stroke="#ACACAC"/>
<path fill-rule="evenodd" clip-rule="evenodd" d="M104.32 26.2505C104.32 25.9898 104.336 25.4196 104.336 25.4196H100.424V23.8717H104.573C104.764 26.2238 105.11 28.471 105.651 30.2984C104.776 31.2876 103.759 32.1157 102.612 32.7515C103.107 33.2077 103.953 34.2016 104.288 34.7067C105.138 34.1597 105.93 33.5082 106.658 32.7639C107.338 33.9391 108.193 34.6415 109.254 34.6415C110.898 34.6415 111.649 33.9572 112 30.78C111.377 30.5356 110.563 29.9817 110.036 29.4277C109.956 31.4155 109.765 32.2301 109.445 32.2301C109.06 32.2301 108.67 31.686 108.312 30.7655C109.465 29.1244 110.389 27.1985 111.058 25.0611L108.711 24.4908C108.396 25.6095 107.983 26.659 107.478 27.6243C107.264 26.4884 107.09 25.2105 106.974 23.8717H111.84V21.5418H110.142L110.946 20.6945C110.387 20.1568 109.27 19.4399 108.455 19L107.05 20.4175C107.553 20.7329 108.148 21.1437 108.647 21.5418H106.835C106.811 20.7923 106.808 20.0385 106.827 19.2933H104.384C104.387 20.0364 104.403 20.7892 104.433 21.5418H97.9812V26.4297C97.9812 28.5642 97.9014 31.4481 96.7199 33.3707C97.2468 33.6477 98.3006 34.5275 98.6997 35C99.5135 33.7498 99.9567 32.0088 100.189 30.2753C100.506 30.8638 100.745 31.7506 100.775 32.4257C101.51 32.4257 102.18 32.4094 102.612 32.3279C103.091 32.2301 103.458 32.0672 103.809 31.5947C104.192 31.0733 104.272 29.5743 104.32 26.2505ZM100.197 30.2141C100.316 29.3052 100.378 28.4 100.406 27.5703H102.058C102.023 29.1922 101.963 29.8644 101.829 30.0631C101.701 30.2261 101.558 30.275 101.35 30.275C101.102 30.275 100.674 30.2596 100.197 30.2141Z" fill="white"/>
<path d="M85.8673 22.112C86.1314 21.4187 86.3672 20.705 86.565 19.9939L84.1541 19.4399C83.6112 21.6395 82.5893 23.8717 81.3599 25.2077C81.9507 25.5336 82.9885 26.2342 83.4515 26.6415C83.9297 26.0332 84.4007 25.2744 84.839 24.4257H87.9062V26.9185H83.7709V29.1996H87.9062V32.002H81.8708V34.3157H96.4005V32.002H90.3332V29.1996H94.9156V26.9185H90.3332V24.4257H95.5543V22.112H90.3332V19.277H87.9062V22.112H85.8673Z" fill="white"/>
<path d="M46.3436 28.4645C46.4377 28.0285 46.4856 27.6141 46.4988 27.2444H42.8462V25.11H46.5026V23.4807H42.6866V21.2811H46.5026V19.3585H48.8018V27C48.8018 29.8513 47.9396 33.0611 44.0278 34.9837C43.6446 34.4134 42.9261 33.6802 42.3672 33.224C43.7784 32.6761 44.7414 31.786 45.3804 30.8057C44.6568 30.9237 43.9507 31.0375 43.2921 31.1436L42.4151 31.2851L42 28.9226C43.1273 28.8236 44.7056 28.6496 46.3436 28.4645Z" fill="white"/>
<path fill-rule="evenodd" clip-rule="evenodd" d="M71.6755 34.3304L66.632 19.7975H63.2696L58.1875 34.3304H61.2986L62.2841 31.3429H67.5305L68.4484 34.3304H71.6755ZM64.9218 23.1201L66.6996 28.8386H63.0861L64.9218 23.1201Z" fill="white"/>
<path d="M52.7456 19.3585V21.2811H56.9289V23.4807H52.7456V25.11H56.5457V27.2444H52.7456V28.9063H57.2163V31.1059H52.7456V34.7556H50.4144V19.3585H52.7456Z" fill="white"/>
<path d="M74.2124 22.2695V31.8617H72.4582V34.3337H78.7189V31.8617H77.169V22.2695H78.7189V19.7975H72.4582V22.2695H74.2124Z" fill="white"/>
<path d="M17.9605 24.1575C21.4266 26.9643 26.3836 26.9643 29.8497 24.1575L28.5095 22.5026C25.8248 24.6766 21.9854 24.6766 19.3007 22.5026L17.9605 24.1575Z" fill="white"/>
<path d="M19.404 20.5134V17.6365H21.5336V20.5134H19.404Z" fill="white"/>
<path d="M26.012 17.6365V20.5134H28.1415V17.6365H26.012Z" fill="white"/>
<path fill-rule="evenodd" clip-rule="evenodd" d="M35 21.5C35 27.8513 29.8513 33 23.5 33C17.1487 33 12 27.8513 12 21.5C12 15.1487 17.1487 10 23.5 10C29.8513 10 35 15.1487 35 21.5ZM32.8705 21.5C32.8705 26.6752 28.6752 30.8705 23.5 30.8705C18.3248 30.8705 14.1295 26.6752 14.1295 21.5C14.1295 16.3248 18.3248 12.1295 23.5 12.1295C28.6752 12.1295 32.8705 16.3248 32.8705 21.5Z" fill="white"/>
<path fill-rule="evenodd" clip-rule="evenodd" d="M67.6671 7.2041C67.8182 7.47681 67.9795 7.81996 68.0917 8.11771H65.7581V10.217C65.7581 11.7138 65.6682 13.8715 64.7486 15.4265C64.9085 15.5043 65.2084 15.7181 65.3283 15.8445C66.2533 14.261 66.4352 11.982 66.4471 10.392H70.8156V8.11771H68.8984C68.7876 7.79015 68.5772 7.33807 68.3668 7L67.6671 7.2041ZM66.4478 8.73001H70.1159V9.77969H66.4478V8.73001Z" fill="white"/>
<path d="M62.07 12.8121C62.1499 12.987 62.2599 13.3175 62.2899 13.4535C62.4798 13.3466 62.7896 13.2494 64.9985 12.744C64.9785 12.5982 64.9485 12.3358 64.9485 12.1414L63.2886 12.482C63.9958 11.5915 64.6857 10.5043 65.2584 9.4298L64.6387 9.08962C64.4692 9.46314 64.2702 9.84208 64.0652 10.2017L62.9534 10.3135C63.5122 9.46429 64.0685 8.36503 64.4788 7.30129L63.7691 7.05831C63.4093 8.24406 62.7396 9.51727 62.5297 9.838C62.3298 10.1782 62.1599 10.4114 61.99 10.4503C62.07 10.635 62.1899 10.9751 62.2299 11.1209C62.3689 11.0534 62.5909 10.9931 63.677 10.8509C63.2884 11.4726 62.9315 11.9668 62.7696 12.1609C62.4798 12.5205 62.2699 12.7732 62.07 12.8121Z" fill="white"/>
<path d="M63.9902 13.9974C63.238 14.2758 62.5364 14.5353 62.02 14.7073L62.1999 15.3682C62.4455 15.2709 62.7131 15.1656 62.9949 15.0547L62.9964 15.0541L63.0018 15.052C63.6475 14.7979 64.3677 14.5144 65.0685 14.2311L64.9385 13.6479C64.6204 13.7643 64.3006 13.8826 63.9902 13.9974Z" fill="white"/>
<path fill-rule="evenodd" clip-rule="evenodd" d="M69.926 15.9319C69.896 15.7764 69.8261 15.5334 69.7461 15.3877H70.2259C70.2958 15.3877 70.3158 15.3682 70.3158 15.2905V13.8423H69.5762V15.6792H69.0664V13.8423H68.3568V15.6889H67.8471V13.8423H67.0275V15.9222H66.4278V11.2181H70.9155V15.3002C70.9155 15.5626 70.8755 15.7278 70.6956 15.825C70.5157 15.9222 70.2758 15.9319 69.926 15.9319ZM67.0275 11.8207H67.8471V13.2592H67.0275V11.8207ZM69.5762 11.8207H70.3158V13.2592H69.5762V11.8207ZM68.3568 13.2592H69.0664V11.8207H68.3568V13.2592Z" fill="white"/>
<path d="M80.1604 7.66094C80.0811 8.67271 79.9239 10.1232 79.7645 11.3251H81C81 11.3251 80.99 11.5486 80.98 11.6555C80.7501 14.2797 80.5302 15.2905 80.1704 15.6501C79.9805 15.8542 79.7806 15.932 79.4808 15.9417C79.2309 15.9611 78.7711 15.9611 78.2814 15.9417C78.2714 15.7376 78.1914 15.4557 78.0815 15.2613C78.5612 15.3197 79.001 15.3197 79.1909 15.3197C79.3608 15.3197 79.4708 15.3002 79.5607 15.203C79.8302 14.9591 80.0478 14.0852 80.2377 11.9568H76.1824C76.3124 11.1696 76.4523 9.8672 76.5223 8.91472L77.2219 8.95359C77.1614 9.68948 77.0665 10.5981 76.9762 11.3251H79.0482C79.1782 10.3451 79.3104 9.15822 79.3904 8.30241H76.0425V7.63178H79.5207L79.6407 7.60263L80.1604 7.66094Z" fill="white"/>
<path fill-rule="evenodd" clip-rule="evenodd" d="M71.8946 12.0346C72.6086 11.1148 73.0645 9.74332 73.3422 8.25381H72.1145V7.58319H75.5528V8.25381H74.0625C73.8968 9.06038 73.6875 9.8499 73.4245 10.5767H75.2629V14.7754H73.4238V15.5626H72.7642V12.0402C72.6043 12.3227 72.4314 12.5847 72.2444 12.8218C72.1945 12.6469 72.0245 12.229 71.8946 12.0346ZM74.6032 11.2279H73.4238V14.1242H74.6032V11.2279Z" fill="white"/>
<path d="M56.1882 7.28164C56.1897 7.21582 56.1911 7.15388 56.1926 7.09712H57.0222L57.0212 7.13921C57.0132 7.48645 57.0024 7.95545 56.9577 8.5015C57.0986 9.64446 57.7071 13.767 61.27 15.3098C61.0502 15.4751 60.8303 15.7278 60.7203 15.9319C58.2074 14.7903 57.1248 12.3912 56.6334 10.575C56.1624 12.5205 55.0981 14.6959 52.6544 15.9707C52.5245 15.7764 52.2746 15.5528 52.0447 15.3973C56.0515 13.4258 56.1509 8.95727 56.1882 7.28494L56.1882 7.28387L56.1882 7.28164Z" fill="white"/>
<path d="M47.5472 14.7851L48.017 14.2991C49.1464 14.649 50.3758 15.1058 51.1054 15.4752L50.4957 15.9806C49.8161 15.6112 48.6766 15.1447 47.5472 14.7851Z" fill="white"/>
<path d="M45.0784 14.2991L45.7681 14.7268C44.9285 15.2225 43.5892 15.7279 42.5197 16C42.4098 15.8542 42.1599 15.6015 42 15.4654C43.0695 15.2127 44.4088 14.7171 45.0784 14.2991Z" fill="white"/>
<path d="M79.5307 13.2398H75.7027V13.8909H79.5307V13.2398Z" fill="white"/>
<path fill-rule="evenodd" clip-rule="evenodd" d="M43.6292 13.5216H42.1899V14.1436H51.0654V13.5216H49.6561V9.12854H46.8875V8.51623H50.8056V7.88448H46.8875V7.07779H46.1479V7.88448H42.4698V8.51623H46.1479V9.12854H43.6292V13.5216ZM44.3488 13.5216V12.8413H48.9065V13.5216H44.3488ZM48.9065 12.3747V11.7916H44.3488V12.3747H48.9065ZM44.3488 11.3154H48.9065V10.7419H44.3488V11.3154ZM44.3488 10.2851H48.9065V9.64365H44.3488V10.2851Z" fill="white"/>
</svg>
