<svg width="131" height="42" viewBox="0 0 131 42" fill="none" xmlns="http://www.w3.org/2000/svg">
<path d="M0.5 0.5H116C124.008 0.5 130.5 6.99187 130.5 15V41.5H15C6.99187 41.5 0.5 35.0081 0.5 27V0.5Z" fill="white" stroke="black"/>
<path d="M17.9605 24.1575C21.4266 26.9643 26.3836 26.9643 29.8497 24.1575L28.5095 22.5026C25.8248 24.6766 21.9854 24.6766 19.3007 22.5026L17.9605 24.1575Z" fill="black"/>
<path d="M19.404 20.5134V17.6365H21.5336V20.5134H19.404Z" fill="black"/>
<path d="M26.012 17.6365V20.5134H28.1415V17.6365H26.012Z" fill="black"/>
<path fill-rule="evenodd" clip-rule="evenodd" d="M35 21.5C35 27.8513 29.8513 33 23.5 33C17.1487 33 12 27.8513 12 21.5C12 15.1487 17.1487 10 23.5 10C29.8513 10 35 15.1487 35 21.5ZM32.8705 21.5C32.8705 26.6752 28.6752 30.8705 23.5 30.8705C18.3248 30.8705 14.1295 26.6752 14.1295 21.5C14.1295 16.3248 18.3248 12.1295 23.5 12.1295C28.6752 12.1295 32.8705 16.3248 32.8705 21.5Z" fill="black"/>
<path d="M84.3489 7L83.7609 7.29158C84.0346 7.69007 84.359 8.24406 84.5111 8.60367L85.1397 8.25378C84.9775 7.91361 84.6429 7.39849 84.3489 7Z" fill="black"/>
<path fill-rule="evenodd" clip-rule="evenodd" d="M86.4273 15.9903C86.3554 15.818 86.2118 15.5617 86.0813 15.3974H83.7406V15.8542H83.0714V12.5594H86.0927V15.3241C86.9061 15.1205 87.689 14.7893 88.3769 14.3322C87.7287 13.7326 87.2106 13.0058 86.8328 12.1706L87.2752 12.0248H86.407V11.3348H90.7565L90.8883 11.3056L91.3648 11.5097C90.9936 12.6879 90.3567 13.6157 89.5543 14.3328C90.2432 14.7811 91.0536 15.1158 91.9629 15.31C91.8007 15.4655 91.5878 15.7668 91.4864 15.9709C90.5228 15.7282 89.6759 15.3345 88.9559 14.8086C88.1976 15.3449 87.3331 15.7302 86.4273 15.9903ZM90.3884 12.0248C90.0548 12.7615 89.56 13.3849 88.9608 13.8936C88.3376 13.3702 87.8471 12.7379 87.513 12.0248H90.3884ZM85.4134 14.7851H83.7406V13.1717H85.4134V14.7851Z" fill="black"/>
<path d="M86.1231 10.5572C87.2181 9.95465 87.3803 9.15767 87.3803 8.46761V7.39849H90.4929V9.65335C90.4929 9.92549 90.5131 10.0227 90.6449 10.0227H91.2634C91.385 10.0227 91.5777 10.0032 91.6993 9.97409C91.7095 10.1588 91.7298 10.4309 91.7602 10.5961C91.6486 10.6447 91.4459 10.6544 91.2634 10.6544H90.5942C89.9251 10.6544 89.7832 10.3823 89.7832 9.64363V8.07884H88.09V8.48704C88.09 9.36178 87.8264 10.4017 86.6098 11.0918C86.5185 10.946 86.2549 10.6642 86.1231 10.5572Z" fill="black"/>
<path d="M94.7611 7L94.1629 7.29158C94.4366 7.69007 94.7712 8.24406 94.9233 8.60367L95.5316 8.25378C95.3694 7.91361 95.0449 7.39849 94.7611 7Z" fill="black"/>
<path d="M79.2286 7.52482L79.7356 7.10689C80.2628 7.44707 80.9015 7.95247 81.2158 8.29264L80.6785 8.74945C80.3743 8.39955 79.7559 7.87471 79.2286 7.52482Z" fill="black"/>
<path d="M77.7586 7.08746C77.7637 7.68773 77.7816 8.27994 77.8131 8.85636H72.598V9.56586H77.8594C78.1348 13.1744 78.9847 16 80.6379 16C81.4186 16 81.7126 15.5043 81.8444 13.8035C81.6315 13.7354 81.3375 13.5702 81.1651 13.405C81.1043 14.7073 80.9826 15.2419 80.6987 15.2419C79.6907 15.2419 78.9013 12.8605 78.6518 9.56586H81.6315V8.85636H78.6072C78.5786 8.28696 78.5655 7.69506 78.5696 7.08746H77.7586Z" fill="black"/>
<path d="M72.6386 14.9698C73.2064 14.8646 73.9471 14.7228 74.7677 14.5616V11.7333H72.9427V11.0237H77.424V11.7333H75.5281V14.4112C76.2368 14.2701 76.9807 14.1194 77.7079 13.9687L77.7687 14.6199C76.035 15.0086 74.1797 15.4168 72.8718 15.6987L72.6386 14.9698Z" fill="black"/>
<path d="M66.3426 12.1317C66.979 12.1014 67.6694 12.0548 68.35 11.9891V13.1522H66.373V13.7742H68.35V15.0863H65.8153V15.7375H71.5842V15.0863H69.1002V13.7742H71.1584V13.1522H69.1002V11.9079C69.8936 11.8121 70.6395 11.6874 71.2293 11.5291L70.7224 10.9848C69.668 11.2764 67.7417 11.4708 66.1601 11.5582C66.2412 11.7235 66.3223 11.9664 66.3426 12.1317Z" fill="black"/>
<path d="M62.5609 8.53555C63.0344 8.47348 63.5466 8.39282 64.0512 8.29543V9.77961H62.3885V10.4697H63.9486C63.5409 11.587 62.8316 12.8531 62.1857 13.541C62.3175 13.7062 62.5 14.0075 62.571 14.2116C63.0946 13.6054 63.6318 12.6407 64.0512 11.6577V15.9611H64.7914V11.7682C65.1365 12.1801 65.5551 12.7102 65.7241 12.987L66.1702 12.4135C65.9748 12.1794 65.0828 11.3136 64.7914 11.0595V10.4697H66.0688V9.77961H64.7914V8.13827C65.2812 8.02373 65.7398 7.8931 66.1195 7.74829L65.5822 7.18457C64.8319 7.51503 63.4835 7.78717 62.3277 7.97183C62.4189 8.13706 62.5203 8.38004 62.5609 8.53555Z" fill="black"/>
<path d="M56.3921 7.26231C56.3936 7.1965 56.395 7.13455 56.3965 7.07779H57.238L57.237 7.11988C57.2289 7.46712 57.2179 7.93613 57.1726 8.48218C57.3155 9.62514 57.9328 13.7477 61.5469 15.2906C61.3239 15.4558 61.1008 15.7085 60.9893 15.9126C58.4403 14.771 57.3421 12.3719 56.8436 10.5557C56.3659 12.5012 55.2863 14.6767 52.8075 15.9515C52.6757 15.7571 52.4222 15.5335 52.189 15.378C56.2534 13.4065 56.3543 8.93795 56.392 7.26561L56.392 7.26455L56.3921 7.26231Z" fill="black"/>
<path d="M47.6269 14.7656L48.1034 14.2796C49.2491 14.6295 50.4961 15.0863 51.2362 15.4557L50.6178 15.9611C49.9283 15.5917 48.7726 15.1252 47.6269 14.7656Z" fill="black"/>
<path d="M45.1227 14.2796L45.8222 14.7073C44.9706 15.2029 43.612 15.7084 42.5272 15.9805C42.4157 15.8347 42.1622 15.582 42 15.4459C43.0848 15.1932 44.4434 14.6975 45.1227 14.2796Z" fill="black"/>
<path d="M86.5185 8.69115H82.6558V9.30346H86.5185V8.69115Z" fill="black"/>
<path d="M83.0816 9.98381H86.0826V10.567H83.0816V9.98381Z" fill="black"/>
<path d="M83.0816 11.257H86.0927V11.8402H83.0816V11.257Z" fill="black"/>
<path d="M96.728 9.98381H93.4126V10.567H96.728V9.98381Z" fill="black"/>
<path d="M93.4126 11.257H96.7077V11.8402H93.4126V11.257Z" fill="black"/>
<path d="M97.1538 8.69115H92.9564V9.30346H97.1538V8.69115Z" fill="black"/>
<path fill-rule="evenodd" clip-rule="evenodd" d="M93.4836 12.5594H96.7178V15.3974H94.1426V15.8542H93.4836V12.5594ZM96.0487 14.7851H94.1426V13.1717H96.0487V14.7851Z" fill="black"/>
<path d="M97.1436 10.4115H99.1308V7.22354H99.9115V10.4115H102V11.1307H99.9115V15.9806H99.1308V11.1307H97.1436V10.4115Z" fill="black"/>
<path fill-rule="evenodd" clip-rule="evenodd" d="M71.0468 7.53447H66.4744V10.6349H71.0468V7.53447ZM67.1841 9.99344V8.16622H70.3067V9.99344H67.1841Z" fill="black"/>
<path fill-rule="evenodd" clip-rule="evenodd" d="M43.6526 13.5021H42.1926V14.1241H51.1957V13.5021H49.7661V9.10898H46.9578V8.49667H50.9321V7.86492H46.9578V7.05822H46.2075V7.86492H42.4765V8.49667H46.2075V9.10898H43.6526V13.5021ZM44.3826 13.5021V12.8217H49.0057V13.5021H44.3826ZM49.0057 12.3552V11.7721H44.3826V12.3552H49.0057ZM44.3826 11.2958H49.0057V10.7224H44.3826V11.2958ZM44.3826 10.2656H49.0057V9.62411H44.3826V10.2656Z" fill="black"/>
<path fill-rule="evenodd" clip-rule="evenodd" d="M104.32 26.2505C104.32 25.9898 104.336 25.4196 104.336 25.4196H100.424V23.8717H104.573C104.764 26.2238 105.11 28.471 105.651 30.2984C104.776 31.2876 103.759 32.1157 102.612 32.7515C103.107 33.2077 103.953 34.2016 104.288 34.7067C105.138 34.1597 105.93 33.5082 106.658 32.7639C107.338 33.9391 108.193 34.6415 109.254 34.6415C110.898 34.6415 111.649 33.9572 112 30.78C111.377 30.5356 110.563 29.9817 110.036 29.4277C109.956 31.4155 109.765 32.2301 109.445 32.2301C109.06 32.2301 108.67 31.686 108.312 30.7655C109.465 29.1244 110.389 27.1985 111.058 25.0611L108.711 24.4908C108.396 25.6095 107.983 26.659 107.478 27.6243C107.264 26.4884 107.09 25.2105 106.974 23.8717H111.84V21.5418H110.142L110.946 20.6945C110.387 20.1568 109.27 19.4399 108.455 19L107.05 20.4175C107.553 20.7329 108.148 21.1437 108.647 21.5418H106.835C106.811 20.7923 106.808 20.0385 106.827 19.2933H104.384C104.387 20.0364 104.403 20.7892 104.433 21.5418H97.9812V26.4297C97.9812 28.5642 97.9014 31.4481 96.7199 33.3707C97.2468 33.6477 98.3006 34.5275 98.6997 35C99.5135 33.7498 99.9567 32.0088 100.189 30.2753C100.506 30.8638 100.745 31.7506 100.775 32.4257C101.51 32.4257 102.18 32.4094 102.612 32.3279C103.091 32.2301 103.458 32.0672 103.809 31.5947C104.192 31.0733 104.272 29.5743 104.32 26.2505ZM100.197 30.2141C100.316 29.3052 100.378 28.4 100.406 27.5703H102.058C102.023 29.1922 101.963 29.8644 101.829 30.0631C101.701 30.2261 101.558 30.275 101.35 30.275C101.102 30.275 100.674 30.2596 100.197 30.2141Z" fill="black"/>
<path d="M85.8673 22.112C86.1314 21.4187 86.3672 20.705 86.565 19.9939L84.1541 19.4399C83.6112 21.6395 82.5893 23.8717 81.3599 25.2077C81.9507 25.5336 82.9885 26.2342 83.4515 26.6415C83.9297 26.0332 84.4007 25.2744 84.839 24.4257H87.9062V26.9185H83.7709V29.1996H87.9062V32.002H81.8708V34.3157H96.4005V32.002H90.3332V29.1996H94.9156V26.9185H90.3332V24.4257H95.5543V22.112H90.3332V19.277H87.9062V22.112H85.8673Z" fill="black"/>
<path d="M46.3436 28.4645C46.4377 28.0285 46.4856 27.6141 46.4988 27.2444H42.8462V25.11H46.5026V23.4807H42.6866V21.2811H46.5026V19.3585H48.8018V27C48.8018 29.8513 47.9396 33.0611 44.0278 34.9837C43.6446 34.4134 42.9261 33.6802 42.3672 33.224C43.7784 32.6761 44.7414 31.786 45.3804 30.8057C44.6568 30.9237 43.9507 31.0375 43.2921 31.1436L42.4151 31.2851L42 28.9226C43.1273 28.8236 44.7056 28.6496 46.3436 28.4645Z" fill="black"/>
<path fill-rule="evenodd" clip-rule="evenodd" d="M71.6755 34.3304L66.632 19.7975H63.2696L58.1875 34.3304H61.2986L62.2841 31.3429H67.5305L68.4484 34.3304H71.6755ZM64.9218 23.1201L66.6996 28.8386H63.0861L64.9218 23.1201Z" fill="black"/>
<path d="M52.7456 19.3585V21.2811H56.9289V23.4807H52.7456V25.11H56.5457V27.2444H52.7456V28.9063H57.2163V31.1059H52.7456V34.7556H50.4144V19.3585H52.7456Z" fill="black"/>
<path d="M74.2124 22.2695V31.8617H72.4582V34.3337H78.7189V31.8617H77.169V22.2695H78.7189V19.7975H72.4582V22.2695H74.2124Z" fill="black"/>
</svg>
