<svg width="131" height="42" viewBox="0 0 131 42" fill="none" xmlns="http://www.w3.org/2000/svg">
<path d="M0.5 0.5H116C124.008 0.5 130.5 6.99187 130.5 15V41.5H15C6.99187 41.5 0.5 35.0081 0.5 27V0.5Z" fill="white" stroke="black"/>
<path d="M17.9605 24.1575C21.4266 26.9643 26.3836 26.9643 29.8497 24.1575L28.5095 22.5026C25.8248 24.6766 21.9854 24.6766 19.3007 22.5026L17.9605 24.1575Z" fill="black"/>
<path d="M19.404 20.5134V17.6365H21.5336V20.5134H19.404Z" fill="black"/>
<path d="M26.012 17.6365V20.5134H28.1415V17.6365H26.012Z" fill="black"/>
<path fill-rule="evenodd" clip-rule="evenodd" d="M35 21.5C35 27.8513 29.8513 33 23.5 33C17.1487 33 12 27.8513 12 21.5C12 15.1487 17.1487 10 23.5 10C29.8513 10 35 15.1487 35 21.5ZM32.8705 21.5C32.8705 26.6752 28.6752 30.8705 23.5 30.8705C18.3248 30.8705 14.1295 26.6752 14.1295 21.5C14.1295 16.3248 18.3248 12.1295 23.5 12.1295C28.6752 12.1295 32.8705 16.3248 32.8705 21.5Z" fill="black"/>
<path fill-rule="evenodd" clip-rule="evenodd" d="M104.32 26.2505C104.32 25.9898 104.336 25.4196 104.336 25.4196H100.424V23.8717H104.573C104.764 26.2238 105.11 28.471 105.651 30.2984C104.776 31.2876 103.759 32.1157 102.612 32.7515C103.107 33.2077 103.953 34.2016 104.288 34.7067C105.138 34.1597 105.93 33.5082 106.658 32.7639C107.338 33.9391 108.193 34.6415 109.254 34.6415C110.898 34.6415 111.649 33.9572 112 30.78C111.377 30.5356 110.563 29.9817 110.036 29.4277C109.956 31.4155 109.765 32.2301 109.445 32.2301C109.06 32.2301 108.67 31.686 108.312 30.7655C109.465 29.1244 110.389 27.1985 111.058 25.0611L108.711 24.4908C108.396 25.6095 107.983 26.659 107.478 27.6243C107.264 26.4884 107.09 25.2105 106.974 23.8717H111.84V21.5418H110.142L110.946 20.6945C110.387 20.1568 109.27 19.4399 108.455 19L107.05 20.4175C107.553 20.7329 108.148 21.1437 108.647 21.5418H106.835C106.811 20.7923 106.808 20.0385 106.827 19.2933H104.384C104.387 20.0364 104.403 20.7892 104.433 21.5418H97.9812V26.4297C97.9812 28.5642 97.9014 31.4481 96.7199 33.3707C97.2468 33.6477 98.3006 34.5275 98.6997 35C99.5135 33.7498 99.9567 32.0088 100.189 30.2753C100.506 30.8638 100.745 31.7506 100.775 32.4257C101.51 32.4257 102.18 32.4094 102.612 32.3279C103.091 32.2301 103.458 32.0672 103.809 31.5947C104.192 31.0733 104.272 29.5743 104.32 26.2505ZM100.197 30.2141C100.316 29.3052 100.378 28.4 100.406 27.5703H102.058C102.023 29.1922 101.963 29.8644 101.829 30.0631C101.701 30.2261 101.558 30.275 101.35 30.275C101.102 30.275 100.674 30.2596 100.197 30.2141Z" fill="black"/>
<path d="M85.8673 22.112C86.1314 21.4187 86.3672 20.705 86.565 19.9939L84.1541 19.4399C83.6112 21.6395 82.5893 23.8717 81.3599 25.2077C81.9507 25.5336 82.9885 26.2342 83.4515 26.6415C83.9297 26.0332 84.4007 25.2744 84.839 24.4257H87.9062V26.9185H83.7709V29.1996H87.9062V32.002H81.8708V34.3157H96.4005V32.002H90.3332V29.1996H94.9156V26.9185H90.3332V24.4257H95.5543V22.112H90.3332V19.277H87.9062V22.112H85.8673Z" fill="black"/>
<path d="M46.3436 28.4645C46.4377 28.0285 46.4856 27.6141 46.4988 27.2444H42.8462V25.11H46.5026V23.4807H42.6866V21.2811H46.5026V19.3585H48.8018V27C48.8018 29.8513 47.9396 33.0611 44.0278 34.9837C43.6446 34.4134 42.9261 33.6802 42.3672 33.224C43.7784 32.6761 44.7414 31.786 45.3804 30.8057C44.6568 30.9237 43.9507 31.0375 43.2921 31.1436L42.4151 31.2851L42 28.9226C43.1273 28.8236 44.7056 28.6496 46.3436 28.4645Z" fill="black"/>
<path fill-rule="evenodd" clip-rule="evenodd" d="M71.6755 34.3304L66.632 19.7975H63.2696L58.1875 34.3304H61.2986L62.2841 31.3429H67.5305L68.4484 34.3304H71.6755ZM64.9218 23.1201L66.6996 28.8386H63.0861L64.9218 23.1201Z" fill="black"/>
<path d="M52.7456 19.3585V21.2811H56.9289V23.4807H52.7456V25.11H56.5457V27.2444H52.7456V28.9063H57.2163V31.1059H52.7456V34.7556H50.4144V19.3585H52.7456Z" fill="black"/>
<path d="M74.2124 22.2695V31.8617H72.4582V34.3337H78.7189V31.8617H77.169V22.2695H78.7189V19.7975H72.4582V22.2695H74.2124Z" fill="black"/>
<path d="M48.0526 14.2765L47.5801 14.7662C48.7162 15.1285 49.8624 15.5986 50.5461 15.9708L51.1594 15.4615C50.4254 15.0894 49.1887 14.6291 48.0526 14.2765Z" fill="black"/>
<path d="M45.0967 14.2765L45.7904 14.7074C44.9459 15.2069 43.5986 15.7162 42.5228 15.9904C42.4122 15.8435 42.1609 15.5888 42 15.4517C43.0758 15.1971 44.4231 14.6976 45.0967 14.2765Z" fill="black"/>
<path d="M56.2723 7.20541C56.2738 7.13909 56.2752 7.07667 56.2767 7.01948H57.1112L57.1103 7.06189C57.1022 7.41178 57.0913 7.88437 57.0463 8.43459C57.1881 9.58627 57.8002 13.7403 61.3843 15.2949C61.1631 15.4614 60.9419 15.716 60.8313 15.9217C58.3035 14.7714 57.2144 12.354 56.7201 10.524C56.2464 12.4843 55.1757 14.6763 52.7175 15.9609C52.5868 15.765 52.3355 15.5398 52.1042 15.3831C56.1348 13.3965 56.2348 8.89384 56.2723 7.20874L56.2723 7.20766L56.2723 7.20541Z" fill="black"/>
<path d="M70.6242 15.814C70.9359 15.6769 71.0565 15.4614 71.0565 14.9717V7.08803H70.3226V14.9815C70.3226 15.148 70.2723 15.1872 70.1114 15.197C69.9304 15.197 69.3674 15.197 68.7742 15.1774C68.8748 15.4124 68.9853 15.7454 69.0256 15.9609C69.7696 15.9609 70.3226 15.9413 70.6242 15.814Z" fill="black"/>
<path d="M63.8678 7.35245C63.7843 7.70482 63.6828 8.05952 63.5682 8.40035H64.6419V7.01948H65.3558V8.40035H67.4068V9.0761H65.3558V10.1044H67.809V10.7802H65.3558V11.7693H67.4471V14.4625C67.4471 14.7955 67.3968 14.9815 67.1454 15.0991C66.9041 15.2166 66.5221 15.2264 65.959 15.2166C65.9389 15.0305 65.8484 14.7661 65.7479 14.58C66.1802 14.5898 66.502 14.5898 66.6226 14.58C66.7232 14.58 66.7533 14.5506 66.7533 14.4527V12.4352H65.3558V15.9903H64.6419V12.4352H63.3248V15.1872H62.6411V11.7693H64.6419V10.7802H62.1787V10.1044H64.6419V9.0761H63.3159C63.159 9.45486 62.9882 9.7973 62.8121 10.075C62.6613 9.99668 62.3295 9.86937 62.1485 9.81061C62.6009 9.14465 62.9528 8.16531 63.164 7.21535L63.8678 7.35245Z" fill="black"/>
<path fill-rule="evenodd" clip-rule="evenodd" d="M43.6388 13.493H42.191V14.1198H51.1192V13.493H49.7015V9.06641H46.9165V8.44943H50.8577V7.81285H46.9165V7H46.1725V7.81285H42.4725V8.44943H46.1725V9.06641H43.6388V13.493ZM44.3627 13.493H48.9474V12.8075H44.3627V13.493ZM44.3627 12.3374H48.9474V11.7498H44.3627V12.3374ZM44.3627 11.2699H48.9474V10.6921H44.3627V11.2699ZM44.3627 10.2318H48.9474V9.58547H44.3627V10.2318Z" fill="black"/>
<path d="M68.5329 7.8813H69.2367V13.3069H68.5329V7.8813Z" fill="black"/>
<path d="M75.8724 12.0337L75.5506 12.4842C76.365 12.6506 77.3905 12.9934 77.9435 13.2578L78.2653 12.7682C77.7022 12.5135 76.6767 12.1904 75.8724 12.0337Z" fill="black"/>
<path fill-rule="evenodd" clip-rule="evenodd" d="M75.9528 8.28278L76.5762 8.48844C76.4535 8.68124 76.3152 8.87134 76.1653 9.05646H78.768L78.8886 9.02708L79.3109 9.28171C78.8903 9.93805 78.254 10.5039 77.5099 10.9754C78.2909 11.3266 79.1791 11.5932 80.065 11.7497C79.9242 11.8868 79.7332 12.1316 79.6427 12.3079C78.6909 12.1103 77.7337 11.7738 76.8936 11.3323C75.9446 11.8353 74.8826 12.2019 73.8917 12.4254C73.8213 12.2491 73.6705 11.9553 73.5398 11.8182C74.4377 11.6486 75.3961 11.355 76.2553 10.9615C75.8414 10.6956 75.4708 10.402 75.1624 10.0858C74.8598 10.3479 74.5471 10.583 74.2436 10.7801C74.133 10.6626 73.8716 10.4471 73.7208 10.3394C74.5754 9.83993 75.44 9.07604 75.9528 8.28278ZM75.6457 9.63427C75.628 9.65212 75.6102 9.6699 75.5923 9.68759C75.9193 10.0431 76.3582 10.3683 76.8683 10.6537C77.4112 10.3546 77.8904 10.0123 78.2561 9.63427H75.6457Z" fill="black"/>
<path d="M74.9072 13.2187L74.5553 13.7279C75.9427 13.8944 77.6821 14.2861 78.6373 14.6191L78.9791 14.0707C77.9938 13.7475 76.2645 13.3754 74.9072 13.2187Z" fill="black"/>
<path fill-rule="evenodd" clip-rule="evenodd" d="M72.6249 7.41116H81V16H80.2459V15.5789H73.3588V16H72.6249V7.41116ZM80.2459 8.08691V14.9227H73.3588V8.08691H80.2459Z" fill="black"/>
</svg>
