<svg width="131" height="42" viewBox="0 0 131 42" fill="none" xmlns="http://www.w3.org/2000/svg">
<path d="M0.5 0.5H116C124.008 0.5 130.5 6.99187 130.5 15V41.5H15C6.99187 41.5 0.5 35.0081 0.5 27V0.5Z" fill="black" stroke="#ACACAC"/>
<path d="M17.9605 24.1575C21.4266 26.9643 26.3836 26.9643 29.8497 24.1575L28.5095 22.5026C25.8248 24.6766 21.9854 24.6766 19.3007 22.5026L17.9605 24.1575Z" fill="white"/>
<path d="M19.404 20.5134V17.6365H21.5336V20.5134H19.404Z" fill="white"/>
<path d="M26.012 17.6365V20.5134H28.1415V17.6365H26.012Z" fill="white"/>
<path fill-rule="evenodd" clip-rule="evenodd" d="M35 21.5C35 27.8513 29.8513 33 23.5 33C17.1487 33 12 27.8513 12 21.5C12 15.1487 17.1487 10 23.5 10C29.8513 10 35 15.1487 35 21.5ZM32.8705 21.5C32.8705 26.6752 28.6752 30.8705 23.5 30.8705C18.3248 30.8705 14.1295 26.6752 14.1295 21.5C14.1295 16.3248 18.3248 12.1295 23.5 12.1295C28.6752 12.1295 32.8705 16.3248 32.8705 21.5Z" fill="white"/>
<path d="M63.7749 7.1759C63.7123 7.34987 63.6391 7.52815 63.5588 7.70358H64.5081V7H65.161V7.70358H66.9488V8.2215H65.161V8.81759H67.3003V9.35505H65.161V9.87296H67.0291V11.0651C67.0291 11.3388 66.9889 11.4756 66.778 11.5635C66.5671 11.6515 66.2658 11.6515 65.8239 11.6515C65.7979 11.5168 65.7196 11.3672 65.6535 11.241L65.6378 11.2111L65.623 11.1824C65.9444 11.1922 66.2055 11.1922 66.2859 11.1824C66.3763 11.1726 66.4064 11.1531 66.4064 11.0749V10.3713H65.161V11.9642H64.5081V10.3713H63.3531V11.7101H62.7505V9.87296H64.5081V9.35505H62.2282V8.81759H64.5081V8.2215H63.2953C63.1713 8.44142 63.0404 8.64279 62.9112 8.80782C62.7906 8.71987 62.5195 8.59283 62.3688 8.52443C62.7203 8.12378 63.0016 7.56678 63.1824 7.03909L63.7749 7.1759Z" fill="white"/>
<path d="M70.3034 11.8078C70.5846 11.7003 70.665 11.5342 70.665 11.1531V7.09772H69.982V11.1433C69.982 11.2704 69.9418 11.3094 69.7911 11.3094C69.6505 11.3192 69.1584 11.3192 68.606 11.2997C68.7064 11.4853 68.8169 11.7296 68.847 11.9153C69.5601 11.9153 70.0222 11.9055 70.3034 11.8078Z" fill="white"/>
<path d="M66.2256 11.7296C66.3309 11.9117 66.443 12.1369 66.5321 12.3453H62.2684V12.9414H65.7938C64.8155 13.5203 63.3745 13.9859 62.0976 14.2117C62.2382 14.3485 62.4291 14.5928 62.5195 14.759C63.0806 14.6435 63.6766 14.4753 64.257 14.2671V14.7101C64.257 15.1596 63.9959 15.355 63.8352 15.4528C63.9284 15.5615 64.0475 15.8049 64.1043 15.9643L64.1064 16L64.1148 15.9949L64.1164 16L64.1166 15.9938C64.3085 15.8798 64.6455 15.7937 67.2702 15.1889C67.2601 15.0521 67.2702 14.8078 67.2902 14.6319L64.9701 15.1162V13.9872C65.6442 13.6984 66.2653 13.3589 66.745 12.9908C67.5173 14.5283 68.9022 15.4811 70.916 15.873C71.0064 15.6873 71.1973 15.4235 71.3379 15.2769C70.3763 15.1217 69.5506 14.8323 68.8791 14.4155C69.4804 14.1423 70.17 13.7834 70.7152 13.4104L70.1628 13.0293C69.7116 13.3501 68.983 13.7585 68.3721 14.0527C67.9874 13.7354 67.671 13.3643 67.4281 12.9414H71.2073V12.3453H67.3549C67.2483 12.0974 67.0802 11.7779 66.9186 11.5342L66.2256 11.7296Z" fill="white"/>
<path d="M56.2578 7.22463C56.2592 7.15846 56.2606 7.09617 56.2622 7.03911H57.0958L57.0948 7.08142C57.0868 7.43055 57.0759 7.9021 57.0309 8.45112C57.1725 9.60028 57.7841 13.7452 61.3644 15.2964C61.1434 15.4626 60.9225 15.7166 60.812 15.9218C58.2868 14.7741 57.1989 12.3619 56.7051 10.5359C56.2319 12.492 55.1623 14.6792 52.7067 15.9609C52.5761 15.7655 52.325 15.5407 52.094 15.3844C56.1203 13.4022 56.2203 8.90936 56.2577 7.22795L56.2577 7.22687L56.2578 7.22463Z" fill="white"/>
<path d="M47.5743 14.7686L48.0463 14.28C49.1813 14.6318 50.4167 15.0911 51.1499 15.4624L50.5372 15.9706C49.8542 15.5992 48.7092 15.1302 47.5743 14.7686Z" fill="white"/>
<path d="M45.0935 14.28L45.7865 14.71C44.9428 15.2084 43.597 15.7165 42.5223 15.9901C42.4118 15.8435 42.1607 15.5895 42 15.4527C43.0747 15.1986 44.4205 14.7002 45.0935 14.28Z" fill="white"/>
<path d="M68.0737 7.50814H68.7566V10.7134H68.0737V7.50814Z" fill="white"/>
<path fill-rule="evenodd" clip-rule="evenodd" d="M78.7703 8.48523H74.7729V10.0097H76.41V10.4592H73.7584V10.9185H79.8148V10.4592H77.0729V10.0097H78.7703V8.48523ZM75.3956 9.56992V8.92497H78.1174V9.56992H75.3956Z" fill="white"/>
<path fill-rule="evenodd" clip-rule="evenodd" d="M75.6869 12.2181H77.8262V13.5667H75.6869V12.2181ZM76.1589 12.5992V13.1758H77.334V12.5992H76.1589Z" fill="white"/>
<path fill-rule="evenodd" clip-rule="evenodd" d="M79.1017 11.3387H74.4414V14.4461H79.1017V11.3387ZM75.0441 13.9771V11.7979H78.469V13.9771H75.0441Z" fill="white"/>
<path fill-rule="evenodd" clip-rule="evenodd" d="M72.5833 7.40054H81V15.9803H80.2568V15.5992H73.2964V15.9803H72.5833V7.40054ZM80.2568 8.02595V14.9738H73.2964V8.02595H80.2568Z" fill="white"/>
<path fill-rule="evenodd" clip-rule="evenodd" d="M43.6371 13.4983H42.1908V14.1237H51.1097V13.4983H49.6935V9.08132H46.9114V8.46569H50.8486V7.83051H46.9114V7.01943H46.1682V7.83051H42.4721V8.46569H46.1682V9.08132H43.6371V13.4983ZM44.3603 13.4983V12.8142H48.9402V13.4983H44.3603ZM48.9402 12.3452V11.7588H44.3603V12.3452H48.9402ZM44.3603 11.28H48.9402V10.7035H44.3603V11.28ZM44.3603 10.2442H48.9402V9.59924H44.3603V10.2442Z" fill="white"/>
<path fill-rule="evenodd" clip-rule="evenodd" d="M104.32 26.2505C104.32 25.9898 104.336 25.4196 104.336 25.4196H100.424V23.8717H104.573C104.764 26.2238 105.11 28.471 105.651 30.2984C104.776 31.2876 103.759 32.1157 102.612 32.7515C103.107 33.2077 103.953 34.2016 104.288 34.7067C105.138 34.1597 105.93 33.5082 106.658 32.7639C107.338 33.9391 108.193 34.6415 109.254 34.6415C110.898 34.6415 111.649 33.9572 112 30.78C111.377 30.5356 110.563 29.9817 110.036 29.4277C109.956 31.4155 109.765 32.2301 109.445 32.2301C109.06 32.2301 108.67 31.686 108.312 30.7655C109.465 29.1244 110.389 27.1985 111.058 25.0611L108.711 24.4908C108.396 25.6095 107.983 26.659 107.478 27.6243C107.264 26.4884 107.09 25.2105 106.974 23.8717H111.84V21.5418H110.142L110.946 20.6945C110.387 20.1568 109.27 19.4399 108.455 19L107.05 20.4175C107.553 20.7329 108.148 21.1437 108.647 21.5418H106.835C106.811 20.7923 106.808 20.0385 106.827 19.2933H104.384C104.387 20.0364 104.403 20.7892 104.433 21.5418H97.9812V26.4297C97.9812 28.5642 97.9014 31.4481 96.7199 33.3707C97.2468 33.6477 98.3006 34.5275 98.6997 35C99.5135 33.7498 99.9567 32.0088 100.189 30.2753C100.506 30.8638 100.745 31.7506 100.775 32.4257C101.51 32.4257 102.18 32.4094 102.612 32.3279C103.091 32.2301 103.458 32.0672 103.809 31.5947C104.192 31.0733 104.272 29.5743 104.32 26.2505ZM100.197 30.2141C100.316 29.3052 100.378 28.4 100.406 27.5703H102.058C102.023 29.1922 101.963 29.8644 101.829 30.0631C101.701 30.2261 101.558 30.275 101.35 30.275C101.102 30.275 100.674 30.2596 100.197 30.2141Z" fill="white"/>
<path d="M85.8673 22.112C86.1314 21.4187 86.3672 20.705 86.565 19.9939L84.1541 19.4399C83.6112 21.6395 82.5893 23.8717 81.3599 25.2077C81.9507 25.5336 82.9885 26.2342 83.4515 26.6415C83.9297 26.0332 84.4007 25.2744 84.839 24.4257H87.9062V26.9185H83.7709V29.1996H87.9062V32.002H81.8708V34.3157H96.4005V32.002H90.3332V29.1996H94.9156V26.9185H90.3332V24.4257H95.5543V22.112H90.3332V19.277H87.9062V22.112H85.8673Z" fill="white"/>
<path d="M46.3436 28.4645C46.4377 28.0285 46.4856 27.6141 46.4988 27.2444H42.8462V25.11H46.5026V23.4807H42.6866V21.2811H46.5026V19.3585H48.8018V27C48.8018 29.8513 47.9396 33.0611 44.0278 34.9837C43.6446 34.4134 42.9261 33.6802 42.3672 33.224C43.7784 32.6761 44.7414 31.786 45.3804 30.8057C44.6568 30.9237 43.9507 31.0375 43.2921 31.1436L42.4151 31.2851L42 28.9226C43.1273 28.8236 44.7056 28.6496 46.3436 28.4645Z" fill="white"/>
<path fill-rule="evenodd" clip-rule="evenodd" d="M71.6755 34.3304L66.632 19.7975H63.2696L58.1875 34.3304H61.2986L62.2841 31.3429H67.5305L68.4484 34.3304H71.6755ZM64.9218 23.1201L66.6996 28.8386H63.0861L64.9218 23.1201Z" fill="white"/>
<path d="M52.7456 19.3585V21.2811H56.9289V23.4807H52.7456V25.11H56.5457V27.2444H52.7456V28.9063H57.2163V31.1059H52.7456V34.7556H50.4144V19.3585H52.7456Z" fill="white"/>
<path d="M74.2124 22.2695V31.8617H72.4582V34.3337H78.7189V31.8617H77.169V22.2695H78.7189V19.7975H72.4582V22.2695H74.2124Z" fill="white"/>
</svg>
