<svg width="131" height="42" viewBox="0 0 131 42" fill="none" xmlns="http://www.w3.org/2000/svg">
<path d="M116 0.5C124.008 0.5 130.5 6.99187 130.5 15V41.5H15C6.99187 41.5 0.5 35.0081 0.5 27V0.5H116Z" fill="white" stroke="black"/>
<path d="M29.8497 24.1575C26.3836 26.9643 21.4266 26.9643 17.9605 24.1575L19.3007 22.5026C21.9854 24.6766 25.8248 24.6766 28.5095 22.5026L29.8497 24.1575Z" fill="black"/>
<path d="M19.404 17.6365V20.5134H21.5336V17.6365H19.404Z" fill="black"/>
<path d="M26.012 17.6365V20.5134H28.1415V17.6365H26.012Z" fill="black"/>
<path fill-rule="evenodd" clip-rule="evenodd" d="M23.5 33C29.8513 33 35 27.8513 35 21.5C35 15.1487 29.8513 10 23.5 10C17.1487 10 12 15.1487 12 21.5C12 27.8513 17.1487 33 23.5 33ZM23.5 30.8705C28.6752 30.8705 32.8705 26.6752 32.8705 21.5C32.8705 16.3248 28.6752 12.1295 23.5 12.1295C18.3248 12.1295 14.1295 16.3248 14.1295 21.5C14.1295 26.6752 18.3248 30.8705 23.5 30.8705Z" fill="black"/>
<path fill-rule="evenodd" clip-rule="evenodd" d="M93.3168 32.15L97.9602 19.2822H101.032L105.64 32.15H102.692L101.853 29.5049H97.0597L96.1593 32.15H93.3168ZM99.4697 22.2242L97.7924 27.2875H101.094L99.4697 22.2242Z" fill="black"/>
<path fill-rule="evenodd" clip-rule="evenodd" d="M80.4834 23.7781C79.7713 22.876 78.7826 22.425 77.5173 22.425C76.817 22.425 76.2402 22.5705 75.7871 22.8615C75.4045 23.0943 75.0544 23.4318 74.7366 23.8741V19.2997H72.2295V32.15H74.6924V30.954C75.0279 31.4196 75.3398 31.7455 75.6282 31.9318C76.1108 32.2461 76.7493 32.4032 77.5438 32.4032C78.8091 32.4032 79.7949 31.9172 80.5011 30.9453C81.2073 29.9734 81.5604 28.7483 81.5604 27.27C81.5604 25.8442 81.2014 24.6802 80.4834 23.7781ZM78.3824 29.5747C78.0234 30.0927 77.5203 30.3517 76.8729 30.3517C76.1255 30.3517 75.5693 30.084 75.2044 29.5485C74.8396 29.0131 74.6571 28.338 74.6571 27.5232C74.6571 26.8306 74.7454 26.2661 74.922 25.8296C75.2633 25.009 75.8901 24.5987 76.8023 24.5987C77.7027 24.5987 78.3206 25.0177 78.6561 25.8558C78.8327 26.2981 78.9209 26.8568 78.9209 27.5319C78.9209 28.3758 78.7414 29.0567 78.3824 29.5747Z" fill="black"/>
<path d="M66.3872 30.2556C66.2872 30.1567 66.2372 29.9123 66.2372 29.5223V24.4939H67.7997V22.7218H66.2372V20.0679H63.7477V22.7218H62.4059V24.4939H63.7477V30.3517C63.7477 30.9453 63.889 31.3847 64.1715 31.6699C64.607 32.118 65.4191 32.3217 66.6079 32.281L67.7997 32.2373V30.3779C67.7173 30.3837 67.632 30.3895 67.5437 30.3953H67.3053C66.7933 30.3953 66.4873 30.3488 66.3872 30.2556Z" fill="black"/>
<path fill-rule="evenodd" clip-rule="evenodd" d="M61.0899 30.9977C61.902 30.0025 62.3081 28.8065 62.3081 27.4097C62.3081 26.0362 61.902 24.8461 61.0899 23.8392C60.2777 22.8324 59.0448 22.3289 57.391 22.3289C55.7373 22.3289 54.5044 22.8324 53.6922 23.8392C52.8801 24.8461 52.474 26.0362 52.474 27.4097C52.474 28.8065 52.8801 30.0025 53.6922 30.9977C54.5044 31.9871 55.7373 32.4818 57.391 32.4818C59.0448 32.4818 60.2777 31.9871 61.0899 30.9977ZM59.0771 29.6184C58.6828 30.1363 58.1179 30.3953 57.3822 30.3953C56.6466 30.3953 56.0786 30.1363 55.6785 29.6184C55.2842 29.1004 55.087 28.3642 55.087 27.4097C55.087 26.4553 55.2842 25.7219 55.6785 25.2098C56.0786 24.6918 56.6466 24.4328 57.3822 24.4328C58.1179 24.4328 58.6828 24.6918 59.0771 25.2098C59.4715 25.7219 59.6686 26.4553 59.6686 27.4097C59.6686 28.3642 59.4715 29.1004 59.0771 29.6184Z" fill="black"/>
<path d="M48.0682 22.4075C49.0628 22.4075 49.875 22.6665 50.5047 23.1845C51.1403 23.6966 51.4581 24.5492 51.4581 25.7423V32.15H48.8804V26.3621C48.8804 25.8616 48.8127 25.4775 48.6773 25.2098C48.4302 24.7209 47.9593 24.4765 47.2649 24.4765C46.4115 24.4765 45.826 24.8344 45.5082 25.5503C45.3434 25.9286 45.261 26.4116 45.261 26.9994V32.15H42.7539V22.6519H45.1815V24.04C45.5052 23.5511 45.8113 23.199 46.0996 22.9837C46.6175 22.5996 47.2737 22.4075 48.0682 22.4075Z" fill="black"/>
<path d="M83.0354 33.9746L83.3532 33.992C83.6004 34.0037 83.8358 33.9949 84.0594 33.9658C84.283 33.9367 84.4714 33.8698 84.6244 33.765C84.7715 33.6661 84.9069 33.4595 85.0305 33.1452C85.1599 32.831 85.2129 32.6389 85.1894 32.5691L81.6582 22.6345H84.4566L86.5577 29.6533L88.5439 22.6345H91.2187L87.9171 31.9929C87.2815 33.7971 86.7783 34.9145 86.4076 35.3451C86.0368 35.7816 85.2953 35.9999 84.183 35.9999C83.9594 35.9999 83.7799 35.997 83.6445 35.9912C83.5091 35.9912 83.3061 35.9824 83.0354 35.965V33.9746Z" fill="black"/>
<path d="M107.958 29.9642V21.471H106.355V19.2822H112.076V21.471H110.66V29.9642H112.076V32.153H106.355V29.9642H107.958Z" fill="black"/>
<path d="M77.7061 9.63867L79.1162 13.9248L80.5371 9.63867H81.5146C81.3901 9.97617 81.1138 10.7467 80.6846 11.9492C80.3635 12.8536 80.0942 13.591 79.8779 14.1611C79.3669 15.5042 79.0066 16.3232 78.7969 16.6182C78.5872 16.913 78.2269 17.0605 77.7158 17.0605C77.5913 17.0605 77.4946 17.0557 77.4258 17.0459C77.3602 17.0361 77.278 17.0184 77.1797 16.9922V16.1855C77.3337 16.2281 77.4458 16.2548 77.5146 16.2646C77.5833 16.2744 77.644 16.2793 77.6963 16.2793C77.86 16.2793 77.9794 16.251 78.0547 16.1953C78.1332 16.1429 78.1986 16.0776 78.251 15.999C78.2674 15.9728 78.3271 15.8382 78.4287 15.5957C78.5301 15.3536 78.6036 15.1736 78.6494 15.0557L76.7031 9.63867H77.7061Z" fill="black"/>
<path fill-rule="evenodd" clip-rule="evenodd" d="M46.4033 7.6582V14.9033H45.6074V14.1709C45.401 14.4953 45.1568 14.7299 44.875 14.874C44.5932 15.0182 44.2699 15.0898 43.9062 15.0898C43.3199 15.0898 42.812 14.844 42.3828 14.3525C41.9536 13.8578 41.7393 13.2009 41.7393 12.3818C41.7393 11.6151 41.9343 10.9509 42.3242 10.3906C42.7174 9.82729 43.2776 9.5459 44.0049 9.5459C44.4079 9.5459 44.7456 9.63041 45.0176 9.80078C45.1748 9.89907 45.3529 10.0717 45.5527 10.3174V7.6582H46.4033ZM44.1719 10.3174C43.7264 10.3174 43.3644 10.4876 43.0859 10.8281C42.8108 11.1688 42.6729 11.6703 42.6729 12.332C42.6729 12.8955 42.7921 13.368 43.0312 13.748C43.2704 14.1281 43.6542 14.3183 44.1816 14.3184C44.5912 14.3184 44.9273 14.1426 45.1895 13.792C45.4548 13.4381 45.5879 12.9319 45.5879 12.2734C45.5879 11.6083 45.4517 11.1167 45.1797 10.7988C44.9077 10.4777 44.5716 10.3174 44.1719 10.3174Z" fill="black"/>
<path fill-rule="evenodd" clip-rule="evenodd" d="M52.9307 9.51074C53.5499 9.51074 54.0528 9.62939 54.4395 9.86523C54.8228 10.1011 55.0146 10.4679 55.0146 10.9658V13.999C55.0147 14.0906 55.0333 14.1641 55.0693 14.2197C55.1087 14.2753 55.1885 14.3037 55.3096 14.3037C55.3489 14.3037 55.3933 14.3021 55.4424 14.2988C55.4915 14.2923 55.5439 14.2833 55.5996 14.2734V14.9277C55.4621 14.967 55.3572 14.9911 55.2852 15.001C55.2131 15.0108 55.1147 15.0156 54.9902 15.0156C54.6855 15.0156 54.4648 14.9077 54.3271 14.6914C54.2551 14.5767 54.2043 14.4148 54.1748 14.2051C53.9946 14.441 53.735 14.6457 53.3975 14.8193C53.0601 14.9929 52.6884 15.0801 52.2822 15.0801C51.7941 15.0801 51.3943 14.9325 51.083 14.6377C50.775 14.3395 50.6211 13.9671 50.6211 13.5215C50.6212 13.0335 50.7735 12.6553 51.0781 12.3867C51.3829 12.118 51.7826 11.9519 52.2773 11.8896L53.6875 11.7129C53.8905 11.6867 54.0268 11.602 54.0957 11.458C54.135 11.3794 54.1543 11.2656 54.1543 11.1182C54.1542 10.8168 54.0463 10.5992 53.8301 10.4648C53.6171 10.3273 53.3108 10.2578 52.9111 10.2578C52.4492 10.2578 52.1211 10.3828 51.9277 10.6318C51.8197 10.7694 51.7496 10.9743 51.7168 11.2461H50.8906C50.907 10.5974 51.1175 10.1468 51.5205 9.89453C51.9267 9.63907 52.3967 9.51078 52.9307 9.51074ZM54.1299 12.2246C54.0218 12.2933 53.8821 12.3507 53.7119 12.3965C53.5417 12.4423 53.3746 12.4755 53.2109 12.4951L52.6748 12.5635C52.3542 12.606 52.1136 12.6731 51.9531 12.7646C51.6812 12.9186 51.545 13.1646 51.5449 13.502C51.5449 13.7575 51.6384 13.959 51.8252 14.1064C52.0119 14.2539 52.2328 14.3281 52.4883 14.3281C52.7995 14.3281 53.101 14.2555 53.3926 14.1113C53.8841 13.8721 54.1299 13.4805 54.1299 12.9365V12.2246Z" fill="black"/>
<path fill-rule="evenodd" clip-rule="evenodd" d="M86.9463 9.51074C87.5655 9.51074 88.0684 9.62937 88.4551 9.86523C88.8384 10.1011 89.0302 10.4679 89.0303 10.9658V13.999C89.0303 14.0906 89.049 14.1641 89.085 14.2197C89.1243 14.2753 89.2041 14.3037 89.3252 14.3037C89.3645 14.3037 89.4089 14.3021 89.458 14.2988C89.5072 14.2923 89.5595 14.2833 89.6152 14.2734V14.9277C89.4777 14.967 89.3728 14.9911 89.3008 15.001C89.2287 15.0108 89.1304 15.0156 89.0059 15.0156C88.7011 15.0156 88.4804 14.9077 88.3428 14.6914C88.2707 14.5767 88.2199 14.4148 88.1904 14.2051C88.0102 14.441 87.7506 14.6457 87.4131 14.8193C87.0757 14.9929 86.704 15.08 86.2979 15.0801C85.8097 15.0801 85.4099 14.9325 85.0986 14.6377C84.7906 14.3395 84.6367 13.9671 84.6367 13.5215C84.6368 13.0335 84.7891 12.6553 85.0938 12.3867C85.3985 12.1181 85.7982 11.9519 86.293 11.8896L87.7031 11.7129C87.9061 11.6867 88.0425 11.602 88.1113 11.458C88.1507 11.3794 88.1699 11.2656 88.1699 11.1182C88.1699 10.8168 88.0619 10.5992 87.8457 10.4648C87.6327 10.3273 87.3265 10.2578 86.9268 10.2578C86.4647 10.2578 86.1367 10.3828 85.9434 10.6318C85.8353 10.7694 85.7652 10.9743 85.7324 11.2461H84.9062C84.9227 10.5974 85.1331 10.1468 85.5361 9.89453C85.9424 9.63908 86.4124 9.51077 86.9463 9.51074ZM88.1455 12.2246C88.0374 12.2933 87.8978 12.3506 87.7275 12.3965C87.5573 12.4423 87.3903 12.4755 87.2266 12.4951L86.6904 12.5635C86.3698 12.606 86.1292 12.6731 85.9688 12.7646C85.6969 12.9186 85.5606 13.1646 85.5605 13.502C85.5605 13.7575 85.654 13.959 85.8408 14.1064C86.0276 14.2539 86.2484 14.3281 86.5039 14.3281C86.8152 14.3281 87.1166 14.2555 87.4082 14.1113C87.8997 13.8721 88.1455 13.4805 88.1455 12.9365V12.2246Z" fill="black"/>
<path fill-rule="evenodd" clip-rule="evenodd" d="M114.439 9.51074C115.059 9.51074 115.562 9.62933 115.948 9.86523C116.332 10.1011 116.523 10.4679 116.523 10.9658V13.999C116.523 14.0905 116.541 14.1641 116.577 14.2197C116.616 14.2754 116.697 14.3037 116.818 14.3037C116.858 14.3037 116.902 14.3021 116.951 14.2988C117 14.2923 117.053 14.2833 117.108 14.2734V14.9277C116.971 14.967 116.866 14.9911 116.794 15.001C116.722 15.0108 116.623 15.0156 116.499 15.0156C116.194 15.0156 115.973 14.9077 115.835 14.6914C115.763 14.5767 115.712 14.4145 115.683 14.2051C115.502 14.4409 115.244 14.6457 114.906 14.8193C114.569 14.9929 114.197 15.08 113.791 15.0801C113.303 15.0801 112.903 14.9325 112.592 14.6377C112.284 14.3395 112.13 13.9671 112.13 13.5215C112.13 13.0335 112.282 12.6553 112.587 12.3867C112.892 12.1181 113.291 11.9519 113.786 11.8896L115.196 11.7129C115.399 11.6867 115.536 11.602 115.604 11.458C115.644 11.3794 115.663 11.2656 115.663 11.1182C115.663 10.8168 115.555 10.5992 115.339 10.4648C115.126 10.3272 114.82 10.2578 114.42 10.2578C113.958 10.2578 113.63 10.3828 113.437 10.6318C113.328 10.7694 113.258 10.9743 113.226 11.2461H112.399C112.416 10.5974 112.626 10.1468 113.029 9.89453C113.436 9.63909 113.906 9.51075 114.439 9.51074ZM115.639 12.2246C115.531 12.2934 115.391 12.3506 115.221 12.3965C115.05 12.4423 114.883 12.4755 114.72 12.4951L114.184 12.5635C113.863 12.6061 113.621 12.6729 113.461 12.7646C113.189 12.9186 113.054 13.1647 113.054 13.502C113.054 13.7575 113.147 13.959 113.334 14.1064C113.521 14.2538 113.742 14.3281 113.997 14.3281C114.308 14.3281 114.61 14.2555 114.901 14.1113C115.393 13.8721 115.639 13.4804 115.639 12.9365V12.2246Z" fill="black"/>
<path fill-rule="evenodd" clip-rule="evenodd" d="M72.5371 10.2783C72.7304 10.0261 72.9619 9.83419 73.2305 9.70312C73.4992 9.56878 73.7909 9.50098 74.1055 9.50098C74.7608 9.50098 75.2919 9.7275 75.6982 10.1797C76.1077 10.6285 76.3124 11.292 76.3125 12.1699C76.3125 13.0021 76.1109 13.6937 75.708 14.2441C75.3051 14.7945 74.7463 15.0702 74.0322 15.0703C73.6326 15.0703 73.2947 14.9735 73.0195 14.7803C72.8557 14.6656 72.6799 14.4818 72.4932 14.2295V14.9033H71.6777V7.6582H72.5371V10.2783ZM74.002 10.293C73.599 10.293 73.2451 10.4421 72.9404 10.7402C72.6391 11.0384 72.4883 11.5302 72.4883 12.2148C72.4883 12.7095 72.5503 13.111 72.6748 13.4189C72.9074 13.9988 73.342 14.289 73.9775 14.2891C74.4558 14.2891 74.8129 14.0986 75.0488 13.7188C75.288 13.3387 75.4082 12.8373 75.4082 12.2148C75.4082 11.6611 75.288 11.2016 75.0488 10.8379C74.8129 10.4745 74.4638 10.293 74.002 10.293Z" fill="black"/>
<path d="M99.4727 9.63867V13.1338C99.4727 13.4023 99.5155 13.6217 99.6006 13.792C99.7579 14.1066 100.051 14.2637 100.48 14.2637C101.096 14.2637 101.515 13.9888 101.738 13.4385C101.859 13.1436 101.921 12.7389 101.921 12.2246V9.63867H102.806V14.9033H101.97L101.979 14.126C101.865 14.3259 101.722 14.4952 101.552 14.6328C101.214 14.908 100.805 15.0459 100.323 15.0459C99.5731 15.0459 99.0621 14.795 98.79 14.2939C98.6426 14.0253 98.5684 13.6657 98.5684 13.2168V9.63867H99.4727Z" fill="black"/>
<path d="M49.915 9.52148C49.9314 9.52148 49.9597 9.52309 49.999 9.52637C50.0383 9.52965 50.1054 9.53609 50.2002 9.5459V10.4795C50.1479 10.4697 50.0985 10.4632 50.0527 10.46C50.0102 10.4567 49.9625 10.4551 49.9102 10.4551C49.4647 10.4551 49.122 10.5994 48.8828 10.8877C48.6439 11.1726 48.5245 11.5018 48.5244 11.875V14.9033H47.6396V9.63867H48.4805V10.5479C48.5494 10.371 48.7179 10.1564 48.9863 9.9043C49.2549 9.6488 49.5646 9.52156 49.915 9.52148Z" fill="black"/>
<path d="M56.7773 9.63867L57.7891 13.7871L58.8164 9.63867H59.8096L60.8418 13.7627L61.918 9.63867H62.8027L61.2744 14.9033H60.3555L59.2842 10.8281L58.2471 14.9033H57.3271L55.8086 9.63867H56.7773Z" fill="black"/>
<path d="M66.1035 9.52148C66.8506 9.52149 67.355 9.78174 67.6172 10.3027C67.7613 10.5878 67.834 10.9956 67.834 11.5264V14.9033H66.9346V11.585C66.9345 11.264 66.887 11.0051 66.792 10.8086C66.6347 10.481 66.3493 10.3174 65.9365 10.3174C65.7268 10.3174 65.5543 10.3383 65.4199 10.3809C65.1776 10.453 64.9647 10.5973 64.7812 10.8135C64.6338 10.9871 64.5371 11.1677 64.4912 11.3545C64.4486 11.538 64.4277 11.8016 64.4277 12.1455V14.9033H63.543V9.63867H64.3828V10.3857C64.6318 10.0777 64.8963 9.857 65.1748 9.72266C65.4533 9.58836 65.7628 9.52148 66.1035 9.52148Z" fill="black"/>
<path d="M93.9707 10.3516C94.1803 10.0863 94.3681 9.89912 94.5352 9.79102C94.8202 9.60424 95.1766 9.51074 95.6025 9.51074C96.3658 9.51084 96.8834 9.77849 97.1553 10.3125C97.3027 10.6041 97.376 11.0087 97.376 11.5264V14.9033H96.4668V11.585C96.4668 11.1986 96.4176 10.9155 96.3193 10.7354C96.1588 10.447 95.8574 10.3027 95.415 10.3027C95.0483 10.3028 94.716 10.4286 94.418 10.6807C94.1198 10.933 93.9707 11.4101 93.9707 12.1113V14.9033H93.0859V7.6582H93.9707V10.3516Z" fill="black"/>
<path d="M109.521 9.52148C110.229 9.52148 110.711 9.77692 110.967 10.2881C111.104 10.5633 111.173 10.9333 111.173 11.3984V14.9033H110.254V11.2461C110.254 10.8957 110.166 10.6545 109.989 10.5234C109.816 10.3924 109.602 10.3271 109.35 10.3271C109.002 10.3272 108.702 10.4432 108.45 10.6758C108.201 10.9084 108.077 11.2969 108.077 11.8408V14.9033H107.178V11.4678C107.178 11.1106 107.135 10.8494 107.05 10.6855C106.915 10.44 106.665 10.3175 106.298 10.3174C105.964 10.3174 105.659 10.4465 105.384 10.7051C105.112 10.9639 104.976 11.433 104.976 12.1113V14.9033H104.091V9.63867H104.966V10.3857C105.175 10.1271 105.366 9.9392 105.536 9.82129C105.828 9.62149 106.158 9.52153 106.528 9.52148C106.948 9.52148 107.285 9.62462 107.541 9.83105C107.685 9.94901 107.817 10.1223 107.935 10.3516C108.131 10.07 108.362 9.86186 108.627 9.72754C108.892 9.58997 109.191 9.52153 109.521 9.52148Z" fill="black"/>
<path d="M120.438 9.52148C121.186 9.52149 121.69 9.78174 121.952 10.3027C122.096 10.5878 122.169 10.9956 122.169 11.5264V14.9033H121.27V11.585C121.269 11.264 121.222 11.0051 121.127 10.8086C120.97 10.481 120.684 10.3174 120.271 10.3174C120.062 10.3174 119.889 10.3383 119.755 10.3809C119.513 10.453 119.3 10.5973 119.116 10.8135C118.969 10.9871 118.872 11.1677 118.826 11.3545C118.784 11.538 118.763 11.8016 118.763 12.1455V14.9033H117.878V9.63867H118.718V10.3857C118.967 10.0777 119.231 9.857 119.51 9.72266C119.788 9.58837 120.098 9.52148 120.438 9.52148Z" fill="black"/>
</svg>
