<svg width="131" height="42" viewBox="0 0 131 42" fill="none" xmlns="http://www.w3.org/2000/svg">
<path d="M0.5 0.5H116C124.008 0.5 130.5 6.99187 130.5 15V41.5H15C6.99187 41.5 0.5 35.0081 0.5 27V0.5Z" fill="black" stroke="#ACACAC"/>
<path d="M17.9605 24.1575C21.4266 26.9643 26.3836 26.9643 29.8497 24.1575L28.5095 22.5026C25.8248 24.6766 21.9854 24.6766 19.3007 22.5026L17.9605 24.1575Z" fill="white"/>
<path d="M19.404 20.5134V17.6365H21.5336V20.5134H19.404Z" fill="white"/>
<path d="M26.012 17.6365V20.5134H28.1415V17.6365H26.012Z" fill="white"/>
<path fill-rule="evenodd" clip-rule="evenodd" d="M35 21.5C35 27.8513 29.8513 33 23.5 33C17.1487 33 12 27.8513 12 21.5C12 15.1487 17.1487 10 23.5 10C29.8513 10 35 15.1487 35 21.5ZM32.8705 21.5C32.8705 26.6752 28.6752 30.8705 23.5 30.8705C18.3248 30.8705 14.1295 26.6752 14.1295 21.5C14.1295 16.3248 18.3248 12.1295 23.5 12.1295C28.6752 12.1295 32.8705 16.3248 32.8705 21.5Z" fill="white"/>
<path fill-rule="evenodd" clip-rule="evenodd" d="M105.32 26.2505C105.32 25.9898 105.336 25.4196 105.336 25.4196H101.424V23.8717H105.573C105.764 26.2238 106.11 28.471 106.651 30.2984C105.776 31.2876 104.759 32.1157 103.612 32.7515C104.107 33.2077 104.953 34.2016 105.288 34.7067C106.138 34.1597 106.93 33.5082 107.658 32.7639C108.338 33.9391 109.193 34.6415 110.254 34.6415C111.898 34.6415 112.649 33.9572 113 30.78C112.377 30.5356 111.563 29.9817 111.036 29.4277C110.956 31.4155 110.765 32.2301 110.445 32.2301C110.06 32.2301 109.67 31.686 109.312 30.7655C110.465 29.1244 111.389 27.1985 112.058 25.0611L109.711 24.4908C109.396 25.6095 108.983 26.659 108.478 27.6243C108.264 26.4884 108.09 25.2105 107.974 23.8717H112.84V21.5418H111.142L111.946 20.6945C111.387 20.1568 110.27 19.4399 109.455 19L108.05 20.4175C108.553 20.7329 109.148 21.1437 109.647 21.5418H107.835C107.811 20.7923 107.808 20.0385 107.827 19.2933H105.384C105.387 20.0364 105.403 20.7892 105.433 21.5418H98.9812V26.4297C98.9812 28.5642 98.9014 31.4481 97.7199 33.3707C98.2468 33.6477 99.3006 34.5275 99.6997 35C100.514 33.7498 100.957 32.0088 101.189 30.2753C101.506 30.8638 101.745 31.7506 101.775 32.4257C102.51 32.4257 103.18 32.4094 103.612 32.3279C104.091 32.2301 104.458 32.0672 104.809 31.5947C105.192 31.0733 105.272 29.5743 105.32 26.2505ZM101.197 30.2141C101.316 29.3052 101.378 28.4 101.406 27.5703H103.058C103.023 29.1922 102.963 29.8644 102.829 30.0631C102.701 30.2261 102.558 30.275 102.35 30.275C102.102 30.275 101.674 30.2596 101.197 30.2141Z" fill="white"/>
<path d="M86.8673 22.112C87.1314 21.4187 87.3672 20.705 87.565 19.9939L85.1541 19.4399C84.6112 21.6395 83.5893 23.8717 82.3599 25.2077C82.9507 25.5336 83.9885 26.2342 84.4515 26.6415C84.9297 26.0332 85.4007 25.2744 85.839 24.4257H88.9062V26.9185H84.7709V29.1996H88.9062V32.002H82.8708V34.3157H97.4005V32.002H91.3332V29.1996H95.9156V26.9185H91.3332V24.4257H96.5543V22.112H91.3332V19.277H88.9062V22.112H86.8673Z" fill="white"/>
<path d="M47.3436 28.4645C47.4377 28.0285 47.4856 27.6141 47.4988 27.2444H43.8462V25.11H47.5026V23.4807H43.6866V21.2811H47.5026V19.3585H49.8018V27C49.8018 29.8513 48.9396 33.0611 45.0278 34.9837C44.6446 34.4134 43.9261 33.6802 43.3672 33.224C44.7784 32.6761 45.7414 31.786 46.3804 30.8057C45.6568 30.9237 44.9507 31.0375 44.2921 31.1436L43.4151 31.2851L43 28.9226C44.1273 28.8236 45.7056 28.6496 47.3436 28.4645Z" fill="white"/>
<path fill-rule="evenodd" clip-rule="evenodd" d="M72.6755 34.3304L67.632 19.7975H64.2696L59.1875 34.3304H62.2986L63.2841 31.3429H68.5305L69.4484 34.3304H72.6755ZM65.9218 23.1201L67.6996 28.8386H64.0861L65.9218 23.1201Z" fill="white"/>
<path d="M53.7456 19.3585V21.2811H57.9289V23.4807H53.7456V25.11H57.5457V27.2444H53.7456V28.9063H58.2163V31.1059H53.7456V34.7556H51.4144V19.3585H53.7456Z" fill="white"/>
<path d="M75.2124 22.2695V31.8617H73.4582V34.3337H79.7189V31.8617H78.169V22.2695H79.7189V19.7975H73.4582V22.2695H75.2124Z" fill="white"/>
<path d="M64.2744 11.5367C63.7918 11.6938 63.3525 11.8311 63.0011 11.9304L63.2217 12.6543C63.5448 12.5315 63.9014 12.3949 64.2744 12.2504V15.1293C64.2744 15.2565 64.2242 15.2859 64.114 15.2859C63.9937 15.2957 63.6528 15.2957 63.2618 15.2859C63.362 15.4815 63.4422 15.7848 63.4723 15.9707C64.0538 15.9707 64.4147 15.9511 64.6453 15.8337C64.8859 15.7163 64.9662 15.5109 64.9662 15.1293V11.9804C65.2692 11.8612 65.576 11.7393 65.8785 11.6174L65.7582 11.0402C65.4922 11.1309 65.2263 11.221 64.9662 11.308V9.44565H65.8785V8.77065H64.9662V7H64.2744V8.77065H63.1415V9.44565H64.2744V11.5367Z" fill="white"/>
<path fill-rule="evenodd" clip-rule="evenodd" d="M72.2549 10.7859C71.9227 10.8002 71.5874 10.8143 71.2523 10.8281V7.97826H72.1446V7.43044H65.9186V7.97826H66.7006V10.9931C66.4731 10.9998 66.2585 11.0057 66.059 11.0109L66.1492 11.6076C67.3291 11.5563 68.9259 11.483 70.5806 11.4V11.8326H71.2523V11.366C71.5837 11.349 71.9155 11.3317 72.2449 11.3141L72.2549 10.7859ZM67.3824 10.972C68.3359 10.9412 69.4445 10.9007 70.5806 10.8554V10.2478H67.3824V10.972ZM70.5806 7.97826H67.3824V8.6337H70.5806V7.97826ZM70.5806 9.10326H67.3824V9.77826H70.5806V9.10326Z" fill="white"/>
<path d="M67.2867 13.8099C67.5343 13.4747 67.7459 13.1063 67.9061 12.713H65.7582V12.1065H68.1945L68.3047 12.087L68.7158 12.2435C68.5083 12.9781 68.1851 13.6272 67.7852 14.1818C68.0984 14.4235 68.3758 14.6546 68.5754 14.8457L68.1343 15.2859C67.9498 15.1024 67.6975 14.8819 67.4108 14.6493C66.8948 15.2305 66.2899 15.6791 65.6579 15.9804C65.5777 15.8337 65.3973 15.5891 65.2669 15.462C65.8487 15.2065 66.4258 14.7909 66.9143 14.2605C66.5293 13.9687 66.1202 13.6789 65.7482 13.437L66.1692 13.0554C66.5212 13.2747 66.9127 13.5396 67.2867 13.8099Z" fill="white"/>
<path fill-rule="evenodd" clip-rule="evenodd" d="M71.6734 12.0674L71.5531 12.0967H68.776V12.7033H69.0311C69.2472 13.3774 69.5507 13.9815 69.9408 14.4951C69.4123 14.9367 68.7987 15.2627 68.1644 15.462C68.2947 15.5989 68.4551 15.8435 68.5253 16C69.1755 15.7631 69.7954 15.4174 70.3376 14.9554C70.7785 15.4055 71.3043 15.7604 71.914 16C72.0143 15.8239 72.2148 15.5696 72.3652 15.4326C71.7614 15.2334 71.2385 14.9166 70.803 14.5086C71.3616 13.9037 71.8018 13.1457 72.0544 12.2239L71.6734 12.0674ZM70.3926 14.0656C70.7531 13.6755 71.0525 13.2197 71.2619 12.7033H69.6292C69.8153 13.2068 70.0711 13.6664 70.3926 14.0656Z" fill="white"/>
<path d="M81.5689 15.8142C81.8797 15.6772 82 15.462 82 14.9729V7.0979H81.2681V14.9827C81.2681 15.149 81.218 15.1881 81.0576 15.1979C80.8771 15.1979 80.3157 15.1979 79.7241 15.1783C79.8244 15.4131 79.9347 15.7457 79.9748 15.9609C80.7167 15.9609 81.2681 15.9414 81.5689 15.8142Z" fill="white"/>
<path d="M74.8316 7.36203C74.7483 7.714 74.6471 8.06832 74.5328 8.40877H75.6035V7.02942H76.3154V8.40877H78.3606V9.08377H76.3154V10.1109H78.7617V10.7859H76.3154V11.774H78.4007V14.4642C78.4007 14.7968 78.3506 14.9827 78.1 15.1001C77.8594 15.2175 77.4784 15.2272 76.9169 15.2175C76.8969 15.0316 76.8066 14.7675 76.7064 14.5816C77.1375 14.5914 77.4583 14.5914 77.5786 14.5816C77.6789 14.5816 77.709 14.5522 77.709 14.4544V12.4392H76.3154V15.9903H75.6035V12.4392H74.2902V15.1881H73.6084V11.774H75.6035V10.7859H73.1472V10.1109H75.6035V9.08377H74.2813C74.1248 9.46211 73.9545 9.80418 73.7789 10.0816C73.6285 10.0033 73.2976 9.87616 73.1172 9.81746C73.5683 9.15225 73.9192 8.17399 74.1298 7.22507L74.8316 7.36203Z" fill="white"/>
<path d="M57.232 7.21515C57.2335 7.1489 57.2349 7.08655 57.2364 7.02942H58.0685L58.0676 7.07178C58.0595 7.42129 58.0487 7.89336 58.0038 8.44297C58.1451 9.59338 58.7556 13.7428 62.3295 15.2957C62.1089 15.462 61.8884 15.7164 61.7781 15.9218C59.2574 14.7728 58.1714 12.358 57.6785 10.53C57.2061 12.4882 56.1385 14.6778 53.6873 15.9609C53.5569 15.7653 53.3063 15.5403 53.0757 15.3838C57.0948 13.3994 57.1946 8.90171 57.2319 7.21847L57.232 7.21739L57.232 7.21515Z" fill="white"/>
<path d="M48.5643 14.7676L49.0355 14.2784C50.1684 14.6306 51.4016 15.0904 52.1335 15.4621L51.5219 15.9708C50.8402 15.5991 49.6972 15.1295 48.5643 14.7676Z" fill="white"/>
<path d="M46.0879 14.2784L46.7797 14.7089C45.9376 15.2078 44.5941 15.7165 43.5213 15.9904C43.4111 15.8437 43.1604 15.5893 43 15.4524C44.0728 15.198 45.4162 14.6991 46.0879 14.2784Z" fill="white"/>
<path d="M79.4835 7.89029H80.1853V13.3099H79.4835V7.89029Z" fill="white"/>
<path fill-rule="evenodd" clip-rule="evenodd" d="M44.6342 13.4958H43.1905V14.1219H52.0934V13.4958H50.6797V9.0741H47.9026V8.45779H51.8327V7.82192H47.9026V7.00997H47.1607V7.82192H43.4712V8.45779H47.1607V9.0741H44.6342V13.4958ZM45.3561 13.4958H49.9278V12.8111H45.3561V13.4958ZM45.3561 12.3415H49.9278V11.7545H45.3561V12.3415ZM45.3561 11.2752H49.9278V10.698H45.3561V11.2752ZM45.3561 10.2382H49.9278V9.59257H45.3561V10.2382Z" fill="white"/>
</svg>
