<svg width="131" height="42" viewBox="0 0 131 42" fill="none" xmlns="http://www.w3.org/2000/svg">
<path d="M0.5 0.5H116C124.008 0.5 130.5 6.99187 130.5 15V41.5H15C6.99187 41.5 0.5 35.0081 0.5 27V0.5Z" fill="white" stroke="black"/>
<path d="M29.8497 24.1575C26.3836 26.9643 21.4266 26.9643 17.9605 24.1575L19.3007 22.5026C21.9854 24.6766 25.8248 24.6766 28.5095 22.5026L29.8497 24.1575Z" fill="black"/>
<path d="M19.404 17.6365V20.5134H21.5336V17.6365H19.404Z" fill="black"/>
<path d="M26.012 17.6365V20.5134H28.1415V17.6365H26.012Z" fill="black"/>
<path fill-rule="evenodd" clip-rule="evenodd" d="M23.5 33C29.8513 33 35 27.8513 35 21.5C35 15.1487 29.8513 10 23.5 10C17.1487 10 12 15.1487 12 21.5C12 27.8513 17.1487 33 23.5 33ZM23.5 30.8705C28.6752 30.8705 32.8705 26.6752 32.8705 21.5C32.8705 16.3248 28.6752 12.1295 23.5 12.1295C18.3248 12.1295 14.1295 16.3248 14.1295 21.5C14.1295 26.6752 18.3248 30.8705 23.5 30.8705Z" fill="black"/>
<path d="M42.9227 8.44875C42.8082 8.61784 42.7444 8.88449 42.7313 9.24869V10.0681H42V10.7608H42.7313V15.2678H43.605V10.7608H44.4885V10.0681H43.6148C43.6148 9.50233 43.641 9.15114 43.6933 9.01456C43.7457 8.87473 43.906 8.80482 44.1743 8.80482C44.2103 8.80482 44.248 8.80645 44.2872 8.8097C44.3298 8.8097 44.3969 8.81295 44.4885 8.81945V8.01951C44.4132 8.01301 44.3461 8.00813 44.2872 8.00488C44.2283 8.00163 44.1711 8 44.1155 8C43.5265 8 43.1289 8.14958 42.9227 8.44875Z" fill="black"/>
<path d="M86.886 11.0778C86.5883 11.3282 86.4394 11.8013 86.4394 12.4972V15.2677H85.5559V8.07802H86.4394V10.751C86.6488 10.4876 86.8369 10.3022 87.0038 10.1949C87.2885 10.0096 87.6435 9.91691 88.0689 9.91691C88.8313 9.91691 89.3483 10.1819 89.6199 10.712C89.7672 11.0014 89.8408 11.403 89.8408 11.9168V15.2677H88.9328V11.9753C88.9328 11.5916 88.8837 11.3103 88.7855 11.1315C88.6252 10.8453 88.3241 10.7022 87.8824 10.7022C87.5159 10.7022 87.1838 10.8274 86.886 11.0778Z" fill="black"/>
<path fill-rule="evenodd" clip-rule="evenodd" d="M107.937 12.1022C108.14 12.0761 108.276 11.9916 108.345 11.8485C108.384 11.7705 108.404 11.6583 108.404 11.512C108.404 11.2128 108.296 10.9965 108.08 10.8632C107.867 10.7266 107.561 10.6584 107.162 10.6584C106.7 10.6584 106.373 10.7819 106.18 11.0291C106.072 11.1656 106.002 11.3689 105.969 11.6388H105.145C105.161 10.9949 105.37 10.5478 105.773 10.2974C106.179 10.0438 106.648 9.91694 107.181 9.91694C107.8 9.91694 108.302 10.034 108.688 10.2681C109.071 10.5023 109.263 10.8665 109.263 11.3607V14.3703C109.263 14.4613 109.281 14.5345 109.317 14.5898C109.356 14.6451 109.436 14.6727 109.557 14.6727C109.596 14.6727 109.641 14.6711 109.69 14.6678C109.739 14.6613 109.791 14.6532 109.847 14.6434V15.2922C109.709 15.3312 109.605 15.3556 109.533 15.3653C109.461 15.3751 109.362 15.38 109.238 15.38C108.934 15.38 108.713 15.2727 108.575 15.058C108.503 14.9442 108.453 14.7833 108.423 14.5751C108.243 14.8093 107.985 15.0125 107.648 15.1849C107.311 15.3572 106.939 15.4434 106.534 15.4434C106.046 15.4434 105.647 15.297 105.336 15.0044C105.028 14.7085 104.875 14.3394 104.875 13.8971C104.875 13.4126 105.027 13.037 105.331 12.7704C105.635 12.5037 106.035 12.3395 106.529 12.2778L107.937 12.1022ZM105.797 13.8776C105.797 14.1313 105.891 14.3313 106.077 14.4776C106.264 14.6239 106.485 14.6971 106.74 14.6971C107.051 14.6971 107.352 14.6255 107.643 14.4825C108.134 14.2451 108.379 13.8565 108.379 13.3167V12.6094C108.271 12.6777 108.132 12.7346 107.962 12.7802C107.792 12.8257 107.625 12.8582 107.461 12.8777L106.926 12.946C106.606 12.9883 106.365 13.0549 106.205 13.146C105.933 13.2988 105.797 13.5427 105.797 13.8776Z" fill="black"/>
<path d="M111.662 11.746C111.62 11.9281 111.599 12.1899 111.599 12.5313V15.2677H110.715V10.0437H111.554V10.7851C111.803 10.4794 112.067 10.2599 112.345 10.1266C112.623 9.9933 112.932 9.92664 113.272 9.92664C114.018 9.92664 114.522 10.1852 114.784 10.7022C114.928 10.9851 115 11.3899 115 11.9167V15.2677H114.102V11.9753C114.102 11.6566 114.054 11.3997 113.959 11.2046C113.802 10.8794 113.518 10.7168 113.105 10.7168C112.896 10.7168 112.724 10.738 112.59 10.7802C112.348 10.8518 112.135 10.9949 111.952 11.2095C111.805 11.3818 111.708 11.5607 111.662 11.746Z" fill="black"/>
<path fill-rule="evenodd" clip-rule="evenodd" d="M93.0604 32.1609L97.6682 19.3289H100.717L105.289 32.1609H102.364L101.531 29.5231H96.7747L95.8811 32.1609H93.0604ZM99.1662 22.2627L97.5018 27.3119H100.778L99.1662 22.2627Z" fill="black"/>
<path fill-rule="evenodd" clip-rule="evenodd" d="M80.3256 23.8123C79.6189 22.9127 78.6378 22.4629 77.3822 22.4629C76.6872 22.4629 76.1149 22.608 75.6652 22.8982C75.2856 23.1303 74.9381 23.4669 74.6228 23.908V19.3463H72.1349V32.1609H74.579V30.9682C74.9119 31.4325 75.2214 31.7575 75.5075 31.9432C75.9864 32.2566 76.6201 32.4133 77.4085 32.4133C78.6641 32.4133 79.6423 31.9287 80.3431 30.9595C81.0439 29.9903 81.3943 28.7686 81.3943 27.2945C81.3943 25.8726 81.038 24.7118 80.3256 23.8123ZM78.2407 29.5927C77.8844 30.1093 77.3851 30.3675 76.7427 30.3675C76.001 30.3675 75.4491 30.1006 75.0871 29.5666C74.725 29.0327 74.5439 28.3595 74.5439 27.5469C74.5439 26.8563 74.6315 26.2933 74.8067 25.8581C75.1455 25.0397 75.7674 24.6306 76.6726 24.6306C77.5661 24.6306 78.1793 25.0485 78.5122 25.8842C78.6874 26.3253 78.775 26.8824 78.775 27.5556C78.775 28.3972 78.5969 29.0762 78.2407 29.5927Z" fill="black"/>
<path d="M66.3375 30.2718C66.2382 30.1731 66.1886 29.9293 66.1886 29.5405V24.5261H67.7391V22.7589H66.1886V20.1124H63.7182V22.7589H62.3867V24.5261H63.7182V30.3675C63.7182 30.9595 63.8584 31.3977 64.1387 31.6821C64.5709 32.1289 65.3768 32.3321 66.5565 32.2914L67.7391 32.2479V30.3936C67.6573 30.3994 67.5727 30.4053 67.4851 30.4111H67.2485C66.7405 30.4111 66.4368 30.3646 66.3375 30.2718Z" fill="black"/>
<path fill-rule="evenodd" clip-rule="evenodd" d="M61.0808 31.0117C61.8867 30.0193 62.2897 28.8267 62.2897 27.4338C62.2897 26.0641 61.8867 24.8772 61.0808 23.8732C60.2749 22.8692 59.0514 22.3671 57.4103 22.3671C55.7693 22.3671 54.5458 22.8692 53.7399 23.8732C52.9339 24.8772 52.531 26.0641 52.531 27.4338C52.531 28.8267 52.9339 30.0193 53.7399 31.0117C54.5458 31.9984 55.7693 32.4917 57.4103 32.4917C59.0514 32.4917 60.2749 31.9984 61.0808 31.0117ZM59.0835 29.6363C58.6922 30.1528 58.1316 30.4111 57.4016 30.4111C56.6716 30.4111 56.108 30.1528 55.7109 29.6363C55.3196 29.1197 55.124 28.3856 55.124 27.4338C55.124 26.482 55.3196 25.7507 55.7109 25.24C56.108 24.7234 56.6716 24.4652 57.4016 24.4652C58.1316 24.4652 58.6922 24.7234 59.0835 25.24C59.4748 25.7507 59.6704 26.482 59.6704 27.4338C59.6704 28.3856 59.4748 29.1197 59.0835 29.6363Z" fill="black"/>
<path d="M48.159 22.4455C49.146 22.4455 49.9519 22.7038 50.5768 23.2203C51.2075 23.731 51.5229 24.5813 51.5229 25.771V32.1609H48.9649V26.3891C48.9649 25.89 48.8978 25.5069 48.7635 25.24C48.5182 24.7525 48.051 24.5087 47.3619 24.5087C46.5151 24.5087 45.934 24.8656 45.6186 25.5795C45.4551 25.9567 45.3733 26.4384 45.3733 27.0246V32.1609H42.8855V22.6893H45.2945V24.0734C45.6157 23.5859 45.9194 23.2348 46.2055 23.0201C46.7195 22.637 47.3706 22.4455 48.159 22.4455Z" fill="black"/>
<path d="M82.8579 33.9803L83.1733 33.9977C83.4186 34.0093 83.6522 34.0006 83.8741 33.9716C84.096 33.9426 84.2829 33.8759 84.4347 33.7714C84.5807 33.6727 84.715 33.4667 84.8377 33.1533C84.9662 32.8399 85.0187 32.6484 84.9954 32.5787L81.4913 22.6718H84.2683L86.3532 29.6711L88.3242 22.6718H90.9785L87.7022 32.0042C87.0715 33.8033 86.5722 34.9176 86.2042 35.3471C85.8363 35.7824 85.1005 36 83.9967 36C83.7748 36 83.5967 35.9971 83.4623 35.9913C83.328 35.9913 83.1266 35.9826 82.8579 35.9652V33.9803Z" fill="black"/>
<path d="M98.0372 11.1022C97.7656 11.3591 97.6298 11.8241 97.6298 12.4972V15.2677H96.7463V10.0437H97.62V10.7851C97.8294 10.5282 98.0192 10.3412 98.1893 10.2242C98.4806 10.0258 98.8111 9.92664 99.1808 9.92664C99.5996 9.92664 99.9367 10.0291 100.192 10.2339C100.336 10.351 100.467 10.5233 100.585 10.751C100.781 10.4713 101.012 10.2648 101.277 10.1315C101.542 9.99492 101.839 9.92664 102.17 9.92664C102.877 9.92664 103.358 10.1803 103.613 10.6876C103.75 10.9607 103.819 11.3282 103.819 11.7899V15.2677H102.901V11.6387C102.901 11.2908 102.813 11.0518 102.636 10.9217C102.463 10.7916 102.25 10.7266 101.998 10.7266C101.651 10.7266 101.352 10.842 101.1 11.0729C100.851 11.3038 100.727 11.6891 100.727 12.2289V15.2677H99.8287V11.8582C99.8287 11.5038 99.7862 11.2452 99.7011 11.0827C99.5669 10.8388 99.3166 10.7168 98.9501 10.7168C98.6164 10.7168 98.312 10.8453 98.0372 11.1022Z" fill="black"/>
<path d="M91.3525 14.6628C91.2052 14.3962 91.1316 14.0401 91.1316 13.5946V10.0437H92.0347V13.5117C92.0347 13.7783 92.0773 13.9962 92.1623 14.1653C92.3194 14.4775 92.6123 14.6336 93.0409 14.6336C93.6561 14.6336 94.0749 14.3604 94.2974 13.8141C94.4185 13.5215 94.479 13.1199 94.479 12.6093V10.0437H95.3625V15.2677H94.5281L94.5379 14.497C94.4234 14.6954 94.2811 14.8628 94.1109 14.9994C93.7739 15.2726 93.3649 15.4091 92.8838 15.4091C92.1345 15.4091 91.6241 15.1604 91.3525 14.6628Z" fill="black"/>
<path d="M81.1629 12.3362C81.5915 11.1428 81.868 10.3786 81.9924 10.0437H81.0156L79.5971 14.297L78.1885 10.0437H77.1872L79.1309 15.4189C79.0851 15.5359 79.0114 15.7148 78.91 15.9554C78.8086 16.1961 78.7497 16.3294 78.7333 16.3554C78.6809 16.4334 78.6155 16.4985 78.537 16.5505C78.4617 16.6058 78.3423 16.6334 78.1787 16.6334C78.1263 16.6334 78.0658 16.6286 77.9971 16.6188C77.9283 16.609 77.8171 16.583 77.6633 16.5408V17.3407C77.7615 17.3667 77.8433 17.3846 77.9087 17.3943C77.9774 17.4041 78.074 17.409 78.1983 17.409C78.7088 17.409 79.0687 17.2627 79.2781 16.97C79.4875 16.6773 79.8475 15.8644 80.3579 14.5311C80.5739 13.9653 80.8422 13.2337 81.1629 12.3362Z" fill="black"/>
<path fill-rule="evenodd" clip-rule="evenodd" d="M73.6189 10.1071C73.3506 10.2372 73.1199 10.4274 72.9268 10.6778V8.07802H72.0679V15.2677H72.8827V14.5995C73.0692 14.8499 73.2442 15.032 73.4078 15.1458C73.6827 15.3377 74.0197 15.4336 74.4189 15.4336C75.1323 15.4336 75.6902 15.1604 76.0926 14.6141C76.4951 14.0678 76.6964 13.3817 76.6964 12.5557C76.6964 11.6843 76.4918 11.0258 76.0828 10.5803C75.6771 10.1315 75.147 9.90715 74.4926 9.90715C74.1784 9.90715 73.8872 9.97381 73.6189 10.1071ZM75.4349 14.0922C75.1993 14.4694 74.8427 14.658 74.3649 14.658C73.7301 14.658 73.2966 14.3702 73.0643 13.7947C72.9399 13.489 72.8777 13.0907 72.8777 12.5996C72.8777 11.92 73.0283 11.4322 73.3293 11.1363C73.6336 10.8404 73.987 10.6925 74.3895 10.6925C74.8509 10.6925 75.1993 10.8729 75.4349 11.2339C75.6738 11.5948 75.7932 12.0501 75.7932 12.5996C75.7932 13.2175 75.6738 13.715 75.4349 14.0922Z" fill="black"/>
<path fill-rule="evenodd" clip-rule="evenodd" d="M66.6443 10.2047C66.3728 10.0356 66.0357 9.95105 65.6333 9.95105C64.9068 9.95105 64.3473 10.2307 63.9546 10.79C63.5652 11.3461 63.3706 12.0046 63.3706 12.7655C63.3706 13.5784 63.5849 14.2304 64.0135 14.7214C64.4422 15.2092 64.9494 15.4531 65.5351 15.4531C65.8983 15.4531 66.2206 15.3816 66.502 15.2385C66.7834 15.0954 67.0272 14.8629 67.2333 14.541V15.2677H68.0285V8.07802H67.1793V10.7168C66.9797 10.473 66.8014 10.3022 66.6443 10.2047ZM64.6614 14.1215C64.4226 13.7443 64.3031 13.276 64.3031 12.7167C64.3031 12.0598 64.4405 11.5623 64.7154 11.2241C64.9935 10.8859 65.3551 10.7168 65.8001 10.7168C66.1993 10.7168 66.5347 10.8762 66.8063 11.1949C67.0779 11.5103 67.2137 11.9981 67.2137 12.6582C67.2137 13.3118 67.0812 13.8142 66.8161 14.1654C66.5544 14.5133 66.219 14.6873 65.8099 14.6873C65.2831 14.6873 64.9003 14.4987 64.6614 14.1215Z" fill="black"/>
<path fill-rule="evenodd" clip-rule="evenodd" d="M61.4221 10.19C61.072 10.0144 60.7104 9.92664 60.3374 9.92664C59.5979 9.92664 58.9991 10.1884 58.541 10.7119C58.0829 11.2355 57.8538 11.9167 57.8538 12.7557C57.8538 13.6077 58.0813 14.271 58.5361 14.7458C58.9909 15.2173 59.5455 15.4531 60.2 15.4531C60.4683 15.4531 60.7088 15.4271 60.9215 15.375C61.3174 15.284 61.6495 15.1084 61.9179 14.8482C62.0782 14.6986 62.2222 14.5068 62.3498 14.2727C62.4807 14.0353 62.5576 13.8207 62.5805 13.6288H61.7117C61.6463 13.8597 61.535 14.0629 61.378 14.2385C61.1031 14.5409 60.735 14.6921 60.2736 14.6921C59.7795 14.6921 59.4147 14.5328 59.1791 14.2141C58.9435 13.8922 58.8175 13.4662 58.8011 12.9362H62.6541C62.6541 12.4094 62.6279 12.0257 62.5756 11.785C62.5167 11.4338 62.3989 11.1265 62.2222 10.8632C62.0389 10.5868 61.7723 10.3624 61.4221 10.19ZM61.4958 11.3265C61.6266 11.5542 61.7101 11.8582 61.7461 12.2387H58.8257C58.842 11.7899 58.9876 11.4208 59.2625 11.1314C59.5374 10.8388 59.8777 10.6924 60.2834 10.6924C60.8495 10.6924 61.2536 10.9038 61.4958 11.3265Z" fill="black"/>
<path d="M51.2178 10.2242C51.0477 10.3412 50.8579 10.5282 50.6485 10.7851V10.0437H49.7748V15.2677H50.6583V12.4972C50.6583 11.8241 50.7941 11.3591 51.0657 11.1022C51.3405 10.8453 51.6448 10.7168 51.9786 10.7168C52.3451 10.7168 52.5954 10.8388 52.7296 11.0827C52.8146 11.2452 52.8572 11.5038 52.8572 11.8582V15.2677H53.7554V12.2289C53.7554 11.6891 53.8797 11.3038 54.1284 11.0729C54.3804 10.842 54.6798 10.7266 55.0266 10.7266C55.2786 10.7266 55.4913 10.7916 55.6647 10.9217C55.8414 11.0518 55.9297 11.2908 55.9297 11.6387V15.2677H56.8476V11.7899C56.8476 11.3282 56.7788 10.9607 56.6414 10.6876C56.3862 10.1803 55.9052 9.92664 55.1984 9.92664C54.8679 9.92664 54.5701 9.99492 54.3051 10.1315C54.04 10.2648 53.8094 10.4713 53.613 10.751C53.4952 10.5233 53.3643 10.351 53.2204 10.2339C52.9651 10.0291 52.6281 9.92664 52.2093 9.92664C51.8395 9.92664 51.509 10.0258 51.2178 10.2242Z" fill="black"/>
<path d="M45.3376 8.10243V9.09748H46.2211V8.10243H45.3376Z" fill="black"/>
<path d="M45.3376 10.0681H46.2211V15.2678H45.3376V10.0681Z" fill="black"/>
<path d="M107.59 29.9811V21.5116H105.999V19.3289H111.675V21.5116H110.27V29.9811H111.675V32.1638H105.999V29.9811H107.59Z" fill="black"/>
<path d="M48.4446 8.10249H47.5611V15.2678H48.4446V8.10249Z" fill="black"/>
</svg>
