<svg width="131" height="42" viewBox="0 0 131 42" fill="none" xmlns="http://www.w3.org/2000/svg">
<path d="M0.5 0.5H116C124.008 0.5 130.5 6.99187 130.5 15V41.5H15C6.99187 41.5 0.5 35.0081 0.5 27V0.5Z" fill="black" stroke="#ACACAC"/>
<path d="M17.9605 24.1575C21.4266 26.9643 26.3836 26.9643 29.8497 24.1575L28.5095 22.5026C25.8248 24.6766 21.9854 24.6766 19.3007 22.5026L17.9605 24.1575Z" fill="white"/>
<path d="M19.404 20.5134V17.6365H21.5336V20.5134H19.404Z" fill="white"/>
<path d="M26.012 17.6365V20.5134H28.1415V17.6365H26.012Z" fill="white"/>
<path fill-rule="evenodd" clip-rule="evenodd" d="M35 21.5C35 27.8513 29.8513 33 23.5 33C17.1487 33 12 27.8513 12 21.5C12 15.1487 17.1487 10 23.5 10C29.8513 10 35 15.1487 35 21.5ZM32.8705 21.5C32.8705 26.6752 28.6752 30.8705 23.5 30.8705C18.3248 30.8705 14.1295 26.6752 14.1295 21.5C14.1295 16.3248 18.3248 12.1295 23.5 12.1295C28.6752 12.1295 32.8705 16.3248 32.8705 21.5Z" fill="white"/>
<path d="M74.5104 7.1759C74.4484 7.34987 74.3759 7.52815 74.2963 7.70358H75.2364V7H75.883V7.70358H77.6534V8.2215H75.883V8.81759H78.0015V9.35505H75.883V9.87296H77.733V11.0651C77.733 11.3388 77.6932 11.4756 77.4843 11.5635C77.2755 11.6515 76.9771 11.6515 76.5394 11.6515C76.5137 11.5168 76.4364 11.3676 76.3709 11.2414L76.3703 11.2403C76.3665 11.2328 76.3626 11.2255 76.3589 11.2182C76.3526 11.206 76.3464 11.1941 76.3405 11.1824C76.6588 11.1922 76.9174 11.1922 76.997 11.1824C77.0865 11.1726 77.1163 11.1531 77.1163 11.0749V10.3713H75.883V11.9642H75.2364V10.3713H74.0926V11.7101H73.4958V9.87296H75.2364V9.35505H72.9786V8.81759H75.2364V8.2215H74.0353C73.9125 8.44142 73.7829 8.64279 73.655 8.80782C73.5356 8.71987 73.267 8.59283 73.1179 8.52443C73.466 8.12378 73.7445 7.56678 73.9235 7.03909L74.5104 7.1759Z" fill="white"/>
<path d="M80.9755 11.8078C81.254 11.7003 81.3336 11.5342 81.3336 11.1531V7.09772H80.6572V11.1433C80.6572 11.2704 80.6175 11.3094 80.4683 11.3094C80.329 11.3192 79.8416 11.3192 79.2946 11.2997C79.394 11.4853 79.5035 11.7296 79.5333 11.9153C80.2395 11.9153 80.697 11.9055 80.9755 11.8078Z" fill="white"/>
<path d="M76.9373 11.7296C77.0415 11.9117 77.1525 12.1369 77.2408 12.3453H73.0184V12.9414H76.5096C75.5409 13.5203 74.1138 13.9859 72.8493 14.2117C72.9886 14.3485 73.1775 14.5928 73.267 14.759C73.8228 14.6435 74.413 14.4753 74.9878 14.2671V14.7101C74.9878 15.1596 74.7292 15.355 74.57 15.4528C74.6623 15.5615 74.7802 15.8049 74.8365 15.9643L74.8386 16L74.8469 15.9949L74.8485 16L74.8487 15.9938C75.0388 15.8798 75.3725 15.7937 77.9717 15.1889C77.9618 15.0521 77.9717 14.8078 77.9916 14.6319L75.694 15.1162V13.9872C76.3615 13.6984 76.9766 13.3589 77.4517 12.9908C78.2164 14.5283 79.5879 15.4811 81.5823 15.873C81.6718 15.6873 81.8608 15.4235 82 15.2769C81.0478 15.1217 80.23 14.8323 79.565 14.4155C80.1605 14.1423 80.8434 13.7834 81.3833 13.4104L80.8363 13.0293C80.3894 13.3501 79.6679 13.7585 79.063 14.0527C78.682 13.7354 78.3687 13.3643 78.1281 12.9414H81.8707V12.3453H78.0556C77.95 12.0974 77.7836 11.7779 77.6236 11.5342L76.9373 11.7296Z" fill="white"/>
<path d="M64.0962 11.5203C63.6454 11.7824 63.2304 12.015 62.9026 12.1889L63.1612 12.8729C63.4503 12.7033 63.767 12.5145 64.0962 12.3163V15.0716C64.0962 15.1986 64.0464 15.228 63.9271 15.228C63.8177 15.2377 63.4695 15.2377 63.0717 15.228C63.1711 15.4234 63.2607 15.7361 63.2806 15.912C63.8674 15.9218 64.2354 15.8925 64.4642 15.7752C64.7029 15.6579 64.7924 15.4625 64.7924 15.0716V11.8945C65.0588 11.7322 65.3265 11.5682 65.5881 11.4071L65.3792 10.7524C65.1843 10.8724 64.9875 10.9919 64.7924 11.1089V9.65793H65.6379V8.97389H64.7924V7.00972H64.0962V8.97389H63.0021V9.65793H64.0962V11.5203Z" fill="white"/>
<path fill-rule="evenodd" clip-rule="evenodd" d="M66.9093 15.0038C67.2055 14.9744 67.5138 14.9438 67.8261 14.9122V15.9804H68.4129V11.9739H68.7511V11.4364H65.7373V11.9739H66.175V14.5278C65.9608 14.5413 65.7605 14.5534 65.5782 14.5635L65.6577 15.1302C66.0355 15.0907 66.4591 15.0486 66.9079 15.004L66.9093 15.0038ZM67.6806 14.4278L67.8261 14.4179V13.9185H66.7618V14.4897C67.0543 14.4703 67.3631 14.4493 67.6806 14.4278ZM67.8261 11.9739H66.7618V12.482H67.8261V11.9739ZM67.8261 12.9218H66.7618V13.469H67.8261V12.9218Z" fill="white"/>
<path d="M57.1193 7.22463C57.1208 7.15846 57.1222 7.09617 57.1237 7.03911H57.9492L57.9483 7.08142C57.9403 7.43055 57.9295 7.9021 57.885 8.45112C58.0252 9.60028 58.6308 13.7452 62.1765 15.2964C61.9576 15.4626 61.7388 15.7166 61.6294 15.9218C59.1287 14.7741 58.0513 12.3619 57.5623 10.5359C57.0937 12.492 56.0345 14.6792 53.6027 15.9609C53.4734 15.7655 53.2247 15.5407 52.9959 15.3844C56.9832 13.4022 57.0822 8.90936 57.1193 7.22795L57.1193 7.22687L57.1193 7.22463Z" fill="white"/>
<path d="M48.5203 14.7686L48.9877 14.28C50.1117 14.6318 51.3351 15.0911 52.0612 15.4624L51.4545 15.9706C50.7781 15.5992 49.6442 15.1302 48.5203 14.7686Z" fill="white"/>
<path d="M46.0635 14.28L46.7498 14.71C45.9143 15.2084 44.5815 15.7165 43.5172 15.9901C43.4078 15.8435 43.1591 15.5895 43 15.4527C44.0643 15.1986 45.3971 14.7002 46.0635 14.28Z" fill="white"/>
<path d="M78.7674 7.50814H79.4438V10.7134H78.7674V7.50814Z" fill="white"/>
<path fill-rule="evenodd" clip-rule="evenodd" d="M66.1153 7.36151H71.7648V7.89897H70.7006V10.2345H72.0135V10.7915H70.7006V11.2214H69.9944V10.7915H65.8467V10.2345H67.0602V7.89897H66.1153V7.36151ZM67.7564 7.89897H69.9944V8.36802H67.7564V7.89897ZM67.7564 8.79799H69.9944V9.29636H67.7564V8.79799ZM67.7564 9.72633H69.9944V10.2345H67.7564V9.72633Z" fill="white"/>
<path fill-rule="evenodd" clip-rule="evenodd" d="M68.9202 11.4364H72.0533V11.9739H71.5958V14.456H72.0732V14.9934H71.5958V15.9804H71.0089V14.9934H68.8307V14.456H69.328V11.9739H68.9202V11.4364ZM69.9148 11.9739H71.0089V12.4723H69.9148V11.9739ZM69.9148 12.912H71.0089V13.4495H69.9148V12.912ZM69.9148 13.899H71.0089V14.456H69.9148V13.899Z" fill="white"/>
<path fill-rule="evenodd" clip-rule="evenodd" d="M44.6213 13.4983H43.189V14.1237H52.0214V13.4983H50.619V9.08132H47.8638V8.46569H51.7628V7.83051H47.8638V7.01943H47.1278V7.83051H43.4675V8.46569H47.1278V9.08132H44.6213V13.4983ZM45.3374 13.4983H49.873V12.8142H45.3374V13.4983ZM45.3374 12.3452H49.873V11.7588H45.3374V12.3452ZM45.3374 11.28H49.873V10.7035H45.3374V11.28ZM45.3374 10.2442H49.873V9.59924H45.3374V10.2442Z" fill="white"/>
<path fill-rule="evenodd" clip-rule="evenodd" d="M105.32 26.2505C105.32 25.9898 105.336 25.4196 105.336 25.4196H101.424V23.8717H105.573C105.764 26.2238 106.11 28.471 106.651 30.2984C105.776 31.2876 104.759 32.1157 103.612 32.7515C104.107 33.2077 104.953 34.2016 105.288 34.7067C106.138 34.1597 106.93 33.5082 107.658 32.7639C108.338 33.9391 109.193 34.6415 110.254 34.6415C111.898 34.6415 112.649 33.9572 113 30.78C112.377 30.5356 111.563 29.9817 111.036 29.4277C110.956 31.4155 110.765 32.2301 110.445 32.2301C110.06 32.2301 109.67 31.686 109.312 30.7655C110.465 29.1244 111.389 27.1985 112.058 25.0611L109.711 24.4908C109.396 25.6095 108.983 26.659 108.478 27.6243C108.264 26.4884 108.09 25.2105 107.974 23.8717H112.84V21.5418H111.142L111.946 20.6945C111.387 20.1568 110.27 19.4399 109.455 19L108.05 20.4175C108.553 20.7329 109.148 21.1437 109.647 21.5418H107.835C107.811 20.7923 107.808 20.0385 107.827 19.2933H105.384C105.387 20.0364 105.403 20.7892 105.433 21.5418H98.9812V26.4297C98.9812 28.5642 98.9014 31.4481 97.7199 33.3707C98.2468 33.6477 99.3006 34.5275 99.6997 35C100.514 33.7498 100.957 32.0088 101.189 30.2753C101.506 30.8638 101.745 31.7506 101.775 32.4257C102.51 32.4257 103.18 32.4094 103.612 32.3279C104.091 32.2301 104.458 32.0672 104.809 31.5947C105.192 31.0733 105.272 29.5743 105.32 26.2505ZM101.197 30.2141C101.316 29.3052 101.378 28.4 101.406 27.5703H103.058C103.023 29.1922 102.963 29.8644 102.829 30.0631C102.701 30.2261 102.558 30.275 102.35 30.275C102.102 30.275 101.674 30.2596 101.197 30.2141Z" fill="white"/>
<path d="M86.8673 22.112C87.1314 21.4187 87.3672 20.705 87.565 19.9939L85.1541 19.4399C84.6112 21.6395 83.5893 23.8717 82.3599 25.2077C82.9507 25.5336 83.9885 26.2342 84.4515 26.6415C84.9297 26.0332 85.4007 25.2744 85.839 24.4257H88.9062V26.9185H84.7709V29.1996H88.9062V32.002H82.8708V34.3157H97.4005V32.002H91.3332V29.1996H95.9156V26.9185H91.3332V24.4257H96.5543V22.112H91.3332V19.277H88.9062V22.112H86.8673Z" fill="white"/>
<path d="M47.3436 28.4645C47.4377 28.0285 47.4856 27.6141 47.4988 27.2444H43.8462V25.11H47.5026V23.4807H43.6866V21.2811H47.5026V19.3585H49.8018V27C49.8018 29.8513 48.9396 33.0611 45.0278 34.9837C44.6446 34.4134 43.9261 33.6802 43.3672 33.224C44.7784 32.6761 45.7414 31.786 46.3804 30.8057C45.6568 30.9237 44.9507 31.0375 44.2921 31.1436L43.4151 31.2851L43 28.9226C44.1273 28.8236 45.7056 28.6496 47.3436 28.4645Z" fill="white"/>
<path fill-rule="evenodd" clip-rule="evenodd" d="M72.6755 34.3304L67.632 19.7975H64.2696L59.1875 34.3304H62.2986L63.2841 31.3429H68.5305L69.4484 34.3304H72.6755ZM65.9218 23.1201L67.6996 28.8386H64.0861L65.9218 23.1201Z" fill="white"/>
<path d="M53.7456 19.3585V21.2811H57.9289V23.4807H53.7456V25.11H57.5457V27.2444H53.7456V28.9063H58.2163V31.1059H53.7456V34.7556H51.4144V19.3585H53.7456Z" fill="white"/>
<path d="M75.2124 22.2695V31.8617H73.4582V34.3337H79.7189V31.8617H78.169V22.2695H79.7189V19.7975H73.4582V22.2695H75.2124Z" fill="white"/>
</svg>
