<svg width="131" height="42" viewBox="0 0 131 42" fill="none" xmlns="http://www.w3.org/2000/svg">
<path d="M0.5 0.5H116C124.008 0.5 130.5 6.99187 130.5 15V41.5H15C6.99187 41.5 0.5 35.0081 0.5 27V0.5Z" fill="black" stroke="#ACACAC"/>
<path fill-rule="evenodd" clip-rule="evenodd" d="M30.8705 21.5C30.8705 26.6752 26.6752 30.8705 21.5 30.8705C16.3248 30.8705 12.1295 26.6752 12.1295 21.5C12.1295 16.3248 16.3248 12.1295 21.5 12.1295C26.6752 12.1295 30.8705 16.3248 30.8705 21.5ZM33 21.5C33 27.8513 27.8513 33 21.5 33C15.1487 33 10 27.8513 10 21.5C10 15.1487 15.1487 10 21.5 10C27.8513 10 33 15.1487 33 21.5ZM16 24.7606C19.4984 27.7465 24.5016 27.7465 28 24.7606L26.6474 23C23.9376 25.3128 20.0624 25.3128 17.3526 23L16 24.7606ZM17 21V18H19V21H17ZM24 18V21H26V18H24Z" fill="white"/>
<path d="M95.6441 12.4315C95.6441 11.7337 95.793 11.2593 96.0907 11.0082C96.3885 10.7571 96.7207 10.6315 97.0872 10.6315C97.5289 10.6315 97.83 10.775 97.9903 11.062C98.0885 11.2413 98.1376 11.5234 98.1376 11.9082V15.2098H99.0456V11.8495C99.0456 11.3343 98.972 10.9315 98.8247 10.6413C98.5531 10.1098 98.0361 9.84403 97.2737 9.84403C96.8483 9.84403 96.4932 9.93696 96.2085 10.1228C96.0417 10.2304 95.8535 10.4163 95.6441 10.6804V8H94.7606V15.2098H95.6441V12.4315Z" fill="white"/>
<path fill-rule="evenodd" clip-rule="evenodd" d="M116.238 12.0354C116.441 12.0093 116.577 11.9245 116.646 11.781C116.685 11.7028 116.705 11.5903 116.705 11.4435C116.705 11.1435 116.597 10.9267 116.381 10.793C116.168 10.656 115.862 10.5875 115.463 10.5875C115.001 10.5875 114.674 10.7115 114.481 10.9593C114.373 11.0962 114.303 11.3001 114.27 11.5707H113.446C113.462 10.9251 113.671 10.4767 114.074 10.2256C114.48 9.97124 114.949 9.84407 115.483 9.84407C116.101 9.84407 116.603 9.96146 116.989 10.1962C117.372 10.431 117.564 10.7962 117.564 11.2919V14.3098C117.564 14.4012 117.582 14.4745 117.618 14.53C117.657 14.5854 117.737 14.6131 117.858 14.6131C117.897 14.6131 117.942 14.6115 117.991 14.6082C118.04 14.6017 118.092 14.5935 118.148 14.5838V15.2343C118.01 15.2734 117.906 15.2979 117.834 15.3077C117.762 15.3175 117.664 15.3224 117.539 15.3224C117.235 15.3224 117.014 15.2147 116.877 14.9995C116.805 14.8854 116.754 14.724 116.724 14.5153C116.544 14.7501 116.286 14.9539 115.949 15.1267C115.612 15.2995 115.24 15.3859 114.835 15.3859C114.347 15.3859 113.948 15.2392 113.637 14.9457C113.329 14.649 113.176 14.2789 113.176 13.8354C113.176 13.3495 113.328 12.9729 113.632 12.7055C113.936 12.4381 114.336 12.2734 114.83 12.2115L116.238 12.0354ZM114.098 13.8158C114.098 14.0702 114.192 14.2707 114.378 14.4175C114.565 14.5642 114.786 14.6376 115.041 14.6376C115.352 14.6376 115.653 14.5658 115.944 14.4223C116.435 14.1843 116.68 13.7946 116.68 13.2533V12.5441C116.572 12.6126 116.433 12.6696 116.263 12.7153C116.093 12.7609 115.926 12.7935 115.762 12.8131L115.227 12.8816C114.907 12.924 114.666 12.9908 114.506 13.0821C114.234 13.2354 114.098 13.48 114.098 13.8158Z" fill="white"/>
<path d="M119.662 11.6783C119.62 11.8609 119.598 12.1234 119.598 12.4658V15.2098H118.715V9.97118H119.554V10.7147C119.803 10.4081 120.066 10.188 120.345 10.0543C120.623 9.92063 120.932 9.85379 121.272 9.85379C122.018 9.85379 122.522 10.113 122.784 10.6315C122.928 10.9152 123 11.3212 123 11.8494V15.2098H122.102V11.9081C122.102 11.5886 122.054 11.331 121.959 11.1353C121.802 10.8092 121.518 10.6462 121.105 10.6462C120.896 10.6462 120.724 10.6674 120.59 10.7098C120.348 10.7815 120.135 10.925 119.952 11.1402C119.805 11.313 119.708 11.4924 119.662 11.6783Z" fill="white"/>
<path fill-rule="evenodd" clip-rule="evenodd" d="M95.16 19.2823L90.552 32.1501H93.3728L94.2664 29.505H99.0233L99.8555 32.1501H102.782L98.2086 19.2823H95.16ZM94.9935 27.2876L96.658 22.2243L98.2699 27.2876H94.9935Z" fill="white"/>
<path fill-rule="evenodd" clip-rule="evenodd" d="M74.8731 22.4251C76.1288 22.4251 77.1099 22.8761 77.8166 23.7782C78.5291 24.6803 78.8854 25.8443 78.8854 27.2702C78.8854 28.7484 78.535 29.9735 77.8341 30.9454C77.1333 31.9173 76.1551 32.4033 74.8994 32.4033C74.111 32.4033 73.4773 32.2462 72.9984 31.9319C72.7122 31.7457 72.4027 31.4197 72.0698 30.9541V32.1501H69.6256V19.2998H72.1136V23.8742C72.429 23.4319 72.7765 23.0944 73.1561 22.8616C73.6058 22.5706 74.1781 22.4251 74.8731 22.4251ZM74.2336 30.3518C74.876 30.3518 75.3754 30.0928 75.7316 29.5748C76.0879 29.0569 76.266 28.3759 76.266 27.532C76.266 26.8569 76.1784 26.2982 76.0032 25.8559C75.6703 25.0179 75.0571 24.5988 74.1635 24.5988C73.2583 24.5988 72.6363 25.0091 72.2976 25.8297C72.1224 26.2662 72.0348 26.8308 72.0348 27.5233C72.0348 28.3381 72.2158 29.0132 72.5779 29.5486C72.94 30.0841 73.4919 30.3518 74.2336 30.3518Z" fill="white"/>
<path d="M63.679 29.5225C63.679 29.9124 63.7287 30.1568 63.828 30.2558C63.9273 30.3489 64.2309 30.3954 64.739 30.3954H64.9756C65.0632 30.3896 65.1479 30.3838 65.2296 30.378V32.2374L64.047 32.2811C62.8672 32.3218 62.0613 32.1181 61.6291 31.67C61.3488 31.3848 61.2086 30.9454 61.2086 30.3518V24.4941H59.877V22.7219H61.2086V20.068H63.679V22.7219H65.2296V24.4941H63.679V29.5225Z" fill="white"/>
<path fill-rule="evenodd" clip-rule="evenodd" d="M59.78 27.4098C59.78 28.8066 59.377 30.0026 58.571 30.9978C57.7651 31.9872 56.5415 32.4819 54.9004 32.4819C53.2593 32.4819 52.0358 31.9872 51.2298 30.9978C50.4239 30.0026 50.0209 28.8066 50.0209 27.4098C50.0209 26.0363 50.4239 24.8462 51.2298 23.8393C52.0358 22.8325 53.2593 22.3291 54.9004 22.3291C56.5415 22.3291 57.7651 22.8325 58.571 23.8393C59.377 24.8462 59.78 26.0363 59.78 27.4098ZM54.8917 30.3954C55.6217 30.3954 56.1824 30.1365 56.5737 29.6185C56.965 29.1005 57.1606 28.3643 57.1606 27.4098C57.1606 26.4554 56.965 25.7221 56.5737 25.2099C56.1824 24.6919 55.6217 24.433 54.8917 24.433C54.1616 24.433 53.598 24.6919 53.2009 25.2099C52.8096 25.7221 52.614 26.4554 52.614 27.4098C52.614 28.3643 52.8096 29.1005 53.2009 29.6185C53.598 30.1365 54.1616 30.3954 54.8917 30.3954Z" fill="white"/>
<path d="M48.0666 23.1846C47.4417 22.6666 46.6357 22.4076 45.6487 22.4076C44.8603 22.4076 44.2091 22.5997 43.6952 22.9838C43.409 23.1991 43.1053 23.5512 42.7841 24.0401V22.6521H40.375V32.1501H42.8629V26.9995C42.8629 26.4117 42.9447 25.9287 43.1082 25.5504C43.4236 24.8345 44.0047 24.4766 44.8515 24.4766C45.5407 24.4766 46.0079 24.721 46.2532 25.2099C46.3875 25.4776 46.4547 25.8617 46.4547 26.3622V32.1501H49.0127V25.7424C49.0127 24.5494 48.6974 23.6967 48.0666 23.1846Z" fill="white"/>
<path d="M80.6644 33.9921L80.3491 33.9747V35.9651C80.6177 35.9825 80.8192 35.9913 80.9535 35.9913C81.0879 35.9971 81.266 36 81.4879 36C82.5917 36 83.3276 35.7818 83.6955 35.3453C84.0635 34.9146 84.5628 33.7972 85.1936 31.993L88.47 22.6346H85.8156L83.8445 29.6534L81.7595 22.6346H78.9824L82.4866 32.5692C82.51 32.639 82.4574 32.8311 82.3289 33.1453C82.2063 33.4596 82.072 33.6662 81.9259 33.7652C81.7741 33.8699 81.5872 33.9368 81.3653 33.9659C81.1433 33.995 80.9097 34.0038 80.6644 33.9921Z" fill="white"/>
<path d="M106.232 12.4315C106.232 11.7565 106.368 11.2902 106.64 11.0326C106.915 10.775 107.219 10.6462 107.553 10.6462C107.919 10.6462 108.169 10.7685 108.304 11.013C108.389 11.1761 108.431 11.4353 108.431 11.7908V15.2098H109.33V12.1625C109.33 11.6212 109.454 11.2348 109.703 11.0032C109.955 10.7717 110.254 10.656 110.601 10.656C110.853 10.656 111.065 10.7212 111.239 10.8516C111.416 10.9821 111.504 11.2217 111.504 11.5706V15.2098H112.422V11.7223C112.422 11.2592 112.353 10.8907 112.216 10.6168C111.96 10.1081 111.479 9.85379 110.773 9.85379C110.442 9.85379 110.144 9.92226 109.879 10.0592C109.614 10.1929 109.383 10.4 109.187 10.6804C109.069 10.4522 108.938 10.2793 108.794 10.1619C108.539 9.9565 108.202 9.85379 107.783 9.85379C107.414 9.85379 107.083 9.95324 106.792 10.1522C106.622 10.2695 106.432 10.457 106.222 10.7147V9.97118H105.349V15.2098H106.232V12.4315Z" fill="white"/>
<path d="M101.066 14.1043C100.981 13.9347 100.938 13.7163 100.938 13.4489V9.97114H100.035V13.532C100.035 13.9788 100.109 14.3358 100.256 14.6032C100.527 15.1021 101.038 15.3516 101.787 15.3516C102.268 15.3516 102.677 15.2146 103.014 14.9407C103.184 14.8038 103.327 14.6358 103.441 14.4369L103.432 15.2097H104.266V9.97114H103.382V12.544C103.382 13.0559 103.322 13.4587 103.201 13.7521C102.978 14.3 102.559 14.5739 101.944 14.5739C101.516 14.5739 101.223 14.4174 101.066 14.1043Z" fill="white"/>
<path d="M91.8001 9.97114C91.6757 10.307 91.3992 11.0733 90.9705 12.2701C90.6499 13.1701 90.3815 13.9038 90.1656 14.4712C89.6551 15.8081 89.2951 16.6233 89.0857 16.9168C88.8763 17.2103 88.5163 17.357 88.0058 17.357C87.8815 17.357 87.785 17.3521 87.7162 17.3424C87.6508 17.3326 87.569 17.3146 87.4708 17.2886V16.4864C87.6246 16.5288 87.7359 16.5549 87.8046 16.5646C87.8733 16.5744 87.9338 16.5793 87.9862 16.5793C88.1498 16.5793 88.2693 16.5516 88.3445 16.4962C88.4231 16.444 88.4885 16.3788 88.5409 16.3005C88.5572 16.2744 88.6161 16.1407 88.7176 15.8994C88.819 15.6581 88.8926 15.4788 88.9384 15.3614L86.9947 9.97114H87.996L89.4047 14.2364L90.8233 9.97114H91.8001Z" fill="white"/>
<path fill-rule="evenodd" clip-rule="evenodd" d="M83.5168 15.0875C83.3532 14.9734 83.1781 14.7908 82.9916 14.5397V15.2098H82.1768V8H83.0357V10.6071C83.2288 10.356 83.4595 10.1652 83.7278 10.0348C83.9962 9.9011 84.2874 9.83425 84.6015 9.83425C85.256 9.83425 85.7861 10.0592 86.1919 10.5093C86.6009 10.956 86.8054 11.6163 86.8054 12.4902C86.8054 13.3185 86.6042 14.0065 86.2017 14.5544C85.7992 15.1022 85.2413 15.3761 84.5279 15.3761C84.1287 15.3761 83.7916 15.2799 83.5168 15.0875ZM84.4739 14.5984C84.9517 14.5984 85.3084 14.4093 85.544 14.031C85.7828 13.6527 85.9023 13.1538 85.9023 12.5343C85.9023 11.9832 85.7828 11.5266 85.544 11.1647C85.3084 10.8027 84.9599 10.6218 84.4985 10.6218C84.096 10.6218 83.7426 10.7701 83.4382 11.0669C83.1372 11.3636 82.9867 11.8527 82.9867 12.5343C82.9867 13.0267 83.0488 13.4261 83.1732 13.7326C83.4055 14.3098 83.8391 14.5984 84.4739 14.5984Z" fill="white"/>
<path fill-rule="evenodd" clip-rule="evenodd" d="M76.3451 9.87827C76.7475 9.87827 77.0846 9.96305 77.3562 10.1326C77.5133 10.2304 77.6916 10.4016 77.8912 10.6462V8H78.7404V15.2098H77.9452V14.481C77.739 14.8038 77.4953 15.037 77.2138 15.1805C76.9324 15.3239 76.6101 15.3957 76.2469 15.3957C75.6611 15.3957 75.1539 15.1511 74.7253 14.662C74.2966 14.1696 74.0823 13.5158 74.0823 12.7006C74.0823 11.9375 74.277 11.2772 74.6664 10.7196C75.059 10.1587 75.6186 9.87827 76.3451 9.87827ZM75.0149 12.6517C75.0149 13.2125 75.1343 13.6821 75.3732 14.0604C75.6121 14.4386 75.9949 14.6277 76.5218 14.6277C76.9308 14.6277 77.2662 14.4533 77.528 14.1044C77.793 13.7522 77.9256 13.2484 77.9256 12.593C77.9256 11.931 77.7898 11.4419 77.5182 11.1256C77.2466 10.806 76.9112 10.6462 76.5119 10.6462C76.0669 10.6462 75.7053 10.8158 75.4272 11.1549C75.1523 11.494 75.0149 11.993 75.0149 12.6517Z" fill="white"/>
<path fill-rule="evenodd" clip-rule="evenodd" d="M71.3503 9.85379C71.7234 9.85379 72.085 9.94183 72.4351 10.1179C72.7852 10.2907 73.0519 10.5157 73.2352 10.7929C73.4119 11.0571 73.5297 11.3652 73.5886 11.7174C73.6409 11.9587 73.6671 12.3435 73.6671 12.8717H69.814C69.8304 13.4033 69.9563 13.8304 70.1919 14.1533C70.4276 14.4728 70.7924 14.6326 71.2865 14.6326C71.7479 14.6326 72.1161 14.481 72.3909 14.1777C72.548 14.0016 72.6593 13.7978 72.7247 13.5663H73.5935C73.5706 13.7587 73.4937 13.9739 73.3628 14.212C73.2352 14.4467 73.0912 14.6391 72.9309 14.7891C72.6625 15.05 72.3304 15.2261 71.9344 15.3174C71.7217 15.3696 71.4812 15.3957 71.2129 15.3957C70.5584 15.3957 70.0038 15.1592 69.5489 14.6864C69.0941 14.2103 68.8667 13.5451 68.8667 12.6908C68.8667 11.8494 69.0957 11.1663 69.5538 10.6413C70.012 10.1163 70.6108 9.85379 71.3503 9.85379ZM72.7591 12.1723C72.7231 11.7908 72.6396 11.4859 72.5087 11.2576C72.2666 10.8337 71.8625 10.6217 71.2963 10.6217C70.8906 10.6217 70.5503 10.7685 70.2754 11.0619C70.0005 11.3522 69.8549 11.7223 69.8385 12.1723H72.7591Z" fill="white"/>
<path d="M67.735 14.1093C67.735 14.2919 67.7971 14.4142 67.9215 14.4762C67.9902 14.512 68.1047 14.53 68.2651 14.53H68.4025C68.4516 14.5267 68.5089 14.5218 68.5743 14.5153V15.2099C68.4729 15.2392 68.3665 15.2604 68.2552 15.2735C68.1473 15.2865 68.0295 15.293 67.9018 15.293C67.4895 15.293 67.2098 15.1887 67.0625 14.98C66.9152 14.768 66.8416 14.4941 66.8416 14.1582V10.6903H66.1299V9.97126H66.8416V8.50876H67.735V9.97126H68.5743V10.6903H67.735V14.1093Z" fill="white"/>
<path fill-rule="evenodd" clip-rule="evenodd" d="M64.1883 12.0354C64.3912 12.0093 64.527 11.9245 64.5957 11.781C64.635 11.7028 64.6546 11.5903 64.6546 11.4435C64.6546 11.1435 64.5466 10.9267 64.3307 10.793C64.118 10.656 63.812 10.5875 63.4128 10.5875C62.9514 10.5875 62.6242 10.7115 62.4311 10.9593C62.3231 11.0962 62.2527 11.3001 62.22 11.5707H61.3954C61.4118 10.9251 61.6212 10.4767 62.0237 10.2256C62.4295 9.97124 62.899 9.84407 63.4324 9.84407C64.0509 9.84407 64.5532 9.96146 64.9393 10.1962C65.3222 10.431 65.5136 10.7962 65.5136 11.2919V14.3098C65.5136 14.4012 65.5316 14.4745 65.5676 14.53C65.6068 14.5854 65.687 14.6131 65.8081 14.6131C65.8474 14.6131 65.8915 14.6115 65.9406 14.6082C65.9897 14.6017 66.0421 14.5935 66.0977 14.5838V15.2343C65.9603 15.2734 65.8555 15.2979 65.7836 15.3077C65.7116 15.3175 65.6134 15.3224 65.489 15.3224C65.1847 15.3224 64.9638 15.2147 64.8264 14.9995C64.7544 14.8854 64.7037 14.724 64.6742 14.5153C64.4943 14.7501 64.2358 14.9539 63.8987 15.1267C63.5617 15.2995 63.1903 15.3859 62.7845 15.3859C62.2969 15.3859 61.8977 15.2392 61.5868 14.9457C61.2792 14.649 61.1254 14.2789 61.1254 13.8354C61.1254 13.3495 61.2776 12.9729 61.5819 12.7055C61.8862 12.4381 62.2855 12.2734 62.7796 12.2115L64.1883 12.0354ZM62.0482 13.8158C62.0482 14.0702 62.1415 14.2707 62.328 14.4175C62.5145 14.5642 62.7354 14.6376 62.9906 14.6376C63.3015 14.6376 63.6026 14.5658 63.8938 14.4223C64.3846 14.1843 64.6301 13.7946 64.6301 13.2533V12.5441C64.5221 12.6126 64.383 12.6696 64.2129 12.7153C64.0427 12.7609 63.8758 12.7935 63.7122 12.8131L63.1772 12.8816C62.8565 12.924 62.616 12.9908 62.4556 13.0821C62.184 13.2354 62.0482 13.48 62.0482 13.8158Z" fill="white"/>
<path d="M59.1888 10.8761C59.2575 10.7 59.426 10.4864 59.6943 10.2353C59.9627 9.98096 60.2719 9.85379 60.622 9.85379C60.6384 9.85379 60.6662 9.85542 60.7055 9.85868C60.7447 9.86194 60.8118 9.86846 60.9067 9.87824V10.8076C60.8544 10.7978 60.8053 10.7913 60.7595 10.788C60.7169 10.7848 60.6695 10.7831 60.6171 10.7831C60.1721 10.7831 59.8301 10.9266 59.5913 11.2136C59.3524 11.4973 59.2329 11.825 59.2329 12.1967V15.2098H58.3494V9.97118H59.1888V10.8761Z" fill="white"/>
<path d="M56.2263 14.98C56.0791 14.768 56.0055 14.4941 56.0055 14.1582V10.6903H55.2937V9.97126H56.0055V8.50876H56.8988V9.97126H57.7381V10.6903H56.8988V14.1093C56.8988 14.2919 56.961 14.4142 57.0853 14.4762C57.154 14.512 57.2686 14.53 57.4289 14.53H57.5663C57.6154 14.5267 57.6727 14.5218 57.7381 14.5153V15.2099C57.6367 15.2392 57.5304 15.2604 57.4191 15.2735C57.3111 15.2865 57.1933 15.293 57.0657 15.293C56.6534 15.293 56.3736 15.1887 56.2263 14.98Z" fill="white"/>
<path d="M51.6292 13.5664C51.6554 13.8599 51.729 14.0849 51.8501 14.2414C52.0726 14.5251 52.4588 14.667 53.0085 14.667C53.3357 14.667 53.6237 14.5969 53.8724 14.4567C54.1211 14.3132 54.2454 14.0931 54.2454 13.7963C54.2454 13.5713 54.1456 13.4001 53.946 13.2827C53.8184 13.211 53.5664 13.1278 53.1901 13.0333L52.4882 12.8572C52.0399 12.7463 51.7094 12.6224 51.4967 12.4854C51.1171 12.2474 50.9273 11.9181 50.9273 11.4974C50.9273 11.0017 51.1057 10.6007 51.4624 10.2941C51.8223 9.98761 52.305 9.83435 52.9103 9.83435C53.7022 9.83435 54.2733 10.0659 54.6234 10.5289C54.8426 10.8224 54.949 11.1387 54.9424 11.4778H54.108C54.0916 11.2789 54.0213 11.0979 53.8969 10.9349C53.6941 10.7034 53.3423 10.5876 52.8416 10.5876C52.5078 10.5876 52.2542 10.6512 52.0808 10.7784C51.9107 10.9056 51.8256 11.0735 51.8256 11.2822C51.8256 11.5104 51.9385 11.6931 52.1643 11.83C52.2951 11.9115 52.4882 11.9833 52.7435 12.0452L53.3276 12.1871C53.9624 12.3403 54.3878 12.4887 54.6038 12.6322C54.9473 12.8572 55.1191 13.211 55.1191 13.6936C55.1191 14.1599 54.9408 14.5626 54.5841 14.9018C54.2307 15.2409 53.6908 15.4105 52.9643 15.4105C52.1823 15.4105 51.6276 15.2344 51.3004 14.8822C50.9764 14.5268 50.803 14.0882 50.7801 13.5664H51.6292Z" fill="white"/>
<path d="M46.0114 14.6032C45.8641 14.3358 45.7905 13.9788 45.7905 13.532V9.97114H46.6937V13.4489C46.6937 13.7163 46.7362 13.9347 46.8213 14.1043C46.9783 14.4174 47.2712 14.5739 47.6999 14.5739C48.3151 14.5739 48.7339 14.3 48.9564 13.7521C49.0775 13.4587 49.1381 13.0559 49.1381 12.544V9.97114H50.0216V15.2097H49.1871L49.197 14.4369C49.0824 14.6358 48.9401 14.8038 48.7699 14.9407C48.4329 15.2146 48.0238 15.3516 47.5428 15.3516C46.7935 15.3516 46.283 15.1021 46.0114 14.6032Z" fill="white"/>
<path d="M105.082 21.4711V29.9643H103.491V32.1531H109.168V29.9643H107.762V21.4711H109.168V19.2823H103.491V21.4711H105.082Z" fill="white"/>
<path d="M44.7813 8.02454H43.8978V15.2099H44.7813V8.02454Z" fill="white"/>
<path d="M42.8447 8.02454H41.9612V15.2099H42.8447V8.02454Z" fill="white"/>
<path d="M40.8982 9.99574H40V15.2099H40.8982V9.99574Z" fill="white"/>
<path d="M40 8.02454H40.8982V9.02237H40V8.02454Z" fill="white"/>
</svg>
