<svg width="131" height="42" viewBox="0 0 131 42" fill="none" xmlns="http://www.w3.org/2000/svg">
<path d="M116 0.5C124.008 0.5 130.5 6.99187 130.5 15V41.5H15C6.99187 41.5 0.5 35.0081 0.5 27V0.5H116Z" fill="white" stroke="black"/>
<path d="M28.8497 24.1575C25.3836 26.9643 20.4266 26.9643 16.9605 24.1575L18.3007 22.5026C20.9854 24.6766 24.8248 24.6766 27.5095 22.5026L28.8497 24.1575Z" fill="black"/>
<path d="M18.404 17.6365V20.5134H20.5336V17.6365H18.404Z" fill="black"/>
<path d="M25.012 17.6365V20.5134H27.1415V17.6365H25.012Z" fill="black"/>
<path fill-rule="evenodd" clip-rule="evenodd" d="M22.5 33C28.8513 33 34 27.8513 34 21.5C34 15.1487 28.8513 10 22.5 10C16.1487 10 11 15.1487 11 21.5C11 27.8513 16.1487 33 22.5 33ZM22.5 30.8705C27.6752 30.8705 31.8705 26.6752 31.8705 21.5C31.8705 16.3248 27.6752 12.1295 22.5 12.1295C17.3248 12.1295 13.1295 16.3248 13.1295 21.5C13.1295 26.6752 17.3248 30.8705 22.5 30.8705Z" fill="black"/>
<path fill-rule="evenodd" clip-rule="evenodd" d="M95.16 19.2822L90.552 32.15H93.3729L94.2664 29.5049H99.0233L99.8556 32.15H102.782L98.2086 19.2822H95.16ZM94.9935 27.2875L96.658 22.2242L98.2699 27.2875H94.9935Z" fill="black"/>
<path fill-rule="evenodd" clip-rule="evenodd" d="M74.8731 22.425C76.1288 22.425 77.11 22.876 77.8166 23.7781C78.5291 24.6802 78.8854 25.8442 78.8854 27.27C78.8854 28.7483 78.535 29.9734 77.8342 30.9453C77.1333 31.9172 76.1551 32.4032 74.8994 32.4032C74.111 32.4032 73.4773 32.2461 72.9984 31.9318C72.7122 31.7455 72.4027 31.4196 72.0698 30.954V32.15H69.6257V19.2997H72.1136V23.8741C72.429 23.4318 72.7765 23.0943 73.1561 22.8615C73.6058 22.5705 74.1782 22.425 74.8731 22.425ZM74.2336 30.3517C74.8761 30.3517 75.3754 30.0927 75.7317 29.5747C76.0879 29.0567 76.266 28.3758 76.266 27.5319C76.266 26.8568 76.1784 26.2981 76.0032 25.8558C75.6703 25.0177 75.0571 24.5987 74.1635 24.5987C73.2583 24.5987 72.6363 25.009 72.2976 25.8296C72.1224 26.2661 72.0348 26.8306 72.0348 27.5232C72.0348 28.338 72.2158 29.0131 72.5779 29.5485C72.94 30.084 73.4919 30.3517 74.2336 30.3517Z" fill="black"/>
<path d="M63.6791 29.5223C63.6791 29.9123 63.7287 30.1567 63.828 30.2556C63.9273 30.3488 64.231 30.3953 64.7391 30.3953H64.9756C65.0632 30.3895 65.1479 30.3837 65.2297 30.3779V32.2373L64.047 32.281C62.8673 32.3217 62.0613 32.118 61.6291 31.6699C61.3488 31.3847 61.2086 30.9453 61.2086 30.3517V24.4939H59.877V22.7218H61.2086V20.0679H63.6791V22.7218H65.2297V24.4939H63.6791V29.5223Z" fill="black"/>
<path fill-rule="evenodd" clip-rule="evenodd" d="M59.78 27.4097C59.78 28.8065 59.377 30.0025 58.571 30.9977C57.7651 31.9871 56.5416 32.4818 54.9004 32.4818C53.2593 32.4818 52.0358 31.9871 51.2298 30.9977C50.4239 30.0025 50.0209 28.8065 50.0209 27.4097C50.0209 26.0362 50.4239 24.8461 51.2298 23.8392C52.0358 22.8324 53.2593 22.3289 54.9004 22.3289C56.5416 22.3289 57.7651 22.8324 58.571 23.8392C59.377 24.8461 59.78 26.0362 59.78 27.4097ZM54.8917 30.3953C55.6217 30.3953 56.1824 30.1363 56.5737 29.6184C56.965 29.1004 57.1606 28.3642 57.1606 27.4097C57.1606 26.4553 56.965 25.7219 56.5737 25.2098C56.1824 24.6918 55.6217 24.4328 54.8917 24.4328C54.1616 24.4328 53.5981 24.6918 53.2009 25.2098C52.8096 25.7219 52.614 26.4553 52.614 27.4097C52.614 28.3642 52.8096 29.1004 53.2009 29.6184C53.5981 30.1363 54.1616 30.3953 54.8917 30.3953Z" fill="black"/>
<path d="M48.0666 23.1845C47.4417 22.6665 46.6358 22.4075 45.6488 22.4075C44.8603 22.4075 44.2091 22.5996 43.6952 22.9837C43.409 23.199 43.1053 23.5511 42.7841 24.04V22.6519H40.375V32.15H42.863V26.9994C42.863 26.4116 42.9447 25.9286 43.1082 25.5503C43.4236 24.8344 44.0047 24.4765 44.8516 24.4765C45.5407 24.4765 46.0079 24.7209 46.2532 25.2098C46.3876 25.4775 46.4547 25.8616 46.4547 26.3621V32.15H49.0128V25.7423C49.0128 24.5492 48.6974 23.6966 48.0666 23.1845Z" fill="black"/>
<path d="M80.6645 33.992L80.3491 33.9746V35.965C80.6177 35.9824 80.8192 35.9912 80.9536 35.9912C81.0879 35.997 81.266 35.9999 81.4879 35.9999C82.5918 35.9999 83.3276 35.7816 83.6956 35.3451C84.0635 34.9145 84.5628 33.7971 85.1936 31.9929L88.47 22.6345H85.8156L83.8445 29.6533L81.7595 22.6345H78.9825L82.4866 32.5691C82.51 32.6389 82.4574 32.831 82.3289 33.1452C82.2063 33.4595 82.072 33.6661 81.926 33.765C81.7741 33.8698 81.5872 33.9367 81.3653 33.9658C81.1434 33.9949 80.9098 34.0037 80.6645 33.992Z" fill="black"/>
<path d="M105.082 21.471V29.9642H103.491V32.153H109.168V29.9642H107.762V21.471H109.168V19.2822H103.491V21.471H105.082Z" fill="black"/>
<path d="M84.6738 14.0088L85.9727 10.0918H86.8662C86.7524 10.4002 86.4997 11.1041 86.1074 12.2031C85.8139 13.0297 85.5678 13.7035 85.3701 14.2246C84.9029 15.4525 84.5735 16.2012 84.3818 16.4707C84.1902 16.7402 83.8607 16.875 83.3936 16.875C83.2799 16.875 83.1918 16.8703 83.1289 16.8613C83.0691 16.8524 82.994 16.8364 82.9043 16.8125V16.0752C83.045 16.1141 83.1471 16.1385 83.21 16.1475C83.2727 16.1564 83.3282 16.1611 83.376 16.1611C83.5256 16.1611 83.6353 16.1349 83.7041 16.084C83.7758 16.0361 83.836 15.976 83.8838 15.9043C83.8992 15.8792 83.9527 15.7562 84.0449 15.5361C84.1377 15.3146 84.2052 15.1498 84.2471 15.042L82.4688 10.0918H83.3848L84.6738 14.0088Z" fill="black"/>
<path d="M51.6885 9.96582C52.4129 9.96583 52.9354 10.1786 53.2559 10.6035C53.4565 10.873 53.5538 11.1641 53.5479 11.4756H52.7842C52.7692 11.2929 52.7056 11.1263 52.5918 10.9766C52.4062 10.764 52.0839 10.6583 51.626 10.6582C51.3207 10.6582 51.0884 10.7164 50.9297 10.833C50.774 10.9498 50.6953 11.1042 50.6953 11.2959C50.6954 11.5055 50.7993 11.6731 51.0059 11.7988C51.1256 11.8737 51.3026 11.9392 51.5361 11.9961L52.0703 12.127C52.6511 12.2677 53.0406 12.4034 53.2383 12.5352C53.5527 12.7418 53.71 13.0675 53.71 13.5107C53.7099 13.9388 53.5469 14.3088 53.2207 14.6201C52.8973 14.9315 52.4029 15.0868 51.7383 15.0869C51.0225 15.0869 50.5143 14.925 50.2148 14.6016C49.9185 14.2752 49.7602 13.8726 49.7393 13.3936H50.5156C50.5396 13.663 50.607 13.8699 50.7178 14.0137C50.9214 14.2742 51.2752 14.4043 51.7783 14.4043C52.0778 14.4043 52.3417 14.3397 52.5693 14.2109C52.7966 14.0792 52.9102 13.8768 52.9102 13.6045C52.9101 13.3981 52.8192 13.2406 52.6367 13.1328C52.5199 13.0669 52.2887 12.9911 51.9443 12.9043L51.3018 12.7422C50.8916 12.6404 50.5891 12.5261 50.3945 12.4004C50.0473 12.1818 49.874 11.8794 49.874 11.4932C49.8741 11.0381 50.037 10.6701 50.3633 10.3887C50.6927 10.1072 51.1344 9.96582 51.6885 9.96582Z" fill="black"/>
<path fill-rule="evenodd" clip-rule="evenodd" d="M68.335 9.98438C68.6762 9.98442 69.0069 10.065 69.3271 10.2266C69.6476 10.3853 69.8919 10.5921 70.0596 10.8467C70.2212 11.0892 70.3289 11.372 70.3828 11.6953C70.4307 11.9169 70.4551 12.2707 70.4551 12.7559H66.9287C66.9437 13.2439 67.0588 13.6362 67.2744 13.9326C67.49 14.2261 67.8242 14.373 68.2764 14.373C68.6986 14.373 69.0356 14.2336 69.2871 13.9551C69.4308 13.7934 69.5329 13.6062 69.5928 13.3936H70.3877C70.3667 13.5702 70.2964 13.7678 70.1768 13.9863C70.06 14.2019 69.928 14.3789 69.7812 14.5166C69.5357 14.7562 69.2315 14.9181 68.8691 15.002C68.6745 15.0498 68.4545 15.0732 68.209 15.0732C67.61 15.0732 67.1018 14.8561 66.6855 14.4219C66.2696 13.9847 66.0616 13.374 66.0615 12.5898C66.0615 11.8172 66.2712 11.1892 66.6904 10.707C67.1097 10.2249 67.6582 9.98438 68.335 9.98438ZM68.2852 10.6895C67.9138 10.6895 67.6021 10.8242 67.3506 11.0938C67.0992 11.3602 66.9662 11.7001 66.9512 12.1133H69.624C69.5911 11.7629 69.5143 11.4831 69.3945 11.2734C69.1729 10.8841 68.8032 10.6895 68.2852 10.6895Z" fill="black"/>
<path fill-rule="evenodd" clip-rule="evenodd" d="M75.0518 8.28125V14.9033H74.3242V14.2334C74.1356 14.5297 73.9127 14.7442 73.6553 14.876C73.3977 15.0077 73.102 15.0732 72.7695 15.0732C72.2336 15.0731 71.7692 14.8485 71.377 14.3994C70.9849 13.9473 70.7891 13.347 70.7891 12.5986C70.7891 11.8979 70.9669 11.2914 71.3232 10.7793C71.6826 10.2643 72.1947 10.0069 72.8594 10.0068C73.2277 10.0068 73.5366 10.0845 73.7852 10.2402C73.9289 10.3301 74.0918 10.4874 74.2744 10.7119V8.28125H75.0518ZM73.0127 10.7119C72.6054 10.7119 72.2741 10.8673 72.0195 11.1787C71.768 11.4902 71.6426 11.9488 71.6426 12.5537C71.6426 13.0688 71.7521 13.5003 71.9707 13.8477C72.1893 14.1948 72.5395 14.3682 73.0215 14.3682C73.3958 14.3682 73.7028 14.2081 73.9424 13.8877C74.1849 13.5643 74.3066 13.1018 74.3066 12.5C74.3066 11.8923 74.182 11.4428 73.9336 11.1523C73.6851 10.8589 73.378 10.712 73.0127 10.7119Z" fill="black"/>
<path fill-rule="evenodd" clip-rule="evenodd" d="M61.1807 9.97461C61.7465 9.97467 62.2063 10.0833 62.5596 10.2988C62.9097 10.5145 63.0849 10.8496 63.085 11.3047V14.0762C63.085 14.16 63.1018 14.2274 63.1348 14.2783C63.1707 14.3292 63.2437 14.3545 63.3545 14.3545C63.3904 14.3545 63.4307 14.3536 63.4756 14.3506C63.5204 14.3446 63.5684 14.3371 63.6191 14.3281V14.9258C63.4936 14.9617 63.3978 14.9842 63.332 14.9932C63.2662 15.0021 63.1763 15.0059 63.0625 15.0059C62.784 15.0059 62.5818 14.9075 62.4561 14.71C62.3902 14.6051 62.3434 14.4563 62.3164 14.2646C62.1518 14.4802 61.9156 14.6675 61.6074 14.8262C61.299 14.9849 60.9583 15.0645 60.5869 15.0645C60.1408 15.0644 59.7756 14.9296 59.4912 14.6602C59.2098 14.3876 59.0693 14.0479 59.0693 13.6406C59.0693 13.1944 59.2078 12.8481 59.4863 12.6025C59.7648 12.357 60.1308 12.2063 60.583 12.1494L61.8721 11.9873C62.0577 11.9633 62.1822 11.8857 62.2451 11.7539C62.281 11.6821 62.2988 11.5788 62.2988 11.4443C62.2988 11.1688 62.1996 10.9695 62.002 10.8467C61.8073 10.721 61.5274 10.6582 61.1621 10.6582C60.74 10.6582 60.4404 10.7715 60.2637 10.999C60.1649 11.1248 60.1003 11.3121 60.0703 11.5605H59.3164C59.3314 10.9678 59.5224 10.5558 59.8906 10.3252C60.262 10.0916 60.6925 9.97461 61.1807 9.97461ZM62.2764 12.4551C62.1776 12.5179 62.0502 12.5704 61.8945 12.6123C61.7389 12.6542 61.5862 12.6842 61.4365 12.7021L60.9463 12.7646C60.653 12.8036 60.4328 12.8654 60.2861 12.9492C60.0377 13.09 59.9131 13.3147 59.9131 13.623C59.9132 13.8565 59.9993 14.0401 60.1699 14.1748C60.3406 14.3095 60.5428 14.377 60.7764 14.377C61.0607 14.3769 61.3361 14.3114 61.6025 14.1797C62.0516 13.9611 62.2763 13.6034 62.2764 13.1064V12.4551Z" fill="black"/>
<path fill-rule="evenodd" clip-rule="evenodd" d="M91.3701 9.97461C91.9361 9.97461 92.3956 10.0832 92.749 10.2988C93.0994 10.5144 93.2754 10.8495 93.2754 11.3047V14.0762C93.2754 14.1599 93.2914 14.2274 93.3242 14.2783C93.3602 14.3292 93.4341 14.3545 93.5449 14.3545C93.5807 14.3545 93.6213 14.3536 93.666 14.3506C93.7109 14.3446 93.7588 14.3371 93.8096 14.3281V14.9258C93.6841 14.9616 93.5883 14.9841 93.5225 14.9932C93.4567 15.0021 93.3665 15.0058 93.2529 15.0059C92.9746 15.0059 92.7723 14.9074 92.6465 14.71C92.5806 14.6051 92.5338 14.4563 92.5068 14.2646C92.3421 14.4803 92.1053 14.6675 91.7969 14.8262C91.4884 14.9849 91.1487 15.0644 90.7773 15.0645C90.3312 15.0645 89.9661 14.9296 89.6816 14.6602C89.4001 14.3876 89.2588 14.0479 89.2588 13.6406C89.2588 13.1944 89.3983 12.8481 89.6768 12.6025C89.9552 12.3572 90.3205 12.2063 90.7725 12.1494L92.0625 11.9873C92.2479 11.9633 92.3717 11.8855 92.4346 11.7539C92.4705 11.6821 92.4892 11.5789 92.4893 11.4443C92.4893 11.1689 92.39 10.9695 92.1924 10.8467C91.9978 10.7209 91.7178 10.6582 91.3525 10.6582C90.9304 10.6582 90.6308 10.7716 90.4541 10.999C90.3553 11.1248 90.2907 11.3121 90.2607 11.5605H89.5059C89.5209 10.9677 89.7127 10.5558 90.0811 10.3252C90.4523 10.0917 90.8821 9.97463 91.3701 9.97461ZM92.4668 12.4551C92.368 12.5179 92.2405 12.5704 92.085 12.6123C91.9292 12.6542 91.7757 12.6842 91.626 12.7021L91.1367 12.7646C90.8433 12.8036 90.6233 12.8654 90.4766 12.9492C90.228 13.09 90.1035 13.3146 90.1035 13.623C90.1036 13.8563 90.1889 14.0401 90.3594 14.1748C90.53 14.3095 90.7323 14.3769 90.9658 14.377C91.2503 14.377 91.5264 14.3115 91.793 14.1797C92.2418 13.9611 92.4667 13.6033 92.4668 13.1064V12.4551Z" fill="black"/>
<path fill-rule="evenodd" clip-rule="evenodd" d="M115.348 9.97461C115.914 9.97461 116.373 10.0832 116.727 10.2988C117.077 10.5144 117.252 10.8495 117.252 11.3047V14.0762C117.252 14.1599 117.269 14.2274 117.302 14.2783C117.338 14.3292 117.411 14.3544 117.521 14.3545C117.557 14.3545 117.599 14.3536 117.644 14.3506C117.688 14.3446 117.736 14.3371 117.787 14.3281V14.9258C117.661 14.9617 117.565 14.9842 117.499 14.9932C117.433 15.0021 117.343 15.0059 117.229 15.0059C116.951 15.0057 116.749 14.9075 116.623 14.71C116.557 14.6051 116.511 14.4562 116.484 14.2646C116.32 14.4802 116.083 14.6675 115.774 14.8262C115.466 14.9849 115.126 15.0644 114.755 15.0645C114.309 15.0645 113.943 14.9297 113.658 14.6602C113.377 14.3877 113.236 14.0477 113.236 13.6406C113.236 13.1944 113.376 12.8481 113.654 12.6025C113.933 12.3572 114.298 12.2063 114.75 12.1494L116.039 11.9873C116.225 11.9634 116.349 11.8856 116.412 11.7539C116.448 11.6821 116.466 11.5789 116.466 11.4443C116.466 11.1689 116.367 10.9695 116.17 10.8467C115.975 10.7209 115.695 10.6582 115.33 10.6582C114.908 10.6582 114.608 10.7716 114.432 10.999C114.333 11.1248 114.268 11.3121 114.238 11.5605H113.483C113.498 10.9677 113.69 10.5558 114.059 10.3252C114.43 10.0917 114.86 9.97462 115.348 9.97461ZM116.443 12.4551C116.345 12.5178 116.217 12.5704 116.062 12.6123C115.906 12.6542 115.753 12.6842 115.604 12.7021L115.114 12.7646C114.821 12.8036 114.601 12.8654 114.454 12.9492C114.206 13.09 114.081 13.3146 114.081 13.623C114.081 13.8564 114.166 14.0401 114.337 14.1748C114.508 14.3096 114.71 14.3769 114.943 14.377C115.228 14.377 115.503 14.3113 115.77 14.1797C116.219 13.9611 116.443 13.6034 116.443 13.1064V12.4551Z" fill="black"/>
<path fill-rule="evenodd" clip-rule="evenodd" d="M78.8916 10.6758C79.0682 10.4454 79.279 10.2701 79.5244 10.1504C79.77 10.0276 80.0367 9.96582 80.3242 9.96582C80.9231 9.96584 81.408 10.1728 81.7793 10.5859C82.1536 10.9962 82.3408 11.6027 82.3408 12.4053C82.3408 13.1658 82.1572 13.7977 81.7891 14.3008C81.4207 14.8039 80.9097 15.0556 80.2568 15.0557C79.8915 15.0557 79.5826 14.9677 79.3311 14.791C79.1813 14.6862 79.0213 14.5177 78.8506 14.2871V14.9033H78.1055V8.28125H78.8916V10.6758ZM80.2295 10.6895C79.8614 10.6895 79.5381 10.8254 79.2598 11.0977C78.9843 11.3701 78.8467 11.8196 78.8467 12.4453C78.8467 12.8973 78.9029 13.2645 79.0166 13.5459C79.2292 14.0759 79.6262 14.3417 80.207 14.3418C80.6443 14.3418 80.9709 14.1677 81.1865 13.8203C81.4051 13.4729 81.5146 13.0143 81.5146 12.4453C81.5146 11.9394 81.4051 11.5198 81.1865 11.1875C80.9709 10.8553 80.6516 10.6895 80.2295 10.6895Z" fill="black"/>
<path d="M46.0449 13.2861C46.045 13.5314 46.0834 13.7321 46.1611 13.8877C46.3049 14.1752 46.5735 14.3193 46.9658 14.3193C47.5287 14.3193 47.9116 14.0673 48.1152 13.5645C48.226 13.295 48.2822 12.9251 48.2822 12.4551V10.0918H49.0908V14.9033H48.3271L48.3359 14.1934C48.2311 14.376 48.101 14.5305 47.9453 14.6562C47.6369 14.9078 47.2624 15.0331 46.8223 15.0332C46.1365 15.0332 45.6685 14.8039 45.4199 14.3457C45.2853 14.1002 45.2178 13.7723 45.2178 13.3623V10.0918H46.0449V13.2861Z" fill="black"/>
<path d="M102.129 10.0918V13.2861C102.129 13.5316 102.168 13.732 102.246 13.8877C102.39 14.1751 102.658 14.3193 103.05 14.3193C103.613 14.3193 103.997 14.0676 104.2 13.5645C104.311 13.295 104.366 12.9251 104.366 12.4551V10.0918H105.175V14.9033H104.411L104.42 14.1934C104.315 14.376 104.185 14.5305 104.029 14.6562C103.721 14.9078 103.346 15.0332 102.906 15.0332C102.22 15.0332 101.753 14.8039 101.505 14.3457C101.37 14.1002 101.303 13.7725 101.303 13.3623V10.0918H102.129Z" fill="black"/>
<path d="M55.293 8.74902V10.0918H56.0605V10.752H55.293V13.8926C55.293 14.06 55.3493 14.1726 55.4629 14.2295C55.5257 14.2624 55.6308 14.2783 55.7773 14.2783H55.9033C55.9482 14.2753 56.0007 14.2706 56.0605 14.2646V14.9033C55.9678 14.9302 55.8703 14.949 55.7686 14.9609C55.6698 14.9729 55.562 14.9795 55.4453 14.9795C55.068 14.9795 54.8115 14.8831 54.6768 14.6914C54.5423 14.4969 54.4747 14.2456 54.4746 13.9375V10.752H53.8232V10.0918H54.4746V8.74902H55.293Z" fill="black"/>
<path d="M65.0723 10.0918H65.8398V10.752H65.0723V13.8926C65.0723 14.06 65.1286 14.1726 65.2422 14.2295C65.305 14.2624 65.4101 14.2783 65.5566 14.2783H65.6826C65.7275 14.2753 65.78 14.2706 65.8398 14.2646V14.9033C65.7471 14.9302 65.6496 14.949 65.5479 14.9609C65.4491 14.9729 65.3413 14.9795 65.2246 14.9795C64.8473 14.9795 64.5908 14.8831 64.4561 14.6914C64.3216 14.4969 64.254 14.2455 64.2539 13.9375V10.752H63.6025V10.0918H64.2539V8.74902H65.0723V10.0918Z" fill="black"/>
<path d="M40.8789 14.9033H40.0566V10.1143H40.8789V14.9033Z" fill="black"/>
<path d="M42.6143 14.9033H41.8057V8.30371H42.6143V14.9033Z" fill="black"/>
<path d="M44.3408 14.9033H43.5322V8.30371H44.3408V14.9033Z" fill="black"/>
<path d="M58.7305 9.98828C58.7664 9.99128 58.8282 9.99785 58.915 10.0068V10.8604C58.8672 10.8514 58.8221 10.8448 58.7803 10.8418C58.7413 10.8388 58.6973 10.8379 58.6494 10.8379C58.2424 10.838 57.9295 10.9692 57.7109 11.2324C57.4923 11.493 57.3828 11.7944 57.3828 12.1357V14.9033H56.5742V10.0918H57.3428V10.9229C57.4057 10.7612 57.5592 10.5645 57.8047 10.334C58.0503 10.1004 58.3339 9.98438 58.6543 9.98438C58.6693 9.98438 58.6947 9.9853 58.7305 9.98828Z" fill="black"/>
<path d="M97.3301 8.28125V10.7432C97.5217 10.5007 97.694 10.3302 97.8467 10.2314C98.1072 10.0608 98.432 9.97461 98.8213 9.97461C99.5188 9.97464 99.9916 10.2192 100.24 10.707C100.375 10.9735 100.442 11.3434 100.442 11.8164V14.9033H99.6113V11.8711C99.6113 11.5177 99.5664 11.2585 99.4766 11.0938C99.3298 10.8303 99.0546 10.6982 98.6504 10.6982C98.315 10.6983 98.0108 10.8134 97.7383 11.0439C97.4658 11.2746 97.3301 11.7107 97.3301 12.3516V14.9033H96.5215V8.28125H97.3301Z" fill="black"/>
<path d="M111.083 9.98438C111.73 9.98438 112.171 10.2174 112.404 10.6846C112.53 10.9361 112.593 11.2749 112.593 11.7002V14.9033H111.753V11.5605C111.753 11.2402 111.671 11.0202 111.51 10.9004C111.351 10.7807 111.156 10.7207 110.926 10.7207C110.608 10.7208 110.334 10.8275 110.104 11.04C109.876 11.2527 109.763 11.6076 109.763 12.1045V14.9033H108.94V11.7627C108.94 11.4364 108.901 11.1985 108.823 11.0488C108.7 10.8243 108.472 10.712 108.137 10.7119C107.831 10.7119 107.552 10.8299 107.301 11.0664C107.052 11.303 106.928 11.7316 106.928 12.3516V14.9033H106.119V10.0918H106.919V10.7744C107.111 10.5379 107.285 10.3656 107.44 10.2578C107.707 10.0753 108.009 9.98438 108.348 9.98438C108.731 9.98441 109.039 10.0782 109.272 10.2666C109.404 10.3744 109.524 10.5336 109.632 10.7432C109.812 10.4856 110.023 10.2956 110.266 10.1729C110.508 10.0471 110.781 9.9844 111.083 9.98438Z" fill="black"/>
<path d="M120.601 9.98438C121.283 9.98439 121.745 10.2221 121.984 10.6982C122.116 10.9587 122.182 11.3315 122.182 11.8164V14.9033H121.359V11.8711C121.359 11.5777 121.316 11.3408 121.229 11.1611C121.086 10.8618 120.825 10.712 120.448 10.7119C120.257 10.7119 120.099 10.7316 119.977 10.7705C119.755 10.8363 119.56 10.9676 119.393 11.165C119.258 11.3236 119.169 11.4886 119.127 11.6592C119.088 11.8269 119.068 12.0684 119.068 12.3828V14.9033H118.26V10.0918H119.028V10.7744C119.256 10.493 119.497 10.2907 119.752 10.168C120.006 10.0453 120.289 9.98438 120.601 9.98438Z" fill="black"/>
<path d="M40.8789 9.2207H40.0566V8.30371H40.8789V9.2207Z" fill="black"/>
</svg>
