<svg width="16" height="16" viewBox="0 0 16 16" fill="none" xmlns="http://www.w3.org/2000/svg">
<path d="M7.55676 1.61226C9.57442 1.61226 9.81372 1.61982 10.611 1.65634C12.6588 1.74954 13.6154 2.72121 13.7086 4.75398C13.7451 5.55059 13.752 5.78989 13.752 7.80755C13.752 9.82583 13.7445 10.0645 13.7086 10.8611C13.6148 12.892 12.6607 13.8655 10.611 13.9587C9.81372 13.9953 9.57568 14.0028 7.55676 14.0028C5.53911 14.0028 5.29981 13.9953 4.5032 13.9587C2.45028 13.8649 1.49876 12.8888 1.40556 10.8605C1.36903 10.0639 1.36148 9.8252 1.36148 7.80692C1.36148 5.78926 1.36966 5.55059 1.40556 4.75335C1.49939 2.72121 2.45343 1.74891 4.5032 1.65571C5.30044 1.61982 5.53911 1.61226 7.55676 1.61226ZM7.55676 0.250153C5.50447 0.250153 5.24754 0.258969 4.44149 0.295493C1.69712 0.421439 0.171916 1.94413 0.0459703 4.69101C0.00881622 5.49769 0 5.75462 0 7.80692C0 9.85921 0.00881622 10.1168 0.0453406 10.9228C0.171287 13.6672 1.69397 15.1924 4.44086 15.3183C5.24754 15.3549 5.50447 15.3637 7.55676 15.3637C9.60905 15.3637 9.86661 15.3549 10.6727 15.3183C13.4145 15.1924 14.9435 13.6697 15.0676 10.9228C15.1047 10.1168 15.1135 9.85921 15.1135 7.80692C15.1135 5.75462 15.1047 5.49769 15.0682 4.69164C14.9448 1.94979 13.4202 0.422069 10.6733 0.296123C9.86661 0.258969 9.60905 0.250153 7.55676 0.250153ZM7.55676 3.92652C5.41379 3.92652 3.67636 5.66394 3.67636 7.80692C3.67636 9.94989 5.41379 11.6879 7.55676 11.6879C9.69973 11.6879 11.4372 9.95052 11.4372 7.80692C11.4372 5.66394 9.69973 3.92652 7.55676 3.92652ZM7.55676 10.3258C6.16569 10.3258 5.03784 9.19862 5.03784 7.80692C5.03784 6.41584 6.16569 5.28799 7.55676 5.28799C8.94784 5.28799 10.0757 6.41584 10.0757 7.80692C10.0757 9.19862 8.94784 10.3258 7.55676 10.3258ZM11.5908 2.86668C11.0895 2.86668 10.6834 3.27286 10.6834 3.77349C10.6834 4.27413 11.0895 4.6803 11.5908 4.6803C12.0915 4.6803 12.497 4.27413 12.497 3.77349C12.497 3.27286 12.0915 2.86668 11.5908 2.86668Z" fill="black"/>
</svg>
