<svg width="15" height="13" viewBox="0 0 15 13" fill="none" xmlns="http://www.w3.org/2000/svg">
<path d="M7.5 0.5C9.70914 0.5 11.5 2.29086 11.5 4.5C11.5 5.02205 11.3115 5.7288 10.9766 6.52734C10.6462 7.31506 10.1922 8.14959 9.7041 8.91309C9.21544 9.67751 8.70083 10.3568 8.25684 10.8389C8.03394 11.0809 7.83923 11.2617 7.68262 11.3779C7.58668 11.4491 7.52723 11.4788 7.5 11.4912C7.47277 11.4788 7.41332 11.4491 7.31738 11.3779C7.16077 11.2617 6.96606 11.0809 6.74316 10.8389C6.29917 10.3568 5.78456 9.67751 5.2959 8.91309C4.80784 8.14959 4.35383 7.31506 4.02344 6.52734C3.68853 5.7288 3.5 5.02205 3.5 4.5C3.5 2.29086 5.29086 0.5 7.5 0.5Z" stroke="black"/>
<circle cx="7.5" cy="4.5" r="2" stroke="black"/>
<path d="M5.33333 9H2.86268C2.45186 9 2.08284 9.25125 1.93227 9.63348L1.53833 10.6335C1.27984 11.2896 1.76351 12 2.46874 12H12.5313C13.2365 12 13.7202 11.2896 13.4617 10.6335L13.0677 9.63348C12.9172 9.25125 12.5481 9 12.1373 9H9.66667" stroke="black"/>
</svg>
