<svg width="24" height="24" viewBox="0 0 24 24" fill="none" xmlns="http://www.w3.org/2000/svg">
<g clip-path="url(#clip0_1549_2)">
<path fill-rule="evenodd" clip-rule="evenodd" d="M17.1552 18.2926C20.1999 17.9336 22.8509 16.0807 23.1841 14.3878C23.7091 11.7208 23.6658 7.87958 23.6658 7.87958C23.6658 2.67325 20.2121 1.14719 20.2121 1.14719C18.4707 0.357269 15.4804 0.0250852 12.3738 0H12.2975C9.19084 0.0250852 6.20255 0.357269 4.46103 1.14719C4.46103 1.14719 1.00718 2.67325 1.00718 7.87958C1.00718 8.19521 1.00553 8.52719 1.00381 8.87279C0.999038 9.83259 0.99374 10.8974 1.02185 12.0089C1.14727 17.1004 1.96697 22.1184 6.73331 23.3644C8.93096 23.9389 10.8178 24.0591 12.3374 23.9766C15.0932 23.8257 16.6402 23.0053 16.6402 23.0053L16.5493 21.0305C16.5493 21.0305 14.58 21.6438 12.3683 21.5691C10.1771 21.4949 7.86381 21.3357 7.50941 18.6786C7.47668 18.4452 7.46031 18.1957 7.46031 17.9336C7.46031 17.9336 9.61136 18.4528 12.3374 18.5762C14.0043 18.6517 15.5675 18.4797 17.1552 18.2926ZM19.5919 14.5875V8.28349C19.5919 6.9951 19.2598 5.97126 18.5928 5.21379C17.9046 4.45633 17.0036 4.06802 15.8853 4.06802C14.5911 4.06802 13.6112 4.55925 12.9634 5.54184L12.3334 6.58469L11.7035 5.54184C11.0556 4.55925 10.0756 4.06802 8.78161 4.06802C7.66315 4.06802 6.76215 4.45633 6.07415 5.21379C5.40698 5.97126 5.07483 6.9951 5.07483 8.28349V14.5875H7.60358V8.46879C7.60358 7.17897 8.15306 6.5243 9.25215 6.5243C10.4674 6.5243 11.0765 7.30091 11.0765 8.83653V12.1857H13.5904V8.83653C13.5904 7.30091 14.1994 6.5243 15.4146 6.5243C16.5137 6.5243 17.0632 7.17897 17.0632 8.46879V14.5875H19.5919Z" fill="black"/>
</g>
<defs>
<clipPath id="clip0_1549_2">
<rect width="24" height="24" fill="white"/>
</clipPath>
</defs>
</svg>
