<svg width="131" height="42" viewBox="0 0 131 42" fill="none" xmlns="http://www.w3.org/2000/svg">
<path d="M0.5 0.5H116C124.008 0.5 130.5 6.99187 130.5 15V41.5H15C6.99187 41.5 0.5 35.0081 0.5 27V0.5Z" fill="white" stroke="black"/>
<path d="M17.9605 24.1575C21.4266 26.9643 26.3836 26.9643 29.8497 24.1575L28.5095 22.5026C25.8248 24.6766 21.9854 24.6766 19.3007 22.5026L17.9605 24.1575Z" fill="black"/>
<path d="M19.404 20.5134V17.6365H21.5336V20.5134H19.404Z" fill="black"/>
<path d="M26.012 17.6365V20.5134H28.1415V17.6365H26.012Z" fill="black"/>
<path fill-rule="evenodd" clip-rule="evenodd" d="M35 21.5C35 27.8513 29.8513 33 23.5 33C17.1487 33 12 27.8513 12 21.5C12 15.1487 17.1487 10 23.5 10C29.8513 10 35 15.1487 35 21.5ZM32.8705 21.5C32.8705 26.6752 28.6752 30.8705 23.5 30.8705C18.3248 30.8705 14.1295 26.6752 14.1295 21.5C14.1295 16.3248 18.3248 12.1295 23.5 12.1295C28.6752 12.1295 32.8705 16.3248 32.8705 21.5Z" fill="black"/>
<path fill-rule="evenodd" clip-rule="evenodd" d="M104.32 26.2505C104.32 25.9898 104.336 25.4196 104.336 25.4196H100.424V23.8717H104.573C104.764 26.2238 105.11 28.471 105.651 30.2984C104.776 31.2876 103.759 32.1157 102.612 32.7515C103.107 33.2077 103.953 34.2016 104.288 34.7067C105.138 34.1597 105.93 33.5082 106.658 32.7639C107.338 33.9391 108.193 34.6415 109.254 34.6415C110.898 34.6415 111.649 33.9572 112 30.78C111.377 30.5356 110.563 29.9817 110.036 29.4277C109.956 31.4155 109.765 32.2301 109.445 32.2301C109.06 32.2301 108.67 31.686 108.312 30.7655C109.465 29.1244 110.389 27.1985 111.058 25.0611L108.711 24.4908C108.396 25.6095 107.983 26.659 107.478 27.6243C107.264 26.4884 107.09 25.2105 106.974 23.8717H111.84V21.5418H110.142L110.946 20.6945C110.387 20.1568 109.27 19.4399 108.455 19L107.05 20.4175C107.553 20.7329 108.148 21.1437 108.647 21.5418H106.835C106.811 20.7923 106.808 20.0385 106.827 19.2933H104.384C104.387 20.0364 104.403 20.7892 104.433 21.5418H97.9812V26.4297C97.9812 28.5642 97.9014 31.4481 96.7199 33.3707C97.2468 33.6477 98.3006 34.5275 98.6997 35C99.5135 33.7498 99.9567 32.0088 100.189 30.2753C100.506 30.8638 100.745 31.7506 100.775 32.4257C101.51 32.4257 102.18 32.4094 102.612 32.3279C103.091 32.2301 103.458 32.0672 103.809 31.5947C104.192 31.0733 104.272 29.5743 104.32 26.2505ZM100.197 30.2141C100.316 29.3052 100.378 28.4 100.406 27.5703H102.058C102.023 29.1922 101.963 29.8644 101.829 30.0631C101.701 30.2261 101.558 30.275 101.35 30.275C101.102 30.275 100.674 30.2596 100.197 30.2141Z" fill="black"/>
<path d="M85.8673 22.112C86.1314 21.4187 86.3672 20.705 86.565 19.9939L84.1541 19.4399C83.6112 21.6395 82.5893 23.8717 81.3599 25.2077C81.9507 25.5336 82.9885 26.2342 83.4515 26.6415C83.9297 26.0332 84.4007 25.2744 84.839 24.4257H87.9062V26.9185H83.7709V29.1996H87.9062V32.002H81.8708V34.3157H96.4005V32.002H90.3332V29.1996H94.9156V26.9185H90.3332V24.4257H95.5543V22.112H90.3332V19.277H87.9062V22.112H85.8673Z" fill="black"/>
<path d="M46.3436 28.4645C46.4377 28.0285 46.4856 27.6141 46.4988 27.2444H42.8462V25.11H46.5026V23.4807H42.6866V21.2811H46.5026V19.3585H48.8018V27C48.8018 29.8513 47.9396 33.0611 44.0278 34.9837C43.6446 34.4134 42.9261 33.6802 42.3672 33.224C43.7784 32.6761 44.7414 31.786 45.3804 30.8057C44.6568 30.9237 43.9507 31.0375 43.2921 31.1436L42.4151 31.2851L42 28.9226C43.1273 28.8236 44.7056 28.6496 46.3436 28.4645Z" fill="black"/>
<path fill-rule="evenodd" clip-rule="evenodd" d="M71.6755 34.3304L66.632 19.7975H63.2696L58.1875 34.3304H61.2986L62.2841 31.3429H67.5305L68.4484 34.3304H71.6755ZM64.9218 23.1201L66.6996 28.8386H63.0861L64.9218 23.1201Z" fill="black"/>
<path d="M52.7456 19.3585V21.2811H56.9289V23.4807H52.7456V25.11H56.5457V27.2444H52.7456V28.9063H57.2163V31.1059H52.7456V34.7556H50.4144V19.3585H52.7456Z" fill="black"/>
<path d="M74.2124 22.2695V31.8617H72.4582V34.3337H78.7189V31.8617H77.169V22.2695H78.7189V19.7975H72.4582V22.2695H74.2124Z" fill="black"/>
<path d="M76.64 7C76.845 7.28662 77.023 7.6583 77.1243 7.9591H80.5011V8.60818H72.6692V7.9591H76.2894C76.1925 7.68596 76.0467 7.37766 75.8918 7.13563L76.64 7Z" fill="black"/>
<path d="M79.1603 8.90932C78.9394 9.35343 78.6984 9.83797 78.4757 10.2261H81V10.8848H72.1005V10.2261H74.6039C74.5137 9.81394 74.2825 9.24899 74.026 8.831L74.7444 8.676C75.0537 9.12164 75.3131 9.73197 75.3929 10.1389L75.0472 10.2261H77.6729C77.9235 9.77614 78.2282 9.10603 78.386 8.63724L79.2041 8.82131L79.1603 8.90932Z" fill="black"/>
<path d="M68.3991 15.8933C67.4812 15.8933 67.2119 15.6608 67.2119 14.7792V10.6716H70.1351V8.20117H67.172V7.51333H70.8535V11.3691H67.9502V14.7792C67.9502 15.1377 68.03 15.2055 68.4789 15.2055H69.9755C70.4145 15.2055 70.4943 14.9536 70.5442 13.5682C70.7138 13.6942 71.0231 13.8201 71.2326 13.8589C71.1428 15.438 70.9233 15.8933 70.0354 15.8933H68.3991Z" fill="black"/>
<path d="M56.1628 7.29036C56.1643 7.22476 56.1657 7.16302 56.1672 7.10644H56.9953L56.9943 7.14839C56.9863 7.49452 56.9755 7.96201 56.9309 8.50629C57.0715 9.64556 57.679 13.7548 61.2355 15.2927C61.016 15.4574 60.7965 15.7092 60.6868 15.9127C58.1784 14.7748 57.0977 12.3834 56.6071 10.5732C56.1371 12.5123 55.0746 14.6807 52.6353 15.9514C52.5056 15.7577 52.2562 15.5349 52.0267 15.3799C56.0263 13.4147 56.1256 8.96059 56.1628 7.29366L56.1628 7.29259L56.1628 7.29036Z" fill="black"/>
<path d="M47.5373 14.7696L48.0062 14.2852C49.1336 14.634 50.3608 15.0893 51.0891 15.4575L50.4805 15.9612C49.8021 15.5931 48.6647 15.1281 47.5373 14.7696Z" fill="black"/>
<path d="M45.0729 14.2852L45.7613 14.7115C44.9233 15.2056 43.5864 15.7093 42.5188 15.9806C42.4091 15.8353 42.1596 15.5834 42 15.4478C43.0675 15.1959 44.4045 14.7018 45.0729 14.2852Z" fill="black"/>
<path fill-rule="evenodd" clip-rule="evenodd" d="M78.9447 15.6319V15.9709H79.713V11.7374H73.4773V16H74.2256V15.6319H78.9447ZM74.2256 13.9462V15.0118H78.9447V13.9462H74.2256ZM78.9447 13.3649V12.3574H74.2256V13.3649H78.9447Z" fill="black"/>
<path d="M65.5457 13.1129H63.251V13.6942H65.5457V13.1129Z" fill="black"/>
<path fill-rule="evenodd" clip-rule="evenodd" d="M62.2333 9.36371H63.4505V8.11397H62.0438V7.48427H66.7729V8.11397H65.3561V9.36371H66.5833V15.8255H65.9548V15.2636H62.8319V15.9611H62.2333V9.36371ZM63.5902 10.7103C63.5902 11.2115 63.4816 11.799 62.8319 12.2725V9.98373H63.5902V10.7103ZM65.8949 12.1247C65.9156 12.1247 65.9355 12.1243 65.9548 12.1233V14.6823H62.8319V12.2852C62.9429 12.3476 63.1236 12.5052 63.2011 12.5898C63.9095 12.0666 64.0691 11.311 64.0691 10.72V9.98373H64.7775V11.495C64.7775 12.0085 64.9072 12.1247 65.3561 12.1247H65.8949ZM65.396 11.6307C65.2763 11.6307 65.2564 11.621 65.2564 11.495V9.98373H65.9548V11.6194C65.932 11.6307 65.8925 11.6307 65.8051 11.6307H65.396ZM64.0491 9.36371H64.7376V8.11397H64.0491V9.36371Z" fill="black"/>
<path fill-rule="evenodd" clip-rule="evenodd" d="M43.6263 13.5102H42.1896V14.1302H51.0492V13.5102H49.6424V9.13131H46.8788V8.52097H50.7898V7.89126H46.8788V7.08717H46.1405V7.89126H42.4689V8.52097H46.1405V9.13131H43.6263V13.5102ZM44.3446 13.5102V12.8321H48.8941V13.5102H44.3446ZM48.8941 12.367V11.7858H44.3446V12.367H48.8941ZM44.3446 11.3111H48.8941V10.7395H44.3446V11.3111ZM48.8941 10.2842H44.3446V9.64476H48.8941V10.2842Z" fill="black"/>
</svg>
