<svg width="131" height="42" viewBox="0 0 131 42" fill="none" xmlns="http://www.w3.org/2000/svg">
<path d="M0.5 0.5H116C124.008 0.5 130.5 6.99187 130.5 15V41.5H15C6.99187 41.5 0.5 35.0081 0.5 27V0.5Z" fill="white" stroke="black"/>
<path d="M17.9605 24.1575C21.4266 26.9643 26.3836 26.9643 29.8497 24.1575L28.5095 22.5026C25.8248 24.6766 21.9854 24.6766 19.3007 22.5026L17.9605 24.1575Z" fill="black"/>
<path d="M19.404 20.5134V17.6365H21.5336V20.5134H19.404Z" fill="black"/>
<path d="M26.012 17.6365V20.5134H28.1415V17.6365H26.012Z" fill="black"/>
<path fill-rule="evenodd" clip-rule="evenodd" d="M35 21.5C35 27.8513 29.8513 33 23.5 33C17.1487 33 12 27.8513 12 21.5C12 15.1487 17.1487 10 23.5 10C29.8513 10 35 15.1487 35 21.5ZM32.8705 21.5C32.8705 26.6752 28.6752 30.8705 23.5 30.8705C18.3248 30.8705 14.1295 26.6752 14.1295 21.5C14.1295 16.3248 18.3248 12.1295 23.5 12.1295C28.6752 12.1295 32.8705 16.3248 32.8705 21.5Z" fill="black"/>
<path d="M76.6401 7C76.8451 7.28662 77.0231 7.6583 77.1243 7.9591H80.5012V8.60818H72.6693V7.9591H76.2894C76.1926 7.68596 76.0468 7.37766 75.8918 7.13563L76.6401 7Z" fill="black"/>
<path d="M79.1604 8.90932C78.9394 9.35343 78.6984 9.83797 78.4757 10.2261H81V10.8848H72.1006V10.2261H74.604C74.5138 9.81394 74.2826 9.24899 74.0261 8.831L74.7445 8.676C75.0537 9.12164 75.3131 9.73197 75.393 10.1389L75.0473 10.2261H77.6729C77.9235 9.77614 78.2282 9.10603 78.386 8.63724L79.2042 8.82131L79.1604 8.90932Z" fill="black"/>
<path d="M68.3988 15.8935C67.4809 15.8935 67.2115 15.661 67.2115 14.7794V10.6718H70.1348V8.2014H67.1716V7.51356H70.8531V11.3693H67.9498V14.7794C67.9498 15.1379 68.0297 15.2057 68.4786 15.2057H69.9752C70.4141 15.2057 70.494 14.9538 70.5438 13.5685C70.7134 13.6944 71.0227 13.8203 71.2323 13.8591C71.1425 15.4382 70.923 15.8935 70.035 15.8935H68.3988Z" fill="black"/>
<path d="M56.1627 7.2906C56.1641 7.225 56.1655 7.16325 56.167 7.10667H56.9951L56.9941 7.14863C56.9861 7.49475 56.9753 7.96224 56.9307 8.50653C57.0713 9.6458 57.6788 13.755 61.2353 15.2929C61.0158 15.4576 60.7963 15.7095 60.6866 15.9129C58.1782 14.775 57.0975 12.3836 56.607 10.5734C56.1369 12.5126 55.0745 14.681 52.6352 15.9517C52.5055 15.7579 52.2561 15.5351 52.0266 15.3801C56.0261 13.415 56.1254 8.96082 56.1626 7.29389L56.1626 7.29283L56.1627 7.2906Z" fill="black"/>
<path d="M47.5372 14.7696L48.0061 14.2852C49.1335 14.634 50.3607 15.0893 51.089 15.4575L50.4804 15.9612C49.802 15.5931 48.6646 15.1281 47.5372 14.7696Z" fill="black"/>
<path d="M45.0729 14.2852L45.7613 14.7115C44.9232 15.2056 43.5863 15.7093 42.5188 15.9806C42.4091 15.8353 42.1596 15.5834 42 15.4478C43.0675 15.1959 44.4044 14.7018 45.0729 14.2852Z" fill="black"/>
<path fill-rule="evenodd" clip-rule="evenodd" d="M78.9448 15.6319V15.9709H79.713V11.7374H73.4774V16H74.2257V15.6319H78.9448ZM74.2257 13.9462V15.0118H78.9448V13.9462H74.2257ZM78.9448 13.3649V12.3574H74.2257V13.3649H78.9448Z" fill="black"/>
<path d="M65.5454 13.1131H63.2507V13.6944H65.5454V13.1131Z" fill="black"/>
<path fill-rule="evenodd" clip-rule="evenodd" d="M62.2331 9.36394H63.4502V8.11421H62.0435V7.4845H66.7726V8.11421H65.3558V9.36394H66.583V15.8257H65.9545V15.2638H62.8317V15.9614H62.2331V9.36394ZM63.5899 10.7105C63.5899 11.2118 63.4813 11.7993 62.8317 12.2727V9.98396H63.5899V10.7105ZM65.8946 12.125C65.9153 12.125 65.9352 12.1245 65.9545 12.1235V14.6826H62.8317V12.2854C62.9426 12.3478 63.1234 12.5054 63.2008 12.59C63.9092 12.0668 64.0688 11.3112 64.0688 10.7202V9.98396H64.7772V11.4953C64.7772 12.0087 64.9069 12.125 65.3558 12.125H65.8946ZM65.3957 11.6309C65.276 11.6309 65.2561 11.6212 65.2561 11.4953V9.98396H65.9545V11.6196C65.9317 11.6309 65.8922 11.6309 65.8048 11.6309H65.3957ZM64.0489 9.36394H64.7373V8.11421H64.0489V9.36394Z" fill="black"/>
<path fill-rule="evenodd" clip-rule="evenodd" d="M43.6262 13.5102H42.1896V14.1302H51.0491V13.5102H49.6423V9.13131H46.8787V8.52097H50.7897V7.89126H46.8787V7.08717H46.1404V7.89126H42.4689V8.52097H46.1404V9.13131H43.6262V13.5102ZM44.3446 13.5102V12.8321H48.8941V13.5102H44.3446ZM48.8941 12.367V11.7858H44.3446V12.367H48.8941ZM44.3446 11.3111V10.7395H48.8941V11.3111H44.3446ZM48.8941 10.2842V9.64476H44.3446V10.2842H48.8941Z" fill="black"/>
<path fill-rule="evenodd" clip-rule="evenodd" d="M104.32 26.2505C104.32 25.9898 104.336 25.4196 104.336 25.4196H100.424V23.8717H104.573C104.764 26.2238 105.11 28.471 105.651 30.2984C104.776 31.2876 103.759 32.1157 102.612 32.7515C103.107 33.2077 103.953 34.2016 104.288 34.7067C105.138 34.1597 105.93 33.5082 106.658 32.7639C107.338 33.9391 108.193 34.6415 109.254 34.6415C110.898 34.6415 111.649 33.9572 112 30.78C111.377 30.5356 110.563 29.9817 110.036 29.4277C109.956 31.4155 109.765 32.2301 109.445 32.2301C109.06 32.2301 108.67 31.686 108.312 30.7655C109.465 29.1244 110.389 27.1985 111.058 25.0611L108.711 24.4908C108.396 25.6095 107.983 26.659 107.478 27.6243C107.264 26.4884 107.09 25.2105 106.974 23.8717H111.84V21.5418H110.142L110.946 20.6945C110.387 20.1568 109.27 19.4399 108.455 19L107.05 20.4175C107.553 20.7329 108.148 21.1437 108.647 21.5418H106.835C106.811 20.7923 106.808 20.0385 106.827 19.2933H104.384C104.387 20.0364 104.403 20.7892 104.433 21.5418H97.9812V26.4297C97.9812 28.5642 97.9014 31.4481 96.7199 33.3707C97.2468 33.6477 98.3006 34.5275 98.6997 35C99.5135 33.7498 99.9567 32.0088 100.189 30.2753C100.506 30.8638 100.745 31.7506 100.775 32.4257C101.51 32.4257 102.18 32.4094 102.612 32.3279C103.091 32.2301 103.458 32.0672 103.809 31.5947C104.192 31.0733 104.272 29.5743 104.32 26.2505ZM100.197 30.2141C100.316 29.3052 100.378 28.4 100.406 27.5703H102.058C102.023 29.1922 101.963 29.8644 101.829 30.0631C101.701 30.2261 101.558 30.275 101.35 30.275C101.102 30.275 100.674 30.2596 100.197 30.2141Z" fill="black"/>
<path d="M85.8673 22.112C86.1314 21.4187 86.3672 20.705 86.565 19.9939L84.1541 19.4399C83.6112 21.6395 82.5893 23.8717 81.3599 25.2077C81.9507 25.5336 82.9885 26.2342 83.4515 26.6415C83.9297 26.0332 84.4007 25.2744 84.839 24.4257H87.9062V26.9185H83.7709V29.1996H87.9062V32.002H81.8708V34.3157H96.4005V32.002H90.3332V29.1996H94.9156V26.9185H90.3332V24.4257H95.5543V22.112H90.3332V19.277H87.9062V22.112H85.8673Z" fill="black"/>
<path d="M46.3436 28.4645C46.4377 28.0285 46.4856 27.6141 46.4988 27.2444H42.8462V25.11H46.5026V23.4807H42.6866V21.2811H46.5026V19.3585H48.8018V27C48.8018 29.8513 47.9396 33.0611 44.0278 34.9837C43.6446 34.4134 42.9261 33.6802 42.3672 33.224C43.7784 32.6761 44.7414 31.786 45.3804 30.8057C44.6568 30.9237 43.9507 31.0375 43.2921 31.1436L42.4151 31.2851L42 28.9226C43.1273 28.8236 44.7056 28.6496 46.3436 28.4645Z" fill="black"/>
<path fill-rule="evenodd" clip-rule="evenodd" d="M71.6755 34.3304L66.632 19.7975H63.2696L58.1875 34.3304H61.2986L62.2841 31.3429H67.5305L68.4484 34.3304H71.6755ZM64.9218 23.1201L66.6996 28.8386H63.0861L64.9218 23.1201Z" fill="black"/>
<path d="M52.7456 19.3585V21.2811H56.9289V23.4807H52.7456V25.11H56.5457V27.2444H52.7456V28.9063H57.2163V31.1059H52.7456V34.7556H50.4144V19.3585H52.7456Z" fill="black"/>
<path d="M74.2124 22.2695V31.8617H72.4582V34.3337H78.7189V31.8617H77.169V22.2695H78.7189V19.7975H72.4582V22.2695H74.2124Z" fill="black"/>
</svg>
