<svg width="131" height="42" viewBox="0 0 131 42" fill="none" xmlns="http://www.w3.org/2000/svg">
<path d="M116 0.5C124.008 0.5 130.5 6.99187 130.5 15V41.5H15C6.99187 41.5 0.5 35.0081 0.5 27V0.5H116Z" fill="black" stroke="#ACACAC"/>
<path d="M27.8497 24.1575C24.3836 26.9643 19.4266 26.9643 15.9605 24.1575L17.3007 22.5026C19.9854 24.6766 23.8248 24.6766 26.5095 22.5026L27.8497 24.1575Z" fill="white"/>
<path d="M17.404 17.6365V20.5134H19.5336V17.6365H17.404Z" fill="white"/>
<path d="M24.012 17.6365V20.5134H26.1415V17.6365H24.012Z" fill="white"/>
<path fill-rule="evenodd" clip-rule="evenodd" d="M21.5 33C27.8513 33 33 27.8513 33 21.5C33 15.1487 27.8513 10 21.5 10C15.1487 10 10 15.1487 10 21.5C10 27.8513 15.1487 33 21.5 33ZM21.5 30.8705C26.6752 30.8705 30.8705 26.6752 30.8705 21.5C30.8705 16.3248 26.6752 12.1295 21.5 12.1295C16.3248 12.1295 12.1295 16.3248 12.1295 21.5C12.1295 26.6752 16.3248 30.8705 21.5 30.8705Z" fill="white"/>
<path fill-rule="evenodd" clip-rule="evenodd" d="M100.998 32.15L96.4095 19.2822H93.3504L88.7265 32.15H91.5571L92.4538 29.5049H97.2271L98.0622 32.15H100.998ZM94.8536 22.2242L96.4711 27.2875H93.1834L94.8536 22.2242Z" fill="white"/>
<path fill-rule="evenodd" clip-rule="evenodd" d="M72.9936 22.425C74.2536 22.425 75.2381 22.876 75.9472 23.7781C76.6622 24.6802 77.0197 25.8442 77.0197 27.27C77.0197 28.7483 76.6681 29.9734 75.9648 30.9453C75.2616 31.9172 74.2799 32.4032 73.02 32.4032C72.2288 32.4032 71.5929 32.2461 71.1124 31.9318C70.8252 31.7455 70.5146 31.4196 70.1806 30.954V32.15H67.728V19.2997H70.2245V23.8741C70.541 23.4318 70.8897 23.0943 71.2706 22.8615C71.7219 22.5705 72.2962 22.425 72.9936 22.425ZM72.3519 30.3517C72.9965 30.3517 73.4976 30.0927 73.8551 29.5747C74.2126 29.0567 74.3913 28.3758 74.3913 27.5319C74.3913 26.8568 74.3034 26.2981 74.1276 25.8558C73.7935 25.0177 73.1782 24.5987 72.2815 24.5987C71.3732 24.5987 70.7491 25.009 70.4091 25.8296C70.2333 26.2661 70.1454 26.8306 70.1454 27.5232C70.1454 28.338 70.3271 29.0131 70.6904 29.5485C71.0538 30.084 71.6076 30.3517 72.3519 30.3517Z" fill="white"/>
<path d="M59.7039 31.6699C59.4226 31.3847 59.2819 30.9453 59.2819 30.3517V24.4939H57.9458V22.7218H59.2819V20.0679H61.7609V22.7218H63.3168V24.4939H61.7609V29.5223C61.7609 29.9123 61.8107 30.1567 61.9103 30.2556C62.01 30.3488 62.3147 30.3953 62.8246 30.3953H63.0619C63.1498 30.3895 63.2348 30.3837 63.3168 30.3779V32.2373L62.1301 32.281C60.9463 32.3217 60.1376 32.118 59.7039 31.6699Z" fill="white"/>
<path fill-rule="evenodd" clip-rule="evenodd" d="M57.8484 27.4097C57.8484 28.8065 57.444 30.0025 56.6353 30.9977C55.8265 31.9871 54.5988 32.4818 52.952 32.4818C51.3052 32.4818 50.0775 31.9871 49.2687 30.9977C48.46 30.0025 48.0556 28.8065 48.0556 27.4097C48.0556 26.0362 48.46 24.8461 49.2687 23.8392C50.0775 22.8324 51.3052 22.3289 52.952 22.3289C54.5988 22.3289 55.8265 22.8324 56.6353 23.8392C57.444 24.8461 57.8484 26.0362 57.8484 27.4097ZM52.9432 30.3953C53.6758 30.3953 54.2384 30.1363 54.631 29.6184C55.0237 29.1004 55.22 28.3642 55.22 27.4097C55.22 26.4553 55.0237 25.7219 54.631 25.2098C54.2384 24.6918 53.6758 24.4328 52.9432 24.4328C52.2107 24.4328 51.6451 24.6918 51.2466 25.2098C50.854 25.7219 50.6577 26.4553 50.6577 27.4097C50.6577 28.3642 50.854 29.1004 51.2466 29.6184C51.6451 30.1363 52.2107 30.3953 52.9432 30.3953Z" fill="white"/>
<path d="M46.0946 23.1845C45.4676 22.6665 44.6588 22.4075 43.6684 22.4075C42.8773 22.4075 42.2238 22.5996 41.7081 22.9837C41.4209 23.199 41.1162 23.5511 40.7939 24.04V22.6519H38.3765V32.15H40.873V26.9994C40.873 26.4116 40.955 25.9286 41.1191 25.5503C41.4356 24.8344 42.0187 24.4765 42.8685 24.4765C43.56 24.4765 44.0288 24.7209 44.275 25.2098C44.4098 25.4775 44.4771 25.8616 44.4771 26.3621V32.15H47.044V25.7423C47.044 24.5492 46.7275 23.6966 46.0946 23.1845Z" fill="white"/>
<path d="M78.8049 33.992L78.4884 33.9746V35.965C78.758 35.9824 78.9602 35.9912 79.095 35.9912C79.2298 35.997 79.4085 35.9999 79.6312 35.9999C80.7388 35.9999 81.4772 35.7816 81.8464 35.3451C82.2156 34.9145 82.7167 33.7971 83.3496 31.9929L86.6373 22.6345H83.9738L81.9959 29.6533L79.9037 22.6345H77.1171L80.6333 32.5691C80.6568 32.6389 80.604 32.831 80.4751 33.1452C80.352 33.4595 80.2172 33.6661 80.0707 33.765C79.9184 33.8698 79.7308 33.9367 79.5081 33.9658C79.2854 33.9949 79.051 34.0037 78.8049 33.992Z" fill="white"/>
<path d="M103.306 21.471V29.9642H101.71V32.153H107.407V29.9642H105.996V21.471H107.407V19.2822H101.71V21.471H103.306Z" fill="white"/>
<path d="M82.8877 13.9248L84.3076 9.63867H85.2861C85.1616 9.97617 84.8843 10.7467 84.4551 11.9492C84.134 12.8535 83.8657 13.591 83.6494 14.1611C83.1383 15.5045 82.7771 16.3233 82.5674 16.6182C82.3577 16.913 81.9975 17.0605 81.4863 17.0605C81.3619 17.0605 81.2651 17.0557 81.1963 17.0459C81.1309 17.0361 81.0492 17.0183 80.9512 16.9922V16.1855C81.105 16.2281 81.2164 16.2548 81.2852 16.2646C81.3539 16.2745 81.4144 16.2793 81.4668 16.2793C81.6306 16.2793 81.7498 16.251 81.8252 16.1953C81.9038 16.1429 81.97 16.0777 82.0225 15.999C82.039 15.9724 82.0978 15.8377 82.1992 15.5957C82.3006 15.3536 82.3741 15.1736 82.4199 15.0557L80.4736 9.63867H81.4766L82.8877 13.9248Z" fill="white"/>
<path fill-rule="evenodd" clip-rule="evenodd" d="M64.8086 9.52148C65.182 9.52151 65.544 9.60929 65.8945 9.78613C66.2451 9.9598 66.5128 10.1863 66.6963 10.4648C66.8731 10.7302 66.9908 11.0398 67.0498 11.3936C67.1022 11.636 67.1279 12.0229 67.1279 12.5537H63.2695C63.2859 13.0878 63.4125 13.5174 63.6484 13.8418C63.8843 14.1627 64.2497 14.3232 64.7441 14.3232C65.2061 14.3232 65.5753 14.1709 65.8506 13.8662C66.0078 13.6894 66.119 13.4844 66.1846 13.252H67.0547C67.0317 13.4452 66.9542 13.6613 66.8232 13.9004C66.6955 14.1362 66.5511 14.3298 66.3906 14.4805C66.1221 14.7424 65.7898 14.919 65.3936 15.0107C65.1806 15.0632 64.9395 15.0898 64.6709 15.0898C64.0156 15.0898 63.4603 14.852 63.0049 14.377C62.5495 13.8986 62.3213 13.2304 62.3213 12.3721C62.3213 11.5267 62.551 10.8401 63.0098 10.3125C63.4685 9.78498 64.0681 9.52148 64.8086 9.52148ZM64.7539 10.293C64.3478 10.2931 64.0076 10.4406 63.7324 10.7354C63.4572 11.0269 63.3113 11.3985 63.2949 11.8506H66.2188C66.1827 11.4674 66.0997 11.161 65.9688 10.9316C65.7263 10.5057 65.3208 10.293 64.7539 10.293Z" fill="white"/>
<path fill-rule="evenodd" clip-rule="evenodd" d="M72.208 7.6582V14.9033H71.4121V14.1709C71.2057 14.4952 70.9614 14.7299 70.6797 14.874C70.3981 15.0181 70.0754 15.0898 69.7119 15.0898C69.1254 15.0898 68.6168 14.844 68.1875 14.3525C67.7584 13.8578 67.544 13.2008 67.5439 12.3818C67.5439 11.6151 67.739 10.9509 68.1289 10.3906C68.5221 9.82727 69.0824 9.54596 69.8096 9.5459C70.2125 9.5459 70.5503 9.63048 70.8223 9.80078C70.9795 9.89908 71.1585 10.0716 71.3584 10.3174V7.6582H72.208ZM69.9766 10.3174C69.5312 10.3175 69.1691 10.4875 68.8906 10.8281C68.6154 11.1688 68.4776 11.6703 68.4775 12.332C68.4775 12.8956 68.5977 13.3679 68.8369 13.748C69.0761 14.1279 69.4591 14.3183 69.9863 14.3184C70.3959 14.3184 70.732 14.1426 70.9941 13.792C71.2595 13.4381 71.3926 12.932 71.3926 12.2734C71.3926 11.6083 71.2563 11.1167 70.9844 10.7988C70.7124 10.4778 70.3763 10.3174 69.9766 10.3174Z" fill="white"/>
<path fill-rule="evenodd" clip-rule="evenodd" d="M45.4785 9.51074C46.0977 9.51076 46.6007 9.62933 46.9873 9.86523C47.3706 10.1011 47.5624 10.4679 47.5625 10.9658V13.999C47.5625 14.0905 47.5803 14.1641 47.6162 14.2197C47.6555 14.2754 47.7362 14.3037 47.8574 14.3037C47.8967 14.3037 47.9412 14.3021 47.9902 14.2988C48.0393 14.2923 48.0918 14.2833 48.1475 14.2734V14.9277C48.0101 14.967 47.9051 14.9911 47.833 15.001C47.761 15.0108 47.6625 15.0156 47.5381 15.0156C47.2334 15.0156 47.0116 14.9077 46.874 14.6914C46.802 14.5767 46.7511 14.4146 46.7217 14.2051C46.5415 14.441 46.2827 14.6457 45.9453 14.8193C45.6078 14.993 45.2354 15.0801 44.8291 15.0801C44.3411 15.08 43.9411 14.9325 43.6299 14.6377C43.322 14.3395 43.168 13.967 43.168 13.5215C43.1681 13.0336 43.3206 12.6553 43.625 12.3867C43.9297 12.1181 44.3296 11.9519 44.8242 11.8896L46.2354 11.7129C46.4383 11.6867 46.5747 11.602 46.6436 11.458C46.6829 11.3794 46.7021 11.2656 46.7021 11.1182C46.7021 10.8169 46.594 10.5992 46.3779 10.4648C46.165 10.3273 45.8586 10.2578 45.459 10.2578C44.997 10.2578 44.6689 10.3828 44.4756 10.6318C44.3675 10.7694 44.2974 10.9742 44.2646 11.2461H43.4385C43.4549 10.5975 43.6645 10.1469 44.0674 9.89453C44.4737 9.63895 44.9444 9.51074 45.4785 9.51074ZM46.6777 12.2246C46.5696 12.2934 46.4301 12.3506 46.2598 12.3965C46.0895 12.4423 45.9225 12.4755 45.7588 12.4951L45.2227 12.5635C44.9016 12.6061 44.6605 12.6729 44.5 12.7646C44.2281 12.9186 44.0929 13.1646 44.0928 13.502C44.0928 13.7574 44.1856 13.959 44.3721 14.1064C44.5588 14.2539 44.7805 14.3281 45.0361 14.3281C45.3474 14.3281 45.6488 14.2555 45.9404 14.1113C46.4318 13.8721 46.6777 13.4804 46.6777 12.9365V12.2246Z" fill="white"/>
<path fill-rule="evenodd" clip-rule="evenodd" d="M56.8799 9.51074C57.4991 9.51075 58.002 9.62932 58.3887 9.86523C58.772 10.1011 58.9638 10.4679 58.9639 10.9658V13.999C58.9639 14.0905 58.9817 14.1641 59.0176 14.2197C59.0569 14.2754 59.1376 14.3037 59.2588 14.3037C59.2981 14.3037 59.3425 14.3021 59.3916 14.2988C59.4407 14.2923 59.4932 14.2833 59.5488 14.2734V14.9277C59.4114 14.967 59.3065 14.9911 59.2344 15.001C59.1623 15.0108 59.0639 15.0156 58.9395 15.0156C58.6347 15.0156 58.413 14.9077 58.2754 14.6914C58.2034 14.5767 58.1525 14.4146 58.123 14.2051C57.9428 14.4409 57.6841 14.6457 57.3467 14.8193C57.0093 14.9929 56.6376 15.08 56.2314 15.0801C55.7432 15.0801 55.3425 14.9326 55.0312 14.6377C54.7234 14.3395 54.5693 13.967 54.5693 13.5215C54.5694 13.0336 54.7219 12.6553 55.0264 12.3867C55.3311 12.118 55.7318 11.9519 56.2266 11.8896L57.6367 11.7129C57.8397 11.6867 57.9761 11.602 58.0449 11.458C58.0842 11.3794 58.1035 11.2656 58.1035 11.1182C58.1035 10.8169 57.9954 10.5992 57.7793 10.4648C57.5663 10.3272 57.26 10.2578 56.8604 10.2578C56.3983 10.2578 56.0703 10.3828 55.877 10.6318C55.7689 10.7694 55.6988 10.9743 55.666 11.2461H54.8398C54.8562 10.5975 55.0659 10.1469 55.4688 9.89453C55.8751 9.63895 56.3458 9.51074 56.8799 9.51074ZM58.0791 12.2246C57.971 12.2934 57.8315 12.3506 57.6611 12.3965C57.4909 12.4423 57.3239 12.4755 57.1602 12.4951L56.624 12.5635C56.303 12.6061 56.0619 12.6729 55.9014 12.7646C55.6295 12.9186 55.4942 13.1646 55.4941 13.502C55.4941 13.7573 55.587 13.959 55.7734 14.1064C55.9602 14.2539 56.1819 14.3281 56.4375 14.3281C56.7488 14.3281 57.0502 14.2555 57.3418 14.1113C57.8332 13.8721 58.0791 13.4804 58.0791 12.9365V12.2246Z" fill="white"/>
<path fill-rule="evenodd" clip-rule="evenodd" d="M90.3145 9.51074C90.9337 9.51074 91.4366 9.62936 91.8232 9.86523C92.2066 10.1011 92.3984 10.4679 92.3984 10.9658V13.999C92.3985 14.0906 92.4171 14.1641 92.4531 14.2197C92.4925 14.2753 92.5723 14.3037 92.6934 14.3037C92.7327 14.3037 92.777 14.3021 92.8262 14.2988C92.8753 14.2923 92.9277 14.2833 92.9834 14.2734V14.9277C92.8459 14.967 92.741 14.9911 92.6689 15.001C92.5969 15.0108 92.4985 15.0156 92.374 15.0156C92.0693 15.0156 91.8486 14.9077 91.7109 14.6914C91.6389 14.5767 91.5881 14.4148 91.5586 14.2051C91.3784 14.441 91.1188 14.6457 90.7812 14.8193C90.4438 14.9929 90.0722 15.08 89.666 15.0801C89.1779 15.0801 88.7781 14.9325 88.4668 14.6377C88.1588 14.3395 88.0049 13.9671 88.0049 13.5215C88.005 13.0335 88.1573 12.6553 88.4619 12.3867C88.7666 12.1181 89.1664 11.9519 89.6611 11.8896L91.0713 11.7129C91.2743 11.6867 91.4106 11.602 91.4795 11.458C91.5188 11.3794 91.5381 11.2656 91.5381 11.1182C91.538 10.8168 91.4301 10.5992 91.2139 10.4648C91.0009 10.3273 90.6946 10.2578 90.2949 10.2578C89.8329 10.2578 89.5048 10.3828 89.3115 10.6318C89.2035 10.7694 89.1333 10.9743 89.1006 11.2461H88.2744C88.2908 10.5974 88.5013 10.1468 88.9043 9.89453C89.3105 9.63908 89.7805 9.51076 90.3145 9.51074ZM91.5137 12.2246C91.4056 12.2933 91.2659 12.3506 91.0957 12.3965C90.9254 12.4423 90.7584 12.4755 90.5947 12.4951L90.0586 12.5635C89.738 12.606 89.4974 12.6731 89.3369 12.7646C89.065 12.9186 88.9288 13.1646 88.9287 13.502C88.9287 13.7575 89.0222 13.959 89.209 14.1064C89.3957 14.2539 89.6166 14.3281 89.8721 14.3281C90.1833 14.3281 90.4847 14.2555 90.7764 14.1113C91.2679 13.8721 91.5137 13.4805 91.5137 12.9365V12.2246Z" fill="white"/>
<path fill-rule="evenodd" clip-rule="evenodd" d="M116.801 9.51074C117.42 9.51074 117.923 9.6294 118.31 9.86523C118.693 10.1011 118.885 10.4679 118.885 10.9658V13.999C118.885 14.0906 118.903 14.1641 118.939 14.2197C118.979 14.2753 119.059 14.3037 119.18 14.3037C119.219 14.3037 119.263 14.3021 119.312 14.2988C119.362 14.2923 119.414 14.2833 119.47 14.2734V14.9277C119.332 14.967 119.227 14.9912 119.155 15.001C119.083 15.0108 118.985 15.0156 118.86 15.0156C118.556 15.0156 118.335 14.9076 118.197 14.6914C118.125 14.5767 118.074 14.4147 118.045 14.2051C117.865 14.441 117.605 14.6457 117.268 14.8193C116.93 14.9929 116.559 15.0801 116.152 15.0801C115.664 15.0801 115.264 14.9325 114.953 14.6377C114.645 14.3395 114.491 13.9671 114.491 13.5215C114.491 13.0335 114.644 12.6553 114.948 12.3867C115.253 12.118 115.653 11.9519 116.147 11.8896L117.558 11.7129C117.761 11.6867 117.897 11.6019 117.966 11.458C118.005 11.3794 118.024 11.2656 118.024 11.1182C118.024 10.8168 117.916 10.5992 117.7 10.4648C117.487 10.3273 117.181 10.2578 116.781 10.2578C116.319 10.2578 115.992 10.383 115.799 10.6318C115.691 10.7694 115.62 10.9742 115.587 11.2461H114.762C114.778 10.5974 114.988 10.1468 115.391 9.89453C115.797 9.63906 116.267 9.51078 116.801 9.51074ZM118 12.2246C117.892 12.2933 117.753 12.3507 117.583 12.3965C117.413 12.4424 117.245 12.4755 117.081 12.4951L116.546 12.5635C116.225 12.606 115.984 12.673 115.823 12.7646C115.551 12.9186 115.415 13.1646 115.415 13.502C115.415 13.7575 115.509 13.959 115.695 14.1064C115.882 14.2538 116.103 14.3281 116.358 14.3281C116.67 14.3281 116.971 14.2555 117.263 14.1113C117.754 13.8721 118 13.4805 118 12.9365V12.2246Z" fill="white"/>
<path fill-rule="evenodd" clip-rule="evenodd" d="M76.5098 10.2783C76.7031 10.026 76.9344 9.83419 77.2031 9.70312C77.4716 9.56892 77.7628 9.50104 78.0771 9.50098C78.7325 9.50098 79.2636 9.72754 79.6699 10.1797C80.0795 10.6285 80.2841 11.2919 80.2842 12.1699C80.2842 13.0022 80.0827 13.6937 79.6797 14.2441C79.2767 14.7946 78.7182 15.0703 78.0039 15.0703C77.6041 15.0703 77.2665 14.9736 76.9912 14.7803C76.8274 14.6656 76.6526 14.4817 76.4658 14.2295V14.9033H75.6494V7.6582H76.5098V10.2783ZM77.9746 10.293C77.5716 10.293 77.2178 10.4421 76.9131 10.7402C76.6116 11.0384 76.4609 11.53 76.4609 12.2148C76.461 12.7095 76.523 13.111 76.6475 13.4189C76.8801 13.9987 77.3146 14.2891 77.9502 14.2891C78.4284 14.289 78.7856 14.0987 79.0215 13.7188C79.2606 13.3387 79.3798 12.8373 79.3799 12.2148C79.3799 11.6611 79.2607 11.2016 79.0215 10.8379C78.7856 10.4744 78.4364 10.293 77.9746 10.293Z" fill="white"/>
<path d="M102.237 9.63867V13.1338C102.237 13.4024 102.28 13.6216 102.365 13.792C102.522 14.1064 102.815 14.2636 103.244 14.2637C103.86 14.2637 104.28 13.9889 104.503 13.4385C104.624 13.1436 104.685 12.7389 104.685 12.2246V9.63867H105.569V14.9033H104.734L104.744 14.126C104.629 14.3258 104.487 14.4952 104.316 14.6328C103.979 14.9081 103.569 15.0459 103.087 15.0459C102.337 15.0458 101.826 14.795 101.554 14.2939C101.406 14.0253 101.333 13.6657 101.333 13.2168V9.63867H102.237Z" fill="white"/>
<path d="M61.1885 9.63867H62.0283V10.3613H61.1885V13.7969C61.1885 13.9804 61.2505 14.1038 61.375 14.166C61.4438 14.202 61.5584 14.2197 61.7188 14.2197H61.8564C61.9055 14.2165 61.9629 14.2116 62.0283 14.2051V14.9033C61.9269 14.9328 61.8203 14.9537 61.709 14.9668C61.601 14.9799 61.4831 14.9863 61.3555 14.9863C60.9426 14.9863 60.6621 14.8816 60.5146 14.6719C60.3673 14.459 60.294 14.1839 60.2939 13.8467V10.3613H59.5811V9.63867H60.2939V8.16895H61.1885V9.63867Z" fill="white"/>
<path d="M40.6738 9.52148C41.4208 9.52155 41.9254 9.7818 42.1875 10.3027C42.3316 10.5878 42.4033 10.9957 42.4033 11.5264V14.9033H41.5039V11.585C41.5039 11.264 41.4563 11.0051 41.3613 10.8086C41.2041 10.4812 40.9194 10.3175 40.5068 10.3174C40.2971 10.3174 40.1246 10.3383 39.9902 10.3809C39.7478 10.4529 39.535 10.5973 39.3516 10.8135C39.2041 10.9871 39.1074 11.1677 39.0615 11.3545C39.0189 11.538 38.9971 11.8016 38.9971 12.1455V14.9033H38.1123V9.63867H38.9531V10.3857C39.202 10.078 39.4658 9.857 39.7441 9.72266C40.0227 9.58831 40.333 9.52148 40.6738 9.52148Z" fill="white"/>
<path d="M51.0156 9.52148C51.032 9.52149 51.0596 9.52312 51.0986 9.52637C51.138 9.52964 51.2058 9.53607 51.3008 9.5459V10.4795C51.2484 10.4697 51.1991 10.4632 51.1533 10.46C51.1108 10.4567 51.0631 10.4551 51.0107 10.4551C50.5651 10.4551 50.2226 10.5993 49.9834 10.8877C49.7443 11.1727 49.6251 11.5017 49.625 11.875V14.9033H48.7402V9.63867H49.5801V10.5479C49.649 10.371 49.8184 10.1565 50.0869 9.9043C50.3555 9.64887 50.6651 9.52148 51.0156 9.52148Z" fill="white"/>
<path d="M54.1494 9.52637C54.1888 9.52965 54.2558 9.5361 54.3506 9.5459V10.4795C54.2982 10.4697 54.249 10.4632 54.2031 10.46C54.1606 10.4567 54.1129 10.4551 54.0605 10.4551C53.615 10.4551 53.2724 10.5994 53.0332 10.8877C52.7942 11.1726 52.6749 11.5017 52.6748 11.875V14.9033H51.79V9.63867H52.6309V10.5479C52.6998 10.371 52.8683 10.1564 53.1367 9.9043C53.4053 9.64881 53.7149 9.52153 54.0654 9.52148C54.0818 9.52148 54.1101 9.52309 54.1494 9.52637Z" fill="white"/>
<path d="M96.9355 10.3516C97.1453 10.0861 97.3339 9.89915 97.501 9.79102C97.786 9.60432 98.1416 9.51078 98.5674 9.51074C99.3309 9.51074 99.8491 9.77839 100.121 10.3125C100.268 10.6041 100.342 11.0088 100.342 11.5264V14.9033H99.4326V11.585C99.4326 11.1987 99.3834 10.9155 99.2852 10.7354C99.1246 10.447 98.8232 10.3027 98.3809 10.3027C98.0139 10.3027 97.681 10.4284 97.3828 10.6807C97.0846 10.933 96.9355 11.4101 96.9355 12.1113V14.9033H96.0508V7.6582H96.9355V10.3516Z" fill="white"/>
<path d="M112.085 9.52148C112.793 9.52155 113.274 9.77698 113.529 10.2881C113.667 10.5633 113.736 10.9333 113.736 11.3984V14.9033H112.817V11.2461C112.817 10.8956 112.729 10.6545 112.552 10.5234C112.378 10.3925 112.165 10.3272 111.913 10.3271C111.566 10.3271 111.266 10.4434 111.014 10.6758C110.765 10.9084 110.64 11.2969 110.64 11.8408V14.9033H109.74V11.4678C109.74 11.1106 109.698 10.8494 109.612 10.6855C109.478 10.44 109.227 10.3174 108.86 10.3174C108.526 10.3174 108.221 10.4464 107.946 10.7051C107.674 10.9639 107.538 11.433 107.538 12.1113V14.9033H106.653V9.63867H107.528V10.3857C107.738 10.127 107.928 9.93923 108.099 9.82129C108.39 9.62141 108.722 9.52148 109.092 9.52148C109.511 9.52155 109.848 9.62471 110.104 9.83105C110.248 9.949 110.379 10.1222 110.497 10.3516C110.694 10.0698 110.925 9.86188 111.19 9.72754C111.456 9.58998 111.754 9.52148 112.085 9.52148Z" fill="white"/>
<path d="M122.599 9.52148C123.346 9.52148 123.85 9.78173 124.112 10.3027C124.256 10.5878 124.329 10.9956 124.329 11.5264V14.9033H123.43V11.585C123.43 11.264 123.382 11.0051 123.287 10.8086C123.13 10.481 122.844 10.3174 122.432 10.3174C122.222 10.3174 122.049 10.3383 121.915 10.3809C121.673 10.453 121.46 10.5973 121.276 10.8135C121.129 10.9871 121.032 11.1677 120.986 11.3545C120.944 11.538 120.923 11.8016 120.923 12.1455V14.9033H120.038V9.63867H120.878V10.3857C121.127 10.0777 121.391 9.857 121.67 9.72266C121.948 9.58835 122.258 9.52149 122.599 9.52148Z" fill="white"/>
</svg>
