<svg width="1053" height="309" viewBox="0 0 1053 309" fill="none" xmlns="http://www.w3.org/2000/svg">
<g clip-path="url(#clip0_1523_223)">
<rect width="1053" height="309" fill="white"/>
<path d="M1053 183L21 183L1.01411e-05 299L1053 299L1053 183Z" fill="#F9F8F7"/>
<path d="M1017.59 244.814L1020.3 245.62L1019.5 248.331L999.275 259.287L997.37 255.77L1017.59 244.814Z" fill="white"/>
<rect x="993.16" y="238.359" width="15" height="8" transform="rotate(-16.9411 993.16 238.359)" fill="white"/>
<rect x="993.16" y="238.359" width="11.0292" height="8" transform="rotate(-16.9411 993.16 238.359)" fill="#F4F3F2"/>
<path d="M68 113H124L122 234H70L68 113Z" fill="#F4F3F2"/>
<rect width="56" height="17" transform="matrix(1 0 0 -1 68 113)" fill="#F9F8F7"/>
<line x1="89" y1="107" x2="104" y2="107" stroke="white" stroke-width="2"/>
<path d="M139.906 165.489H425.638L430 267.042H129L139.906 165.489Z" fill="#F4F3F2"/>
<path d="M163.765 170.064H169.255L168.34 181.043H162.851L163.765 170.064Z" fill="#F4F3F2"/>
<path d="M173.83 170.064H179.319L178.404 181.043H172.915L173.83 170.064Z" fill="#F4F3F2"/>
<rect x="230.553" y="172.809" width="98.8085" height="5.48936" fill="#F4F3F2"/>
<rect x="129" y="267.042" width="301" height="21.9574" fill="#F4F3F2"/>
<path d="M389.745 196.596H409.873L411.703 267.043H391.575L389.745 196.596Z" fill="white"/>
<path d="M370.532 196.596H389.745L391.575 267.043H371.447L370.532 196.596Z" fill="white"/>
<path d="M350.404 196.596H370.532L371.447 267.043H350.404V196.596Z" fill="white"/>
<rect x="331.191" y="196.596" width="19.2128" height="70.4468" fill="white"/>
<rect x="311.063" y="196.596" width="20.1277" height="70.4468" fill="white"/>
<rect x="291.851" y="196.596" width="19.2128" height="70.4468" fill="white"/>
<rect x="271.724" y="196.596" width="20.1277" height="70.4468" fill="white"/>
<rect x="252.511" y="196.596" width="19.2128" height="70.4468" fill="white"/>
<path d="M232.383 196.596H252.51V267.043H231.468L232.383 196.596Z" fill="white"/>
<path d="M213.171 196.596H232.383L231.468 267.043H211.341L213.171 196.596Z" fill="white"/>
<path d="M193.958 196.596H213.17L211.341 267.043H191.213L193.958 196.596Z" fill="white"/>
<path d="M175.659 196.596H193.957L191.213 267.043H171.085L175.659 196.596Z" fill="white"/>
<path d="M156.446 196.596H175.659L171.085 267.043H150.957L156.446 196.596Z" fill="white"/>
<path d="M156.447 186.532H409.873V196.596H156.447V186.532Z" fill="#F9F8F7"/>
<path d="M168.34 196.596H180.234L178.404 239.596H165.596L168.34 196.596Z" fill="#F4F3F2"/>
<path d="M207.681 196.596H219.574L218.659 239.596H206.766L207.681 196.596Z" fill="#F4F3F2"/>
<path d="M227.808 196.596H238.787V239.596H226.894L227.808 196.596Z" fill="#F4F3F2"/>
<rect x="266.234" y="196.596" width="10.9787" height="43" fill="#F4F3F2"/>
<rect x="286.361" y="196.596" width="10.9787" height="43" fill="#F4F3F2"/>
<rect x="306.489" y="196.596" width="10.9787" height="43" fill="#F4F3F2"/>
<rect x="344.915" y="196.596" width="10.9787" height="43" fill="#F4F3F2"/>
<path d="M365.043 196.596H375.107L376.022 239.596H365.043V196.596Z" fill="#F4F3F2"/>
<rect x="475" y="63" width="223" height="133" fill="white"/>
<rect x="481" y="70" width="211" height="119" fill="#F9F8F7"/>
<rect x="523" y="87" width="131" height="102" fill="white"/>
<rect x="539" y="102" width="100" height="57" fill="#F4F3F2"/>
<path d="M562.535 116C557.6 124.422 552.513 139.404 571.647 131.957C595.564 122.649 617.963 112.454 608.472 131.957C598.981 151.46 617.583 146.584 621 146.141" stroke="white" stroke-width="6" stroke-linecap="round"/>
<line x1="538" y1="173" x2="588" y2="173" stroke="#F4F3F2" stroke-width="2"/>
<path d="M475 196H698L714 272H461L475 196Z" fill="white"/>
<rect x="461" y="272" width="253" height="6" fill="#F4F3F2"/>
<line x1="481" y1="212" x2="694" y2="212" stroke="#F9F8F7" stroke-width="2"/>
<path d="M483 205H692" stroke="#F9F8F7" stroke-width="2"/>
<path d="M479 220H696" stroke="#F4F3F2" stroke-width="2"/>
<path d="M477 229H698" stroke="#F4F3F2" stroke-width="2"/>
<path d="M540 238H636L638 266H538L540 238Z" fill="#F4F3F2"/>
<path d="M854 200H962.039L973 272H866.526L854 200Z" fill="white"/>
<path d="M922.593 207C895.713 216.5 851.506 234.7 889.711 231.5C937.468 227.5 972.697 225.5 928.855 253C885.013 280.5 902.238 230 922.593 218.5" stroke="#F9F8F7" stroke-width="6" stroke-linecap="round"/>
<path d="M943.746 214.991C913.09 213.722 860.493 213.803 895.36 224.28C938.942 237.376 970.289 247.837 910.14 255.873C849.992 263.909 907.173 227.336 934.027 224.672" stroke="#F9F8F7" stroke-width="6" stroke-linecap="round"/>
<path d="M954.542 245.009L955.925 242.542L958.392 243.925L964.626 266.064L960.776 267.148L954.542 245.009Z" fill="#F4F3F2"/>
<rect x="735.408" y="17.2036" width="19.7991" height="17.5363" transform="rotate(45 735.408 17.2036)" fill="#F4F3F2"/>
<circle cx="700.708" cy="68.1035" r="22.5" fill="#F9F8F7"/>
<path d="M733.808 117.211C733.808 117.211 714.823 98.2266 691.404 74.8076C667.985 51.3886 649 32.4038 649 32.4038C672.419 8.98483 710.389 8.98483 733.808 32.4038C757.227 55.8228 757.227 93.7924 733.808 117.211Z" fill="#F4F3F2"/>
<path d="M744.332 35.9126L752.817 44.1151M752.817 44.1151H777.707L872.46 122.18V140.565L801.749 217.215M752.817 44.1151L764.979 65.3281L858.035 136.039L792.415 206.75M801.749 217.215L792.415 206.75M801.749 217.215V240.126M792.415 206.75V229.378" stroke="#F4F3F2" stroke-width="4"/>
<path d="M852 163L792 208" stroke="#F4F3F2" stroke-width="4"/>
<path d="M809 99L871.791 122.193L857.084 136.335L871.791 141.144" stroke="#F4F3F2" stroke-width="4"/>
<ellipse cx="777.707" cy="250.591" rx="41.5781" ry="13.5765" fill="#F4F3F2"/>
<ellipse cx="777.707" cy="237.015" rx="41.5781" ry="13.5765" fill="#F4F3F2"/>
<rect x="736" y="237" width="84" height="17" fill="#F4F3F2"/>
<path d="M32 222H76L74.1667 268H33.8333L32 222Z" fill="white"/>
<path d="M2 180.507C21.2 179.626 36.6667 207.802 42 222H52C48 178.525 17 176.223 2 180.507Z" fill="#F4F3F2"/>
<path d="M35 173C35 178.88 42.7324 203.969 46.9991 221.72L59 222C55.8 167.645 48 176.08 35 173Z" fill="#F4F3F2"/>
<path d="M12 154.454C41.5 174.604 39.7333 198.887 44 222H52C48.8 151.226 24 147.48 12 154.454Z" fill="#F4F3F2"/>
<path d="M76 166C56.5412 172.982 55.7305 206.242 57.7574 222H69.4121C68.1959 193.491 73.2973 172.788 76 166Z" fill="white"/>
<path d="M82.5 195.5C65.7 188.3 61.1667 210.166 61 222H70C70 208 78.3333 198.5 82.5 195.5Z" fill="white"/>
<ellipse cx="1021.62" cy="185.063" rx="6.375" ry="7.69397" stroke="#F4F3F2" stroke-width="3"/>
<path d="M994 167.965H1023.04L1021.83 209H995.21L994 167.965Z" fill="#F4F3F2"/>
</g>
<defs>
<clipPath id="clip0_1523_223">
<rect width="1053" height="309" fill="white"/>
</clipPath>
</defs>
</svg>
