<svg width="54" height="53" viewBox="0 0 54 53" fill="none" xmlns="http://www.w3.org/2000/svg">
<g clip-path="url(#clip0_652_98)">
<path fill-rule="evenodd" clip-rule="evenodd" d="M25.4529 49.6024L21.5598 51.9778C19.3054 53.3533 16.3628 52.6409 14.9872 50.3865C14.8019 50.0827 14.651 49.7591 14.5374 49.4219L13.082 45.0998C12.8023 44.2692 12.0818 43.6646 11.2153 43.5334L6.70616 42.8506C4.095 42.4553 2.29876 40.018 2.69415 37.4068C2.74743 37.055 2.83982 36.7101 2.96962 36.3788L4.63289 32.1323C4.95253 31.3163 4.7892 30.3901 4.20975 29.7326L1.19441 26.3111C-0.551704 24.3298 -0.361051 21.3081 1.62025 19.562C1.88724 19.3267 2.17967 19.1219 2.4921 18.9515L6.4958 16.7677C7.26519 16.348 7.73546 15.5335 7.7142 14.6574L7.6036 10.0981C7.53955 7.45801 9.62789 5.26583 12.268 5.20178C12.6238 5.19315 12.9794 5.22426 13.3283 5.29454L17.7991 6.19517C18.6582 6.36824 19.542 6.04656 20.0889 5.36173L22.9348 1.79807C24.5828 -0.265564 27.5916 -0.602514 29.6553 1.04547C29.9334 1.26755 30.1858 1.51998 30.4079 1.79807L33.2538 5.36173C33.8006 6.04656 34.6845 6.36824 35.5436 6.19517L40.0144 5.29454C42.6033 4.77301 45.1248 6.44895 45.6463 9.03786C45.7166 9.38674 45.7477 9.74237 45.7391 10.0981L45.6285 14.6574C45.6072 15.5335 46.0775 16.348 46.8469 16.7677L50.8506 18.9515C53.169 20.2161 54.0233 23.1208 52.7587 25.4392C52.5883 25.7517 52.3836 26.0441 52.1483 26.3111L49.1329 29.7326C48.5535 30.3901 48.3901 31.3163 48.7098 32.1323L50.373 36.3788C51.3362 38.8378 50.1236 41.612 47.6646 42.5752C47.3332 42.705 46.9884 42.7974 46.6365 42.8506L42.1273 43.5334C41.2608 43.6646 40.5403 44.2692 40.2606 45.0998L38.8052 49.4219C37.9624 51.9247 35.2503 53.2704 32.7474 52.4276C32.4102 52.314 32.0866 52.1632 31.7828 51.9778L27.8897 49.6024C27.1416 49.1459 26.2011 49.1459 25.4529 49.6024Z" fill="#0070E9"/>
<path d="M15.0483 26.1159L24.2592 35.3264L38.2945 21.2911" stroke="white" stroke-width="5.7181"/>
</g>
<defs>
<clipPath id="clip0_652_98">
<rect width="53.3436" height="52.679" fill="white"/>
</clipPath>
</defs>
</svg>
