<svg width="24" height="24" viewBox="0 0 24 24" fill="none" xmlns="http://www.w3.org/2000/svg">
<rect width="106" height="46" transform="translate(-40 -10)" fill="white"/>
<circle cx="11.9313" cy="12.1034" r="6.93103" transform="rotate(90 11.9313 12.1034)" stroke="black" stroke-width="2"/>
<mask id="mask0_1502_126" style="mask-type:alpha" maskUnits="userSpaceOnUse" x="4" y="3" width="11" height="17">
<path d="M15 3C15 3 11.5149 7.06522 11.5149 11.5C11.5149 15.9348 15 20 15 20L4.5 20L4.5 3L15 3Z" fill="#D9D9D9"/>
</mask>
<g mask="url(#mask0_1502_126)">
<circle cx="11.9313" cy="12.1034" r="7.93103" transform="rotate(90 11.9313 12.1034)" fill="black"/>
</g>
<path d="M12 0V3" stroke="black" stroke-width="2"/>
<path d="M12 21V24" stroke="black" stroke-width="2"/>
<path d="M20.4854 3.51465L18.364 5.63597" stroke="black" stroke-width="2"/>
<path d="M5.63623 18.3638L3.51491 20.4851" stroke="black" stroke-width="2"/>
<path d="M24 12L21 12" stroke="black" stroke-width="2"/>
<path d="M3 12L0 12" stroke="black" stroke-width="2"/>
<path d="M20.4854 20.4854L18.364 18.364" stroke="black" stroke-width="2"/>
<path d="M5.63623 5.63623L3.51491 3.51491" stroke="black" stroke-width="2"/>
</svg>
