<svg xmlns="http://www.w3.org/2000/svg" width="128.498" height="26.77" viewBox="0 0 128.498 26.77">
  <path fill="#FFFFFF" fill-rule="evenodd" d="M13.385135,24.291747 C19.408735,24.291747 24.291735,19.408647 24.291735,13.385147 C24.291735,7.361637 19.408735,2.478607 13.385135,2.478607 C7.361635,2.478607 2.478605,7.361637 2.478605,13.385147 C2.478605,19.408647 7.361635,24.291747 13.385135,24.291747 Z M13.385135,26.770347 C20.777635,26.770347 26.770335,20.777547 26.770335,13.385147 C26.770335,5.992747 20.777635,-4.4408921e-16 13.385135,-4.4408921e-16 C5.992745,-4.4408921e-16 3.99680289e-15,5.992747 3.99680289e-15,13.385147 C3.99680289e-15,20.777547 5.992745,26.770347 13.385135,26.770347 Z M20.775735,16.478347 C16.741435,19.745147 10.971935,19.745147 6.937685,16.478347 L8.497505,14.552047 C11.622335,17.082447 16.091135,17.082447 19.215935,14.552047 L20.775735,16.478347 Z M8.617795,8.888337 L8.617795,12.236847 L11.096435,12.236847 L11.096435,8.888337 L8.617795,8.888337 Z M16.308935,12.236847 L16.308935,8.888337 L18.787535,8.888337 L18.787535,12.236847 L16.308935,12.236847 Z M109.055535,14.193847 L113.549535,14.193847 L111.338535,7.224777 L109.055535,14.193847 Z M109.284535,3.175477 L113.465535,3.175477 L119.737535,20.886647 L115.724535,20.886647 L114.582535,17.245847 L108.058535,17.245847 L106.832535,20.886647 L102.963535,20.886647 L109.284535,3.175477 Z M81.458735,7.501137 C83.181035,7.501137 84.526735,8.121957 85.496035,9.363577 C86.473335,10.605247 86.961935,12.207247 86.961935,14.169847 C86.961935,16.204547 86.481335,17.890747 85.520035,19.228447 C84.558835,20.566247 83.217035,21.235147 81.494835,21.235147 C80.413435,21.235147 79.544235,21.018847 78.887435,20.586247 C78.494835,20.329947 78.070335,19.881347 77.613735,19.240447 L77.613735,20.886647 L74.261335,20.886647 L74.261335,3.199517 L77.673835,3.199517 L77.673835,9.495747 C78.106335,8.886957 78.583035,8.422347 79.103635,8.101927 C79.720535,7.701397 80.505535,7.501137 81.458735,7.501137 Z M80.581635,18.411447 C81.462735,18.411447 82.147635,18.054947 82.636335,17.342047 C83.124935,16.629047 83.369235,15.691847 83.369235,14.530347 C83.369235,13.601147 83.249135,12.832147 83.008735,12.223347 C82.552135,11.069847 81.711135,10.493047 80.485535,10.493047 C79.243835,10.493047 78.390735,11.057747 77.926135,12.187247 C77.685835,12.788047 77.565635,13.565047 77.565635,14.518347 C77.565635,15.639747 77.814035,16.569047 78.310635,17.305947 C78.807335,18.042947 79.564235,18.411447 80.581635,18.411447 Z M60.890235,7.909677 L60.890235,10.348847 L62.716635,10.348847 L62.716635,18.411447 C62.716635,19.228447 62.908835,19.833247 63.293335,20.225747 C63.886135,20.842547 64.991535,21.122947 66.609635,21.066847 L68.231835,21.006847 L68.231835,18.447447 C68.119635,18.455447 68.003535,18.463447 67.883335,18.471447 L67.558935,18.471447 C66.862035,18.471447 66.445435,18.407447 66.309335,18.279247 C66.173135,18.143047 66.105035,17.806647 66.105035,17.269947 L66.105035,10.348847 L68.231835,10.348847 L68.231835,7.909677 L66.105035,7.909677 L66.105035,4.256897 L62.716635,4.256897 L62.716635,7.909677 L60.890235,7.909677 Z M54.052335,18.471447 C55.053635,18.471447 55.822635,18.115047 56.359335,17.402047 C56.896035,16.689147 57.164335,15.675847 57.164335,14.362147 C57.164335,13.048347 56.896035,12.039047 56.359335,11.334147 C55.822635,10.621247 55.053635,10.264747 54.052335,10.264747 C53.050935,10.264747 52.277935,10.621247 51.733235,11.334147 C51.196535,12.039047 50.928235,13.048347 50.928235,14.362147 C50.928235,15.675847 51.196535,16.689147 51.733235,17.402047 C52.277935,18.115047 53.050935,18.471447 54.052335,18.471447 Z M60.757035,14.362147 C60.757035,16.284647 60.204335,17.930747 59.098935,19.300547 C57.993435,20.662347 56.315235,21.343247 54.064335,21.343247 C51.813335,21.343247 50.135135,20.662347 49.029735,19.300547 C47.924235,17.930747 47.371535,16.284647 47.371535,14.362147 C47.371535,12.471647 47.924235,10.833547 49.029735,9.447647 C50.135135,8.061877 51.813335,7.368967 54.064335,7.368967 C56.315235,7.368967 57.993435,8.061877 59.098935,9.447647 C60.204335,10.833547 60.757035,12.471647 60.757035,14.362147 Z M41.374735,7.477107 C42.728535,7.477107 43.833935,7.833577 44.691135,8.546507 C45.556235,9.251427 45.988735,10.424947 45.988735,12.067147 L45.988735,20.886647 L42.480235,20.886647 L42.480235,12.920247 C42.480235,12.231347 42.388035,11.702647 42.203835,11.334147 C41.867435,10.661247 41.226535,10.324847 40.281335,10.324847 C39.119835,10.324847 38.322735,10.817447 37.890235,11.802747 C37.665935,12.323447 37.553735,12.988347 37.553735,13.797347 L37.553735,20.886647 L34.141335,20.886647 L34.141335,7.813547 L37.445635,7.813547 L37.445635,9.724047 C37.886235,9.051167 38.302735,8.566537 38.695235,8.270147 C39.400135,7.741457 40.293335,7.477107 41.374735,7.477107 Z M89.402135,23.421947 L88.969535,23.397947 L88.969535,26.137547 C89.338035,26.161547 89.614435,26.173547 89.798635,26.173547 C89.982835,26.181547 90.227235,26.185547 90.531635,26.185547 C92.045535,26.185547 93.054935,25.885147 93.559535,25.284447 C94.064235,24.691647 94.749135,23.153647 95.614235,20.670347 L100.108535,7.789517 L96.467335,7.789517 L93.763835,17.450147 L90.904035,7.789517 L87.095135,7.789517 L91.901335,21.463447 C91.933435,21.559547 91.861335,21.823847 91.685135,22.256447 C91.516835,22.689047 91.332635,22.973347 91.132335,23.109547 C90.924135,23.253747 90.667735,23.345847 90.363335,23.385947 C90.058935,23.425947 89.738535,23.437947 89.402135,23.421947 Z M122.892535,17.878147 L122.892535,6.188127 L120.711535,6.188127 L120.711535,3.175477 L122.892535,3.175477 L126.569535,3.175477 L128.497535,3.175477 L128.497535,6.188127 L126.569535,6.188127 L126.569535,17.878147 L128.497535,17.878147 L128.497535,20.890747 L120.711535,20.890747 L120.711535,17.878147 L122.892535,17.878147 Z"/>
</svg>
