<svg width="268" height="29" viewBox="0 0 268 29" fill="none" xmlns="http://www.w3.org/2000/svg">
<path fill-rule="evenodd" clip-rule="evenodd" d="M13.3852 25.8851C19.4087 25.8851 24.2917 21.002 24.2917 14.9785C24.2917 8.95499 19.4087 4.07196 13.3852 4.07196C7.36164 4.07196 2.4786 8.95499 2.4786 14.9785C2.4786 21.002 7.36164 25.8851 13.3852 25.8851ZM13.3852 28.3637C20.7776 28.3637 26.7703 22.3709 26.7703 14.9785C26.7703 7.5861 20.7776 1.59335 13.3852 1.59335C5.99274 1.59335 0 7.5861 0 14.9785C0 22.3709 5.99274 28.3637 13.3852 28.3637ZM20.7757 18.0717C16.7415 21.3385 10.9719 21.3385 6.93768 18.0717L8.49751 16.1454C11.6223 18.6758 16.0911 18.6758 19.2159 16.1454L20.7757 18.0717ZM8.6178 10.4817V13.8302H11.0964V10.4817H8.6178ZM16.309 13.8302V10.4817H18.7876V13.8302H16.309ZM109.056 15.7872H113.55L111.339 8.81813L109.056 15.7872ZM109.284 4.76883H113.466L119.738 22.48H115.725L114.583 18.8392H108.058L106.833 22.48H102.964L109.284 4.76883ZM81.4588 9.09449C83.181 9.09449 84.5268 9.71531 85.496 10.9569C86.4733 12.1986 86.962 13.8006 86.962 15.7632C86.962 17.7979 86.4813 19.4841 85.5201 20.8218C84.5588 22.1596 83.2171 22.8285 81.4948 22.8285C80.4134 22.8285 79.5443 22.6122 78.8874 22.1796C78.4949 21.9233 78.0703 21.4747 77.6137 20.8338V22.48H74.2613V4.79287H77.6738V11.0891C78.1064 10.4803 78.583 10.0157 79.1037 9.69528C79.7205 9.29475 80.5055 9.09449 81.4588 9.09449ZM80.5816 20.0048C81.4628 20.0048 82.1477 19.6483 82.6363 18.9354C83.1249 18.2224 83.3693 17.2852 83.3693 16.1237C83.3693 15.1945 83.2491 14.4255 83.0088 13.8167C82.5522 12.6632 81.7111 12.0864 80.4855 12.0864C79.2439 12.0864 78.3907 12.6511 77.9261 13.7806C77.6858 14.3814 77.5657 15.1584 77.5657 16.1117C77.5657 17.2331 77.814 18.1624 78.3106 18.8993C78.8073 19.6363 79.5643 20.0048 80.5816 20.0048ZM60.8902 9.50303V11.9422H62.7166V20.0048C62.7166 20.8218 62.9088 21.4266 63.2933 21.8191C63.8861 22.4359 64.9916 22.7163 66.6097 22.6602L68.2318 22.6002V20.0408C68.1197 20.0488 68.0035 20.0568 67.8833 20.0648H67.5589C66.862 20.0648 66.4455 20.0008 66.3093 19.8726C66.1731 19.7364 66.105 19.4 66.105 18.8633V11.9422H68.2318V9.50303H66.105V5.85025H62.7166V9.50303H60.8902ZM54.0523 20.0648C55.0536 20.0648 55.8226 19.7084 56.3593 18.9954C56.896 18.2825 57.1644 17.2692 57.1644 15.9555C57.1644 14.6417 56.896 13.6324 56.3593 12.9275C55.8226 12.2146 55.0536 11.8581 54.0523 11.8581C53.051 11.8581 52.278 12.2146 51.7333 12.9275C51.1966 13.6324 50.9282 14.6417 50.9282 15.9555C50.9282 17.2692 51.1966 18.2825 51.7333 18.9954C52.278 19.7084 53.051 20.0648 54.0523 20.0648ZM60.7571 15.9555C60.7571 17.878 60.2043 19.5241 59.0989 20.8939C57.9935 22.2557 56.3153 22.9366 54.0643 22.9366C51.8134 22.9366 50.1352 22.2557 49.0297 20.8939C47.9243 19.5241 47.3716 17.878 47.3716 15.9555C47.3716 14.065 47.9243 12.4269 49.0297 11.041C50.1352 9.65523 51.8134 8.96232 54.0643 8.96232C56.3153 8.96232 57.9935 9.65523 59.0989 11.041C60.2043 12.4269 60.7571 14.065 60.7571 15.9555ZM41.3748 9.07046C42.7285 9.07046 43.834 9.42693 44.6911 10.1399C45.5562 10.8448 45.9888 12.0183 45.9888 13.6605V22.48H42.4802V14.5136C42.4802 13.8247 42.3881 13.296 42.2038 12.9275C41.8674 12.2546 41.2266 11.9182 40.2813 11.9182C39.1198 11.9182 38.3228 12.4108 37.8902 13.3961C37.6659 13.9168 37.5538 14.5817 37.5538 15.3907V22.48H34.1413V9.4069H37.4456V11.3174C37.8862 10.6445 38.3027 10.1599 38.6952 9.8635C39.4002 9.33481 40.2933 9.07046 41.3748 9.07046ZM89.4021 25.0153L88.9695 24.9913V27.7309C89.338 27.7549 89.6144 27.7669 89.7986 27.7669C89.9829 27.7749 90.2272 27.7789 90.5316 27.7789C92.0456 27.7789 93.0549 27.4785 93.5595 26.8778C94.0642 26.285 94.7491 24.747 95.6142 22.2637L100.108 9.38287H96.4674L93.7638 19.0435L90.9041 9.38287H87.0951L91.9014 23.0568C91.9334 23.1529 91.8613 23.4172 91.6851 23.8498C91.5169 24.2824 91.3326 24.5667 91.1324 24.7029C90.9241 24.8471 90.6678 24.9392 90.3634 24.9793C90.059 25.0193 89.7385 25.0313 89.4021 25.0153ZM122.893 19.4715V7.78148H120.711V4.76883H122.893H126.57H128.497V7.78148H126.57V19.4715H128.497V22.4841H120.711V19.4715H122.893Z" fill="white"/>
<path d="M140.074 7.53906C140.105 6.66406 140.258 6.02344 140.531 5.61719C141.023 4.89844 141.973 4.53906 143.379 4.53906C143.512 4.53906 143.648 4.54297 143.789 4.55078C143.93 4.55859 144.09 4.57031 144.27 4.58594V6.50781C144.051 6.49219 143.891 6.48438 143.789 6.48438C143.695 6.47656 143.605 6.47266 143.52 6.47266C142.879 6.47266 142.496 6.64062 142.371 6.97656C142.246 7.30469 142.184 8.14844 142.184 9.50781H144.27V11.1719H142.16V22H140.074V11.1719H138.328V9.50781H140.074V7.53906ZM151.207 20.6406C152.605 20.6406 153.562 20.1133 154.078 19.0586C154.602 17.9961 154.863 16.8164 154.863 15.5195C154.863 14.3477 154.676 13.3945 154.301 12.6602C153.707 11.5039 152.684 10.9258 151.23 10.9258C149.941 10.9258 149.004 11.418 148.418 12.4023C147.832 13.3867 147.539 14.5742 147.539 15.9648C147.539 17.3008 147.832 18.4141 148.418 19.3047C149.004 20.1953 149.934 20.6406 151.207 20.6406ZM151.289 9.08594C152.906 9.08594 154.273 9.625 155.391 10.7031C156.508 11.7812 157.066 13.3672 157.066 15.4609C157.066 17.4844 156.574 19.1562 155.59 20.4766C154.605 21.7969 153.078 22.457 151.008 22.457C149.281 22.457 147.91 21.875 146.895 20.7109C145.879 19.5391 145.371 17.9688 145.371 16C145.371 13.8906 145.906 12.2109 146.977 10.9609C148.047 9.71094 149.484 9.08594 151.289 9.08594ZM159.645 9.44922H161.648V11.6172C161.812 11.1953 162.215 10.6836 162.855 10.082C163.496 9.47266 164.234 9.16797 165.07 9.16797C165.109 9.16797 165.176 9.17188 165.27 9.17969C165.363 9.1875 165.523 9.20312 165.75 9.22656V11.4531C165.625 11.4297 165.508 11.4141 165.398 11.4062C165.297 11.3984 165.184 11.3945 165.059 11.3945C163.996 11.3945 163.18 11.7383 162.609 12.4258C162.039 13.1055 161.754 13.8906 161.754 14.7812V22H159.645V9.44922ZM174.094 4.72656H176.145V10.9727C176.605 10.3711 177.156 9.91406 177.797 9.60156C178.438 9.28125 179.133 9.12109 179.883 9.12109C181.445 9.12109 182.711 9.66016 183.68 10.7383C184.656 11.8086 185.145 13.3906 185.145 15.4844C185.145 17.4688 184.664 19.1172 183.703 20.4297C182.742 21.7422 181.41 22.3984 179.707 22.3984C178.754 22.3984 177.949 22.168 177.293 21.707C176.902 21.4336 176.484 20.9961 176.039 20.3945V22H174.094V4.72656ZM179.578 20.5352C180.719 20.5352 181.57 20.082 182.133 19.1758C182.703 18.2695 182.988 17.0742 182.988 15.5898C182.988 14.2695 182.703 13.1758 182.133 12.3086C181.57 11.4414 180.738 11.0078 179.637 11.0078C178.676 11.0078 177.832 11.3633 177.105 12.0742C176.387 12.7852 176.027 13.957 176.027 15.5898C176.027 16.7695 176.176 17.7266 176.473 18.4609C177.027 19.8438 178.062 20.5352 179.578 20.5352ZM189.727 9.44922V17.7812C189.727 18.4219 189.828 18.9453 190.031 19.3516C190.406 20.1016 191.105 20.4766 192.129 20.4766C193.598 20.4766 194.598 19.8203 195.129 18.5078C195.418 17.8047 195.562 16.8398 195.562 15.6133V9.44922H197.672V22H195.68L195.703 20.1484C195.43 20.625 195.09 21.0273 194.684 21.3555C193.879 22.0117 192.902 22.3398 191.754 22.3398C189.965 22.3398 188.746 21.7422 188.098 20.5469C187.746 19.9062 187.57 19.0508 187.57 17.9805V9.44922H189.727ZM202.23 18.0625C202.293 18.7656 202.469 19.3047 202.758 19.6797C203.289 20.3594 204.211 20.6992 205.523 20.6992C206.305 20.6992 206.992 20.5312 207.586 20.1953C208.18 19.8516 208.477 19.3242 208.477 18.6133C208.477 18.0742 208.238 17.6641 207.762 17.3828C207.457 17.2109 206.855 17.0117 205.957 16.7852L204.281 16.3633C203.211 16.0977 202.422 15.8008 201.914 15.4727C201.008 14.9023 200.555 14.1133 200.555 13.1055C200.555 11.918 200.98 10.957 201.832 10.2227C202.691 9.48828 203.844 9.12109 205.289 9.12109C207.18 9.12109 208.543 9.67578 209.379 10.7852C209.902 11.4883 210.156 12.2461 210.141 13.0586H208.148C208.109 12.582 207.941 12.1484 207.645 11.7578C207.16 11.2031 206.32 10.9258 205.125 10.9258C204.328 10.9258 203.723 11.0781 203.309 11.3828C202.902 11.6875 202.699 12.0898 202.699 12.5898C202.699 13.1367 202.969 13.5742 203.508 13.9023C203.82 14.0977 204.281 14.2695 204.891 14.418L206.285 14.7578C207.801 15.125 208.816 15.4805 209.332 15.8242C210.152 16.3633 210.562 17.2109 210.562 18.3672C210.562 19.4844 210.137 20.4492 209.285 21.2617C208.441 22.0742 207.152 22.4805 205.418 22.4805C203.551 22.4805 202.227 22.0586 201.445 21.2148C200.672 20.3633 200.258 19.3125 200.203 18.0625H202.23ZM212.977 9.50781H215.121V22H212.977V9.50781ZM212.977 4.78516H215.121V7.17578H212.977V4.78516ZM218.32 9.44922H220.324V11.2305C220.918 10.4961 221.547 9.96875 222.211 9.64844C222.875 9.32812 223.613 9.16797 224.426 9.16797C226.207 9.16797 227.41 9.78906 228.035 11.0312C228.379 11.7109 228.551 12.6836 228.551 13.9492V22H226.406V14.0898C226.406 13.3242 226.293 12.707 226.066 12.2383C225.691 11.457 225.012 11.0664 224.027 11.0664C223.527 11.0664 223.117 11.1172 222.797 11.2188C222.219 11.3906 221.711 11.7344 221.273 12.25C220.922 12.6641 220.691 13.0938 220.582 13.5391C220.48 13.9766 220.43 14.6055 220.43 15.4258V22H218.32V9.44922ZM236.906 9.16797C237.797 9.16797 238.66 9.37891 239.496 9.80078C240.332 10.2148 240.969 10.7539 241.406 11.418C241.828 12.0508 242.109 12.7891 242.25 13.6328C242.375 14.2109 242.438 15.1328 242.438 16.3984H233.238C233.277 17.6719 233.578 18.6953 234.141 19.4688C234.703 20.2344 235.574 20.6172 236.754 20.6172C237.855 20.6172 238.734 20.2539 239.391 19.5273C239.766 19.1055 240.031 18.6172 240.188 18.0625H242.262C242.207 18.5234 242.023 19.0391 241.711 19.6094C241.406 20.1719 241.062 20.6328 240.68 20.9922C240.039 21.6172 239.246 22.0391 238.301 22.2578C237.793 22.3828 237.219 22.4453 236.578 22.4453C235.016 22.4453 233.691 21.8789 232.605 20.7461C231.52 19.6055 230.977 18.0117 230.977 15.9648C230.977 13.9492 231.523 12.3125 232.617 11.0547C233.711 9.79688 235.141 9.16797 236.906 9.16797ZM240.27 14.7227C240.184 13.8086 239.984 13.0781 239.672 12.5312C239.094 11.5156 238.129 11.0078 236.777 11.0078C235.809 11.0078 234.996 11.3594 234.34 12.0625C233.684 12.7578 233.336 13.6445 233.297 14.7227H240.27ZM246.293 18.0625C246.355 18.7656 246.531 19.3047 246.82 19.6797C247.352 20.3594 248.273 20.6992 249.586 20.6992C250.367 20.6992 251.055 20.5312 251.648 20.1953C252.242 19.8516 252.539 19.3242 252.539 18.6133C252.539 18.0742 252.301 17.6641 251.824 17.3828C251.52 17.2109 250.918 17.0117 250.02 16.7852L248.344 16.3633C247.273 16.0977 246.484 15.8008 245.977 15.4727C245.07 14.9023 244.617 14.1133 244.617 13.1055C244.617 11.918 245.043 10.957 245.895 10.2227C246.754 9.48828 247.906 9.12109 249.352 9.12109C251.242 9.12109 252.605 9.67578 253.441 10.7852C253.965 11.4883 254.219 12.2461 254.203 13.0586H252.211C252.172 12.582 252.004 12.1484 251.707 11.7578C251.223 11.2031 250.383 10.9258 249.188 10.9258C248.391 10.9258 247.785 11.0781 247.371 11.3828C246.965 11.6875 246.762 12.0898 246.762 12.5898C246.762 13.1367 247.031 13.5742 247.57 13.9023C247.883 14.0977 248.344 14.2695 248.953 14.418L250.348 14.7578C251.863 15.125 252.879 15.4805 253.395 15.8242C254.215 16.3633 254.625 17.2109 254.625 18.3672C254.625 19.4844 254.199 20.4492 253.348 21.2617C252.504 22.0742 251.215 22.4805 249.48 22.4805C247.613 22.4805 246.289 22.0586 245.508 21.2148C244.734 20.3633 244.32 19.3125 244.266 18.0625H246.293ZM258.293 18.0625C258.355 18.7656 258.531 19.3047 258.82 19.6797C259.352 20.3594 260.273 20.6992 261.586 20.6992C262.367 20.6992 263.055 20.5312 263.648 20.1953C264.242 19.8516 264.539 19.3242 264.539 18.6133C264.539 18.0742 264.301 17.6641 263.824 17.3828C263.52 17.2109 262.918 17.0117 262.02 16.7852L260.344 16.3633C259.273 16.0977 258.484 15.8008 257.977 15.4727C257.07 14.9023 256.617 14.1133 256.617 13.1055C256.617 11.918 257.043 10.957 257.895 10.2227C258.754 9.48828 259.906 9.12109 261.352 9.12109C263.242 9.12109 264.605 9.67578 265.441 10.7852C265.965 11.4883 266.219 12.2461 266.203 13.0586H264.211C264.172 12.582 264.004 12.1484 263.707 11.7578C263.223 11.2031 262.383 10.9258 261.188 10.9258C260.391 10.9258 259.785 11.0781 259.371 11.3828C258.965 11.6875 258.762 12.0898 258.762 12.5898C258.762 13.1367 259.031 13.5742 259.57 13.9023C259.883 14.0977 260.344 14.2695 260.953 14.418L262.348 14.7578C263.863 15.125 264.879 15.4805 265.395 15.8242C266.215 16.3633 266.625 17.2109 266.625 18.3672C266.625 19.4844 266.199 20.4492 265.348 21.2617C264.504 22.0742 263.215 22.4805 261.48 22.4805C259.613 22.4805 258.289 22.0586 257.508 21.2148C256.734 20.3633 256.32 19.3125 256.266 18.0625H258.293Z" fill="white"/>
</svg>
