<svg width="131" height="42" viewBox="0 0 131 42" fill="none" xmlns="http://www.w3.org/2000/svg">
<path d="M116 0.5C124.008 0.5 130.5 6.99187 130.5 15V41.5H15C6.99187 41.5 0.5 35.0081 0.5 27V0.5H116Z" fill="white" stroke="black"/>
<path d="M17.9605 24.1575C21.4266 26.9643 26.3836 26.9643 29.8497 24.1575L28.5095 22.5026C25.8248 24.6766 21.9854 24.6766 19.3007 22.5026L17.9605 24.1575Z" fill="black"/>
<path d="M19.404 20.5134V17.6365H21.5336V20.5134H19.404Z" fill="black"/>
<path d="M26.012 17.6365V20.5134H28.1415V17.6365H26.012Z" fill="black"/>
<path fill-rule="evenodd" clip-rule="evenodd" d="M35 21.5C35 27.8513 29.8513 33 23.5 33C17.1487 33 12 27.8513 12 21.5C12 15.1487 17.1487 10 23.5 10C29.8513 10 35 15.1487 35 21.5ZM32.8705 21.5C32.8705 26.6752 28.6752 30.8705 23.5 30.8705C18.3248 30.8705 14.1295 26.6752 14.1295 21.5C14.1295 16.3248 18.3248 12.1295 23.5 12.1295C28.6752 12.1295 32.8705 16.3248 32.8705 21.5Z" fill="black"/>
<path fill-rule="evenodd" clip-rule="evenodd" d="M93.3281 32.0851L97.95 19H101.008L105.594 32.0851H102.66L101.825 29.3953H97.0537L96.1575 32.0851H93.3281ZM99.4525 21.9916L97.783 27.1405H101.069L99.4525 21.9916Z" fill="black"/>
<path fill-rule="evenodd" clip-rule="evenodd" d="M77.602 22.1958C78.8615 22.1958 79.8456 22.6545 80.5544 23.5718C81.2691 24.4891 81.6264 25.6728 81.6264 27.1227C81.6264 28.6259 81.2749 29.8717 80.572 30.8601C79.869 31.8484 78.8878 32.3426 77.6284 32.3426C76.8376 32.3426 76.202 32.1828 75.7217 31.8632C75.4346 31.6738 75.1242 31.3424 74.7903 30.8689V32.0851H72.3388V19.0178H74.8342V23.6695C75.1505 23.2197 75.4991 22.8764 75.8798 22.6397C76.3309 22.3438 76.9049 22.1958 77.602 22.1958ZM76.9606 30.2564C77.605 30.2564 78.1058 29.993 78.4631 29.4663C78.8205 28.9396 78.9991 28.2472 78.9991 27.389C78.9991 26.7025 78.9113 26.1344 78.7355 25.6846C78.4016 24.8324 77.7866 24.4063 76.8903 24.4063C75.9823 24.4063 75.3585 24.8235 75.0187 25.658C74.843 26.1018 74.7551 26.6759 74.7551 27.3802C74.7551 28.2087 74.9367 28.8952 75.2999 29.4397C75.6631 29.9842 76.2167 30.2564 76.9606 30.2564Z" fill="black"/>
<path d="M66.5236 30.1587C66.424 30.0581 66.3742 29.8096 66.3742 29.4131V24.2997H67.9295V22.4977H66.3742V19.799H63.8964V22.4977H62.5608V24.2997H63.8964V30.2564C63.8964 30.8601 64.037 31.3069 64.3181 31.5969C64.7516 32.0526 65.56 32.2597 66.7433 32.2183L67.9295 32.1739V30.283C67.8475 30.2889 67.7626 30.2949 67.6747 30.3008H67.4374C66.9278 30.3008 66.6232 30.2534 66.5236 30.1587Z" fill="black"/>
<path fill-rule="evenodd" clip-rule="evenodd" d="M62.4634 27.2648C62.4634 28.6851 62.0592 29.9013 61.2508 30.9133C60.4425 31.9194 59.2152 32.4225 57.5692 32.4225C55.9231 32.4225 54.6959 31.9194 53.8875 30.9133C53.0791 29.9013 52.6749 28.6851 52.6749 27.2648C52.6749 25.8681 53.0791 24.6578 53.8875 23.6339C54.6959 22.6101 55.9231 22.0982 57.5692 22.0982C59.2152 22.0982 60.4425 22.6101 61.2508 23.6339C62.0592 24.6578 62.4634 25.8681 62.4634 27.2648ZM57.5604 30.3008C58.2926 30.3008 58.855 30.0374 59.2475 29.5107C59.6399 28.984 59.8362 28.2353 59.8362 27.2648C59.8362 26.2942 59.6399 25.5485 59.2475 25.0277C58.855 24.501 58.2926 24.2376 57.5604 24.2376C56.8282 24.2376 56.2629 24.501 55.8646 25.0277C55.4721 25.5485 55.2758 26.2942 55.2758 27.2648C55.2758 28.2353 55.4721 28.984 55.8646 29.5107C56.2629 30.0374 56.8282 30.3008 57.5604 30.3008Z" fill="black"/>
<path d="M48.2896 22.1781C49.2796 22.1781 50.088 22.4414 50.7148 22.9681C51.3474 23.4889 51.6638 24.356 51.6638 25.5692V32.0851H49.098V26.1995C49.098 25.6905 49.0307 25.2999 48.8959 25.0277C48.6499 24.5305 48.1813 24.282 47.49 24.282C46.6407 24.282 46.0578 24.646 45.7415 25.3739C45.5775 25.7586 45.4954 26.2498 45.4954 26.8475V32.0851H43V22.4266H45.4164V23.8381C45.7385 23.341 46.0432 22.9829 46.3302 22.764C46.8457 22.3734 47.4988 22.1781 48.2896 22.1781Z" fill="black"/>
<path d="M83.4108 33.9582L83.0945 33.9405V35.9645C83.3639 35.9822 83.566 35.9911 83.7008 35.9911C83.8355 35.997 84.0142 36 84.2368 36C85.3439 36 86.082 35.7781 86.451 35.3342C86.8201 34.8963 87.3209 33.76 87.9536 31.9253L91.2398 22.4089H88.5774L86.6004 29.5462L84.5092 22.4089H81.7237L85.2385 32.5112C85.2619 32.5822 85.2092 32.7775 85.0803 33.0971C84.9573 33.4167 84.8225 33.6268 84.6761 33.7274C84.5238 33.8339 84.3363 33.902 84.1137 33.9316C83.8911 33.9612 83.6568 33.9701 83.4108 33.9582Z" fill="black"/>
<path d="M107.902 29.8624V21.2258H106.306V19H112V21.2258H110.59V29.8624H112V32.0882H106.306V29.8624H107.902Z" fill="black"/>
<path d="M81.8203 13.8379L83.2412 9.55176H84.2188C84.0942 9.88934 83.8177 10.6593 83.3887 11.8613C83.0676 12.7656 82.7983 13.5031 82.582 14.0732C82.0709 15.4167 81.7107 16.2363 81.501 16.5312C81.2913 16.826 80.9308 16.9736 80.4199 16.9736C80.2956 16.9736 80.1987 16.9688 80.1299 16.959C80.0644 16.9492 79.9821 16.9305 79.8838 16.9043V16.0986C80.0375 16.1412 80.1489 16.1669 80.2178 16.1768C80.2866 16.1866 80.348 16.1914 80.4004 16.1914C80.564 16.1914 80.6835 16.164 80.7588 16.1084C80.8373 16.0561 80.9027 15.9906 80.9551 15.9121C80.9715 15.8859 81.0303 15.7511 81.1318 15.5088C81.2334 15.2663 81.3076 15.0857 81.3535 14.9678L79.4072 9.55176H80.4102L81.8203 13.8379Z" fill="black"/>
<path fill-rule="evenodd" clip-rule="evenodd" d="M44.5361 9.42383C45.1324 9.42389 45.6386 9.65362 46.0547 10.1123C46.4707 10.5678 46.6787 11.2198 46.6787 12.0684C46.6787 13.215 46.3789 14.0339 45.7793 14.5254C45.3992 14.8367 44.9568 14.9922 44.4521 14.9922C44.0557 14.9922 43.7227 14.9061 43.4541 14.7324C43.2969 14.6341 43.122 14.4647 42.9287 14.2256V16.9141H42.0439V9.57617H42.9043V10.2744C43.0812 10.0352 43.2747 9.84982 43.4844 9.71875C43.7825 9.52223 44.1332 9.42383 44.5361 9.42383ZM44.334 10.2002C43.7216 10.2003 43.3022 10.5067 43.0762 11.1191C42.9549 11.4468 42.8945 11.8635 42.8945 12.3682C42.8946 12.7744 42.955 13.1203 43.0762 13.4053C43.3055 13.9489 43.7248 14.2206 44.334 14.2207C44.7467 14.2207 45.0894 14.0489 45.3613 13.7051C45.6366 13.3577 45.7744 12.8395 45.7744 12.1514C45.7744 11.7321 45.714 11.3717 45.5928 11.0703C45.3634 10.4903 44.9435 10.2002 44.334 10.2002Z" fill="black"/>
<path fill-rule="evenodd" clip-rule="evenodd" d="M64.1445 9.43359C64.5179 9.43365 64.88 9.52233 65.2305 9.69922C65.5808 9.87279 65.8478 10.0986 66.0312 10.377C66.2082 10.6424 66.3268 10.9528 66.3857 11.3066C66.4381 11.5491 66.4639 11.9355 66.4639 12.4658H62.6055C62.6219 12.9999 62.7485 13.4295 62.9844 13.7539C63.2203 14.075 63.5854 14.2353 64.0801 14.2354C64.5421 14.2354 64.9113 14.0831 65.1865 13.7783C65.3437 13.6014 65.455 13.3966 65.5205 13.1641H66.3906C66.3677 13.3573 66.2902 13.5734 66.1592 13.8125C66.0314 14.0484 65.8871 14.2419 65.7266 14.3926C65.458 14.6546 65.1258 14.8321 64.7295 14.9238C64.5166 14.9762 64.2754 15.0019 64.0068 15.002C63.3515 15.002 62.7953 14.7652 62.3398 14.29C61.8844 13.8116 61.6572 13.1426 61.6572 12.2842C61.6573 11.4389 61.887 10.7521 62.3457 10.2246C62.8044 9.69734 63.4042 9.43359 64.1445 9.43359ZM64.0898 10.2051C63.6836 10.2051 63.3426 10.3526 63.0674 10.6475C62.7922 10.9391 62.6463 11.3115 62.6299 11.7637H65.5547C65.5187 11.3804 65.4347 11.0741 65.3037 10.8447C65.0612 10.4188 64.6567 10.2051 64.0898 10.2051Z" fill="black"/>
<path fill-rule="evenodd" clip-rule="evenodd" d="M71.4434 14.8154H70.6475V14.083C70.4411 14.4073 70.1968 14.642 69.915 14.7861C69.6332 14.9303 69.31 15.002 68.9463 15.002C68.36 15.0019 67.852 14.7569 67.4229 14.2656C66.9936 13.7708 66.7793 13.1131 66.7793 12.2939C66.7793 11.5273 66.9744 10.864 67.3643 10.3037C67.7575 9.74016 68.3175 9.45801 69.0449 9.45801C69.448 9.45801 69.7857 9.54348 70.0576 9.71387C70.2148 9.81213 70.3931 9.98406 70.5928 10.2295V7.57031H71.4434V14.8154ZM69.2119 10.2295C68.7663 10.2295 68.4045 10.4005 68.126 10.7412C67.8507 11.082 67.7129 11.5832 67.7129 12.2451C67.7129 12.8084 67.8323 13.2802 68.0713 13.6602C68.3105 14.0402 68.6942 14.2304 69.2217 14.2305C69.6312 14.2305 69.9674 14.0556 70.2295 13.7051C70.4948 13.3513 70.6279 12.8449 70.6279 12.1865C70.6279 11.5215 70.4915 11.0298 70.2197 10.7119C69.9478 10.3908 69.6117 10.2295 69.2119 10.2295Z" fill="black"/>
<path fill-rule="evenodd" clip-rule="evenodd" d="M49.3779 9.42383C49.9971 9.42386 50.5001 9.54148 50.8867 9.77734C51.2701 10.0133 51.4619 10.3808 51.4619 10.8789V13.9111C51.4619 14.0029 51.4796 14.0771 51.5156 14.1328C51.555 14.1884 51.6357 14.2158 51.7568 14.2158C51.7961 14.2158 51.8406 14.2142 51.8896 14.2109C51.9387 14.2044 51.9913 14.1963 52.0469 14.1865V14.8398C51.9095 14.8791 51.8045 14.9042 51.7324 14.9141C51.6604 14.9239 51.5618 14.9287 51.4375 14.9287C51.1328 14.9287 50.9111 14.8207 50.7734 14.6045C50.7014 14.4899 50.6506 14.3277 50.6211 14.1182C50.4409 14.3539 50.1821 14.5588 49.8447 14.7324C49.5072 14.9061 49.1348 14.9922 48.7285 14.9922C48.2404 14.9921 47.8405 14.8446 47.5293 14.5498C47.2215 14.2517 47.0674 13.88 47.0674 13.4346C47.0674 12.9463 47.2197 12.5675 47.5244 12.2988C47.8291 12.0302 48.229 11.865 48.7236 11.8027L50.1348 11.626C50.3378 11.5997 50.4742 11.5143 50.543 11.3701C50.5822 11.2915 50.6015 11.1785 50.6016 11.0312C50.6016 10.7298 50.4936 10.5113 50.2773 10.377C50.0644 10.2394 49.758 10.1709 49.3584 10.1709C48.8966 10.1709 48.5684 10.2951 48.375 10.5439C48.2669 10.6816 48.1968 10.8872 48.1641 11.1592H47.3379C47.3543 10.5106 47.564 10.06 47.9668 9.80762C48.3731 9.55203 48.8438 9.42383 49.3779 9.42383ZM50.5771 12.1367C50.469 12.2055 50.3295 12.2627 50.1592 12.3086C49.9889 12.3544 49.8219 12.3876 49.6582 12.4072L49.1221 12.4756C48.801 12.5182 48.56 12.586 48.3994 12.6777C48.1276 12.8317 47.9912 13.0776 47.9912 13.415C47.9913 13.6705 48.0848 13.8721 48.2715 14.0195C48.4583 14.167 48.68 14.2402 48.9355 14.2402C49.2467 14.2402 49.5483 14.1686 49.8398 14.0244C50.3313 13.7852 50.5771 13.3935 50.5771 12.8496V12.1367Z" fill="black"/>
<path fill-rule="evenodd" clip-rule="evenodd" d="M89.0459 9.42383C89.6652 9.42383 90.169 9.54142 90.5557 9.77734C90.939 10.0133 91.1299 10.3809 91.1299 10.8789V13.9111C91.1299 14.0029 91.1485 14.0771 91.1846 14.1328C91.2239 14.1882 91.3041 14.2157 91.4248 14.2158C91.464 14.2158 91.5086 14.2142 91.5576 14.2109C91.6066 14.2044 91.6593 14.1963 91.7148 14.1865V14.8398C91.5774 14.8791 91.4724 14.9042 91.4004 14.9141C91.3283 14.9239 91.2298 14.9287 91.1055 14.9287C90.801 14.9286 90.58 14.8205 90.4424 14.6045C90.3703 14.4899 90.3195 14.3276 90.29 14.1182C90.1099 14.354 89.851 14.5588 89.5137 14.7324C89.1762 14.9061 88.8038 14.9922 88.3975 14.9922C87.9093 14.9922 87.5095 14.8447 87.1982 14.5498C86.8904 14.2517 86.7363 13.8801 86.7363 13.4346C86.7363 12.9463 86.8886 12.5675 87.1934 12.2988C87.4981 12.0302 87.8979 11.865 88.3926 11.8027L89.8037 11.626C90.0066 11.5997 90.1422 11.5142 90.2109 11.3701C90.2502 11.2915 90.2705 11.1786 90.2705 11.0312C90.2705 10.7299 90.1624 10.5113 89.9463 10.377C89.7333 10.2393 89.4261 10.1709 89.0264 10.1709C88.5648 10.171 88.2373 10.2953 88.0439 10.5439C87.9358 10.6816 87.8648 10.8872 87.832 11.1592H87.0068C87.0232 10.5105 87.2328 10.0599 87.6357 9.80762C88.0419 9.55211 88.512 9.4239 89.0459 9.42383ZM90.2461 12.1367C90.138 12.2055 89.9984 12.2627 89.8281 12.3086C89.6577 12.3545 89.49 12.3876 89.3262 12.4072L88.791 12.4756C88.4699 12.5182 88.2289 12.586 88.0684 12.6777C87.7964 12.8317 87.6602 13.0775 87.6602 13.415C87.6602 13.6705 87.7537 13.8721 87.9404 14.0195C88.1272 14.167 88.3489 14.2402 88.6045 14.2402C88.9156 14.2402 89.2173 14.1685 89.5088 14.0244C90.0001 13.7852 90.2461 13.3934 90.2461 12.8496V12.1367Z" fill="black"/>
<path fill-rule="evenodd" clip-rule="evenodd" d="M115.029 9.42383C115.648 9.42383 116.151 9.54158 116.538 9.77734C116.921 10.0133 117.113 10.3808 117.113 10.8789V13.9111C117.113 14.0029 117.132 14.0771 117.168 14.1328C117.207 14.1882 117.287 14.2158 117.408 14.2158C117.448 14.2158 117.492 14.2142 117.541 14.2109C117.59 14.2044 117.643 14.1963 117.698 14.1865V14.8398C117.561 14.8792 117.456 14.9042 117.384 14.9141C117.312 14.9239 117.213 14.9287 117.089 14.9287C116.784 14.9287 116.563 14.8205 116.426 14.6045C116.354 14.4899 116.303 14.3276 116.273 14.1182C116.093 14.3541 115.834 14.5588 115.496 14.7324C115.159 14.9059 114.787 14.9922 114.381 14.9922C113.893 14.9922 113.493 14.8447 113.182 14.5498C112.874 14.2517 112.72 13.8801 112.72 13.4346C112.72 12.9463 112.872 12.5675 113.177 12.2988C113.481 12.0303 113.881 11.865 114.376 11.8027L115.786 11.626C115.989 11.5998 116.126 11.5143 116.194 11.3701C116.234 11.2915 116.253 11.1786 116.253 11.0312C116.253 10.7298 116.145 10.5113 115.929 10.377C115.716 10.2395 115.409 10.1709 115.01 10.1709C114.548 10.1709 114.22 10.295 114.026 10.5439C113.918 10.6816 113.848 10.8872 113.815 11.1592H112.989C113.006 10.5104 113.216 10.0599 113.619 9.80762C114.025 9.55206 114.495 9.42386 115.029 9.42383ZM116.229 12.1367C116.12 12.2055 115.981 12.2627 115.811 12.3086C115.64 12.3544 115.473 12.3876 115.31 12.4072L114.773 12.4756C114.453 12.5182 114.212 12.5861 114.052 12.6777C113.78 12.8317 113.644 13.0775 113.644 13.415C113.644 13.6705 113.737 13.8721 113.924 14.0195C114.111 14.1668 114.332 14.2402 114.587 14.2402C114.898 14.2402 115.2 14.1685 115.491 14.0244C115.983 13.7852 116.229 13.3935 116.229 12.8496V12.1367Z" fill="black"/>
<path fill-rule="evenodd" clip-rule="evenodd" d="M75.543 10.1904C75.7363 9.93812 75.9676 9.7463 76.2363 9.61523C76.505 9.48089 76.7968 9.41406 77.1113 9.41406C77.7666 9.41406 78.2978 9.63968 78.7041 10.0918C79.1137 10.5407 79.3184 11.2048 79.3184 12.083C79.3183 12.9152 79.1169 13.6068 78.7139 14.1572C78.3109 14.7076 77.7522 14.9823 77.0381 14.9824C76.6383 14.9824 76.3006 14.8857 76.0254 14.6924C75.8616 14.5777 75.6858 14.3948 75.499 14.1426V14.8154H74.6836V7.57031H75.543V10.1904ZM77.0078 10.2051C76.6049 10.2052 76.2509 10.3543 75.9463 10.6523C75.6449 10.9505 75.4942 11.4422 75.4941 12.127C75.4941 12.6216 75.5562 13.0231 75.6807 13.3311C75.9133 13.911 76.3478 14.2011 76.9834 14.2012C77.4618 14.2012 77.8188 14.011 78.0547 13.6309C78.2939 13.2508 78.4141 12.7495 78.4141 12.127C78.414 11.5732 78.2939 11.1147 78.0547 10.751C77.8188 10.3873 77.4698 10.2051 77.0078 10.2051Z" fill="black"/>
<path d="M100.667 9.55176V13.0459C100.667 13.3146 100.71 13.5347 100.795 13.7051C100.952 14.0194 101.246 14.1768 101.675 14.1768C102.291 14.1766 102.71 13.901 102.933 13.3506C103.054 13.0557 103.114 12.651 103.114 12.1367V9.55176H103.999V14.8154H103.164L103.174 14.0391C103.059 14.2388 102.916 14.4073 102.746 14.5449C102.409 14.8201 101.999 14.9579 101.518 14.958C100.767 14.958 100.255 14.7074 99.9834 14.2061C99.836 13.9374 99.7627 13.5786 99.7627 13.1299V9.55176H100.667Z" fill="black"/>
<path d="M60.625 8.08203V9.55176H61.4648V10.2744H60.625V13.71C60.625 13.8933 60.6871 14.0159 60.8115 14.0781C60.8803 14.1141 60.9948 14.1328 61.1553 14.1328H61.293C61.3421 14.1295 61.3994 14.1247 61.4648 14.1182V14.8154C61.3633 14.8449 61.2569 14.8668 61.1455 14.8799C61.0375 14.893 60.9196 14.8994 60.792 14.8994C60.3793 14.8994 60.0987 14.7945 59.9512 14.585C59.8037 14.372 59.7305 14.0963 59.7305 13.7588V10.2744H59.0176V9.55176H59.7305V8.08203H60.625Z" fill="black"/>
<path d="M53.4131 14.8154H52.5137V9.57617H53.4131V14.8154Z" fill="black"/>
<path d="M56.9131 9.43359C57.66 9.43359 58.1646 9.69409 58.4268 10.2148C58.5709 10.4999 58.6436 10.9086 58.6436 11.4395V14.8154H57.7441V11.498C57.7441 11.1771 57.6965 10.9182 57.6016 10.7217C57.4443 10.394 57.159 10.2295 56.7461 10.2295C56.5366 10.2295 56.3648 10.2514 56.2305 10.2939C55.988 10.366 55.7743 10.5103 55.5908 10.7266C55.4436 10.9001 55.3467 11.08 55.3008 11.2666C55.2582 11.4501 55.2373 11.7145 55.2373 12.0586V14.8154H54.3525V9.55176H55.1934V10.2988C55.4424 9.99086 55.7059 9.7691 55.9844 9.63477C56.2628 9.50051 56.5725 9.43362 56.9131 9.43359Z" fill="black"/>
<path d="M95.4658 7.57031V10.2646C95.6754 9.99936 95.8642 9.81226 96.0312 9.7041C96.3162 9.51739 96.6719 9.42389 97.0977 9.42383C97.861 9.42383 98.3794 9.69065 98.6514 10.2246C98.7988 10.5162 98.8721 10.9217 98.8721 11.4395V14.8154H97.9629V11.498C97.9629 11.1114 97.9137 10.8277 97.8154 10.6475C97.6548 10.3593 97.3534 10.2148 96.9111 10.2148C96.5442 10.2149 96.2112 10.3415 95.9131 10.5938C95.6152 10.8461 95.4659 11.3227 95.4658 12.0234V14.8154H94.582V7.57031H95.4658Z" fill="black"/>
<path d="M110.414 9.43359C111.122 9.43365 111.603 9.6893 111.858 10.2002C111.996 10.4754 112.065 10.8462 112.065 11.3115V14.8154H111.146V11.1592C111.146 10.8087 111.058 10.5676 110.881 10.4365C110.707 10.3055 110.494 10.2393 110.242 10.2393C109.895 10.2393 109.595 10.3563 109.343 10.5889C109.094 10.8215 108.969 11.21 108.969 11.7539V14.8154H108.069V11.3799C108.069 11.0228 108.027 10.7625 107.941 10.5986C107.807 10.3529 107.556 10.2295 107.189 10.2295C106.855 10.2295 106.551 10.3593 106.275 10.6182C106.003 10.877 105.867 11.3454 105.867 12.0234V14.8154H104.982V9.55176H105.857V10.2988C106.067 10.04 106.257 9.85136 106.428 9.7334C106.719 9.53354 107.051 9.43359 107.421 9.43359C107.84 9.43365 108.177 9.53696 108.433 9.74316C108.577 9.86113 108.708 10.0353 108.826 10.2646C109.023 9.98285 109.254 9.77399 109.52 9.63965C109.785 9.50215 110.083 9.43359 110.414 9.43359Z" fill="black"/>
<path d="M120.727 9.43359C121.473 9.43361 121.978 9.69404 122.24 10.2148C122.384 10.4999 122.457 10.9086 122.457 11.4395V14.8154H121.558V11.498C121.558 11.1772 121.51 10.9182 121.415 10.7217C121.258 10.3941 120.972 10.2295 120.56 10.2295C120.35 10.2295 120.177 10.2513 120.043 10.2939C119.801 10.3661 119.588 10.5104 119.404 10.7266C119.257 10.9001 119.16 11.08 119.114 11.2666C119.072 11.4501 119.051 11.7145 119.051 12.0586V14.8154H118.166V9.55176H119.006V10.2988C119.255 9.99082 119.519 9.76911 119.798 9.63477C120.076 9.50055 120.386 9.43359 120.727 9.43359Z" fill="black"/>
<path d="M53.4131 8.59766H52.5137V7.5957H53.4131V8.59766Z" fill="black"/>
</svg>
