<svg width="131" height="42" viewBox="0 0 131 42" fill="none" xmlns="http://www.w3.org/2000/svg">
<path d="M116 0.5C124.008 0.5 130.5 6.99187 130.5 15V41.5H15C6.99187 41.5 0.5 35.0081 0.5 27V0.5H116Z" fill="black" stroke="#ACACAC"/>
<path d="M15.9605 24.1575C19.4266 26.9643 24.3836 26.9643 27.8497 24.1575L26.5095 22.5026C23.8248 24.6766 19.9854 24.6766 17.3007 22.5026L15.9605 24.1575Z" fill="white"/>
<path d="M17.404 20.5134V17.6365H19.5336V20.5134H17.404Z" fill="white"/>
<path d="M24.012 17.6365V20.5134H26.1415V17.6365H24.012Z" fill="white"/>
<path fill-rule="evenodd" clip-rule="evenodd" d="M33 21.5C33 27.8513 27.8513 33 21.5 33C15.1487 33 10 27.8513 10 21.5C10 15.1487 15.1487 10 21.5 10C27.8513 10 33 15.1487 33 21.5ZM30.8705 21.5C30.8705 26.6752 26.6752 30.8705 21.5 30.8705C16.3248 30.8705 12.1295 26.6752 12.1295 21.5C12.1295 16.3248 16.3248 12.1295 21.5 12.1295C26.6752 12.1295 30.8705 16.3248 30.8705 21.5Z" fill="white"/>
<path fill-rule="evenodd" clip-rule="evenodd" d="M101.042 32.1608L96.4552 19.3289H93.3972L88.7752 32.1608H91.6046L92.5009 29.523H97.2724L98.1071 32.1608H101.042ZM94.8998 22.2626L96.5167 27.3118H93.2303L94.8998 22.2626Z" fill="white"/>
<path fill-rule="evenodd" clip-rule="evenodd" d="M73.0484 22.4628C74.3079 22.4628 75.292 22.9126 76.0009 23.8122C76.7156 24.7118 77.0729 25.8725 77.0729 27.2944C77.0729 28.7685 76.7214 29.9902 76.0184 30.9594C75.3155 31.9287 74.3342 32.4133 73.0747 32.4133C72.2839 32.4133 71.6483 32.2566 71.1679 31.9432C70.8809 31.7574 70.5704 31.4324 70.2365 30.9681V32.1608H67.7849V19.3463H70.2804V23.908C70.5968 23.4669 70.9453 23.1303 71.3261 22.8981C71.7772 22.6079 72.3513 22.4628 73.0484 22.4628ZM72.4069 30.3675C73.0513 30.3675 73.5522 30.1092 73.9095 29.5927C74.2669 29.0761 74.4455 28.3971 74.4455 27.5556C74.4455 26.8824 74.3577 26.3252 74.1819 25.8841C73.848 25.0484 73.2329 24.6305 72.3366 24.6305C71.4286 24.6305 70.8047 25.0397 70.465 25.858C70.2892 26.2933 70.2013 26.8562 70.2013 27.5469C70.2013 28.3594 70.3829 29.0326 70.7461 29.5666C71.1094 30.1005 71.6629 30.3675 72.4069 30.3675Z" fill="white"/>
<path d="M59.7639 31.682C59.4827 31.3976 59.3421 30.9594 59.3421 30.3675V24.5261H58.0065V22.7588H59.3421V20.1124H61.8201V22.7588H63.3754V24.5261H61.8201V29.5404C61.8201 29.9293 61.8699 30.173 61.9695 30.2717C62.0691 30.3646 62.3737 30.411 62.8833 30.411H63.1206C63.2085 30.4052 63.2934 30.3994 63.3754 30.3936V32.2479L62.1892 32.2914C61.0058 32.332 60.1974 32.1289 59.7639 31.682Z" fill="white"/>
<path fill-rule="evenodd" clip-rule="evenodd" d="M57.9091 27.4337C57.9091 28.8266 57.5049 30.0192 56.6965 31.0117C55.8881 31.9983 54.6608 32.4916 53.0147 32.4916C51.3685 32.4916 50.1412 31.9983 49.3328 31.0117C48.5244 30.0192 48.1202 28.8266 48.1202 27.4337C48.1202 26.064 48.5244 24.8772 49.3328 23.8731C50.1412 22.8691 51.3685 22.3671 53.0147 22.3671C54.6608 22.3671 55.8881 22.8691 56.6965 23.8731C57.5049 24.8772 57.9091 26.064 57.9091 27.4337ZM53.0059 30.411C53.7381 30.411 54.3005 30.1527 54.693 29.6362C55.0855 29.1197 55.2817 28.3855 55.2817 27.4337C55.2817 26.4819 55.0855 25.7506 54.693 25.2399C54.3005 24.7234 53.7381 24.4651 53.0059 24.4651C52.2736 24.4651 51.7083 24.7234 51.3099 25.2399C50.9174 25.7506 50.7212 26.4819 50.7212 27.4337C50.7212 28.3855 50.9174 29.1197 51.3099 29.6362C51.7083 30.1527 52.2736 30.411 53.0059 30.411Z" fill="white"/>
<path d="M46.16 23.2202C45.5331 22.7037 44.7247 22.4454 43.7347 22.4454C42.9439 22.4454 42.2907 22.637 41.7752 23.02C41.4881 23.2347 41.1835 23.5859 40.8613 24.0734V22.6892H38.4448V32.1608H40.9404V27.0245C40.9404 26.4384 41.0224 25.9567 41.1864 25.5794C41.5028 24.8656 42.0856 24.5086 42.9351 24.5086C43.6263 24.5086 44.095 24.7524 44.341 25.2399C44.4758 25.5069 44.5431 25.8899 44.5431 26.389V32.1608H47.109V25.7709C47.109 24.5812 46.7926 23.731 46.16 23.2202Z" fill="white"/>
<path d="M78.8574 33.9977L78.5411 33.9803V35.9651C78.8105 35.9825 79.0126 35.9912 79.1474 35.9912C79.2821 35.997 79.4608 35.9999 79.6834 35.9999C80.7906 35.9999 81.5287 35.7823 81.8978 35.347C82.2668 34.9175 82.7677 33.8032 83.4004 32.0041L86.6868 22.6718H84.0243L82.0471 29.671L79.9558 22.6718H77.1703L80.6851 32.5787C80.7086 32.6483 80.6558 32.8398 80.527 33.1532C80.4039 33.4666 80.2692 33.6727 80.1228 33.7713C79.9704 33.8758 79.783 33.9425 79.5604 33.9715C79.3378 34.0006 79.1034 34.0093 78.8574 33.9977Z" fill="white"/>
<path d="M103.349 21.5116V29.9811H101.754V32.1638H107.448V29.9811H106.038V21.5116H107.448V19.3289H101.754V21.5116H103.349Z" fill="white"/>
<path d="M85.8604 13.9219L87.1592 10.0049H88.0527C87.9389 10.3135 87.6861 11.0175 87.2939 12.1162C87.0005 12.9427 86.7543 13.6166 86.5566 14.1377C86.0895 15.3654 85.76 16.1143 85.5684 16.3838C85.3767 16.6531 85.0471 16.7881 84.5801 16.7881C84.4665 16.7881 84.3783 16.7834 84.3154 16.7744C84.2556 16.7654 84.1806 16.7485 84.0908 16.7246V15.9883C84.2314 16.0272 84.3336 16.0506 84.3965 16.0596C84.4592 16.0685 84.5147 16.0732 84.5625 16.0732C84.7121 16.0732 84.8218 16.048 84.8906 15.9971C84.9624 15.9492 85.0225 15.8891 85.0703 15.8174C85.0855 15.7929 85.139 15.67 85.2314 15.4492C85.3242 15.2277 85.3917 15.0629 85.4336 14.9551L83.6553 10.0049H84.5713L85.8604 13.9219Z" fill="white"/>
<path fill-rule="evenodd" clip-rule="evenodd" d="M40.2715 9.8877C40.8164 9.88771 41.2789 10.0975 41.6592 10.5166C42.0395 10.9329 42.2305 11.529 42.2305 12.3047C42.2304 13.3527 41.9562 14.1016 41.4082 14.5508C41.0609 14.8352 40.6564 14.9775 40.1953 14.9775C39.8329 14.9775 39.5288 14.898 39.2832 14.7393C39.1395 14.6494 38.9794 14.495 38.8027 14.2764V16.7334H37.9941V10.0273H38.7803V10.665C38.942 10.4464 39.1189 10.277 39.3105 10.1572C39.583 9.97768 39.9033 9.8877 40.2715 9.8877ZM40.0869 10.5977C39.5271 10.5978 39.1441 10.8777 38.9375 11.4375C38.8267 11.7369 38.7715 12.1171 38.7715 12.5781C38.7715 12.9495 38.8267 13.2658 38.9375 13.5264C39.1471 14.0234 39.5301 14.2724 40.0869 14.2725C40.4642 14.2725 40.7778 14.1152 41.0264 13.8008C41.2779 13.4833 41.4033 13.0098 41.4033 12.3809C41.4033 11.9975 41.3481 11.6681 41.2373 11.3926C41.0277 10.8625 40.6439 10.5977 40.0869 10.5977Z" fill="white"/>
<path fill-rule="evenodd" clip-rule="evenodd" d="M54.5762 9.86523C55.1959 9.86531 55.7203 10.0721 56.1484 10.4854C56.5764 10.8986 56.79 11.5064 56.79 12.3086C56.79 13.0841 56.6018 13.7254 56.2246 14.2314C55.8473 14.7376 55.2614 14.9912 54.4678 14.9912C53.8061 14.9912 53.2809 14.7674 52.8916 14.3213C52.5023 13.8721 52.3076 13.2703 52.3076 12.5156C52.3076 11.7071 52.5126 11.0631 52.9229 10.584C53.3331 10.1049 53.8844 9.86523 54.5762 9.86523ZM54.5537 10.5703C54.0596 10.5703 53.7002 10.7594 53.4756 11.1367C53.251 11.514 53.1387 11.969 53.1387 12.502C53.1387 13.0141 53.251 13.4408 53.4756 13.7822C53.7001 14.1235 54.056 14.2948 54.5439 14.2949C55.0798 14.2949 55.4468 14.0925 55.6445 13.6885C55.8452 13.2812 55.9463 12.8282 55.9463 12.3311C55.9462 11.8821 55.8742 11.5168 55.7305 11.2354C55.5029 10.7922 55.1106 10.5704 54.5537 10.5703Z" fill="white"/>
<path fill-rule="evenodd" clip-rule="evenodd" d="M44.8594 9.89648C45.2008 9.89648 45.5321 9.97793 45.8525 10.1396C46.1726 10.2982 46.4164 10.5046 46.584 10.7588C46.7457 11.0014 46.8543 11.285 46.9082 11.6084C46.9561 11.83 46.9795 12.1832 46.9795 12.668H43.4531C43.4681 13.1561 43.5832 13.5492 43.7988 13.8457C44.0144 14.1391 44.3487 14.2851 44.8008 14.2852C45.2229 14.2852 45.56 14.1465 45.8115 13.8682C45.9552 13.7065 46.0573 13.5191 46.1172 13.3066H46.9121C46.8911 13.4832 46.8209 13.6809 46.7012 13.8994C46.5844 14.115 46.4524 14.292 46.3057 14.4297C46.0601 14.6691 45.7558 14.8302 45.3936 14.9141C45.199 14.9619 44.9789 14.9863 44.7334 14.9863C44.1346 14.9863 43.6272 14.7691 43.2109 14.335C42.7947 13.8977 42.5859 13.2866 42.5859 12.502C42.586 11.7296 42.7958 11.1022 43.2148 10.6201C43.6341 10.138 44.1826 9.89649 44.8594 9.89648ZM44.8096 10.6016C44.4386 10.6017 44.1274 10.7367 43.876 11.0059C43.6244 11.2724 43.4906 11.6131 43.4756 12.0264H46.1484C46.1155 11.676 46.0397 11.3952 45.9199 11.1855C45.6983 10.7963 45.3276 10.6016 44.8096 10.6016Z" fill="white"/>
<path fill-rule="evenodd" clip-rule="evenodd" d="M69.5215 9.89648C69.8627 9.89654 70.1934 9.978 70.5137 10.1396C70.834 10.2983 71.0784 10.5044 71.2461 10.7588C71.4078 11.0014 71.5154 11.285 71.5693 11.6084C71.6172 11.83 71.6416 12.1831 71.6416 12.668H68.1152C68.1302 13.1561 68.2453 13.5492 68.4609 13.8457C68.6766 14.1391 69.0108 14.2852 69.4629 14.2852C69.885 14.2851 70.2221 14.1466 70.4736 13.8682C70.6173 13.7065 70.7194 13.5192 70.7793 13.3066H71.5742C71.5532 13.4832 71.483 13.6809 71.3633 13.8994C71.2465 14.115 71.1145 14.2919 70.9678 14.4297C70.7222 14.6692 70.418 14.8302 70.0557 14.9141C69.861 14.962 69.641 14.9863 69.3955 14.9863C68.7965 14.9863 68.2883 14.7692 67.8721 14.335C67.4559 13.8977 67.248 13.2864 67.248 12.502C67.2481 11.7295 67.4578 11.1022 67.877 10.6201C68.2962 10.138 68.8447 9.89648 69.5215 9.89648ZM69.4717 10.6016C69.1004 10.6016 68.7886 10.7364 68.5371 11.0059C68.2855 11.2724 68.1527 11.6131 68.1377 12.0264H70.8105C70.7776 11.676 70.7008 11.3952 70.5811 11.1855C70.3594 10.7965 69.9896 10.6016 69.4717 10.6016Z" fill="white"/>
<path fill-rule="evenodd" clip-rule="evenodd" d="M76.2383 14.8154H75.5107V14.1465C75.3221 14.4428 75.0992 14.6573 74.8418 14.7891C74.5842 14.9208 74.2885 14.9863 73.9561 14.9863C73.4201 14.9862 72.9557 14.7616 72.5635 14.3125C72.1713 13.8603 71.9756 13.2593 71.9756 12.5107C71.9757 11.8101 72.1535 11.2034 72.5098 10.6914C72.8691 10.1765 73.3813 9.91903 74.0459 9.91895C74.4142 9.91895 74.7231 9.99668 74.9717 10.1523C75.1153 10.2421 75.2784 10.3996 75.4609 10.624V8.19434H76.2383V14.8154ZM74.1992 10.624C73.7919 10.624 73.4606 10.7803 73.2061 11.0918C72.9546 11.4032 72.8292 11.8612 72.8291 12.4658C72.8291 12.9809 72.9386 13.4124 73.1572 13.7598C73.3758 14.1071 73.7259 14.2812 74.208 14.2812C74.5823 14.2812 74.8894 14.1211 75.1289 13.8008C75.3715 13.4773 75.4932 13.0141 75.4932 12.4121C75.4931 11.8043 75.3687 11.3549 75.1201 11.0645C74.8716 10.771 74.5645 10.6241 74.1992 10.624Z" fill="white"/>
<path fill-rule="evenodd" clip-rule="evenodd" d="M92.5566 9.8877C93.1225 9.8877 93.5822 9.99544 93.9355 10.2109C94.2859 10.4266 94.4609 10.7626 94.4609 11.2178V13.9893C94.461 14.073 94.4778 14.1405 94.5107 14.1914C94.5466 14.2422 94.62 14.2675 94.7305 14.2676C94.7664 14.2676 94.8076 14.2657 94.8525 14.2627C94.8974 14.2567 94.9453 14.2492 94.9961 14.2402V14.8379C94.8703 14.8738 94.7739 14.8963 94.708 14.9053C94.6422 14.9142 94.552 14.9189 94.4385 14.9189C94.1602 14.9188 93.9577 14.8196 93.832 14.6221C93.7663 14.5173 93.7203 14.3691 93.6934 14.1777C93.5286 14.3934 93.2919 14.5805 92.9834 14.7393C92.675 14.898 92.3352 14.9775 91.9639 14.9775C91.5176 14.9775 91.1517 14.8428 90.8672 14.5732C90.5859 14.3008 90.4454 13.9608 90.4453 13.5537C90.4453 13.1075 90.5848 12.7612 90.8633 12.5156C91.1417 12.2701 91.5069 12.1184 91.959 12.0615L93.248 11.9004C93.4335 11.8765 93.5581 11.7985 93.6211 11.667C93.657 11.5951 93.6748 11.4912 93.6748 11.3564C93.6747 11.0811 93.5765 10.8815 93.3789 10.7588C93.1843 10.6331 92.9042 10.5703 92.5391 10.5703C92.1168 10.5703 91.8173 10.6845 91.6406 10.9121C91.5418 11.0379 91.4772 11.2251 91.4473 11.4736H90.6924C90.7074 10.8807 90.8992 10.4689 91.2676 10.2383C91.6389 10.0047 92.0685 9.88771 92.5566 9.8877ZM93.6523 12.3672C93.5535 12.43 93.4261 12.4825 93.2705 12.5244C93.1149 12.5663 92.9621 12.5963 92.8125 12.6143L92.3232 12.6777C92.03 12.7166 91.8098 12.7776 91.6631 12.8613C91.4146 13.002 91.2901 13.2268 91.29 13.5352C91.29 13.7687 91.3752 13.9531 91.5459 14.0879C91.7166 14.2226 91.9188 14.29 92.1523 14.29C92.4367 14.29 92.7121 14.2244 92.9785 14.0928C93.4277 13.8742 93.6523 13.5157 93.6523 13.0186V12.3672Z" fill="white"/>
<path fill-rule="evenodd" clip-rule="evenodd" d="M116.534 9.8877C117.1 9.8877 117.56 9.99543 117.913 10.2109C118.263 10.4266 118.438 10.7626 118.438 11.2178V13.9893C118.438 14.073 118.455 14.1405 118.488 14.1914C118.524 14.2422 118.597 14.2675 118.708 14.2676C118.744 14.2676 118.785 14.2657 118.83 14.2627C118.875 14.2567 118.923 14.2492 118.974 14.2402V14.8379C118.848 14.8738 118.751 14.8963 118.686 14.9053C118.62 14.9142 118.53 14.9189 118.416 14.9189C118.138 14.9188 117.935 14.8196 117.81 14.6221C117.744 14.5173 117.698 14.3691 117.671 14.1777C117.506 14.3934 117.269 14.5805 116.961 14.7393C116.653 14.898 116.313 14.9775 115.941 14.9775C115.495 14.9775 115.129 14.8428 114.845 14.5732C114.563 14.3008 114.423 13.9608 114.423 13.5537C114.423 13.1075 114.562 12.7612 114.841 12.5156C115.119 12.2701 115.484 12.1184 115.937 12.0615L117.226 11.9004C117.411 11.8765 117.536 11.7985 117.599 11.667C117.635 11.5951 117.652 11.4912 117.652 11.3564C117.652 11.0811 117.554 10.8815 117.356 10.7588C117.162 10.6331 116.882 10.5704 116.517 10.5703C116.094 10.5703 115.795 10.6846 115.618 10.9121C115.519 11.0379 115.455 11.2251 115.425 11.4736H114.67C114.685 10.8807 114.877 10.4689 115.245 10.2383C115.616 10.0047 116.046 9.8877 116.534 9.8877ZM117.63 12.3672C117.531 12.43 117.404 12.4825 117.248 12.5244C117.092 12.5663 116.94 12.5963 116.79 12.6143L116.301 12.6777C116.008 12.7166 115.787 12.7776 115.641 12.8613C115.392 13.002 115.268 13.2268 115.268 13.5352C115.268 13.7687 115.353 13.9531 115.523 14.0879C115.694 14.2226 115.896 14.29 116.13 14.29C116.414 14.29 116.69 14.2244 116.956 14.0928C117.405 13.8742 117.63 13.5157 117.63 13.0186V12.3672Z" fill="white"/>
<path fill-rule="evenodd" clip-rule="evenodd" d="M80.0771 10.5889C80.2538 10.3583 80.4654 10.1823 80.7109 10.0625C80.9565 9.93976 81.2233 9.87891 81.5107 9.87891C82.1096 9.87894 82.5945 10.0858 82.9658 10.499C83.3401 10.9093 83.5273 11.5158 83.5273 12.3184C83.5273 13.0789 83.3429 13.7108 82.9746 14.2139C82.6063 14.7167 82.096 14.9687 81.4434 14.9688C81.078 14.9688 80.7691 14.8798 80.5176 14.7031C80.3679 14.5983 80.2077 14.4306 80.0371 14.2002V14.8154H79.291V8.19434H80.0771V10.5889ZM81.416 10.6016C81.0478 10.6016 80.7247 10.7384 80.4463 11.0107C80.1708 11.2833 80.0322 11.7325 80.0322 12.3584C80.0322 12.8105 80.0894 13.1775 80.2031 13.459C80.4157 13.989 80.8127 14.2538 81.3936 14.2539C81.8307 14.2539 82.1574 14.0806 82.373 13.7334C82.5917 13.386 82.7012 12.9274 82.7012 12.3584C82.7012 11.8523 82.5917 11.433 82.373 11.1006C82.1574 10.7682 81.8383 10.6016 81.416 10.6016Z" fill="white"/>
<path d="M103.315 10.0049V13.1982C103.315 13.4438 103.355 13.6451 103.433 13.8008C103.576 14.088 103.844 14.2314 104.236 14.2314C104.799 14.2314 105.183 13.9797 105.387 13.4766C105.497 13.2071 105.553 12.8371 105.553 12.3672V10.0049H106.361V14.8154H105.598L105.606 14.1055C105.502 14.288 105.371 14.4426 105.216 14.5684C104.907 14.8199 104.533 14.9462 104.093 14.9463C103.407 14.9463 102.94 14.7168 102.691 14.2588C102.557 14.0132 102.489 13.6847 102.489 13.2744V10.0049H103.315Z" fill="white"/>
<path d="M52.0225 8.12695C52.0764 8.12995 52.1382 8.13464 52.207 8.14062V8.87695L51.9199 8.86328C51.6744 8.86328 51.5275 8.92794 51.4795 9.05664C51.4316 9.18242 51.4072 9.50625 51.4072 10.0273H52.207V10.665H51.3984V14.8154H50.5986V10.665H50.0176V10.7725C49.9698 10.7635 49.9246 10.7579 49.8828 10.7549C49.844 10.7519 49.8007 10.75 49.7529 10.75C49.3456 10.75 49.0321 10.882 48.8135 11.1455C48.595 11.406 48.4863 11.7075 48.4863 12.0488V14.8154H47.6777V10.0049H48.4453V10.8359C48.5082 10.6742 48.6626 10.4777 48.9082 10.2471C49.1537 10.0136 49.4366 9.8966 49.7568 9.89648C49.7718 9.89648 49.798 9.89837 49.834 9.90137C49.8699 9.90437 49.9311 9.91 50.0176 9.91895V10.0273H50.5986V9.27246C50.6106 8.93704 50.6696 8.69089 50.7744 8.53516C50.9631 8.26003 51.3267 8.12213 51.8652 8.12207C51.916 8.12207 51.9687 8.12397 52.0225 8.12695Z" fill="white"/>
<path d="M59.6133 9.90137C59.6492 9.90437 59.7104 9.91 59.7969 9.91895V10.7725C59.7491 10.7635 59.7039 10.7579 59.6621 10.7549C59.6233 10.7519 59.58 10.75 59.5322 10.75C59.1251 10.75 58.8124 10.8821 58.5938 11.1455C58.3751 11.4061 58.2656 11.7074 58.2656 12.0488V14.8154H57.457V10.0049H58.2246V10.8359C58.2875 10.6742 58.4419 10.4777 58.6875 10.2471C58.9331 10.0135 59.2167 9.89648 59.5371 9.89648C59.5521 9.89652 59.5777 9.8984 59.6133 9.90137Z" fill="white"/>
<path d="M65.1396 9.89648C65.7865 9.89648 66.2273 10.1305 66.4609 10.5977C66.5866 10.8491 66.6494 11.1874 66.6494 11.6123V14.8154H65.8096V11.4736C65.8096 11.1532 65.7281 10.9333 65.5664 10.8135C65.4077 10.6937 65.213 10.6338 64.9824 10.6338C64.665 10.6338 64.3907 10.7396 64.1602 10.9521C63.9327 11.1647 63.8194 11.5198 63.8193 12.0166V14.8154H62.9971V11.6758C62.9971 11.3493 62.9577 11.1107 62.8799 10.9609C62.7571 10.7367 62.5283 10.6241 62.1934 10.624C61.8879 10.624 61.609 10.7429 61.3574 10.9795C61.109 11.216 60.9844 11.644 60.9844 12.2637V14.8154H60.1758V10.0049H60.9756V10.6875C61.1673 10.4509 61.3413 10.2787 61.4971 10.1709C61.7636 9.98831 62.066 9.89648 62.4043 9.89648C62.7874 9.89652 63.0956 9.99118 63.3291 10.1797C63.4609 10.2875 63.5807 10.4466 63.6885 10.6562C63.8682 10.3987 64.0797 10.2077 64.3223 10.085C64.5647 9.95927 64.8373 9.89651 65.1396 9.89648Z" fill="white"/>
<path d="M98.5166 8.19434V10.6562C98.7083 10.4137 98.8805 10.2424 99.0332 10.1436C99.2937 9.97301 99.6187 9.8877 100.008 9.8877C100.705 9.88773 101.178 10.132 101.427 10.6201C101.562 10.8866 101.629 11.2563 101.629 11.7295V14.8154H100.798V11.7832C100.798 11.4299 100.753 11.1705 100.663 11.0059C100.516 10.7427 100.241 10.6113 99.8369 10.6113C99.5015 10.6113 99.1973 10.7264 98.9248 10.957C98.6525 11.1876 98.5167 11.6232 98.5166 12.2637V14.8154H97.708V8.19434H98.5166Z" fill="white"/>
<path d="M112.27 9.89648C112.916 9.89648 113.357 10.1305 113.591 10.5977C113.716 10.8491 113.779 11.1874 113.779 11.6123V14.8154H112.939V11.4736C112.939 11.1532 112.858 10.9333 112.696 10.8135C112.538 10.6937 112.343 10.6338 112.112 10.6338C111.795 10.6338 111.521 10.7396 111.29 10.9521C111.063 11.1647 110.949 11.5197 110.949 12.0166V14.8154H110.127V11.6758C110.127 11.3493 110.088 11.1107 110.01 10.9609C109.887 10.7367 109.658 10.6241 109.323 10.624C109.018 10.624 108.739 10.7429 108.487 10.9795C108.239 11.216 108.114 11.644 108.114 12.2637V14.8154H107.306V10.0049H108.105V10.6875C108.297 10.4509 108.471 10.2787 108.627 10.1709C108.893 9.98832 109.196 9.89648 109.534 9.89648C109.917 9.89652 110.225 9.99118 110.459 10.1797C110.591 10.2875 110.711 10.4466 110.818 10.6562C110.998 10.3987 111.21 10.2077 111.452 10.085C111.695 9.95927 111.967 9.89651 112.27 9.89648Z" fill="white"/>
<path d="M121.787 9.89648C122.47 9.89651 122.931 10.1352 123.171 10.6113C123.303 10.8718 123.368 11.2446 123.368 11.7295V14.8154H122.546V11.7832C122.546 11.4898 122.503 11.2529 122.416 11.0732C122.272 10.7741 122.012 10.6242 121.635 10.624C121.443 10.624 121.286 10.6438 121.163 10.6826C120.942 10.7485 120.747 10.8806 120.579 11.0781C120.444 11.2368 120.355 11.4016 120.313 11.5723C120.275 11.74 120.255 11.9814 120.255 12.2959V14.8154H119.446V10.0049H120.215V10.6875C120.442 10.406 120.684 10.2038 120.938 10.0811C121.193 9.95838 121.476 9.89648 121.787 9.89648Z" fill="white"/>
</svg>
