<svg width="131" height="42" viewBox="0 0 131 42" fill="none" xmlns="http://www.w3.org/2000/svg">
<path d="M0.5 0.5H116C124.008 0.5 130.5 6.99187 130.5 15V41.5H15C6.99187 41.5 0.5 35.0081 0.5 27V0.5Z" fill="black" stroke="#ACACAC"/>
<path d="M17.9605 24.1575C21.4266 26.9643 26.3836 26.9643 29.8497 24.1575L28.5095 22.5026C25.8248 24.6766 21.9854 24.6766 19.3007 22.5026L17.9605 24.1575Z" fill="white"/>
<path d="M19.404 20.5134V17.6365H21.5336V20.5134H19.404Z" fill="white"/>
<path d="M26.012 17.6365V20.5134H28.1415V17.6365H26.012Z" fill="white"/>
<path fill-rule="evenodd" clip-rule="evenodd" d="M35 21.5C35 27.8513 29.8513 33 23.5 33C17.1487 33 12 27.8513 12 21.5C12 15.1487 17.1487 10 23.5 10C29.8513 10 35 15.1487 35 21.5ZM32.8705 21.5C32.8705 26.6752 28.6752 30.8705 23.5 30.8705C18.3248 30.8705 14.1295 26.6752 14.1295 21.5C14.1295 16.3248 18.3248 12.1295 23.5 12.1295C28.6752 12.1295 32.8705 16.3248 32.8705 21.5Z" fill="white"/>
<path fill-rule="evenodd" clip-rule="evenodd" d="M104.32 26.2505C104.32 25.9898 104.336 25.4196 104.336 25.4196H100.424V23.8717H104.573C104.764 26.2238 105.11 28.471 105.651 30.2984C104.776 31.2876 103.759 32.1157 102.612 32.7515C103.107 33.2077 103.953 34.2016 104.288 34.7067C105.138 34.1597 105.93 33.5082 106.658 32.7639C107.338 33.9391 108.193 34.6415 109.254 34.6415C110.898 34.6415 111.649 33.9572 112 30.78C111.377 30.5356 110.563 29.9817 110.036 29.4277C109.956 31.4155 109.765 32.2301 109.445 32.2301C109.06 32.2301 108.67 31.686 108.312 30.7655C109.465 29.1244 110.389 27.1985 111.058 25.0611L108.711 24.4908C108.396 25.6095 107.983 26.659 107.478 27.6243C107.264 26.4884 107.09 25.2105 106.974 23.8717H111.84V21.5418H110.142L110.946 20.6945C110.387 20.1568 109.27 19.4399 108.455 19L107.05 20.4175C107.553 20.7329 108.148 21.1437 108.647 21.5418H106.835C106.811 20.7923 106.808 20.0385 106.827 19.2933H104.384C104.387 20.0364 104.403 20.7892 104.433 21.5418H97.9812V26.4297C97.9812 28.5642 97.9014 31.4481 96.7199 33.3707C97.2468 33.6477 98.3006 34.5275 98.6997 35C99.5135 33.7498 99.9567 32.0088 100.189 30.2753C100.506 30.8638 100.745 31.7506 100.775 32.4257C101.51 32.4257 102.18 32.4094 102.612 32.3279C103.091 32.2301 103.458 32.0672 103.809 31.5947C104.192 31.0733 104.272 29.5743 104.32 26.2505ZM100.197 30.2141C100.316 29.3052 100.378 28.4 100.406 27.5703H102.058C102.023 29.1922 101.963 29.8644 101.829 30.0631C101.701 30.2261 101.558 30.275 101.35 30.275C101.102 30.275 100.674 30.2596 100.197 30.2141Z" fill="white"/>
<path d="M85.8673 22.112C86.1314 21.4187 86.3672 20.705 86.565 19.9939L84.1541 19.4399C83.6112 21.6395 82.5893 23.8717 81.3599 25.2077C81.9507 25.5336 82.9885 26.2342 83.4515 26.6415C83.9297 26.0332 84.4007 25.2744 84.839 24.4257H87.9062V26.9185H83.7709V29.1996H87.9062V32.002H81.8708V34.3157H96.4005V32.002H90.3332V29.1996H94.9156V26.9185H90.3332V24.4257H95.5543V22.112H90.3332V19.277H87.9062V22.112H85.8673Z" fill="white"/>
<path d="M46.3436 28.4645C46.4377 28.0285 46.4856 27.6141 46.4988 27.2444H42.8462V25.11H46.5026V23.4807H42.6866V21.2811H46.5026V19.3585H48.8018V27C48.8018 29.8513 47.9396 33.0611 44.0278 34.9837C43.6446 34.4134 42.9261 33.6802 42.3672 33.224C43.7784 32.6761 44.7414 31.786 45.3804 30.8057C44.6568 30.9237 43.9507 31.0375 43.2921 31.1436L42.4151 31.2851L42 28.9226C43.1273 28.8236 44.7056 28.6496 46.3436 28.4645Z" fill="white"/>
<path fill-rule="evenodd" clip-rule="evenodd" d="M71.6755 34.3304L66.632 19.7975H63.2696L58.1875 34.3304H61.2986L62.2841 31.3429H67.5305L68.4484 34.3304H71.6755ZM64.9218 23.1201L66.6996 28.8386H63.0861L64.9218 23.1201Z" fill="white"/>
<path d="M52.7456 19.3585V21.2811H56.9289V23.4807H52.7456V25.11H56.5457V27.2444H52.7456V28.9063H57.2163V31.1059H52.7456V34.7556H50.4144V19.3585H52.7456Z" fill="white"/>
<path d="M74.2124 22.2695V31.8617H72.4582V34.3337H78.7189V31.8617H77.169V22.2695H78.7189V19.7975H72.4582V22.2695H74.2124Z" fill="white"/>
<path d="M67.3964 7.14532C67.533 7.39221 67.685 7.70221 67.791 7.96878H65.0793V9.53821H65.7805V8.57911H70.6586V9.53821H71.3903V7.96878H68.6472C68.5339 7.68147 68.3361 7.29144 68.1382 7L67.3964 7.14532Z" fill="white"/>
<path d="M68.7785 14.5856L69.3374 14.1884C70.0691 14.5371 71.0346 15.0796 71.5427 15.4478L70.9533 15.9031C70.4756 15.535 69.5204 14.9634 68.7785 14.5856Z" fill="white"/>
<path d="M67.6098 14.5274L66.8882 14.2659C66.3394 14.6921 65.4146 15.1087 64.5813 15.3703C64.7541 15.4962 65.0386 15.7675 65.1606 15.9031C65.9736 15.5834 66.9797 15.0506 67.6098 14.5274Z" fill="white"/>
<path d="M62.9146 7.69752L63.3516 7.18407C63.8699 7.41658 64.5711 7.78471 64.9472 8.0366L64.4898 8.60818C64.1342 8.35629 63.4329 7.96878 62.9146 7.69752Z" fill="white"/>
<path d="M62.7317 9.79009L62.315 10.3326C62.8333 10.5651 63.5244 10.9429 63.8699 11.1851L64.3069 10.5845C63.9411 10.352 63.2398 10.0032 62.7317 9.79009Z" fill="white"/>
<path d="M62.6098 15.2734C63.0569 14.5274 63.687 13.2777 64.1545 12.183L64.7541 12.6286C64.3272 13.6362 63.7581 14.8374 63.2805 15.7287L62.6098 15.2734Z" fill="white"/>
<path fill-rule="evenodd" clip-rule="evenodd" d="M75.3028 12.0728C74.6736 12.6372 73.9012 13.1215 72.9654 13.4909C72.8638 13.3165 72.63 13.0549 72.4573 12.9386C73.6934 12.4842 74.626 11.8247 75.3075 11.0495H72.6809V10.4489H75.7717C75.9329 10.2105 76.0743 9.96436 76.1972 9.71261H73.7987V9.12165H76.4489C76.5356 8.88544 76.6077 8.64593 76.6662 8.40475H73.3922V7.81379H76.7823C76.8217 7.5552 76.8464 7.29621 76.8577 7.03877L77.6402 7.08721C77.6219 7.32936 77.5936 7.57195 77.5547 7.81379H81.0345V8.40475H77.4378C77.3808 8.64586 77.3125 8.88523 77.2323 9.12165H80.6179V9.71261H77.0033C76.8936 9.96324 76.769 10.2092 76.6286 10.4489H81.7053V11.0495H79.0434C79.7434 11.86 80.8428 12.5246 82 12.8515C81.8374 12.9871 81.6138 13.2583 81.502 13.4424C80.6404 13.1508 79.8095 12.669 79.1341 12.0667V12.4446H77.5589V12.4736C77.5589 12.7209 77.5434 12.9858 77.4819 13.2583H80.4858V13.8493H77.2695C76.8717 14.6273 75.9461 15.4101 73.8292 15.9806C73.7378 15.8256 73.5244 15.5834 73.3719 15.4478C75.1165 14.998 75.9904 14.4241 76.4252 13.8493H73.9004V13.2583H76.7365C76.8293 12.9742 76.8475 12.7008 76.8475 12.4543V12.4446H75.3028V12.0728ZM78.9167 11.8633C78.6578 11.609 78.4266 11.3362 78.2314 11.0495H76.2331C76.0237 11.3335 75.7887 11.6058 75.5262 11.8633H78.9167Z" fill="white"/>
<path d="M77.4878 14.4306L78.0061 13.9656C79.063 14.3628 80.435 15.0022 81.1565 15.4769L80.6179 16C79.937 15.535 78.565 14.8568 77.4878 14.4306Z" fill="white"/>
<path d="M56.4263 7.26146C56.4278 7.19586 56.4292 7.13411 56.4307 7.07754H57.2742L57.2732 7.11949C57.2651 7.46561 57.2541 7.9331 57.2086 8.47739C57.3519 9.61665 57.9706 13.7259 61.5933 15.2637C61.3698 15.4284 61.1462 15.6803 61.0344 15.8838C58.4793 14.7459 57.3785 12.3545 56.8789 10.5442C56.4001 12.4834 55.3178 14.6518 52.8331 15.9225C52.701 15.7288 52.447 15.5059 52.2132 15.3509C56.2872 13.3858 56.3884 8.93168 56.4262 7.26476L56.4262 7.26369L56.4263 7.26146Z" fill="white"/>
<path d="M47.6403 14.7407L48.1179 14.2563C49.2663 14.6051 50.5163 15.0604 51.2582 15.4285L50.6382 15.9323C49.9472 15.5642 48.7886 15.0992 47.6403 14.7407Z" fill="white"/>
<path d="M45.1301 14.2563L45.8313 14.6826C44.9777 15.1767 43.6159 15.6804 42.5285 15.9517C42.4167 15.8064 42.1626 15.5545 42 15.4189C43.0874 15.167 44.4492 14.6729 45.1301 14.2563Z" fill="white"/>
<path fill-rule="evenodd" clip-rule="evenodd" d="M67.8029 10.0614H65.811V9.45102H70.5773V10.0614H68.5244V10.7782H70.9939V14.1012H65.4248V10.7782H67.8029V10.0614ZM67.8029 11.3498H66.1159V12.1636H67.8029V11.3498ZM67.8029 12.7061H66.1159V13.5393H67.8029V12.7061ZM68.5244 13.5393V12.7061H70.2826V13.5393H68.5244ZM68.5244 12.1636V11.3498H70.2826V12.1636H68.5244Z" fill="white"/>
<path fill-rule="evenodd" clip-rule="evenodd" d="M43.6565 13.4813H42.1931V14.1013H51.2175V13.4813H49.7846V9.1024H46.9695V8.49207H50.9533V7.86236H46.9695V7.05827H46.2175V7.86236H42.4776V8.49207H46.2175V9.1024H43.6565V13.4813ZM44.3882 13.4813V12.8031H49.0224V13.4813H44.3882ZM49.0224 12.3381V11.7569H44.3882V12.3381H49.0224ZM44.3882 10.7106V11.2822H49.0224V10.7106H44.3882ZM49.0224 10.2553V9.61586H44.3882V10.2553H49.0224Z" fill="white"/>
</svg>
