<svg width="131" height="42" viewBox="0 0 131 42" fill="none" xmlns="http://www.w3.org/2000/svg">
<path d="M0.5 0.5H116C124.008 0.5 130.5 6.99187 130.5 15V41.5H15C6.99187 41.5 0.5 35.0081 0.5 27V0.5Z" fill="black" stroke="#ACACAC"/>
<path d="M17.9605 24.1575C21.4266 26.9643 26.3836 26.9643 29.8497 24.1575L28.5095 22.5026C25.8248 24.6766 21.9854 24.6766 19.3007 22.5026L17.9605 24.1575Z" fill="white"/>
<path d="M19.404 20.5134V17.6365H21.5336V20.5134H19.404Z" fill="white"/>
<path d="M26.012 17.6365V20.5134H28.1415V17.6365H26.012Z" fill="white"/>
<path fill-rule="evenodd" clip-rule="evenodd" d="M35 21.5C35 27.8513 29.8513 33 23.5 33C17.1487 33 12 27.8513 12 21.5C12 15.1487 17.1487 10 23.5 10C29.8513 10 35 15.1487 35 21.5ZM32.8705 21.5C32.8705 26.6752 28.6752 30.8705 23.5 30.8705C18.3248 30.8705 14.1295 26.6752 14.1295 21.5C14.1295 16.3248 18.3248 12.1295 23.5 12.1295C28.6752 12.1295 32.8705 16.3248 32.8705 21.5Z" fill="white"/>
<path d="M62.8331 12.1807C63.2406 12.0838 63.7364 11.9521 64.2746 11.8051V9.69316H62.9723V8.96846H64.2746V7H65.0302V8.96846H66.1834V9.69316H65.0302V11.5971L65.1479 11.5646C65.4897 11.4701 65.8381 11.3737 66.1834 11.2797L66.2828 11.975C65.8679 12.1005 65.445 12.2273 65.0302 12.3501V15.1187C65.0302 15.5398 64.9407 15.7454 64.6723 15.8629C64.4039 15.9903 64.0062 16.0001 63.3203 15.9903C63.2904 15.814 63.191 15.5104 63.0916 15.3047C63.5489 15.3145 63.9664 15.3145 64.0857 15.3047C64.2249 15.3047 64.2746 15.2656 64.2746 15.1187V12.5719C63.8306 12.701 63.409 12.8211 63.032 12.925L62.8331 12.1807Z" fill="white"/>
<path fill-rule="evenodd" clip-rule="evenodd" d="M69.6728 7.11752C69.5137 7.66213 69.3201 8.26358 69.1358 8.753H71.5616V15.9119H70.7961V15.4418H67.4559V15.9805H66.7103V8.753H68.3875C68.5593 8.21787 68.7342 7.52035 68.8178 7.00979L69.6728 7.11752ZM70.7961 12.4157V14.7367H67.4559V12.4157H70.7961ZM70.7961 11.7204H67.4559V9.45812H70.7961V11.7204Z" fill="white"/>
<path d="M74.027 11.5204C73.5765 11.7831 73.1617 12.0163 72.8341 12.1905L73.0926 12.876C73.3815 12.706 73.698 12.5168 74.027 12.3182V15.0795C74.027 15.2068 73.9773 15.2362 73.858 15.2362C73.7487 15.246 73.4007 15.246 73.0031 15.2362C73.1025 15.432 73.192 15.7454 73.2119 15.9217C73.7984 15.9315 74.1662 15.9021 74.3949 15.7846C74.6335 15.6671 74.7229 15.4712 74.7229 15.0795V11.8954C74.9892 11.7328 75.2567 11.5684 75.5182 11.407L75.3095 10.7508C75.1146 10.8711 74.9179 10.9909 74.7229 11.1081V9.65399H75.568V8.96846H74.7229V7H74.027V8.96846H72.9335V9.65399H74.027V11.5204Z" fill="white"/>
<path fill-rule="evenodd" clip-rule="evenodd" d="M76.8414 15.0113C77.137 14.9819 77.4435 14.9513 77.755 14.9197V15.9903H78.3416V11.975H78.6796V11.4364H75.6674V11.975H76.1048V14.5345C75.8907 14.548 75.6905 14.5601 75.5083 14.5702L75.5878 15.1382C75.9656 15.0986 76.3893 15.0563 76.8382 15.0116L76.8414 15.0113ZM77.6109 14.4341L77.755 14.4243V13.9239H76.6913V14.4963C76.9841 14.4769 77.2931 14.4558 77.6109 14.4341ZM77.755 11.975H76.6913V12.4843H77.755V11.975ZM77.755 12.925H76.6913V13.4734H77.755V12.925Z" fill="white"/>
<path d="M57.1121 7.21538C57.1136 7.14906 57.115 7.08665 57.1165 7.02945H57.9416L57.9406 7.07186C57.9327 7.42175 57.9219 7.89434 57.8774 8.44455C58.0176 9.59622 58.6229 13.7502 62.1667 15.3048C61.948 15.4713 61.7293 15.7259 61.6199 15.9316C59.1205 14.7813 58.0436 12.3639 57.5549 10.5339C57.0865 12.4942 56.0278 14.6862 53.5972 15.9707C53.468 15.7749 53.2195 15.5496 52.9908 15.3929C56.9761 13.4064 57.075 8.90379 57.1121 7.21871L57.1121 7.21763L57.1121 7.21538Z" fill="white"/>
<path d="M48.5174 14.7758L48.9847 14.2862C50.1081 14.6387 51.3308 15.099 52.0566 15.4712L51.4501 15.9804C50.7741 15.6083 49.6408 15.1382 48.5174 14.7758Z" fill="white"/>
<path d="M46.0619 14.2862L46.7479 14.7171C45.9128 15.2165 44.5807 15.7258 43.5169 16C43.4076 15.8531 43.1591 15.5985 43 15.4614C44.0637 15.2067 45.3959 14.7073 46.0619 14.2862Z" fill="white"/>
<path fill-rule="evenodd" clip-rule="evenodd" d="M76.0451 7.35256H81.6918V7.89119H80.6281V10.2318H81.9404V10.79H80.6281V11.2209H79.9223V10.79H75.7767V10.2318H76.9896V7.89119H76.0451V7.35256ZM77.6855 7.89119H79.9223V8.36127H77.6855V7.89119ZM77.6855 8.79218H79.9223V9.29164H77.6855V8.79218ZM77.6855 9.72254H79.9223V10.2318H77.6855V9.72254Z" fill="white"/>
<path fill-rule="evenodd" clip-rule="evenodd" d="M78.8486 11.4364H81.9801V11.975H81.5228V14.4625H82V15.0011H81.5228V15.9903H80.9363V15.0011H78.7591V14.4625H79.2562V11.975H78.8486V11.4364ZM79.8427 11.975H80.9363V12.4745H79.8427V11.975ZM79.8427 12.9152H80.9363V13.4538H79.8427V12.9152ZM79.8427 13.9043H80.9363V14.4625H79.8427V13.9043Z" fill="white"/>
<path fill-rule="evenodd" clip-rule="evenodd" d="M44.6204 13.5027H43.1889V14.1295H52.0168V13.5027H50.6151V9.07613H47.8613V8.45915H51.7583V7.82258H47.8613V7.00974H47.1257V7.82258H43.4672V8.45915H47.1257V9.07613H44.6204V13.5027ZM45.3362 13.5027H49.8695V12.8172H45.3362V13.5027ZM45.3362 12.3471H49.8695V11.7595H45.3362V12.3471ZM45.3362 11.2796H49.8695V10.7018H45.3362V11.2796ZM45.3362 10.2415H49.8695V9.59517H45.3362V10.2415Z" fill="white"/>
<path fill-rule="evenodd" clip-rule="evenodd" d="M105.32 26.2505C105.32 25.9898 105.336 25.4196 105.336 25.4196H101.424V23.8717H105.573C105.764 26.2238 106.11 28.471 106.651 30.2984C105.776 31.2876 104.759 32.1157 103.612 32.7515C104.107 33.2077 104.953 34.2016 105.288 34.7067C106.138 34.1597 106.93 33.5082 107.658 32.7639C108.338 33.9391 109.193 34.6415 110.254 34.6415C111.898 34.6415 112.649 33.9572 113 30.78C112.377 30.5356 111.563 29.9817 111.036 29.4277C110.956 31.4155 110.765 32.2301 110.445 32.2301C110.06 32.2301 109.67 31.686 109.312 30.7655C110.465 29.1244 111.389 27.1985 112.058 25.0611L109.711 24.4908C109.396 25.6095 108.983 26.659 108.478 27.6243C108.264 26.4884 108.09 25.2105 107.974 23.8717H112.84V21.5418H111.142L111.946 20.6945C111.387 20.1568 110.27 19.4399 109.455 19L108.05 20.4175C108.553 20.7329 109.148 21.1437 109.647 21.5418H107.835C107.811 20.7923 107.808 20.0385 107.827 19.2933H105.384C105.387 20.0364 105.403 20.7892 105.433 21.5418H98.9812V26.4297C98.9812 28.5642 98.9014 31.4481 97.7199 33.3707C98.2468 33.6477 99.3006 34.5275 99.6997 35C100.514 33.7498 100.957 32.0088 101.189 30.2753C101.506 30.8638 101.745 31.7506 101.775 32.4257C102.51 32.4257 103.18 32.4094 103.612 32.3279C104.091 32.2301 104.458 32.0672 104.809 31.5947C105.192 31.0733 105.272 29.5743 105.32 26.2505ZM101.197 30.2141C101.316 29.3052 101.378 28.4 101.406 27.5703H103.058C103.023 29.1922 102.963 29.8644 102.829 30.0631C102.701 30.2261 102.558 30.275 102.35 30.275C102.102 30.275 101.674 30.2596 101.197 30.2141Z" fill="white"/>
<path d="M86.8673 22.112C87.1314 21.4187 87.3672 20.705 87.565 19.9939L85.1541 19.4399C84.6112 21.6395 83.5893 23.8717 82.3599 25.2077C82.9507 25.5336 83.9885 26.2342 84.4515 26.6415C84.9297 26.0332 85.4007 25.2744 85.839 24.4257H88.9062V26.9185H84.7709V29.1996H88.9062V32.002H82.8708V34.3157H97.4005V32.002H91.3332V29.1996H95.9156V26.9185H91.3332V24.4257H96.5543V22.112H91.3332V19.277H88.9062V22.112H86.8673Z" fill="white"/>
<path d="M47.3436 28.4645C47.4377 28.0285 47.4856 27.6141 47.4988 27.2444H43.8462V25.11H47.5026V23.4807H43.6866V21.2811H47.5026V19.3585H49.8018V27C49.8018 29.8513 48.9396 33.0611 45.0278 34.9837C44.6446 34.4134 43.9261 33.6802 43.3672 33.224C44.7784 32.6761 45.7414 31.786 46.3804 30.8057C45.6568 30.9237 44.9507 31.0375 44.2921 31.1436L43.4151 31.2851L43 28.9226C44.1273 28.8236 45.7056 28.6496 47.3436 28.4645Z" fill="white"/>
<path fill-rule="evenodd" clip-rule="evenodd" d="M72.6755 34.3304L67.632 19.7975H64.2696L59.1875 34.3304H62.2986L63.2841 31.3429H68.5305L69.4484 34.3304H72.6755ZM65.9218 23.1201L67.6996 28.8386H64.0861L65.9218 23.1201Z" fill="white"/>
<path d="M53.7456 19.3585V21.2811H57.9289V23.4807H53.7456V25.11H57.5457V27.2444H53.7456V28.9063H58.2163V31.1059H53.7456V34.7556H51.4144V19.3585H53.7456Z" fill="white"/>
<path d="M75.2124 22.2695V31.8617H73.4582V34.3337H79.7189V31.8617H78.169V22.2695H79.7189V19.7975H73.4582V22.2695H75.2124Z" fill="white"/>
</svg>
