<svg width="131" height="42" viewBox="0 0 131 42" fill="none" xmlns="http://www.w3.org/2000/svg">
<path d="M0.5 0.5H116C124.008 0.5 130.5 6.99187 130.5 15V41.5H15C6.99187 41.5 0.5 35.0081 0.5 27V0.5Z" fill="black" stroke="#ACACAC"/>
<path d="M44.6814 10.8723C44.4248 11.1121 44.2964 11.5651 44.2964 12.2314V14.8842H43.535V8H44.2964V10.5594C44.4769 10.3072 44.6391 10.1297 44.7829 10.027C45.0282 9.8495 45.3342 9.76076 45.7008 9.76076C46.3579 9.76076 46.8035 10.0145 47.0375 10.522C47.1644 10.7992 47.2279 11.1837 47.2279 11.6756V14.8842H46.4453V11.7317C46.4453 11.3643 46.403 11.0949 46.3184 10.9237C46.1802 10.6497 45.9208 10.5127 45.5401 10.5127C45.2242 10.5127 44.938 10.6326 44.6814 10.8723Z" fill="white"/>
<path d="M76.1388 10.8723C75.8822 11.1121 75.7539 11.5651 75.7539 12.2314V14.8842H74.9925V8H75.7539V10.5594C75.9344 10.3072 76.0965 10.1297 76.2404 10.027C76.4857 9.8495 76.7917 9.76076 77.1583 9.76076C77.8154 9.76076 78.2609 10.0145 78.495 10.522C78.6219 10.7992 78.6853 11.1837 78.6853 11.6756V14.8842H77.9028V11.7317C77.9028 11.3643 77.8605 11.0949 77.7759 10.9237C77.6377 10.6497 77.3783 10.5127 76.9975 10.5127C76.6817 10.5127 76.3955 10.6326 76.1388 10.8723Z" fill="white"/>
<path fill-rule="evenodd" clip-rule="evenodd" d="M86.4438 10.0363C86.2098 9.87441 85.9193 9.79345 85.5724 9.79345C84.9464 9.79345 84.4642 10.0612 84.1258 10.5968C83.7902 11.1292 83.6224 11.7597 83.6224 12.4883C83.6224 13.2667 83.8071 13.891 84.1765 14.3611C84.5459 14.8282 84.9831 15.0617 85.4878 15.0617C85.8009 15.0617 86.0786 14.9932 86.3212 14.8562C86.5637 14.7192 86.7738 14.4966 86.9515 14.1883V14.8842H87.6367V8H86.9049V10.5267C86.7329 10.2932 86.5792 10.1297 86.4438 10.0363ZM84.7349 13.7867C84.529 13.4255 84.4261 12.9771 84.4261 12.4416C84.4261 11.8126 84.5445 11.3363 84.7814 11.0124C85.0211 10.6886 85.3327 10.5267 85.7163 10.5267C86.0603 10.5267 86.3494 10.6793 86.5834 10.9844C86.8175 11.2864 86.9345 11.7535 86.9345 12.3855C86.9345 13.0114 86.8203 13.4924 86.5919 13.8287C86.3663 14.1619 86.0772 14.3285 85.7247 14.3285C85.2707 14.3285 84.9408 14.1479 84.7349 13.7867Z" fill="white"/>
<path fill-rule="evenodd" clip-rule="evenodd" d="M91.7619 9.9429C91.5306 10.0675 91.3318 10.2496 91.1654 10.4893V8H90.4252V14.8842H91.1274V14.2444C91.2881 14.4841 91.439 14.6585 91.58 14.7675C91.8169 14.9512 92.1073 15.043 92.4514 15.043C93.0661 15.043 93.547 14.7815 93.8938 14.2584C94.2407 13.7353 94.4141 13.0783 94.4141 12.2875C94.4141 11.453 94.2379 10.8225 93.8854 10.3959C93.5357 9.96626 93.0788 9.75142 92.5148 9.75142C92.2441 9.75142 91.9931 9.81525 91.7619 9.9429ZM93.327 13.7587C93.124 14.1198 92.8166 14.3004 92.4048 14.3004C91.8578 14.3004 91.4841 14.0249 91.2839 13.4738C91.1767 13.1811 91.1231 12.7997 91.1231 12.3295C91.1231 11.6788 91.2529 11.2117 91.5123 10.9284C91.7746 10.645 92.0791 10.5034 92.426 10.5034C92.8236 10.5034 93.124 10.6762 93.327 11.0218C93.5329 11.3674 93.6358 11.8033 93.6358 12.3295C93.6358 12.9211 93.5329 13.3975 93.327 13.7587Z" fill="white"/>
<path d="M102.156 10.8723C101.899 11.1121 101.771 11.5651 101.771 12.2314V14.8842H101.01V8H101.771V10.5594C101.952 10.3072 102.114 10.1297 102.258 10.027C102.503 9.8495 102.809 9.76076 103.175 9.76076C103.833 9.76076 104.278 10.0145 104.512 10.522C104.639 10.7992 104.703 11.1837 104.703 11.6756V14.8842H103.92V11.7317C103.92 11.3643 103.878 11.0949 103.793 10.9237C103.655 10.6497 103.395 10.5127 103.015 10.5127C102.699 10.5127 102.413 10.6326 102.156 10.8723Z" fill="white"/>
<path fill-rule="evenodd" clip-rule="evenodd" d="M119.259 11.8532C119.434 11.8282 119.551 11.7473 119.61 11.6103C119.644 11.5356 119.661 11.4281 119.661 11.288C119.661 11.0016 119.568 10.7945 119.382 10.6669C119.199 10.5361 118.935 10.4707 118.591 10.4707C118.193 10.4707 117.911 10.589 117.745 10.8257C117.652 10.9564 117.591 11.151 117.563 11.4095H116.852C116.866 10.793 117.047 10.3648 117.394 10.1251C117.743 9.88223 118.148 9.76079 118.608 9.76079C119.141 9.76079 119.574 9.87288 119.906 10.0971C120.236 10.3212 120.401 10.67 120.401 11.1432V14.0249C120.401 14.1121 120.417 14.1821 120.448 14.2351C120.482 14.288 120.551 14.3145 120.655 14.3145C120.689 14.3145 120.727 14.3129 120.769 14.3098C120.812 14.3036 120.857 14.2958 120.905 14.2865V14.9076C120.786 14.945 120.696 14.9683 120.634 14.9777C120.572 14.987 120.487 14.9917 120.38 14.9917C120.118 14.9917 119.928 14.8889 119.809 14.6834C119.747 14.5745 119.703 14.4203 119.678 14.2211C119.523 14.4452 119.3 14.6399 119.01 14.8049C118.719 14.9699 118.399 15.0524 118.049 15.0524C117.629 15.0524 117.285 14.9123 117.017 14.6321C116.752 14.3487 116.62 13.9953 116.62 13.5719C116.62 13.1079 116.751 12.7483 117.013 12.493C117.275 12.2377 117.619 12.0804 118.045 12.0213L119.259 11.8532ZM117.415 13.5532C117.415 13.7961 117.495 13.9875 117.656 14.1277C117.817 14.2678 118.007 14.3378 118.227 14.3378C118.495 14.3378 118.754 14.2693 119.005 14.1323C119.428 13.905 119.64 13.533 119.64 13.0161V12.3389C119.547 12.4043 119.427 12.4588 119.28 12.5023C119.134 12.5459 118.99 12.5771 118.849 12.5958L118.388 12.6611C118.111 12.7016 117.904 12.7654 117.766 12.8526C117.532 12.999 117.415 13.2325 117.415 13.5532Z" fill="white"/>
<path d="M122.712 9.96156C122.472 10.0892 122.245 10.2994 122.03 10.5921V9.88216H121.307V14.8842H122.069V12.2641C122.069 11.9372 122.087 11.6865 122.124 11.5121C122.163 11.3347 122.246 11.1634 122.373 10.9984C122.531 10.7929 122.714 10.6559 122.923 10.5874C123.039 10.5469 123.187 10.5267 123.367 10.5267C123.723 10.5267 123.968 10.6824 124.103 10.9937C124.185 11.1805 124.226 11.4265 124.226 11.7317V14.8842H125V11.6756C125 11.1712 124.938 10.7836 124.814 10.5127C124.588 10.0176 124.154 9.77007 123.511 9.77007C123.218 9.77007 122.951 9.8339 122.712 9.96156Z" fill="white"/>
<path d="M111.205 10.055C111.058 10.1671 110.894 10.3461 110.714 10.5921V9.88216H109.961V14.8842H110.722V12.2314C110.722 11.5869 110.839 11.1416 111.074 10.8957C111.31 10.6497 111.573 10.5267 111.86 10.5267C112.176 10.5267 112.392 10.6434 112.508 10.877C112.581 11.0327 112.618 11.2802 112.618 11.6196V14.8842H113.392V11.9745C113.392 11.4577 113.499 11.0887 113.713 10.8676C113.93 10.6466 114.188 10.536 114.487 10.536C114.704 10.536 114.888 10.5983 115.037 10.7228C115.189 10.8474 115.266 11.0762 115.266 11.4094V14.8842H116.057V11.5542C116.057 11.112 115.997 10.7602 115.879 10.4987C115.659 10.0129 115.244 9.77007 114.635 9.77007C114.35 9.77007 114.094 9.83546 113.865 9.96623C113.637 10.0939 113.438 10.2916 113.269 10.5594C113.167 10.3414 113.055 10.1764 112.931 10.0643C112.711 9.86815 112.42 9.77007 112.059 9.77007C111.74 9.77007 111.456 9.86504 111.205 10.055Z" fill="white"/>
<path d="M106.357 13.8286C106.283 13.6667 106.247 13.4581 106.247 13.2028V9.88212H105.468V13.2822C105.468 13.7088 105.532 14.0497 105.659 14.305C105.893 14.7814 106.333 15.0196 106.979 15.0196C107.393 15.0196 107.746 14.8888 108.036 14.6273C108.183 14.4965 108.305 14.3362 108.404 14.1462L108.396 14.8842H109.115V9.88212H108.353V12.3388C108.353 12.8276 108.301 13.2122 108.197 13.4924C108.005 14.0155 107.644 14.277 107.114 14.277C106.745 14.277 106.492 14.1276 106.357 13.8286Z" fill="white"/>
<path d="M96.5672 13.9548L97.7897 9.88212H98.6315C98.5243 10.2028 98.286 10.9345 97.9166 12.0772C97.6402 12.9366 97.409 13.6372 97.2229 14.1789C96.7829 15.4555 96.4727 16.2339 96.2922 16.5142C96.1118 16.7944 95.8016 16.9345 95.3616 16.9345C95.2545 16.9345 95.1713 16.9298 95.1121 16.9205C95.0557 16.9111 94.9851 16.894 94.9005 16.8691V16.1032C95.0331 16.1436 95.129 16.1685 95.1882 16.1779C95.2474 16.1872 95.2996 16.1919 95.3447 16.1919C95.4857 16.1919 95.5886 16.1654 95.6535 16.1125C95.7212 16.0627 95.7776 16.0004 95.8227 15.9257C95.8368 15.9008 95.8876 15.7731 95.975 15.5427C96.0624 15.3123 96.1259 15.141 96.1653 15.029L94.4902 9.88212H95.3532L96.5672 13.9548Z" fill="white"/>
<path fill-rule="evenodd" clip-rule="evenodd" d="M81.3548 9.77007C81.6763 9.77007 81.9879 9.85414 82.2896 10.0223C82.5914 10.1873 82.8212 10.4021 82.9791 10.6668C83.1314 10.919 83.2329 11.2132 83.2837 11.5495C83.3288 11.7799 83.3514 12.1473 83.3514 12.6517H80.0308C80.0449 13.1593 80.1534 13.5671 80.3565 13.8754C80.5595 14.1805 80.874 14.3331 81.2998 14.3331C81.6974 14.3331 82.0147 14.1883 82.2516 13.8987C82.3869 13.7306 82.4828 13.536 82.5392 13.3149H83.2879C83.2682 13.4986 83.2019 13.7041 83.0891 13.9314C82.9791 14.1556 82.8551 14.3393 82.7169 14.4826C82.4856 14.7316 82.1994 14.8998 81.8582 14.987C81.6749 15.0368 81.4676 15.0617 81.2363 15.0617C80.6723 15.0617 80.1943 14.8359 79.8023 14.3845C79.4104 13.9299 79.2144 13.2947 79.2144 12.4789C79.2144 11.6756 79.4118 11.0233 79.8066 10.522C80.2014 10.0207 80.7175 9.77007 81.3548 9.77007ZM82.5688 11.9839C82.5378 11.6196 82.4659 11.3284 82.3531 11.1105C82.1444 10.7057 81.7961 10.5033 81.3083 10.5033C80.9586 10.5033 80.6653 10.6434 80.4284 10.9237C80.1915 11.2008 80.066 11.5542 80.0519 11.9839H82.5688Z" fill="white"/>
<path fill-rule="evenodd" clip-rule="evenodd" d="M71.6969 10.041C71.5164 10.1656 71.35 10.3415 71.1977 10.5688V9.90558H70.4575V16.8786H71.2189V14.3238C71.3853 14.5511 71.5361 14.7115 71.6715 14.8049C71.9027 14.9699 72.189 15.0524 72.5302 15.0524C72.9645 15.0524 73.3452 14.9045 73.6723 14.6087C74.1884 14.1417 74.4464 13.3633 74.4464 12.2735C74.4464 11.4671 74.2673 10.8475 73.9092 10.4147C73.5511 9.97875 73.1154 9.76079 72.6021 9.76079C72.2552 9.76079 71.9535 9.8542 71.6969 10.041ZM73.3128 13.8288C73.0787 14.1557 72.784 14.3191 72.4287 14.3191C71.9041 14.3191 71.5432 14.0607 71.3458 13.5439C71.2414 13.273 71.1893 12.9445 71.1893 12.5584C71.1893 12.0789 71.2414 11.6835 71.3458 11.3721C71.5404 10.7898 71.9013 10.4987 72.4287 10.4987C72.9532 10.4987 73.3142 10.7743 73.5116 11.3254C73.6159 11.6118 73.6681 11.9543 73.6681 12.3529C73.6681 13.0068 73.5496 13.4987 73.3128 13.8288Z" fill="white"/>
<path fill-rule="evenodd" clip-rule="evenodd" d="M68.8203 11.6103C68.7611 11.7473 68.644 11.8282 68.4692 11.8532L67.2551 12.0213C66.8293 12.0804 66.4853 12.2377 66.223 12.493C65.9607 12.7483 65.8296 13.1079 65.8296 13.5719C65.8296 13.9953 65.9622 14.3487 66.2272 14.6321C66.4951 14.9123 66.8392 15.0524 67.2594 15.0524C67.6091 15.0524 67.9291 14.9699 68.2196 14.8049C68.5101 14.6399 68.7328 14.4452 68.888 14.2211C68.9133 14.4203 68.957 14.5745 69.0191 14.6834C69.1375 14.8889 69.3279 14.9917 69.5901 14.9917C69.6973 14.9917 69.7819 14.987 69.8439 14.9777C69.906 14.9683 69.9962 14.945 70.1147 14.9076V14.2865C70.0667 14.2958 70.0216 14.3036 69.9793 14.3098C69.937 14.3129 69.8989 14.3145 69.8651 14.3145C69.7608 14.3145 69.6917 14.288 69.6578 14.2351C69.6268 14.1821 69.6113 14.1121 69.6113 14.0249V11.1432C69.6113 10.67 69.4463 10.3212 69.1164 10.0971C68.7836 9.87288 68.3507 9.76079 67.8177 9.76079C67.3581 9.76079 66.9534 9.88223 66.6037 10.1251C66.2568 10.3648 66.0764 10.793 66.0623 11.4095H66.7729C66.8011 11.151 66.8617 10.9564 66.9548 10.8257C67.1212 10.589 67.4032 10.4707 67.8008 10.4707C68.1449 10.4707 68.4085 10.5361 68.5918 10.6669C68.778 10.7945 68.871 11.0016 68.871 11.288C68.871 11.4281 68.8541 11.5356 68.8203 11.6103ZM66.866 14.1277C66.7052 13.9875 66.6249 13.7961 66.6249 13.5532C66.6249 13.2325 66.7419 12.999 66.976 12.8526C67.1141 12.7654 67.3214 12.7016 67.5978 12.6611L68.0589 12.5958C68.1999 12.5771 68.3437 12.5459 68.4903 12.5023C68.637 12.4588 68.7568 12.4043 68.8499 12.3389V13.0161C68.8499 13.533 68.6384 13.905 68.2154 14.1323C67.9644 14.2693 67.7049 14.3378 67.437 14.3378C67.2171 14.3378 67.0267 14.2678 66.866 14.1277Z" fill="white"/>
<path d="M64.6828 10.1344C64.4515 10.3741 64.3063 10.5781 64.2471 10.7462V9.88216H63.5237V14.8842H64.2852V12.0072C64.2852 11.6523 64.3881 11.3393 64.594 11.0685C64.7998 10.7945 65.0945 10.6575 65.478 10.6575C65.5232 10.6575 65.5641 10.659 65.6007 10.6621C65.6402 10.6652 65.6825 10.6715 65.7276 10.6808V9.79343C65.6458 9.78408 65.588 9.77786 65.5542 9.77474C65.5203 9.77163 65.4964 9.77007 65.4823 9.77007C65.1805 9.77007 64.914 9.89151 64.6828 10.1344Z" fill="white"/>
<path fill-rule="evenodd" clip-rule="evenodd" d="M61.5563 10.0831C61.2912 9.89003 60.981 9.7935 60.6257 9.7935C60.1012 9.7935 59.6528 10.0286 59.2805 10.4987C58.9111 10.9689 58.7264 11.6228 58.7264 12.4603C58.7264 13.3477 58.9097 13.9844 59.2763 14.3705C59.6457 14.7535 60.0758 14.945 60.5665 14.945C60.919 14.945 61.2024 14.8827 61.4167 14.7582C61.631 14.6336 61.8143 14.4437 61.9666 14.1884C61.9751 14.8765 61.9257 15.3544 61.8186 15.6222C61.6381 16.0768 61.256 16.3041 60.6722 16.3041C60.3028 16.3041 60.0321 16.2107 59.86 16.0239C59.7501 15.9024 59.6767 15.7296 59.6401 15.5055H58.866C58.9054 16.0192 59.0916 16.396 59.4243 16.6357C59.7571 16.8786 60.1674 17 60.6553 17C61.5323 17 62.1288 16.6606 62.4446 15.9818C62.6138 15.6144 62.6984 15.1131 62.6984 14.478V9.92895H61.9962V10.5595C61.8468 10.3508 61.7001 10.192 61.5563 10.0831ZM61.6494 10.9845C61.8806 11.2834 61.9962 11.7426 61.9962 12.3622C61.9962 12.7732 61.9342 13.1329 61.8101 13.4411C61.5873 13.986 61.2024 14.2584 60.6553 14.2584C60.3056 14.2584 60.0264 14.1121 59.8177 13.8194C59.6119 13.5236 59.5089 13.094 59.5089 12.5304C59.5089 12.0509 59.5611 11.6632 59.6655 11.3674C59.8629 10.8132 60.2295 10.5361 60.7653 10.5361C61.1234 10.5361 61.4181 10.6856 61.6494 10.9845Z" fill="white"/>
<path fill-rule="evenodd" clip-rule="evenodd" d="M57.8589 10.3819C57.4556 9.9522 56.9621 9.73736 56.3783 9.73736C55.7269 9.73736 55.208 9.98645 54.8217 10.4846C54.4353 10.9828 54.2422 11.6522 54.2422 12.4929C54.2422 13.2776 54.4255 13.9034 54.7921 14.3704C55.1587 14.8344 55.6536 15.0663 56.2768 15.0663C57.0241 15.0663 57.5755 14.8032 57.9308 14.277C58.2861 13.7508 58.4638 13.0845 58.4638 12.2781C58.4638 11.4436 58.2621 10.8116 57.8589 10.3819ZM57.3851 13.7119C57.199 14.1323 56.8535 14.3424 56.3487 14.3424C55.8891 14.3424 55.5535 14.1649 55.342 13.81C55.1305 13.455 55.0247 13.0113 55.0247 12.4789C55.0247 11.9247 55.1305 11.4514 55.342 11.0591C55.5535 10.6668 55.8919 10.4706 56.3572 10.4706C56.8817 10.4706 57.2511 10.701 57.4655 11.1618C57.6008 11.4545 57.6685 11.8344 57.6685 12.3014C57.6685 12.8183 57.574 13.2885 57.3851 13.7119Z" fill="white"/>
<path d="M53.5692 14.1837C53.462 14.1246 53.4084 14.0078 53.4084 13.8334V10.5688H54.1318V9.88225H53.4084V8.48578H52.6386V9.88225H52.0252V10.5688H52.6386V13.8801C52.6386 14.2009 52.702 14.4624 52.8289 14.6648C52.9558 14.8641 53.1969 14.9637 53.5523 14.9637C53.6622 14.9637 53.7638 14.9575 53.8568 14.945C53.9527 14.9326 54.0444 14.9123 54.1318 14.8843V14.2211C54.0754 14.2273 54.026 14.232 53.9837 14.2351H53.8653C53.7271 14.2351 53.6284 14.218 53.5692 14.1837Z" fill="white"/>
<path fill-rule="evenodd" clip-rule="evenodd" d="M51.3189 10.3819C50.9156 9.9522 50.4221 9.73736 49.8384 9.73736C49.187 9.73736 48.6681 9.98645 48.2817 10.4846C47.8954 10.9828 47.7022 11.6522 47.7022 12.4929C47.7022 13.2776 47.8855 13.9034 48.2521 14.3704C48.6187 14.8344 49.1136 15.0663 49.7369 15.0663C50.4842 15.0663 51.0355 14.8032 51.3908 14.277C51.7461 13.7508 51.9238 13.0845 51.9238 12.2781C51.9238 11.4436 51.7222 10.8116 51.3189 10.3819ZM50.8451 13.7119C50.659 14.1323 50.3136 14.3424 49.8088 14.3424C49.3491 14.3424 49.0135 14.1649 48.802 13.81C48.5905 13.455 48.4848 13.0113 48.4848 12.4789C48.4848 11.9247 48.5905 11.4514 48.802 11.0591C49.0135 10.6668 49.3519 10.4706 49.8172 10.4706C50.3418 10.4706 50.7112 10.701 50.9255 11.1618C51.0609 11.4545 51.1286 11.8344 51.1286 12.3014C51.1286 12.8183 51.0341 13.2885 50.8451 13.7119Z" fill="white"/>
<path fill-rule="evenodd" clip-rule="evenodd" d="M40.214 14.8049C40.0787 14.7115 39.9278 14.5511 39.7614 14.3238V16.8786H39V9.90558H39.7403V10.5688C39.8925 10.3415 40.0589 10.1656 40.2394 10.041C40.496 9.8542 40.7978 9.76079 41.1446 9.76079C41.6579 9.76079 42.0936 9.97875 42.4517 10.4147C42.8099 10.8475 42.989 11.4671 42.989 12.2735C42.989 13.3633 42.7309 14.1417 42.2149 14.6087C41.8877 14.9045 41.507 15.0524 41.0727 15.0524C40.7315 15.0524 40.4453 14.9699 40.214 14.8049ZM40.9712 14.3191C41.3265 14.3191 41.6212 14.1557 41.8553 13.8288C42.0922 13.4987 42.2106 13.0068 42.2106 12.3529C42.2106 11.9543 42.1585 11.6118 42.0541 11.3254C41.8567 10.7743 41.4957 10.4987 40.9712 10.4987C40.4439 10.4987 40.0829 10.7898 39.8883 11.3721C39.784 11.6835 39.7318 12.0789 39.7318 12.5584C39.7318 12.9445 39.784 13.273 39.8883 13.5439C40.0857 14.0607 40.4467 14.3191 40.9712 14.3191Z" fill="white"/>
<path fill-rule="evenodd" clip-rule="evenodd" d="M102.594 32.0851L98.0078 19H94.95L90.3281 32.0851H93.1575L94.0537 29.3953H98.825L99.6597 32.0851H102.594ZM96.4525 21.9916L98.0693 27.1405H94.783L96.4525 21.9916Z" fill="white"/>
<path fill-rule="evenodd" clip-rule="evenodd" d="M74.602 22.1958C75.8615 22.1958 76.8456 22.6545 77.5544 23.5718C78.2691 24.4891 78.6264 25.6728 78.6264 27.1227C78.6264 28.6259 78.2749 29.8717 77.572 30.8601C76.869 31.8484 75.8878 32.3426 74.6284 32.3426C73.8376 32.3426 73.202 32.1828 72.7217 31.8632C72.4346 31.6738 72.1242 31.3424 71.7903 30.8689V32.0851H69.3388V19.0178H71.8342V23.6695C72.1505 23.2197 72.4991 22.8764 72.8798 22.6397C73.3309 22.3438 73.905 22.1958 74.602 22.1958ZM73.9606 30.2564C74.605 30.2564 75.1058 29.993 75.4631 29.4663C75.8205 28.9396 75.9991 28.2472 75.9991 27.389C75.9991 26.7025 75.9113 26.1344 75.7355 25.6846C75.4016 24.8324 74.7866 24.4063 73.8903 24.4063C72.9823 24.4063 72.3585 24.8235 72.0187 25.658C71.843 26.1018 71.7551 26.6759 71.7551 27.3802C71.7551 28.2087 71.9367 28.8952 72.2999 29.4397C72.6631 29.9842 73.2167 30.2564 73.9606 30.2564Z" fill="white"/>
<path d="M61.3181 31.5969C61.037 31.3069 60.8964 30.8601 60.8964 30.2564V24.2997H59.5608V22.4977H60.8964V19.799H63.3743V22.4977H64.9295V24.2997H63.3743V29.4131C63.3743 29.8096 63.424 30.0581 63.5236 30.1587C63.6232 30.2534 63.9278 30.3008 64.4375 30.3008H64.6747C64.7626 30.2949 64.8475 30.2889 64.9295 30.283V32.1739L63.7433 32.2183C62.56 32.2597 61.7516 32.0526 61.3181 31.5969Z" fill="white"/>
<path fill-rule="evenodd" clip-rule="evenodd" d="M59.4634 27.2648C59.4634 28.6851 59.0592 29.9013 58.2509 30.9133C57.4425 31.9194 56.2152 32.4225 54.5692 32.4225C52.9231 32.4225 51.6959 31.9194 50.8875 30.9133C50.0791 29.9013 49.675 28.6851 49.675 27.2648C49.675 25.8681 50.0791 24.6578 50.8875 23.6339C51.6959 22.6101 52.9231 22.0982 54.5692 22.0982C56.2152 22.0982 57.4425 22.6101 58.2509 23.6339C59.0592 24.6578 59.4634 25.8681 59.4634 27.2648ZM54.5604 30.3008C55.2926 30.3008 55.855 30.0374 56.2475 29.5107C56.6399 28.984 56.8362 28.2353 56.8362 27.2648C56.8362 26.2942 56.6399 25.5485 56.2475 25.0277C55.855 24.501 55.2926 24.2376 54.5604 24.2376C53.8282 24.2376 53.2629 24.501 52.8646 25.0277C52.4721 25.5485 52.2758 26.2942 52.2758 27.2648C52.2758 28.2353 52.4721 28.984 52.8646 29.5107C53.2629 30.0374 53.8282 30.3008 54.5604 30.3008Z" fill="white"/>
<path d="M47.7148 22.9681C47.088 22.4414 46.2796 22.1781 45.2896 22.1781C44.4988 22.1781 43.8457 22.3734 43.3302 22.764C43.0432 22.9829 42.7385 23.341 42.4164 23.8381V22.4266H40V32.0851H42.4954V26.8475C42.4954 26.2498 42.5775 25.7586 42.7415 25.3739C43.0578 24.646 43.6407 24.282 44.49 24.282C45.1813 24.282 45.6499 24.5305 45.8959 25.0277C46.0307 25.2999 46.098 25.6905 46.098 26.1995V32.0851H48.6638V25.5692C48.6638 24.356 48.3474 23.4889 47.7148 22.9681Z" fill="white"/>
<path d="M80.4108 33.9582L80.0945 33.9405V35.9645C80.3639 35.9822 80.566 35.9911 80.7008 35.9911C80.8355 35.997 81.0142 36 81.2368 36C82.3439 36 83.082 35.7781 83.451 35.3342C83.8201 34.8963 84.3209 33.76 84.9536 31.9253L88.2398 22.4089H85.5774L83.6004 29.5462L81.5092 22.4089H78.7237L82.2385 32.5112C82.2619 32.5822 82.2092 32.7775 82.0803 33.0971C81.9573 33.4167 81.8226 33.6268 81.6761 33.7274C81.5238 33.8339 81.3363 33.902 81.1138 33.9316C80.8912 33.9612 80.6568 33.9701 80.4108 33.9582Z" fill="white"/>
<path d="M104.902 21.2258V29.8624H103.306V32.0882H109V29.8624H107.59V21.2258H109V19H103.306V21.2258H104.902Z" fill="white"/>
<path d="M27.8497 24.1575C24.3836 26.9643 19.4266 26.9643 15.9605 24.1575L17.3007 22.5026C19.9854 24.6766 23.8248 24.6766 26.5095 22.5026L27.8497 24.1575Z" fill="white"/>
<path d="M17.404 17.6365V20.5134H19.5336V17.6365H17.404Z" fill="white"/>
<path d="M24.012 17.6365V20.5134H26.1415V17.6365H24.012Z" fill="white"/>
<path fill-rule="evenodd" clip-rule="evenodd" d="M21.5 33C27.8513 33 33 27.8513 33 21.5C33 15.1487 27.8513 10 21.5 10C15.1487 10 10 15.1487 10 21.5C10 27.8513 15.1487 33 21.5 33ZM21.5 30.8705C26.6752 30.8705 30.8705 26.6752 30.8705 21.5C30.8705 16.3248 26.6752 12.1295 21.5 12.1295C16.3248 12.1295 12.1295 16.3248 12.1295 21.5C12.1295 26.6752 16.3248 30.8705 21.5 30.8705Z" fill="white"/>
</svg>
