<svg width="131" height="42" viewBox="0 0 131 42" fill="none" xmlns="http://www.w3.org/2000/svg">
<path d="M0.5 0.5H116C124.008 0.5 130.5 6.99187 130.5 15V41.5H15C6.99187 41.5 0.5 35.0081 0.5 27V0.5Z" fill="white" stroke="black"/>
<path d="M17.9605 24.1575C21.4266 26.9643 26.3836 26.9643 29.8497 24.1575L28.5095 22.5026C25.8248 24.6766 21.9854 24.6766 19.3007 22.5026L17.9605 24.1575Z" fill="black"/>
<path d="M19.404 20.5134V17.6365H21.5336V20.5134H19.404Z" fill="black"/>
<path d="M26.012 17.6365V20.5134H28.1415V17.6365H26.012Z" fill="black"/>
<path fill-rule="evenodd" clip-rule="evenodd" d="M35 21.5C35 27.8513 29.8513 33 23.5 33C17.1487 33 12 27.8513 12 21.5C12 15.1487 17.1487 10 23.5 10C29.8513 10 35 15.1487 35 21.5ZM32.8705 21.5C32.8705 26.6752 28.6752 30.8705 23.5 30.8705C18.3248 30.8705 14.1295 26.6752 14.1295 21.5C14.1295 16.3248 18.3248 12.1295 23.5 12.1295C28.6752 12.1295 32.8705 16.3248 32.8705 21.5Z" fill="black"/>
<path fill-rule="evenodd" clip-rule="evenodd" d="M105.32 26.2505C105.32 25.9898 105.336 25.4196 105.336 25.4196H101.424V23.8717H105.573C105.764 26.2238 106.11 28.471 106.651 30.2984C105.776 31.2876 104.759 32.1157 103.612 32.7515C104.107 33.2077 104.953 34.2016 105.288 34.7067C106.138 34.1597 106.93 33.5082 107.658 32.7639C108.338 33.9391 109.193 34.6415 110.254 34.6415C111.898 34.6415 112.649 33.9572 113 30.78C112.377 30.5356 111.563 29.9817 111.036 29.4277C110.956 31.4155 110.765 32.2301 110.445 32.2301C110.06 32.2301 109.67 31.686 109.312 30.7655C110.465 29.1244 111.389 27.1985 112.058 25.0611L109.711 24.4908C109.396 25.6095 108.983 26.659 108.478 27.6243C108.264 26.4884 108.09 25.2105 107.974 23.8717H112.84V21.5418H111.142L111.946 20.6945C111.387 20.1568 110.27 19.4399 109.455 19L108.05 20.4175C108.553 20.7329 109.148 21.1437 109.647 21.5418H107.835C107.811 20.7923 107.808 20.0385 107.827 19.2933H105.384C105.387 20.0364 105.403 20.7892 105.433 21.5418H98.9812V26.4297C98.9812 28.5642 98.9014 31.4481 97.7199 33.3707C98.2468 33.6477 99.3006 34.5275 99.6997 35C100.514 33.7498 100.957 32.0088 101.189 30.2753C101.506 30.8638 101.745 31.7506 101.775 32.4257C102.51 32.4257 103.18 32.4094 103.612 32.3279C104.091 32.2301 104.458 32.0672 104.809 31.5947C105.192 31.0733 105.272 29.5743 105.32 26.2505ZM101.197 30.2141C101.316 29.3052 101.378 28.4 101.406 27.5703H103.058C103.023 29.1922 102.963 29.8644 102.829 30.0631C102.701 30.2261 102.558 30.2749 102.35 30.2749C102.102 30.2749 101.674 30.2596 101.197 30.2141Z" fill="black"/>
<path d="M86.8673 22.112C87.1314 21.4187 87.3672 20.705 87.565 19.9939L85.1541 19.4399C84.6112 21.6395 83.5893 23.8717 82.3599 25.2077C82.9507 25.5336 83.9885 26.2342 84.4515 26.6415C84.9297 26.0332 85.4007 25.2744 85.839 24.4257H88.9062V26.9185H84.7709V29.1996H88.9062V32.002H82.8708V34.3157H97.4005V32.002H91.3332V29.1996H95.9156V26.9185H91.3332V24.4257H96.5543V22.112H91.3332V19.277H88.9062V22.112H86.8673Z" fill="black"/>
<path d="M47.3436 28.4645C47.4377 28.0285 47.4856 27.6141 47.4988 27.2444H43.8462V25.11H47.5026V23.4807H43.6866V21.2811H47.5026V19.3585H49.8018V27C49.8018 29.8513 48.9396 33.0611 45.0278 34.9837C44.6446 34.4134 43.9261 33.6802 43.3672 33.224C44.7784 32.6761 45.7414 31.786 46.3804 30.8057C45.6568 30.9237 44.9507 31.0375 44.2921 31.1436L43.4151 31.2851L43 28.9226C44.1273 28.8236 45.7056 28.6496 47.3436 28.4645Z" fill="black"/>
<path fill-rule="evenodd" clip-rule="evenodd" d="M72.6755 34.3304L67.632 19.7975H64.2696L59.1875 34.3304H62.2986L63.2841 31.3429H68.5305L69.4484 34.3304H72.6755ZM65.9218 23.1201L67.6996 28.8386H64.0861L65.9218 23.1201Z" fill="black"/>
<path d="M53.7456 19.3585V21.2811H57.9289V23.4807H53.7456V25.11H57.5457V27.2444H53.7456V28.9063H58.2163V31.1059H53.7456V34.7556H51.4144V19.3585H53.7456Z" fill="black"/>
<path d="M75.2124 22.2695V31.8617H73.4582V34.3337H79.7189V31.8617H78.169V22.2695H79.7189V19.7975H73.4582V22.2695H75.2124Z" fill="black"/>
<path d="M74.0489 10.7225C76.0198 10.3965 76.523 9.79403 76.696 8.63283H74.7108V9.72138H73.9572V7.97192H77.9573C77.8621 7.69738 77.7436 7.38625 77.6334 7.12635L78.3972 7C78.5463 7.29225 78.7076 7.67116 78.8203 7.97192H82.6538V9.64363H81.8595V8.63283H79.7617V10.2559C79.7617 10.5086 79.8024 10.6058 80.057 10.6058H81.6151C81.8493 10.6058 82.2159 10.5864 82.389 10.5475C82.3949 10.6009 82.4008 10.661 82.4069 10.7234C82.422 10.8768 82.4386 11.0452 82.4603 11.1695C82.2974 11.2084 81.9715 11.2181 81.6456 11.2181H80.0163C79.1914 11.2181 78.998 10.9557 78.998 10.2462V8.63283H77.4904C77.277 10.1061 76.6613 10.8832 74.4664 11.3153C74.3951 11.1307 74.2118 10.8585 74.0489 10.7225Z" fill="black"/>
<path d="M73.611 15.378C76.1459 14.714 76.9414 13.7144 77.1662 12.8121H74.3136V12.1317H77.2463L77.2464 12.1026V10.946H78.0407V12.1123L78.0407 12.1317H80.5356V14.7268C80.5356 14.9989 80.5866 15.0378 80.8921 15.0378H81.8798C82.1853 15.0378 82.2363 14.8629 82.2668 13.5896C82.4399 13.716 82.7862 13.8423 83 13.9006C82.9185 15.3877 82.7047 15.757 81.9613 15.757H80.78C79.9756 15.757 79.7413 15.5335 79.7413 14.7268V12.8121H77.988C77.7963 13.9779 76.991 15.2319 74.1507 15.9903C74.0285 15.8056 73.7943 15.5432 73.611 15.378Z" fill="black"/>
<path fill-rule="evenodd" clip-rule="evenodd" d="M67.7658 16C68.9151 14.8504 69.1678 13.2255 69.2061 11.7333H70.8819V15.9611H71.6049V11.7333H72.7658V11.0335H71.6049V8.23434H72.5621V7.554H67.6436V8.23434H68.4888V11.0335H67.3585V11.7333H68.4825C68.4452 13.0466 68.2179 14.5263 67.1752 15.5821C67.3585 15.6695 67.6334 15.8736 67.7658 16ZM70.8819 8.23434H69.2118V11.0335H70.8819V8.23434Z" fill="black"/>
<path fill-rule="evenodd" clip-rule="evenodd" d="M63.3055 11.986C64.0314 11.0682 64.4955 9.70067 64.7704 8.2149H63.499V7.54428H67.0937V8.2149H65.5021C65.3339 9.0181 65.1235 9.8042 64.8588 10.5281H66.9104V14.7365H64.8432V15.514H64.1914V11.9897C64.0289 12.2729 63.8528 12.5356 63.6619 12.7732C63.611 12.5983 63.4379 12.1803 63.3055 11.986ZM66.2383 11.189H64.8432V14.0756H66.2383V11.189Z" fill="black"/>
<path d="M57.4558 7.23312C57.4573 7.1673 57.4587 7.10536 57.4603 7.0486H58.3055L58.3045 7.09068C58.2963 7.43793 58.2853 7.90693 58.2398 8.45298C58.3833 9.59594 59.0033 13.7185 62.6334 15.2613C62.4094 15.4266 62.1853 15.6793 62.0733 15.8834C59.5131 14.7418 58.41 12.3427 57.9093 10.5265C57.4296 12.472 56.3451 14.6474 53.8554 15.9222C53.723 15.7279 53.4684 15.5043 53.2342 15.3488C57.3165 13.3773 57.4178 8.90875 57.4558 7.23642L57.4558 7.23535L57.4558 7.23312Z" fill="black"/>
<path d="M48.6517 14.7365L49.1303 14.2505C50.2811 14.6004 51.5336 15.0572 52.277 15.4266L51.6558 15.932C50.9633 15.5626 49.8024 15.0961 48.6517 14.7365Z" fill="black"/>
<path d="M46.1365 14.2505L46.8391 14.6782C45.9837 15.1739 44.6191 15.6793 43.5295 15.9514C43.4175 15.8056 43.1629 15.5529 43 15.4168C44.0896 15.1641 45.4542 14.6685 46.1365 14.2505Z" fill="black"/>
<path fill-rule="evenodd" clip-rule="evenodd" d="M44.6599 13.473H43.1935V14.095H52.2363V13.473H50.8004V9.07991H47.9796V8.4676H51.9715V7.83585H47.9796V7.02916H47.2261V7.83585H43.4786V8.4676H47.2261V9.07991H44.6599V13.473ZM45.3931 13.473H50.0367V12.7927H45.3931V13.473ZM45.3931 12.3261H50.0367V11.743H45.3931V12.3261ZM45.3931 11.2667H50.0367V10.6933H45.3931V11.2667ZM45.3931 10.2365H50.0367V9.59503H45.3931V10.2365Z" fill="black"/>
</svg>
