<svg width="131" height="42" viewBox="0 0 131 42" fill="none" xmlns="http://www.w3.org/2000/svg">
<path d="M116 0.5C124.008 0.5 130.5 6.99187 130.5 15V41.5H15C6.99187 41.5 0.5 35.0081 0.5 27V0.5H116Z" fill="black" stroke="#ACACAC"/>
<path d="M27.8497 24.1575C24.3836 26.9643 19.4266 26.9643 15.9605 24.1575L17.3007 22.5026C19.9854 24.6766 23.8248 24.6766 26.5095 22.5026L27.8497 24.1575Z" fill="white"/>
<path d="M17.404 17.6365V20.5134H19.5336V17.6365H17.404Z" fill="white"/>
<path d="M24.012 17.6365V20.5134H26.1415V17.6365H24.012Z" fill="white"/>
<path fill-rule="evenodd" clip-rule="evenodd" d="M21.5 33C27.8513 33 33 27.8513 33 21.5C33 15.1487 27.8513 10 21.5 10C15.1487 10 10 15.1487 10 21.5C10 27.8513 15.1487 33 21.5 33ZM21.5 30.8705C26.6752 30.8705 30.8705 26.6752 30.8705 21.5C30.8705 16.3248 26.6752 12.1295 21.5 12.1295C16.3248 12.1295 12.1295 16.3248 12.1295 21.5C12.1295 26.6752 16.3248 30.8705 21.5 30.8705Z" fill="white"/>
<path fill-rule="evenodd" clip-rule="evenodd" d="M100.594 32.0851L96.0078 19H92.95L88.3281 32.0851H91.1575L92.0537 29.3953H96.825L97.6597 32.0851H100.594ZM94.4525 21.9916L96.0693 27.1405H92.783L94.4525 21.9916Z" fill="white"/>
<path fill-rule="evenodd" clip-rule="evenodd" d="M72.602 22.1958C73.8615 22.1958 74.8456 22.6545 75.5544 23.5718C76.2691 24.4891 76.6264 25.6728 76.6264 27.1227C76.6264 28.6259 76.2749 29.8717 75.572 30.8601C74.869 31.8484 73.8878 32.3426 72.6284 32.3426C71.8376 32.3426 71.202 32.1828 70.7217 31.8632C70.4346 31.6738 70.1242 31.3424 69.7903 30.8689V32.0851H67.3388V19.0178H69.8342V23.6695C70.1505 23.2197 70.4991 22.8764 70.8798 22.6397C71.3309 22.3438 71.905 22.1958 72.602 22.1958ZM71.9606 30.2564C72.605 30.2564 73.1058 29.993 73.4631 29.4663C73.8205 28.9396 73.9991 28.2472 73.9991 27.389C73.9991 26.7025 73.9113 26.1344 73.7355 25.6846C73.4016 24.8324 72.7866 24.4063 71.8903 24.4063C70.9823 24.4063 70.3585 24.8235 70.0187 25.658C69.843 26.1018 69.7551 26.6759 69.7551 27.3802C69.7551 28.2087 69.9367 28.8952 70.2999 29.4397C70.6631 29.9842 71.2167 30.2564 71.9606 30.2564Z" fill="white"/>
<path d="M59.3181 31.5969C59.037 31.3069 58.8964 30.8601 58.8964 30.2564V24.2997H57.5608V22.4977H58.8964V19.799H61.3742V22.4977H62.9295V24.2997H61.3742V29.4131C61.3742 29.8096 61.424 30.0581 61.5236 30.1587C61.6232 30.2534 61.9278 30.3008 62.4374 30.3008H62.6747C62.7626 30.2949 62.8475 30.2889 62.9295 30.283V32.1739L61.7433 32.2183C60.56 32.2597 59.7516 32.0526 59.3181 31.5969Z" fill="white"/>
<path fill-rule="evenodd" clip-rule="evenodd" d="M57.4634 27.2648C57.4634 28.6851 57.0592 29.9013 56.2508 30.9133C55.4425 31.9194 54.2152 32.4225 52.5692 32.4225C50.9231 32.4225 49.6959 31.9194 48.8875 30.9133C48.0791 29.9013 47.6749 28.6851 47.6749 27.2648C47.6749 25.8681 48.0791 24.6578 48.8875 23.6339C49.6959 22.6101 50.9231 22.0982 52.5692 22.0982C54.2152 22.0982 55.4425 22.6101 56.2508 23.6339C57.0592 24.6578 57.4634 25.8681 57.4634 27.2648ZM52.5604 30.3008C53.2926 30.3008 53.855 30.0374 54.2475 29.5107C54.6399 28.984 54.8362 28.2353 54.8362 27.2648C54.8362 26.2942 54.6399 25.5485 54.2475 25.0277C53.855 24.501 53.2926 24.2376 52.5604 24.2376C51.8282 24.2376 51.2629 24.501 50.8646 25.0277C50.4721 25.5485 50.2758 26.2942 50.2758 27.2648C50.2758 28.2353 50.4721 28.984 50.8646 29.5107C51.2629 30.0374 51.8282 30.3008 52.5604 30.3008Z" fill="white"/>
<path d="M45.7148 22.9681C45.088 22.4414 44.2796 22.1781 43.2896 22.1781C42.4988 22.1781 41.8457 22.3734 41.3302 22.764C41.0432 22.9829 40.7385 23.341 40.4164 23.8381V22.4266H38V32.0851H40.4954V26.8475C40.4954 26.2498 40.5775 25.7586 40.7415 25.3739C41.0578 24.646 41.6407 24.282 42.49 24.282C43.1813 24.282 43.6499 24.5305 43.8959 25.0277C44.0307 25.2999 44.098 25.6905 44.098 26.1995V32.0851H46.6638V25.5692C46.6638 24.356 46.3474 23.4889 45.7148 22.9681Z" fill="white"/>
<path d="M78.4108 33.9582L78.0945 33.9405V35.9645C78.3639 35.9822 78.566 35.9911 78.7008 35.9911C78.8355 35.997 79.0142 36 79.2368 36C80.3439 36 81.082 35.7781 81.451 35.3342C81.8201 34.8963 82.3209 33.76 82.9536 31.9253L86.2398 22.4089H83.5774L81.6004 29.5462L79.5092 22.4089H76.7237L80.2385 32.5112C80.2619 32.5822 80.2092 32.7775 80.0803 33.0971C79.9573 33.4167 79.8226 33.6268 79.6761 33.7274C79.5238 33.8339 79.3363 33.902 79.1137 33.9316C78.8912 33.9612 78.6568 33.9701 78.4108 33.9582Z" fill="white"/>
<path d="M102.902 21.2258V29.8624H101.306V32.0882H107V29.8624H105.59V21.2258H107V19H101.306V21.2258H102.902Z" fill="white"/>
<path d="M89.6348 13.9219L90.9336 10.0049H91.8271C91.7133 10.3136 91.4605 11.0177 91.0684 12.1162C90.7749 12.9426 90.5287 13.6167 90.3311 14.1377C89.864 15.3652 89.5344 16.1143 89.3428 16.3838C89.1511 16.653 88.8214 16.7881 88.3545 16.7881C88.2409 16.7881 88.1527 16.7834 88.0898 16.7744C88.03 16.7654 87.9551 16.7486 87.8652 16.7246V15.9883C88.006 16.0272 88.108 16.0506 88.1709 16.0596C88.2337 16.0685 88.289 16.0732 88.3369 16.0732C88.4867 16.0732 88.5962 16.048 88.665 15.9971C88.7369 15.9492 88.7968 15.8892 88.8447 15.8174C88.8597 15.7934 88.9131 15.6705 89.0059 15.4492C89.0986 15.2279 89.1661 15.0629 89.208 14.9551L87.4297 10.0049H88.3457L89.6348 13.9219Z" fill="white"/>
<path d="M47.251 9.87891C47.9755 9.87899 48.498 10.0914 48.8184 10.5166C49.0189 10.786 49.1163 11.0764 49.1104 11.3877H48.3467C48.3317 11.2052 48.267 11.0393 48.1533 10.8896C47.9676 10.677 47.6457 10.5703 47.1875 10.5703C46.8821 10.5703 46.6499 10.6293 46.4912 10.7461C46.3358 10.8628 46.2579 11.0166 46.2578 11.208C46.2578 11.4176 46.3608 11.5861 46.5674 11.7119C46.6872 11.7868 46.8641 11.8523 47.0977 11.9092L47.6328 12.0391C48.2136 12.1798 48.6032 12.3165 48.8008 12.4482C49.115 12.6549 49.2724 12.9799 49.2725 13.4229C49.2725 13.8511 49.1086 14.2208 48.7822 14.5322C48.4588 14.8437 47.9646 15 47.2998 15C46.5842 15 46.0768 14.838 45.7773 14.5146C45.4809 14.1883 45.3218 13.7856 45.3008 13.3066H46.0781C46.1021 13.5758 46.1696 13.7821 46.2803 13.9258C46.4839 14.1863 46.8377 14.3174 47.3408 14.3174C47.64 14.3173 47.9034 14.2527 48.1309 14.124C48.3584 13.9923 48.4726 13.79 48.4727 13.5176C48.4727 13.3109 48.3809 13.1537 48.1982 13.0459C48.0815 12.98 47.8511 12.9032 47.5068 12.8164L46.8643 12.6553C46.4541 12.5535 46.1517 12.4392 45.957 12.3135C45.6097 12.0949 45.4356 11.7925 45.4355 11.4062C45.4355 10.951 45.5993 10.5823 45.9258 10.3008C46.2552 10.0195 46.6971 9.87891 47.251 9.87891Z" fill="white"/>
<path d="M122.636 9.87891C123.36 9.87891 123.884 10.0913 124.204 10.5166C124.405 10.786 124.502 11.0765 124.496 11.3877H123.732C123.717 11.2052 123.653 11.0392 123.539 10.8896C123.353 10.6771 123.031 10.5703 122.573 10.5703C122.268 10.5703 122.036 10.6293 121.877 10.7461C121.721 10.8628 121.644 11.0165 121.644 11.208C121.644 11.4176 121.746 11.5861 121.953 11.7119C122.073 11.7867 122.25 11.8523 122.483 11.9092L123.018 12.0391C123.598 12.1798 123.988 12.3165 124.186 12.4482C124.5 12.6549 124.657 12.9797 124.657 13.4229C124.657 13.851 124.494 14.2208 124.168 14.5322C123.845 14.8436 123.35 15 122.686 15C121.97 15 121.462 14.8381 121.162 14.5146C120.866 14.1883 120.708 13.7855 120.687 13.3066H121.464C121.488 13.5759 121.555 13.7821 121.666 13.9258C121.87 14.1863 122.223 14.3174 122.726 14.3174C123.025 14.3174 123.289 14.2528 123.517 14.124C123.744 13.9923 123.857 13.79 123.857 13.5176C123.857 13.311 123.766 13.1537 123.584 13.0459C123.467 12.98 123.236 12.9033 122.892 12.8164L122.25 12.6553C121.84 12.5535 121.536 12.4393 121.342 12.3135C120.995 12.0949 120.821 11.7924 120.821 11.4062C120.821 10.9511 120.984 10.5823 121.311 10.3008C121.64 10.0193 122.082 9.87893 122.636 9.87891Z" fill="white"/>
<path fill-rule="evenodd" clip-rule="evenodd" d="M42.8018 9.89648C43.1432 9.89648 43.4745 9.97793 43.7949 10.1396C44.115 10.2983 44.3587 10.5046 44.5264 10.7588C44.6881 11.0014 44.7967 11.285 44.8506 11.6084C44.8984 11.83 44.9219 12.1832 44.9219 12.668H41.3955C41.4105 13.1561 41.5256 13.5492 41.7412 13.8457C41.9568 14.1391 42.2911 14.2851 42.7432 14.2852C43.1652 14.2852 43.5024 14.1464 43.7539 13.8682C43.8976 13.7066 43.9997 13.5191 44.0596 13.3066H44.8545C44.8335 13.4832 44.7632 13.681 44.6436 13.8994C44.5268 14.1149 44.3947 14.292 44.248 14.4297C44.0025 14.6691 43.6981 14.8302 43.3359 14.9141C43.1414 14.9619 42.9212 14.9863 42.6758 14.9863C42.077 14.9863 41.5695 14.7691 41.1533 14.335C40.737 13.8977 40.5283 13.2866 40.5283 12.502C40.5283 11.7296 40.7382 11.1022 41.1572 10.6201C41.5765 10.138 42.125 9.8965 42.8018 9.89648ZM42.752 10.6016C42.381 10.6017 42.0698 10.7367 41.8184 11.0059C41.5668 11.2724 41.4329 11.6131 41.418 12.0264H44.0908C44.0579 11.676 43.9821 11.3952 43.8623 11.1855C43.6407 10.7963 43.27 10.6016 42.752 10.6016Z" fill="white"/>
<path fill-rule="evenodd" clip-rule="evenodd" d="M51.8789 9.89648C52.2203 9.89648 52.5516 9.97793 52.8721 10.1396C53.1921 10.2983 53.4359 10.5046 53.6035 10.7588C53.7652 11.0014 53.8738 11.285 53.9277 11.6084C53.9756 11.83 53.999 12.1832 53.999 12.668H50.4727C50.4876 13.1561 50.6027 13.5492 50.8184 13.8457C51.034 14.1391 51.3683 14.2851 51.8203 14.2852C52.2424 14.2852 52.5795 14.1464 52.8311 13.8682C52.9747 13.7065 53.0768 13.5191 53.1367 13.3066H53.9316C53.9106 13.4832 53.8404 13.681 53.7207 13.8994C53.6039 14.115 53.4719 14.292 53.3252 14.4297C53.0797 14.6691 52.7753 14.8302 52.4131 14.9141C52.2185 14.9619 51.9984 14.9863 51.7529 14.9863C51.1541 14.9863 50.6467 14.7691 50.2305 14.335C49.8142 13.8977 49.6055 13.2866 49.6055 12.502C49.6055 11.7295 49.8153 11.1022 50.2344 10.6201C50.6536 10.138 51.2021 9.89649 51.8789 9.89648ZM51.8291 10.6016C51.4581 10.6017 51.1469 10.7367 50.8955 11.0059C50.6439 11.2724 50.5101 11.6131 50.4951 12.0264H53.168C53.135 11.676 53.0592 11.3952 52.9395 11.1855C52.7178 10.7963 52.3472 10.6016 51.8291 10.6016Z" fill="white"/>
<path fill-rule="evenodd" clip-rule="evenodd" d="M73.2959 9.89648C73.6373 9.89649 73.9686 9.97793 74.2891 10.1396C74.6091 10.2983 74.8529 10.5046 75.0205 10.7588C75.1822 11.0014 75.2908 11.285 75.3447 11.6084C75.3926 11.83 75.416 12.1832 75.416 12.668H71.8896C71.9046 13.1561 72.0197 13.5492 72.2354 13.8457C72.451 14.1391 72.7852 14.2851 73.2373 14.2852C73.6594 14.2852 73.9965 14.1465 74.248 13.8682C74.3917 13.7065 74.4938 13.5191 74.5537 13.3066H75.3486C75.3276 13.4832 75.2574 13.681 75.1377 13.8994C75.0209 14.115 74.8889 14.292 74.7422 14.4297C74.4967 14.6691 74.1923 14.8302 73.8301 14.9141C73.6355 14.9619 73.4154 14.9863 73.1699 14.9863C72.5711 14.9863 72.0637 14.7691 71.6475 14.335C71.2312 13.8977 71.0225 13.2866 71.0225 12.502C71.0225 11.7295 71.2323 11.1022 71.6514 10.6201C72.0706 10.138 72.6191 9.89648 73.2959 9.89648ZM73.2461 10.6016C72.8751 10.6017 72.5639 10.7367 72.3125 11.0059C72.0609 11.2724 71.9271 11.6131 71.9121 12.0264H74.585C74.552 11.676 74.4762 11.3952 74.3564 11.1855C74.1348 10.7963 73.7642 10.6016 73.2461 10.6016Z" fill="white"/>
<path fill-rule="evenodd" clip-rule="evenodd" d="M80.0127 14.8154H79.2852V14.1465C79.0965 14.4428 78.8737 14.6573 78.6162 14.7891C78.3588 14.9208 78.0637 14.9863 77.7314 14.9863C77.1955 14.9863 76.7311 14.7616 76.3389 14.3125C75.9465 13.8603 75.75 13.2594 75.75 12.5107C75.7501 11.8101 75.9279 11.2034 76.2842 10.6914C76.6436 10.1763 77.1565 9.91895 77.8213 9.91895C78.1893 9.91899 78.4977 9.9968 78.7461 10.1523C78.8898 10.2422 79.0537 10.3994 79.2363 10.624V8.19434H80.0127V14.8154ZM77.9736 10.624C77.5664 10.624 77.235 10.7804 76.9805 11.0918C76.7291 11.4032 76.6036 11.8613 76.6035 12.4658C76.6035 12.9809 76.713 13.4124 76.9316 13.7598C77.1502 14.1071 77.5004 14.2812 77.9824 14.2812C78.3566 14.2812 78.6638 14.121 78.9033 13.8008C79.1459 13.4773 79.2676 13.0141 79.2676 12.4121C79.2676 11.8042 79.1431 11.3549 78.8945 11.0645C78.646 10.771 78.339 10.624 77.9736 10.624Z" fill="white"/>
<path fill-rule="evenodd" clip-rule="evenodd" d="M56.5615 9.8877C57.1274 9.88773 57.5871 9.99535 57.9404 10.2109C58.2908 10.4266 58.4658 10.7626 58.4658 11.2178V13.9893C58.4659 14.073 58.4827 14.1405 58.5156 14.1914C58.5516 14.2421 58.6248 14.2676 58.7354 14.2676C58.7712 14.2676 58.8116 14.2657 58.8564 14.2627C58.9012 14.2567 58.9492 14.2492 59 14.2402V14.8379C58.8744 14.8738 58.7787 14.8963 58.7129 14.9053C58.647 14.9143 58.5571 14.9189 58.4434 14.9189C58.1649 14.9189 57.9627 14.8197 57.8369 14.6221C57.7711 14.5173 57.7242 14.3692 57.6973 14.1777C57.5326 14.3932 57.2965 14.5806 56.9883 14.7393C56.6798 14.898 56.3391 14.9775 55.9678 14.9775C55.5218 14.9774 55.1565 14.8426 54.8721 14.5732C54.5907 14.3008 54.4503 13.9608 54.4502 13.5537C54.4502 13.1076 54.5889 12.7612 54.8672 12.5156C55.1457 12.2701 55.5117 12.1184 55.9639 12.0615L57.2529 11.9004C57.4385 11.8765 57.563 11.7986 57.626 11.667C57.6619 11.5951 57.6797 11.4912 57.6797 11.3564C57.6797 11.081 57.5804 10.8816 57.3828 10.7588C57.1882 10.6332 56.908 10.5703 56.543 10.5703C56.1209 10.5704 55.8212 10.6846 55.6445 10.9121C55.5458 11.0379 55.4811 11.2253 55.4512 11.4736H54.6973C54.7122 10.8809 54.9034 10.4689 55.2715 10.2383C55.6428 10.0047 56.0734 9.8877 56.5615 9.8877ZM57.6572 12.3672C57.5584 12.4301 57.4311 12.4825 57.2754 12.5244C57.1197 12.5663 56.9671 12.5963 56.8174 12.6143L56.3271 12.6777C56.0339 12.7167 55.8137 12.7775 55.667 12.8613C55.4186 13.0021 55.294 13.2268 55.2939 13.5352C55.2939 13.7688 55.3801 13.9531 55.5508 14.0879C55.7214 14.2225 55.9237 14.29 56.1572 14.29C56.4415 14.29 56.717 14.2244 56.9834 14.0928C57.4326 13.8742 57.6572 13.5157 57.6572 13.0186V12.3672Z" fill="white"/>
<path fill-rule="evenodd" clip-rule="evenodd" d="M113.271 9.8877C113.837 9.88772 114.297 9.99537 114.65 10.2109C115.001 10.4266 115.176 10.7626 115.176 11.2178V13.9893C115.176 14.073 115.193 14.1405 115.226 14.1914C115.262 14.2421 115.335 14.2675 115.445 14.2676C115.481 14.2676 115.522 14.2657 115.566 14.2627C115.611 14.2567 115.66 14.2492 115.711 14.2402V14.8379C115.585 14.8738 115.489 14.8963 115.423 14.9053C115.357 14.9142 115.267 14.9189 115.153 14.9189C114.875 14.9189 114.673 14.8197 114.547 14.6221C114.481 14.5173 114.435 14.3691 114.408 14.1777C114.244 14.3933 114.007 14.5805 113.698 14.7393C113.39 14.8979 113.05 14.9775 112.679 14.9775C112.232 14.9775 111.867 14.8428 111.582 14.5732C111.301 14.3008 111.16 13.9608 111.16 13.5537C111.16 13.1075 111.3 12.7612 111.578 12.5156C111.857 12.2701 112.222 12.1184 112.674 12.0615L113.963 11.9004C114.148 11.8765 114.273 11.7985 114.336 11.667C114.372 11.5951 114.39 11.4912 114.39 11.3564C114.39 11.0811 114.291 10.8816 114.094 10.7588C113.899 10.633 113.618 10.5703 113.253 10.5703C112.831 10.5704 112.531 10.6846 112.354 10.9121C112.256 11.0379 112.192 11.2253 112.162 11.4736H111.407C111.422 10.8807 111.614 10.4689 111.982 10.2383C112.354 10.0048 112.783 9.8877 113.271 9.8877ZM114.367 12.3672C114.268 12.4301 114.141 12.4825 113.985 12.5244C113.83 12.5663 113.677 12.5963 113.527 12.6143L113.038 12.6777C112.745 12.7167 112.524 12.7775 112.377 12.8613C112.129 13.0021 112.005 13.2269 112.005 13.5352C112.005 13.7688 112.09 13.9531 112.261 14.0879C112.431 14.2226 112.634 14.29 112.867 14.29C113.152 14.29 113.427 14.2244 113.693 14.0928C114.143 13.8742 114.367 13.5157 114.367 13.0186V12.3672Z" fill="white"/>
<path fill-rule="evenodd" clip-rule="evenodd" d="M83.8525 8.19434V10.5889C84.0292 10.3583 84.2399 10.1823 84.4854 10.0625C84.7309 9.93974 84.9977 9.87893 85.2852 9.87891C85.8841 9.87891 86.3699 10.0857 86.7412 10.499C87.1153 10.9093 87.3027 11.516 87.3027 12.3184C87.3027 13.0788 87.1183 13.7108 86.75 14.2139C86.3816 14.717 85.8706 14.9688 85.2178 14.9688C84.8526 14.9687 84.5445 14.8797 84.293 14.7031C84.1432 14.5983 83.9822 14.4308 83.8115 14.2002V14.8154H83.0664V8.19434H83.8525ZM85.1914 10.6016C84.823 10.6016 84.4992 10.7382 84.2207 11.0107C83.9452 11.2833 83.8076 11.7325 83.8076 12.3584C83.8076 12.8106 83.8647 13.1775 83.9785 13.459C84.1912 13.9889 84.588 14.2539 85.1689 14.2539C85.6058 14.2538 85.9319 14.0804 86.1475 13.7334C86.3661 13.386 86.4756 12.9274 86.4756 12.3584C86.4756 11.8523 86.3661 11.433 86.1475 11.1006C85.9319 10.7684 85.6134 10.6017 85.1914 10.6016Z" fill="white"/>
<path d="M64.0703 9.86523C64.6124 9.86523 65.0532 9.9972 65.3916 10.2607C65.7328 10.5243 65.938 10.9784 66.0068 11.6221H65.2207C65.1728 11.3256 65.0633 11.0794 64.8926 10.8848C64.7219 10.6872 64.4476 10.5889 64.0703 10.5889C63.5555 10.5889 63.1874 10.84 62.9658 11.3428C62.8221 11.6692 62.75 12.0726 62.75 12.5518C62.75 13.0338 62.8521 13.4392 63.0557 13.7686C63.2593 14.098 63.5794 14.2627 64.0166 14.2627C64.3518 14.2627 64.6169 14.1614 64.8115 13.958C65.0091 13.7514 65.1458 13.4696 65.2207 13.1133H66.0068C65.917 13.751 65.6923 14.2182 65.333 14.5146C64.9737 14.8081 64.514 14.955 63.9541 14.9551C63.3253 14.9551 62.8235 14.7256 62.4492 14.2676C62.0749 13.8065 61.8878 13.2316 61.8877 12.543C61.8877 11.6984 62.0926 11.0405 62.5029 10.5703C62.9131 10.1003 63.4356 9.86529 64.0703 9.86523Z" fill="white"/>
<path d="M100.053 13.1982C100.053 13.4438 100.091 13.6451 100.169 13.8008C100.313 14.0881 100.581 14.2314 100.974 14.2314C101.536 14.2314 101.919 13.9796 102.123 13.4766C102.234 13.207 102.289 12.8373 102.289 12.3672V10.0049H103.098V14.8154H102.334L102.344 14.1055C102.239 14.2882 102.108 14.4426 101.952 14.5684C101.644 14.8198 101.269 14.9463 100.829 14.9463C100.144 14.9462 99.6763 14.7168 99.4277 14.2588C99.293 14.0132 99.2256 13.6847 99.2256 13.2744V10.0049H100.053V13.1982Z" fill="white"/>
<path d="M40.2354 9.90137C40.2713 9.90436 40.3331 9.90996 40.4199 9.91895V10.7725C40.3722 10.7635 40.327 10.7579 40.2852 10.7549C40.2462 10.7519 40.2022 10.75 40.1543 10.75C39.7471 10.75 39.4344 10.8821 39.2158 11.1455C38.9972 11.4061 38.8877 11.7074 38.8877 12.0488V14.8154H38.0791V10.0049H38.8477V10.8359C38.9105 10.6743 39.0641 10.4776 39.3096 10.2471C39.5551 10.0135 39.8387 9.89648 40.1592 9.89648C40.1742 9.8965 40.1996 9.89839 40.2354 9.90137Z" fill="white"/>
<path d="M61.5762 9.89648C61.5912 9.8965 61.6166 9.89839 61.6523 9.90137C61.6883 9.90436 61.7501 9.90997 61.8369 9.91895V10.7725C61.7892 10.7635 61.7439 10.7579 61.7021 10.7549C61.6632 10.7519 61.6192 10.75 61.5713 10.75C61.1641 10.75 60.8514 10.8821 60.6328 11.1455C60.4142 11.4061 60.3047 11.7074 60.3047 12.0488V14.8154H59.4961V10.0049H60.2646V10.8359C60.3275 10.6743 60.4811 10.4776 60.7266 10.2471C60.9721 10.0135 61.2557 9.89648 61.5762 9.89648Z" fill="white"/>
<path d="M67.3018 10.6562C67.4934 10.4137 67.6656 10.2424 67.8184 10.1436C68.0788 9.9729 68.4038 9.88774 68.793 9.8877C69.4908 9.8877 69.9643 10.132 70.2129 10.6201C70.3476 10.8866 70.415 11.2565 70.415 11.7295V14.8154H69.584V11.7832C69.584 11.4299 69.539 11.1706 69.4492 11.0059C69.3025 10.7426 69.027 10.6114 68.623 10.6113C68.2876 10.6113 67.9835 10.7265 67.7109 10.957C67.4385 11.1876 67.3018 11.623 67.3018 12.2637V14.8154H66.4932V8.19434H67.3018V10.6562Z" fill="white"/>
<path d="M95.2529 8.19434V10.6562C95.4445 10.4138 95.6169 10.2424 95.7695 10.1436C96.0301 9.97285 96.3558 9.8877 96.7451 9.8877C97.4427 9.88778 97.9155 10.1321 98.1641 10.6201C98.2988 10.8866 98.3662 11.2564 98.3662 11.7295V14.8154H97.5352V11.7832C97.5351 11.4299 97.4902 11.1706 97.4004 11.0059C97.2536 10.7426 96.9782 10.6114 96.5742 10.6113C96.2388 10.6113 95.9346 10.7264 95.6621 10.957C95.3897 11.1876 95.253 11.6231 95.2529 12.2637V14.8154H94.4443V8.19434H95.2529Z" fill="white"/>
<path d="M109.007 9.89648C109.654 9.8965 110.094 10.1305 110.327 10.5977C110.453 10.8491 110.517 11.1872 110.517 11.6123V14.8154H109.676V11.4736C109.676 11.1533 109.595 10.9333 109.434 10.8135C109.275 10.6937 109.08 10.6338 108.85 10.6338C108.532 10.6338 108.258 10.7395 108.027 10.9521C107.8 11.1647 107.687 11.5196 107.687 12.0166V14.8154H106.864V11.6758C106.864 11.3493 106.825 11.1107 106.747 10.9609C106.624 10.7365 106.395 10.624 106.06 10.624C105.754 10.6241 105.476 10.743 105.225 10.9795C104.976 11.216 104.852 11.6439 104.852 12.2637V14.8154H104.043V10.0049H104.843V10.6875C105.034 10.4511 105.208 10.2787 105.363 10.1709C105.63 9.98822 105.933 9.89648 106.271 9.89648C106.655 9.89656 106.963 9.99112 107.196 10.1797C107.328 10.2875 107.448 10.4466 107.556 10.6562C107.735 10.3987 107.947 10.2077 108.189 10.085C108.432 9.95929 108.704 9.89648 109.007 9.89648Z" fill="white"/>
<path d="M118.524 9.89648C119.207 9.89656 119.668 10.1352 119.907 10.6113C120.039 10.8719 120.105 11.2444 120.105 11.7295V14.8154H119.283V11.7832C119.283 11.4898 119.24 11.2529 119.153 11.0732C119.01 10.7739 118.748 10.624 118.371 10.624C118.18 10.624 118.022 10.6437 117.899 10.6826C117.678 10.7485 117.483 10.8805 117.315 11.0781C117.181 11.2368 117.093 11.4016 117.051 11.5723C117.012 11.74 116.992 11.9815 116.992 12.2959V14.8154H116.184V10.0049H116.952V10.6875C117.18 10.4061 117.42 10.2039 117.675 10.0811C117.929 9.95827 118.213 9.89648 118.524 9.89648Z" fill="white"/>
</svg>
