<svg width="131" height="42" viewBox="0 0 131 42" fill="none" xmlns="http://www.w3.org/2000/svg">
<path d="M116 0.5C124.008 0.5 130.5 6.99187 130.5 15V41.5H15C6.99187 41.5 0.5 35.0081 0.5 27V0.5H116Z" fill="black" stroke="#ACACAC"/>
<path d="M27.8497 24.1575C24.3836 26.9643 19.4266 26.9643 15.9605 24.1575L17.3007 22.5026C19.9854 24.6766 23.8248 24.6766 26.5095 22.5026L27.8497 24.1575Z" fill="white"/>
<path d="M17.404 17.6365V20.5134H19.5336V17.6365H17.404Z" fill="white"/>
<path d="M24.012 17.6365V20.5134H26.1415V17.6365H24.012Z" fill="white"/>
<path fill-rule="evenodd" clip-rule="evenodd" d="M21.5 33C27.8513 33 33 27.8513 33 21.5C33 15.1487 27.8513 10 21.5 10C15.1487 10 10 15.1487 10 21.5C10 27.8513 15.1487 33 21.5 33ZM21.5 30.8705C26.6752 30.8705 30.8705 26.6752 30.8705 21.5C30.8705 16.3248 26.6752 12.1295 21.5 12.1295C16.3248 12.1295 12.1295 16.3248 12.1295 21.5C12.1295 26.6752 16.3248 30.8705 21.5 30.8705Z" fill="white"/>
<path fill-rule="evenodd" clip-rule="evenodd" d="M89.1305 32.15L93.7615 19.2822H96.8254L101.421 32.15H98.4806L97.6442 29.5049H92.8635L91.9655 32.15H89.1305ZM95.2671 22.2242L93.5943 27.2875H96.887L95.2671 22.2242Z" fill="white"/>
<path fill-rule="evenodd" clip-rule="evenodd" d="M76.3315 23.7781C75.6213 22.876 74.6352 22.425 73.3733 22.425C72.6748 22.425 72.0996 22.5705 71.6476 22.8615C71.2661 23.0943 70.9169 23.4318 70.5999 23.8741V19.2997H68.0995V32.15H70.5559V30.954C70.8905 31.4196 71.2016 31.7455 71.4892 31.9318C71.9705 32.2461 72.6073 32.4032 73.3997 32.4032C74.6616 32.4032 75.6447 31.9172 76.3491 30.9453C77.0534 29.9734 77.4056 28.7483 77.4056 27.27C77.4056 25.8442 77.0475 24.6802 76.3315 23.7781ZM74.2361 29.5747C73.878 30.0927 73.3762 30.3517 72.7306 30.3517C71.9851 30.3517 71.4305 30.084 71.0666 29.5485C70.7027 29.0131 70.5207 28.338 70.5207 27.5232C70.5207 26.8306 70.6087 26.2661 70.7848 25.8296C71.1253 25.009 71.7504 24.5987 72.6601 24.5987C73.5581 24.5987 74.1744 25.0177 74.509 25.8558C74.6851 26.2981 74.7731 26.8568 74.7731 27.5319C74.7731 28.3758 74.5941 29.0567 74.2361 29.5747Z" fill="white"/>
<path d="M62.2729 30.2556C62.1731 30.1567 62.1232 29.9123 62.1232 29.5223V24.4939H63.6816V22.7218H62.1232V20.0679H59.6404V22.7218H58.3022V24.4939H59.6404V30.3517C59.6404 30.9453 59.7813 31.3847 60.063 31.6699C60.4974 32.118 61.3074 32.3217 62.493 32.281L63.6816 32.2373V30.3779C63.5994 30.3837 63.5143 30.3895 63.4262 30.3953H63.1885C62.6779 30.3953 62.3727 30.3488 62.2729 30.2556Z" fill="white"/>
<path fill-rule="evenodd" clip-rule="evenodd" d="M56.9897 30.9977C57.7996 30.0025 58.2046 28.8065 58.2046 27.4097C58.2046 26.0362 57.7996 24.8461 56.9897 23.8392C56.1797 22.8324 54.95 22.3289 53.3007 22.3289C51.6514 22.3289 50.4217 22.8324 49.6117 23.8392C48.8018 24.8461 48.3968 26.0362 48.3968 27.4097C48.3968 28.8065 48.8018 30.0025 49.6117 30.9977C50.4217 31.9871 51.6514 32.4818 53.3007 32.4818C54.95 32.4818 56.1797 31.9871 56.9897 30.9977ZM54.9823 29.6184C54.589 30.1363 54.0256 30.3953 53.2919 30.3953C52.5582 30.3953 51.9918 30.1363 51.5927 29.6184C51.1994 29.1004 51.0028 28.3642 51.0028 27.4097C51.0028 26.4553 51.1994 25.7219 51.5927 25.2098C51.9918 24.6918 52.5582 24.4328 53.2919 24.4328C54.0256 24.4328 54.589 24.6918 54.9823 25.2098C55.3756 25.7219 55.5722 26.4553 55.5722 27.4097C55.5722 28.3642 55.3756 29.1004 54.9823 29.6184Z" fill="white"/>
<path d="M44.0028 22.4075C44.9947 22.4075 45.8047 22.6665 46.4327 23.1845C47.0666 23.6966 47.3836 24.5492 47.3836 25.7423V32.15H44.8127V26.3621C44.8127 25.8616 44.7453 25.4775 44.6103 25.2098C44.3637 24.7209 43.8942 24.4765 43.2016 24.4765C42.3505 24.4765 41.7665 24.8344 41.4495 25.5503C41.2852 25.9286 41.203 26.4116 41.203 26.9994V32.15H38.7026V22.6519H41.1238V24.04C41.4466 23.5511 41.7518 23.199 42.0394 22.9837C42.5559 22.5996 43.2104 22.4075 44.0028 22.4075Z" fill="white"/>
<path d="M78.8766 33.9746L79.1935 33.992C79.4401 34.0037 79.6748 33.9949 79.8979 33.9658C80.1209 33.9367 80.3087 33.8698 80.4613 33.765C80.6081 33.6661 80.7431 33.4595 80.8663 33.1452C80.9955 32.831 81.0483 32.6389 81.0248 32.5691L77.5031 22.6345H80.2941L82.3895 29.6533L84.3704 22.6345H87.0381L83.7453 31.9929C83.1114 33.7971 82.6096 34.9145 82.2398 35.3451C81.87 35.7816 81.1305 35.9999 80.0211 35.9999C79.7981 35.9999 79.6191 35.997 79.4841 35.9912C79.3491 35.9912 79.1466 35.9824 78.8766 35.965V33.9746Z" fill="white"/>
<path d="M103.733 29.9642V21.471H102.134V19.2822H107.839V21.471H106.427V29.9642H107.839V32.153H102.134V29.9642H103.733Z" fill="white"/>
<path d="M80.6357 13.8379L82.0566 9.55176H83.0342C82.9096 9.88935 82.6332 10.6593 82.2041 11.8613C81.883 12.7656 81.6137 13.5031 81.3975 14.0732C80.8863 15.4167 80.5261 16.2363 80.3164 16.5312C80.1067 16.826 79.7463 16.9736 79.2354 16.9736C79.111 16.9736 79.0141 16.9688 78.9453 16.959C78.8798 16.9492 78.7975 16.9305 78.6992 16.9043V16.0986C78.8529 16.1411 78.9644 16.1669 79.0332 16.1768C79.102 16.1866 79.1634 16.1914 79.2158 16.1914C79.3794 16.1914 79.4989 16.164 79.5742 16.1084C79.6527 16.0561 79.7181 15.9906 79.7705 15.9121C79.7869 15.8859 79.8467 15.7513 79.9482 15.5088C80.0498 15.2663 80.1231 15.0857 80.1689 14.9678L78.2227 9.55176H79.2256L80.6357 13.8379Z" fill="white"/>
<path fill-rule="evenodd" clip-rule="evenodd" d="M54.9873 9.42383C55.5836 9.42386 56.0897 9.6536 56.5059 10.1123C56.9219 10.5678 57.1299 11.2198 57.1299 12.0684C57.1298 13.2151 56.8301 14.0339 56.2305 14.5254C55.8504 14.8367 55.4079 14.9922 54.9033 14.9922C54.5072 14.9921 54.1748 14.9059 53.9062 14.7324C53.749 14.6341 53.5732 14.4648 53.3799 14.2256V16.9141H52.4951V9.57617H53.3555V10.2744C53.5324 10.0352 53.7258 9.84982 53.9355 9.71875C54.2337 9.5222 54.5843 9.42383 54.9873 9.42383ZM54.7861 10.2002C54.1735 10.2002 53.7535 10.5066 53.5273 11.1191C53.4061 11.4468 53.3457 11.8635 53.3457 12.3682C53.3457 12.7744 53.4061 13.1203 53.5273 13.4053C53.7567 13.9491 54.1767 14.2207 54.7861 14.2207C55.1986 14.2206 55.5407 14.0488 55.8125 13.7051C56.0877 13.3577 56.2256 12.8395 56.2256 12.1514C56.2256 11.7321 56.1652 11.3717 56.0439 11.0703C55.8146 10.4905 55.3953 10.2003 54.7861 10.2002Z" fill="white"/>
<path d="M39.9209 9.41406C40.7139 9.41406 41.2861 9.64701 41.6367 10.1123C41.8561 10.4071 41.9626 10.7248 41.9561 11.0654H41.1201C41.1037 10.8656 41.0337 10.6834 40.9092 10.5195C40.706 10.287 40.3537 10.1709 39.8525 10.1709C39.5185 10.1709 39.2645 10.2346 39.0908 10.3623C38.9204 10.4901 38.835 10.6594 38.835 10.8691C38.8351 11.0982 38.9481 11.2814 39.1738 11.4189C39.3049 11.5008 39.4984 11.5735 39.7539 11.6357L40.3389 11.7783C40.9746 11.9323 41.4009 12.0814 41.6172 12.2256C41.9611 12.4517 42.1328 12.8072 42.1328 13.292C42.1328 13.7604 41.9546 14.1651 41.5977 14.5059C41.2438 14.8466 40.7029 15.0175 39.9756 15.0176C39.1926 15.0176 38.6373 14.8401 38.3096 14.4863C37.9852 14.1292 37.811 13.6883 37.7881 13.1641H38.6387C38.6649 13.459 38.7381 13.6855 38.8594 13.8428C39.0822 14.1278 39.4691 14.2705 40.0195 14.2705C40.3472 14.2705 40.6357 14.1995 40.8848 14.0586C41.1336 13.9145 41.2577 13.6935 41.2578 13.3955C41.2578 13.1694 41.1579 12.9969 40.958 12.8789C40.8301 12.8069 40.5777 12.7239 40.2012 12.6289L39.499 12.4512C39.0503 12.3398 38.7189 12.2157 38.5059 12.0781C38.1258 11.8389 37.9355 11.5077 37.9355 11.085C37.9356 10.587 38.1145 10.184 38.4717 9.87598C38.832 9.56815 39.315 9.41412 39.9209 9.41406Z" fill="white"/>
<path fill-rule="evenodd" clip-rule="evenodd" d="M62.5566 9.43359C62.9302 9.43359 63.2929 9.52228 63.6436 9.69922C63.9939 9.87281 64.2609 10.0986 64.4443 10.377C64.6213 10.6424 64.7389 10.9528 64.7979 11.3066C64.8502 11.5491 64.8769 11.9354 64.877 12.4658H61.0186C61.0349 12.9999 61.1615 13.4295 61.3975 13.7539C61.6334 14.0749 61.9985 14.2354 62.4932 14.2354C62.9551 14.2353 63.3234 14.083 63.5986 13.7783C63.7559 13.6014 63.8681 13.3967 63.9336 13.1641H64.8027C64.7798 13.3573 64.7032 13.5735 64.5723 13.8125C64.4445 14.0483 64.3001 14.2419 64.1396 14.3926C63.871 14.6547 63.5381 14.8321 63.1416 14.9238C62.9287 14.9762 62.6875 15.002 62.4189 15.002C61.7638 15.0018 61.2083 14.765 60.7529 14.29C60.2975 13.8116 60.0703 13.1427 60.0703 12.2842C60.0703 11.4389 60.2991 10.7521 60.7578 10.2246C61.2165 9.69718 61.8163 9.43368 62.5566 9.43359ZM62.5029 10.2051C62.0966 10.2051 61.7557 10.3526 61.4805 10.6475C61.2052 10.9391 61.0594 11.3115 61.043 11.7637H63.9678C63.9317 11.3805 63.8478 11.0741 63.7168 10.8447C63.4743 10.4188 63.0698 10.2051 62.5029 10.2051Z" fill="white"/>
<path fill-rule="evenodd" clip-rule="evenodd" d="M69.957 7.57031V14.8154H69.1611V14.083C68.9548 14.4073 68.7104 14.6419 68.4287 14.7861C68.1469 14.9303 67.8237 15.002 67.46 15.002C66.8736 15.0019 66.3657 14.7569 65.9365 14.2656C65.5073 13.7708 65.293 13.1131 65.293 12.2939C65.293 11.5274 65.4872 10.8639 65.877 10.3037C66.2702 9.74011 66.8312 9.45801 67.5586 9.45801C67.9615 9.45804 68.2994 9.54351 68.5713 9.71387C68.7284 9.81216 68.9068 9.98407 69.1064 10.2295V7.57031H69.957ZM67.7256 10.2295C67.28 10.2295 66.9182 10.4005 66.6396 10.7412C66.3644 11.082 66.2266 11.5832 66.2266 12.2451C66.2266 12.8085 66.3459 13.2801 66.585 13.6602C66.8242 14.0403 67.2078 14.2305 67.7354 14.2305C68.1449 14.2305 68.481 14.0557 68.7432 13.7051C69.0085 13.3513 69.1406 12.8449 69.1406 12.1865C69.1406 11.5216 69.0052 11.0298 68.7334 10.7119C68.4614 10.3908 68.1253 10.2295 67.7256 10.2295Z" fill="white"/>
<path fill-rule="evenodd" clip-rule="evenodd" d="M88.0635 9.42383C88.6826 9.42387 89.1857 9.54147 89.5723 9.77734C89.9556 10.0133 90.1475 10.3808 90.1475 10.8789V13.9111C90.1475 14.0029 90.1651 14.0771 90.2012 14.1328C90.2405 14.1884 90.3213 14.2158 90.4424 14.2158C90.4816 14.2158 90.5262 14.2142 90.5752 14.2109C90.6242 14.2044 90.6769 14.1963 90.7324 14.1865V14.8398C90.5951 14.8791 90.49 14.9042 90.418 14.9141C90.346 14.9239 90.2473 14.9287 90.123 14.9287C89.8184 14.9287 89.5966 14.8207 89.459 14.6045C89.3869 14.4899 89.3361 14.3277 89.3066 14.1182C89.1264 14.354 88.8676 14.5588 88.5303 14.7324C88.1928 14.9061 87.8204 14.9922 87.4141 14.9922C86.926 14.9921 86.5261 14.8446 86.2148 14.5498C85.9071 14.2517 85.7529 13.88 85.7529 13.4346C85.7529 12.9463 85.9052 12.5675 86.21 12.2988C86.5146 12.0302 86.9145 11.865 87.4092 11.8027L88.8203 11.626C89.0234 11.5997 89.1597 11.5142 89.2285 11.3701C89.2677 11.2915 89.2871 11.1785 89.2871 11.0312C89.2871 10.7298 89.1791 10.5113 88.9629 10.377C88.75 10.2394 88.4435 10.1709 88.0439 10.1709C87.5821 10.1709 87.2539 10.2951 87.0605 10.5439C86.9524 10.6816 86.8824 10.8872 86.8496 11.1592H86.0234C86.0398 10.5106 86.2495 10.06 86.6523 9.80762C87.0587 9.55203 87.5294 9.42383 88.0635 9.42383ZM89.2627 12.1367C89.1546 12.2055 89.015 12.2627 88.8447 12.3086C88.6745 12.3544 88.5075 12.3876 88.3438 12.4072L87.8076 12.4756C87.4865 12.5182 87.2455 12.586 87.085 12.6777C86.8131 12.8317 86.6768 13.0776 86.6768 13.415C86.6768 13.6705 86.7704 13.8721 86.957 14.0195C87.1438 14.167 87.3655 14.2402 87.6211 14.2402C87.9323 14.2402 88.2339 14.1685 88.5254 14.0244C89.0168 13.7852 89.2627 13.3935 89.2627 12.8496V12.1367Z" fill="white"/>
<path fill-rule="evenodd" clip-rule="evenodd" d="M114.55 9.42383C115.169 9.42385 115.672 9.54149 116.059 9.77734C116.442 10.0133 116.634 10.3808 116.634 10.8789V13.9111C116.634 14.0029 116.651 14.0771 116.688 14.1328C116.727 14.1884 116.808 14.2158 116.929 14.2158C116.968 14.2158 117.012 14.2142 117.062 14.2109C117.111 14.2044 117.163 14.1963 117.219 14.1865V14.8398C117.081 14.8791 116.976 14.9042 116.904 14.9141C116.832 14.9239 116.734 14.9287 116.609 14.9287C116.305 14.9287 116.083 14.8207 115.945 14.6045C115.873 14.4899 115.822 14.3277 115.793 14.1182C115.613 14.3539 115.354 14.5588 115.017 14.7324C114.679 14.9061 114.307 14.9922 113.9 14.9922C113.412 14.9921 113.012 14.8446 112.701 14.5498C112.393 14.2517 112.239 13.88 112.239 13.4346C112.239 12.9464 112.392 12.5675 112.696 12.2988C113.001 12.0302 113.401 11.865 113.896 11.8027L115.307 11.626C115.51 11.5998 115.646 11.5143 115.715 11.3701C115.754 11.2915 115.773 11.1785 115.773 11.0312C115.773 10.7298 115.665 10.5113 115.449 10.377C115.236 10.2394 114.93 10.1709 114.53 10.1709C114.068 10.1709 113.74 10.2951 113.547 10.5439C113.439 10.6816 113.369 10.8872 113.336 11.1592H112.51C112.526 10.5106 112.736 10.06 113.139 9.80762C113.545 9.55203 114.016 9.42383 114.55 9.42383ZM115.749 12.1367C115.641 12.2055 115.501 12.2627 115.331 12.3086C115.161 12.3544 114.994 12.3876 114.83 12.4072L114.294 12.4756C113.973 12.5182 113.732 12.586 113.571 12.6777C113.299 12.8317 113.163 13.0776 113.163 13.415C113.163 13.6705 113.257 13.8721 113.443 14.0195C113.63 14.167 113.852 14.2402 114.107 14.2402C114.419 14.2402 114.72 14.1686 115.012 14.0244C115.503 13.7852 115.749 13.3935 115.749 12.8496V12.1367Z" fill="white"/>
<path fill-rule="evenodd" clip-rule="evenodd" d="M74.2578 7.57031V10.1904C74.4511 9.93812 74.6825 9.7463 74.9512 9.61523C75.2199 9.48089 75.5116 9.41406 75.8262 9.41406C76.4815 9.41406 77.0126 9.63968 77.4189 10.0918C77.8285 10.5407 78.0332 11.2048 78.0332 12.083C78.0332 12.9152 77.8317 13.6068 77.4287 14.1572C77.0257 14.7077 76.4663 14.9824 75.752 14.9824C75.3524 14.9823 75.0154 14.8856 74.7402 14.6924C74.5764 14.5777 74.4006 14.3948 74.2139 14.1426V14.8154H73.3984V7.57031H74.2578ZM75.7227 10.2051C75.3198 10.2052 74.9658 10.3543 74.6611 10.6523C74.3597 10.9505 74.209 11.4422 74.209 12.127C74.209 12.6216 74.2711 13.0231 74.3955 13.3311C74.6281 13.911 75.0626 14.2011 75.6982 14.2012C76.1766 14.2012 76.5336 14.011 76.7695 13.6309C77.0087 13.2508 77.1289 12.7495 77.1289 12.127C77.1289 11.5732 77.0087 11.1147 76.7695 10.751C76.5336 10.3873 76.1846 10.2051 75.7227 10.2051Z" fill="white"/>
<path d="M44.873 9.39941C45.4661 9.39941 45.9481 9.54368 46.3184 9.83203C46.6919 10.1204 46.9168 10.6168 46.9922 11.3213H46.1318C46.0794 10.9969 45.9592 10.7276 45.7725 10.5146C45.5857 10.2987 45.2857 10.1904 44.873 10.1904C44.3097 10.1906 43.9065 10.4663 43.6641 11.0166C43.5069 11.3737 43.4287 11.8148 43.4287 12.3389C43.4288 12.8662 43.5399 13.3106 43.7627 13.6709C43.9855 14.0311 44.3362 14.2109 44.8145 14.2109C45.1814 14.2109 45.4716 14.0998 45.6846 13.877C45.9008 13.6509 46.0499 13.3429 46.1318 12.9531H46.9922C46.8939 13.6508 46.648 14.162 46.2549 14.4863C45.8618 14.8074 45.3587 14.9677 44.7461 14.9678C44.058 14.9678 43.5092 14.7171 43.0996 14.2158C42.69 13.7112 42.4844 13.0818 42.4844 12.3281C42.4845 11.4043 42.7094 10.6853 43.1582 10.1709C43.607 9.65658 44.1786 9.39952 44.873 9.39941Z" fill="white"/>
<path d="M99.9854 13.0459C99.9854 13.3146 100.028 13.5347 100.113 13.7051C100.271 14.0195 100.564 14.1767 100.993 14.1768C101.609 14.1768 102.029 13.9011 102.252 13.3506C102.373 13.0557 102.434 12.6509 102.434 12.1367V9.55176H103.318V14.8154H102.482L102.492 14.0391C102.378 14.2389 102.235 14.4073 102.064 14.5449C101.727 14.8202 101.318 14.958 100.836 14.958C100.086 14.958 99.5747 14.7074 99.3027 14.2061C99.1553 13.9374 99.0811 13.5787 99.0811 13.1299V9.55176H99.9854V13.0459Z" fill="white"/>
<path d="M58.9365 8.08203V9.55176H59.7773V10.2744H58.9365V13.71C58.9366 13.8931 58.9989 14.0158 59.123 14.0781C59.1919 14.1142 59.3072 14.1328 59.4678 14.1328H59.6055C59.6546 14.1295 59.7119 14.1247 59.7773 14.1182V14.8154C59.6758 14.8449 59.5693 14.8668 59.458 14.8799C59.3499 14.893 59.2313 14.8994 59.1035 14.8994C58.6911 14.8994 58.4112 14.7944 58.2637 14.585C58.1162 14.372 58.042 14.0963 58.042 13.7588V10.2744H57.3291V9.55176H58.042V8.08203H58.9365Z" fill="white"/>
<path d="M49.958 9.43848C49.9973 9.44175 50.0651 9.44818 50.1602 9.45801V10.3916C50.1078 10.3818 50.0585 10.3754 50.0127 10.3721C49.9701 10.3688 49.9225 10.3672 49.8701 10.3672C49.4246 10.3672 49.082 10.5116 48.8428 10.7998C48.6036 11.0849 48.4844 11.4145 48.4844 11.7881V14.8154H47.5996V9.55176H48.4395V10.4609C48.5083 10.284 48.6776 10.0697 48.9463 9.81738C49.215 9.5618 49.5244 9.43359 49.875 9.43359C49.8913 9.4336 49.919 9.43523 49.958 9.43848Z" fill="white"/>
<path d="M51.5244 14.8154H50.625V9.57617H51.5244V14.8154Z" fill="white"/>
<path d="M94.6846 7.57031V10.2646C94.8943 9.99923 95.0829 9.81223 95.25 9.7041C95.535 9.51741 95.8905 9.42383 96.3164 9.42383C97.0796 9.42388 97.5971 9.69079 97.8691 10.2246C98.0166 10.5162 98.0908 10.9217 98.0908 11.4395V14.8154H97.1816V11.498C97.1816 11.1114 97.1325 10.8277 97.0342 10.6475C96.8737 10.3592 96.572 10.2149 96.1299 10.2148C95.7629 10.2148 95.43 10.3415 95.1318 10.5938C94.8337 10.846 94.6846 11.3225 94.6846 12.0234V14.8154H93.7998V7.57031H94.6846Z" fill="white"/>
<path d="M109.833 9.43359C110.541 9.43359 111.023 9.68912 111.278 10.2002C111.416 10.4754 111.484 10.8462 111.484 11.3115V14.8154H110.565V11.1592C110.565 10.8086 110.477 10.5676 110.3 10.4365C110.126 10.3055 109.913 10.2393 109.661 10.2393C109.314 10.2393 109.014 10.3562 108.762 10.5889C108.513 10.8215 108.389 11.2101 108.389 11.7539V14.8154H107.489V11.3799C107.489 11.023 107.446 10.7625 107.361 10.5986C107.227 10.353 106.976 10.2296 106.609 10.2295C106.275 10.2295 105.97 10.3593 105.694 10.6182C105.423 10.877 105.287 11.3456 105.287 12.0234V14.8154H104.402V9.55176H105.277V10.2988C105.487 10.0402 105.676 9.85136 105.847 9.7334C106.138 9.53355 106.47 9.43362 106.84 9.43359C107.259 9.43359 107.597 9.53675 107.853 9.74316C107.997 9.86113 108.128 10.0353 108.246 10.2646C108.443 9.98287 108.673 9.77399 108.938 9.63965C109.204 9.50206 109.502 9.43363 109.833 9.43359Z" fill="white"/>
<path d="M120.348 9.43359C121.094 9.43369 121.599 9.69402 121.861 10.2148C122.006 10.4999 122.077 10.9086 122.077 11.4395V14.8154H121.178V11.498C121.178 11.177 121.13 10.9183 121.035 10.7217C120.878 10.394 120.593 10.2295 120.18 10.2295C119.97 10.2295 119.798 10.2514 119.664 10.2939C119.422 10.366 119.209 10.5103 119.025 10.7266C118.878 10.9001 118.781 11.08 118.735 11.2666C118.693 11.4501 118.671 11.7145 118.671 12.0586V14.8154H117.786V9.55176H118.627V10.2988C118.876 9.99086 119.139 9.76912 119.418 9.63477C119.696 9.50042 120.007 9.43359 120.348 9.43359Z" fill="white"/>
<path d="M51.5244 8.59766H50.625V7.5957H51.5244V8.59766Z" fill="white"/>
</svg>
