<svg width="131" height="42" viewBox="0 0 131 42" fill="none" xmlns="http://www.w3.org/2000/svg">
<path d="M0.5 0.5H116C124.008 0.5 130.5 6.99187 130.5 15V41.5H15C6.99187 41.5 0.5 35.0081 0.5 27V0.5Z" fill="white" stroke="black"/>
<path d="M17.9605 24.1575C21.4266 26.9643 26.3836 26.9643 29.8497 24.1575L28.5095 22.5026C25.8248 24.6766 21.9854 24.6766 19.3007 22.5026L17.9605 24.1575Z" fill="black"/>
<path d="M19.404 20.5134V17.6365H21.5336V20.5134H19.404Z" fill="black"/>
<path d="M26.012 17.6365V20.5134H28.1415V17.6365H26.012Z" fill="black"/>
<path fill-rule="evenodd" clip-rule="evenodd" d="M35 21.5C35 27.8513 29.8513 33 23.5 33C17.1487 33 12 27.8513 12 21.5C12 15.1487 17.1487 10 23.5 10C29.8513 10 35 15.1487 35 21.5ZM32.8705 21.5C32.8705 26.6752 28.6752 30.8705 23.5 30.8705C18.3248 30.8705 14.1295 26.6752 14.1295 21.5C14.1295 16.3248 18.3248 12.1295 23.5 12.1295C28.6752 12.1295 32.8705 16.3248 32.8705 21.5Z" fill="black"/>
<path fill-rule="evenodd" clip-rule="evenodd" d="M65.7441 15.7668C66.207 14.7999 66.4072 13.5168 66.4883 12.3425V15.8835H67.0515V13.9299H67.9667V15.5627H68.4594V13.9299H69.3344V15.5433H69.8271V13.9299H70.6518V15.31C70.6518 15.3781 70.6417 15.4072 70.5613 15.4072H70.0484C70.1288 15.5433 70.1992 15.7668 70.2194 15.9029C70.5814 15.9029 70.8328 15.9029 71.0038 15.8154C71.1747 15.7279 71.215 15.5724 71.215 15.31V11.3154H66.5332C66.5371 11.1292 66.5386 10.9503 66.5386 10.7808V10.4212H70.8932V8.09828H68.9885C68.8838 7.76627 68.6857 7.32911 68.4795 7L67.846 7.15551C68.0029 7.43717 68.1654 7.79396 68.2674 8.09828H65.8749V10.7905C65.8749 12.1415 65.8246 14.0465 65.1709 15.4169C65.3318 15.4752 65.6234 15.6599 65.7441 15.7668ZM67.9667 11.8597H67.0515V13.337H67.9667V11.8597ZM66.5386 8.68144H70.2495V9.83804H66.5386V8.68144ZM70.6518 11.8597H69.8271V13.337H70.6518V11.8597ZM69.3344 13.337H68.4594V11.8597H69.3344V13.337Z" fill="black"/>
<path d="M64.9698 10.7517L64.4066 10.8877C64.5133 11.1886 64.6181 11.5312 64.7078 11.8661L63.2711 12.0447C64.0522 11.1331 64.8064 9.97933 65.4223 8.84667L64.7887 8.50649C64.5806 8.95161 64.3297 9.40567 64.0768 9.82542L63.0716 9.91063C63.5898 9.16764 64.0974 8.21362 64.4971 7.3013L63.8233 7.03888C63.4612 8.09828 62.8176 9.21601 62.6165 9.49787C62.4355 9.79916 62.2645 10.0033 62.1036 10.0421C62.184 10.2171 62.2947 10.5378 62.3349 10.6836C62.4701 10.6183 62.6835 10.5735 63.6793 10.4571C63.3339 10.9836 63.0279 11.3951 62.878 11.5681C62.5863 11.9277 62.3751 12.1804 62.1639 12.2193C62.2444 12.4039 62.3651 12.7344 62.3952 12.8705C62.588 12.7773 62.8732 12.7109 64.8445 12.4232C64.8917 12.637 64.9282 12.8337 64.9496 12.9968L65.543 12.8219C65.4726 12.3067 65.2111 11.432 64.9698 10.7517Z" fill="black"/>
<path d="M63.5115 13.3564L64.0445 13.269C64.1652 13.9299 64.2658 14.7755 64.296 15.3392L63.7428 15.4364C63.7227 14.8727 63.6222 14.0173 63.5115 13.3564Z" fill="black"/>
<path d="M62.6668 15.796C62.878 15.1837 63.069 14.2506 63.1797 13.3953L62.5763 13.2981C62.4857 14.1048 62.3349 14.9893 62.0935 15.5919C62.2444 15.6405 62.536 15.7377 62.6668 15.796Z" fill="black"/>
<path d="M64.3764 13.1718L64.8692 13.0454C65.0603 13.5605 65.2614 14.2312 65.3419 14.6685L64.829 14.8241C64.7485 14.377 64.5474 13.6966 64.3764 13.1718Z" fill="black"/>
<path d="M80.0748 15.2419C80.2357 15.2419 80.2759 15.1933 80.2759 15.0378V7.34009H81V15.0378C81 15.4946 80.8894 15.7084 80.5877 15.8251C80.286 15.9417 79.753 15.9611 79.0188 15.9611C78.9887 15.7667 78.878 15.4363 78.7775 15.2322C79.3507 15.2516 79.8938 15.2516 80.0748 15.2419Z" fill="black"/>
<path d="M77.7215 8.76883L77.6008 8.78826H75.5493V8.20511H77.802V7.66082H75.5493V7.05823H74.8352V8.78826H72.8943V11.4125C72.8943 12.6857 72.8239 14.4158 72.0998 15.6598C72.2607 15.7279 72.5524 15.8931 72.673 16C73.4374 14.6976 73.548 12.7829 73.548 11.4125V9.34227H74.8755V9.97298L73.7391 10.0907L73.7994 10.5475L74.8755 10.4323V10.4989C74.8755 11.0529 75.0062 11.2667 75.6297 11.2667H77.098C77.3695 11.2667 77.6612 11.2667 77.802 11.2278C77.7819 11.1015 77.7617 10.9265 77.7517 10.771C77.5908 10.8099 77.2589 10.8196 77.0678 10.8196H75.7403C75.5191 10.8196 75.4789 10.7418 75.4789 10.5086V10.3677L76.8868 10.217L76.8365 9.76992L75.4789 9.9105V9.34227H77.4089C77.3368 9.64263 77.2453 9.94854 77.1583 10.1684L77.7115 10.285C77.8824 9.94486 78.0433 9.37142 78.1539 8.87574L77.7215 8.76883Z" fill="black"/>
<path d="M73.7391 12.9481C74.3417 12.7786 75.0542 12.4972 75.5475 12.1803H73.7994V11.6555H77.983V12.1803H76.2666C76.086 12.3354 75.871 12.485 75.636 12.6246C75.9033 12.8533 76.1102 13.1109 76.2639 13.3783C76.6402 13.0902 77.0558 12.7183 77.3092 12.4427L77.802 12.7926C77.5909 12.9744 77.3631 13.1603 77.1358 13.3345C77.4472 13.7443 78.1261 14.742 78.3048 15.0183L77.8221 15.446C77.6181 15.0431 77.062 14.1033 76.7473 13.6204C76.6508 13.6884 76.5562 13.7523 76.4651 13.8111C76.764 14.6355 76.6086 15.4568 76.1929 15.7473C75.9515 15.9417 75.7605 15.9806 75.4286 15.9903C75.2576 15.9903 75.0364 15.9806 74.8151 15.9708C74.8051 15.8251 74.7447 15.5918 74.6341 15.4363C74.9157 15.4654 75.147 15.4752 75.3079 15.4752C75.499 15.4752 75.6498 15.4654 75.7705 15.3488C75.9718 15.2145 76.084 14.824 76.0179 14.3532C75.3592 14.8827 74.3831 15.4207 73.558 15.7084C73.4876 15.5821 73.3569 15.3877 73.2463 15.2808C74.1712 15.0267 75.3036 14.4356 75.895 13.8778C75.8462 13.7488 75.7838 13.6182 75.7065 13.489C75.2196 13.8377 74.5054 14.2056 73.9201 14.4352C73.8597 14.3088 73.729 14.1242 73.6184 14.027C74.2375 13.8573 75.0179 13.5071 75.4759 13.1649C75.3907 13.0627 75.2946 12.9632 75.1866 12.8679C74.7999 13.0592 74.3874 13.2209 74.0005 13.3369C73.9402 13.2203 73.8195 13.0453 73.7391 12.9481Z" fill="black"/>
<path d="M56.2759 7.26231C56.2774 7.1965 56.2788 7.13455 56.2803 7.07779H57.115L57.114 7.11988C57.106 7.46713 57.0951 7.93614 57.0501 8.48219C57.1919 9.62516 57.8042 13.7478 61.3891 15.2906C61.1679 15.4558 60.9466 15.7085 60.836 15.9127C58.3076 14.7711 57.2182 12.3719 56.7238 10.5558C56.25 12.5013 55.179 14.6767 52.7202 15.9515C52.5895 15.7571 52.3381 15.5336 52.1068 15.3781C56.1383 13.4066 56.2384 8.93797 56.2758 7.26562L56.2759 7.26455L56.2759 7.26231Z" fill="black"/>
<path d="M47.5815 14.7656L48.0541 14.2797C49.1905 14.6296 50.4275 15.0864 51.1617 15.4557L50.5482 15.9611C49.8643 15.5918 48.7179 15.1253 47.5815 14.7656Z" fill="black"/>
<path d="M45.0975 14.2797L45.7914 14.7073C44.9466 15.203 43.599 15.7084 42.5229 15.9806C42.4123 15.8348 42.1609 15.5821 42 15.446C43.0761 15.1933 44.4237 14.6976 45.0975 14.2797Z" fill="black"/>
<path d="M79.3406 8.21482H78.6568V13.7062H79.3406V8.21482Z" fill="black"/>
<path fill-rule="evenodd" clip-rule="evenodd" d="M43.6392 13.5021H42.1911V14.1242H51.1214V13.5021H49.7034V9.109H46.9177V8.49668H50.86V7.86493H46.9177V7.05823H46.1735V7.86493H42.4727V8.49668H46.1735V9.109H43.6392V13.5021ZM44.3633 13.5021H48.9492V12.8218H44.3633V13.5021ZM44.3633 12.3553H48.9492V11.7721H44.3633V12.3553ZM44.3633 11.2958H48.9492V10.7224H44.3633V11.2958ZM44.3633 10.2656H48.9492V9.62413H44.3633V10.2656Z" fill="black"/>
<path fill-rule="evenodd" clip-rule="evenodd" d="M104.32 26.2505C104.32 25.9898 104.336 25.4196 104.336 25.4196H100.424V23.8717H104.573C104.764 26.2238 105.11 28.471 105.651 30.2984C104.776 31.2876 103.759 32.1157 102.612 32.7515C103.107 33.2077 103.953 34.2016 104.288 34.7067C105.138 34.1597 105.93 33.5082 106.658 32.7639C107.338 33.9391 108.193 34.6415 109.254 34.6415C110.898 34.6415 111.649 33.9572 112 30.78C111.377 30.5356 110.563 29.9817 110.036 29.4277C109.956 31.4155 109.765 32.2301 109.445 32.2301C109.06 32.2301 108.67 31.686 108.312 30.7655C109.465 29.1244 110.389 27.1985 111.058 25.0611L108.711 24.4908C108.396 25.6095 107.983 26.659 107.478 27.6243C107.264 26.4884 107.09 25.2105 106.974 23.8717H111.84V21.5418H110.142L110.946 20.6945C110.387 20.1568 109.27 19.4399 108.455 19L107.05 20.4175C107.553 20.7329 108.148 21.1437 108.647 21.5418H106.835C106.811 20.7923 106.808 20.0385 106.827 19.2933H104.384C104.387 20.0364 104.403 20.7892 104.433 21.5418H97.9812V26.4297C97.9812 28.5642 97.9014 31.4481 96.7199 33.3707C97.2468 33.6477 98.3006 34.5275 98.6997 35C99.5135 33.7498 99.9567 32.0088 100.189 30.2753C100.506 30.8638 100.745 31.7506 100.775 32.4257C101.51 32.4257 102.18 32.4094 102.612 32.3279C103.091 32.2301 103.458 32.0672 103.809 31.5947C104.192 31.0733 104.272 29.5743 104.32 26.2505ZM100.197 30.2141C100.316 29.3052 100.378 28.4 100.406 27.5703H102.058C102.023 29.1922 101.963 29.8644 101.829 30.0631C101.701 30.2261 101.558 30.275 101.35 30.275C101.102 30.275 100.674 30.2596 100.197 30.2141Z" fill="black"/>
<path d="M85.8673 22.112C86.1314 21.4187 86.3672 20.705 86.565 19.9939L84.1541 19.4399C83.6112 21.6395 82.5893 23.8717 81.3599 25.2077C81.9507 25.5336 82.9885 26.2342 83.4515 26.6415C83.9297 26.0332 84.4007 25.2744 84.839 24.4257H87.9062V26.9185H83.7709V29.1996H87.9062V32.002H81.8708V34.3157H96.4005V32.002H90.3332V29.1996H94.9156V26.9185H90.3332V24.4257H95.5543V22.112H90.3332V19.277H87.9062V22.112H85.8673Z" fill="black"/>
<path d="M46.3436 28.4645C46.4377 28.0285 46.4856 27.6141 46.4988 27.2444H42.8462V25.11H46.5026V23.4807H42.6866V21.2811H46.5026V19.3585H48.8018V27C48.8018 29.8513 47.9396 33.0611 44.0278 34.9837C43.6446 34.4134 42.9261 33.6802 42.3672 33.224C43.7784 32.6761 44.7414 31.786 45.3804 30.8057C44.6568 30.9237 43.9507 31.0375 43.2921 31.1436L42.4151 31.2851L42 28.9226C43.1273 28.8236 44.7056 28.6496 46.3436 28.4645Z" fill="black"/>
<path fill-rule="evenodd" clip-rule="evenodd" d="M71.6755 34.3304L66.632 19.7975H63.2696L58.1875 34.3304H61.2986L62.2841 31.3429H67.5305L68.4484 34.3304H71.6755ZM64.9218 23.1201L66.6996 28.8386H63.0861L64.9218 23.1201Z" fill="black"/>
<path d="M52.7456 19.3585V21.2811H56.9289V23.4807H52.7456V25.11H56.5457V27.2444H52.7456V28.9063H57.2163V31.1059H52.7456V34.7556H50.4144V19.3585H52.7456Z" fill="black"/>
<path d="M74.2124 22.2695V31.8617H72.4582V34.3337H78.7189V31.8617H77.169V22.2695H78.7189V19.7975H72.4582V22.2695H74.2124Z" fill="black"/>
</svg>
