<svg width="131" height="42" viewBox="0 0 131 42" fill="none" xmlns="http://www.w3.org/2000/svg">
<path d="M0.5 0.5H116C124.008 0.5 130.5 6.99187 130.5 15V41.5H15C6.99187 41.5 0.5 35.0081 0.5 27V0.5Z" fill="black" stroke="#ACACAC"/>
<path d="M17.9605 24.1575C21.4266 26.9643 26.3836 26.9643 29.8497 24.1575L28.5095 22.5026C25.8248 24.6766 21.9854 24.6766 19.3007 22.5026L17.9605 24.1575Z" fill="white"/>
<path d="M19.404 20.5134V17.6365H21.5336V20.5134H19.404Z" fill="white"/>
<path d="M26.012 17.6365V20.5134H28.1415V17.6365H26.012Z" fill="white"/>
<path fill-rule="evenodd" clip-rule="evenodd" d="M35 21.5C35 27.8513 29.8513 33 23.5 33C17.1487 33 12 27.8513 12 21.5C12 15.1487 17.1487 10 23.5 10C29.8513 10 35 15.1487 35 21.5ZM32.8705 21.5C32.8705 26.6752 28.6752 30.8705 23.5 30.8705C18.3248 30.8705 14.1295 26.6752 14.1295 21.5C14.1295 16.3248 18.3248 12.1295 23.5 12.1295C28.6752 12.1295 32.8705 16.3248 32.8705 21.5Z" fill="white"/>
<path fill-rule="evenodd" clip-rule="evenodd" d="M105.32 26.2505C105.32 25.9898 105.336 25.4196 105.336 25.4196H101.424V23.8717H105.573C105.764 26.2238 106.11 28.471 106.651 30.2984C105.776 31.2876 104.759 32.1157 103.612 32.7515C104.107 33.2077 104.953 34.2016 105.288 34.7067C106.138 34.1597 106.93 33.5082 107.658 32.7639C108.338 33.9391 109.193 34.6415 110.254 34.6415C111.898 34.6415 112.649 33.9572 113 30.78C112.377 30.5356 111.563 29.9817 111.036 29.4277C110.956 31.4155 110.765 32.2301 110.445 32.2301C110.06 32.2301 109.67 31.686 109.312 30.7655C110.465 29.1244 111.389 27.1985 112.058 25.0611L109.711 24.4908C109.396 25.6095 108.983 26.659 108.478 27.6243C108.264 26.4884 108.09 25.2105 107.974 23.8717H112.84V21.5418H111.142L111.946 20.6945C111.387 20.1568 110.27 19.4399 109.455 19L108.05 20.4175C108.553 20.7329 109.148 21.1437 109.647 21.5418H107.835C107.811 20.7923 107.808 20.0385 107.827 19.2933H105.384C105.387 20.0364 105.403 20.7892 105.433 21.5418H98.9812V26.4297C98.9812 28.5642 98.9014 31.4481 97.7199 33.3707C98.2468 33.6477 99.3006 34.5275 99.6997 35C100.514 33.7498 100.957 32.0088 101.189 30.2753C101.506 30.8638 101.745 31.7506 101.775 32.4257C102.51 32.4257 103.18 32.4094 103.612 32.3279C104.091 32.2301 104.458 32.0672 104.809 31.5947C105.192 31.0733 105.272 29.5743 105.32 26.2505ZM101.197 30.2141C101.316 29.3052 101.378 28.4 101.406 27.5703H103.058C103.023 29.1922 102.963 29.8644 102.829 30.0631C102.701 30.2261 102.558 30.275 102.35 30.275C102.102 30.275 101.674 30.2596 101.197 30.2141Z" fill="white"/>
<path d="M86.8673 22.112C87.1314 21.4187 87.3672 20.705 87.565 19.9939L85.1541 19.4399C84.6112 21.6395 83.5893 23.8717 82.3599 25.2077C82.9507 25.5336 83.9885 26.2342 84.4515 26.6415C84.9297 26.0332 85.4007 25.2744 85.839 24.4257H88.9062V26.9185H84.7709V29.1996H88.9062V32.002H82.8708V34.3157H97.4005V32.002H91.3332V29.1996H95.9156V26.9185H91.3332V24.4257H96.5543V22.112H91.3332V19.277H88.9062V22.112H86.8673Z" fill="white"/>
<path d="M47.3436 28.4645C47.4377 28.0285 47.4856 27.6141 47.4988 27.2444H43.8462V25.11H47.5026V23.4807H43.6866V21.2811H47.5026V19.3585H49.8018V27C49.8018 29.8513 48.9396 33.0611 45.0278 34.9837C44.6446 34.4134 43.9261 33.6802 43.3672 33.224C44.7784 32.6761 45.7414 31.786 46.3804 30.8057C45.6568 30.9237 44.9507 31.0375 44.2921 31.1436L43.4151 31.2851L43 28.9226C44.1273 28.8236 45.7056 28.6496 47.3436 28.4645Z" fill="white"/>
<path fill-rule="evenodd" clip-rule="evenodd" d="M72.6755 34.3304L67.632 19.7975H64.2696L59.1875 34.3304H62.2986L63.2841 31.3429H68.5305L69.4484 34.3304H72.6755ZM65.9218 23.1201L67.6996 28.8386H64.0861L65.9218 23.1201Z" fill="white"/>
<path d="M53.7456 19.3585V21.2811H57.9289V23.4807H53.7456V25.11H57.5457V27.2444H53.7456V28.9063H58.2163V31.1059H53.7456V34.7556H51.4144V19.3585H53.7456Z" fill="white"/>
<path d="M75.2124 22.2695V31.8617H73.4582V34.3337H79.7189V31.8617H78.169V22.2695H79.7189V19.7975H73.4582V22.2695H75.2124Z" fill="white"/>
<path d="M75.9915 7L75.3094 7.18447C75.5225 7.51769 75.7357 7.9352 75.8557 8.26215H73.2531V8.93206H75.231C74.8006 9.56893 74.2982 10.1341 74.1157 10.3107C73.8951 10.534 73.7145 10.6796 73.544 10.7088C73.6242 10.903 73.7446 11.2428 73.7747 11.3884C73.9566 11.3179 74.2624 11.2794 76.2036 11.1715C75.4166 12.0193 74.4298 12.7144 73.3735 13.2039C73.5239 13.3496 73.7546 13.6506 73.8549 13.7962C75.5401 12.9224 77.0849 11.5437 78.0177 9.81556L77.3256 9.59226C77.1553 9.92194 76.9555 10.2384 76.7307 10.5398L74.6753 10.6282C75.1786 10.1419 75.6778 9.5403 76.1076 8.93206H78.74V8.26215H76.6535C76.5532 7.91263 76.2824 7.38835 75.9915 7Z" fill="white"/>
<path d="M76.7327 14.0228C75.8465 14.8136 74.8316 15.4696 73.7847 15.971C73.6944 15.8156 73.4537 15.4952 73.3032 15.3496C75.2392 14.5438 76.9946 13.1651 77.9877 11.4466L78.6698 11.6991C78.2706 12.3769 77.7757 13.0013 77.2143 13.5665C77.7896 14.047 78.4878 14.6636 78.8503 15.0583L78.2986 15.5438C77.9612 15.1398 77.3093 14.5228 76.7327 14.0228Z" fill="white"/>
<path d="M81.0069 15.2719C81.1775 15.2622 81.2477 15.2137 81.2477 15.0389V7.17476H82V15.0389C82 15.5049 81.8696 15.7088 81.5687 15.835C81.2677 15.9418 80.7562 15.9613 79.9035 15.9515C79.8735 15.7671 79.7531 15.4564 79.6528 15.2622C80.2647 15.2816 80.8364 15.2816 81.0069 15.2719Z" fill="white"/>
<path fill-rule="evenodd" clip-rule="evenodd" d="M62.9913 15.6699C63.543 14.4369 63.5831 12.699 63.5831 11.3786V7.47564H67.7058V10.484C68.3203 9.5712 68.8154 8.30683 69.1402 7.05816L69.7722 7.20379C69.6175 7.77686 69.4289 8.35266 69.2142 8.90284H72.2799V9.56304H70.9157V10.8349H72.1595V11.466H70.9157V12.7961H72.1595V13.4272H70.9157V14.8058H72.3601V15.4854H69.1402V16H68.4982V10.4515C68.3281 10.7607 68.1501 11.0465 67.9666 11.3009C67.9134 11.2208 67.8114 11.0968 67.7058 10.9827V15.0291C67.7058 15.3981 67.6255 15.6116 67.3748 15.7282C67.1039 15.8544 66.6826 15.8738 66.0607 15.8641C66.0306 15.6893 65.9203 15.3689 65.82 15.1845C66.2102 15.2002 66.5743 15.1968 66.773 15.1949L66.8322 15.1944L66.8833 15.1942C67.0237 15.1845 67.0638 15.1553 67.0638 15.0097V8.10672H64.2151V11.3689C64.2151 12.767 64.1448 14.699 63.553 15.9806C63.4326 15.8835 63.1518 15.7282 62.9913 15.6699ZM69.1402 9.56304H70.3038V10.8349H69.1402V9.56304ZM69.1402 11.466H70.3038V12.7961H69.1402V11.466ZM69.1402 13.4272H70.3038V14.8058H69.1402V13.4272Z" fill="white"/>
<path d="M70.053 7.37855L70.6047 7.17467C70.8455 7.64069 71.0661 8.25235 71.1464 8.65041L70.5646 8.89313C70.4944 8.48536 70.2837 7.85429 70.053 7.37855Z" fill="white"/>
<path d="M57.2392 7.27168C57.2407 7.20594 57.2421 7.14406 57.2436 7.08736H58.0762L58.0752 7.1294C58.0671 7.47628 58.0563 7.94478 58.0114 8.49025C58.1528 9.63199 58.7636 13.7501 62.3393 15.2913C62.1186 15.4564 61.8979 15.7088 61.7876 15.9127C59.2657 14.7723 58.1791 12.3758 57.6859 10.5616C57.2133 12.505 56.1452 14.6781 53.6927 15.9515C53.5623 15.7574 53.3115 15.534 53.0808 15.3787C57.102 13.4093 57.2018 8.94553 57.2391 7.27499L57.2392 7.27392L57.2392 7.27168Z" fill="white"/>
<path d="M48.5671 14.7672L49.0386 14.2817C50.1721 14.6312 51.4059 15.0876 52.1381 15.4565L51.5262 15.9613C50.8441 15.5924 49.7006 15.1264 48.5671 14.7672Z" fill="white"/>
<path d="M46.0895 14.2817L46.7816 14.7089C45.939 15.2041 44.5949 15.7089 43.5216 15.9808C43.4113 15.8351 43.1605 15.5827 43 15.4468C44.0733 15.1943 45.4174 14.6992 46.0895 14.2817Z" fill="white"/>
<path d="M80.1643 8.17477H79.4522V13.5923H80.1643V8.17477Z" fill="white"/>
<path fill-rule="evenodd" clip-rule="evenodd" d="M65.3385 9.04847H64.4257V9.61159H65.3385V10.4757H64.4157V11.0194H65.3385V11.6796H64.5962V14.6408H65.0978V14.1068H66.6626V11.6796H65.9002V11.0194H66.8732V10.4757H65.9002V9.61159H66.8732V9.04847H65.9002V8.30089H65.3385V9.04847ZM65.0978 13.5728H66.1811V12.2136H65.0978V13.5728Z" fill="white"/>
<path fill-rule="evenodd" clip-rule="evenodd" d="M44.635 13.505H43.1906V14.1264H52.098V13.505H50.6836V9.11662H47.9051V8.50496H51.8372V7.87389H47.9051V7.06805H47.1628V7.87389H43.4715V8.50496H47.1628V9.11662H44.635V13.505ZM45.3573 13.505H49.9313V12.8254H45.3573V13.505ZM45.3573 12.3594H49.9313V11.7768H45.3573V12.3594ZM45.3573 11.3011H49.9313V10.7283H45.3573V11.3011ZM45.3573 10.272H49.9313V9.63119H45.3573V10.272Z" fill="white"/>
</svg>
