<svg width="131" height="42" viewBox="0 0 131 42" fill="none" xmlns="http://www.w3.org/2000/svg">
<path d="M116 0.5C124.008 0.5 130.5 6.99187 130.5 15V41.5H15C6.99187 41.5 0.5 35.0081 0.5 27V0.5H116Z" fill="black" stroke="#ACACAC"/>
<path d="M28.8497 24.1575C25.3836 26.9643 20.4266 26.9643 16.9605 24.1575L18.3007 22.5026C20.9854 24.6766 24.8248 24.6766 27.5095 22.5026L28.8497 24.1575Z" fill="white"/>
<path d="M18.404 17.6365V20.5134H20.5336V17.6365H18.404Z" fill="white"/>
<path d="M25.012 17.6365V20.5134H27.1415V17.6365H25.012Z" fill="white"/>
<path fill-rule="evenodd" clip-rule="evenodd" d="M22.5 33C28.8513 33 34 27.8513 34 21.5C34 15.1487 28.8513 10 22.5 10C16.1487 10 11 15.1487 11 21.5C11 27.8513 16.1487 33 22.5 33ZM22.5 30.8705C27.6752 30.8705 31.8705 26.6752 31.8705 21.5C31.8705 16.3248 27.6752 12.1295 22.5 12.1295C17.3248 12.1295 13.1295 16.3248 13.1295 21.5C13.1295 26.6752 17.3248 30.8705 22.5 30.8705Z" fill="white"/>
<path fill-rule="evenodd" clip-rule="evenodd" d="M103.916 32.15L99.357 19.2822H96.3175L91.7234 32.15H94.5358L95.4266 29.5049H100.169L100.999 32.15H103.916ZM97.811 22.2242L99.4181 27.2875H96.1516L97.811 22.2242Z" fill="white"/>
<path fill-rule="evenodd" clip-rule="evenodd" d="M76.0917 22.425C77.3436 22.425 78.3218 22.876 79.0263 23.7781C79.7367 24.6802 80.0919 25.8442 80.0919 27.27C80.0919 28.7483 79.7425 29.9734 79.0438 30.9453C78.3451 31.9172 77.3698 32.4032 76.1179 32.4032C75.3318 32.4032 74.7 32.2461 74.2226 31.9318C73.9373 31.7455 73.6287 31.4196 73.2968 30.954V32.15H70.86V19.2997H73.3404V23.8741C73.6549 23.4318 74.0013 23.0943 74.3798 22.8615C74.8281 22.5705 75.3988 22.425 76.0917 22.425ZM75.4541 30.3517C76.0946 30.3517 76.5924 30.0927 76.9476 29.5747C77.3028 29.0567 77.4804 28.3758 77.4804 27.5319C77.4804 26.8568 77.393 26.2981 77.2184 25.8558C76.8865 25.0177 76.2751 24.5987 75.3842 24.5987C74.4817 24.5987 73.8616 25.009 73.5239 25.8296C73.3492 26.2661 73.2618 26.8306 73.2618 27.5232C73.2618 28.338 73.4423 29.0131 73.8033 29.5485C74.1644 30.084 74.7146 30.3517 75.4541 30.3517Z" fill="white"/>
<path d="M62.8875 31.6699C62.608 31.3847 62.4683 30.9453 62.4683 30.3517V24.4939H61.1407V22.7218H62.4683V20.0679H64.9313V22.7218H66.4772V24.4939H64.9313V29.5223C64.9313 29.9123 64.9807 30.1567 65.0797 30.2556C65.1787 30.3488 65.4815 30.3953 65.9881 30.3953H66.2239C66.3112 30.3895 66.3957 30.3837 66.4772 30.3779V32.2373L65.2981 32.281C64.1219 32.3217 63.3184 32.118 62.8875 31.6699Z" fill="white"/>
<path fill-rule="evenodd" clip-rule="evenodd" d="M61.0439 27.4097C61.0439 28.8065 60.6421 30.0025 59.8386 30.9977C59.0351 31.9871 57.8152 32.4818 56.179 32.4818C54.5428 32.4818 53.323 31.9871 52.5195 30.9977C51.7159 30.0025 51.3142 28.8065 51.3142 27.4097C51.3142 26.0362 51.7159 24.8461 52.5195 23.8392C53.323 22.8324 54.5428 22.3289 56.179 22.3289C57.8152 22.3289 59.0351 22.8324 59.8386 23.8392C60.6421 24.8461 61.0439 26.0362 61.0439 27.4097ZM56.1703 30.3953C56.8981 30.3953 57.4571 30.1363 57.8472 29.6184C58.2374 29.1004 58.4324 28.3642 58.4324 27.4097C58.4324 26.4553 58.2374 25.7219 57.8472 25.2098C57.4571 24.6918 56.8981 24.4328 56.1703 24.4328C55.4425 24.4328 54.8806 24.6918 54.4846 25.2098C54.0945 25.7219 53.8994 26.4553 53.8994 27.4097C53.8994 28.3642 54.0945 29.1004 54.4846 29.6184C54.8806 30.1363 55.4425 30.3953 56.1703 30.3953Z" fill="white"/>
<path d="M49.3658 23.1845C48.7427 22.6665 47.9392 22.4075 46.9552 22.4075C46.1691 22.4075 45.5199 22.5996 45.0075 22.9837C44.7222 23.199 44.4194 23.5511 44.0991 24.04V22.6519H41.6973V32.15H44.1777V26.9994C44.1777 26.4116 44.2593 25.9286 44.4223 25.5503C44.7367 24.8344 45.3161 24.4765 46.1604 24.4765C46.8474 24.4765 47.3133 24.7209 47.5578 25.2098C47.6917 25.4775 47.7587 25.8616 47.7587 26.3621V32.15H50.309V25.7423C50.309 24.5492 49.9946 23.6966 49.3658 23.1845Z" fill="white"/>
<path d="M81.8656 33.992L81.5512 33.9746V35.965C81.819 35.9824 82.0199 35.9912 82.1538 35.9912C82.2877 35.997 82.4653 35.9999 82.6866 35.9999C83.7871 35.9999 84.5207 35.7816 84.8876 35.3451C85.2544 34.9145 85.7522 33.7971 86.3811 31.9929L89.6476 22.6345H87.0012L85.036 29.6533L82.9573 22.6345H80.1886L83.6823 32.5691C83.7055 32.6389 83.6531 32.831 83.5251 33.1452C83.4028 33.4595 83.2689 33.6661 83.1233 33.765C82.9719 33.8698 82.7856 33.9367 82.5643 33.9658C82.343 33.9949 82.1101 34.0037 81.8656 33.992Z" fill="white"/>
<path d="M106.209 21.471V29.9642H104.624V32.153H110.283V29.9642H108.882V21.471H110.283V19.2822H104.624V21.471H106.209Z" fill="white"/>
<path d="M84.2354 13.96L85.6035 9.83008H86.5459C86.4259 10.1553 86.1597 10.8978 85.7461 12.0566C85.4367 12.928 85.1771 13.6381 84.9688 14.1875C84.4762 15.4821 84.1288 16.2715 83.9268 16.5557C83.7247 16.8398 83.3773 16.9824 82.8848 16.9824C82.765 16.9824 82.6717 16.9772 82.6055 16.9678C82.5424 16.9583 82.4636 16.9412 82.3691 16.916V16.1387C82.5175 16.1797 82.6251 16.2054 82.6914 16.2148C82.7575 16.2243 82.8158 16.2295 82.8662 16.2295C83.0241 16.2295 83.1393 16.2021 83.2119 16.1484C83.2877 16.0979 83.3509 16.0347 83.4014 15.959C83.4173 15.9334 83.4745 15.8036 83.5723 15.5703C83.67 15.3369 83.741 15.1634 83.7852 15.0498L81.9092 9.83008H82.876L84.2354 13.96Z" fill="white"/>
<path fill-rule="evenodd" clip-rule="evenodd" d="M59.5195 9.70703C60.0939 9.70713 60.5815 9.92831 60.9824 10.3701C61.3834 10.8089 61.5839 11.4373 61.584 12.2549C61.584 13.3597 61.2953 14.1494 60.7178 14.623C60.3515 14.923 59.9247 15.0732 59.4385 15.0732C59.0566 15.0732 58.7364 14.9895 58.4775 14.8223C58.3261 14.7276 58.1569 14.5653 57.9707 14.335V16.9258H57.1182V9.85449H57.9463V10.5264C58.1168 10.2959 58.3038 10.1175 58.5059 9.99121C58.7931 9.80188 59.1313 9.70703 59.5195 9.70703ZM59.3252 10.4551C58.7348 10.4551 58.3302 10.7506 58.1123 11.3408C57.9955 11.6565 57.9375 12.0578 57.9375 12.5439C57.9375 12.9355 57.9955 13.2692 58.1123 13.5439C58.3334 14.068 58.738 14.3301 59.3252 14.3301C59.7228 14.33 60.0525 14.1642 60.3145 13.833C60.5797 13.4983 60.7129 12.999 60.7129 12.3359C60.7129 11.9318 60.6539 11.5844 60.5371 11.2939C60.3161 10.7352 59.9123 10.4552 59.3252 10.4551Z" fill="white"/>
<path d="M42.832 9.69727C43.5961 9.69728 44.1475 9.92176 44.4854 10.3701C44.6968 10.6542 44.7993 10.9607 44.793 11.2891H43.9873C43.9715 11.0966 43.904 10.9214 43.7842 10.7637C43.5884 10.5395 43.2487 10.4268 42.7656 10.4268C42.4436 10.4268 42.1986 10.4892 42.0312 10.6123C41.8673 10.7354 41.7852 10.8977 41.7852 11.0996C41.7852 11.3206 41.8944 11.4973 42.1123 11.6299C42.2386 11.7088 42.4247 11.7789 42.6709 11.8389L43.2344 11.9756C43.8469 12.124 44.2574 12.2683 44.4658 12.4072C44.7973 12.6251 44.9629 12.9673 44.9629 13.4346C44.9629 13.886 44.7913 14.2761 44.4473 14.6045C44.1063 14.9329 43.5848 15.0967 42.8838 15.0967C42.1293 15.0966 41.5941 14.9268 41.2783 14.5859C40.9657 14.2418 40.7985 13.8167 40.7764 13.3115H41.5957C41.6209 13.5955 41.6919 13.8133 41.8086 13.9648C42.0233 14.2396 42.3963 14.377 42.9268 14.377C43.2423 14.3769 43.5199 14.3094 43.7598 14.1738C43.9997 14.0349 44.1201 13.8215 44.1201 13.5342C44.1201 13.3163 44.0237 13.1508 43.8311 13.0371C43.7079 12.9677 43.4646 12.8865 43.1016 12.7949L42.4248 12.625C41.9922 12.5176 41.673 12.3973 41.4678 12.2646C41.1016 12.0342 40.918 11.7149 40.918 11.3076C40.9181 10.8279 41.0905 10.4393 41.4346 10.1426C41.7819 9.84583 42.2479 9.69727 42.832 9.69727Z" fill="white"/>
<path fill-rule="evenodd" clip-rule="evenodd" d="M66.8135 9.7168C67.1734 9.7168 67.5225 9.80215 67.8604 9.97266C68.1982 10.14 68.456 10.3576 68.6328 10.626C68.8033 10.8817 68.9168 11.1805 68.9736 11.5215C69.0241 11.7551 69.0488 12.1275 69.0488 12.6387H65.3311C65.3468 13.1534 65.4689 13.5673 65.6963 13.8799C65.9236 14.1892 66.2753 14.3437 66.752 14.3438C67.1972 14.3438 67.5522 14.197 67.8174 13.9033C67.9689 13.7328 68.0765 13.5357 68.1396 13.3115H68.9785C68.9564 13.4977 68.8821 13.7061 68.7559 13.9365C68.6327 14.1639 68.4936 14.3508 68.3389 14.4961C68.08 14.7486 67.7589 14.9184 67.377 15.0068C67.1718 15.0573 66.9395 15.083 66.6807 15.083C66.0493 15.0829 65.514 14.8542 65.0752 14.3965C64.6363 13.9355 64.417 13.2911 64.417 12.4639C64.417 11.6493 64.6381 10.9878 65.0801 10.4795C65.5221 9.97117 66.1 9.71684 66.8135 9.7168ZM66.7617 10.46C66.3702 10.46 66.0416 10.6025 65.7764 10.8867C65.5112 11.1677 65.3703 11.5262 65.3545 11.9619H68.1729C68.1381 11.5926 68.0579 11.2972 67.9316 11.0762C67.698 10.6657 67.3079 10.46 66.7617 10.46Z" fill="white"/>
<path fill-rule="evenodd" clip-rule="evenodd" d="M73.9443 7.92188V14.9033H73.1768V14.1973C72.9779 14.5098 72.7432 14.7361 72.4717 14.875C72.2001 15.0139 71.8886 15.083 71.5381 15.083C70.973 15.0829 70.4839 14.8456 70.0703 14.3721C69.6568 13.8954 69.4503 13.2627 69.4502 12.4736C69.4502 11.7348 69.6379 11.0946 70.0137 10.5547C70.3925 10.0119 70.9322 9.74032 71.6328 9.74023C72.021 9.74023 72.3464 9.82233 72.6084 9.98633C72.76 10.0811 72.9324 10.2476 73.125 10.4844V7.92188H73.9443ZM71.7939 10.4844C71.3646 10.4844 71.0154 10.6482 70.7471 10.9766C70.482 11.3049 70.3496 11.7881 70.3496 12.4258C70.3496 12.9689 70.4648 13.4238 70.6953 13.79C70.9258 14.1563 71.2954 14.3389 71.8037 14.3389C72.1982 14.3389 72.5219 14.1706 72.7744 13.833C73.0302 13.492 73.1582 13.0038 73.1582 12.3691C73.1582 11.7284 73.0275 11.2545 72.7656 10.9482C72.5035 10.6388 72.1792 10.4844 71.7939 10.4844Z" fill="white"/>
<path fill-rule="evenodd" clip-rule="evenodd" d="M91.3926 9.70703C91.9892 9.70708 92.4742 9.82056 92.8467 10.0479C93.216 10.2752 93.4004 10.6295 93.4004 11.1094V14.0312C93.4004 14.1194 93.4176 14.1905 93.4521 14.2441C93.49 14.2978 93.5677 14.3252 93.6846 14.3252C93.7225 14.3252 93.7651 14.3235 93.8125 14.3203C93.8598 14.314 93.9103 14.3063 93.9639 14.2969V14.9268C93.8315 14.9646 93.7306 14.9886 93.6611 14.998C93.5917 15.0075 93.4968 15.0117 93.377 15.0117C93.0833 15.0117 92.8699 14.9076 92.7373 14.6992C92.6679 14.5887 92.6192 14.4325 92.5908 14.2305C92.4172 14.4578 92.167 14.6549 91.8418 14.8223C91.5166 14.9896 91.1581 15.0732 90.7666 15.0732C90.2964 15.0732 89.9112 14.9315 89.6113 14.6475C89.3146 14.3602 89.1661 14.0016 89.166 13.5723C89.166 13.1018 89.3128 12.7365 89.6064 12.4775C89.9001 12.2187 90.286 12.06 90.7627 12L92.1211 11.8291C92.3168 11.8039 92.4483 11.7218 92.5146 11.583C92.5525 11.5072 92.5713 11.3979 92.5713 11.2559C92.5713 10.9654 92.4672 10.7554 92.2588 10.626C92.0536 10.4934 91.7582 10.4268 91.373 10.4268C90.9279 10.4268 90.6121 10.5472 90.4258 10.7871C90.3217 10.9197 90.2542 11.117 90.2227 11.3789H89.4268C89.4426 10.7538 89.6449 10.3193 90.0332 10.0762C90.4246 9.83008 90.8781 9.70703 91.3926 9.70703ZM92.5479 12.3213C92.4437 12.3876 92.3096 12.4431 92.1455 12.4873C91.9813 12.5315 91.82 12.5631 91.6621 12.582L91.1455 12.6484C90.8363 12.6895 90.6039 12.7544 90.4492 12.8428C90.1875 12.9911 90.0567 13.2279 90.0566 13.5527C90.0566 13.7989 90.1463 13.9937 90.3262 14.1357C90.5061 14.2778 90.7196 14.3486 90.9658 14.3486C91.2656 14.3486 91.556 14.2794 91.8369 14.1406C92.3104 13.9102 92.5477 13.5328 92.5479 13.0088V12.3213Z" fill="white"/>
<path fill-rule="evenodd" clip-rule="evenodd" d="M116.915 9.70703C117.512 9.70703 117.997 9.82064 118.369 10.0479C118.739 10.2752 118.924 10.6294 118.924 11.1094V14.0312C118.924 14.1195 118.941 14.1905 118.976 14.2441C119.013 14.2978 119.091 14.3252 119.208 14.3252C119.246 14.3252 119.289 14.3235 119.336 14.3203C119.383 14.314 119.434 14.3063 119.487 14.2969V14.9268C119.355 14.9646 119.253 14.9886 119.184 14.998C119.114 15.0075 119.019 15.0117 118.899 15.0117C118.606 15.0116 118.393 14.9075 118.261 14.6992C118.191 14.5887 118.142 14.4325 118.113 14.2305C117.94 14.4577 117.69 14.655 117.365 14.8223C117.04 14.9896 116.682 15.0732 116.29 15.0732C115.82 15.0732 115.435 14.9314 115.135 14.6475C114.838 14.3602 114.689 14.0016 114.689 13.5723C114.689 13.1018 114.836 12.7365 115.13 12.4775C115.423 12.2188 115.809 12.06 116.285 12L117.645 11.8291C117.84 11.8038 117.972 11.7219 118.038 11.583C118.076 11.5072 118.095 11.3979 118.095 11.2559C118.095 10.9655 117.991 10.7554 117.782 10.626C117.577 10.4934 117.282 10.4268 116.896 10.4268C116.451 10.4268 116.136 10.5472 115.949 10.7871C115.845 10.9197 115.777 11.1169 115.745 11.3789H114.95C114.966 10.7539 115.167 10.3193 115.556 10.0762C115.947 9.82993 116.4 9.70707 116.915 9.70703ZM118.071 12.3213C117.967 12.3876 117.832 12.4431 117.668 12.4873C117.504 12.5314 117.343 12.5631 117.186 12.582L116.669 12.6484C116.36 12.6895 116.127 12.7544 115.973 12.8428C115.711 12.9911 115.58 13.2278 115.58 13.5527C115.58 13.799 115.67 13.9937 115.85 14.1357C116.03 14.2778 116.243 14.3486 116.489 14.3486C116.789 14.3486 117.079 14.2795 117.36 14.1406C117.834 13.9102 118.071 13.5328 118.071 13.0088V12.3213Z" fill="white"/>
<path fill-rule="evenodd" clip-rule="evenodd" d="M78.0889 10.4463C78.2751 10.2032 78.498 10.0179 78.7568 9.8916C79.0158 9.76214 79.2975 9.69824 79.6006 9.69824C80.2319 9.69832 80.7433 9.9159 81.1348 10.3516C81.5294 10.7841 81.7266 11.4234 81.7266 12.2695C81.7266 13.0715 81.5329 13.7381 81.1445 14.2686C80.7562 14.799 80.2176 15.0644 79.5293 15.0645C79.1441 15.0645 78.8189 14.9705 78.5537 14.7842C78.3958 14.6737 78.2268 14.497 78.0469 14.2539V14.9033H77.2607V7.92188H78.0889V10.4463ZM79.501 10.46C79.1126 10.46 78.7712 10.6043 78.4775 10.8916C78.1872 11.179 78.042 11.6528 78.042 12.3125C78.042 12.7891 78.1017 13.1759 78.2217 13.4727C78.4459 14.0315 78.865 14.3105 79.4775 14.3105C79.9383 14.3104 80.2825 14.1278 80.5098 13.7617C80.7402 13.3955 80.8554 12.9123 80.8555 12.3125C80.8555 11.779 80.7401 11.3368 80.5098 10.9863C80.2825 10.6359 79.9461 10.46 79.501 10.46Z" fill="white"/>
<path d="M47.6045 9.68359C48.1757 9.68366 48.6394 9.82288 48.9961 10.1006C49.356 10.3784 49.5729 10.8564 49.6455 11.5352H48.8164C48.7659 11.2227 48.6506 10.964 48.4707 10.7588C48.2908 10.5505 48.0021 10.4464 47.6045 10.4463C47.0614 10.4463 46.6721 10.7117 46.4385 11.2422C46.2871 11.5862 46.2119 12.0108 46.2119 12.5156C46.2119 13.024 46.3185 13.4525 46.5332 13.7998C46.7479 14.147 47.0861 14.3202 47.5469 14.3203C47.9005 14.3203 48.1805 14.2128 48.3857 13.998C48.594 13.7802 48.7375 13.483 48.8164 13.1074H49.6455C49.5508 13.78 49.3135 14.2733 48.9346 14.5859C48.5557 14.8952 48.0707 15.0498 47.4805 15.0498C46.8177 15.0497 46.2891 14.8081 45.8945 14.3252C45.4999 13.839 45.3018 13.2329 45.3018 12.5068C45.3018 11.6164 45.5186 10.9225 45.9512 10.4268C46.3837 9.9312 46.9352 9.68359 47.6045 9.68359Z" fill="white"/>
<path d="M51.0596 9.83008V13.1982C51.0596 13.457 51.1006 13.6689 51.1826 13.833C51.3342 14.1359 51.6169 14.2871 52.0303 14.2871C52.6239 14.2871 53.0285 14.0217 53.2432 13.4912C53.3599 13.2071 53.418 12.8168 53.418 12.3213V9.83008H54.2705V14.9033H53.4658L53.4746 14.1543C53.3641 14.3469 53.2267 14.51 53.0625 14.6426C52.7373 14.9076 52.3429 15.04 51.8789 15.04C51.1558 15.04 50.6634 14.7985 50.4014 14.3154C50.2593 14.0565 50.1885 13.7109 50.1885 13.2783V9.83008H51.0596Z" fill="white"/>
<path d="M102.881 13.1982C102.881 13.457 102.922 13.6689 103.004 13.833C103.155 14.1359 103.438 14.287 103.852 14.2871C104.445 14.2871 104.85 14.0217 105.064 13.4912C105.181 13.2071 105.239 12.8169 105.239 12.3213V9.83008H106.092V14.9033H105.287L105.297 14.1543C105.186 14.3469 105.049 14.51 104.885 14.6426C104.56 14.9078 104.164 15.04 103.7 15.04C102.977 15.04 102.485 14.7985 102.223 14.3154C102.081 14.0565 102.01 13.7108 102.01 13.2783V9.83008H102.881V13.1982Z" fill="white"/>
<path d="M63.3252 8.41406V9.83008H64.1348V10.5264H63.3252V13.8369C63.3252 14.0136 63.385 14.1324 63.5049 14.1924C63.5712 14.2271 63.6822 14.2441 63.8369 14.2441H63.9688C64.0161 14.241 64.0717 14.2368 64.1348 14.2305V14.9033C64.037 14.9317 63.9344 14.9522 63.8271 14.9648C63.723 14.9775 63.6094 14.9834 63.4863 14.9834C63.0885 14.9834 62.8179 14.8827 62.6758 14.6807C62.5337 14.4754 62.4629 14.2099 62.4629 13.8848V10.5264H61.7764V9.83008H62.4629V8.41406H63.3252Z" fill="white"/>
<path d="M56.1914 14.9033H55.3389V7.94531H56.1914V14.9033Z" fill="white"/>
<path d="M97.7725 7.92188V10.5176C97.9745 10.2619 98.1564 10.0817 98.3174 9.97754C98.592 9.7976 98.9344 9.70708 99.3447 9.70703C100.08 9.70703 100.58 9.96481 100.842 10.4795C100.984 10.7605 101.055 11.1507 101.055 11.6494V14.9033H100.179V11.7061C100.179 11.3335 100.131 11.0604 100.036 10.8867C99.8814 10.6089 99.5913 10.4697 99.165 10.4697C98.8114 10.4697 98.4905 10.5918 98.2031 10.835C97.9161 11.0782 97.7725 11.5376 97.7725 12.2129V14.9033H96.9199V7.92188H97.7725Z" fill="white"/>
<path d="M112.37 9.7168C113.052 9.7168 113.516 9.96348 113.763 10.4561C113.895 10.7213 113.962 11.0781 113.962 11.5264V14.9033H113.076V11.3789C113.076 11.0412 112.991 10.8089 112.82 10.6826C112.653 10.5565 112.448 10.4932 112.205 10.4932C111.87 10.4932 111.581 10.6059 111.338 10.8301C111.098 11.0543 110.979 11.4282 110.979 11.9521V14.9033H110.111V11.5928C110.111 11.2486 110.07 10.9967 109.988 10.8389C109.859 10.6022 109.617 10.4844 109.264 10.4844C108.942 10.4844 108.648 10.609 108.383 10.8584C108.121 11.1078 107.989 11.5593 107.989 12.2129V14.9033H107.137V9.83008H107.979V10.5508C108.182 10.3014 108.365 10.1195 108.529 10.0059C108.81 9.81325 109.13 9.7168 109.486 9.7168C109.89 9.71684 110.216 9.81583 110.462 10.0146C110.601 10.1283 110.727 10.2965 110.841 10.5176C111.03 10.246 111.253 10.0455 111.509 9.91602C111.764 9.78348 112.051 9.71685 112.37 9.7168Z" fill="white"/>
<path d="M122.502 9.7168C123.222 9.7168 123.708 9.96769 123.961 10.4697C124.1 10.7444 124.169 11.1379 124.169 11.6494V14.9033H123.303V11.7061C123.303 11.3968 123.257 11.1474 123.165 10.958C123.013 10.6423 122.739 10.4844 122.341 10.4844C122.139 10.4844 121.973 10.5049 121.844 10.5459C121.61 10.6154 121.404 10.7536 121.228 10.9619C121.085 11.1293 120.992 11.3034 120.948 11.4834C120.907 11.6602 120.887 11.9146 120.887 12.2461V14.9033H120.034V9.83008H120.845V10.5508C121.085 10.2541 121.338 10.0406 121.606 9.91113C121.875 9.78169 122.174 9.71681 122.502 9.7168Z" fill="white"/>
</svg>
