<svg width="131" height="42" viewBox="0 0 131 42" fill="none" xmlns="http://www.w3.org/2000/svg">
<path d="M0.5 0.5H116C124.008 0.5 130.5 6.99187 130.5 15V41.5H15C6.99187 41.5 0.5 35.0081 0.5 27V0.5Z" fill="black" stroke="#ACACAC"/>
<path d="M17.9605 24.1575C21.4266 26.9643 26.3836 26.9643 29.8497 24.1575L28.5095 22.5026C25.8248 24.6766 21.9854 24.6766 19.3007 22.5026L17.9605 24.1575Z" fill="white"/>
<path d="M19.404 20.5134V17.6365H21.5336V20.5134H19.404Z" fill="white"/>
<path d="M26.012 17.6365V20.5134H28.1415V17.6365H26.012Z" fill="white"/>
<path fill-rule="evenodd" clip-rule="evenodd" d="M35 21.5C35 27.8513 29.8513 33 23.5 33C17.1487 33 12 27.8513 12 21.5C12 15.1487 17.1487 10 23.5 10C29.8513 10 35 15.1487 35 21.5ZM32.8705 21.5C32.8705 26.6752 28.6752 30.8705 23.5 30.8705C18.3248 30.8705 14.1295 26.6752 14.1295 21.5C14.1295 16.3248 18.3248 12.1295 23.5 12.1295C28.6752 12.1295 32.8705 16.3248 32.8705 21.5Z" fill="white"/>
<path d="M69.322 7.97404C69.21 7.68516 69.0146 7.29302 68.8192 7L68.0864 7.14611C68.2214 7.39433 68.3715 7.70602 68.4762 7.97404H65.7976V9.55197H66.4903V8.58768H71.3088V9.55197H72.0316V7.97404H69.322Z" fill="white"/>
<path d="M69.4517 14.6267L70.0038 14.2273C70.7266 14.578 71.6802 15.1235 72.1822 15.4936L71.5999 15.9514C71.1281 15.5813 70.1845 15.0066 69.4517 14.6267Z" fill="white"/>
<path d="M67.5845 14.3053L68.2972 14.5683C67.6748 15.0942 66.681 15.63 65.8779 15.9514C65.7575 15.815 65.4764 15.5423 65.3057 15.4157C66.1289 15.1527 67.0424 14.7338 67.5845 14.3053Z" fill="white"/>
<path d="M63.6594 7.70131L64.091 7.18507C64.603 7.41884 65.2957 7.78897 65.6671 8.04222L65.2154 8.6169C64.864 8.36365 64.1714 7.97404 63.6594 7.70131Z" fill="white"/>
<path d="M63.0671 10.3507L63.4787 9.80522C63.9806 10.0195 64.6733 10.3702 65.0347 10.6039L64.603 11.2078C64.2617 10.9643 63.5791 10.5845 63.0671 10.3507Z" fill="white"/>
<path d="M63.3582 15.3183C63.7999 14.5683 64.4223 13.3118 64.8841 12.2111L65.4764 12.6591C65.0548 13.6721 64.4926 14.88 64.0208 15.7761L63.3582 15.3183Z" fill="white"/>
<path d="M57.2502 7.26288C57.2517 7.19692 57.2531 7.13484 57.2546 7.07796H58.0878L58.0868 7.12014C58.0788 7.46814 58.0679 7.93816 58.023 8.4854C58.1645 9.63085 58.7757 13.7624 62.3542 15.3086C62.1334 15.4741 61.9125 15.7274 61.8021 15.9319C59.2782 14.7879 58.1908 12.3835 57.6973 10.5635C57.2243 12.5132 56.1553 14.6933 53.7009 15.9709C53.5704 15.7761 53.3195 15.5521 53.0886 15.3962C57.1129 13.4205 57.2128 8.94216 57.2501 7.26619L57.2502 7.26512L57.2502 7.26288Z" fill="white"/>
<path d="M49.0432 14.2954L48.5714 14.7825C49.7058 15.1428 50.8502 15.6104 51.5328 15.9805L52.1452 15.474C51.4124 15.1039 50.1776 14.6461 49.0432 14.2954Z" fill="white"/>
<path d="M46.0919 14.2954L46.7846 14.724C45.9413 15.2208 44.5961 15.7273 43.522 16C43.4116 15.8539 43.1606 15.6006 43 15.4643C44.0741 15.211 45.4193 14.7143 46.0919 14.2954Z" fill="white"/>
<path fill-rule="evenodd" clip-rule="evenodd" d="M68.488 10.078H66.5204V9.46431H71.2285V10.078H69.2007V10.7987H71.6401V14.1397H66.1389V10.7987H68.488V10.078ZM68.488 11.3734H66.8216V12.1916H68.488V11.3734ZM68.488 12.7371H66.8216V13.5747H68.488V12.7371ZM69.2007 13.5747V12.7371H70.9374V13.5747H69.2007ZM69.2007 12.1916V11.3734H70.9374V12.1916H69.2007Z" fill="white"/>
<path fill-rule="evenodd" clip-rule="evenodd" d="M73.5375 7.97413H76.1073V13.4774H74.2301V14.5196H73.5375V7.97413ZM75.4046 12.7956H74.2301V8.64621H75.4046V12.7956Z" fill="white"/>
<path fill-rule="evenodd" clip-rule="evenodd" d="M81.227 15.9515V15.6106H77.4224V15.9904H76.6695V11.7047H82V15.9515H81.227ZM77.4224 14.9774V13.9352H80.8154V13.3216H77.4224V12.3378H81.227V14.9774H77.4224Z" fill="white"/>
<path fill-rule="evenodd" clip-rule="evenodd" d="M77.0008 7.44815H81.6386V11.0229H77.0008V7.44815ZM77.7236 9.50336V10.4287H80.8757V9.50336H77.7236ZM77.7236 8.03257V8.94816H80.8757V8.03257H77.7236Z" fill="white"/>
<path fill-rule="evenodd" clip-rule="evenodd" d="M43.1907 13.5162H44.6363V9.11357H47.166V8.49992H43.4718V7.8668H47.166V7.05835H47.9089V7.8668H51.844V8.49992H47.9089V9.11357H50.6896V13.5162H52.105V14.1396H43.1907V13.5162ZM45.3591 12.8344V13.5162H49.9367V12.8344H45.3591ZM49.9367 11.7824V12.3668H45.3591V11.7824H49.9367ZM49.9367 11.3051H45.3591V10.7305H49.9367V11.3051ZM45.3591 9.62981V10.2727H49.9367V9.62981H45.3591Z" fill="white"/>
<path fill-rule="evenodd" clip-rule="evenodd" d="M105.32 26.2505C105.32 25.9898 105.336 25.4196 105.336 25.4196H101.424V23.8717H105.573C105.764 26.2238 106.11 28.471 106.651 30.2984C105.776 31.2876 104.759 32.1157 103.612 32.7515C104.107 33.2077 104.953 34.2016 105.288 34.7067C106.138 34.1597 106.93 33.5082 107.658 32.7639C108.338 33.9391 109.193 34.6415 110.254 34.6415C111.898 34.6415 112.649 33.9572 113 30.78C112.377 30.5356 111.563 29.9817 111.036 29.4277C110.956 31.4155 110.765 32.2301 110.445 32.2301C110.06 32.2301 109.67 31.686 109.312 30.7655C110.465 29.1244 111.389 27.1985 112.058 25.0611L109.711 24.4908C109.396 25.6095 108.983 26.659 108.478 27.6243C108.264 26.4884 108.09 25.2105 107.974 23.8717H112.84V21.5418H111.142L111.946 20.6945C111.387 20.1568 110.27 19.4399 109.455 19L108.05 20.4175C108.553 20.7329 109.148 21.1437 109.647 21.5418H107.835C107.811 20.7923 107.808 20.0385 107.827 19.2933H105.384C105.387 20.0364 105.403 20.7892 105.433 21.5418H98.9812V26.4297C98.9812 28.5642 98.9014 31.4481 97.7199 33.3707C98.2468 33.6477 99.3006 34.5275 99.6997 35C100.514 33.7498 100.957 32.0088 101.189 30.2753C101.506 30.8638 101.745 31.7506 101.775 32.4257C102.51 32.4257 103.18 32.4094 103.612 32.3279C104.091 32.2301 104.458 32.0672 104.809 31.5947C105.192 31.0733 105.272 29.5743 105.32 26.2505ZM101.197 30.2141C101.316 29.3052 101.378 28.4 101.406 27.5703H103.058C103.023 29.1922 102.963 29.8644 102.829 30.0631C102.701 30.2261 102.558 30.275 102.35 30.275C102.102 30.275 101.674 30.2596 101.197 30.2141Z" fill="white"/>
<path d="M86.8673 22.112C87.1314 21.4187 87.3672 20.705 87.565 19.9939L85.1541 19.4399C84.6112 21.6395 83.5893 23.8717 82.3599 25.2077C82.9507 25.5336 83.9885 26.2342 84.4515 26.6415C84.9297 26.0332 85.4007 25.2744 85.839 24.4257H88.9062V26.9185H84.7709V29.1996H88.9062V32.002H82.8708V34.3157H97.4005V32.002H91.3332V29.1996H95.9156V26.9185H91.3332V24.4257H96.5543V22.112H91.3332V19.277H88.9062V22.112H86.8673Z" fill="white"/>
<path d="M47.3436 28.4645C47.4377 28.0285 47.4856 27.6141 47.4988 27.2444H43.8462V25.11H47.5026V23.4807H43.6866V21.2811H47.5026V19.3585H49.8018V27C49.8018 29.8513 48.9396 33.0611 45.0278 34.9837C44.6446 34.4134 43.9261 33.6802 43.3672 33.224C44.7784 32.6761 45.7414 31.786 46.3804 30.8057C45.6568 30.9237 44.9507 31.0375 44.2921 31.1436L43.4151 31.2851L43 28.9226C44.1273 28.8236 45.7056 28.6496 47.3436 28.4645Z" fill="white"/>
<path fill-rule="evenodd" clip-rule="evenodd" d="M72.6755 34.3304L67.632 19.7975H64.2696L59.1875 34.3304H62.2986L63.2841 31.3429H68.5305L69.4484 34.3304H72.6755ZM65.9218 23.1201L67.6996 28.8386H64.0861L65.9218 23.1201Z" fill="white"/>
<path d="M53.7456 19.3585V21.2811H57.9289V23.4807H53.7456V25.11H57.5457V27.2444H53.7456V28.9063H58.2163V31.1059H53.7456V34.7556H51.4144V19.3585H53.7456Z" fill="white"/>
<path d="M75.2124 22.2695V31.8617H73.4582V34.3337H79.7189V31.8617H78.169V22.2695H79.7189V19.7975H73.4582V22.2695H75.2124Z" fill="white"/>
</svg>
