<svg width="131" height="42" viewBox="0 0 131 42" fill="none" xmlns="http://www.w3.org/2000/svg">
<path d="M0.5 0.5H116C124.008 0.5 130.5 6.99187 130.5 15V41.5H15C6.99187 41.5 0.5 35.0081 0.5 27V0.5Z" fill="white" stroke="black"/>
<path d="M16.9605 24.1575C20.4266 26.9643 25.3836 26.9643 28.8497 24.1575L27.5095 22.5026C24.8248 24.6766 20.9854 24.6766 18.3007 22.5026L16.9605 24.1575Z" fill="black"/>
<path d="M18.404 20.5134V17.6365H20.5336V20.5134H18.404Z" fill="black"/>
<path d="M25.012 17.6365V20.5134H27.1415V17.6365H25.012Z" fill="black"/>
<path fill-rule="evenodd" clip-rule="evenodd" d="M34 21.5C34 27.8513 28.8513 33 22.5 33C16.1487 33 11 27.8513 11 21.5C11 15.1487 16.1487 10 22.5 10C28.8513 10 34 15.1487 34 21.5ZM31.8705 21.5C31.8705 26.6752 27.6752 30.8705 22.5 30.8705C17.3248 30.8705 13.1295 26.6752 13.1295 21.5C13.1295 16.3248 17.3248 12.1295 22.5 12.1295C27.6752 12.1295 31.8705 16.3248 31.8705 21.5Z" fill="black"/>
<path fill-rule="evenodd" clip-rule="evenodd" d="M104.32 26.2505C104.32 25.9898 104.336 25.4196 104.336 25.4196H100.424V23.8717H104.573C104.764 26.2238 105.11 28.471 105.651 30.2984C104.776 31.2876 103.759 32.1157 102.612 32.7515C103.107 33.2077 103.953 34.2016 104.288 34.7067C105.138 34.1597 105.93 33.5082 106.658 32.7639C107.338 33.9391 108.193 34.6415 109.254 34.6415C110.898 34.6415 111.649 33.9572 112 30.78C111.377 30.5356 110.563 29.9817 110.036 29.4277C109.956 31.4155 109.765 32.2301 109.445 32.2301C109.06 32.2301 108.67 31.686 108.312 30.7655C109.465 29.1244 110.389 27.1985 111.058 25.0611L108.711 24.4908C108.396 25.6095 107.983 26.659 107.478 27.6243C107.264 26.4884 107.09 25.2105 106.974 23.8717H111.84V21.5418H110.142L110.946 20.6945C110.387 20.1568 109.27 19.4399 108.455 19L107.05 20.4175C107.553 20.7329 108.148 21.1437 108.647 21.5418H106.835C106.811 20.7923 106.808 20.0385 106.827 19.2933H104.384C104.387 20.0364 104.403 20.7892 104.433 21.5418H97.9812V26.4297C97.9812 28.5642 97.9014 31.4481 96.7199 33.3707C97.2468 33.6477 98.3006 34.5275 98.6997 35C99.5135 33.7498 99.9567 32.0088 100.189 30.2753C100.506 30.8638 100.745 31.7506 100.775 32.4257C101.51 32.4257 102.18 32.4094 102.612 32.3279C103.091 32.2301 103.458 32.0672 103.809 31.5947C104.192 31.0733 104.272 29.5743 104.32 26.2505ZM100.197 30.2141C100.316 29.3052 100.378 28.4 100.406 27.5703H102.058C102.023 29.1922 101.963 29.8644 101.829 30.0631C101.701 30.2261 101.558 30.275 101.35 30.275C101.102 30.275 100.674 30.2596 100.197 30.2141Z" fill="black"/>
<path d="M85.8673 22.112C86.1314 21.4187 86.3672 20.705 86.565 19.9939L84.1541 19.4399C83.6112 21.6395 82.5893 23.8717 81.3599 25.2077C81.9507 25.5336 82.9885 26.2342 83.4515 26.6415C83.9297 26.0332 84.4007 25.2744 84.839 24.4257H87.9062V26.9185H83.7709V29.1996H87.9062V32.002H81.8708V34.3157H96.4005V32.002H90.3332V29.1996H94.9156V26.9185H90.3332V24.4257H95.5543V22.112H90.3332V19.277H87.9062V22.112H85.8673Z" fill="black"/>
<path d="M46.3436 28.4645C46.4377 28.0285 46.4856 27.6141 46.4988 27.2444H42.8462V25.11H46.5026V23.4807H42.6866V21.2811H46.5026V19.3585H48.8018V27C48.8018 29.8513 47.9396 33.0611 44.0278 34.9837C43.6446 34.4134 42.9261 33.6802 42.3672 33.224C43.7784 32.6761 44.7414 31.786 45.3804 30.8057C44.6568 30.9237 43.9507 31.0375 43.2921 31.1436L42.4151 31.2851L42 28.9226C43.1273 28.8236 44.7056 28.6496 46.3436 28.4645Z" fill="black"/>
<path fill-rule="evenodd" clip-rule="evenodd" d="M71.6755 34.3304L66.632 19.7975H63.2696L58.1875 34.3304H61.2986L62.2841 31.3429H67.5305L68.4484 34.3304H71.6755ZM64.9218 23.1201L66.6996 28.8386H63.0861L64.9218 23.1201Z" fill="black"/>
<path d="M52.7456 19.3585V21.2811H56.9289V23.4807H52.7456V25.11H56.5457V27.2444H52.7456V28.9063H57.2163V31.1059H52.7456V34.7556H50.4144V19.3585H52.7456Z" fill="black"/>
<path d="M74.2124 22.2695V31.8617H72.4582V34.3337H78.7189V31.8617H77.169V22.2695H78.7189V19.7975H72.4582V22.2695H74.2124Z" fill="black"/>
<path d="M67.8192 7C68.0146 7.29301 68.21 7.68515 68.322 7.97401H71.0316V9.55191H70.3088V8.58764H65.4903V9.55191H64.7976V7.97401H67.4762C67.3715 7.706 67.2214 7.39432 67.0864 7.1461L67.8192 7Z" fill="black"/>
<path d="M69.0038 14.2272L68.4517 14.6265C69.1845 15.0064 70.1281 15.581 70.5999 15.9512L71.1822 15.4934C70.6802 15.1232 69.7266 14.5778 69.0038 14.2272Z" fill="black"/>
<path d="M66.5845 14.3051L67.2972 14.5681C66.6748 15.094 65.681 15.6297 64.8779 15.9512C64.7575 15.8148 64.4764 15.5421 64.3057 15.4154C65.1289 15.1525 66.0424 14.7336 66.5845 14.3051Z" fill="black"/>
<path d="M63.091 7.18506L62.6594 7.70129C63.1714 7.97401 63.864 8.36361 64.2154 8.61686L64.6671 8.04219C64.2957 7.78895 63.603 7.41882 63.091 7.18506Z" fill="black"/>
<path d="M62.0671 10.3506L62.4787 9.80515C62.9806 10.0194 63.6733 10.3701 64.0347 10.6038L63.603 11.2077C63.2617 10.9642 62.5791 10.5844 62.0671 10.3506Z" fill="black"/>
<path d="M63.8841 12.211C63.4223 13.3116 62.7999 14.5681 62.3582 15.318L63.0208 15.7758C63.4926 14.8797 64.0548 13.672 64.4764 12.659L63.8841 12.211Z" fill="black"/>
<path d="M56.2502 7.26287C56.2517 7.19692 56.2531 7.13484 56.2546 7.07796H57.0878L57.0868 7.12013C57.0788 7.46813 57.0679 7.93814 57.023 8.48536C57.1645 9.63078 57.7757 13.7622 61.3542 15.3083C61.1334 15.4739 60.9125 15.7272 60.8021 15.9317C58.2782 14.7877 57.1908 12.3834 56.6973 10.5634C56.2243 12.513 55.1553 14.6931 52.7009 15.9707C52.5704 15.7759 52.3195 15.5518 52.0886 15.396C56.1129 13.4203 56.2128 8.94211 56.2501 7.26619L56.2502 7.26511L56.2502 7.26287Z" fill="black"/>
<path d="M47.5714 14.7825L48.0432 14.2955C49.1776 14.6461 50.4124 15.1039 51.1452 15.474L50.5328 15.9805C49.8502 15.6104 48.7058 15.1429 47.5714 14.7825Z" fill="black"/>
<path d="M45.0919 14.2955L45.7846 14.724C44.9413 15.2208 43.5961 15.7273 42.522 16C42.4116 15.8539 42.1606 15.6007 42 15.4643C43.0741 15.2111 44.4193 14.7143 45.0919 14.2955Z" fill="black"/>
<path fill-rule="evenodd" clip-rule="evenodd" d="M65.5204 10.0779H67.488V10.7986H65.1389V14.1395H70.6401V10.7986H68.2007V10.0779H70.2285V9.46425H65.5204V10.0779ZM65.8216 11.3733H67.488V12.1915H65.8216V11.3733ZM65.8216 12.7369H67.488V13.5746H65.8216V12.7369ZM68.2007 12.7369V13.5746H69.9374V12.7369H68.2007ZM68.2007 11.3733V12.1915H69.9374V11.3733H68.2007Z" fill="black"/>
<path fill-rule="evenodd" clip-rule="evenodd" d="M72.5375 7.9741H75.1073V13.4773H73.2301V14.5194H72.5375V7.9741ZM74.4046 12.7955H73.2301V8.64617H74.4046V12.7955Z" fill="black"/>
<path fill-rule="evenodd" clip-rule="evenodd" d="M80.227 15.6103V15.9512H81V11.7046H75.6695V15.9902H76.4224V15.6103H80.227ZM76.4224 13.935V14.9772H80.227V12.3377H76.4224V13.3214H79.8154V13.935H76.4224Z" fill="black"/>
<path fill-rule="evenodd" clip-rule="evenodd" d="M76.0008 7.44814H80.6386V11.0228H76.0008V7.44814ZM76.7236 9.5033V10.4286H79.8757V9.5033H76.7236ZM76.7236 8.03254V8.94811H79.8757V8.03254H76.7236Z" fill="black"/>
<path fill-rule="evenodd" clip-rule="evenodd" d="M43.6363 13.5163H42.1907V14.1396H51.105V13.5163H49.6896V9.11375H46.9089V8.50012H50.844V7.86701H46.9089V7.05859H46.166V7.86701H42.4718V8.50012H46.166V9.11375H43.6363V13.5163ZM44.3591 13.5163V12.8345H48.9367V13.5163H44.3591ZM48.9367 12.3669V11.7825H44.3591V12.3669H48.9367ZM44.3591 10.7306V11.3053H48.9367V10.7306H44.3591ZM48.9367 10.2728V9.62997H44.3591V10.2728H48.9367Z" fill="black"/>
</svg>
