<svg width="131" height="42" viewBox="0 0 131 42" fill="none" xmlns="http://www.w3.org/2000/svg">
<path d="M0.5 0.5H116C124.008 0.5 130.5 6.99187 130.5 15V41.5H15C6.99187 41.5 0.5 35.0081 0.5 27V0.5Z" fill="white" stroke="black"/>
<path d="M16.9605 24.1575C20.4266 26.9643 25.3836 26.9643 28.8497 24.1575L27.5095 22.5026C24.8248 24.6766 20.9854 24.6766 18.3007 22.5026L16.9605 24.1575Z" fill="black"/>
<path d="M18.404 20.5134V17.6365H20.5336V20.5134H18.404Z" fill="black"/>
<path d="M25.012 17.6365V20.5134H27.1415V17.6365H25.012Z" fill="black"/>
<path fill-rule="evenodd" clip-rule="evenodd" d="M34 21.5C34 27.8513 28.8513 33 22.5 33C16.1487 33 11 27.8513 11 21.5C11 15.1487 16.1487 10 22.5 10C28.8513 10 34 15.1487 34 21.5ZM31.8705 21.5C31.8705 26.6752 27.6752 30.8705 22.5 30.8705C17.3248 30.8705 13.1295 26.6752 13.1295 21.5C13.1295 16.3248 17.3248 12.1295 22.5 12.1295C27.6752 12.1295 31.8705 16.3248 31.8705 21.5Z" fill="black"/>
<path d="M68.322 7.97404C68.21 7.68516 68.0146 7.29302 67.8192 7L67.0864 7.14611C67.2214 7.39433 67.3715 7.70602 67.4762 7.97404H64.7976V9.55197H65.4903V8.58768H70.3088V9.55197H71.0316V7.97404H68.322Z" fill="black"/>
<path d="M68.4517 14.6267L69.0038 14.2273C69.7266 14.578 70.6802 15.1235 71.1822 15.4936L70.5999 15.9514C70.1281 15.5813 69.1845 15.0066 68.4517 14.6267Z" fill="black"/>
<path d="M66.5845 14.3053L67.2972 14.5683C66.6748 15.0942 65.681 15.63 64.8779 15.9514C64.7575 15.815 64.4764 15.5423 64.3057 15.4157C65.1289 15.1527 66.0424 14.7338 66.5845 14.3053Z" fill="black"/>
<path d="M62.6594 7.70131L63.091 7.18507C63.603 7.41884 64.2957 7.78897 64.6671 8.04222L64.2154 8.6169C63.864 8.36365 63.1714 7.97404 62.6594 7.70131Z" fill="black"/>
<path d="M62.0671 10.3507L62.4787 9.80522C62.9806 10.0195 63.6733 10.3702 64.0347 10.6039L63.603 11.2078C63.2617 10.9643 62.5791 10.5845 62.0671 10.3507Z" fill="black"/>
<path d="M62.3582 15.3183C62.7999 14.5683 63.4223 13.3118 63.8841 12.2111L64.4764 12.6591C64.0548 13.6721 63.4926 14.88 63.0208 15.7761L62.3582 15.3183Z" fill="black"/>
<path d="M56.2502 7.26288C56.2517 7.19692 56.2531 7.13484 56.2546 7.07796H57.0878L57.0868 7.12014C57.0788 7.46814 57.0679 7.93816 57.023 8.4854C57.1645 9.63085 57.7757 13.7624 61.3542 15.3086C61.1334 15.4741 60.9125 15.7274 60.8021 15.9319C58.2782 14.7879 57.1908 12.3835 56.6973 10.5635C56.2243 12.5132 55.1553 14.6933 52.7009 15.9709C52.5704 15.7761 52.3195 15.5521 52.0886 15.3962C56.1129 13.4205 56.2128 8.94216 56.2501 7.26619L56.2502 7.26512L56.2502 7.26288Z" fill="black"/>
<path d="M48.0432 14.2954L47.5714 14.7825C48.7058 15.1428 49.8502 15.6104 50.5328 15.9805L51.1452 15.474C50.4124 15.1039 49.1776 14.6461 48.0432 14.2954Z" fill="black"/>
<path d="M45.0919 14.2954L45.7846 14.724C44.9413 15.2208 43.5961 15.7273 42.522 16C42.4116 15.8539 42.1606 15.6006 42 15.4643C43.0741 15.211 44.4193 14.7143 45.0919 14.2954Z" fill="black"/>
<path fill-rule="evenodd" clip-rule="evenodd" d="M67.488 10.078H65.5204V9.46431H70.2285V10.078H68.2007V10.7987H70.6401V14.1397H65.1389V10.7987H67.488V10.078ZM67.488 11.3734H65.8216V12.1916H67.488V11.3734ZM67.488 12.7371H65.8216V13.5747H67.488V12.7371ZM68.2007 13.5747V12.7371H69.9374V13.5747H68.2007ZM68.2007 12.1916V11.3734H69.9374V12.1916H68.2007Z" fill="black"/>
<path fill-rule="evenodd" clip-rule="evenodd" d="M72.5375 7.97413H75.1073V13.4774H73.2301V14.5196H72.5375V7.97413ZM74.4046 12.7956H73.2301V8.64621H74.4046V12.7956Z" fill="black"/>
<path fill-rule="evenodd" clip-rule="evenodd" d="M80.227 15.9515V15.6106H76.4224V15.9904H75.6695V11.7047H81V15.9515H80.227ZM76.4224 14.9774V13.9352H79.8154V13.3216H76.4224V12.3378H80.227V14.9774H76.4224Z" fill="black"/>
<path fill-rule="evenodd" clip-rule="evenodd" d="M76.0008 7.44815H80.6386V11.0229H76.0008V7.44815ZM76.7236 9.50336V10.4287H79.8757V9.50336H76.7236ZM76.7236 8.03257V8.94816H79.8757V8.03257H76.7236Z" fill="black"/>
<path fill-rule="evenodd" clip-rule="evenodd" d="M42.1907 13.5162H43.6363V9.11357H46.166V8.49992H42.4718V7.8668H46.166V7.05835H46.9089V7.8668H50.844V8.49992H46.9089V9.11357H49.6896V13.5162H51.105V14.1396H42.1907V13.5162ZM44.3591 12.8344V13.5162H48.9367V12.8344H44.3591ZM48.9367 11.7824V12.3668H44.3591V11.7824H48.9367ZM48.9367 11.3051H44.3591V10.7305H48.9367V11.3051ZM44.3591 9.62981V10.2727H48.9367V9.62981H44.3591Z" fill="black"/>
<path fill-rule="evenodd" clip-rule="evenodd" d="M104.32 26.2505C104.32 25.9898 104.336 25.4196 104.336 25.4196H100.424V23.8717H104.573C104.764 26.2238 105.11 28.471 105.651 30.2984C104.776 31.2876 103.759 32.1157 102.612 32.7515C103.107 33.2077 103.953 34.2016 104.288 34.7067C105.138 34.1597 105.93 33.5082 106.658 32.7639C107.338 33.9391 108.193 34.6415 109.254 34.6415C110.898 34.6415 111.649 33.9572 112 30.78C111.377 30.5356 110.563 29.9817 110.036 29.4277C109.956 31.4155 109.765 32.2301 109.445 32.2301C109.06 32.2301 108.67 31.686 108.312 30.7655C109.465 29.1244 110.389 27.1985 111.058 25.0611L108.711 24.4908C108.396 25.6095 107.983 26.659 107.478 27.6243C107.264 26.4884 107.09 25.2105 106.974 23.8717H111.84V21.5418H110.142L110.946 20.6945C110.387 20.1568 109.27 19.4399 108.455 19L107.05 20.4175C107.553 20.7329 108.148 21.1437 108.647 21.5418H106.835C106.811 20.7923 106.808 20.0385 106.827 19.2933H104.384C104.387 20.0364 104.403 20.7892 104.433 21.5418H97.9812V26.4297C97.9812 28.5642 97.9014 31.4481 96.7199 33.3707C97.2468 33.6477 98.3006 34.5275 98.6997 35C99.5135 33.7498 99.9567 32.0088 100.189 30.2753C100.506 30.8638 100.745 31.7506 100.775 32.4257C101.51 32.4257 102.18 32.4094 102.612 32.3279C103.091 32.2301 103.458 32.0672 103.809 31.5947C104.192 31.0733 104.272 29.5743 104.32 26.2505ZM100.197 30.2141C100.316 29.3052 100.378 28.4 100.406 27.5703H102.058C102.023 29.1922 101.963 29.8644 101.829 30.0631C101.701 30.2261 101.558 30.275 101.35 30.275C101.102 30.275 100.674 30.2596 100.197 30.2141Z" fill="black"/>
<path d="M85.8673 22.112C86.1314 21.4187 86.3672 20.705 86.565 19.9939L84.1541 19.4399C83.6112 21.6395 82.5893 23.8717 81.3599 25.2077C81.9507 25.5336 82.9885 26.2342 83.4515 26.6415C83.9297 26.0332 84.4007 25.2744 84.839 24.4257H87.9062V26.9185H83.7709V29.1996H87.9062V32.002H81.8708V34.3157H96.4005V32.002H90.3332V29.1996H94.9156V26.9185H90.3332V24.4257H95.5543V22.112H90.3332V19.277H87.9062V22.112H85.8673Z" fill="black"/>
<path d="M46.3436 28.4645C46.4377 28.0285 46.4856 27.6141 46.4988 27.2444H42.8462V25.11H46.5026V23.4807H42.6866V21.2811H46.5026V19.3585H48.8018V27C48.8018 29.8513 47.9396 33.0611 44.0278 34.9837C43.6446 34.4134 42.9261 33.6802 42.3672 33.224C43.7784 32.6761 44.7414 31.786 45.3804 30.8057C44.6568 30.9237 43.9507 31.0375 43.2921 31.1436L42.4151 31.2851L42 28.9226C43.1273 28.8236 44.7056 28.6496 46.3436 28.4645Z" fill="black"/>
<path fill-rule="evenodd" clip-rule="evenodd" d="M71.6755 34.3304L66.632 19.7975H63.2696L58.1875 34.3304H61.2986L62.2841 31.3429H67.5305L68.4484 34.3304H71.6755ZM64.9218 23.1201L66.6996 28.8386H63.0861L64.9218 23.1201Z" fill="black"/>
<path d="M52.7456 19.3585V21.2811H56.9289V23.4807H52.7456V25.11H56.5457V27.2444H52.7456V28.9063H57.2163V31.1059H52.7456V34.7556H50.4144V19.3585H52.7456Z" fill="black"/>
<path d="M74.2124 22.2695V31.8617H72.4582V34.3337H78.7189V31.8617H77.169V22.2695H78.7189V19.7975H72.4582V22.2695H74.2124Z" fill="black"/>
</svg>
