<svg width="399" height="402" viewBox="0 0 399 402" fill="none" xmlns="http://www.w3.org/2000/svg">
<path d="M67.8169 477.547L64.0591 491.571L47.3016 487.081L17.4803 475.248L19.2811 468.527L51.0594 473.056L67.8169 477.547ZM-1.67705 473.621L1.90067 460.269L14.8496 463.738L11.2719 477.09L-1.67705 473.621Z" fill="black"/>
<path d="M63.045 426.533L33.5626 418.634L26.6473 444.442L56.1297 452.342L52.4679 466.008L-13.5763 448.311L-9.91454 434.645L15.2665 441.392L22.1818 415.584L-2.99922 408.837L0.674549 395.126L66.7188 412.823L63.045 426.533Z" fill="black"/>
<path d="M36.521 354.901C42.7932 352.163 49.454 351.739 56.5035 353.628C63.6725 355.549 69.2587 359.254 73.262 364.745C77.2355 370.228 78.0977 377.166 75.8487 385.56C73.5996 393.954 69.3838 399.531 63.2012 402.293C56.9888 405.046 50.2981 405.463 43.1291 403.542C36.0796 401.653 30.5233 397.955 26.4602 392.448C22.3971 386.941 21.4901 379.991 23.7391 371.597C25.9882 363.204 30.2488 357.638 36.521 354.901ZM34.5254 374.535C33.5249 378.269 34.0818 381.508 36.196 384.252C38.2884 386.957 41.784 388.966 46.6828 390.279C51.5816 391.592 55.6284 391.604 58.8231 390.315C62.0259 388.996 64.1275 386.469 65.128 382.735C66.1285 379.002 65.5676 375.778 63.4454 373.064C61.3231 370.35 57.8126 368.337 52.9138 367.025C48.015 365.712 43.9831 365.704 40.8183 367.001C37.6235 368.29 35.5259 370.802 34.5254 374.535Z" fill="black"/>
<path d="M15.6011 339.42L19.0227 326.65L85.067 344.346L81.6453 357.116L15.6011 339.42Z" fill="black"/>
<path d="M43.6361 324.762C40.2391 320.234 39.6412 313.863 41.8423 305.649C43.2749 300.302 45.608 295.836 48.8413 292.253C52.0747 288.669 56.6336 287.665 62.5182 289.242L84.9212 295.245C86.4745 295.661 88.3644 296.136 90.5908 296.668C92.2876 297.027 93.4907 297.077 94.2002 296.819C94.9096 296.561 95.5706 296.066 96.183 295.333L98.0649 295.837L94.3431 309.727C93.2533 309.852 92.2553 309.872 91.349 309.789C90.4427 309.707 89.425 309.562 88.2958 309.356C89.7353 311.63 90.819 314.098 91.5468 316.758C92.3936 319.93 92.3528 323.249 91.4244 326.714C90.2398 331.135 88.0048 334.458 84.7192 336.683C81.4119 338.87 77.4432 339.343 72.8132 338.103C66.8092 336.494 63.0833 333.015 61.6355 327.664C60.8522 324.733 60.8072 320.719 61.5005 315.622L62.1274 311.132C62.461 308.692 62.5399 306.904 62.3639 305.769C62.0755 303.739 61.1099 302.503 59.467 302.063C57.4656 301.527 55.9035 301.861 54.7805 303.064C53.6357 304.23 52.7031 306.158 51.9828 308.846C51.1744 311.863 51.3489 314.199 52.5063 315.854C53.3714 317.046 54.7048 318.043 56.5067 318.846L53.2051 331.168C49.0056 329.755 45.8159 327.619 43.6361 324.762ZM80.5028 324.46C81.8087 323.529 82.6938 322.197 83.158 320.465C83.8943 317.717 83.7642 314.977 82.7674 312.244C81.7787 309.482 79.1606 307.484 74.9131 306.25L70.1636 304.977C70.4553 305.92 70.6534 306.853 70.7579 307.778C70.8405 308.664 70.8241 309.861 70.7088 311.366L70.4781 314.378C70.2357 317.194 70.3019 319.277 70.6768 320.626C71.3135 322.91 72.8565 324.38 75.3059 325.036C77.4865 325.62 79.2188 325.428 80.5028 324.46Z" fill="black"/>
<path d="M54.4605 262.32L84.3146 274.21L82.5258 280.886L50.7027 276.345L33.9452 271.855L37.703 257.83L54.4605 262.32ZM90.4782 272.356L103.427 275.825L99.8494 289.177L86.9004 285.708L90.4782 272.356Z" fill="black"/>
<path d="M237.017 495.91L207.534 488.01L200.619 513.819L230.102 521.719L226.44 535.384L160.396 517.688L164.057 504.022L189.238 510.769L196.154 484.961L170.973 478.214L174.646 464.503L240.691 482.2L237.017 495.91Z" fill="black"/>
<path d="M199.176 462.929C195.779 458.401 195.181 452.03 197.382 443.815C198.815 438.469 201.148 434.003 204.381 430.42C207.614 426.836 212.173 425.832 218.058 427.409L240.461 433.412C242.014 433.828 243.904 434.302 246.13 434.835C247.827 435.194 249.03 435.244 249.74 434.986C250.449 434.728 251.11 434.232 251.723 433.5L253.604 434.004L249.883 447.894C248.793 448.018 247.795 448.039 246.889 447.956C245.982 447.874 244.965 447.729 243.835 447.522C245.275 449.797 246.359 452.265 247.086 454.925C247.933 458.097 247.892 461.416 246.964 464.881C245.779 469.302 243.544 472.625 240.259 474.85C236.951 477.037 232.983 477.51 228.353 476.27C222.349 474.661 218.623 471.181 217.175 465.831C216.392 462.9 216.347 458.886 217.04 453.789L217.667 449.299C218.001 446.859 218.079 445.071 217.904 443.936C217.615 441.905 216.649 440.67 215.007 440.23C213.005 439.694 211.443 440.028 210.32 441.231C209.175 442.397 208.243 444.325 207.522 447.013C206.714 450.03 206.888 452.366 208.046 454.02C208.911 455.213 210.244 456.21 212.046 457.013L208.745 469.335C204.545 467.922 201.356 465.786 199.176 462.929ZM236.042 462.627C237.348 461.696 238.233 460.364 238.698 458.632C239.434 455.884 239.304 453.144 238.307 450.411C237.318 447.649 234.7 445.651 230.453 444.417L225.703 443.144C225.995 444.087 226.193 445.02 226.297 445.945C226.38 446.831 226.364 448.027 226.248 449.533L226.018 452.545C225.775 455.361 225.841 457.444 226.216 458.793C226.853 461.077 228.396 462.547 230.846 463.203C233.026 463.787 234.758 463.595 236.042 462.627Z" fill="black"/>
<path d="M188.228 413.815L191.65 401.045L257.694 418.742L254.272 431.511L188.228 413.815Z" fill="black"/>
<path d="M193.35 394.699L196.772 381.929L262.816 399.626L259.395 412.395L193.35 394.699Z" fill="black"/>
<path d="M232.703 341.39C238.975 338.652 245.636 338.228 252.685 340.117C259.854 342.038 265.44 345.744 269.444 351.234C273.417 356.717 274.279 363.656 272.03 372.049C269.781 380.443 265.565 386.02 259.383 388.782C253.17 391.536 246.48 391.952 239.311 390.031C232.261 388.142 226.705 384.444 222.642 378.937C218.579 373.43 217.672 366.48 219.921 358.087C222.17 349.693 226.43 344.127 232.703 341.39ZM230.707 361.025C229.706 364.759 230.263 367.997 232.378 370.741C234.47 373.446 237.966 375.456 242.864 376.768C247.763 378.081 251.81 378.093 255.005 376.804C258.207 375.485 260.309 372.958 261.31 369.225C262.31 365.491 261.749 362.267 259.627 359.553C257.505 356.84 253.994 354.827 249.095 353.514C244.197 352.201 240.165 352.193 237 353.49C233.805 354.779 231.707 357.291 230.707 361.025Z" fill="black"/>
<path d="M233.554 312.581L263.409 324.471L261.62 331.147L229.797 326.606L213.039 322.115L216.797 308.091L233.554 312.581ZM269.572 322.616L282.521 326.086L278.943 339.438L265.994 335.969L269.572 322.616Z" fill="black"/>
<path d="M284.684 121.763L314.538 133.652L312.75 140.328L280.926 135.787L264.169 131.297L267.927 117.273L284.684 121.763ZM320.702 131.798L333.651 135.267L330.073 148.62L317.124 145.15L320.702 131.798Z" fill="black"/>
<path d="M120.567 211.857L112.547 241.787L46.5031 224.091L55.0992 192.01C57.3878 183.947 61.2694 178.84 66.744 176.689C70.0961 175.41 73.7287 175.295 77.6418 176.344C81.6743 177.424 84.6432 179.308 86.5483 181.996C87.6182 183.499 88.4246 185.508 88.9674 188.022C91.0965 184.975 93.7185 182.956 96.8332 181.966C99.9559 180.946 103.414 180.944 107.208 181.961C111.121 183.009 114.366 184.935 116.945 187.739C118.67 189.546 119.982 191.578 120.882 193.837C121.926 196.39 122.359 199.195 122.18 202.252C122.009 205.28 121.472 208.482 120.567 211.857ZM91.404 204.379L86.9979 220.823L104.607 225.541L108.953 209.321C109.729 206.424 109.945 204.064 109.601 202.243C108.951 198.932 106.595 196.732 102.533 195.643C99.0978 194.723 96.3578 195.509 94.313 198.003C93.1719 199.394 92.2022 201.519 91.404 204.379ZM80.6503 194.15C80.0552 192.07 78.3687 190.657 75.5907 189.913C72.514 189.088 70.1626 189.739 68.5366 191.865C67.2973 193.741 66.2495 196.278 65.393 199.474L61.5032 213.991L76.0652 217.893L80.4113 201.673C81.1876 198.776 81.2673 196.268 80.6503 194.15Z" fill="black"/>
<path d="M96.5164 130.994C102.789 128.257 109.449 127.832 116.499 129.721C123.668 131.642 129.254 135.348 133.257 140.839C137.231 146.322 138.093 153.26 135.844 161.654C133.595 170.047 129.379 175.625 123.197 178.386C116.984 181.14 110.293 181.556 103.124 179.635C96.075 177.746 90.5187 174.048 86.4555 168.542C82.3924 163.035 81.4854 156.085 83.7345 147.691C85.9836 139.297 90.2442 133.732 96.5164 130.994ZM94.5208 150.629C93.5203 154.363 94.0772 157.602 96.1914 160.345C98.2838 163.051 101.779 165.06 106.678 166.373C111.577 167.685 115.624 167.697 118.818 166.408C122.021 165.089 124.123 162.563 125.123 158.829C126.124 155.095 125.563 151.871 123.441 149.158C121.318 146.444 117.808 144.431 112.909 143.118C108.01 141.806 103.979 141.798 100.814 143.095C97.6189 144.384 95.5213 146.895 94.5208 150.629Z" fill="black"/>
<path d="M108.343 99.9399C107.182 104.271 108.223 107.736 111.465 110.333C113.183 111.69 115.55 112.772 118.567 113.581L145.002 120.664L141.593 133.389L92.8436 120.327L96.1452 108.005L103.269 109.914C101.2 107.599 99.8094 105.561 99.0964 103.801C97.8293 100.644 97.736 97.0497 98.8165 93.0172C100.169 87.969 102.603 84.203 106.118 81.7192C109.611 79.1975 114.419 78.757 120.543 80.3978L153.43 89.2101L149.925 102.293L120.218 94.3336C117.649 93.6453 115.586 93.4605 114.028 93.7794C111.182 94.3616 109.287 96.4151 108.343 99.9399Z" fill="black"/>
<path d="M106.42 70.1959L109.842 57.4262L163.699 71.8571C168.627 73.1777 172.012 75.125 173.851 77.6989C175.691 80.2728 175.85 84.3975 174.329 90.0729C174.225 90.4612 174.054 91.0397 173.816 91.8084C173.586 92.5471 173.304 93.48 172.97 94.6071L162.754 91.8698C163.006 91.1689 163.172 90.6691 163.252 90.3704C163.362 90.0797 163.449 89.8149 163.513 89.5759C163.849 88.3213 163.788 87.2964 163.329 86.501C162.907 85.6838 161.815 85.039 160.053 84.5668L106.42 70.1959ZM88.5873 65.4176L92.0089 52.6479L103.793 55.8054L100.371 68.5751L88.5873 65.4176Z" fill="black"/>
<path d="M128.259 12.5303C134.531 9.7928 141.192 9.3685 148.241 11.2574C155.41 13.1783 160.996 16.8842 165 22.375C168.973 27.8578 169.835 34.7961 167.586 43.1898C165.337 51.5835 161.121 57.161 154.939 59.9226C148.726 62.6761 142.036 63.0924 134.867 61.1714C127.817 59.2825 122.261 55.5847 118.198 50.0778C114.135 44.571 113.228 37.6207 115.477 29.2271C117.726 20.8334 121.986 15.2678 128.259 12.5303ZM126.263 32.1653C125.263 35.8991 125.819 39.1378 127.934 41.8814C130.026 44.587 133.522 46.5962 138.42 47.9088C143.319 49.2215 147.366 49.2333 150.561 47.9443C153.764 46.6254 155.865 44.099 156.866 40.3652C157.866 36.6314 157.305 33.4076 155.183 30.6939C153.061 27.9802 149.55 25.9671 144.651 24.6544C139.753 23.3418 135.721 23.334 132.556 24.631C129.361 25.92 127.264 28.4314 126.263 32.1653Z" fill="black"/>
<path d="M174.803 -18.1537C174.92 -17.9942 175.288 -17.5754 175.907 -16.8974C176.526 -16.2194 177.031 -15.4757 177.422 -14.6665C178.678 -12.1849 179.383 -9.91518 179.535 -7.85724C179.696 -5.82917 179.441 -3.56056 178.768 -1.05142C176.831 6.17731 172.928 10.3499 167.058 11.4664C163.814 12.1019 159.4 11.6714 153.814 10.1746L124.376 2.28685L127.882 -10.7965L157.32 -2.90875C160.097 -2.1644 162.276 -1.93271 163.857 -2.21368C166.648 -2.71432 168.5 -4.66728 169.412 -8.07254C170.581 -12.4337 169.619 -15.893 166.526 -18.4504C164.839 -19.7991 162.427 -20.8936 159.29 -21.734L132.72 -28.8534L136.19 -41.8024L185.029 -28.7161L181.703 -16.3048L174.803 -18.1537Z" fill="black"/>
<path d="M156.146 -69.1417C154.769 -64.0039 155.517 -60.1057 158.39 -57.4469C160.008 -55.9569 162.774 -54.6876 166.687 -53.6391L190.031 -47.3841L186.585 -34.5248L137.746 -47.6111L141.012 -59.7983L149.525 -57.5172C146.797 -60.3611 145.032 -62.675 144.23 -64.4588C142.869 -67.3847 142.7 -70.7594 143.725 -74.5829C143.789 -74.8218 143.856 -75.012 143.926 -75.1533C143.974 -75.3326 144.089 -75.7019 144.271 -76.2615L157.354 -72.7558C157.048 -71.9733 156.796 -71.2724 156.599 -70.6531C156.401 -70.0338 156.25 -69.53 156.146 -69.1417Z" fill="black"/>
<path d="M150.28 -95.2838L180.134 -83.3946L178.345 -76.7185L146.522 -81.2595L129.765 -85.7497L133.523 -99.774L150.28 -95.2838ZM186.298 -85.2488L199.247 -81.7791L195.669 -68.4269L182.72 -71.8965L186.298 -85.2488Z" fill="black"/>
<path d="M228.005 258.511C237.518 263.729 246.428 270.905 251.236 278.159C253.084 276.535 256.882 273.785 258.833 272.659C253.152 264.857 243.046 256.575 232.298 250.398L228.005 258.511ZM260.048 269.295C267.726 273.158 275.232 278.545 279.26 284.02C280.908 282.264 284.18 279.137 286.023 277.825C281.189 272.134 272.834 265.813 264.082 261.27L260.048 269.295ZM241.327 260.354L248.574 265.828L257.503 232.503L249.373 230.325L241.327 260.354ZM247.173 252.893L289.36 264.197C290.312 264.452 290.434 264.877 290.179 265.829C289.904 266.854 289.153 269.95 288.182 272.987C290.933 272.39 295.168 272.111 297.849 272.359C299.105 267.671 299.701 263.984 298.996 261.048C298.238 258.019 296.017 256.639 291.769 255.501L249.508 244.177L247.173 252.893ZM268.213 246.441C276.718 244.874 287.65 244.506 294.457 245.466L293.785 236.259C286.845 235.498 276.26 236.037 267.695 237.824L268.213 246.441ZM248.745 232.668L249.917 232.982C254.907 234.869 261.209 237.421 264.988 239.14L268.328 231.949C264.188 229.82 257.73 226.676 251.96 224.188L249.213 230.046L249.059 231.496L248.745 232.668ZM223.878 274.205C233.351 280.746 242.044 289.905 246.923 298.356C249.459 297.387 254.921 296.339 257.261 296.102C251.051 285.881 239.908 274.732 228.659 266.615L223.878 274.205ZM242.189 286.726L290.383 299.639L292.639 291.216L236.17 276.085L236.077 276.139L242.189 286.726Z" fill="black"/>
<path d="M252.466 180.991L260.595 183.17L268.563 153.433L260.433 151.255L252.466 180.991ZM277.287 190.311L285.563 192.529L296.396 152.099L288.12 149.881L277.287 190.311ZM272.858 172.561L311.164 182.825C312.189 183.1 312.384 183.544 312.143 184.736C311.883 186.001 310.789 189.789 309.642 193.486C312.299 192.942 316.501 192.497 319.035 192.706C320.561 187.305 321.347 183.198 320.814 179.916C320.188 176.686 318.079 175.179 313.685 174.002L275.233 163.699L272.858 172.561ZM259.59 154.404L261.494 154.915C265.3 158.289 271.196 165.286 274.213 170.726C275.758 169.648 278.823 167.879 280.675 167.119C277.372 160.111 271.276 151.805 266.062 145.777L260.21 150.332L260.159 152.28L259.59 154.404ZM255.234 214.311L263.364 216.489L269.703 192.832L261.573 190.654L255.234 214.311ZM243.289 200.591C257.256 206.767 275.532 215.903 286.26 222.153L291.992 215.996C279.731 209.021 261.24 199.514 246.385 192.55L243.289 200.591ZM286.036 218.011C293.15 211.675 303.333 204.434 309.998 201.824L304.307 194.647C297.675 197.423 287.98 205.187 281.178 211.529L286.036 218.011ZM260.769 193.657L262.38 194.088C285.132 201.755 299.572 212.61 302.754 226.808C304.91 225.502 308.687 224.002 311.125 223.399C306.002 206.483 291.719 195.042 263.606 185.703L261.334 190.668L261.141 192.265L260.769 193.657Z" fill="black"/>
<path fill-rule="evenodd" clip-rule="evenodd" d="M226.66 258.914L231.899 249.015L232.796 249.531C235.829 251.274 238.815 253.186 241.67 255.209L248.073 231.313L248.236 229.774L251.466 222.886L252.356 223.27C258.152 225.769 264.631 228.923 268.785 231.06L269.639 231.499L267.12 236.923L267.491 236.845C276.146 235.039 286.838 234.491 293.894 235.264L294.721 235.355L295.545 246.63L294.318 246.456C287.636 245.514 276.814 245.873 268.394 247.424L267.282 247.629L266.695 237.839L265.477 240.461L264.574 240.05C262.654 239.177 260.072 238.084 257.341 236.973L255.274 244.686L292.028 254.534C294.186 255.113 295.949 255.781 297.282 256.759C298.657 257.766 299.532 259.071 299.966 260.805L299.968 260.815C300.738 264.022 300.071 267.933 298.815 272.618L298.597 273.432L297.757 273.355C295.183 273.117 291.051 273.387 288.395 273.964L286.703 274.332L287.23 272.683C288.002 270.266 288.631 267.823 288.995 266.408C289.084 266.062 289.157 265.778 289.213 265.57C289.255 265.412 289.277 265.3 289.288 265.221C289.243 265.204 289.183 265.184 289.101 265.163L252.421 255.334L250.562 262.272C254.156 265.49 257.271 268.815 259.641 272.07L260.295 272.969L259.333 273.525C257.444 274.615 253.699 277.326 251.896 278.91L251.588 279.181L293.864 290.509L291.09 300.864L255.243 291.258C256.286 292.71 257.248 294.154 258.116 295.583L258.939 296.937L257.362 297.097C255.07 297.329 249.703 298.364 247.28 299.29L246.483 299.594L246.057 298.856C241.263 290.552 232.68 281.498 223.31 275.027L222.521 274.483L228.381 265.181L229.244 265.804C233.727 269.039 238.198 272.755 242.355 276.707L250.524 278.896L250.402 278.712C245.717 271.642 236.959 264.563 227.524 259.388L226.66 258.914ZM241.85 277.607C241.34 277.12 240.826 276.637 240.307 276.158C236.833 272.95 233.163 269.919 229.47 267.205C229.2 267.007 228.929 266.81 228.659 266.615L223.878 274.204C233.351 280.746 242.044 289.905 246.923 298.356C249.121 297.516 253.515 296.617 256.171 296.238C256.581 296.18 256.949 296.133 257.261 296.102C257.071 295.789 256.877 295.476 256.677 295.162C255.774 293.735 254.778 292.293 253.703 290.846C253.381 290.413 253.053 289.98 252.717 289.546L290.383 299.639L292.639 291.216L241.85 277.607ZM250.271 263.356C249.996 263.107 249.718 262.858 249.436 262.609L251.714 254.109L289.36 264.197C290.312 264.452 290.434 264.877 290.179 265.829C290.126 266.028 290.055 266.304 289.967 266.642C289.659 267.842 289.149 269.824 288.521 271.898C288.412 272.259 288.299 272.624 288.182 272.987C288.532 272.911 288.906 272.84 289.298 272.775C291.985 272.327 295.509 272.143 297.849 272.359C299.105 267.671 299.701 263.984 298.996 261.048C298.238 258.019 296.017 256.639 291.769 255.5L254.049 245.393L256.668 235.622C256.98 235.748 257.292 235.874 257.602 236C260.386 237.131 263.027 238.248 264.988 239.14L268.328 231.949C264.188 229.82 257.73 226.676 251.96 224.188L249.213 230.046L249.059 231.496L242.262 256.866C241.974 256.656 241.685 256.447 241.394 256.24C238.748 254.351 235.981 252.555 233.163 250.901C232.875 250.732 232.587 250.564 232.298 250.398L228.005 258.511C237.155 263.53 245.747 270.36 250.667 277.328C250.862 277.605 251.052 277.882 251.236 278.159C251.464 277.958 251.723 277.74 252.005 277.51C253.697 276.124 256.21 274.302 257.976 273.181C258.288 272.983 258.576 272.807 258.833 272.659C258.637 272.39 258.436 272.121 258.231 271.852C256.076 269.03 253.364 266.158 250.271 263.356ZM258.705 269.739L263.644 259.916L264.543 260.382C273.377 264.968 281.846 271.362 286.785 277.178L287.49 278.008L286.602 278.64C284.842 279.893 281.625 282.961 279.989 284.704L279.167 285.581L278.455 284.612C274.56 279.319 267.213 274.019 259.599 270.188L258.705 269.739ZM278.643 283.216C278.857 283.484 279.063 283.752 279.26 284.02C279.47 283.796 279.706 283.55 279.963 283.288C281.453 281.767 283.621 279.717 285.226 278.431C285.511 278.203 285.779 277.998 286.023 277.825C285.809 277.574 285.589 277.321 285.362 277.068C280.624 271.773 273.01 266.033 264.967 261.736C264.673 261.579 264.378 261.423 264.082 261.27L260.048 269.295C267.35 272.969 274.496 278.021 278.643 283.216ZM294.458 245.466L293.785 236.258C286.845 235.498 276.26 236.037 267.695 237.824L268.213 246.441C268.54 246.381 268.87 246.322 269.204 246.266C277.134 244.918 286.878 244.576 293.445 245.337C293.792 245.377 294.129 245.42 294.458 245.466ZM251.241 181.698L259.162 152.136L259.223 149.833L266.197 144.404L266.818 145.122C271.411 150.433 276.71 157.528 280.211 163.997L283.095 164.77L287.413 148.657L297.621 151.392L293.303 167.505L313.944 173.036C316.184 173.636 317.971 174.351 319.289 175.41C320.649 176.502 321.443 177.906 321.796 179.725L321.798 179.74L321.801 179.755C322.374 183.281 321.521 187.585 319.998 192.977L319.774 193.769L318.953 193.702C316.549 193.505 312.451 193.931 309.842 194.465L308.185 194.804L308.687 193.189C309.837 189.482 310.914 185.745 311.163 184.536C311.217 184.269 311.236 184.092 311.236 183.975C311.236 183.947 311.235 183.925 311.233 183.908C311.187 183.883 311.09 183.84 310.905 183.791L290.411 178.299L286.27 193.753L284.761 193.349C288.356 195.23 291.583 197.208 294.465 199.299C297.824 196.913 301.116 194.898 303.92 193.724L304.619 193.431L311.622 202.262L310.363 202.755C308.167 203.615 305.562 205 302.802 206.701C307.19 211.553 310.223 216.97 312.082 223.109L312.387 224.117L311.365 224.37C309.012 224.952 305.331 226.416 303.272 227.663L302.082 228.384L301.778 227.027C300.629 221.902 297.942 217.192 293.832 212.904C293.083 213.475 292.341 214.052 291.613 214.631C291.907 214.798 292.199 214.963 292.486 215.127L293.585 215.752L286.447 223.42L285.757 223.017C280.412 219.903 273.179 216.066 265.539 212.237L264.071 217.714L254.01 215.018L256.006 207.566C251.461 205.389 246.987 203.32 242.884 201.506L242.013 201.12L245.838 191.189L246.81 191.645C250.602 193.422 254.631 195.366 258.733 197.39L260.157 192.075L260.36 190.394L263.07 184.472L263.921 184.754C268.451 186.259 272.632 187.821 276.481 189.455L280.203 175.564L271.633 173.268L272.548 169.856C271.083 167.461 269.163 164.852 267.184 162.445L261.303 184.394L251.241 181.698ZM266.714 160.334C266.976 160.639 267.239 160.948 267.501 161.261C269.449 163.59 271.369 166.14 272.901 168.536C273.153 168.93 273.394 169.32 273.624 169.703L272.858 172.561L281.427 174.857L277.287 190.311L285.563 192.529L289.704 177.075L311.164 182.825C312.189 183.099 312.384 183.544 312.143 184.736C311.908 185.877 310.995 189.073 309.976 192.401C309.866 192.762 309.754 193.124 309.642 193.485C309.988 193.415 310.361 193.345 310.752 193.279C313.366 192.837 316.831 192.524 319.035 192.705C320.561 187.305 321.347 183.198 320.814 179.915C320.188 176.686 318.079 175.179 313.685 174.002L292.078 168.212L296.396 152.099L288.12 149.881L283.802 165.995L279.535 164.851C279.321 164.45 279.1 164.045 278.872 163.638C275.426 157.488 270.434 150.832 266.062 145.777L260.21 150.332L260.159 152.28L252.466 180.991L260.595 183.17L266.714 160.334ZM276.219 190.43C272.366 188.789 268.168 187.219 263.606 185.703L261.334 190.668L261.141 192.265L259.383 198.827C259.078 198.676 258.773 198.525 258.469 198.375C254.637 196.483 250.868 194.66 247.293 192.976C246.989 192.833 246.686 192.691 246.385 192.55L243.289 200.591C247.349 202.386 251.773 204.431 256.27 206.583C256.575 206.73 256.881 206.876 257.187 207.023L255.234 214.311L263.364 216.489L264.89 210.795C265.195 210.947 265.499 211.099 265.803 211.251C273.527 215.119 280.853 219.003 286.26 222.153L291.992 215.996C291.697 215.828 291.399 215.659 291.098 215.489C290.99 215.428 290.882 215.367 290.773 215.306C290.464 215.131 290.151 214.956 289.835 214.779C290.112 214.553 290.392 214.328 290.673 214.102C291.476 213.459 292.295 212.819 293.126 212.185C293.394 211.981 293.662 211.778 293.932 211.576C294.171 211.815 294.406 212.055 294.637 212.297C298.541 216.393 301.206 220.889 302.506 225.793C302.595 226.129 302.678 226.468 302.754 226.808C303.032 226.64 303.337 226.468 303.662 226.296C305.548 225.296 308.125 224.267 310.16 223.663C310.499 223.563 310.822 223.474 311.125 223.399C311.125 223.399 311.125 223.399 311.125 223.399C311.028 223.079 310.928 222.76 310.824 222.444C308.977 216.802 306.075 211.778 301.94 207.24C301.712 206.99 301.481 206.742 301.246 206.496C301.536 206.312 301.824 206.131 302.111 205.953C304.589 204.418 306.955 203.125 309.037 202.221C309.365 202.079 309.685 201.946 309.998 201.824L304.307 194.646C301.668 195.751 298.545 197.645 295.312 199.925C295.028 200.125 294.743 200.328 294.458 200.534C294.178 200.326 293.895 200.12 293.609 199.914C289.682 197.095 285.098 194.478 279.797 192.019C278.933 191.618 278.05 191.222 277.148 190.829C276.841 190.696 276.531 190.563 276.219 190.43ZM269.682 196.774C269.372 196.65 269.06 196.526 268.746 196.403L267.063 202.684C267.367 202.839 267.671 202.994 267.974 203.148C272.546 205.482 277.05 207.834 281.261 210.09C281.574 210.257 281.885 210.424 282.194 210.591C282.453 210.354 282.714 210.117 282.98 209.878C284.121 208.848 285.322 207.798 286.559 206.75C286.821 206.528 287.085 206.306 287.35 206.084C287.069 205.886 286.785 205.689 286.498 205.493C281.781 202.276 276.146 199.371 269.682 196.774ZM285.705 206.163C281.143 203.08 275.695 200.274 269.421 197.747L268.239 202.161C272.995 204.586 277.68 207.034 282.044 209.375C283.209 208.32 284.437 207.241 285.705 206.163Z" fill="black"/>
<path d="M114.444 327.554L126.557 330.8C129.124 323.423 131.722 315.562 134.279 306.019C136.639 297.21 139.113 285.775 140.283 279.204L128.079 275.934C126.944 283.105 124.667 293.805 122.258 302.798C119.651 312.525 116.998 320.96 114.444 327.554ZM155.325 330.247L151.003 341.973C154.318 343.549 158.495 345.947 163.725 347.349C176.388 350.742 186.215 341.966 191.821 321.044C195.263 308.197 197.021 296.866 197.349 288.299L184.386 284.924C184.492 293.705 182.721 305.82 179.426 318.116C175.885 331.33 170.048 335.864 164.267 334.315C161.147 333.479 158.407 331.958 155.325 330.247Z" fill="black"/>
<path d="M143.219 214.292L134.497 225.921C137.908 228.606 140.469 231.161 142.56 232.901C150.042 240.217 182.44 269.06 198.998 280.676L206.87 268.918C202.375 266.238 192.934 260.364 188.275 256.461C181.703 251.257 176.681 244.306 178.353 238.066C179.238 234.762 181.632 233.535 184.918 234.12C188.754 234.853 196.187 236.845 201.216 237.897C207.946 239.209 215.348 236.176 218.077 225.991C221.863 211.859 213.665 200.614 199.184 191.521L188.429 199.36C199.119 204.978 208.161 212.712 206.022 220.695C205.21 223.723 203.078 225.807 199.401 225.216C195.424 224.642 188.132 222.491 184.046 221.593C176.239 219.895 170.82 222.868 168.976 229.75C168.041 233.237 167.908 237.037 169.017 240.974C162.055 234.289 152.031 224.718 146.745 218.384C145.455 216.957 144.141 215.621 143.219 214.292Z" fill="black"/>
<path d="M165.36 147.445L177.13 150.501C181.305 139.325 185.78 122.624 187.678 111.134L175.841 107.962C174.403 118.101 169.944 136.576 165.36 147.445ZM206.509 150.603L202.789 160.818C207.174 163.173 210.605 164.683 214.275 165.666C223.635 168.174 231.365 162.082 235.594 146.299C238.373 135.93 239.722 128.325 240.127 122.041L227.666 118.997C227.27 127.447 226.185 134.434 223.996 142.601C221.488 151.961 218.052 154.876 213.923 153.77C211.537 153.13 209.433 152.173 206.509 150.603ZM155.425 159.929L150.973 172.506C153.885 173.384 157.249 174.777 159.628 175.808C166.516 178.735 181.194 185.619 195.05 189.332C207.53 192.676 219.192 193.932 225.924 193.769L228.109 183.044C226.8 182.791 225.24 182.373 224.206 182.195C223.288 181.949 221.343 181.133 220.041 180.488C215.423 178.268 206.324 172.584 199.329 167.858L193.308 172.342C196.059 174.554 198.786 176.859 201.537 179.071C199.628 178.855 197.309 178.332 195.474 177.84C186.298 175.381 168.806 167.252 163.094 164.344C161.54 163.535 157.18 161.088 155.425 159.929Z" fill="black"/>
<path d="M177.881 64.7429L173.839 77.6257C176.917 78.2536 179.278 78.9846 183.009 80.4761C192.141 84.2016 213.062 95.3152 224.64 105.695L231.304 95.8755C229.965 94.6317 229.061 93.6025 228.047 92.2489C222.523 84.9662 221.177 74.5737 224.005 64.0209C226.414 55.0282 232.373 51.5105 237.787 52.9612C251.368 56.6001 248.32 77.519 239.699 96.8463L252.397 96.8064C263.575 67.9358 261.386 46.007 240.831 40.4994C228.993 37.3275 218.538 45.148 214.579 59.9218C212.367 68.1805 212.1 75.7806 214.146 84.2952C206.35 79.2557 193.599 72.8884 186.651 69.4532C183.911 67.9323 180.939 66.5457 177.881 64.7429ZM180.036 99.645L191.44 102.602C193.441 97.3356 195.578 90.827 197.447 83.853C201.012 70.5474 204.022 50.5035 205.218 38.3333L194.133 35.658C193.312 51.5677 190.017 69.3715 186.87 81.1172C185.345 86.8065 182.644 93.9508 180.036 99.645Z" fill="black"/>
<path d="M214.541 -4.902L225.577 -2.04322C227.395 -7.35889 228.98 -12.5402 230.43 -17.9542C233.289 -28.9904 235.653 -40.7492 236.767 -50.7777L225.388 -53.8266C224.85 -43.7423 222.694 -32.0261 219.694 -20.831C218.194 -15.2334 216.517 -10.0767 214.541 -4.902ZM208.493 -43.9944L204.977 -30.8723C206.794 -30.6805 209.712 -30.1935 211.18 -29.8001C213.958 -29.1543 220.131 -27.5986 227.105 -25.73C240.318 -22.1893 256.054 -19.2515 262.386 -17.5549C267.8 -16.1042 270.22 -13.3904 268.72 -7.79286C267.392 -2.83766 264.757 0.390271 260.995 -0.61783C257.508 -1.55217 256.356 -5.69644 257.758 -10.9269C260.536 -21.2961 269.168 -28.9168 281.814 -36.8387L273.851 -45.6603C265.326 -40.2731 253.725 -31.481 249.103 -14.2296C245.734 -1.65806 250.043 7.9547 259.403 10.4627C269.038 13.0444 276.383 6.55427 279.801 -6.20078C283.341 -19.4146 277.646 -26.055 268.011 -28.6367C259.293 -30.9726 246.971 -32.7008 230.086 -37.2249C223.479 -38.9953 217.197 -40.8753 214.218 -41.8703C212.315 -42.4784 210.162 -43.252 208.493 -43.9944ZM197.411 1.03174L192.984 13.5163C195.804 14.3703 199.285 15.6963 201.756 16.7518C208.526 19.7462 225.132 27.1462 238.988 30.859C251.376 34.1783 262.421 35.1707 269.244 35.032L271.288 24.4661C269.979 24.2136 268.419 23.7956 267.41 23.5251C266.468 23.371 264.523 22.5548 263.312 21.9353C258.535 19.5735 250.078 14.062 243.151 9.45185L237.13 13.9363C239.906 16.057 242.607 18.453 245.475 20.5982C243.566 20.3818 241.155 19.8342 239.412 19.3671C230.236 16.9083 210.859 8.47078 205.08 5.44695C203.527 4.63732 199.05 2.2576 197.411 1.03174Z" fill="black"/>
<path d="M240.082 -71.1033L269.936 -59.2141L268.147 -52.5379L236.324 -57.079L219.567 -61.5692L223.324 -75.5935L240.082 -71.1033ZM276.1 -61.0682L289.048 -57.5986L285.471 -44.2463L272.522 -47.716L276.1 -61.0682Z" fill="black"/>
<path d="M146.994 479.904C144.465 489.343 139.963 495.868 133.489 499.48C125.393 504.482 115.416 505.395 103.557 502.217C91.4595 498.975 83.2752 493.197 79.0043 484.881C75.2032 478.516 74.5672 470.614 77.0965 461.175C79.6257 451.735 84.1275 445.21 90.6019 441.598C98.4505 436.562 108.424 435.664 120.521 438.906C132.38 442.084 140.568 447.847 145.086 456.197C148.887 462.562 149.523 470.464 146.994 479.904ZM132.744 462.111C129.568 457.834 124.261 454.699 116.824 452.706C109.416 450.721 103.263 450.802 98.3662 452.947C93.4473 455.055 90.2556 458.842 88.7909 464.308C87.3262 469.774 88.1739 474.676 91.334 479.012C94.4941 483.349 99.7931 486.513 107.231 488.506C114.669 490.499 120.84 490.408 125.745 488.233C130.65 486.057 133.835 482.236 135.3 476.77C136.764 471.304 135.913 466.417 132.744 462.111Z" fill="black"/>
<path d="M88.4969 426.693L91.9186 413.923L157.963 431.619L154.541 444.389L88.4969 426.693Z" fill="black"/>
<path d="M116.532 412.035C113.135 407.507 112.537 401.136 114.738 392.922C116.171 387.575 118.504 383.109 121.737 379.526C124.971 375.942 129.529 374.938 135.414 376.515L157.817 382.518C159.37 382.934 161.26 383.409 163.487 383.941C165.183 384.3 166.387 384.35 167.096 384.092C167.805 383.834 168.466 383.339 169.079 382.606L170.961 383.11L167.239 397C166.149 397.125 165.151 397.145 164.245 397.063C163.339 396.98 162.321 396.835 161.192 396.629C162.631 398.903 163.715 401.371 164.443 404.031C165.289 407.203 165.249 410.522 164.32 413.987C163.136 418.408 160.901 421.731 157.615 423.956C154.308 426.143 150.339 426.616 145.709 425.376C139.705 423.767 135.979 420.288 134.531 414.937C133.748 412.006 133.703 407.992 134.396 402.895L135.023 398.405C135.357 395.965 135.436 394.177 135.26 393.042C134.971 391.012 134.006 389.776 132.363 389.336C130.361 388.8 128.799 389.134 127.676 390.337C126.532 391.503 125.599 393.431 124.879 396.119C124.07 399.136 124.245 401.472 125.402 403.127C126.267 404.319 127.601 405.316 129.403 406.119L126.101 418.441C121.901 417.028 118.712 414.892 116.532 412.035ZM153.399 411.733C154.705 410.802 155.59 409.47 156.054 407.738C156.79 404.99 156.66 402.25 155.663 399.517C154.675 396.755 152.056 394.757 147.809 393.523L143.059 392.25C143.351 393.193 143.549 394.126 143.654 395.051C143.736 395.937 143.72 397.134 143.605 398.639L143.374 401.651C143.132 404.467 143.198 406.55 143.573 407.899C144.209 410.183 145.752 411.653 148.202 412.309C150.382 412.893 152.115 412.701 153.399 411.733ZM107.456 398.414L96.3637 386.221L100.182 371.973L109.929 389.184L107.456 398.414Z" fill="black"/>
<path d="M127.356 349.593L157.21 361.483L155.422 368.159L123.599 363.618L106.841 359.128L110.599 345.103L127.356 349.593ZM163.374 359.629L176.323 363.098L172.745 376.45L159.796 372.981L163.374 359.629Z" fill="black"/>
<path d="M351.449 68.8445L321.966 60.9447L315.051 86.753L344.533 94.6528L340.872 108.319L274.827 90.6222L278.489 76.9563L303.67 83.7036L310.585 57.8953L285.404 51.148L289.078 37.4373L355.122 55.1338L351.449 68.8445Z" fill="black"/>
<path d="M353.53 3.72402C356.34 4.82897 358.878 7.12582 361.144 10.6146C364.773 16.0691 365.579 22.5601 363.562 30.0875C361.898 36.3006 358.428 41.2456 353.152 44.9226C347.877 48.5995 340.729 49.2294 331.708 46.8122C323.254 44.5471 317.345 40.6745 313.979 35.1944C310.621 29.6845 309.858 23.5093 311.691 16.6689C312.78 12.6065 314.522 9.1514 316.918 6.30368C319.314 3.45597 322.439 1.41191 326.293 0.171508C329.702 -0.963847 333.395 -1.30305 337.37 -0.846103C339.699 -0.574393 342.961 0.155604 347.157 1.34389L338.2 34.7693C343.147 35.9027 346.994 35.2848 349.742 32.9156C351.439 31.4813 352.62 29.5246 353.284 27.0453C353.989 24.4167 353.814 22.0808 352.761 20.0378C352.194 18.9255 351.286 17.8338 350.037 16.7626L353.53 3.72402ZM335.179 12.3494C331.748 11.6541 328.918 12.0003 326.689 13.3881C324.439 14.7379 322.949 16.772 322.221 19.4902C321.428 22.4474 321.738 24.9956 323.15 27.1347C324.57 29.244 326.807 30.9319 329.861 32.1985L335.179 12.3494Z" fill="black"/>
<path d="M320.174 -8.89434L323.595 -21.6641L377.452 -7.23315C382.381 -5.91252 385.765 -3.96525 387.605 -1.39135C389.444 1.18256 389.604 5.30723 388.083 10.9827C387.979 11.371 387.808 11.9495 387.57 12.7181C387.34 13.4569 387.058 14.3898 386.724 15.5169L376.508 12.7796C376.76 12.0787 376.926 11.5789 377.006 11.2802C377.116 10.9895 377.203 10.7246 377.267 10.4857C377.603 9.23109 377.541 8.20612 377.082 7.41076C376.661 6.59352 375.569 5.94879 373.807 5.47657L320.174 -8.89434ZM302.341 -13.6726L305.762 -26.4424L317.546 -23.2849L314.125 -10.5151L302.341 -13.6726Z" fill="black"/>
<path d="M329.554 -45.6945L359.408 -33.8052L357.619 -27.1291L325.796 -31.6702L309.039 -36.1603L312.797 -50.1846L329.554 -45.6945ZM365.572 -35.6594L378.521 -32.1897L374.943 -18.8375L361.994 -22.3072L365.572 -35.6594Z" fill="black"/>
</svg>
