<svg width="38" height="35" viewBox="0 0 38 35" fill="none" xmlns="http://www.w3.org/2000/svg">
<path d="M22.189 33.5058C22.1581 30.6981 20.3193 25.4344 13.2105 26.8413C12.1923 26.8722 9.95235 26.1564 9.13781 23.0463C8.11963 19.1587 10.7514 16.8954 14.0836 16.5251" stroke="white" stroke-width="2.48" stroke-linecap="round"/>
<path d="M9.04091 22.8609C6.41833 22.7375 2.65928 21.335 2.05664 16.1121C1.48033 11.1174 5.44708 8.66892 7.36002 8.63806" stroke="white" stroke-width="2.48" stroke-linecap="round"/>
<path d="M9.15204 11.9251C6.4599 8.17954 7.83355 3.22987 12.7479 2.22007C19.5049 0.83165 20.6906 6.42677 20.9683 7.44494" stroke="white" stroke-width="2.48" stroke-linecap="round"/>
<path d="M24.5742 22.5218C28.1129 23.3303 30.0542 20.6352 27.3591 17.5808" stroke="white" stroke-width="2.48" stroke-linecap="round"/>
<path d="M12.5816 8.90532C11.1157 12.2261 13.393 14.6439 16.9037 12.578" stroke="white" stroke-width="2.48" stroke-linecap="round"/>
<path d="M28.2979 21.2877C30.7353 21.2877 35.7583 20.1769 36.3507 15.734C36.9431 11.291 33.3887 9.99515 31.5375 9.90259" stroke="white" stroke-width="2.48" stroke-linecap="round"/>
<path d="M20.1606 5.14716C21.1467 3.175 24.2033 1.57543 28.3308 3.68131C32.4583 5.78719 31.4583 10.8048 30.275 11.9881" stroke="white" stroke-width="2.48" stroke-linecap="round"/>
<path d="M14.3439 13.3024C13.8284 14.8335 13.6517 18.6885 17.0686 21.8589" stroke="white" stroke-width="2.48" stroke-linecap="round"/>
<path d="M21.1431 19.8431C20.7946 17.2727 20.3772 12.4978 26.7552 11.8705" stroke="white" stroke-width="2.48" stroke-linecap="round"/>
<path d="M24.5741 7.61096C24.3737 8.45278 24.0933 10.5068 24.5741 11.9884" stroke="white" stroke-width="2.48" stroke-linecap="round"/>
</svg>
