<svg width="38" height="35" viewBox="0 0 38 35" fill="none" xmlns="http://www.w3.org/2000/svg">
<path d="M22.3509 33.0407C22.32 30.233 20.4811 24.9693 13.3724 26.3762C12.3542 26.4071 10.1142 25.6913 9.29967 22.5812C8.28149 18.6936 10.9132 16.4303 14.2455 16.0601" stroke="black" stroke-width="2.48" stroke-linecap="round"/>
<path d="M9.20278 22.3957C6.5802 22.2723 2.82115 20.8698 2.21851 15.6469C1.6422 10.6522 5.60894 8.20371 7.52188 8.17285" stroke="black" stroke-width="2.48" stroke-linecap="round"/>
<path d="M9.31366 11.4598C6.62152 7.71421 7.99517 2.76454 12.9095 1.75474C19.6665 0.366318 20.8522 5.96143 21.1299 6.97961" stroke="black" stroke-width="2.48" stroke-linecap="round"/>
<path d="M24.7361 22.0567C28.2748 22.8652 30.2161 20.1701 27.521 17.1157" stroke="black" stroke-width="2.48" stroke-linecap="round"/>
<path d="M12.7434 8.43999C11.2775 11.7607 13.5549 14.1785 17.0656 12.1126" stroke="black" stroke-width="2.48" stroke-linecap="round"/>
<path d="M28.46 20.8226C30.8974 20.8226 35.9204 19.7119 36.5128 15.2689C37.1052 10.8259 33.5508 9.53007 31.6996 9.4375" stroke="black" stroke-width="2.48" stroke-linecap="round"/>
<path d="M20.3225 4.6817C21.3086 2.70955 24.3651 1.10998 28.4926 3.21586C32.6202 5.32174 31.6202 10.3393 30.4369 11.5226" stroke="black" stroke-width="2.48" stroke-linecap="round"/>
<path d="M14.5057 12.8369C13.9903 14.3681 13.8135 18.223 17.2304 21.3934" stroke="black" stroke-width="2.48" stroke-linecap="round"/>
<path d="M21.3048 19.3779C20.9562 16.8075 20.5388 12.0326 26.9168 11.4053" stroke="black" stroke-width="2.48" stroke-linecap="round"/>
<path d="M24.7359 7.14551C24.5356 7.98732 24.2551 10.0413 24.7359 11.5229" stroke="black" stroke-width="2.48" stroke-linecap="round"/>
</svg>
