<svg width="132" height="43" viewBox="0 0 132 43" fill="none" xmlns="http://www.w3.org/2000/svg">
<path d="M1.05225 1.19482H116.552C124.56 1.19482 131.052 7.6867 131.052 15.6948V42.1948H15.5522C7.54412 42.1948 1.05225 35.703 1.05225 27.6948V1.19482Z" fill="white" stroke="black"/>
<path d="M34.4732 24.8495C30.9601 27.6944 25.9359 27.6944 22.4228 24.8495L23.7811 23.1721C26.5022 25.3756 30.3938 25.3756 33.1149 23.1721L34.4732 24.8495Z" fill="black"/>
<path d="M23.8859 18.24V21.1559H26.0443V18.24H23.8859Z" fill="black"/>
<path d="M30.5835 18.24V21.1559H32.7419V18.24H30.5835Z" fill="black"/>
<path fill-rule="evenodd" clip-rule="evenodd" d="M28.0374 33.812C34.4749 33.812 39.6935 28.5934 39.6935 22.1559C39.6935 15.7185 34.4749 10.4999 28.0374 10.4999C21.5999 10.4999 16.3813 15.7185 16.3813 22.1559C16.3813 28.5934 21.5999 33.812 28.0374 33.812ZM28.0374 31.6536C33.2828 31.6536 37.535 27.4013 37.535 22.1559C37.535 16.9105 33.2828 12.6583 28.0374 12.6583C22.792 12.6583 18.5398 16.9105 18.5398 22.1559C18.5398 27.4013 22.792 31.6536 28.0374 31.6536Z" fill="black"/>
<path fill-rule="evenodd" clip-rule="evenodd" d="M82.2651 32.9013C84.2387 32.9013 85.6982 32.0888 86.6437 30.4639C87.341 29.2584 87.6896 27.7871 87.6896 26.0498C87.6896 25.3643 87.6069 24.6434 87.4414 23.8871C87.276 23.1307 86.9657 22.4275 86.5107 21.7775C85.9435 20.9739 85.2019 20.4214 84.286 20.1201C83.7483 19.9428 83.0746 19.8482 82.2651 19.8364H76.6367V32.9013H82.2651ZM81.8042 22.1055C83.0451 22.1055 83.8753 22.46 84.2948 23.1691C84.7085 23.8841 84.9153 24.9064 84.9153 26.2359C84.9153 27.1991 84.7764 28.0293 84.4987 28.7266C83.9905 29.997 83.0924 30.6323 81.8042 30.6323H79.2869V22.1055H81.8042Z" fill="black"/>
<path fill-rule="evenodd" clip-rule="evenodd" d="M68.6504 31.8112C69.1823 31.2203 69.4807 30.6382 69.5457 30.065H66.9664C66.8305 30.3487 66.6739 30.5703 66.4966 30.7298C66.1716 31.0253 65.7491 31.173 65.2291 31.173C64.7386 31.173 64.3191 31.0518 63.9705 30.8096C63.3973 30.4196 63.093 29.74 63.0575 28.7709H69.6697C69.6816 27.9378 69.655 27.2996 69.59 26.8564C69.4777 26.1001 69.2325 25.4353 68.8543 24.8621C68.4348 24.2121 67.9029 23.7364 67.2589 23.4351C66.6148 23.1337 65.8909 22.983 65.0873 22.983C63.7341 22.983 62.6321 23.4292 61.7812 24.3214C60.9362 25.2137 60.5137 26.496 60.5137 28.1682C60.5137 29.9528 60.9834 31.2409 61.923 32.0327C62.8625 32.8246 63.9468 33.2205 65.1759 33.2205C66.665 33.2205 67.8232 32.7507 68.6504 31.8112ZM66.4345 25.5889C66.8009 25.9316 67.0048 26.4369 67.0461 27.1046H63.1196C63.2023 26.4782 63.4032 25.9819 63.7223 25.6155C64.0473 25.2492 64.5023 25.066 65.0873 25.066C65.625 25.066 66.0741 25.2403 66.4345 25.5889Z" fill="black"/>
<path d="M54.7258 25.1103C53.869 25.1103 53.2811 25.4737 52.962 26.2005C52.7965 26.5846 52.7138 27.0751 52.7138 27.6719V32.9014H50.1965V23.2578H52.634V24.6671C52.959 24.1708 53.2663 23.8133 53.5558 23.5946C54.0758 23.2046 54.7347 23.0096 55.5324 23.0096C56.531 23.0096 57.3465 23.2726 57.9788 23.7985C58.6169 24.3185 58.936 25.1842 58.936 26.3955V32.9014H56.3479V27.0248C56.3479 26.5167 56.2799 26.1267 56.144 25.8549C55.8958 25.3585 55.4231 25.1103 54.7258 25.1103Z" fill="black"/>
<path d="M92.2542 19.8364H89.542V32.9013H92.2542V19.8364Z" fill="black"/>
<path d="M71.2479 8.52063L72.2457 9.94109H73.1795L74.1822 8.52063H73.3762L72.7126 9.46433L72.0491 8.52063H71.2479Z" fill="black"/>
<path d="M71.5576 14.9299C71.4363 14.7726 71.3626 14.5465 71.3364 14.2516H70.4861C70.509 14.7759 70.6827 15.2166 71.0071 15.5738C71.3347 15.9277 71.8902 16.1046 72.6733 16.1046C73.4007 16.1046 73.9414 15.9342 74.2953 15.5934C74.6524 15.2527 74.831 14.848 74.831 14.3794C74.831 13.8945 74.659 13.5389 74.3149 13.3128C74.0987 13.1687 73.6727 13.0196 73.037 12.8656L72.4521 12.723C72.1965 12.6608 72.0032 12.5887 71.8721 12.5068C71.646 12.3691 71.533 12.1856 71.533 11.9563C71.533 11.7466 71.6182 11.5778 71.7886 11.45C71.9622 11.3222 72.2162 11.2583 72.5504 11.2583C73.0518 11.2583 73.404 11.3747 73.6072 11.6073C73.7317 11.7711 73.8021 11.953 73.8185 12.1529H74.6541C74.6606 11.8121 74.5541 11.4943 74.3346 11.1994C73.984 10.7341 73.4122 10.5014 72.6192 10.5014C72.013 10.5014 71.5297 10.6554 71.1693 10.9634C70.8121 11.2714 70.6335 11.6745 70.6335 12.1725C70.6335 12.5952 70.8236 12.9262 71.2037 13.1654C71.4167 13.303 71.7476 13.4275 72.1965 13.5389L72.8994 13.7159C73.2762 13.8109 73.5285 13.8945 73.6563 13.9665C73.8562 14.0845 73.9561 14.2565 73.9561 14.4826C73.9561 14.7808 73.8316 15.002 73.5826 15.1462C73.3336 15.2871 73.0452 15.3575 72.7175 15.3575C72.167 15.3575 71.7804 15.215 71.5576 14.9299Z" fill="black"/>
<path d="M83.8551 15.2052L86.9762 11.4304H84.0861V10.639H88.1657V11.3616L85.0642 15.1118H88.259V15.9031H83.8551V15.2052Z" fill="black"/>
<path d="M84.7349 8.52063L85.7327 9.94109H86.6665L87.6692 8.52063H86.8632L86.1996 9.46433L85.5361 8.52063H84.7349Z" fill="black"/>
<path fill-rule="evenodd" clip-rule="evenodd" d="M99.7898 10.4867C100.468 10.4867 101.042 10.7128 101.51 11.1649C101.979 11.6171 102.213 12.2823 102.213 13.1605C102.213 14.0091 102.007 14.7104 101.594 15.2641C101.181 15.8179 100.54 16.0948 99.6719 16.0948C98.9477 16.0948 98.3727 15.8507 97.9467 15.3624C97.5207 14.8709 97.3077 14.2123 97.3077 13.3866C97.3077 12.5019 97.5322 11.7974 97.9811 11.2731C98.43 10.7488 99.0329 10.4867 99.7898 10.4867ZM99.7554 15.3329C100.342 15.3329 100.743 15.1118 100.96 14.6694C101.179 14.2238 101.289 13.729 101.289 13.1851C101.289 12.6935 101.21 12.2938 101.053 11.9858C100.804 11.5008 100.375 11.2583 99.7653 11.2583C99.2246 11.2583 98.8314 11.4648 98.5856 11.8776C98.3399 12.2905 98.217 12.7886 98.217 13.3718C98.217 13.9321 98.3399 14.3991 98.5856 14.7726C98.8314 15.1462 99.2213 15.3329 99.7554 15.3329Z" fill="black"/>
<path d="M115.223 14.9299C115.102 14.7726 115.028 14.5465 115.002 14.2516H114.152C114.175 14.7759 114.348 15.2166 114.673 15.5738C115 15.9277 115.556 16.1046 116.339 16.1046C117.066 16.1046 117.607 15.9342 117.961 15.5934C118.318 15.2527 118.497 14.848 118.497 14.3794C118.497 13.8945 118.325 13.5389 117.981 13.3128C117.764 13.1687 117.338 13.0196 116.703 12.8656L116.118 12.723C115.862 12.6608 115.669 12.5887 115.538 12.5068C115.312 12.3691 115.199 12.1856 115.199 11.9563C115.199 11.7466 115.284 11.5778 115.454 11.45C115.628 11.3222 115.882 11.2583 116.216 11.2583C116.717 11.2583 117.07 11.3747 117.273 11.6073C117.397 11.7711 117.468 11.953 117.484 12.1529H118.32C118.326 11.8121 118.22 11.4943 118 11.1994C117.65 10.7341 117.078 10.5014 116.285 10.5014C115.679 10.5014 115.195 10.6554 114.835 10.9634C114.478 11.2714 114.299 11.6745 114.299 12.1725C114.299 12.5952 114.489 12.9262 114.869 13.1654C115.082 13.303 115.413 13.4275 115.862 13.5389L116.565 13.7159C116.942 13.8109 117.194 13.8945 117.322 13.9666C117.522 14.0845 117.622 14.2565 117.622 14.4826C117.622 14.7808 117.497 15.002 117.248 15.1462C116.999 15.2871 116.711 15.3575 116.383 15.3575C115.833 15.3575 115.446 15.215 115.223 14.9299Z" fill="black"/>
<path d="M109.074 15.2936C108.927 15.0249 108.853 14.6661 108.853 14.2172V10.639H109.758V14.1337C109.758 14.4024 109.8 14.6219 109.885 14.7923C110.043 15.1069 110.336 15.2641 110.765 15.2641C111.381 15.2641 111.801 14.9889 112.023 14.4384C112.145 14.1435 112.205 13.7388 112.205 13.2244V10.639H113.09V15.9031H112.255L112.264 15.1265C112.15 15.3264 112.007 15.4951 111.837 15.6328C111.499 15.908 111.09 16.0456 110.608 16.0456C109.858 16.0456 109.346 15.795 109.074 15.2936Z" fill="black"/>
<path fill-rule="evenodd" clip-rule="evenodd" d="M105.128 10.5456C105.54 10.5456 105.901 10.6472 106.209 10.8504C106.376 10.9651 106.546 11.1322 106.72 11.3517V10.6882H107.536V15.4755C107.536 16.1439 107.438 16.6715 107.241 17.0581C106.874 17.7725 106.181 18.1296 105.162 18.1296C104.595 18.1296 104.118 18.0018 103.732 17.7463C103.345 17.4939 103.129 17.0975 103.083 16.5568H103.982C104.025 16.7927 104.11 16.9746 104.238 17.1024C104.438 17.299 104.752 17.3973 105.182 17.3973C105.86 17.3973 106.304 17.1581 106.514 16.6797C106.638 16.3979 106.696 15.8949 106.686 15.1707C106.509 15.4394 106.296 15.6393 106.047 15.7704C105.798 15.9015 105.468 15.967 105.059 15.967C104.489 15.967 103.989 15.7655 103.56 15.3624C103.134 14.9561 102.921 14.286 102.921 13.3522C102.921 12.4707 103.135 11.7826 103.565 11.2878C103.997 10.793 104.518 10.5456 105.128 10.5456ZM106.72 13.2489C106.72 12.5969 106.586 12.1136 106.317 11.799C106.048 11.4844 105.706 11.3271 105.29 11.3271C104.667 11.3271 104.241 11.6188 104.012 12.202C103.891 12.5133 103.83 12.9213 103.83 13.4259C103.83 14.019 103.95 14.4712 104.189 14.7825C104.431 15.0905 104.756 15.2445 105.162 15.2445C105.798 15.2445 106.245 14.9578 106.504 14.3843C106.648 14.0599 106.72 13.6815 106.72 13.2489Z" fill="black"/>
<path d="M90.7264 10.8209C90.556 10.9389 90.366 11.1273 90.1563 11.3861V10.639H89.2814V15.9031H90.1661V13.1113C90.1661 12.433 90.3021 11.9645 90.574 11.7056C90.8493 11.4467 91.154 11.3173 91.4883 11.3173C91.8552 11.3173 92.1059 11.4402 92.2403 11.6859C92.3255 11.8498 92.3681 12.1103 92.3681 12.4674V15.9031H93.2675V12.841C93.2675 12.2971 93.392 11.9088 93.6411 11.6761C93.8934 11.4435 94.1932 11.3271 94.5405 11.3271C94.7928 11.3271 95.0058 11.3927 95.1795 11.5237C95.3564 11.6548 95.4449 11.8957 95.4449 12.2463V15.9031H96.364V12.3986C96.364 11.9333 96.2952 11.5631 96.1576 11.2878C95.902 10.7767 95.4203 10.5211 94.7126 10.5211C94.3816 10.5211 94.0834 10.5899 93.818 10.7275C93.5526 10.8619 93.3216 11.0699 93.125 11.3517C93.007 11.1224 92.8759 10.9487 92.7318 10.8307C92.4762 10.6243 92.1387 10.5211 91.7193 10.5211C91.349 10.5211 91.018 10.621 90.7264 10.8209Z" fill="black"/>
<path fill-rule="evenodd" clip-rule="evenodd" d="M78.0357 10.5211C78.4092 10.5211 78.7713 10.6095 79.1219 10.7865C79.4725 10.9602 79.7395 11.1862 79.923 11.4648C80.1 11.7302 80.218 12.0398 80.2769 12.3937C80.3294 12.6362 80.3556 13.0229 80.3556 13.5537H76.4972C76.5136 14.0878 76.6398 14.517 76.8757 14.8414C77.1116 15.1626 77.477 15.3231 77.9718 15.3231C78.4338 15.3231 78.8024 15.1707 79.0777 14.866C79.2349 14.6891 79.3463 14.4843 79.4119 14.2516H80.2818C80.2589 14.445 80.1819 14.6612 80.0508 14.9004C79.923 15.1363 79.7789 15.3297 79.6183 15.4804C79.3496 15.7425 79.017 15.9195 78.6205 16.0112C78.4076 16.0637 78.1667 16.0899 77.898 16.0899C77.2427 16.0899 76.6873 15.8523 76.2318 15.3772C75.7763 14.8988 75.5486 14.2303 75.5486 13.3718C75.5486 12.5264 75.778 11.84 76.2367 11.3124C76.6955 10.7848 77.2951 10.5211 78.0357 10.5211ZM79.4463 12.8508C79.4102 12.4674 79.3267 12.1611 79.1956 11.9317C78.9531 11.5057 78.5485 11.2927 77.9816 11.2927C77.5753 11.2927 77.2345 11.4402 76.9592 11.7351C76.684 12.0267 76.5382 12.3986 76.5218 12.8508H79.4463Z" fill="black"/>
<path fill-rule="evenodd" clip-rule="evenodd" d="M68.0285 12.7132C68.2317 12.687 68.3677 12.6018 68.4365 12.4576C68.4758 12.379 68.4955 12.2659 68.4955 12.1185C68.4955 11.817 68.3873 11.5991 68.1711 11.4648C67.9581 11.3271 67.6517 11.2583 67.2519 11.2583C66.7899 11.2583 66.4623 11.3829 66.2689 11.6319C66.1608 11.7695 66.0903 11.9743 66.0576 12.2463H65.2318C65.2482 11.5975 65.4579 11.1469 65.861 10.8946C66.2673 10.639 66.7375 10.5112 67.2716 10.5112C67.8909 10.5112 68.3939 10.6292 68.7805 10.8651C69.1639 11.1011 69.3556 11.468 69.3556 11.9661V14.9987C69.3556 15.0905 69.3736 15.1642 69.4097 15.2199C69.449 15.2756 69.5293 15.3035 69.6505 15.3035C69.6898 15.3035 69.7341 15.3018 69.7832 15.2985C69.8324 15.292 69.8848 15.2838 69.9405 15.274V15.9277C69.8029 15.967 69.698 15.9916 69.6259 16.0014C69.5538 16.0112 69.4555 16.0161 69.331 16.0161C69.0263 16.0161 68.8051 15.908 68.6675 15.6917C68.5954 15.5771 68.5446 15.4149 68.5151 15.2052C68.3349 15.4411 68.076 15.6459 67.7385 15.8195C67.401 15.9932 67.0291 16.08 66.6228 16.08C66.1346 16.08 65.7348 15.9326 65.4235 15.6377C65.1155 15.3395 64.9615 14.9676 64.9615 14.522C64.9615 14.0337 65.1139 13.6553 65.4186 13.3866C65.7233 13.1179 66.1231 12.9524 66.6179 12.8901L68.0285 12.7132ZM65.8855 14.5023C65.8855 14.7579 65.9789 14.9594 66.1657 15.1069C66.3525 15.2543 66.5737 15.328 66.8292 15.328C67.1405 15.328 67.442 15.2559 67.7336 15.1118C68.2251 14.8726 68.4709 14.481 68.4709 13.9371V13.2244C68.3628 13.2932 68.2235 13.3505 68.0531 13.3964C67.8827 13.4423 67.7156 13.475 67.5518 13.4947L67.016 13.5635C66.6949 13.6061 66.4541 13.6733 66.2935 13.765C66.0215 13.919 65.8855 14.1648 65.8855 14.5023Z" fill="black"/>
<path d="M63.1233 11.8875C62.8841 12.1725 62.7645 12.5019 62.7645 12.8754V15.9031H61.8797V10.639H62.7202V11.5483C62.789 11.3714 62.9578 11.1568 63.2265 10.9044C63.4952 10.6489 63.8048 10.5211 64.1554 10.5211C64.1718 10.5211 64.1997 10.5227 64.239 10.526C64.2783 10.5293 64.3455 10.5358 64.4405 10.5456V11.4795C64.3881 11.4697 64.3389 11.4631 64.2931 11.4599C64.2505 11.4566 64.2029 11.4549 64.1505 11.4549C63.7049 11.4549 63.3625 11.5991 63.1233 11.8875Z" fill="black"/>
<path fill-rule="evenodd" clip-rule="evenodd" d="M59.0732 12.7132C59.2764 12.687 59.4124 12.6018 59.4812 12.4576C59.5205 12.379 59.5402 12.2659 59.5402 12.1185C59.5402 11.817 59.432 11.5991 59.2158 11.4648C59.0028 11.3271 58.6964 11.2583 58.2966 11.2583C57.8346 11.2583 57.507 11.3829 57.3136 11.6319C57.2055 11.7695 57.1351 11.9743 57.1023 12.2463H56.2765C56.2929 11.5975 56.5026 11.1469 56.9057 10.8946C57.312 10.639 57.7822 10.5112 58.3163 10.5112C58.9356 10.5112 59.4386 10.6292 59.8252 10.8651C60.2086 11.1011 60.4003 11.468 60.4003 11.9661V14.9987C60.4003 15.0905 60.4183 15.1642 60.4544 15.2199C60.4937 15.2756 60.574 15.3035 60.6952 15.3035C60.7345 15.3035 60.7788 15.3018 60.8279 15.2985C60.8771 15.292 60.9295 15.2838 60.9852 15.274V15.9277C60.8476 15.967 60.7427 15.9916 60.6706 16.0014C60.5986 16.0112 60.5002 16.0161 60.3757 16.0161C60.071 16.0161 59.8498 15.908 59.7122 15.6917C59.6401 15.5771 59.5893 15.4149 59.5598 15.2052C59.3796 15.4411 59.1207 15.6459 58.7832 15.8195C58.4457 15.9932 58.0738 16.08 57.6675 16.08C57.1793 16.08 56.7795 15.9326 56.4682 15.6377C56.1602 15.3395 56.0062 14.9676 56.0062 14.522C56.0062 14.0337 56.1586 13.6553 56.4633 13.3866C56.7681 13.1179 57.1678 12.9524 57.6626 12.8901L59.0732 12.7132ZM56.9303 14.5023C56.9303 14.7579 57.0236 14.9594 57.2104 15.1069C57.3972 15.2543 57.6184 15.328 57.874 15.328C58.1852 15.328 58.4867 15.2559 58.7783 15.1118C59.2698 14.8726 59.5156 14.481 59.5156 13.9371V13.2244C59.4075 13.2932 59.2682 13.3505 59.0978 13.3964C58.9274 13.4423 58.7603 13.475 58.5965 13.4947L58.0607 13.5635C57.7396 13.6061 57.4988 13.6733 57.3382 13.765C57.0662 13.919 56.9303 14.1648 56.9303 14.5023Z" fill="black"/>
<path fill-rule="evenodd" clip-rule="evenodd" d="M51.9906 15.8195C51.8333 15.7212 51.658 15.5525 51.4647 15.3133V18.0018H50.58V10.6636H51.4401V11.3616C51.617 11.1224 51.8104 10.9372 52.0201 10.8061C52.3183 10.6095 52.6689 10.5112 53.0719 10.5112C53.6683 10.5112 54.1745 10.7406 54.5907 11.1994C55.0068 11.6548 55.2149 12.3069 55.2149 13.1556C55.2149 14.3024 54.9151 15.1216 54.3154 15.6131C53.9353 15.9244 53.493 16.08 52.9884 16.08C52.5919 16.08 52.2593 15.9932 51.9906 15.8195ZM52.8704 15.3084C53.2833 15.3084 53.6257 15.1363 53.8976 14.7923C54.1729 14.445 54.3105 13.9272 54.3105 13.2391C54.3105 12.8197 54.2499 12.4593 54.1287 12.1578C53.8993 11.5778 53.4799 11.2878 52.8704 11.2878C52.2576 11.2878 51.8382 11.5942 51.6121 12.2069C51.4909 12.5346 51.4303 12.9508 51.4303 13.4554C51.4303 13.8617 51.4909 14.2074 51.6121 14.4925C51.8415 15.0364 52.2609 15.3084 52.8704 15.3084Z" fill="black"/>
<path d="M78.5321 8.93841H77.613V9.96075H78.5321V8.93841Z" fill="black"/>
</svg>
