<svg width="28" height="34" viewBox="0 0 28 34" fill="none" xmlns="http://www.w3.org/2000/svg">
<rect x="1.27051" y="1.56445" width="11.0466" height="22.5954" stroke="black" stroke-width="2.48" stroke-linecap="round"/>
<path d="M1.27686 25.7769L6.76343 31.2634L12.25 25.7769" stroke="black" stroke-width="2.48" stroke-linecap="round"/>
<path d="M8.24121 30.634H7.00121V33.114H8.24121V30.634ZM25.7658 33.114C26.4506 33.114 27.0058 32.5589 27.0058 31.874C27.0058 31.1892 26.4506 30.634 25.7658 30.634V33.114ZM8.24121 33.114C11.8245 33.114 14.4138 33.114 17.0035 33.114C19.5932 33.114 22.1825 33.114 25.7658 33.114V30.634C22.1825 30.634 19.5932 30.634 17.0035 30.634C14.4138 30.634 11.8245 30.634 8.24121 30.634V33.114Z" fill="black"/>
</svg>
