<svg width="18" height="14" viewBox="0 0 18 14" fill="none" xmlns="http://www.w3.org/2000/svg">
<path d="M1.11914 0.449646C0.566849 0.449646 0.119141 0.897362 0.119141 1.44965V1.82248L7.28693 4.9371L14.4941 1.80536V1.44965C14.4941 0.897362 14.0464 0.449646 13.4941 0.449646H1.11914Z" fill="black"/>
<path d="M14.4941 3.11376L7.28693 6.24549L0.119141 3.13087V9.47736C0.119141 10.0296 0.566849 10.4774 1.11914 10.4774H7.35107V10.4352C8.88882 8.40953 11.2694 8.11258 12.2675 8.21731L12.2674 7.11387C12.267 6.74298 12.2666 6.48785 12.8959 6.11028C13.4134 5.79977 14.1611 6.34925 14.4703 6.6628H14.4941V3.11376Z" fill="black"/>
<path d="M7.30664 13.4967C7.56583 12.0996 8.73233 9.30545 11.325 9.30545H13.3127V7.10181L17.6336 10.3857L13.3127 13.756V11.4659H11.325C10.6118 11.5753 8.80981 12.1345 7.30664 13.4967Z" fill="black"/>
</svg>
