<svg width="132" height="42" viewBox="0 0 132 42" fill="none" xmlns="http://www.w3.org/2000/svg">
<title>produced by human, not by AI</title>
<path d="M1.29688 0.601532H116.44C124.449 0.601532 130.94 7.0934 130.94 15.1015V41.2755H15.7969C7.78874 41.2755 1.29688 34.7836 1.29688 26.7755V0.601532Z" fill="black" stroke="#ACACAC"/>
<path fill-rule="evenodd" clip-rule="evenodd" d="M33.5272 21.2773C33.5272 26.5227 29.275 30.7749 24.0296 30.7749C18.7842 30.7749 14.532 26.5227 14.532 21.2773C14.532 16.0319 18.7842 11.7796 24.0296 11.7796C29.275 11.7796 33.5272 16.0319 33.5272 21.2773ZM35.6856 21.2773C35.6856 27.7147 30.4671 32.9333 24.0296 32.9333C17.5921 32.9333 12.3735 27.7147 12.3735 21.2773C12.3735 14.8398 17.5921 9.62122 24.0296 9.62122C30.4671 9.62122 35.6856 14.8398 35.6856 21.2773ZM18.415 23.9709C21.9281 26.8157 26.9523 26.8157 30.4654 23.9709L29.1071 22.2934C26.386 24.4969 22.4944 24.4969 19.7733 22.2934L18.415 23.9709ZM19.878 20.2773V17.3614H22.0365V20.2773H19.878ZM26.5757 17.3614V20.2773H28.7341V17.3614H26.5757Z" fill="white"/>
<path d="M48.5658 22.1499C49.5542 22.1499 50.3612 22.4102 50.987 22.9307C51.6186 23.4453 51.9344 24.3021 51.9344 25.5009V31.9398H49.3729V26.1238C49.3729 25.6208 49.3056 25.2348 49.1711 24.9658C48.9255 24.4746 48.4576 24.229 47.7675 24.229C46.9196 24.229 46.3377 24.5886 46.0219 25.3079C45.8581 25.6881 45.7762 26.1735 45.7762 26.7641V31.9398H43.2849V22.3956H45.6973V23.7903C46.0189 23.2991 46.323 22.9453 46.6096 22.7289C47.1242 22.3429 47.7763 22.1499 48.5658 22.1499Z" fill="white"/>
<path d="M57.8213 30.1766C58.5523 30.1766 59.1137 29.9163 59.5055 29.3958C59.8974 28.8753 60.0933 28.1355 60.0933 27.1764C60.0933 26.2173 59.8974 25.4805 59.5055 24.9658C59.1137 24.4453 58.5523 24.1851 57.8213 24.1851C57.0902 24.1851 56.5259 24.4453 56.1282 24.9658C55.7364 25.4805 55.5405 26.2173 55.5405 27.1764C55.5405 28.1355 55.7364 28.8753 56.1282 29.3958C56.5259 29.9163 57.0902 30.1766 57.8213 30.1766ZM62.7162 27.1764C62.7162 28.58 62.3127 29.7818 61.5056 30.7818C60.6986 31.776 59.4734 32.2731 57.83 32.2731C56.1867 32.2731 54.9615 31.776 54.1544 30.7818C53.3474 29.7818 52.9439 28.58 52.9439 27.1764C52.9439 25.7963 53.3474 24.6003 54.1544 23.5886C54.9615 22.5768 56.1867 22.071 57.83 22.071C59.4734 22.071 60.6986 22.5768 61.5056 23.5886C62.3127 24.6003 62.7162 25.7963 62.7162 27.1764Z" fill="white"/>
<path d="M62.8134 24.2465V22.4657H64.1468V19.799H66.6205V22.4657H68.1732V24.2465H66.6205V29.2993C66.6205 29.6912 66.6702 29.9368 66.7697 30.0362C66.8691 30.1298 67.1732 30.1766 67.682 30.1766C67.758 30.1766 67.837 30.1766 67.9188 30.1766C68.0066 30.1707 68.0914 30.1649 68.1732 30.159V32.0275L66.989 32.0714C65.8076 32.1123 65.0006 31.9076 64.5678 31.4573C64.2871 31.1707 64.1468 30.7292 64.1468 30.1327V24.2465H62.8134Z" fill="white"/>
<path d="M77.8298 22.1675C79.0871 22.1675 80.0696 22.6207 80.7773 23.5272C81.4907 24.4336 81.8475 25.6033 81.8475 27.0361C81.8475 28.5215 81.4966 29.7526 80.7948 30.7292C80.093 31.7058 79.1134 32.1942 77.8561 32.1942C77.0666 32.1942 76.4321 32.0363 75.9525 31.7205C75.666 31.5333 75.356 31.2058 75.0226 30.738V31.9398H72.5752V19.027H75.0665V23.6237C75.3823 23.1792 75.7303 22.84 76.1104 22.6061C76.5607 22.3137 77.1338 22.1675 77.8298 22.1675ZM77.1894 30.1327C77.8327 30.1327 78.3327 29.8724 78.6895 29.352C79.0462 28.8315 79.2246 28.1472 79.2246 27.2992C79.2246 26.6209 79.1368 26.0594 78.9614 25.615C78.6281 24.7728 78.014 24.3518 77.1192 24.3518C76.2128 24.3518 75.5899 24.7641 75.2507 25.5887C75.0753 26.0273 74.9876 26.5945 74.9876 27.2905C74.9876 28.1092 75.1689 28.7876 75.5314 29.3256C75.894 29.8637 76.4467 30.1327 77.1894 30.1327Z" fill="white"/>
<path d="M83.3131 33.7732L83.6289 33.7907C83.8746 33.8024 84.1085 33.7936 84.3307 33.7644C84.553 33.7352 84.7401 33.6679 84.8922 33.5626C85.0384 33.4632 85.1729 33.2556 85.2957 32.9398C85.4243 32.624 85.477 32.431 85.4536 32.3608L81.9447 22.378H84.7255L86.8133 29.4309L88.787 22.378H91.445L88.1642 31.7819C87.5326 33.5948 87.0326 34.7177 86.6641 35.1504C86.2957 35.589 85.5588 35.8083 84.4535 35.8083C84.2313 35.8083 84.0529 35.8054 83.9184 35.7996C83.7839 35.7996 83.5822 35.7908 83.3131 35.7733V33.7732Z" fill="white"/>
<path d="M97.9774 27.0536H101.258L99.6442 21.9657L97.9774 27.0536ZM98.1441 19.0095H101.197L105.776 31.9398H102.846L102.013 29.2818H97.2493L96.3546 31.9398H93.5299L98.1441 19.0095Z" fill="white"/>
<path d="M110.764 31.9398H108.079V19.0095H110.764V31.9398Z" fill="white"/>
<path d="M106.487 19.0095H112.171V21.2089H106.487V19.0095Z" fill="white"/>
<path d="M106.487 29.7433H112.171V31.9428H106.487V29.7433Z" fill="white"/>
<path d="M45.272 14.5179C45.644 14.5179 45.9526 14.3629 46.1976 14.0529C46.4456 13.7399 46.5696 13.2734 46.5696 12.6534C46.5696 12.2755 46.515 11.9507 46.4058 11.6791C46.1991 11.1565 45.8212 10.8952 45.272 10.8952C44.7199 10.8952 44.342 11.1713 44.1383 11.7234C44.029 12.0186 43.9744 12.3936 43.9744 12.8483C43.9744 13.2144 44.029 13.5259 44.1383 13.7827C44.345 14.2728 44.7229 14.5179 45.272 14.5179ZM43.2083 10.3328H43.9833V10.9616C44.1427 10.7461 44.3169 10.5793 44.5059 10.4612C44.7745 10.284 45.0905 10.1955 45.4536 10.1955C45.991 10.1955 46.4471 10.4021 46.8221 10.8155C47.197 11.2259 47.3845 11.8134 47.3845 12.5781C47.3845 13.6115 47.1144 14.3496 46.5741 14.7925C46.2316 15.073 45.833 15.2132 45.3783 15.2132C45.0211 15.2132 44.7214 15.135 44.4793 14.9785C44.3376 14.8899 44.1796 14.7379 44.0054 14.5223V16.9448H43.2083V10.3328Z" fill="white"/>
<path d="M48.0237 10.3106H48.781V11.1299C48.843 10.9705 48.995 10.7771 49.2371 10.5498C49.4792 10.3195 49.7583 10.2043 50.0742 10.2043C50.0889 10.2043 50.114 10.2058 50.1495 10.2088C50.1849 10.2117 50.2454 10.2176 50.331 10.2265V11.0679C50.2838 11.0591 50.2395 11.0532 50.1982 11.0502C50.1598 11.0473 50.117 11.0458 50.0697 11.0458C49.6682 11.0458 49.3597 11.1757 49.1441 11.4355C48.9286 11.6924 48.8208 11.9891 48.8208 12.3257V15.0538H48.0237V10.3106Z" fill="white"/>
<path d="M52.5867 14.54C53.1152 14.54 53.4768 14.3407 53.6717 13.9422C53.8695 13.5406 53.9684 13.0948 53.9684 12.6047C53.9684 12.1618 53.8976 11.8016 53.7558 11.5241C53.5315 11.0871 53.1447 10.8686 52.5955 10.8686C52.1084 10.8686 51.7541 11.0546 51.5326 11.4267C51.3112 11.7987 51.2005 12.2474 51.2005 12.773C51.2005 13.2779 51.3112 13.6986 51.5326 14.0352C51.7541 14.3717 52.1054 14.54 52.5867 14.54ZM52.6177 10.1733C53.2288 10.1733 53.7455 10.377 54.1677 10.7845C54.5899 11.1919 54.801 11.7913 54.801 12.5825C54.801 13.3472 54.615 13.9791 54.243 14.478C53.871 14.977 53.2938 15.2265 52.5114 15.2265C51.8589 15.2265 51.3407 15.0065 50.9569 14.5666C50.5731 14.1237 50.3812 13.5303 50.3812 12.7863C50.3812 11.9891 50.5834 11.3543 50.9879 10.8819C51.3924 10.4095 51.9356 10.1733 52.6177 10.1733Z" fill="white"/>
<path d="M55.9406 12.7376C55.9406 13.2454 56.0484 13.6705 56.2639 14.013C56.4794 14.3555 56.8249 14.5268 57.3002 14.5268C57.6693 14.5268 57.9719 14.3688 58.2081 14.0529C58.4473 13.734 58.5668 13.2779 58.5668 12.6844C58.5668 12.0851 58.4443 11.6422 58.1993 11.3558C57.9542 11.0665 57.6516 10.9218 57.2914 10.9218C56.8898 10.9218 56.5636 11.0753 56.3126 11.3824C56.0646 11.6894 55.9406 12.1412 55.9406 12.7376ZM57.1408 10.2265C57.504 10.2265 57.8081 10.3032 58.0531 10.4568C58.1948 10.5453 58.3557 10.7003 58.5358 10.9218V8.52585H59.302V15.0538H58.5846V14.3939C58.3986 14.6862 58.1786 14.8973 57.9247 15.0272C57.6708 15.1571 57.3799 15.2221 57.0522 15.2221C56.5237 15.2221 56.0661 15.0006 55.6793 14.5578C55.2926 14.1119 55.0992 13.52 55.0992 12.7818C55.0992 12.091 55.2748 11.4931 55.6262 10.9882C55.9805 10.4804 56.4853 10.2265 57.1408 10.2265Z" fill="white"/>
<path d="M60.9642 10.3106V13.4594C60.9642 13.7015 61.0026 13.8994 61.0793 14.0529C61.2211 14.3363 61.4853 14.478 61.8721 14.478C62.4271 14.478 62.8051 14.23 63.0058 13.734C63.1151 13.4683 63.1697 13.1037 63.1697 12.6401V10.3106H63.9669V15.0538H63.214L63.2228 14.354C63.1195 14.5341 62.9911 14.6862 62.8375 14.8102C62.5334 15.0582 62.1644 15.1822 61.7304 15.1822C61.0542 15.1822 60.5937 14.9563 60.3486 14.5046C60.2157 14.2625 60.1493 13.9392 60.1493 13.5347V10.3106H60.9642Z" fill="white"/>
<path d="M66.7274 10.1733C67.2618 10.1733 67.6958 10.3032 68.0294 10.5631C68.366 10.8229 68.5682 11.2702 68.6361 11.905H67.8611C67.8139 11.6127 67.7061 11.3706 67.5378 11.1786C67.3695 10.9838 67.0994 10.8864 66.7274 10.8864C66.2195 10.8864 65.8564 11.1344 65.6379 11.6304C65.4962 11.9522 65.4253 12.3493 65.4253 12.8217C65.4253 13.297 65.5257 13.6971 65.7265 14.0219C65.9272 14.3467 66.2432 14.509 66.6742 14.509C67.0049 14.509 67.2662 14.4087 67.4581 14.2079C67.653 14.0042 67.7873 13.7266 67.8611 13.3753H68.6361C68.5476 14.0042 68.3261 14.4647 67.9718 14.757C67.6175 15.0464 67.1643 15.1911 66.6122 15.1911C65.9922 15.1911 65.4977 14.9652 65.1286 14.5135C64.7595 14.0588 64.575 13.4919 64.575 12.8128C64.575 11.9802 64.7773 11.3322 65.1817 10.8686C65.5862 10.4051 66.1014 10.1733 66.7274 10.1733Z" fill="white"/>
<path d="M71.0911 10.2043C71.4276 10.2043 71.7539 10.284 72.0698 10.4435C72.3857 10.6 72.6263 10.8037 72.7917 11.0546C72.9511 11.2938 73.0574 11.5728 73.1106 11.8917C73.1578 12.1102 73.1814 12.4585 73.1814 12.9368H69.7049C69.7196 13.4181 69.8333 13.8049 70.0459 14.0972C70.2585 14.3865 70.5877 14.5312 71.0335 14.5312C71.4498 14.5312 71.7819 14.3939 72.0299 14.1193C72.1717 13.9599 72.272 13.7753 72.3311 13.5657H73.115C73.0943 13.7399 73.0249 13.9348 72.9068 14.1503C72.7917 14.3629 72.6618 14.5371 72.5171 14.6729C72.275 14.9091 71.9753 15.0685 71.6181 15.1512C71.4262 15.1984 71.2092 15.2221 70.9671 15.2221C70.3766 15.2221 69.8761 15.008 69.4657 14.5799C69.0553 14.1488 68.8501 13.5465 68.8501 12.773C68.8501 12.0112 69.0568 11.3927 69.4702 10.9174C69.8835 10.442 70.4238 10.2043 71.0911 10.2043ZM72.3621 12.3035C72.3296 11.9581 72.2543 11.682 72.1362 11.4754C71.9178 11.0915 71.5531 10.8996 71.0423 10.8996C70.6762 10.8996 70.3692 11.0325 70.1212 11.2982C69.8732 11.561 69.7418 11.8961 69.727 12.3035H72.3621Z" fill="white"/>
<path d="M74.352 12.7376C74.352 13.2454 74.4598 13.6705 74.6753 14.013C74.8908 14.3555 75.2363 14.5268 75.7116 14.5268C76.0807 14.5268 76.3833 14.3688 76.6195 14.0529C76.8587 13.734 76.9782 13.2779 76.9782 12.6844C76.9782 12.0851 76.8557 11.6422 76.6107 11.3558C76.3656 11.0665 76.063 10.9218 75.7028 10.9218C75.3012 10.9218 74.975 11.0753 74.724 11.3824C74.476 11.6894 74.352 12.1412 74.352 12.7376ZM75.5522 10.2265C75.9153 10.2265 76.2195 10.3032 76.4645 10.4568C76.6062 10.5453 76.7671 10.7003 76.9472 10.9218V8.52585H77.7134V15.0538H76.996V14.3939C76.8099 14.6862 76.59 14.8973 76.3361 15.0272C76.0822 15.1571 75.7913 15.2221 75.4636 15.2221C74.9351 15.2221 74.4775 15.0006 74.0907 14.5578C73.7039 14.1119 73.5106 13.52 73.5106 12.7818C73.5106 12.091 73.6862 11.4931 74.0376 10.9882C74.3919 10.4804 74.8967 10.2265 75.5522 10.2265Z" fill="white"/>
<path d="M80.7233 8.52585H81.4984V10.8864C81.6726 10.659 81.8807 10.4863 82.1228 10.3682C82.3649 10.2471 82.6277 10.1866 82.9111 10.1866C83.5016 10.1866 83.9799 10.3903 84.346 10.7978C84.7151 11.2023 84.8996 11.8001 84.8996 12.5914C84.8996 13.3413 84.718 13.9643 84.3549 14.4603C83.9917 14.9563 83.4883 15.2043 82.8447 15.2043C82.4845 15.2043 82.1804 15.1172 81.9324 14.9431C81.7847 14.8397 81.6268 14.6744 81.4585 14.447V15.0538H80.7233V8.52585ZM82.796 14.5002C83.227 14.5002 83.5489 14.3289 83.7614 13.9864C83.977 13.644 84.0847 13.1922 84.0847 12.6313C84.0847 12.1323 83.977 11.7189 83.7614 11.3912C83.5489 11.0635 83.2344 10.8996 82.8181 10.8996C82.455 10.8996 82.1361 11.034 81.8615 11.3026C81.5899 11.5713 81.4541 12.0142 81.4541 12.6313C81.4541 13.0771 81.5102 13.4388 81.6224 13.7163C81.832 14.2389 82.2232 14.5002 82.796 14.5002Z" fill="white"/>
<path d="M88.4794 10.3106H89.3607C89.2485 10.6147 88.9991 11.3086 88.6123 12.3921C88.3229 13.207 88.0808 13.8713 87.886 14.385C87.4254 15.5955 87.1006 16.3337 86.9117 16.5994C86.7227 16.8651 86.3979 16.998 85.9373 16.998C85.8251 16.998 85.738 16.9935 85.676 16.9847C85.617 16.9758 85.5432 16.9596 85.4546 16.936V16.2097C85.5934 16.248 85.6938 16.2717 85.7558 16.2805C85.8178 16.2894 85.8724 16.2938 85.9196 16.2938C86.0672 16.2938 86.175 16.2687 86.2429 16.2185C86.3138 16.1713 86.3728 16.1122 86.4201 16.0414C86.4348 16.0178 86.488 15.8967 86.5795 15.6782C86.671 15.4597 86.7375 15.2973 86.7788 15.1911L85.025 10.3106H85.9285L87.1995 14.1725L88.4794 10.3106Z" fill="white"/>
<path d="M91.9411 8.52585H92.7382V10.9528C92.9272 10.7136 93.097 10.5453 93.2475 10.4479C93.5044 10.2796 93.8248 10.1955 94.2086 10.1955C94.8965 10.1955 95.363 10.4361 95.6081 10.9174C95.7409 11.1801 95.8073 11.5448 95.8073 12.0112V15.0538H94.988V12.0644C94.988 11.716 94.9437 11.4606 94.8552 11.2982C94.7105 11.0384 94.4389 10.9085 94.0403 10.9085C93.7096 10.9085 93.4099 11.0222 93.1413 11.2495C92.8726 11.4768 92.7382 11.9064 92.7382 12.5383V15.0538H91.9411V8.52585Z" fill="white"/>
<path d="M97.4695 10.3106V13.4594C97.4695 13.7015 97.5079 13.8994 97.5847 14.0529C97.7264 14.3363 97.9906 14.478 98.3774 14.478C98.9325 14.478 99.3104 14.23 99.5112 13.734C99.6204 13.4683 99.675 13.1037 99.675 12.6401V10.3106H100.472V15.0538H99.7193L99.7282 14.354C99.6248 14.5341 99.4964 14.6862 99.3429 14.8102C99.0388 15.0582 98.6697 15.1822 98.2357 15.1822C97.5596 15.1822 97.099 14.9563 96.8539 14.5046C96.7211 14.2625 96.6546 13.9392 96.6546 13.5347V10.3106H97.4695Z" fill="white"/>
<path d="M101.404 10.3106H102.192V10.9838C102.381 10.7505 102.552 10.5808 102.706 10.4745C102.968 10.2944 103.267 10.2043 103.6 10.2043C103.978 10.2043 104.282 10.2973 104.513 10.4833C104.643 10.5896 104.761 10.7461 104.867 10.9528C105.044 10.6989 105.252 10.5114 105.491 10.3903C105.73 10.2663 105.999 10.2043 106.297 10.2043C106.935 10.2043 107.369 10.4346 107.599 10.8952C107.723 11.1432 107.785 11.4768 107.785 11.8961V15.0538H106.957V11.7588C106.957 11.4429 106.878 11.2259 106.718 11.1078C106.562 10.9897 106.37 10.9306 106.142 10.9306C105.829 10.9306 105.559 11.0355 105.332 11.2451C105.108 11.4547 104.995 11.8046 104.995 12.2947V15.0538H104.185V11.9581C104.185 11.6363 104.146 11.4016 104.07 11.2539C103.949 11.0325 103.723 10.9218 103.392 10.9218C103.091 10.9218 102.816 11.0384 102.568 11.2716C102.323 11.5049 102.201 11.9271 102.201 12.5383V15.0538H101.404V10.3106Z" fill="white"/>
<path d="M109.253 13.7916C109.253 14.0219 109.337 14.2035 109.505 14.3363C109.673 14.4692 109.873 14.5356 110.103 14.5356C110.384 14.5356 110.655 14.4707 110.918 14.3407C111.361 14.1252 111.582 13.7724 111.582 13.2823V12.6401C111.485 12.7021 111.359 12.7538 111.206 12.7951C111.052 12.8365 110.902 12.866 110.754 12.8837L110.271 12.9457C109.982 12.9841 109.765 13.0446 109.62 13.1273C109.375 13.266 109.253 13.4875 109.253 13.7916ZM111.184 12.1795C111.367 12.1559 111.489 12.0792 111.551 11.9492C111.587 11.8784 111.604 11.7765 111.604 11.6437C111.604 11.372 111.507 11.1757 111.312 11.0546C111.12 10.9306 110.844 10.8686 110.484 10.8686C110.068 10.8686 109.772 10.9808 109.598 11.2052C109.501 11.3292 109.437 11.5138 109.408 11.7588H108.664C108.678 11.1742 108.867 10.7683 109.231 10.5409C109.597 10.3106 110.02 10.1955 110.502 10.1955C111.06 10.1955 111.513 10.3018 111.861 10.5143C112.207 10.7269 112.379 11.0576 112.379 11.5064V14.2389C112.379 14.3216 112.396 14.388 112.428 14.4382C112.464 14.4884 112.536 14.5135 112.645 14.5135C112.681 14.5135 112.72 14.512 112.765 14.509C112.809 14.5031 112.856 14.4958 112.906 14.4869V15.0759C112.782 15.1113 112.688 15.1335 112.623 15.1423C112.558 15.1512 112.469 15.1556 112.357 15.1556C112.083 15.1556 111.883 15.0582 111.759 14.8633C111.694 14.76 111.649 14.6138 111.622 14.4249C111.46 14.6375 111.226 14.822 110.922 14.9785C110.618 15.135 110.283 15.2132 109.917 15.2132C109.477 15.2132 109.117 15.0803 108.836 14.8146C108.559 14.5459 108.42 14.2108 108.42 13.8093C108.42 13.3694 108.557 13.0284 108.832 12.7863C109.107 12.5442 109.467 12.3951 109.913 12.339L111.184 12.1795Z" fill="white"/>
<path d="M113.373 10.3106H114.13V10.9838C114.355 10.7063 114.592 10.507 114.843 10.3859C115.094 10.2649 115.373 10.2043 115.68 10.2043C116.353 10.2043 116.808 10.4391 117.044 10.9085C117.174 11.1654 117.239 11.5329 117.239 12.0112V15.0538H116.429V12.0644C116.429 11.775 116.386 11.5418 116.3 11.3647C116.159 11.0694 115.902 10.9218 115.53 10.9218C115.341 10.9218 115.186 10.941 115.065 10.9794C114.846 11.0443 114.654 11.1742 114.489 11.3691C114.356 11.5256 114.269 11.6879 114.228 11.8562C114.189 12.0216 114.17 12.2593 114.17 12.5693V15.0538H113.373V10.3106Z" fill="white"/>
</svg>
