<svg width="131" height="42" viewBox="0 0 131 42" fill="none" xmlns="http://www.w3.org/2000/svg">
<path d="M0.5 0.5H116C124.008 0.5 130.5 6.99187 130.5 15V41.5H15C6.99187 41.5 0.5 35.0081 0.5 27V0.5Z" fill="white" stroke="black"/>
<path d="M17.9605 24.1575C21.4266 26.9643 26.3836 26.9643 29.8497 24.1575L28.5095 22.5026C25.8248 24.6766 21.9854 24.6766 19.3007 22.5026L17.9605 24.1575Z" fill="black"/>
<path d="M19.404 20.5134V17.6365H21.5336V20.5134H19.404Z" fill="black"/>
<path d="M26.012 17.6365V20.5134H28.1415V17.6365H26.012Z" fill="black"/>
<path fill-rule="evenodd" clip-rule="evenodd" d="M35 21.5C35 27.8513 29.8513 33 23.5 33C17.1487 33 12 27.8513 12 21.5C12 15.1487 17.1487 10 23.5 10C29.8513 10 35 15.1487 35 21.5ZM32.8705 21.5C32.8705 26.6752 28.6752 30.8705 23.5 30.8705C18.3248 30.8705 14.1295 26.6752 14.1295 21.5C14.1295 16.3248 18.3248 12.1295 23.5 12.1295C28.6752 12.1295 32.8705 16.3248 32.8705 21.5Z" fill="black"/>
<path fill-rule="evenodd" clip-rule="evenodd" d="M105.32 26.2505C105.32 25.9898 105.336 25.4196 105.336 25.4196H101.424V23.8717H105.573C105.764 26.2238 106.11 28.471 106.651 30.2984C105.776 31.2876 104.759 32.1157 103.612 32.7515C104.107 33.2077 104.953 34.2016 105.288 34.7067C106.138 34.1597 106.93 33.5082 107.658 32.7639C108.338 33.9391 109.193 34.6415 110.254 34.6415C111.898 34.6415 112.649 33.9572 113 30.78C112.377 30.5356 111.563 29.9817 111.036 29.4277C110.956 31.4155 110.765 32.2301 110.445 32.2301C110.06 32.2301 109.67 31.686 109.312 30.7655C110.465 29.1244 111.389 27.1985 112.058 25.0611L109.711 24.4908C109.396 25.6095 108.983 26.659 108.478 27.6243C108.264 26.4884 108.09 25.2105 107.974 23.8717H112.84V21.5418H111.142L111.946 20.6945C111.387 20.1568 110.27 19.4399 109.455 19L108.05 20.4175C108.553 20.7329 109.148 21.1437 109.647 21.5418H107.835C107.811 20.7923 107.808 20.0385 107.827 19.2933H105.384C105.387 20.0364 105.403 20.7892 105.433 21.5418H98.9812V26.4297C98.9812 28.5642 98.9014 31.4481 97.7199 33.3707C98.2468 33.6477 99.3006 34.5275 99.6997 35C100.514 33.7498 100.957 32.0088 101.189 30.2753C101.506 30.8638 101.745 31.7506 101.775 32.4257C102.51 32.4257 103.18 32.4094 103.612 32.3279C104.091 32.2301 104.458 32.0672 104.809 31.5947C105.192 31.0733 105.272 29.5743 105.32 26.2505ZM101.197 30.2141C101.316 29.3052 101.378 28.4 101.406 27.5703H103.058C103.023 29.1922 102.963 29.8644 102.829 30.0631C102.701 30.2261 102.558 30.275 102.35 30.275C102.102 30.275 101.674 30.2596 101.197 30.2141Z" fill="black"/>
<path d="M86.8673 22.112C87.1314 21.4187 87.3672 20.705 87.565 19.9939L85.1541 19.4399C84.6112 21.6395 83.5893 23.8717 82.3599 25.2077C82.9507 25.5336 83.9885 26.2342 84.4515 26.6415C84.9297 26.0332 85.4007 25.2744 85.839 24.4257H88.9062V26.9185H84.7709V29.1996H88.9062V32.002H82.8708V34.3157H97.4005V32.002H91.3332V29.1996H95.9156V26.9185H91.3332V24.4257H96.5543V22.112H91.3332V19.277H88.9062V22.112H86.8673Z" fill="black"/>
<path d="M47.3436 28.4645C47.4377 28.0285 47.4856 27.6141 47.4988 27.2444H43.8462V25.11H47.5026V23.4807H43.6866V21.2811H47.5026V19.3585H49.8018V27C49.8018 29.8513 48.9396 33.0611 45.0278 34.9837C44.6446 34.4134 43.9261 33.6802 43.3672 33.224C44.7784 32.6761 45.7414 31.786 46.3804 30.8057C45.6568 30.9237 44.9507 31.0375 44.2921 31.1436L43.4151 31.2851L43 28.9226C44.1273 28.8236 45.7056 28.6496 47.3436 28.4645Z" fill="black"/>
<path fill-rule="evenodd" clip-rule="evenodd" d="M72.6755 34.3304L67.632 19.7975H64.2696L59.1875 34.3304H62.2986L63.2841 31.3429H68.5305L69.4484 34.3304H72.6755ZM65.9218 23.1201L67.6996 28.8386H64.0861L65.9218 23.1201Z" fill="black"/>
<path d="M53.7456 19.3585V21.2811H57.9289V23.4807H53.7456V25.11H57.5457V27.2444H53.7456V28.9063H58.2163V31.1059H53.7456V34.7556H51.4144V19.3585H53.7456Z" fill="black"/>
<path d="M75.2124 22.2695V31.8617H73.4582V34.3337H79.7189V31.8617H78.169V22.2695H79.7189V19.7975H73.4582V22.2695H75.2124Z" fill="black"/>
<path d="M63.3102 12.175C63.7275 12.0782 64.2352 11.9467 64.7864 11.7998V9.69022H63.4527V8.9663H64.7864V7H65.5601V8.9663H66.7411V9.69022H65.5601V11.5921L65.6807 11.5596C66.0307 11.4652 66.3875 11.3689 66.7411 11.275L66.8429 11.9696C66.418 12.0949 65.9849 12.2216 65.5601 12.3443V15.1098C65.5601 15.5304 65.4685 15.7359 65.1936 15.8533C64.9187 15.9804 64.5115 15.9902 63.809 15.9804C63.7785 15.8043 63.6767 15.5011 63.5749 15.2957C64.0432 15.3054 64.4708 15.3054 64.593 15.2957C64.7355 15.2957 64.7864 15.2565 64.7864 15.1098V12.5658C64.3317 12.6948 63.8999 12.8148 63.5138 12.9185L63.3102 12.175Z" fill="black"/>
<path fill-rule="evenodd" clip-rule="evenodd" d="M70.3145 7.11739C70.1517 7.66141 69.9533 8.26219 69.7646 8.75109H72.2489V15.9022H71.4649V15.4326H68.0442V15.9707H67.2807V8.75109H68.9983C69.1742 8.21654 69.3534 7.51979 69.439 7.00978L70.3145 7.11739ZM71.4649 12.4098V14.7283H68.0442V12.4098H71.4649ZM71.4649 11.7152H68.0442V9.45544H71.4649V11.7152Z" fill="black"/>
<path d="M74.7842 11.5367C74.2941 11.6938 73.848 11.8311 73.4912 11.9304L73.7152 12.6543C74.0433 12.5315 74.4054 12.3949 74.7842 12.2504V15.1293C74.7842 15.2565 74.7333 15.2859 74.6213 15.2859C74.4991 15.2957 74.153 15.2957 73.7559 15.2859C73.8577 15.4815 73.9392 15.7848 73.9697 15.9707C74.5602 15.9707 74.9267 15.9511 75.1609 15.8337C75.4052 15.7163 75.4866 15.5109 75.4866 15.1293V11.9804C75.7943 11.8612 76.1059 11.7393 76.4131 11.6174L76.2909 11.0402C76.0208 11.1309 75.7508 11.221 75.4866 11.308V9.44565H76.4131V8.77065H75.4866V7H74.7842V8.77065H73.6337V9.44565H74.7842V11.5367Z" fill="black"/>
<path fill-rule="evenodd" clip-rule="evenodd" d="M76.5963 11.0109C76.7989 11.0057 77.0169 10.9998 77.2479 10.9931V7.97826H76.4538V7.43044H82.776V7.97826H81.8699V10.8281C82.2102 10.8143 82.5506 10.8002 82.888 10.7859L82.8778 11.3141C82.5434 11.3317 82.2065 11.349 81.8699 11.366V11.8326H81.1878V11.4C79.5075 11.483 77.8861 11.5563 76.688 11.6076L76.5963 11.0109ZM81.1878 10.8554C80.0342 10.9007 78.9084 10.9412 77.9402 10.972V10.2478H81.1878V10.8554ZM77.9402 7.97826H81.1878V8.6337H77.9402V7.97826ZM77.9402 9.10326H81.1878V9.77826H77.9402V9.10326Z" fill="black"/>
<path d="M78.8768 12.087L78.7648 12.1065H76.2909V12.713H78.472C78.3094 13.1063 78.0945 13.4747 77.843 13.8099C77.4632 13.5396 77.0657 13.2747 76.7083 13.0554L76.2807 13.437C76.6585 13.6789 77.074 13.9687 77.4649 14.2605C76.9688 14.7909 76.3828 15.2065 75.7921 15.462C75.9244 15.5891 76.1077 15.8337 76.1891 15.9804C76.8308 15.6791 77.4451 15.2305 77.969 14.6493C78.2602 14.8819 78.5164 15.1024 78.7037 15.2859L79.1517 14.8457C78.949 14.6546 78.6672 14.4235 78.3492 14.1818C78.7553 13.6272 79.0835 12.9781 79.2942 12.2435L78.8768 12.087Z" fill="black"/>
<path fill-rule="evenodd" clip-rule="evenodd" d="M80.5381 14.4951C80.142 13.9815 79.8339 13.3774 79.6144 12.7033H79.3553V12.0967H82.1754L82.2975 12.0674L82.6844 12.2239C82.4279 13.1457 81.9809 13.9037 81.4137 14.5086C81.8559 14.9166 82.3868 15.2334 83 15.4326C82.8473 15.5696 82.6437 15.8239 82.5419 16C81.9227 15.7604 81.3888 15.4055 80.9411 14.9554C80.3905 15.4174 79.7611 15.7631 79.1008 16C79.0295 15.8435 78.8666 15.5989 78.7343 15.462C79.3784 15.2627 80.0015 14.9367 80.5381 14.4951ZM80.9969 14.0656C80.6705 13.6664 80.4107 13.2068 80.2218 12.7033H81.8796C81.667 13.2197 81.363 13.6755 80.9969 14.0656Z" fill="black"/>
<path d="M57.4519 7.21515C57.4534 7.1489 57.4548 7.08655 57.4564 7.02942H58.3014L58.3004 7.07178C58.2922 7.42129 58.2812 7.89336 58.2357 8.44297C58.3792 9.59338 58.9991 13.7428 62.6282 15.2957C62.4042 15.462 62.1802 15.7164 62.0683 15.9218C59.5087 14.7728 58.4059 12.358 57.9053 10.53C57.4257 12.4882 56.3415 14.6778 53.8524 15.9609C53.7201 15.7653 53.4656 15.5403 53.2314 15.3838C57.3126 13.3994 57.414 8.90171 57.4519 7.21847L57.4519 7.21739L57.4519 7.21515Z" fill="black"/>
<path d="M48.6503 14.7676L49.1288 14.2784C50.2792 14.6306 51.5314 15.0904 52.2746 15.4621L51.6536 15.9708C50.9613 15.5991 49.8007 15.1295 48.6503 14.7676Z" fill="black"/>
<path d="M46.1357 14.2784L46.8381 14.7089C45.983 15.2078 44.6187 15.7165 43.5294 15.9904C43.4174 15.8437 43.1629 15.5893 43 15.4524C44.0893 15.198 45.4536 14.6991 46.1357 14.2784Z" fill="black"/>
<path fill-rule="evenodd" clip-rule="evenodd" d="M44.6595 13.4958H43.1934V14.1219H52.2339V13.4958H50.7984V9.0741H47.9784V8.45779H51.9692V7.82192H47.9784V7.00997H47.225V7.82192H43.4785V8.45779H47.225V9.0741H44.6595V13.4958ZM45.3925 13.4958H50.0349V12.8111H45.3925V13.4958ZM45.3925 12.3415H50.0349V11.7545H45.3925V12.3415ZM45.3925 11.2752H50.0349V10.698H45.3925V11.2752ZM45.3925 10.2382H50.0349V9.59257H45.3925V10.2382Z" fill="black"/>
</svg>
