<svg width="131" height="42" viewBox="0 0 131 42" fill="none" xmlns="http://www.w3.org/2000/svg">
<path d="M0.5 0.5H116C124.008 0.5 130.5 6.99187 130.5 15V41.5H15C6.99187 41.5 0.5 35.0081 0.5 27V0.5Z" fill="white" stroke="black"/>
<path d="M17.9605 24.1575C21.4266 26.9643 26.3836 26.9643 29.8497 24.1575L28.5095 22.5026C25.8248 24.6766 21.9854 24.6766 19.3007 22.5026L17.9605 24.1575Z" fill="black"/>
<path d="M19.404 20.5134V17.6365H21.5336V20.5134H19.404Z" fill="black"/>
<path d="M26.012 17.6365V20.5134H28.1415V17.6365H26.012Z" fill="black"/>
<path fill-rule="evenodd" clip-rule="evenodd" d="M35 21.5C35 27.8513 29.8513 33 23.5 33C17.1487 33 12 27.8513 12 21.5C12 15.1487 17.1487 10 23.5 10C29.8513 10 35 15.1487 35 21.5ZM32.8705 21.5C32.8705 26.6752 28.6752 30.8705 23.5 30.8705C18.3248 30.8705 14.1295 26.6752 14.1295 21.5C14.1295 16.3248 18.3248 12.1295 23.5 12.1295C28.6752 12.1295 32.8705 16.3248 32.8705 21.5Z" fill="black"/>
<path fill-rule="evenodd" clip-rule="evenodd" d="M104.32 26.2505C104.32 25.9898 104.336 25.4196 104.336 25.4196H100.424V23.8717H104.573C104.764 26.2238 105.11 28.471 105.651 30.2984C104.776 31.2876 103.759 32.1157 102.612 32.7515C103.107 33.2077 103.953 34.2016 104.288 34.7067C105.138 34.1597 105.93 33.5082 106.658 32.7639C107.338 33.9391 108.193 34.6415 109.254 34.6415C110.898 34.6415 111.649 33.9572 112 30.78C111.377 30.5356 110.563 29.9817 110.036 29.4277C109.956 31.4155 109.765 32.2301 109.445 32.2301C109.06 32.2301 108.67 31.686 108.312 30.7655C109.465 29.1244 110.389 27.1985 111.058 25.0611L108.711 24.4908C108.396 25.6095 107.983 26.659 107.478 27.6243C107.264 26.4884 107.09 25.2105 106.974 23.8717H111.84V21.5418H110.142L110.946 20.6945C110.387 20.1568 109.27 19.4399 108.455 19L107.05 20.4175C107.553 20.7329 108.148 21.1437 108.647 21.5418H106.835C106.811 20.7923 106.808 20.0385 106.827 19.2933H104.384C104.387 20.0364 104.403 20.7892 104.433 21.5418H97.9812V26.4297C97.9812 28.5642 97.9014 31.4481 96.7199 33.3707C97.2468 33.6477 98.3006 34.5275 98.6997 35C99.5135 33.7498 99.9567 32.0088 100.189 30.2753C100.506 30.8638 100.745 31.7506 100.775 32.4257C101.51 32.4257 102.18 32.4094 102.612 32.3279C103.091 32.2301 103.458 32.0672 103.809 31.5947C104.192 31.0733 104.272 29.5743 104.32 26.2505ZM100.197 30.2141C100.316 29.3052 100.378 28.4 100.406 27.5703H102.058C102.023 29.1922 101.963 29.8644 101.829 30.0631C101.701 30.2261 101.558 30.275 101.35 30.275C101.102 30.275 100.674 30.2596 100.197 30.2141Z" fill="black"/>
<path d="M85.8673 22.112C86.1314 21.4187 86.3672 20.705 86.565 19.9939L84.1541 19.4399C83.6112 21.6395 82.5893 23.8717 81.3599 25.2077C81.9507 25.5336 82.9885 26.2342 83.4515 26.6415C83.9297 26.0332 84.4007 25.2744 84.839 24.4257H87.9062V26.9185H83.7709V29.1996H87.9062V32.002H81.8708V34.3157H96.4005V32.002H90.3332V29.1996H94.9156V26.9185H90.3332V24.4257H95.5543V22.112H90.3332V19.277H87.9062V22.112H85.8673Z" fill="black"/>
<path d="M46.3436 28.4645C46.4377 28.0285 46.4856 27.6141 46.4988 27.2444H42.8462V25.11H46.5026V23.4807H42.6866V21.2811H46.5026V19.3585H48.8018V27C48.8018 29.8513 47.9396 33.0611 44.0278 34.9837C43.6446 34.4134 42.9261 33.6802 42.3672 33.224C43.7784 32.6761 44.7414 31.786 45.3804 30.8057C44.6568 30.9237 43.9507 31.0375 43.2921 31.1436L42.4151 31.2851L42 28.9226C43.1273 28.8236 44.7056 28.6496 46.3436 28.4645Z" fill="black"/>
<path fill-rule="evenodd" clip-rule="evenodd" d="M71.6755 34.3304L66.632 19.7975H63.2696L58.1875 34.3304H61.2986L62.2841 31.3429H67.5305L68.4484 34.3304H71.6755ZM64.9218 23.1201L66.6996 28.8386H63.0861L64.9218 23.1201Z" fill="black"/>
<path d="M52.7456 19.3585V21.2811H56.9289V23.4807H52.7456V25.11H56.5457V27.2444H52.7456V28.9063H57.2163V31.1059H52.7456V34.7556H50.4144V19.3585H52.7456Z" fill="black"/>
<path d="M74.2124 22.2695V31.8617H72.4582V34.3337H78.7189V31.8617H77.169V22.2695H78.7189V19.7975H72.4582V22.2695H74.2124Z" fill="black"/>
<path fill-rule="evenodd" clip-rule="evenodd" d="M68.8257 7.20366C68.9777 7.47578 69.14 7.81819 69.2529 8.1153H66.9049V10.2101C66.9049 11.7036 66.8144 13.8566 65.8892 15.4084C66.0501 15.4859 66.3518 15.6993 66.4725 15.8254C67.4032 14.2453 67.5862 11.9712 67.5982 10.3847H71.9936V8.1153H70.0646C69.9532 7.78845 69.7414 7.33734 69.5297 7L68.8257 7.20366ZM67.5988 8.72628H71.2896V9.77369H67.5988V8.72628Z" fill="black"/>
<path d="M63.194 12.7995C63.2744 12.9741 63.3851 13.3038 63.4152 13.4396C63.6063 13.3329 63.9181 13.236 66.1406 12.7316C66.1205 12.5862 66.0903 12.3243 66.0903 12.1304L64.4202 12.4701C65.1317 11.5816 65.8259 10.4968 66.4021 9.42455L65.7786 9.08512C65.6081 9.45782 65.4078 9.83595 65.2015 10.1948L64.0828 10.3064C64.6451 9.45898 65.2049 8.36209 65.6177 7.30064L64.9036 7.05819C64.5416 8.24137 63.8678 9.51184 63.6566 9.83188C63.4555 10.1713 63.2845 10.4041 63.1135 10.4429C63.194 10.6271 63.3147 10.9666 63.3549 11.112C63.4947 11.0446 63.7182 10.9845 64.8109 10.8426C64.4199 11.4629 64.0608 11.9561 63.898 12.1498C63.6063 12.5086 63.3951 12.7607 63.194 12.7995Z" fill="black"/>
<path d="M65.1261 13.9824C64.3692 14.2601 63.6633 14.5191 63.1437 14.6907L63.3247 15.3502C63.5718 15.2531 63.8411 15.148 64.1247 15.0373L64.1262 15.0367L64.1316 15.0346C64.7813 14.781 65.5059 14.4982 66.211 14.2155L66.0803 13.6336C65.7601 13.7497 65.4384 13.8678 65.1261 13.9824Z" fill="black"/>
<path fill-rule="evenodd" clip-rule="evenodd" d="M71.0986 15.9127C71.0684 15.7575 70.998 15.515 70.9175 15.3696H71.4003C71.4707 15.3696 71.4908 15.3502 71.4908 15.2726V13.8275H70.7466V15.6605H70.2337V13.8275H69.5197V15.6702H69.0068V13.8275H68.1821V15.903H67.5787V11.209H72.0942V15.2823C72.0942 15.5441 72.0539 15.709 71.8729 15.806C71.6919 15.903 71.4505 15.9127 71.0986 15.9127ZM68.1821 11.8103H69.0068V13.2457H68.1821V11.8103ZM70.7466 11.8103H71.4908V13.2457H70.7466V11.8103ZM69.5197 13.2457H70.2337V11.8103H69.5197V13.2457Z" fill="black"/>
<path d="M81.638 15.8642C81.8994 15.7478 82 15.5442 82 15.1175V7.24251H81.296V15.1272C81.296 15.2726 81.2457 15.3114 81.0949 15.3211C80.9642 15.3211 80.5015 15.3211 79.9987 15.3114C80.0993 15.5054 80.1998 15.8157 80.2401 16C80.934 16 81.3664 15.9806 81.638 15.8642Z" fill="black"/>
<path fill-rule="evenodd" clip-rule="evenodd" d="M73.0998 14.9914C73.844 13.4009 73.9144 11.1994 73.9144 9.68646V7.55285H78.5204V9.96771H77.0622V11.0248H78.9528V11.6746H77.0622V12.7802H78.5908V15.903H77.9069V15.4957H75.4631V15.9224H74.8095V12.7802H76.3783V11.6746H74.56C74.4497 12.9957 74.1977 14.4434 73.6529 15.5442C73.5423 15.3987 73.2305 15.0884 73.0998 14.9914ZM74.6041 11.0248C74.624 10.6504 74.6337 10.2939 74.637 9.96771H76.3783V11.0248H74.6041ZM77.8064 9.31793H74.6385V8.20263H77.8064V9.31793ZM77.9069 13.4009V14.8653H75.4631V13.4009H77.9069Z" fill="black"/>
<path d="M57.2759 7.28103C57.2774 7.21536 57.2788 7.15355 57.2803 7.09691H58.115L58.114 7.13891C58.106 7.4854 58.0951 7.95339 58.0501 8.49826C58.1919 9.63875 58.8042 13.7524 62.3891 15.2919C62.1679 15.4568 61.9466 15.7089 61.836 15.9126C59.3076 14.7735 58.2182 12.3795 57.7238 10.5673C57.25 12.5086 56.179 14.6793 53.7202 15.9514C53.5895 15.7574 53.3381 15.5344 53.1068 15.3792C57.1383 13.412 57.2384 8.95305 57.2758 7.28433L57.2759 7.28326L57.2759 7.28103Z" fill="black"/>
<path d="M48.5815 14.7683L49.0541 14.2834C50.1905 14.6325 51.4275 15.0883 52.1617 15.4569L51.5482 15.9612C50.8643 15.5927 49.7179 15.1271 48.5815 14.7683Z" fill="black"/>
<path d="M46.0975 14.2834L46.7914 14.7101C45.9466 15.2047 44.599 15.709 43.5229 15.9806C43.4123 15.8351 43.1609 15.583 43 15.4472C44.0761 15.195 45.4237 14.7004 46.0975 14.2834Z" fill="black"/>
<path d="M79.5562 8.20263H80.2401V13.5851H79.5562V8.20263Z" fill="black"/>
<path fill-rule="evenodd" clip-rule="evenodd" d="M44.6392 13.5075H43.1911V14.1282H52.1214V13.5075H50.7034V9.12395H47.9177V8.51296H51.86V7.88257H47.9177V7.07762H47.1735V7.88257H43.4727V8.51296H47.1735V9.12395H44.6392V13.5075ZM45.3633 13.5075V12.8287H49.9492V13.5075H45.3633ZM49.9492 12.3632V11.7813H45.3633V12.3632H49.9492ZM45.3633 11.306H49.9492V10.7338H45.3633V11.306ZM45.3633 10.278H49.9492V9.63795H45.3633V10.278Z" fill="black"/>
</svg>
