<svg width="641" height="539" viewBox="0 0 641 539" fill="none" xmlns="http://www.w3.org/2000/svg">
<rect x="132.871" y="21.616" width="82.6239" height="82.3502" fill="#EAEAEA"/>
<rect x="149.624" y="87.6057" width="49.9994" height="49.7691" transform="rotate(-90 149.624 87.6057)" fill="#B4B7C1"/>
<rect x="230.737" y="21.616" width="82.6239" height="82.3502" fill="#EAEAEA"/>
<rect x="247.49" y="87.6057" width="49.9994" height="49.7691" transform="rotate(-90 247.49 87.6057)" fill="#7881A3"/>
<rect x="328.602" y="21.616" width="82.6239" height="82.3502" fill="#EAEAEA"/>
<rect x="345.355" y="87.6057" width="49.9994" height="49.7691" transform="rotate(-90 345.355 87.6057)" fill="#9D8289"/>
<rect x="426.468" y="21.616" width="82.6239" height="82.3502" fill="#EAEAEA"/>
<rect x="443.22" y="87.6057" width="49.9994" height="49.7691" transform="rotate(-90 443.22 87.6057)" fill="#CAC8B9"/>
<path d="M224.972 4.43066H220.783V6.11182H224.628V7.48682H220.783V9.52246H225.166V10.9458H219.166V3.02881H224.972V4.43066ZM225.756 10.9458L227.754 7.98096L225.842 5.10205H227.717L228.694 6.79932L229.65 5.10205H231.471L229.548 7.9541L231.546 10.9458H229.64L228.63 9.18945L227.615 10.9458H225.756ZM234.028 4.39307H232.476V2.98047H234.028V4.39307ZM232.476 5.09131H234.028V10.9458H232.476V5.09131ZM236.708 9.07666C236.74 9.3488 236.81 9.54215 236.917 9.65674C237.107 9.86084 237.458 9.96289 237.97 9.96289C238.271 9.96289 238.509 9.91813 238.685 9.82861C238.864 9.7391 238.953 9.60482 238.953 9.42578C238.953 9.25391 238.882 9.12321 238.738 9.03369C238.595 8.94417 238.063 8.7902 237.143 8.57178C236.481 8.40706 236.013 8.20117 235.741 7.9541C235.469 7.71061 235.333 7.3597 235.333 6.90137C235.333 6.36068 235.544 5.89697 235.967 5.51025C236.393 5.11995 236.991 4.9248 237.761 4.9248C238.491 4.9248 239.086 5.07161 239.544 5.36523C240.006 5.65527 240.271 6.15837 240.339 6.87451H238.808C238.787 6.67757 238.731 6.52181 238.642 6.40723C238.473 6.19954 238.187 6.0957 237.782 6.0957C237.449 6.0957 237.211 6.14762 237.068 6.25146C236.928 6.35531 236.858 6.47705 236.858 6.6167C236.858 6.79215 236.934 6.91927 237.084 6.99805C237.234 7.0804 237.766 7.22184 238.679 7.42236C239.288 7.56559 239.744 7.78223 240.049 8.07227C240.35 8.36589 240.5 8.73291 240.5 9.17334C240.5 9.75342 240.283 10.2279 239.85 10.5967C239.42 10.9619 238.754 11.1445 237.852 11.1445C236.932 11.1445 236.251 10.9512 235.811 10.5645C235.374 10.1742 235.156 9.67822 235.156 9.07666H236.708ZM241.037 6.23535V5.14502H241.854V3.51221H243.368V5.14502H244.319V6.23535H243.368V9.3291C243.368 9.56901 243.399 9.7194 243.459 9.78027C243.52 9.83757 243.707 9.86621 244.018 9.86621C244.065 9.86621 244.113 9.86621 244.163 9.86621C244.217 9.86263 244.269 9.85905 244.319 9.85547V10.9995L243.594 11.0264C242.87 11.0514 242.376 10.9261 242.111 10.6504C241.939 10.4749 241.854 10.2046 241.854 9.83936V6.23535H241.037ZM246.875 4.39307H245.323V2.98047H246.875V4.39307ZM245.323 5.09131H246.875V10.9458H245.323V5.09131ZM251.607 4.95166C252.213 4.95166 252.707 5.111 253.09 5.42969C253.477 5.74479 253.67 6.26937 253.67 7.00342V10.9458H252.102V7.38477C252.102 7.07682 252.06 6.84049 251.978 6.67578C251.828 6.375 251.541 6.22461 251.119 6.22461C250.599 6.22461 250.243 6.44482 250.05 6.88525C249.95 7.118 249.899 7.4152 249.899 7.77686V10.9458H248.374V5.10205H249.851V5.95605C250.048 5.65527 250.234 5.43864 250.41 5.30615C250.725 5.06982 251.124 4.95166 251.607 4.95166ZM257.602 9.68896C257.96 9.68896 258.262 9.55469 258.509 9.28613C258.756 9.014 258.88 8.58252 258.88 7.9917C258.88 7.43669 258.762 7.01416 258.525 6.72412C258.293 6.43408 257.979 6.28906 257.585 6.28906C257.048 6.28906 256.678 6.5415 256.474 7.04639C256.366 7.31494 256.312 7.64616 256.312 8.04004C256.312 8.38021 256.37 8.68278 256.484 8.94775C256.692 9.44189 257.064 9.68896 257.602 9.68896ZM257.22 4.95166C257.514 4.95166 257.77 4.99642 257.988 5.08594C258.361 5.23991 258.661 5.52279 258.891 5.93457V5.09131H260.378V10.645C260.378 11.4006 260.251 11.9699 259.997 12.353C259.56 13.0119 258.722 13.3413 257.483 13.3413C256.735 13.3413 256.125 13.1945 255.652 12.9009C255.179 12.6073 254.918 12.1686 254.868 11.585H256.533C256.576 11.764 256.646 11.8929 256.742 11.9717C256.907 12.1113 257.184 12.1812 257.575 12.1812C258.126 12.1812 258.495 11.9967 258.681 11.6279C258.803 11.3916 258.864 10.9941 258.864 10.4355V10.0596C258.717 10.3102 258.559 10.4982 258.391 10.6235C258.087 10.8563 257.691 10.9727 257.204 10.9727C256.452 10.9727 255.851 10.7095 255.399 10.1831C254.952 9.65316 254.728 8.93701 254.728 8.03467C254.728 7.16455 254.945 6.43408 255.378 5.84326C255.811 5.24886 256.425 4.95166 257.22 4.95166ZM264.987 10.9458V3.02881H266.625V6.04736H269.719V3.02881H271.362V10.9458H269.719V7.41162H266.625V10.9458H264.987ZM274.349 5.09131V8.62012C274.349 8.95312 274.388 9.20378 274.467 9.37207C274.606 9.66927 274.88 9.81787 275.289 9.81787C275.811 9.81787 276.169 9.60661 276.363 9.18408C276.463 8.95492 276.513 8.65234 276.513 8.27637V5.09131H278.065V10.9458H276.578V10.1187C276.563 10.1366 276.528 10.1903 276.47 10.2798C276.413 10.3693 276.345 10.4481 276.266 10.5161C276.026 10.731 275.793 10.8778 275.568 10.9565C275.346 11.0353 275.084 11.0747 274.784 11.0747C273.917 11.0747 273.333 10.7632 273.033 10.1401C272.864 9.79639 272.78 9.28971 272.78 8.62012V5.09131H274.349ZM286.09 4.9624C286.348 4.9624 286.602 5.01253 286.853 5.11279C287.103 5.21305 287.331 5.38851 287.535 5.63916C287.699 5.84326 287.81 6.09391 287.868 6.39111C287.903 6.58805 287.921 6.8763 287.921 7.25586L287.911 10.9458H286.342V7.21826C286.342 6.99626 286.306 6.81364 286.235 6.67041C286.099 6.39827 285.848 6.26221 285.483 6.26221C285.06 6.26221 284.769 6.43766 284.607 6.78857C284.525 6.97477 284.484 7.19857 284.484 7.45996V10.9458H282.942V7.45996C282.942 7.11263 282.907 6.86019 282.835 6.70264C282.706 6.41976 282.454 6.27832 282.078 6.27832C281.641 6.27832 281.347 6.41976 281.197 6.70264C281.114 6.86377 281.073 7.10368 281.073 7.42236V10.9458H279.521V5.10205H281.009V5.95605C281.199 5.65169 281.378 5.43506 281.546 5.30615C281.843 5.07699 282.228 4.9624 282.701 4.9624C283.148 4.9624 283.51 5.06087 283.786 5.25781C284.008 5.44043 284.176 5.67497 284.291 5.96143C284.491 5.61768 284.74 5.36523 285.037 5.2041C285.352 5.04297 285.703 4.9624 286.09 4.9624ZM292.562 8.09912C292.465 8.15999 292.367 8.21012 292.267 8.24951C292.17 8.28532 292.036 8.31934 291.864 8.35156L291.52 8.41602C291.198 8.47331 290.967 8.54313 290.827 8.62549C290.591 8.76514 290.473 8.98177 290.473 9.27539C290.473 9.53678 290.544 9.72656 290.688 9.84473C290.834 9.95931 291.012 10.0166 291.219 10.0166C291.549 10.0166 291.851 9.91992 292.127 9.72656C292.406 9.5332 292.551 9.1805 292.562 8.66846V8.09912ZM291.633 7.38477C291.916 7.34896 292.118 7.3042 292.24 7.25049C292.458 7.15739 292.567 7.01237 292.567 6.81543C292.567 6.57552 292.483 6.41081 292.315 6.32129C292.15 6.22819 291.907 6.18164 291.584 6.18164C291.223 6.18164 290.967 6.27116 290.816 6.4502C290.709 6.58268 290.637 6.76172 290.602 6.9873H289.125C289.157 6.47526 289.3 6.05452 289.554 5.7251C289.959 5.20947 290.653 4.95166 291.638 4.95166C292.279 4.95166 292.848 5.07878 293.346 5.33301C293.844 5.58724 294.093 6.06706 294.093 6.77246V9.45801C294.093 9.64421 294.096 9.86979 294.104 10.1348C294.114 10.3353 294.145 10.4714 294.195 10.543C294.245 10.6146 294.32 10.6737 294.42 10.7202V10.9458H292.755C292.709 10.8276 292.677 10.7166 292.659 10.6128C292.641 10.509 292.626 10.3908 292.616 10.2583C292.404 10.4875 292.161 10.6826 291.885 10.8438C291.556 11.0335 291.183 11.1284 290.768 11.1284C290.238 11.1284 289.799 10.978 289.452 10.6772C289.108 10.3729 288.937 9.9432 288.937 9.38818C288.937 8.66846 289.214 8.14746 289.769 7.8252C290.073 7.64974 290.521 7.52441 291.112 7.44922L291.633 7.38477ZM298.701 4.95166C299.306 4.95166 299.8 5.111 300.184 5.42969C300.57 5.74479 300.764 6.26937 300.764 7.00342V10.9458H299.195V7.38477C299.195 7.07682 299.154 6.84049 299.072 6.67578C298.921 6.375 298.635 6.22461 298.212 6.22461C297.693 6.22461 297.337 6.44482 297.144 6.88525C297.043 7.118 296.993 7.4152 296.993 7.77686V10.9458H295.468V5.10205H296.945V5.95605C297.142 5.65527 297.328 5.43864 297.503 5.30615C297.819 5.06982 298.218 4.95166 298.701 4.95166ZM301.72 7.15381H304.803V8.604H301.72V7.15381ZM305.625 7.05176C305.625 5.6696 305.995 4.60433 306.736 3.85596C307.381 3.20426 308.201 2.87842 309.196 2.87842C310.528 2.87842 311.502 3.31527 312.118 4.18896C312.458 4.67952 312.641 5.17188 312.666 5.66602H311.012C310.904 5.28646 310.766 5 310.598 4.80664C310.297 4.46289 309.852 4.29102 309.261 4.29102C308.659 4.29102 308.185 4.53451 307.837 5.02148C307.49 5.50488 307.316 6.19059 307.316 7.07861C307.316 7.96663 307.499 8.63265 307.864 9.07666C308.233 9.51709 308.7 9.7373 309.266 9.7373C309.846 9.7373 310.288 9.54753 310.593 9.16797C310.761 8.96387 310.901 8.65771 311.012 8.24951H312.65C312.507 9.11247 312.14 9.81429 311.549 10.355C310.962 10.8957 310.208 11.166 309.288 11.166C308.149 11.166 307.254 10.8008 306.602 10.0703C305.95 9.33626 305.625 8.33008 305.625 7.05176ZM316.974 4.95166C317.002 4.95166 317.026 4.95345 317.043 4.95703C317.065 4.95703 317.11 4.95882 317.178 4.9624V6.53076C317.081 6.52002 316.995 6.51286 316.92 6.50928C316.845 6.5057 316.784 6.50391 316.737 6.50391C316.121 6.50391 315.708 6.70443 315.497 7.10547C315.378 7.33105 315.319 7.67839 315.319 8.14746V10.9458H313.778V5.09131H315.239V6.11182C315.475 5.72152 315.681 5.45475 315.856 5.31152C316.143 5.07161 316.515 4.95166 316.974 4.95166ZM320.39 6.19775C320.035 6.19775 319.759 6.30876 319.562 6.53076C319.369 6.75277 319.247 7.05355 319.197 7.43311H321.577C321.552 7.02848 321.428 6.72233 321.206 6.51465C320.988 6.30339 320.715 6.19775 320.39 6.19775ZM320.39 4.93555C320.877 4.93555 321.315 5.02686 321.706 5.20947C322.096 5.39209 322.418 5.68034 322.672 6.07422C322.902 6.42155 323.05 6.82438 323.118 7.28271C323.158 7.55127 323.174 7.93799 323.167 8.44287H319.16C319.181 9.03011 319.366 9.44189 319.713 9.67822C319.924 9.82503 320.178 9.89844 320.476 9.89844C320.791 9.89844 321.047 9.80892 321.244 9.62988C321.351 9.5332 321.446 9.39893 321.528 9.22705H323.091C323.052 9.57438 322.871 9.92708 322.549 10.2852C322.048 10.8545 321.346 11.1392 320.443 11.1392C319.699 11.1392 319.042 10.8993 318.472 10.4194C317.903 9.93962 317.618 9.15902 317.618 8.07764C317.618 7.06429 317.874 6.28727 318.386 5.74658C318.902 5.20589 319.57 4.93555 320.39 4.93555ZM327.431 8.09912C327.334 8.15999 327.236 8.21012 327.136 8.24951C327.039 8.28532 326.905 8.31934 326.733 8.35156L326.389 8.41602C326.067 8.47331 325.836 8.54313 325.696 8.62549C325.46 8.76514 325.342 8.98177 325.342 9.27539C325.342 9.53678 325.413 9.72656 325.557 9.84473C325.703 9.95931 325.881 10.0166 326.088 10.0166C326.418 10.0166 326.72 9.91992 326.996 9.72656C327.275 9.5332 327.42 9.1805 327.431 8.66846V8.09912ZM326.502 7.38477C326.785 7.34896 326.987 7.3042 327.109 7.25049C327.327 7.15739 327.437 7.01237 327.437 6.81543C327.437 6.57552 327.352 6.41081 327.184 6.32129C327.019 6.22819 326.776 6.18164 326.454 6.18164C326.092 6.18164 325.836 6.27116 325.686 6.4502C325.578 6.58268 325.507 6.76172 325.471 6.9873H323.994C324.026 6.47526 324.169 6.05452 324.423 5.7251C324.828 5.20947 325.523 4.95166 326.507 4.95166C327.148 4.95166 327.718 5.07878 328.215 5.33301C328.713 5.58724 328.962 6.06706 328.962 6.77246V9.45801C328.962 9.64421 328.965 9.86979 328.973 10.1348C328.983 10.3353 329.014 10.4714 329.064 10.543C329.114 10.6146 329.189 10.6737 329.29 10.7202V10.9458H327.625C327.578 10.8276 327.546 10.7166 327.528 10.6128C327.51 10.509 327.496 10.3908 327.485 10.2583C327.274 10.4875 327.03 10.6826 326.754 10.8438C326.425 11.0335 326.053 11.1284 325.637 11.1284C325.107 11.1284 324.669 10.978 324.321 10.6772C323.978 10.3729 323.806 9.9432 323.806 9.38818C323.806 8.66846 324.083 8.14746 324.638 7.8252C324.943 7.64974 325.39 7.52441 325.981 7.44922L326.502 7.38477ZM329.725 6.23535V5.14502H330.541V3.51221H332.056V5.14502H333.006V6.23535H332.056V9.3291C332.056 9.56901 332.086 9.7194 332.147 9.78027C332.208 9.83757 332.394 9.86621 332.706 9.86621C332.752 9.86621 332.8 9.86621 332.851 9.86621C332.904 9.86263 332.956 9.85905 333.006 9.85547V10.9995L332.281 11.0264C331.558 11.0514 331.064 10.9261 330.799 10.6504C330.627 10.4749 330.541 10.2046 330.541 9.83936V6.23535H329.725ZM336.299 6.19775C335.944 6.19775 335.669 6.30876 335.472 6.53076C335.278 6.75277 335.157 7.05355 335.106 7.43311H337.486C337.461 7.02848 337.337 6.72233 337.115 6.51465C336.897 6.30339 336.625 6.19775 336.299 6.19775ZM336.299 4.93555C336.786 4.93555 337.224 5.02686 337.615 5.20947C338.005 5.39209 338.327 5.68034 338.582 6.07422C338.811 6.42155 338.959 6.82438 339.027 7.28271C339.067 7.55127 339.083 7.93799 339.076 8.44287H335.069C335.09 9.03011 335.275 9.44189 335.622 9.67822C335.833 9.82503 336.088 9.89844 336.385 9.89844C336.7 9.89844 336.956 9.80892 337.153 9.62988C337.26 9.5332 337.355 9.39893 337.438 9.22705H339C338.961 9.57438 338.78 9.92708 338.458 10.2852C337.957 10.8545 337.255 11.1392 336.353 11.1392C335.608 11.1392 334.951 10.8993 334.381 10.4194C333.812 9.93962 333.527 9.15902 333.527 8.07764C333.527 7.06429 333.783 6.28727 334.295 5.74658C334.811 5.20589 335.479 4.93555 336.299 4.93555ZM342.271 4.95166C342.626 4.95166 342.941 5.03044 343.217 5.18799C343.493 5.34196 343.716 5.5568 343.888 5.83252V3.03955H345.44V10.9458H343.953V10.1348C343.734 10.4821 343.485 10.7345 343.206 10.8921C342.927 11.0496 342.579 11.1284 342.164 11.1284C341.48 11.1284 340.904 10.8527 340.435 10.3013C339.969 9.74626 339.736 9.03548 339.736 8.16895C339.736 7.16992 339.965 6.38395 340.424 5.81104C340.886 5.23812 341.502 4.95166 342.271 4.95166ZM342.604 9.83936C343.038 9.83936 343.367 9.67822 343.593 9.35596C343.818 9.03369 343.931 8.61654 343.931 8.10449C343.931 7.38835 343.75 6.8763 343.389 6.56836C343.167 6.38216 342.909 6.28906 342.615 6.28906C342.168 6.28906 341.838 6.45915 341.627 6.79932C341.419 7.1359 341.315 7.55485 341.315 8.05615C341.315 8.59684 341.421 9.03011 341.632 9.35596C341.847 9.67822 342.171 9.83936 342.604 9.83936ZM349.678 7.05176C349.678 5.6696 350.049 4.60433 350.79 3.85596C351.435 3.20426 352.255 2.87842 353.25 2.87842C354.582 2.87842 355.556 3.31527 356.172 4.18896C356.512 4.67952 356.695 5.17188 356.72 5.66602H355.065C354.958 5.28646 354.82 5 354.652 4.80664C354.351 4.46289 353.905 4.29102 353.314 4.29102C352.713 4.29102 352.238 4.53451 351.891 5.02148C351.544 5.50488 351.37 6.19059 351.37 7.07861C351.37 7.96663 351.553 8.63265 351.918 9.07666C352.287 9.51709 352.754 9.7373 353.32 9.7373C353.9 9.7373 354.342 9.54753 354.646 9.16797C354.815 8.96387 354.954 8.65771 355.065 8.24951H356.704C356.56 9.11247 356.193 9.81429 355.603 10.355C355.015 10.8957 354.262 11.166 353.341 11.166C352.203 11.166 351.307 10.8008 350.656 10.0703C350.004 9.33626 349.678 8.33008 349.678 7.05176ZM360.474 9.86621C360.922 9.86621 361.265 9.70687 361.505 9.38818C361.745 9.0695 361.865 8.61654 361.865 8.0293C361.865 7.44206 361.745 6.99089 361.505 6.67578C361.265 6.3571 360.922 6.19775 360.474 6.19775C360.027 6.19775 359.681 6.3571 359.438 6.67578C359.198 6.99089 359.078 7.44206 359.078 8.0293C359.078 8.61654 359.198 9.0695 359.438 9.38818C359.681 9.70687 360.027 9.86621 360.474 9.86621ZM363.471 8.0293C363.471 8.88867 363.224 9.62451 362.73 10.2368C362.236 10.8455 361.486 11.1499 360.479 11.1499C359.473 11.1499 358.723 10.8455 358.229 10.2368C357.735 9.62451 357.488 8.88867 357.488 8.0293C357.488 7.18424 357.735 6.45199 358.229 5.83252C358.723 5.21305 359.473 4.90332 360.479 4.90332C361.486 4.90332 362.236 5.21305 362.73 5.83252C363.224 6.45199 363.471 7.18424 363.471 8.0293ZM367.816 4.95166C368.422 4.95166 368.916 5.111 369.299 5.42969C369.686 5.74479 369.879 6.26937 369.879 7.00342V10.9458H368.311V7.38477C368.311 7.07682 368.269 6.84049 368.187 6.67578C368.037 6.375 367.75 6.22461 367.328 6.22461C366.808 6.22461 366.452 6.44482 366.259 6.88525C366.159 7.118 366.108 7.4152 366.108 7.77686V10.9458H364.583V5.10205H366.06V5.95605C366.257 5.65527 366.443 5.43864 366.619 5.30615C366.934 5.06982 367.333 4.95166 367.816 4.95166ZM370.695 6.23535V5.14502H371.512V3.51221H373.026V5.14502H373.977V6.23535H373.026V9.3291C373.026 9.56901 373.057 9.7194 373.118 9.78027C373.179 9.83757 373.365 9.86621 373.676 9.86621C373.723 9.86621 373.771 9.86621 373.821 9.86621C373.875 9.86263 373.927 9.85905 373.977 9.85547V10.9995L373.252 11.0264C372.529 11.0514 372.035 10.9261 371.77 10.6504C371.598 10.4749 371.512 10.2046 371.512 9.83936V6.23535H370.695ZM377.27 6.19775C376.915 6.19775 376.639 6.30876 376.442 6.53076C376.249 6.75277 376.127 7.05355 376.077 7.43311H378.457C378.431 7.02848 378.308 6.72233 378.086 6.51465C377.868 6.30339 377.595 6.19775 377.27 6.19775ZM377.27 4.93555C377.757 4.93555 378.195 5.02686 378.585 5.20947C378.976 5.39209 379.298 5.68034 379.552 6.07422C379.781 6.42155 379.93 6.82438 379.998 7.28271C380.037 7.55127 380.054 7.93799 380.046 8.44287H376.04C376.061 9.03011 376.245 9.44189 376.593 9.67822C376.804 9.82503 377.058 9.89844 377.355 9.89844C377.671 9.89844 377.927 9.80892 378.124 9.62988C378.231 9.5332 378.326 9.39893 378.408 9.22705H379.971C379.932 9.57438 379.751 9.92708 379.429 10.2852C378.927 10.8545 378.226 11.1392 377.323 11.1392C376.578 11.1392 375.921 10.8993 375.352 10.4194C374.783 9.93962 374.498 9.15902 374.498 8.07764C374.498 7.06429 374.754 6.28727 375.266 5.74658C375.782 5.20589 376.45 4.93555 377.27 4.93555ZM384.327 4.95166C384.932 4.95166 385.426 5.111 385.81 5.42969C386.196 5.74479 386.39 6.26937 386.39 7.00342V10.9458H384.821V7.38477C384.821 7.07682 384.78 6.84049 384.698 6.67578C384.547 6.375 384.261 6.22461 383.838 6.22461C383.319 6.22461 382.963 6.44482 382.77 6.88525C382.669 7.118 382.619 7.4152 382.619 7.77686V10.9458H381.094V5.10205H382.571V5.95605C382.768 5.65527 382.954 5.43864 383.129 5.30615C383.444 5.06982 383.844 4.95166 384.327 4.95166ZM387.206 6.23535V5.14502H388.022V3.51221H389.537V5.14502H390.488V6.23535H389.537V9.3291C389.537 9.56901 389.568 9.7194 389.628 9.78027C389.689 9.83757 389.875 9.86621 390.187 9.86621C390.234 9.86621 390.282 9.86621 390.332 9.86621C390.386 9.86263 390.438 9.85905 390.488 9.85547V10.9995L389.763 11.0264C389.039 11.0514 388.545 10.9261 388.28 10.6504C388.108 10.4749 388.022 10.2046 388.022 9.83936V6.23535H387.206ZM395.854 8.50195C395.904 8.86361 396.002 9.13395 396.149 9.31299C396.417 9.63883 396.878 9.80176 397.529 9.80176C397.92 9.80176 398.236 9.75879 398.48 9.67285C398.942 9.50814 399.173 9.20199 399.173 8.75439C399.173 8.493 399.058 8.29069 398.829 8.14746C398.6 8.00781 398.24 7.88428 397.75 7.77686L396.912 7.58887C396.088 7.40267 395.519 7.20036 395.204 6.98193C394.67 6.6167 394.403 6.04557 394.403 5.26855C394.403 4.55957 394.661 3.97054 395.177 3.50146C395.692 3.03239 396.45 2.79785 397.449 2.79785C398.283 2.79785 398.994 3.01986 399.581 3.46387C400.172 3.9043 400.482 4.54525 400.51 5.38672H398.92C398.892 4.91048 398.684 4.5721 398.297 4.37158C398.04 4.2391 397.719 4.17285 397.336 4.17285C396.91 4.17285 396.57 4.25879 396.315 4.43066C396.061 4.60254 395.934 4.84245 395.934 5.15039C395.934 5.43327 396.059 5.64453 396.31 5.78418C396.471 5.87728 396.815 5.98649 397.341 6.11182L398.706 6.43945C399.304 6.58268 399.755 6.77425 400.059 7.01416C400.532 7.38656 400.768 7.92546 400.768 8.63086C400.768 9.35417 400.491 9.95573 399.936 10.4355C399.384 10.9118 398.604 11.1499 397.594 11.1499C396.562 11.1499 395.751 10.9154 395.161 10.4463C394.57 9.97363 394.274 9.32552 394.274 8.50195H395.854ZM404.496 9.86621C404.943 9.86621 405.287 9.70687 405.527 9.38818C405.767 9.0695 405.887 8.61654 405.887 8.0293C405.887 7.44206 405.767 6.99089 405.527 6.67578C405.287 6.3571 404.943 6.19775 404.496 6.19775C404.048 6.19775 403.702 6.3571 403.459 6.67578C403.219 6.99089 403.099 7.44206 403.099 8.0293C403.099 8.61654 403.219 9.0695 403.459 9.38818C403.702 9.70687 404.048 9.86621 404.496 9.86621ZM407.493 8.0293C407.493 8.88867 407.246 9.62451 406.751 10.2368C406.257 10.8455 405.507 11.1499 404.501 11.1499C403.495 11.1499 402.745 10.8455 402.25 10.2368C401.756 9.62451 401.509 8.88867 401.509 8.0293C401.509 7.18424 401.756 6.45199 402.25 5.83252C402.745 5.21305 403.495 4.90332 404.501 4.90332C405.507 4.90332 406.257 5.21305 406.751 5.83252C407.246 6.45199 407.493 7.18424 407.493 8.0293ZM410.119 5.09131V8.62012C410.119 8.95312 410.159 9.20378 410.237 9.37207C410.377 9.66927 410.651 9.81787 411.059 9.81787C411.582 9.81787 411.94 9.60661 412.133 9.18408C412.234 8.95492 412.284 8.65234 412.284 8.27637V5.09131H413.836V10.9458H412.348V10.1187C412.334 10.1366 412.298 10.1903 412.241 10.2798C412.183 10.3693 412.115 10.4481 412.037 10.5161C411.797 10.731 411.564 10.8778 411.338 10.9565C411.116 11.0353 410.855 11.0747 410.554 11.0747C409.688 11.0747 409.104 10.7632 408.803 10.1401C408.635 9.79639 408.551 9.28971 408.551 8.62012V5.09131H410.119ZM418.498 4.95166C418.527 4.95166 418.55 4.95345 418.568 4.95703C418.589 4.95703 418.634 4.95882 418.702 4.9624V6.53076C418.605 6.52002 418.52 6.51286 418.444 6.50928C418.369 6.5057 418.308 6.50391 418.262 6.50391C417.646 6.50391 417.232 6.70443 417.021 7.10547C416.903 7.33105 416.844 7.67839 416.844 8.14746V10.9458H415.302V5.09131H416.763V6.11182C417 5.72152 417.205 5.45475 417.381 5.31152C417.667 5.07161 418.04 4.95166 418.498 4.95166ZM423.101 7.19141C423.072 6.97298 422.999 6.77604 422.881 6.60059C422.709 6.36426 422.442 6.24609 422.081 6.24609C421.565 6.24609 421.212 6.50212 421.022 7.01416C420.922 7.2863 420.872 7.64795 420.872 8.09912C420.872 8.52881 420.922 8.87435 421.022 9.13574C421.205 9.62272 421.549 9.86621 422.054 9.86621C422.412 9.86621 422.666 9.76953 422.816 9.57617C422.967 9.38281 423.058 9.13216 423.09 8.82422H424.653C424.618 9.28971 424.449 9.73014 424.148 10.1455C423.669 10.8151 422.958 11.1499 422.016 11.1499C421.074 11.1499 420.382 10.8706 419.938 10.312C419.493 9.75342 419.271 9.02832 419.271 8.13672C419.271 7.13053 419.517 6.34814 420.007 5.78955C420.498 5.23096 421.175 4.95166 422.038 4.95166C422.772 4.95166 423.371 5.11637 423.837 5.4458C424.306 5.77523 424.583 6.3571 424.669 7.19141H423.101ZM428.037 6.19775C427.683 6.19775 427.407 6.30876 427.21 6.53076C427.017 6.75277 426.895 7.05355 426.845 7.43311H429.224C429.199 7.02848 429.076 6.72233 428.854 6.51465C428.635 6.30339 428.363 6.19775 428.037 6.19775ZM428.037 4.93555C428.524 4.93555 428.963 5.02686 429.353 5.20947C429.743 5.39209 430.066 5.68034 430.32 6.07422C430.549 6.42155 430.698 6.82438 430.766 7.28271C430.805 7.55127 430.821 7.93799 430.814 8.44287H426.807C426.829 9.03011 427.013 9.44189 427.36 9.67822C427.572 9.82503 427.826 9.89844 428.123 9.89844C428.438 9.89844 428.694 9.80892 428.891 9.62988C428.999 9.5332 429.093 9.39893 429.176 9.22705H430.739C430.699 9.57438 430.519 9.92708 430.196 10.2852C429.695 10.8545 428.993 11.1392 428.091 11.1392C427.346 11.1392 426.689 10.8993 426.12 10.4194C425.55 9.93962 425.266 9.15902 425.266 8.07764C425.266 7.06429 425.522 6.28727 426.034 5.74658C426.549 5.20589 427.217 4.93555 428.037 4.93555Z" fill="black"/>
<rect x="163.847" y="176.992" width="149.514" height="143.326" fill="#EAEAEA"/>
<rect x="180.599" y="304.427" width="47.93" height="26.9125" transform="rotate(-90 180.599 304.427)" fill="#CAC8B9"/>
<rect x="269.716" y="240.25" width="47.93" height="26.9125" transform="rotate(-90 269.716 240.25)" fill="#7881A3"/>
<rect x="222.774" y="304.427" width="47.93" height="73.854" transform="rotate(-90 222.774 304.427)" fill="#B4B7C1"/>
<rect x="180.599" y="240.25" width="47.93" height="73.854" transform="rotate(-90 180.599 240.25)" fill="#9D8289"/>
<rect x="0.110107" y="395.632" width="149.514" height="143.326" fill="#EAEAEA"/>
<rect x="18.8235" y="408.999" width="47.93" height="26.9125" fill="#CAC8B9"/>
<rect x="83.001" y="498.115" width="47.93" height="26.9125" fill="#7881A3"/>
<rect x="18.8235" y="451.174" width="47.93" height="73.854" fill="#B4B7C1"/>
<rect x="83.001" y="408.999" width="47.93" height="73.854" fill="#9D8289"/>
<rect x="163.847" y="395.632" width="149.514" height="143.326" fill="#EAEAEA"/>
<rect x="180.599" y="523.068" width="47.93" height="82.7078" transform="rotate(-90 180.599 523.068)" fill="#CAC8B9"/>
<rect x="237.225" y="458.89" width="47.93" height="59.4026" transform="rotate(-90 237.225 458.89)" fill="#7881A3"/>
<rect x="277.218" y="523.068" width="47.93" height="19.4104" transform="rotate(-90 277.218 523.068)" fill="#B4B7C1"/>
<rect x="180.599" y="458.89" width="47.93" height="42.1745" transform="rotate(-90 180.599 458.89)" fill="#9D8289"/>
<rect x="327.583" y="395.632" width="149.514" height="143.326" fill="#EAEAEA"/>
<rect x="346.297" y="408.999" width="47.93" height="26.9125" fill="#CAC8B9"/>
<rect x="410.474" y="451.174" width="47.93" height="73.854" fill="#7881A3"/>
<rect x="346.297" y="451.174" width="47.93" height="73.854" fill="#B4B7C1"/>
<rect x="410.474" y="408.999" width="47.93" height="26.9125" fill="#9D8289"/>
<rect x="491.32" y="395.632" width="149.514" height="143.326" fill="#EAEAEA"/>
<rect x="510.033" y="408.999" width="47.93" height="62.2721" fill="#CAC8B9"/>
<rect x="598.664" y="487.36" width="23.4765" height="37.6678" fill="#7881A3"/>
<rect x="510.033" y="487.36" width="73.8513" height="37.6678" fill="#9D8289"/>
<rect x="574.21" y="408.999" width="47.93" height="62.2721" fill="#B4B7C1"/>
<path d="M41.4316 377.968H43.1665L46.3193 383.495V377.968H47.8608V385.885H46.2065L42.9731 380.262V385.885H41.4316V377.968ZM51.5938 381.137C51.2393 381.137 50.9635 381.248 50.7666 381.47C50.5732 381.692 50.4515 381.993 50.4014 382.373H52.7808C52.7557 381.968 52.6322 381.662 52.4102 381.454C52.1917 381.243 51.9196 381.137 51.5938 381.137ZM51.5938 379.875C52.0807 379.875 52.5194 379.966 52.9097 380.149C53.3 380.332 53.6222 380.62 53.8765 381.014C54.1056 381.361 54.2542 381.764 54.3223 382.222C54.3617 382.491 54.3778 382.877 54.3706 383.382H50.3638C50.3853 383.97 50.5697 384.381 50.917 384.618C51.1283 384.764 51.3825 384.838 51.6797 384.838C51.9948 384.838 52.2508 384.748 52.4478 384.569C52.5552 384.473 52.6501 384.338 52.7324 384.167H54.2954C54.256 384.514 54.0752 384.867 53.7529 385.225C53.2516 385.794 52.5498 386.079 51.6475 386.079C50.9027 386.079 50.2456 385.839 49.6763 385.359C49.1069 384.879 48.8223 384.098 48.8223 383.017C48.8223 382.004 49.0783 381.227 49.5903 380.686C50.106 380.145 50.7738 379.875 51.5938 379.875ZM58.168 380.031H59.7202L60.6118 384.247L61.5249 380.031H63.1201L61.4229 385.885H59.8491L58.9307 381.621L58.0015 385.885H56.4116L54.7681 380.031H56.4116L57.3247 384.231L58.168 380.031ZM68.9102 382.894H70.9189L69.9307 379.778L68.9102 382.894ZM69.0122 377.968H70.8813L73.6851 385.885H71.8911L71.3809 384.258H68.4644L67.9165 385.885H66.187L69.0122 377.968ZM76.2095 385.885H74.5659V377.968H76.2095V385.885ZM80.4741 381.991C80.4741 380.609 80.8447 379.544 81.5859 378.795C82.2305 378.144 83.0505 377.818 84.0459 377.818C85.3779 377.818 86.3519 378.255 86.9678 379.128C87.3079 379.619 87.4906 380.111 87.5156 380.605H85.8613C85.7539 380.226 85.616 379.939 85.4478 379.746C85.147 379.402 84.7012 379.23 84.1104 379.23C83.5088 379.23 83.0343 379.474 82.687 379.961C82.3397 380.444 82.166 381.13 82.166 382.018C82.166 382.906 82.3486 383.572 82.7139 384.016C83.0827 384.457 83.55 384.677 84.1157 384.677C84.6958 384.677 85.138 384.487 85.4424 384.107C85.6107 383.903 85.7503 383.597 85.8613 383.189H87.4995C87.3563 384.052 86.9893 384.754 86.3984 385.294C85.8112 385.835 85.0575 386.105 84.1372 386.105C82.9985 386.105 82.1034 385.74 81.4517 385.01C80.8 384.276 80.4741 383.27 80.4741 381.991ZM91.27 384.806C91.7176 384.806 92.0614 384.646 92.3013 384.328C92.5412 384.009 92.6611 383.556 92.6611 382.969C92.6611 382.382 92.5412 381.93 92.3013 381.615C92.0614 381.297 91.7176 381.137 91.27 381.137C90.8224 381.137 90.4769 381.297 90.2334 381.615C89.9935 381.93 89.8735 382.382 89.8735 382.969C89.8735 383.556 89.9935 384.009 90.2334 384.328C90.4769 384.646 90.8224 384.806 91.27 384.806ZM94.2671 382.969C94.2671 383.828 94.02 384.564 93.5259 385.176C93.0317 385.785 92.2816 386.089 91.2754 386.089C90.2692 386.089 89.519 385.785 89.0249 385.176C88.5308 384.564 88.2837 383.828 88.2837 382.969C88.2837 382.124 88.5308 381.391 89.0249 380.772C89.519 380.153 90.2692 379.843 91.2754 379.843C92.2816 379.843 93.0317 380.153 93.5259 380.772C94.02 381.391 94.2671 382.124 94.2671 382.969ZM98.6123 379.891C99.2174 379.891 99.7116 380.05 100.095 380.369C100.481 380.684 100.675 381.209 100.675 381.943V385.885H99.1064V382.324C99.1064 382.016 99.0653 381.78 98.9829 381.615C98.8325 381.314 98.5461 381.164 98.1235 381.164C97.6043 381.164 97.248 381.384 97.0547 381.825C96.9544 382.057 96.9043 382.355 96.9043 382.716V385.885H95.3789V380.042H96.856V380.896C97.0529 380.595 97.2391 380.378 97.4146 380.246C97.7297 380.009 98.1289 379.891 98.6123 379.891ZM101.491 381.175V380.084H102.308V378.452H103.822V380.084H104.773V381.175H103.822V384.269C103.822 384.508 103.853 384.659 103.914 384.72C103.974 384.777 104.161 384.806 104.472 384.806C104.519 384.806 104.567 384.806 104.617 384.806C104.671 384.802 104.723 384.799 104.773 384.795V385.939L104.048 385.966C103.325 385.991 102.83 385.866 102.565 385.59C102.394 385.414 102.308 385.144 102.308 384.779V381.175H101.491ZM108.065 381.137C107.711 381.137 107.435 381.248 107.238 381.47C107.045 381.692 106.923 381.993 106.873 382.373H109.252C109.227 381.968 109.104 381.662 108.882 381.454C108.663 381.243 108.391 381.137 108.065 381.137ZM108.065 379.875C108.552 379.875 108.991 379.966 109.381 380.149C109.772 380.332 110.094 380.62 110.348 381.014C110.577 381.361 110.726 381.764 110.794 382.222C110.833 382.491 110.849 382.877 110.842 383.382H106.835C106.857 383.97 107.041 384.381 107.389 384.618C107.6 384.764 107.854 384.838 108.151 384.838C108.466 384.838 108.722 384.748 108.919 384.569C109.027 384.473 109.122 384.338 109.204 384.167H110.767C110.728 384.514 110.547 384.867 110.225 385.225C109.723 385.794 109.021 386.079 108.119 386.079C107.374 386.079 106.717 385.839 106.148 385.359C105.579 384.879 105.294 384.098 105.294 383.017C105.294 382.004 105.55 381.227 106.062 380.686C106.578 380.145 107.245 379.875 108.065 379.875ZM115.123 379.891C115.728 379.891 116.222 380.05 116.605 380.369C116.992 380.684 117.186 381.209 117.186 381.943V385.885H115.617V382.324C115.617 382.016 115.576 381.78 115.494 381.615C115.343 381.314 115.057 381.164 114.634 381.164C114.115 381.164 113.759 381.384 113.565 381.825C113.465 382.057 113.415 382.355 113.415 382.716V385.885H111.89V380.042H113.367V380.896C113.564 380.595 113.75 380.378 113.925 380.246C114.24 380.009 114.64 379.891 115.123 379.891ZM118.002 381.175V380.084H118.818V378.452H120.333V380.084H121.284V381.175H120.333V384.269C120.333 384.508 120.363 384.659 120.424 384.72C120.485 384.777 120.671 384.806 120.983 384.806C121.029 384.806 121.078 384.806 121.128 384.806C121.182 384.802 121.234 384.799 121.284 384.795V385.939L120.559 385.966C119.835 385.991 119.341 385.866 119.076 385.59C118.904 385.414 118.818 385.144 118.818 384.779V381.175H118.002Z" fill="black"/>
<path d="M206.768 377.968H208.503L211.656 383.495V377.968H213.197V385.885H211.543L208.31 380.262V385.885H206.768V377.968ZM216.93 381.137C216.576 381.137 216.3 381.248 216.103 381.47C215.91 381.692 215.788 381.993 215.738 382.373H218.117C218.092 381.968 217.969 381.662 217.747 381.454C217.528 381.243 217.256 381.137 216.93 381.137ZM216.93 379.875C217.417 379.875 217.856 379.966 218.246 380.149C218.636 380.332 218.959 380.62 219.213 381.014C219.442 381.361 219.591 381.764 219.659 382.222C219.698 382.491 219.714 382.877 219.707 383.382H215.7C215.722 383.97 215.906 384.381 216.253 384.618C216.465 384.764 216.719 384.838 217.016 384.838C217.331 384.838 217.587 384.748 217.784 384.569C217.892 384.473 217.986 384.338 218.069 384.167H219.632C219.592 384.514 219.412 384.867 219.089 385.225C218.588 385.794 217.886 386.079 216.984 386.079C216.239 386.079 215.582 385.839 215.013 385.359C214.443 384.879 214.159 384.098 214.159 383.017C214.159 382.004 214.415 381.227 214.927 380.686C215.442 380.145 216.11 379.875 216.93 379.875ZM223.504 380.031H225.057L225.948 384.247L226.861 380.031H228.457L226.759 385.885H225.186L224.267 381.621L223.338 385.885H221.748L220.104 380.031H221.748L222.661 384.231L223.504 380.031ZM234.247 382.894H236.255L235.267 379.778L234.247 382.894ZM234.349 377.968H236.218L239.021 385.885H237.228L236.717 384.258H233.801L233.253 385.885H231.523L234.349 377.968ZM241.546 385.885H239.902V377.968H241.546V385.885ZM245.811 381.991C245.811 380.609 246.181 379.544 246.922 378.795C247.567 378.144 248.387 377.818 249.382 377.818C250.714 377.818 251.688 378.255 252.304 379.128C252.644 379.619 252.827 380.111 252.852 380.605H251.198C251.09 380.226 250.952 379.939 250.784 379.746C250.483 379.402 250.038 379.23 249.447 379.23C248.845 379.23 248.371 379.474 248.023 379.961C247.676 380.444 247.502 381.13 247.502 382.018C247.502 382.906 247.685 383.572 248.05 384.016C248.419 384.457 248.886 384.677 249.452 384.677C250.032 384.677 250.474 384.487 250.779 384.107C250.947 383.903 251.087 383.597 251.198 383.189H252.836C252.693 384.052 252.326 384.754 251.735 385.294C251.148 385.835 250.394 386.105 249.474 386.105C248.335 386.105 247.44 385.74 246.788 385.01C246.136 384.276 245.811 383.27 245.811 381.991ZM256.606 384.806C257.054 384.806 257.398 384.646 257.638 384.328C257.878 384.009 257.998 383.556 257.998 382.969C257.998 382.382 257.878 381.93 257.638 381.615C257.398 381.297 257.054 381.137 256.606 381.137C256.159 381.137 255.813 381.297 255.57 381.615C255.33 381.93 255.21 382.382 255.21 382.969C255.21 383.556 255.33 384.009 255.57 384.328C255.813 384.646 256.159 384.806 256.606 384.806ZM259.604 382.969C259.604 383.828 259.356 384.564 258.862 385.176C258.368 385.785 257.618 386.089 256.612 386.089C255.606 386.089 254.855 385.785 254.361 385.176C253.867 384.564 253.62 383.828 253.62 382.969C253.62 382.124 253.867 381.391 254.361 380.772C254.855 380.153 255.606 379.843 256.612 379.843C257.618 379.843 258.368 380.153 258.862 380.772C259.356 381.391 259.604 382.124 259.604 382.969ZM263.949 379.891C264.554 379.891 265.048 380.05 265.431 380.369C265.818 380.684 266.011 381.209 266.011 381.943V385.885H264.443V382.324C264.443 382.016 264.402 381.78 264.319 381.615C264.169 381.314 263.882 381.164 263.46 381.164C262.941 381.164 262.584 381.384 262.391 381.825C262.291 382.057 262.241 382.355 262.241 382.716V385.885H260.715V380.042H262.192V380.896C262.389 380.595 262.576 380.378 262.751 380.246C263.066 380.009 263.465 379.891 263.949 379.891ZM266.828 381.175V380.084H267.644V378.452H269.159V380.084H270.109V381.175H269.159V384.269C269.159 384.508 269.189 384.659 269.25 384.72C269.311 384.777 269.497 384.806 269.809 384.806C269.855 384.806 269.903 384.806 269.954 384.806C270.007 384.802 270.059 384.799 270.109 384.795V385.939L269.384 385.966C268.661 385.991 268.167 385.866 267.902 385.59C267.73 385.414 267.644 385.144 267.644 384.779V381.175H266.828ZM273.402 381.137C273.047 381.137 272.772 381.248 272.575 381.47C272.381 381.692 272.26 381.993 272.209 382.373H274.589C274.564 381.968 274.44 381.662 274.218 381.454C274 381.243 273.728 381.137 273.402 381.137ZM273.402 379.875C273.889 379.875 274.327 379.966 274.718 380.149C275.108 380.332 275.43 380.62 275.685 381.014C275.914 381.361 276.062 381.764 276.13 382.222C276.17 382.491 276.186 382.877 276.179 383.382H272.172C272.193 383.97 272.378 384.381 272.725 384.618C272.936 384.764 273.191 384.838 273.488 384.838C273.803 384.838 274.059 384.748 274.256 384.569C274.363 384.473 274.458 384.338 274.541 384.167H276.104C276.064 384.514 275.883 384.867 275.561 385.225C275.06 385.794 274.358 386.079 273.456 386.079C272.711 386.079 272.054 385.839 271.484 385.359C270.915 384.879 270.63 384.098 270.63 383.017C270.63 382.004 270.886 381.227 271.398 380.686C271.914 380.145 272.582 379.875 273.402 379.875ZM280.459 379.891C281.065 379.891 281.559 380.05 281.942 380.369C282.329 380.684 282.522 381.209 282.522 381.943V385.885H280.954V382.324C280.954 382.016 280.912 381.78 280.83 381.615C280.68 381.314 280.393 381.164 279.971 381.164C279.451 381.164 279.095 381.384 278.902 381.825C278.802 382.057 278.751 382.355 278.751 382.716V385.885H277.226V380.042H278.703V380.896C278.9 380.595 279.086 380.378 279.262 380.246C279.577 380.009 279.976 379.891 280.459 379.891ZM283.338 381.175V380.084H284.155V378.452H285.669V380.084H286.62V381.175H285.669V384.269C285.669 384.508 285.7 384.659 285.761 384.72C285.822 384.777 286.008 384.806 286.319 384.806C286.366 384.806 286.414 384.806 286.464 384.806C286.518 384.802 286.57 384.799 286.62 384.795V385.939L285.895 385.966C285.172 385.991 284.678 385.866 284.413 385.59C284.241 385.414 284.155 385.144 284.155 384.779V381.175H283.338Z" fill="black"/>
<path d="M364.75 377.968H366.485L369.637 383.495V377.968H371.179V385.885H369.525L366.291 380.262V385.885H364.75V377.968ZM374.912 381.137C374.557 381.137 374.282 381.248 374.085 381.47C373.891 381.692 373.77 381.993 373.719 382.373H376.099C376.074 381.968 375.95 381.662 375.728 381.454C375.51 381.243 375.238 381.137 374.912 381.137ZM374.912 379.875C375.399 379.875 375.837 379.966 376.228 380.149C376.618 380.332 376.94 380.62 377.195 381.014C377.424 381.361 377.572 381.764 377.64 382.222C377.68 382.491 377.696 382.877 377.689 383.382H373.682C373.703 383.97 373.888 384.381 374.235 384.618C374.446 384.764 374.701 384.838 374.998 384.838C375.313 384.838 375.569 384.748 375.766 384.569C375.873 384.473 375.968 384.338 376.051 384.167H377.614C377.574 384.514 377.393 384.867 377.071 385.225C376.57 385.794 375.868 386.079 374.966 386.079C374.221 386.079 373.564 385.839 372.994 385.359C372.425 384.879 372.14 384.098 372.14 383.017C372.14 382.004 372.396 381.227 372.908 380.686C373.424 380.145 374.092 379.875 374.912 379.875ZM381.486 380.031H383.038L383.93 384.247L384.843 380.031H386.438L384.741 385.885H383.167L382.249 381.621L381.32 385.885H379.73L378.086 380.031H379.73L380.643 384.231L381.486 380.031ZM392.228 382.894H394.237L393.249 379.778L392.228 382.894ZM392.33 377.968H394.199L397.003 385.885H395.209L394.699 384.258H391.782L391.235 385.885H389.505L392.33 377.968ZM399.528 385.885H397.884V377.968H399.528V385.885ZM403.792 381.991C403.792 380.609 404.163 379.544 404.904 378.795C405.549 378.144 406.369 377.818 407.364 377.818C408.696 377.818 409.67 378.255 410.286 379.128C410.626 379.619 410.809 380.111 410.834 380.605H409.179C409.072 380.226 408.934 379.939 408.766 379.746C408.465 379.402 408.019 379.23 407.428 379.23C406.827 379.23 406.352 379.474 406.005 379.961C405.658 380.444 405.484 381.13 405.484 382.018C405.484 382.906 405.667 383.572 406.032 384.016C406.401 384.457 406.868 384.677 407.434 384.677C408.014 384.677 408.456 384.487 408.76 384.107C408.929 383.903 409.068 383.597 409.179 383.189H410.818C410.674 384.052 410.307 384.754 409.717 385.294C409.129 385.835 408.376 386.105 407.455 386.105C406.317 386.105 405.421 385.74 404.77 385.01C404.118 384.276 403.792 383.27 403.792 381.991ZM414.588 384.806C415.036 384.806 415.379 384.646 415.619 384.328C415.859 384.009 415.979 383.556 415.979 382.969C415.979 382.382 415.859 381.93 415.619 381.615C415.379 381.297 415.036 381.137 414.588 381.137C414.141 381.137 413.795 381.297 413.552 381.615C413.312 381.93 413.192 382.382 413.192 382.969C413.192 383.556 413.312 384.009 413.552 384.328C413.795 384.646 414.141 384.806 414.588 384.806ZM417.585 382.969C417.585 383.828 417.338 384.564 416.844 385.176C416.35 385.785 415.6 386.089 414.594 386.089C413.587 386.089 412.837 385.785 412.343 385.176C411.849 384.564 411.602 383.828 411.602 382.969C411.602 382.124 411.849 381.391 412.343 380.772C412.837 380.153 413.587 379.843 414.594 379.843C415.6 379.843 416.35 380.153 416.844 380.772C417.338 381.391 417.585 382.124 417.585 382.969ZM421.93 379.891C422.536 379.891 423.03 380.05 423.413 380.369C423.8 380.684 423.993 381.209 423.993 381.943V385.885H422.425V382.324C422.425 382.016 422.383 381.78 422.301 381.615C422.151 381.314 421.864 381.164 421.442 381.164C420.922 381.164 420.566 381.384 420.373 381.825C420.273 382.057 420.222 382.355 420.222 382.716V385.885H418.697V380.042H420.174V380.896C420.371 380.595 420.557 380.378 420.733 380.246C421.048 380.009 421.447 379.891 421.93 379.891ZM424.809 381.175V380.084H425.626V378.452H427.14V380.084H428.091V381.175H427.14V384.269C427.14 384.508 427.171 384.659 427.232 384.72C427.293 384.777 427.479 384.806 427.79 384.806C427.837 384.806 427.885 384.806 427.935 384.806C427.989 384.802 428.041 384.799 428.091 384.795V385.939L427.366 385.966C426.643 385.991 426.149 385.866 425.884 385.59C425.712 385.414 425.626 385.144 425.626 384.779V381.175H424.809ZM431.384 381.137C431.029 381.137 430.753 381.248 430.556 381.47C430.363 381.692 430.241 381.993 430.191 382.373H432.571C432.545 381.968 432.422 381.662 432.2 381.454C431.982 381.243 431.709 381.137 431.384 381.137ZM431.384 379.875C431.871 379.875 432.309 379.966 432.699 380.149C433.09 380.332 433.412 380.62 433.666 381.014C433.895 381.361 434.044 381.764 434.112 382.222C434.151 382.491 434.168 382.877 434.16 383.382H430.154C430.175 383.97 430.359 384.381 430.707 384.618C430.918 384.764 431.172 384.838 431.469 384.838C431.785 384.838 432.041 384.748 432.238 384.569C432.345 384.473 432.44 384.338 432.522 384.167H434.085C434.046 384.514 433.865 384.867 433.543 385.225C433.041 385.794 432.34 386.079 431.437 386.079C430.692 386.079 430.035 385.839 429.466 385.359C428.897 384.879 428.612 384.098 428.612 383.017C428.612 382.004 428.868 381.227 429.38 380.686C429.896 380.145 430.564 379.875 431.384 379.875ZM438.441 379.891C439.046 379.891 439.54 380.05 439.924 380.369C440.31 380.684 440.504 381.209 440.504 381.943V385.885H438.935V382.324C438.935 382.016 438.894 381.78 438.812 381.615C438.661 381.314 438.375 381.164 437.952 381.164C437.433 381.164 437.077 381.384 436.884 381.825C436.783 382.057 436.733 382.355 436.733 382.716V385.885H435.208V380.042H436.685V380.896C436.882 380.595 437.068 380.378 437.243 380.246C437.559 380.009 437.958 379.891 438.441 379.891ZM441.32 381.175V380.084H442.136V378.452H443.651V380.084H444.602V381.175H443.651V384.269C443.651 384.508 443.682 384.659 443.742 384.72C443.803 384.777 443.99 384.806 444.301 384.806C444.348 384.806 444.396 384.806 444.446 384.806C444.5 384.802 444.552 384.799 444.602 384.795V385.939L443.877 385.966C443.153 385.991 442.659 385.866 442.394 385.59C442.222 385.414 442.136 385.144 442.136 384.779V381.175H441.32Z" fill="black"/>
<path d="M526.802 377.968H528.537L531.69 383.495V377.968H533.231V385.885H531.577L528.344 380.262V385.885H526.802V377.968ZM536.964 381.137C536.61 381.137 536.334 381.248 536.137 381.47C535.944 381.692 535.822 381.993 535.772 382.373H538.151C538.126 381.968 538.003 381.662 537.781 381.454C537.562 381.243 537.29 381.137 536.964 381.137ZM536.964 379.875C537.451 379.875 537.89 379.966 538.28 380.149C538.671 380.332 538.993 380.62 539.247 381.014C539.476 381.361 539.625 381.764 539.693 382.222C539.732 382.491 539.748 382.877 539.741 383.382H535.734C535.756 383.97 535.94 384.381 536.288 384.618C536.499 384.764 536.753 384.838 537.05 384.838C537.365 384.838 537.621 384.748 537.818 384.569C537.926 384.473 538.021 384.338 538.103 384.167H539.666C539.627 384.514 539.446 384.867 539.124 385.225C538.622 385.794 537.92 386.079 537.018 386.079C536.273 386.079 535.616 385.839 535.047 385.359C534.478 384.879 534.193 384.098 534.193 383.017C534.193 382.004 534.449 381.227 534.961 380.686C535.477 380.145 536.144 379.875 536.964 379.875ZM543.539 380.031H545.091L545.982 384.247L546.896 380.031H548.491L546.793 385.885H545.22L544.301 381.621L543.372 385.885H541.782L540.139 380.031H541.782L542.695 384.231L543.539 380.031ZM554.281 382.894H556.29L555.301 379.778L554.281 382.894ZM554.383 377.968H556.252L559.056 385.885H557.262L556.751 384.258H553.835L553.287 385.885H551.558L554.383 377.968ZM561.58 385.885H559.937V377.968H561.58V385.885ZM565.845 381.991C565.845 380.609 566.215 379.544 566.957 378.795C567.601 378.144 568.421 377.818 569.417 377.818C570.749 377.818 571.722 378.255 572.338 379.128C572.679 379.619 572.861 380.111 572.886 380.605H571.232C571.125 380.226 570.987 379.939 570.818 379.746C570.518 379.402 570.072 379.23 569.481 379.23C568.879 379.23 568.405 379.474 568.058 379.961C567.71 380.444 567.537 381.13 567.537 382.018C567.537 382.906 567.719 383.572 568.084 384.016C568.453 384.457 568.921 384.677 569.486 384.677C570.066 384.677 570.509 384.487 570.813 384.107C570.981 383.903 571.121 383.597 571.232 383.189H572.87C572.727 384.052 572.36 384.754 571.769 385.294C571.182 385.835 570.428 386.105 569.508 386.105C568.369 386.105 567.474 385.74 566.822 385.01C566.171 384.276 565.845 383.27 565.845 381.991ZM576.641 384.806C577.088 384.806 577.432 384.646 577.672 384.328C577.912 384.009 578.032 383.556 578.032 382.969C578.032 382.382 577.912 381.93 577.672 381.615C577.432 381.297 577.088 381.137 576.641 381.137C576.193 381.137 575.847 381.297 575.604 381.615C575.364 381.93 575.244 382.382 575.244 382.969C575.244 383.556 575.364 384.009 575.604 384.328C575.847 384.646 576.193 384.806 576.641 384.806ZM579.638 382.969C579.638 383.828 579.391 384.564 578.896 385.176C578.402 385.785 577.652 386.089 576.646 386.089C575.64 386.089 574.89 385.785 574.396 385.176C573.901 384.564 573.654 383.828 573.654 382.969C573.654 382.124 573.901 381.391 574.396 380.772C574.89 380.153 575.64 379.843 576.646 379.843C577.652 379.843 578.402 380.153 578.896 380.772C579.391 381.391 579.638 382.124 579.638 382.969ZM583.983 379.891C584.588 379.891 585.082 380.05 585.465 380.369C585.852 380.684 586.045 381.209 586.045 381.943V385.885H584.477V382.324C584.477 382.016 584.436 381.78 584.354 381.615C584.203 381.314 583.917 381.164 583.494 381.164C582.975 381.164 582.619 381.384 582.425 381.825C582.325 382.057 582.275 382.355 582.275 382.716V385.885H580.75V380.042H582.227V380.896C582.424 380.595 582.61 380.378 582.785 380.246C583.1 380.009 583.5 379.891 583.983 379.891ZM586.862 381.175V380.084H587.678V378.452H589.193V380.084H590.144V381.175H589.193V384.269C589.193 384.508 589.223 384.659 589.284 384.72C589.345 384.777 589.531 384.806 589.843 384.806C589.889 384.806 589.938 384.806 589.988 384.806C590.042 384.802 590.093 384.799 590.144 384.795V385.939L589.418 385.966C588.695 385.991 588.201 385.866 587.936 385.59C587.764 385.414 587.678 385.144 587.678 384.779V381.175H586.862ZM593.436 381.137C593.082 381.137 592.806 381.248 592.609 381.47C592.416 381.692 592.294 381.993 592.244 382.373H594.623C594.598 381.968 594.474 381.662 594.252 381.454C594.034 381.243 593.762 381.137 593.436 381.137ZM593.436 379.875C593.923 379.875 594.362 379.966 594.752 380.149C595.142 380.332 595.465 380.62 595.719 381.014C595.948 381.361 596.097 381.764 596.165 382.222C596.204 382.491 596.22 382.877 596.213 383.382H592.206C592.228 383.97 592.412 384.381 592.759 384.618C592.971 384.764 593.225 384.838 593.522 384.838C593.837 384.838 594.093 384.748 594.29 384.569C594.397 384.473 594.492 384.338 594.575 384.167H596.138C596.098 384.514 595.917 384.867 595.595 385.225C595.094 385.794 594.392 386.079 593.49 386.079C592.745 386.079 592.088 385.839 591.519 385.359C590.949 384.879 590.665 384.098 590.665 383.017C590.665 382.004 590.921 381.227 591.433 380.686C591.948 380.145 592.616 379.875 593.436 379.875ZM600.494 379.891C601.099 379.891 601.593 380.05 601.976 380.369C602.363 380.684 602.556 381.209 602.556 381.943V385.885H600.988V382.324C600.988 382.016 600.947 381.78 600.864 381.615C600.714 381.314 600.427 381.164 600.005 381.164C599.486 381.164 599.129 381.384 598.936 381.825C598.836 382.057 598.786 382.355 598.786 382.716V385.885H597.26V380.042H598.737V380.896C598.934 380.595 599.12 380.378 599.296 380.246C599.611 380.009 600.01 379.891 600.494 379.891ZM603.373 381.175V380.084H604.189V378.452H605.704V380.084H606.654V381.175H605.704V384.269C605.704 384.508 605.734 384.659 605.795 384.72C605.856 384.777 606.042 384.806 606.354 384.806C606.4 384.806 606.448 384.806 606.499 384.806C606.552 384.802 606.604 384.799 606.654 384.795V385.939L605.929 385.966C605.206 385.991 604.712 385.866 604.447 385.59C604.275 385.414 604.189 385.144 604.189 384.779V381.175H603.373Z" fill="black"/>
<rect x="328.602" y="176.992" width="149.514" height="143.326" fill="#EAEAEA"/>
<rect x="345.355" y="304.427" width="55.7729" height="55.4705" transform="rotate(-90 345.355 304.427)" fill="#7881A3"/>
<rect x="417.048" y="261.635" width="69.3156" height="44.3354" transform="rotate(-90 417.048 261.635)" fill="#9D8289"/>
<rect x="417.048" y="304.427" width="28.5825" height="44.3354" transform="rotate(-90 417.048 304.427)" fill="#CAC8B9"/>
<rect x="345.355" y="233.2" width="40.8801" height="55.4705" transform="rotate(-90 345.355 233.2)" fill="#B4B7C1"/>
<path d="M272.184 103.43L241.007 176.992M241.007 176.992L372.729 103.43M241.007 176.992L470.157 103.43M241.007 176.992L176.315 103.43" stroke="#B4B7C1" stroke-width="0.311769"/>
<path d="M372 103.43L405.465 176.992M405.465 176.992L271.454 103.43M405.465 176.992L176.315 103.43M405.465 176.992L470.157 103.43" stroke="#B4B7C1" stroke-width="0.311769"/>
<path d="M243.376 320.175L81.0864 395.632L408.709 320.175" stroke="#B4B7C1" stroke-width="0.311769"/>
<path d="M407.695 320.175L569.984 395.632L242.362 320.175" stroke="#B4B7C1" stroke-width="0.311769"/>
<path d="M242.362 320.175V395.632L408.709 320.175" stroke="#B4B7C1" stroke-width="0.311769"/>
<path d="M408.709 320.175V395.632L242.362 320.175" stroke="#B4B7C1" stroke-width="0.311769"/>
<path d="M203.051 158.9H204.786L207.939 164.427V158.9H209.48V166.817H207.826L204.593 161.194V166.817H203.051V158.9ZM213.213 162.069C212.859 162.069 212.583 162.18 212.386 162.402C212.193 162.624 212.071 162.925 212.021 163.304H214.4C214.375 162.9 214.252 162.594 214.03 162.386C213.811 162.175 213.539 162.069 213.213 162.069ZM213.213 160.807C213.7 160.807 214.139 160.898 214.529 161.081C214.92 161.263 215.242 161.552 215.496 161.946C215.725 162.293 215.874 162.696 215.942 163.154C215.981 163.423 215.997 163.809 215.99 164.314H211.983C212.005 164.901 212.189 165.313 212.537 165.55C212.748 165.696 213.002 165.77 213.299 165.77C213.614 165.77 213.87 165.68 214.067 165.501C214.175 165.405 214.27 165.27 214.352 165.098H215.915C215.876 165.446 215.695 165.798 215.373 166.156C214.871 166.726 214.169 167.01 213.267 167.01C212.522 167.01 211.865 166.771 211.296 166.291C210.727 165.811 210.442 165.03 210.442 163.949C210.442 162.936 210.698 162.159 211.21 161.618C211.726 161.077 212.393 160.807 213.213 160.807ZM219.788 160.963H221.34L222.231 165.179L223.145 160.963H224.74L223.042 166.817H221.469L220.55 162.552L219.621 166.817H218.031L216.388 160.963H218.031L218.944 165.163L219.788 160.963ZM230.53 163.825H232.539L231.55 160.71L230.53 163.825ZM230.632 158.9H232.501L235.305 166.817H233.511L233 165.19H230.084L229.536 166.817H227.807L230.632 158.9ZM237.829 166.817H236.186V158.9H237.829V166.817ZM242.094 162.923C242.094 161.541 242.464 160.476 243.206 159.727C243.85 159.076 244.67 158.75 245.666 158.75C246.998 158.75 247.972 159.187 248.587 160.06C248.928 160.551 249.11 161.043 249.135 161.537H247.481C247.374 161.158 247.236 160.871 247.067 160.678C246.767 160.334 246.321 160.162 245.73 160.162C245.128 160.162 244.654 160.406 244.307 160.893C243.959 161.376 243.786 162.062 243.786 162.95C243.786 163.838 243.968 164.504 244.333 164.948C244.702 165.388 245.17 165.609 245.735 165.609C246.315 165.609 246.758 165.419 247.062 165.039C247.23 164.835 247.37 164.529 247.481 164.121H249.119C248.976 164.984 248.609 165.686 248.018 166.226C247.431 166.767 246.677 167.037 245.757 167.037C244.618 167.037 243.723 166.672 243.071 165.942C242.42 165.208 242.094 164.201 242.094 162.923ZM252.89 165.738C253.337 165.738 253.681 165.578 253.921 165.26C254.161 164.941 254.281 164.488 254.281 163.901C254.281 163.313 254.161 162.862 253.921 162.547C253.681 162.228 253.337 162.069 252.89 162.069C252.442 162.069 252.097 162.228 251.853 162.547C251.613 162.862 251.493 163.313 251.493 163.901C251.493 164.488 251.613 164.941 251.853 165.26C252.097 165.578 252.442 165.738 252.89 165.738ZM255.887 163.901C255.887 164.76 255.64 165.496 255.146 166.108C254.651 166.717 253.901 167.021 252.895 167.021C251.889 167.021 251.139 166.717 250.645 166.108C250.15 165.496 249.903 164.76 249.903 163.901C249.903 163.056 250.15 162.323 250.645 161.704C251.139 161.084 251.889 160.775 252.895 160.775C253.901 160.775 254.651 161.084 255.146 161.704C255.64 162.323 255.887 163.056 255.887 163.901ZM260.232 160.823C260.837 160.823 261.331 160.982 261.714 161.301C262.101 161.616 262.294 162.141 262.294 162.875V166.817H260.726V163.256C260.726 162.948 260.685 162.712 260.603 162.547C260.452 162.246 260.166 162.096 259.743 162.096C259.224 162.096 258.868 162.316 258.674 162.757C258.574 162.989 258.524 163.287 258.524 163.648V166.817H256.999V160.973H258.476V161.827C258.673 161.527 258.859 161.31 259.034 161.177C259.349 160.941 259.749 160.823 260.232 160.823ZM263.111 162.107V161.016H263.927V159.384H265.442V161.016H266.393V162.107H265.442V165.2C265.442 165.44 265.472 165.591 265.533 165.652C265.594 165.709 265.78 165.738 266.092 165.738C266.138 165.738 266.187 165.738 266.237 165.738C266.291 165.734 266.342 165.73 266.393 165.727V166.871L265.667 166.898C264.944 166.923 264.45 166.797 264.185 166.522C264.013 166.346 263.927 166.076 263.927 165.711V162.107H263.111ZM269.685 162.069C269.331 162.069 269.055 162.18 268.858 162.402C268.665 162.624 268.543 162.925 268.493 163.304H270.872C270.847 162.9 270.723 162.594 270.501 162.386C270.283 162.175 270.011 162.069 269.685 162.069ZM269.685 160.807C270.172 160.807 270.611 160.898 271.001 161.081C271.391 161.263 271.714 161.552 271.968 161.946C272.197 162.293 272.346 162.696 272.414 163.154C272.453 163.423 272.469 163.809 272.462 164.314H268.455C268.477 164.901 268.661 165.313 269.008 165.55C269.22 165.696 269.474 165.77 269.771 165.77C270.086 165.77 270.342 165.68 270.539 165.501C270.646 165.405 270.741 165.27 270.824 165.098H272.387C272.347 165.446 272.167 165.798 271.844 166.156C271.343 166.726 270.641 167.01 269.739 167.01C268.994 167.01 268.337 166.771 267.768 166.291C267.198 165.811 266.914 165.03 266.914 163.949C266.914 162.936 267.17 162.159 267.682 161.618C268.197 161.077 268.865 160.807 269.685 160.807ZM276.743 160.823C277.348 160.823 277.842 160.982 278.225 161.301C278.612 161.616 278.805 162.141 278.805 162.875V166.817H277.237V163.256C277.237 162.948 277.196 162.712 277.113 162.547C276.963 162.246 276.676 162.096 276.254 162.096C275.735 162.096 275.378 162.316 275.185 162.757C275.085 162.989 275.035 163.287 275.035 163.648V166.817H273.509V160.973H274.986V161.827C275.183 161.527 275.369 161.31 275.545 161.177C275.86 160.941 276.259 160.823 276.743 160.823ZM279.622 162.107V161.016H280.438V159.384H281.953V161.016H282.903V162.107H281.953V165.2C281.953 165.44 281.983 165.591 282.044 165.652C282.105 165.709 282.291 165.738 282.603 165.738C282.649 165.738 282.697 165.738 282.748 165.738C282.801 165.734 282.853 165.73 282.903 165.727V166.871L282.178 166.898C281.455 166.923 280.961 166.797 280.696 166.522C280.524 166.346 280.438 166.076 280.438 165.711V162.107H279.622Z" fill="black"/>
<path d="M369.054 158.9H370.789L373.942 164.427V158.9H375.483V166.817H373.829L370.596 161.194V166.817H369.054V158.9ZM379.216 162.069C378.862 162.069 378.586 162.18 378.389 162.402C378.196 162.624 378.074 162.925 378.024 163.304H380.403C380.378 162.9 380.255 162.594 380.033 162.386C379.814 162.175 379.542 162.069 379.216 162.069ZM379.216 160.807C379.703 160.807 380.142 160.898 380.532 161.081C380.923 161.263 381.245 161.552 381.499 161.946C381.728 162.293 381.877 162.696 381.945 163.154C381.984 163.423 382 163.809 381.993 164.314H377.986C378.008 164.901 378.192 165.313 378.54 165.55C378.751 165.696 379.005 165.77 379.302 165.77C379.617 165.77 379.873 165.68 380.07 165.501C380.178 165.405 380.273 165.27 380.355 165.098H381.918C381.879 165.446 381.698 165.798 381.375 166.156C380.874 166.726 380.172 167.01 379.27 167.01C378.525 167.01 377.868 166.771 377.299 166.291C376.729 165.811 376.445 165.03 376.445 163.949C376.445 162.936 376.701 162.159 377.213 161.618C377.729 161.077 378.396 160.807 379.216 160.807ZM385.791 160.963H387.343L388.234 165.179L389.147 160.963H390.743L389.045 166.817H387.472L386.553 162.552L385.624 166.817H384.034L382.391 160.963H384.034L384.947 165.163L385.791 160.963ZM396.533 163.825H398.542L397.553 160.71L396.533 163.825ZM396.635 158.9H398.504L401.308 166.817H399.514L399.003 165.19H396.087L395.539 166.817H393.81L396.635 158.9ZM403.832 166.817H402.188V158.9H403.832V166.817ZM408.097 162.923C408.097 161.541 408.467 160.476 409.208 159.727C409.853 159.076 410.673 158.75 411.668 158.75C413 158.75 413.974 159.187 414.59 160.06C414.931 160.551 415.113 161.043 415.138 161.537H413.484C413.376 161.158 413.239 160.871 413.07 160.678C412.77 160.334 412.324 160.162 411.733 160.162C411.131 160.162 410.657 160.406 410.31 160.893C409.962 161.376 409.789 162.062 409.789 162.95C409.789 163.838 409.971 164.504 410.336 164.948C410.705 165.388 411.173 165.609 411.738 165.609C412.318 165.609 412.761 165.419 413.065 165.039C413.233 164.835 413.373 164.529 413.484 164.121H415.122C414.979 164.984 414.612 165.686 414.021 166.226C413.434 166.767 412.68 167.037 411.76 167.037C410.621 167.037 409.726 166.672 409.074 165.942C408.423 165.208 408.097 164.201 408.097 162.923ZM418.893 165.738C419.34 165.738 419.684 165.578 419.924 165.26C420.164 164.941 420.284 164.488 420.284 163.901C420.284 163.313 420.164 162.862 419.924 162.547C419.684 162.228 419.34 162.069 418.893 162.069C418.445 162.069 418.099 162.228 417.856 162.547C417.616 162.862 417.496 163.313 417.496 163.901C417.496 164.488 417.616 164.941 417.856 165.26C418.099 165.578 418.445 165.738 418.893 165.738ZM421.89 163.901C421.89 164.76 421.643 165.496 421.148 166.108C420.654 166.717 419.904 167.021 418.898 167.021C417.892 167.021 417.142 166.717 416.647 166.108C416.153 165.496 415.906 164.76 415.906 163.901C415.906 163.056 416.153 162.323 416.647 161.704C417.142 161.084 417.892 160.775 418.898 160.775C419.904 160.775 420.654 161.084 421.148 161.704C421.643 162.323 421.89 163.056 421.89 163.901ZM426.235 160.823C426.84 160.823 427.334 160.982 427.717 161.301C428.104 161.616 428.297 162.141 428.297 162.875V166.817H426.729V163.256C426.729 162.948 426.688 162.712 426.605 162.547C426.455 162.246 426.169 162.096 425.746 162.096C425.227 162.096 424.871 162.316 424.677 162.757C424.577 162.989 424.527 163.287 424.527 163.648V166.817H423.001V160.973H424.479V161.827C424.675 161.527 424.862 161.31 425.037 161.177C425.352 160.941 425.751 160.823 426.235 160.823ZM429.114 162.107V161.016H429.93V159.384H431.445V161.016H432.396V162.107H431.445V165.2C431.445 165.44 431.475 165.591 431.536 165.652C431.597 165.709 431.783 165.738 432.095 165.738C432.141 165.738 432.19 165.738 432.24 165.738C432.293 165.734 432.345 165.73 432.396 165.727V166.871L431.67 166.898C430.947 166.923 430.453 166.797 430.188 166.522C430.016 166.346 429.93 166.076 429.93 165.711V162.107H429.114ZM435.688 162.069C435.333 162.069 435.058 162.18 434.861 162.402C434.667 162.624 434.546 162.925 434.496 163.304H436.875C436.85 162.9 436.726 162.594 436.504 162.386C436.286 162.175 436.014 162.069 435.688 162.069ZM435.688 160.807C436.175 160.807 436.614 160.898 437.004 161.081C437.394 161.263 437.716 161.552 437.971 161.946C438.2 162.293 438.348 162.696 438.417 163.154C438.456 163.423 438.472 163.809 438.465 164.314H434.458C434.479 164.901 434.664 165.313 435.011 165.55C435.222 165.696 435.477 165.77 435.774 165.77C436.089 165.77 436.345 165.68 436.542 165.501C436.649 165.405 436.744 165.27 436.827 165.098H438.39C438.35 165.446 438.169 165.798 437.847 166.156C437.346 166.726 436.644 167.01 435.742 167.01C434.997 167.01 434.34 166.771 433.771 166.291C433.201 165.811 432.917 165.03 432.917 163.949C432.917 162.936 433.173 162.159 433.685 161.618C434.2 161.077 434.868 160.807 435.688 160.807ZM442.746 160.823C443.351 160.823 443.845 160.982 444.228 161.301C444.615 161.616 444.808 162.141 444.808 162.875V166.817H443.24V163.256C443.24 162.948 443.199 162.712 443.116 162.547C442.966 162.246 442.679 162.096 442.257 162.096C441.738 162.096 441.381 162.316 441.188 162.757C441.088 162.989 441.038 163.287 441.038 163.648V166.817H439.512V160.973H440.989V161.827C441.186 161.527 441.372 161.31 441.548 161.177C441.863 160.941 442.262 160.823 442.746 160.823ZM445.625 162.107V161.016H446.441V159.384H447.956V161.016H448.906V162.107H447.956V165.2C447.956 165.44 447.986 165.591 448.047 165.652C448.108 165.709 448.294 165.738 448.605 165.738C448.652 165.738 448.7 165.738 448.75 165.738C448.804 165.734 448.856 165.73 448.906 165.727V166.871L448.181 166.898C447.458 166.923 446.964 166.797 446.699 166.522C446.527 166.346 446.441 166.076 446.441 165.711V162.107H445.625Z" fill="black"/>
</svg>
