<svg width="72" height="79" viewBox="0 0 72 79" fill="none" xmlns="http://www.w3.org/2000/svg">
<g filter="url(#filter0_ii_132_402)">
<path d="M66.9179 0.433628L20.2716 6.69122C18.2858 6.95762 16.8034 8.65212 16.8034 10.6557V52.1343C8.76155 53.7544 0.141846 60.2934 0.141846 67.331C0.141846 75.1603 6.27039 78.1336 12.9194 78.1336C20.8147 78.1336 27.4503 73.5329 27.465 62.1335V27.2755C27.465 26.2556 28.2325 25.399 29.2463 25.2875L58.5695 22.0621C59.7535 21.9319 60.7882 22.859 60.7882 24.0501V44.8035C52.7463 46.4236 44.1266 52.9627 44.1266 60.0002C44.1266 67.8295 50.2551 70.8028 56.9042 70.8028C64.7994 70.8028 71.4351 66.2021 71.4498 54.8027V4.39811C71.4498 1.97767 69.3169 0.111808 66.9179 0.433628Z" fill="#BFAC01"/>
</g>
<defs>
<filter id="filter0_ii_132_402" x="0.141846" y="-0.602554" width="71.3079" height="79.7361" filterUnits="userSpaceOnUse" color-interpolation-filters="sRGB">
<feFlood flood-opacity="0" result="BackgroundImageFix"/>
<feBlend mode="normal" in="SourceGraphic" in2="BackgroundImageFix" result="shape"/>
<feColorMatrix in="SourceAlpha" type="matrix" values="0 0 0 0 0 0 0 0 0 0 0 0 0 0 0 0 0 0 127 0" result="hardAlpha"/>
<feOffset dy="1"/>
<feGaussianBlur stdDeviation="1"/>
<feComposite in2="hardAlpha" operator="arithmetic" k2="-1" k3="1"/>
<feColorMatrix type="matrix" values="0 0 0 0 0 0 0 0 0 0 0 0 0 0 0 0 0 0 0.12 0"/>
<feBlend mode="normal" in2="shape" result="effect1_innerShadow_132_402"/>
<feColorMatrix in="SourceAlpha" type="matrix" values="0 0 0 0 0 0 0 0 0 0 0 0 0 0 0 0 0 0 127 0" result="hardAlpha"/>
<feOffset dy="-1"/>
<feGaussianBlur stdDeviation="0.5"/>
<feComposite in2="hardAlpha" operator="arithmetic" k2="-1" k3="1"/>
<feColorMatrix type="matrix" values="0 0 0 0 1 0 0 0 0 0.898734 0 0 0 0 0 0 0 0 1 0"/>
<feBlend mode="normal" in2="effect1_innerShadow_132_402" result="effect2_innerShadow_132_402"/>
</filter>
</defs>
</svg>
