<svg width="33" height="33" viewBox="0 0 33 33" fill="none" xmlns="http://www.w3.org/2000/svg">
<rect x="0.374756" y="0.728363" width="32" height="32" rx="4" fill="white"/>
<path fill-rule="evenodd" clip-rule="evenodd" d="M26.3433 16.7284C26.3433 22.2339 21.8803 26.6969 16.3748 26.6969C10.8693 26.6969 6.40619 22.2339 6.40619 16.7284C6.40619 11.2229 10.8693 6.75979 16.3748 6.75979C21.8803 6.75979 26.3433 11.2229 26.3433 16.7284ZM28.6088 16.7284C28.6088 23.485 23.1314 28.9624 16.3748 28.9624C9.6181 28.9624 4.14075 23.485 4.14075 16.7284C4.14075 9.97171 9.6181 4.49435 16.3748 4.49435C23.1314 4.49435 28.6088 9.97171 28.6088 16.7284ZM10.4817 19.5555C14.1691 22.5414 19.4424 22.5414 23.1297 19.5555L21.704 17.7949C18.848 20.1077 14.7635 20.1077 11.9074 17.7949L10.4817 19.5555ZM12.0174 15.6788V12.6183H14.2829V15.6788H12.0174ZM19.0471 12.6183V15.6788H21.3126V12.6183H19.0471Z" fill="black"/>
</svg>
