<svg width="89" height="72" viewBox="0 0 89 72" fill="none" xmlns="http://www.w3.org/2000/svg">
<g filter="url(#filter0_ii_132_424)">
<path fill-rule="evenodd" clip-rule="evenodd" d="M60.7272 35.9684C62.2918 34.3004 64.9341 34.2814 66.5225 35.9269L81.4451 51.3856V9.81305C81.4451 8.70848 80.5496 7.81305 79.4451 7.81305H10.1489C9.04438 7.81305 8.14895 8.70848 8.14895 9.81305V59.0498L25.581 43.5686C27.1791 42.1493 29.5027 41.9029 31.363 42.9552L43.5295 49.8378C45.1354 50.7462 47.1542 50.4384 48.4164 49.0928L60.7272 35.9684ZM84.7747 0.483437C86.9838 0.483437 88.7747 2.27429 88.7747 4.48343V67.7795C88.7747 69.9887 86.9838 71.7795 84.7747 71.7795H4.81934C2.6102 71.7795 0.819336 69.9887 0.819336 67.7795V4.48344C0.819336 2.2743 2.6102 0.483437 4.81934 0.483437H84.7747ZM18.4785 24.1371C18.4785 18.6202 22.956 14.1427 28.4729 14.1427C33.9898 14.1427 38.4673 18.6202 38.4673 24.1371C38.4673 29.659 33.9898 34.1315 28.4729 34.1315C22.956 34.1315 18.4785 29.659 18.4785 24.1371Z" fill="#BFAC01"/>
</g>
<defs>
<filter id="filter0_ii_132_424" x="0.819336" y="-0.516563" width="87.9553" height="73.2961" filterUnits="userSpaceOnUse" color-interpolation-filters="sRGB">
<feFlood flood-opacity="0" result="BackgroundImageFix"/>
<feBlend mode="normal" in="SourceGraphic" in2="BackgroundImageFix" result="shape"/>
<feColorMatrix in="SourceAlpha" type="matrix" values="0 0 0 0 0 0 0 0 0 0 0 0 0 0 0 0 0 0 127 0" result="hardAlpha"/>
<feOffset dy="1"/>
<feGaussianBlur stdDeviation="1"/>
<feComposite in2="hardAlpha" operator="arithmetic" k2="-1" k3="1"/>
<feColorMatrix type="matrix" values="0 0 0 0 0 0 0 0 0 0 0 0 0 0 0 0 0 0 0.12 0"/>
<feBlend mode="normal" in2="shape" result="effect1_innerShadow_132_424"/>
<feColorMatrix in="SourceAlpha" type="matrix" values="0 0 0 0 0 0 0 0 0 0 0 0 0 0 0 0 0 0 127 0" result="hardAlpha"/>
<feOffset dy="-1"/>
<feGaussianBlur stdDeviation="0.5"/>
<feComposite in2="hardAlpha" operator="arithmetic" k2="-1" k3="1"/>
<feColorMatrix type="matrix" values="0 0 0 0 1 0 0 0 0 0.898734 0 0 0 0 0 0 0 0 1 0"/>
<feBlend mode="normal" in2="effect1_innerShadow_132_424" result="effect2_innerShadow_132_424"/>
</filter>
</defs>
</svg>
