<svg width="131" height="42" viewBox="0 0 131 42" fill="none" xmlns="http://www.w3.org/2000/svg">
<path d="M0.65332 0.601532H115.797C123.805 0.601532 130.297 7.0934 130.297 15.1015V41.2755H15.1533C7.14519 41.2755 0.65332 34.7836 0.65332 26.7755V0.601532Z" fill="white" stroke="black"/>
<path fill-rule="evenodd" clip-rule="evenodd" d="M32.8837 21.2773C32.8837 26.5227 28.6314 30.7749 23.386 30.7749C18.1406 30.7749 13.8884 26.5227 13.8884 21.2773C13.8884 16.0319 18.1406 11.7796 23.386 11.7796C28.6314 11.7796 32.8837 16.0319 32.8837 21.2773ZM35.0421 21.2773C35.0421 27.7147 29.8235 32.9333 23.386 32.9333C16.9486 32.9333 11.73 27.7147 11.73 21.2773C11.73 14.8398 16.9486 9.62122 23.386 9.62122C29.8235 9.62122 35.0421 14.8398 35.0421 21.2773ZM17.7714 23.9709C21.2845 26.8157 26.3087 26.8157 29.8219 23.9709L28.4635 22.2934C25.7424 24.4969 21.8509 24.4969 19.1297 22.2934L17.7714 23.9709ZM19.2345 20.2773V17.3614H21.3929V20.2773H19.2345ZM25.9321 17.3614V20.2773H28.0906V17.3614H25.9321Z" fill="black"/>
<path d="M47.9223 22.1499C48.9106 22.1499 49.7176 22.4102 50.3434 22.9307C50.975 23.4453 51.2908 24.3021 51.2908 25.5009V31.9398H48.7293V26.1238C48.7293 25.6208 48.6621 25.2348 48.5275 24.9658C48.2819 24.4746 47.8141 24.229 47.124 24.229C46.276 24.229 45.6941 24.5886 45.3783 25.3079C45.2146 25.6881 45.1327 26.1735 45.1327 26.7641V31.9398H42.6414V22.3956H45.0537V23.7903C45.3754 23.2991 45.6795 22.9453 45.966 22.7289C46.4807 22.3429 47.1328 22.1499 47.9223 22.1499Z" fill="black"/>
<path d="M57.1777 30.1766C57.9087 30.1766 58.4701 29.9163 58.862 29.3958C59.2538 28.8753 59.4497 28.1355 59.4497 27.1764C59.4497 26.2173 59.2538 25.4805 58.862 24.9658C58.4701 24.4453 57.9087 24.1851 57.1777 24.1851C56.4467 24.1851 55.8823 24.4453 55.4847 24.9658C55.0928 25.4805 54.8969 26.2173 54.8969 27.1764C54.8969 28.1355 55.0928 28.8753 55.4847 29.3958C55.8823 29.9163 56.4467 30.1766 57.1777 30.1766ZM62.0726 27.1764C62.0726 28.58 61.6691 29.7818 60.8621 30.7818C60.055 31.776 58.8298 32.2731 57.1865 32.2731C55.5431 32.2731 54.3179 31.776 53.5109 30.7818C52.7038 29.7818 52.3003 28.58 52.3003 27.1764C52.3003 25.7963 52.7038 24.6003 53.5109 23.5886C54.3179 22.5768 55.5431 22.071 57.1865 22.071C58.8298 22.071 60.055 22.5768 60.8621 23.5886C61.6691 24.6003 62.0726 25.7963 62.0726 27.1764Z" fill="black"/>
<path d="M62.1698 24.2465V22.4657H63.5032V19.799H65.977V22.4657H67.5297V24.2465H65.977V29.2993C65.977 29.6912 66.0267 29.9368 66.1261 30.0362C66.2255 30.1298 66.5296 30.1766 67.0384 30.1766C67.1145 30.1766 67.1934 30.1766 67.2753 30.1766C67.363 30.1707 67.4478 30.1649 67.5297 30.159V32.0275L66.3454 32.0714C65.1641 32.1123 64.357 31.9076 63.9243 31.4573C63.6436 31.1707 63.5032 30.7292 63.5032 30.1327V24.2465H62.1698Z" fill="black"/>
<path d="M77.1862 22.1675C78.4436 22.1675 79.4261 22.6207 80.1337 23.5272C80.8472 24.4336 81.2039 25.6033 81.2039 27.0361C81.2039 28.5215 80.853 29.7526 80.1512 30.7292C79.4495 31.7058 78.4699 32.1942 77.2125 32.1942C76.423 32.1942 75.7885 32.0363 75.309 31.7205C75.0224 31.5333 74.7124 31.2058 74.3791 30.738V31.9398H71.9316V19.027H74.423V23.6237C74.7388 23.1792 75.0867 22.84 75.4669 22.6061C75.9172 22.3137 76.4903 22.1675 77.1862 22.1675ZM76.5458 30.1327C77.1891 30.1327 77.6892 29.8724 78.0459 29.352C78.4026 28.8315 78.581 28.1472 78.581 27.2992C78.581 26.6209 78.4933 26.0594 78.3178 25.615C77.9845 24.7728 77.3704 24.3518 76.4757 24.3518C75.5692 24.3518 74.9464 24.7641 74.6072 25.5887C74.4317 26.0273 74.344 26.5945 74.344 27.2905C74.344 28.1092 74.5253 28.7876 74.8879 29.3256C75.2505 29.8637 75.8031 30.1327 76.5458 30.1327Z" fill="black"/>
<path d="M82.6696 33.7732L82.9854 33.7907C83.231 33.8024 83.4649 33.7936 83.6872 33.7644C83.9094 33.7352 84.0965 33.6679 84.2486 33.5626C84.3948 33.4632 84.5293 33.2556 84.6521 32.9398C84.7808 32.624 84.8334 32.431 84.81 32.3608L81.3011 22.378H84.0819L86.1697 29.4309L88.1435 22.378H90.8015L87.5206 31.7819C86.889 33.5948 86.389 34.7177 86.0206 35.1504C85.6522 35.589 84.9153 35.8083 83.81 35.8083C83.5878 35.8083 83.4094 35.8054 83.2749 35.7996C83.1404 35.7996 82.9386 35.7908 82.6696 35.7733V33.7732Z" fill="black"/>
<path d="M97.3339 27.0536H100.615L99.0006 21.9657L97.3339 27.0536ZM97.5005 19.0095H100.553L105.132 31.9398H102.202L101.369 29.2818H96.6058L95.711 31.9398H92.8863L97.5005 19.0095Z" fill="black"/>
<path d="M110.12 31.9398H107.436V19.0095H110.12V31.9398Z" fill="black"/>
<path d="M105.843 19.0095H111.527V21.2089H105.843V19.0095Z" fill="black"/>
<path d="M105.843 29.7433H111.527V31.9428H105.843V29.7433Z" fill="black"/>
<path d="M44.6285 14.3814C45.0005 14.3814 45.309 14.2264 45.5541 13.9164C45.8021 13.6034 45.9261 13.137 45.9261 12.5169C45.9261 12.139 45.8715 11.8142 45.7622 11.5426C45.5556 11.02 45.1776 10.7587 44.6285 10.7587C44.0764 10.7587 43.6984 11.0348 43.4947 11.5869C43.3855 11.8822 43.3309 12.2571 43.3309 12.7118C43.3309 13.0779 43.3855 13.3894 43.4947 13.6463C43.7014 14.1364 44.0793 14.3814 44.6285 14.3814ZM42.5647 10.1963H43.3397V10.8252C43.4992 10.6096 43.6734 10.4428 43.8623 10.3247C44.131 10.1476 44.4469 10.059 44.8101 10.059C45.3474 10.059 45.8036 10.2657 46.1785 10.679C46.5535 11.0894 46.741 11.677 46.741 12.4416C46.741 13.475 46.4708 14.2131 45.9305 14.656C45.588 14.9365 45.1894 15.0767 44.7348 15.0767C44.3775 15.0767 44.0778 14.9985 43.8357 14.842C43.694 14.7534 43.5361 14.6014 43.3619 14.3858V16.8084H42.5647V10.1963Z" fill="black"/>
<path d="M47.3801 10.1741H48.1374V10.9935C48.1994 10.834 48.3515 10.6406 48.5936 10.4133C48.8357 10.183 49.1147 10.0679 49.4306 10.0679C49.4454 10.0679 49.4705 10.0693 49.5059 10.0723C49.5413 10.0752 49.6019 10.0811 49.6875 10.09V10.9315C49.6402 10.9226 49.596 10.9167 49.5546 10.9137C49.5162 10.9108 49.4734 10.9093 49.4262 10.9093C49.0247 10.9093 48.7161 11.0392 48.5006 11.299C48.2851 11.5559 48.1773 11.8526 48.1773 12.1892V14.9173H47.3801V10.1741Z" fill="black"/>
<path d="M51.9431 14.4036C52.4716 14.4036 52.8333 14.2043 53.0281 13.8057C53.226 13.4042 53.3249 12.9583 53.3249 12.4682C53.3249 12.0253 53.254 11.6651 53.1123 11.3876C52.8879 10.9506 52.5011 10.7322 51.952 10.7322C51.4648 10.7322 51.1105 10.9182 50.8891 11.2902C50.6676 11.6622 50.5569 12.111 50.5569 12.6365C50.5569 13.1414 50.6676 13.5621 50.8891 13.8987C51.1105 14.2353 51.4619 14.4036 51.9431 14.4036ZM51.9741 10.0369C52.5853 10.0369 53.102 10.2406 53.5242 10.648C53.9464 11.0555 54.1575 11.6548 54.1575 12.4461C54.1575 13.2108 53.9715 13.8426 53.5995 14.3416C53.2274 14.8405 52.6502 15.09 51.8678 15.09C51.2153 15.09 50.6972 14.8701 50.3133 14.4301C49.9295 13.9873 49.7376 13.3938 49.7376 12.6498C49.7376 11.8526 49.9399 11.2178 50.3443 10.7454C50.7488 10.2731 51.2921 10.0369 51.9741 10.0369Z" fill="black"/>
<path d="M55.2971 12.6011C55.2971 13.1089 55.4048 13.5341 55.6204 13.8765C55.8359 14.219 56.1813 14.3903 56.6567 14.3903C57.0257 14.3903 57.3284 14.2323 57.5646 13.9164C57.8037 13.5975 57.9233 13.1414 57.9233 12.5479C57.9233 11.9486 57.8008 11.5057 57.5557 11.2193C57.3107 10.93 57.008 10.7853 56.6478 10.7853C56.2463 10.7853 55.92 10.9388 55.6691 11.2459C55.4211 11.5529 55.2971 12.0047 55.2971 12.6011ZM56.4972 10.09C56.8604 10.09 57.1645 10.1668 57.4096 10.3203C57.5513 10.4089 57.7122 10.5639 57.8923 10.7853V8.38937H58.6585V14.9173H57.941V14.2574C57.755 14.5497 57.535 14.7608 57.2811 14.8907C57.0272 15.0206 56.7364 15.0856 56.4087 15.0856C55.8802 15.0856 55.4225 14.8641 55.0358 14.4213C54.649 13.9755 54.4556 13.3835 54.4556 12.6454C54.4556 11.9545 54.6313 11.3566 54.9826 10.8517C55.3369 10.3439 55.8418 10.09 56.4972 10.09Z" fill="black"/>
<path d="M60.3206 10.1741V13.323C60.3206 13.5651 60.359 13.7629 60.4358 13.9164C60.5775 14.1998 60.8418 14.3416 61.2285 14.3416C61.7836 14.3416 62.1615 14.0936 62.3623 13.5975C62.4715 13.3318 62.5261 12.9672 62.5261 12.5036V10.1741H63.3233V14.9173H62.5704L62.5793 14.2176C62.4759 14.3977 62.3475 14.5497 62.194 14.6737C61.8899 14.9217 61.5208 15.0457 61.0868 15.0457C60.4107 15.0457 59.9501 14.8199 59.705 14.3681C59.5722 14.126 59.5058 13.8027 59.5058 13.3982V10.1741H60.3206Z" fill="black"/>
<path d="M66.0838 10.0369C66.6182 10.0369 67.0522 10.1668 67.3858 10.4266C67.7224 10.6864 67.9247 11.1337 67.9926 11.7685H67.2176C67.1703 11.4762 67.0626 11.2341 66.8943 11.0422C66.726 10.8473 66.4558 10.7499 66.0838 10.7499C65.576 10.7499 65.2128 10.9979 64.9943 11.4939C64.8526 11.8157 64.7818 12.2128 64.7818 12.6852C64.7818 13.1606 64.8821 13.5606 65.0829 13.8854C65.2837 14.2102 65.5996 14.3726 66.0307 14.3726C66.3613 14.3726 66.6226 14.2722 66.8145 14.0714C67.0094 13.8677 67.1437 13.5902 67.2176 13.2388H67.9926C67.904 13.8677 67.6826 14.3283 67.3283 14.6206C66.974 14.9099 66.5208 15.0546 65.9687 15.0546C65.3486 15.0546 64.8541 14.8287 64.485 14.377C64.116 13.9223 63.9315 13.3554 63.9315 12.6764C63.9315 11.8438 64.1337 11.1957 64.5382 10.7322C64.9427 10.2686 65.4579 10.0369 66.0838 10.0369Z" fill="black"/>
<path d="M70.4475 10.0679C70.7841 10.0679 71.1103 10.1476 71.4263 10.307C71.7422 10.4635 71.9828 10.6672 72.1481 10.9182C72.3076 11.1573 72.4139 11.4363 72.467 11.7552C72.5142 11.9737 72.5379 12.3221 72.5379 12.8004H69.0613C69.0761 13.2816 69.1898 13.6684 69.4023 13.9607C69.6149 14.25 69.9441 14.3947 70.3899 14.3947C70.8062 14.3947 71.1384 14.2574 71.3864 13.9828C71.5281 13.8234 71.6285 13.6389 71.6875 13.4292H72.4714C72.4508 13.6034 72.3814 13.7983 72.2633 14.0138C72.1481 14.2264 72.0182 14.4006 71.8736 14.5364C71.6314 14.7726 71.3318 14.9321 70.9745 15.0147C70.7826 15.062 70.5656 15.0856 70.3235 15.0856C69.733 15.0856 69.2326 14.8715 68.8222 14.4434C68.4118 14.0124 68.2066 13.4101 68.2066 12.6365C68.2066 11.8748 68.4133 11.2562 68.8266 10.7809C69.2399 10.3055 69.7802 10.0679 70.4475 10.0679ZM71.7185 12.1671C71.6861 11.8216 71.6108 11.5456 71.4927 11.3389C71.2742 10.9551 70.9096 10.7632 70.3988 10.7632C70.0327 10.7632 69.7256 10.896 69.4776 11.1617C69.2296 11.4245 69.0982 11.7596 69.0835 12.1671H71.7185Z" fill="black"/>
<path d="M73.7085 12.6011C73.7085 13.1089 73.8162 13.5341 74.0317 13.8765C74.2473 14.219 74.5927 14.3903 75.0681 14.3903C75.4371 14.3903 75.7398 14.2323 75.976 13.9164C76.2151 13.5975 76.3347 13.1414 76.3347 12.5479C76.3347 11.9486 76.2122 11.5057 75.9671 11.2193C75.722 10.93 75.4194 10.7853 75.0592 10.7853C74.6577 10.7853 74.3314 10.9388 74.0805 11.2459C73.8325 11.5529 73.7085 12.0047 73.7085 12.6011ZM74.9086 10.09C75.2718 10.09 75.5759 10.1668 75.821 10.3203C75.9627 10.4089 76.1236 10.5639 76.3037 10.7853V8.38937H77.0698V14.9173H76.3524V14.2574C76.1664 14.5497 75.9464 14.7608 75.6925 14.8907C75.4386 15.0206 75.1478 15.0856 74.8201 15.0856C74.2916 15.0856 73.8339 14.8641 73.4472 14.4213C73.0604 13.9755 72.867 13.3835 72.867 12.6454C72.867 11.9545 73.0427 11.3566 73.394 10.8517C73.7483 10.3439 74.2532 10.09 74.9086 10.09Z" fill="black"/>
<path d="M80.0798 8.38937H80.8548V10.7499C81.029 10.5225 81.2371 10.3498 81.4793 10.2317C81.7214 10.1107 81.9841 10.0501 82.2676 10.0501C82.8581 10.0501 83.3364 10.2539 83.7025 10.6613C84.0715 11.0658 84.2561 11.6637 84.2561 12.4549C84.2561 13.2049 84.0745 13.8278 83.7113 14.3238C83.3482 14.8199 82.8448 15.0679 82.2011 15.0679C81.8409 15.0679 81.5368 14.9808 81.2888 14.8066C81.1412 14.7032 80.9832 14.5379 80.8149 14.3106V14.9173H80.0798V8.38937ZM82.1524 14.3637C82.5835 14.3637 82.9053 14.1925 83.1179 13.85C83.3334 13.5075 83.4412 13.0558 83.4412 12.4948C83.4412 11.9958 83.3334 11.5825 83.1179 11.2547C82.9053 10.927 82.5909 10.7632 82.1746 10.7632C81.8114 10.7632 81.4925 10.8975 81.218 11.1662C80.9463 11.4349 80.8105 11.8777 80.8105 12.4948C80.8105 12.9406 80.8666 13.3023 80.9788 13.5798C81.1884 14.1024 81.5796 14.3637 82.1524 14.3637Z" fill="black"/>
<path d="M87.8359 10.1741H88.7172C88.605 10.4782 88.3555 11.1721 87.9687 12.2556C87.6794 13.0705 87.4373 13.7348 87.2424 14.2486C86.7818 15.4591 86.4571 16.1972 86.2681 16.4629C86.0791 16.7286 85.7544 16.8615 85.2938 16.8615C85.1816 16.8615 85.0945 16.8571 85.0325 16.8482C84.9734 16.8394 84.8996 16.8231 84.8111 16.7995V16.0732C84.9498 16.1116 85.0502 16.1352 85.1122 16.144C85.1742 16.1529 85.2288 16.1573 85.2761 16.1573C85.4237 16.1573 85.5315 16.1322 85.5994 16.082C85.6702 16.0348 85.7293 15.9758 85.7765 15.9049C85.7913 15.8813 85.8444 15.7602 85.9359 15.5417C86.0275 15.3233 86.0939 15.1609 86.1352 15.0546L84.3815 10.1741H85.2849L86.556 14.036L87.8359 10.1741Z" fill="black"/>
<path d="M91.2975 8.38937H92.0947V10.8163C92.2837 10.5772 92.4534 10.4089 92.604 10.3114C92.8609 10.1431 93.1812 10.059 93.565 10.059C94.2529 10.059 94.7194 10.2996 94.9645 10.7809C95.0974 11.0436 95.1638 11.4083 95.1638 11.8748V14.9173H94.3445V11.9279C94.3445 11.5795 94.3002 11.3241 94.2116 11.1617C94.0669 10.9019 93.7953 10.772 93.3967 10.772C93.0661 10.772 92.7664 10.8857 92.4977 11.113C92.229 11.3404 92.0947 11.77 92.0947 12.4018V14.9173H91.2975V8.38937Z" fill="black"/>
<path d="M96.826 10.1741V13.323C96.826 13.5651 96.8644 13.7629 96.9411 13.9164C97.0828 14.1998 97.3471 14.3416 97.7339 14.3416C98.2889 14.3416 98.6668 14.0936 98.8676 13.5975C98.9768 13.3318 99.0315 12.9672 99.0315 12.5036V10.1741H99.8286V14.9173H99.0758L99.0846 14.2176C98.9813 14.3977 98.8528 14.5497 98.6993 14.6737C98.3952 14.9217 98.0262 15.0457 97.5921 15.0457C96.916 15.0457 96.4554 14.8199 96.2104 14.3681C96.0775 14.126 96.0111 13.8027 96.0111 13.3982V10.1741H96.826Z" fill="black"/>
<path d="M100.76 10.1741H101.548V10.8473C101.737 10.6141 101.909 10.4443 102.062 10.338C102.325 10.1579 102.623 10.0679 102.957 10.0679C103.335 10.0679 103.639 10.1609 103.869 10.3469C103.999 10.4532 104.117 10.6096 104.223 10.8163C104.4 10.5624 104.609 10.3749 104.848 10.2539C105.087 10.1299 105.356 10.0679 105.654 10.0679C106.292 10.0679 106.726 10.2981 106.956 10.7587C107.08 11.0067 107.142 11.3404 107.142 11.7596V14.9173H106.314V11.6223C106.314 11.3064 106.234 11.0894 106.075 10.9713C105.918 10.8532 105.726 10.7942 105.499 10.7942C105.186 10.7942 104.916 10.899 104.688 11.1086C104.464 11.3182 104.352 11.6681 104.352 12.1582V14.9173H103.541V11.8216C103.541 11.4998 103.503 11.2651 103.426 11.1175C103.305 10.896 103.079 10.7853 102.749 10.7853C102.447 10.7853 102.173 10.9019 101.925 11.1352C101.68 11.3684 101.557 11.7906 101.557 12.4018V14.9173H100.76V10.1741Z" fill="black"/>
<path d="M108.609 13.6551C108.609 13.8854 108.693 14.067 108.862 14.1998C109.03 14.3327 109.229 14.3991 109.459 14.3991C109.74 14.3991 110.012 14.3342 110.274 14.2043C110.717 13.9887 110.939 13.6359 110.939 13.1458V12.5036C110.841 12.5656 110.716 12.6173 110.562 12.6587C110.409 12.7 110.258 12.7295 110.111 12.7472L109.628 12.8092C109.338 12.8476 109.121 12.9081 108.977 12.9908C108.732 13.1296 108.609 13.351 108.609 13.6551ZM110.54 12.0431C110.723 12.0194 110.846 11.9427 110.908 11.8128C110.943 11.7419 110.961 11.64 110.961 11.5072C110.961 11.2356 110.863 11.0392 110.669 10.9182C110.477 10.7942 110.201 10.7322 109.84 10.7322C109.424 10.7322 109.129 10.8444 108.955 11.0687C108.857 11.1927 108.794 11.3773 108.764 11.6223H108.02C108.035 11.0377 108.224 10.6318 108.587 10.4044C108.953 10.1741 109.377 10.059 109.858 10.059C110.416 10.059 110.869 10.1653 111.218 10.3779C111.563 10.5904 111.736 10.9211 111.736 11.3699V14.1024C111.736 14.1851 111.752 14.2515 111.785 14.3017C111.82 14.3519 111.892 14.377 112.002 14.377C112.037 14.377 112.077 14.3755 112.121 14.3726C112.165 14.3667 112.213 14.3593 112.263 14.3504V14.9394C112.139 14.9749 112.044 14.997 111.979 15.0059C111.914 15.0147 111.826 15.0192 111.714 15.0192C111.439 15.0192 111.24 14.9217 111.116 14.7269C111.051 14.6235 111.005 14.4774 110.979 14.2884C110.816 14.501 110.583 14.6855 110.279 14.842C109.975 14.9985 109.64 15.0767 109.273 15.0767C108.834 15.0767 108.473 14.9439 108.193 14.6781C107.915 14.4095 107.777 14.0744 107.777 13.6728C107.777 13.2329 107.914 12.8919 108.188 12.6498C108.463 12.4077 108.823 12.2586 109.269 12.2025L110.54 12.0431Z" fill="black"/>
<path d="M112.729 10.1741H113.487V10.8473C113.711 10.5698 113.949 10.3705 114.2 10.2494C114.451 10.1284 114.73 10.0679 115.037 10.0679C115.71 10.0679 116.164 10.3026 116.401 10.772C116.531 11.0289 116.596 11.3965 116.596 11.8748V14.9173H115.785V11.9279C115.785 11.6386 115.742 11.4053 115.657 11.2282C115.515 10.9329 115.258 10.7853 114.886 10.7853C114.697 10.7853 114.542 10.8045 114.421 10.8429C114.203 10.9078 114.011 11.0377 113.845 11.2326C113.712 11.3891 113.625 11.5515 113.584 11.7198C113.546 11.8851 113.526 12.1228 113.526 12.4328V14.9173H112.729V10.1741Z" fill="black"/>
</svg>
