<svg width="18" height="14" viewBox="0 0 18 14" fill="none" xmlns="http://www.w3.org/2000/svg">
<path d="M17.157 1.78684C16.5569 2.05324 15.912 2.23265 15.2351 2.31352C15.9262 1.89965 16.457 1.24385 16.7064 0.462332C16.0601 0.845618 15.3438 1.12425 14.5813 1.27444C13.9717 0.624073 13.1012 0.217682 12.1389 0.217682C9.9785 0.217682 8.39099 2.23333 8.87893 4.32577C6.09875 4.18646 3.63322 2.85447 1.98251 0.829987C1.10585 2.33391 1.52787 4.3013 3.01752 5.29758C2.46977 5.27991 1.95329 5.12972 1.50272 4.87895C1.46603 6.42908 2.57715 7.87932 4.1864 8.20212C3.71545 8.32988 3.19965 8.35978 2.67501 8.2592C3.10043 9.58847 4.33591 10.5555 5.80109 10.5827C4.39435 11.6857 2.622 12.1784 0.846924 11.9691C2.32774 12.9184 4.08718 13.4723 5.97643 13.4723C12.1892 13.4723 15.6992 8.22523 15.4872 3.5191C16.141 3.04679 16.7084 2.45759 17.157 1.78684Z" fill="black"/>
</svg>
